<svg xmlns="http://www.w3.org/2000/svg" viewBox="0 0 70.61 119.13"><defs><style>.cls-1{fill:#fff;}</style></defs><g id="Layer_2" data-name="Layer 2"><g id="baby-cat-body-1-patterns"><g id="body-1-pattern-5-mask"><path class="cls-1" d="M.63,118.52C6,109.74,12.91,99.39,18.23,90.61a81.53,81.53,0,0,0,6.46-12.13L30.8,92.84,43.11,22.2A24.84,24.84,0,0,0,53,35.53q-.08-13.07-.13-26.13A30.42,30.42,0,0,1,53.68.61c2.89,7.39,9,12.94,15.93,16.9a198.1,198.1,0,0,1-.47,30.59,46,46,0,0,0-.5,7.42v-2a66.41,66.41,0,0,1-.61,9l-.1.22a26.19,26.19,0,0,1-1.36,3.89c-.75,1.73-1.63,3.41-2.37,5.15a45.34,45.34,0,0,1-5.5,9.55A87.36,87.36,0,0,1,20,112.84l-.26.1A61.9,61.9,0,0,1,.63,118.52Z"/><path class="cls-1" d="M1.17,118.83C5.24,112.14,9.55,105.59,13.75,99s8.64-13.12,11.54-20.33l-1.14.15,6.11,14.35A.63.63,0,0,0,31.41,93L41,38.07l2.73-15.7h-1.2a25.88,25.88,0,0,0,10.16,13.7.63.63,0,0,0,.94-.54L53.53,18q0-4.32,0-8.63A31.18,31.18,0,0,1,54.28.78H53.07c3,7.61,9.25,13.22,16.23,17.27L69,17.51c.38,6.52.48,13.06.24,19.6-.12,3.25-.32,6.51-.61,9.76A69.46,69.46,0,0,0,68,55.52a.63.63,0,0,0,1.25,0v-2a.63.63,0,0,0-1.25,0c0,1.74-.06,3.48-.2,5.22a19.81,19.81,0,0,1-.61,4.28,86.23,86.23,0,0,1-3.81,9A68,68,0,0,1,52.65,88.26,87.09,87.09,0,0,1,22.6,111a96,96,0,0,1-10.17,4.22,76.53,76.53,0,0,1-12,2.67c-.79.12-.46,1.33.33,1.21a77.85,77.85,0,0,0,11.1-2.41A90.86,90.86,0,0,0,21,113.07a87.5,87.5,0,0,0,17.09-9.67,88.91,88.91,0,0,0,14.37-13A88,88,0,0,0,58.31,83a60.91,60.91,0,0,0,5.37-8.57,81,81,0,0,0,4.38-9.92c1.13-3.48,1.18-7.31,1.19-11H68v2h1.25c-.15-4.11.62-8.23.9-12.32q.45-6.68.45-13.37c0-2.25,0-4.51-.11-6.77,0-1.12-.08-2.25-.14-3.38,0-.68.16-2-.25-2.55A7.07,7.07,0,0,0,68.25,16c-.83-.52-1.64-1.06-2.44-1.63a39.91,39.91,0,0,1-4.39-3.61A29.39,29.39,0,0,1,54.28.44a.63.63,0,0,0-1.21,0,29.65,29.65,0,0,0-.84,8q0,4.54.05,9.07l.08,18L53.3,35a24.51,24.51,0,0,1-9.59-13c-.17-.55-1.09-.65-1.2,0L32.93,77,30.2,92.67l1.14-.15L25.23,78.17c-.24-.56-1-.28-1.15.15-2.91,7.23-7.48,13.85-11.65,20.4S4.08,111.63.09,118.2A.63.63,0,0,0,1.17,118.83Z"/></g></g></g></svg>