<svg xmlns="http://www.w3.org/2000/svg" viewBox="0 0 57.49 42.18"><defs><style>.cls-1{fill:#fff;}</style></defs><g id="Layer_2" data-name="Layer 2"><g id="baby-cat-body-1-patterns"><g id="body-1-pattern-2-mask"><path class="cls-1" d="M47.81.64l1.53,1.72,4.4,4.92c1.06,1.19,2.13,2.38,3.15,3.6l-.19-.23c.45,1.11-.76,1.83-1.7,2.58a10.68,10.68,0,0,0-1.23.89c-.84.89-.62,2.34-.17,3.48s1.09,2.31.91,3.53c-.34,2.23-3.31,3.57-3.16,5.82.11,1.62,1.85,2.91,1.58,4.5-.21,1.21-1.51,2-1.76,3.18-.15.72.11,1.52-.21,2.19s-1.28,1-2,1.42-.22,2.79.41,3.33l-9.1-4.28A32.79,32.79,0,0,0,36,35.53c-4.07-1.25-8.43-.86-12.67-.46l-10.78,1-.2.08a8.09,8.09,0,0,1-6-3,17.71,17.71,0,0,1-3.21-6.05A46.6,46.6,0,0,1,.8,8h0C4.11,5.19,9.16,4.54,13.42,3.9,25.3,2.12,36.82-.94,48.56,1.63"/><path class="cls-1" d="M47.36,1.08c3,3.4,6.15,6.75,9.09,10.24.52.62,1.4-.27.88-.88l-.19-.24c-.42-.49-1.2,0-1,.61.29,1.06-1.51,1.92-2.19,2.41a3,3,0,0,0-1.15,1.42c-.58,1.66.36,3.15.87,4.67.7,2.07-.4,3.14-1.61,4.63a4.28,4.28,0,0,0-1.24,3.33c.22,1.46,1.93,2.83,1.48,4.33-.24.79-1,1.37-1.39,2.1a4.77,4.77,0,0,0-.35,2c-.1,1.38-1,1.29-1.86,2A1.64,1.64,0,0,0,48,38.76,4.1,4.1,0,0,0,48.94,42l.76-1c-3.59-1.68-7.15-3.45-10.78-5.05a23.77,23.77,0,0,0-10.76-1.89c-4,.15-7.95.66-11.9,1-1.71.17-3.71.68-5.4.25a8.34,8.34,0,0,1-4.3-2.93c-2.41-3-3.48-7.14-4.27-10.81a45.64,45.64,0,0,1-1-12.06,2.55,2.55,0,0,1,.23-1.35,3,3,0,0,1,.93-.7,15.11,15.11,0,0,1,2.4-1.15A29.62,29.62,0,0,1,9.61,5.14c3.7-.68,7.45-1.18,11.16-1.82C29.9,1.76,39.2.28,48.39,2.23c.79.17,1.12-1,.33-1.21C40.35-.75,31.88.21,23.53,1.59c-4.11.68-8.22,1.38-12.33,2C7.83,4.14,4.25,4.8,1.38,6.74.94,7,.36,7.35.19,7.86A11.87,11.87,0,0,0,0,11a45.17,45.17,0,0,0,.29,6.26A44.46,44.46,0,0,0,3.19,29c1.28,3.14,3.3,6.17,6.61,7.39a9.88,9.88,0,0,0,4.74.2l6.62-.63c4.69-.45,9.64-1.19,14.27.1A45.2,45.2,0,0,1,42.35,39l6.71,3.16a.63.63,0,0,0,.76-1,2.74,2.74,0,0,1-.58-2c.15-.7,1-.82,1.56-1.24,1.4-1.09.57-2.83,1.5-4.16.75-1.09,1.55-2,1.18-3.41s-2-2.79-1.3-4.45c.54-1.24,1.74-2.08,2.41-3.25a4.46,4.46,0,0,0,.09-4.07,8.65,8.65,0,0,1-.85-2.65c-.06-1.25.76-1.63,1.62-2.27,1.08-.82,2.26-1.69,1.85-3.19l-1,.61.2.23.88-.88C54.39,7,51.29,3.6,48.25.2c-.54-.6-1.42.29-.89.88Z"/></g></g></g></svg>