<svg xmlns="http://www.w3.org/2000/svg" viewBox="0 0 175.83 124.68"><defs><style>.cls-1{fill:#fff;}</style></defs><g id="Layer_2" data-name="Layer 2"><g id="baby-cat-body-1-patterns"><g id="body-1-pattern-6-mask"><path class="cls-1" d="M3.94,43q6.81,13.6,12.5,27.71l.15.32A11.45,11.45,0,0,0,12,70.13L24.23,89.77c.79,1.16,2.17,3,3,4.18a106.76,106.76,0,0,0,11.61,12C53.76,118.49,72.07,124.81,93,124c10.93-1,22.16-2,31.94-7l.26-.11A87.26,87.26,0,0,0,163.9,85.42a44.49,44.49,0,0,0,5.5-9.55c.75-1.74,1.63-3.42,2.38-5.16a26,26,0,0,0,1.36-3.88l.09-.22a68.18,68.18,0,0,0,.62-9v2a46.24,46.24,0,0,1,.5-7.43,206.07,206.07,0,0,0-1.21-47.67V4.1l.09,0-.09,0c-3.76-.91-8-2.57-11.74-3.48a42.37,42.37,0,0,1,2.1,26A152.84,152.84,0,0,0,144.84,7.44c3.29,12.61,6.59,25.35,7,38.38S149.64,72.36,142,82.91l-.62-15.43c-5.2,8.88-14.6,14.33-23.74,19-16.41,8.44-34.88,16-52.88,11.88A70.53,70.53,0,0,0,78.93,82.71C60.36,87,39.59,79.32,28.29,64a81.43,81.43,0,0,0,19.47-19.9A98.14,98.14,0,0,1,.62,36.71v-.09a40.69,40.69,0,0,1,3.51,6.73"/><path class="cls-1" d="M3.4,43.3Q7,50.43,10.23,57.69c2,4.5,3.77,9.14,5.82,13.63l.7-.92A12.6,12.6,0,0,0,12,69.51a.63.63,0,0,0-.54.94L23.16,89.23A75.79,75.79,0,0,0,35.6,103.89a75.86,75.86,0,0,0,20,13.53A77.27,77.27,0,0,0,78,123.93a85.93,85.93,0,0,0,12.42.74,114.87,114.87,0,0,0,13.22-1.17,83.47,83.47,0,0,0,13-2.6,88.49,88.49,0,0,0,11.41-4.58,87.8,87.8,0,0,0,20.29-12.79,91.88,91.88,0,0,0,16.07-17.8,56.87,56.87,0,0,0,3.47-5.35c1-1.85,1.82-3.79,2.71-5.7s1.77-3.62,2.44-5.51a20.8,20.8,0,0,0,1.09-5.11c.22-2.15.31-4.3.32-6.46h-1.25v2h1.25c-.17-4.43.68-8.9,1-13.31q.45-7.17.38-14.35t-.64-14.28q-.28-3.66-.69-7.29a57.53,57.53,0,0,1-.73-6.25l-.79.61.09,0c.78.17,1.12-1,.33-1.21-4-.87-7.83-2.51-11.82-3.5-.41-.11-1,.3-.77.77a42.28,42.28,0,0,1,2.1,25.65l1-.28A156.31,156.31,0,0,0,145.29,7a.64.64,0,0,0-1,.61c5.13,19.66,10.43,40.65,4.23,60.71a49.64,49.64,0,0,1-7,14.27l1.16.32L142,67.48a.63.63,0,0,0-1.16-.31c-5.29,8.9-14.57,14.2-23.52,18.81C107,91.3,96.12,96.17,84.58,98.11a51.55,51.55,0,0,1-19.65-.31l.27,1A72.53,72.53,0,0,0,79.47,83c.32-.48-.21-1-.71-.92a49.94,49.94,0,0,1-41.35-9.63,46.9,46.9,0,0,1-8.58-8.83l-.23.86A83.47,83.47,0,0,0,48.3,44.39a.62.62,0,0,0-.54-.94,98.27,98.27,0,0,1-47-7.34l.46.6v-.09l-1.16.32a43.78,43.78,0,0,1,3.44,6.58c.29.74,1.5.41,1.2-.33A43.66,43.66,0,0,0,1.16,36.3.63.63,0,0,0,0,36.62v.09a.65.65,0,0,0,.46.6,98.89,98.89,0,0,0,47.3,7.39l-.54-1A81.59,81.59,0,0,1,28,63.43a.63.63,0,0,0-.22.86A51.21,51.21,0,0,0,66.33,84.47,48.52,48.52,0,0,0,79.1,83.32l-.71-.92A71.81,71.81,0,0,1,64.32,98a.62.62,0,0,0,.28,1c11.69,2.59,23.66.43,34.76-3.61a150.73,150.73,0,0,0,16.56-7.3A113.44,113.44,0,0,0,130,80,40.38,40.38,0,0,0,141.92,67.8l-1.17-.32.62,15.43a.63.63,0,0,0,1.17.31c12-16.69,11.3-38.39,7.34-57.62-1.27-6.16-2.85-12.24-4.43-18.32l-1,.61A155.58,155.58,0,0,1,163.06,27a.62.62,0,0,0,1-.27A43.45,43.45,0,0,0,162,.45l-.77.77c4,1,7.8,2.64,11.82,3.51.78.17,1.12-1,.33-1.21l-.09,0a.64.64,0,0,0-.79.6,57.53,57.53,0,0,0,.73,6.25q.4,3.63.69,7.29.57,7.13.64,14.28t-.38,14.35c-.28,4.41-1.13,8.88-1,13.31a.63.63,0,0,0,1.25,0v-2a.63.63,0,0,0-1.25,0c0,3.83-.1,7.76-1.41,11.38-.72,2-1.7,3.81-2.57,5.71s-1.66,3.77-2.69,5.57a84.27,84.27,0,0,1-15,18.77,86.91,86.91,0,0,1-19.2,13.82A81.19,81.19,0,0,1,109,121.42a103.49,103.49,0,0,1-25.63,1.8,77.7,77.7,0,0,1-23-5.11,75.8,75.8,0,0,1-20.18-11.87,86.45,86.45,0,0,1-9.62-9.42,61.65,61.65,0,0,1-5.87-7.51c-4-6.24-7.87-12.6-11.8-18.9l-.37-.6-.54,1a11.7,11.7,0,0,1,4.45.85c.57.22.91-.49.71-.92-2-4.49-3.8-9.13-5.82-13.63Q8,49.79,4.48,42.67C4.12,42,3,42.58,3.4,43.3Z"/></g></g></g></svg>