<svg xmlns="http://www.w3.org/2000/svg" viewBox="0 0 132.46 163.47"><defs><style>.cls-1{fill:#fff;}</style></defs><g id="Layer_2" data-name="Layer 2"><g id="baby-cat-body-1-patterns"><g id="body-1-pattern-4-mask"><path class="cls-1" d="M50.35,27.34c.15,1,.32,1.94.49,2.9a21.74,21.74,0,0,0,1.7,6.07A17.73,17.73,0,0,0,57,41.52C59.53,43.72,68.9,49.3,71.16,50c4.54,1.38,9.1,2.69,13.66,4,5.92,1.7,11.91,3.38,18.06,3.76C110,58.2,117,56.91,124,55.57c2.51-.48,5.16-1.08,7.82-1.82-7.09,19.64-17.62,38.63-20.62,59.63-3,16-7.31,33.42-5,49.39v.08a79.37,79.37,0,0,1-9.89-7.11,106.76,106.76,0,0,1-11.61-12c-.8-1.17-2.18-3-3-4.18L69.48,120a11.57,11.57,0,0,1,4.62.87l-.14-.31q-5.7-14.1-12.51-27.71l.19.37a53.68,53.68,0,0,0-7.76-12.71c-1.42-1.81-2.94-3.52-4.47-5.23L45,70.32,32.44,56.26c-1.11-1.23-2.21-2.47-3.37-3.65a104.34,104.34,0,0,0-7.94-7l-12.07-10C7.23,34,5,32,3.07,30.67A7.57,7.57,0,0,1,.65,24.05,21.1,21.1,0,0,1,3,17.11,43.56,43.56,0,0,1,9.39,6.56C12.14,3.47,15.86,1.06,20,.65h.41c12.26,5.75,18.4,20.82,29.9,28"/><path class="cls-1" d="M49.75,27.5c.53,3.43.93,7.19,2.86,10.17a20.21,20.21,0,0,0,5.08,5.19,78.42,78.42,0,0,0,11.1,6.75,37.12,37.12,0,0,0,6.43,2.25Q80.62,53.45,86,55c7.1,2,14.25,3.72,21.68,3.45A89,89,0,0,0,119.88,57C124,56.25,128,55.46,132,54.35l-.77-.77c-5,13.78-11.5,27-16.08,40.91-1.16,3.54-2.2,7.14-3,10.77s-1.32,7.09-2,10.63c-1.45,7.48-3,14.94-4,22.5A115.49,115.49,0,0,0,105,150.57c-.06,2.12,0,4.25.06,6.38.1,2,.56,4,.56,5.9l.94-.54a76.31,76.31,0,0,1-15.16-12.09A73.13,73.13,0,0,1,82.14,139c-3-4.69-5.91-9.46-8.86-14.19L70,119.63l-.54.94a11.87,11.87,0,0,1,4.45.86c.57.22.91-.49.71-.92-2-4.49-3.8-9.13-5.82-13.63Q65.55,99.61,62,92.49c-.36-.72-1.43-.09-1.08.63l.19.37c.31.62,1.41.18,1.14-.48a55.37,55.37,0,0,0-8.78-14.07c-3.86-4.71-8.08-9.15-12.14-13.69S33.35,56,29,51.68s-9.19-8-13.86-11.89C12.85,37.88,10.52,36,8.23,34c-1-.86-2-1.72-3-2.55a10.79,10.79,0,0,1-3-2.76c-1.46-2.47-1-5.48-.1-8a54.51,54.51,0,0,1,3.8-8c2.67-4.77,6.44-9.41,11.9-11a4.33,4.33,0,0,1,2.89-.22,19.52,19.52,0,0,1,3,1.75,36.36,36.36,0,0,1,5.21,4.31c7.2,7,12.44,16.15,21.1,21.6.68.43,1.31-.65.63-1.08C42.44,22.94,37.34,14.44,30.73,7.66a44,44,0,0,0-5-4.51C24.86,2.53,24,2,23.13,1.42A8.64,8.64,0,0,0,20.33,0,7.57,7.57,0,0,0,17.47.5a15.9,15.9,0,0,0-3.62,1.56A21,21,0,0,0,8.09,7.13,40.07,40.07,0,0,0,3.58,14.4,33.83,33.83,0,0,0,.26,22.53a9.57,9.57,0,0,0,.86,6.81,7.17,7.17,0,0,0,2.13,2.22c1.31.95,2.54,2,3.77,3.07,4.85,4.15,9.83,8.17,14.74,12.26,2.3,1.92,4.59,3.87,6.71,6s4.25,4.62,6.34,7L49.27,76C53.91,81.21,58.4,86.83,61,93.34l1.14-.48L62,92.49l-1.08.63q3.57,7.13,6.83,14.39c2,4.5,3.77,9.14,5.82,13.63l.71-.92a12.85,12.85,0,0,0-4.79-.9.64.64,0,0,0-.54,1l8.15,13c1.3,2.08,2.59,4.17,3.9,6.24a70,70,0,0,0,8.22,10.19,78.51,78.51,0,0,0,16.69,13.64.64.64,0,0,0,.94-.54c0-1.64-.41-3.36-.51-5-.13-2-.17-3.94-.14-5.91a105.23,105.23,0,0,1,.79-11.07c.91-7.52,2.43-15,3.88-22.39,1.42-7.26,2.6-14.45,4.8-21.53,2.14-6.86,4.8-13.55,7.56-20.19,3.14-7.59,6.41-15.12,9.21-22.85.17-.45-.34-.88-.77-.77A115.86,115.86,0,0,1,110.6,57a60.61,60.61,0,0,1-21-2.33c-3.43-.92-6.83-1.93-10.23-2.92a77.56,77.56,0,0,1-8.64-2.62,66.57,66.57,0,0,1-10.54-6.08,25.2,25.2,0,0,1-5.61-4.84c-2.54-3.11-3-7.22-3.58-11-.13-.79-1.33-.46-1.21.33Z"/></g></g></g></svg>