<svg xmlns="http://www.w3.org/2000/svg" viewBox="0 0 112.08 113.48"><defs><style>.cls-1{fill:#fff;}</style></defs><g id="Layer_2" data-name="Layer 2"><g id="baby-cat-body-1-patterns"><g id="body-1-pattern-7-mask"><path class="cls-1" d="M54.23,16.36,69,17.09a98,98,0,0,1,16,1.69l-.79-.16c3.08.49,6.88,1.93,9.93,2.59a31.31,31.31,0,0,0,11.54.3c-.49.86-.57,2.07.35,2.41s2.07.68,2.28,1.64-.57,1.65-1.1,2.38a5.51,5.51,0,0,0-1,3.49,1.48,1.48,0,0,0,.32,1c.42.42,1.11.28,1.67.42a2.36,2.36,0,0,1,1.46,2.72,9.27,9.27,0,0,1-1.4,3.07,4.59,4.59,0,0,0-.78,3.22c.58,2.4,4.31,3.49,4,5.93-.19,1.53-2,2.74-1.57,4.2a7.43,7.43,0,0,0,.87,1.38c.6,1,.65,3.81-.34,4.51q-1.69,0-3.39-.09c-6.14-.38-12.13-2.06-18-3.76L83.6,52.44q-4.17-1.2-8.32-2.46a25.58,25.58,0,0,1-4.06-1.65,71.34,71.34,0,0,1-10.11-6.82,17.73,17.73,0,0,1-4.44-5.21A21.41,21.41,0,0,1,55,30.23c-.17-.92-.33-1.86-.47-2.8-.56-3.65-.82-7.36.36-10.81"/><path class="cls-1" d="M54.23,17l15.43.76a95.5,95.5,0,0,1,15.18,1.64l.33-1.21L84.38,18,84,19.22c3.54.6,6.87,2,10.38,2.69a33.19,33.19,0,0,0,11.42.21l-.7-.92a2.77,2.77,0,0,0-.22,2.53c.56,1,2.85.9,2.77,2.31,0,.53-.74,1.18-1,1.59a6.06,6.06,0,0,0-.82,1.6c-.33,1-.63,2.66.15,3.54s2.45.13,2.94,1.68-1,3.21-1.66,4.6c-1.06,2.32-.25,4.07,1.51,5.67a6.25,6.25,0,0,1,1.94,2.19c.43,1.25-.77,2.29-1.25,3.32a2.53,2.53,0,0,0,.14,2.61,4.53,4.53,0,0,1,.89,3.17,2,2,0,0,1-.19.84c-.19.31-.16.26-.41.36a6.82,6.82,0,0,1-2.42-.06,47.68,47.68,0,0,1-5.72-.65,97.14,97.14,0,0,1-9.92-2.34C88.22,53.15,84.6,52.09,81,51c-3.14-.92-6.57-1.64-9.46-3.24l.29.71h0a.66.66,0,0,0-.28-.71,77.54,77.54,0,0,1-7-4.44,25.43,25.43,0,0,1-6.6-6.15c-1.88-2.82-2.27-6.42-2.78-9.7-.56-3.58-.8-7.22.32-10.72.25-.76-1-1.09-1.2-.33a23.4,23.4,0,0,0-.43,10.69c.5,3.47.91,7.32,2.8,10.35A23.75,23.75,0,0,0,63,43.76a76.05,76.05,0,0,0,7.94,5.11l-.28-.71h0a.63.63,0,0,0,.28.7,38.81,38.81,0,0,0,7.91,2.82c3.47,1,7,2,10.43,3,6.69,1.92,13.64,3.88,20.67,3.74,2.12,0,2.1-3.13,1.68-4.65-.34-1.19-1.56-1.9-.9-3.22.49-1,1.26-1.73,1.37-2.84.22-2.17-2-3.32-3.22-4.72-2.48-2.81,1.85-5.39,1.4-8.44a2.88,2.88,0,0,0-1.62-2.29,5.55,5.55,0,0,0-.81-.17c-1-.25-1.11-.84-1-1.77A5.48,5.48,0,0,1,108,28c.71-1,1.47-2.13.62-3.29a3.19,3.19,0,0,0-1.28-1,7.61,7.61,0,0,1-.79-.31c-.75-.43-.63-.92-.29-1.6a.64.64,0,0,0-.71-.92,31.12,31.12,0,0,1-11.58-.39c-3.21-.73-6.3-1.95-9.55-2.51-.78-.13-1.13,1-.34,1.21l.8.17c.78.16,1.12-1,.33-1.21a93.66,93.66,0,0,0-15-1.65l-15.91-.79c-.8,0-.8,1.21,0,1.25Z"/><path class="cls-1" d="M83.6,52.44q-4.17-1.2-8.32-2.46a25.58,25.58,0,0,1-4.06-1.65,71.34,71.34,0,0,1-10.11-6.82,17.73,17.73,0,0,1-4.44-5.21A21.41,21.41,0,0,1,55,30.23c-.17-.92-.33-1.86-.47-2.8l.11,1.18C43.11,21.46,37,6.39,24.71.64H24.3c-4.11.41-7.83,2.82-10.58,5.91A43.87,43.87,0,0,0,7.28,17.1,21.42,21.42,0,0,0,5,24,7.56,7.56,0,0,0,7.4,30.66c2,1.34,4.16,3.35,6,4.87l12.07,10A104.34,104.34,0,0,1,33.4,52.6c1.16,1.18,2.27,2.42,3.37,3.65l11,12.34,1.53,1.72,4.4,4.91c1.53,1.71,3.06,3.42,4.47,5.23l.27.35c.27-1.5.27-3.94,1-5.09.74-.4,2.13-.8,5.08-.56,1.68.14,3-2.06,2.76-3.73a4.88,4.88,0,0,1-.24-2,2.33,2.33,0,0,1,1.56-1.28,15.1,15.1,0,0,1,5.87-1A3,3,0,0,0,76.2,67c1.14-.68.7-2.41.19-3.64s-.72-3.09.54-3.51a5,5,0,0,1,1.72,0,2.69,2.69,0,0,0,2.66-2.52c0-.91-.43-1.77-.45-2.67s1.43-2.67,2.27-2.33"/><path class="cls-1" d="M83.76,51.84q-3.58-1-7.16-2.11a26.38,26.38,0,0,1-5.07-1.94l.29.71h0a.66.66,0,0,0-.28-.71,58.27,58.27,0,0,1-10.45-7.13,15,15,0,0,1-4.36-5.76,39,39,0,0,1-1.63-7.63c-.11-.69-1.3-.54-1.23.16L54,28.61l.94-.54C47.39,23.32,42.43,15.65,36.52,9.2a40.89,40.89,0,0,0-9.65-8.14,6.71,6.71,0,0,0-2.26-1,8.08,8.08,0,0,0-3,.53,17.43,17.43,0,0,0-6,3.32C11.5,7.25,9,12.08,6.75,16.79c-1.92,4-3.92,9.26-.8,13.27a14.69,14.69,0,0,0,2.68,2.29c1,.82,2,1.69,3,2.55,2.28,2,4.62,3.85,6.93,5.77C23.1,44.4,27.78,48,32,52.07c4.65,4.51,8.8,9.6,13.11,14.43S54,76.09,58,81.24a.62.62,0,0,0,1-.28c.23-1.37,0-3.29.75-4.51.52-.9,2.48-.76,3.4-.74,1.5,0,2.63.18,3.7-1.06a4.36,4.36,0,0,0,1-3.39c-.09-.7-.39-1.58.17-2.11a3.79,3.79,0,0,1,1.37-.62,15,15,0,0,1,3.44-.69c1.33-.09,3.18.37,4.14-.83.78-1,.47-2.36.1-3.43a6.3,6.3,0,0,1-.55-2c0-1.58,1.32-1,2.38-1.1a3.34,3.34,0,0,0,2.9-2.71,7,7,0,0,0-.33-2.49,1.64,1.64,0,0,1,.21-1.33c.17-.28.75-1.1,1.19-1,.79.17,1.12-1,.34-1.21-1.12-.24-2.07.69-2.61,1.58a2.67,2.67,0,0,0-.44,1.55c0,1,.66,2,.34,3-.79,2.38-3.44.45-4.72,2-.8,1-.52,2.44-.14,3.53a4.68,4.68,0,0,1,.54,2.36c-.27,1.26-2.14.82-3.12.88A12.06,12.06,0,0,0,67.55,68a2.28,2.28,0,0,0-1.08,1.47c-.17.87.32,1.68.27,2.56a3,3,0,0,1-1.37,2.33c-.89.45-2.26.06-3.25.11s-2.51.14-3.16.92c-1,1.26-.84,3.73-1.08,5.24l1-.27c-3.31-4.26-7.07-8.19-10.67-12.21L36.91,55.47c-7.32-8.18-16.36-14.62-24.68-21.74-.89-.76-1.79-1.53-2.71-2.26A12.44,12.44,0,0,1,6.72,29c-1.49-2.22-1.33-5-.58-7.49a44.4,44.4,0,0,1,3.25-7.29,36.2,36.2,0,0,1,4.34-6.74,19.19,19.19,0,0,1,5.61-4.65,13.89,13.89,0,0,1,3.37-1.29,3.3,3.3,0,0,1,2.77.17A36.71,36.71,0,0,1,34.91,9.3C41.24,16,46.35,24.14,54.29,29.15a.63.63,0,0,0,.94-.54l-.11-1.18-1.23.17a36.23,36.23,0,0,0,1.8,8,15.94,15.94,0,0,0,4.21,5.63,59,59,0,0,0,11,7.59l-.28-.71h0a.63.63,0,0,0,.28.7,24.89,24.89,0,0,0,4.91,1.92c2.53.77,5.08,1.52,7.62,2.26a.63.63,0,0,0,.33-1.21Z"/><path class="cls-1" d="M56.66,112.83q-2.34-1.14-4.71-2.25l-11.67-5.49A32.79,32.79,0,0,0,36,103.33c-4.07-1.25-8.44-.86-12.67-.45l-10.78,1-.2.08a8.13,8.13,0,0,1-6-3A18,18,0,0,1,3.19,95,46.43,46.43,0,0,1,.8,75.75h0c3.31-2.76,8.36-3.41,12.62-4,11.87-1.79,23.4-4.85,35.13-2.28l-.74-.84,1.53,1.72,4.4,4.91c1.53,1.71,3.06,3.42,4.47,5.23l.27.35a58.06,58.06,0,0,1,6.36,9.84,20.62,20.62,0,0,0-2.21.63c-.38.37-.24,1,0,1.48a3.23,3.23,0,0,1,.25,1.89c0,.21-.12.15-.3.26a2.68,2.68,0,0,1-1.1.24c-.6.09-.67.93-.52,1.51s.36,1.32-.11,1.71a2.21,2.21,0,0,1-1.1.27A2.25,2.25,0,0,0,58,101.39a9.76,9.76,0,0,0,1,1.73,1.72,1.72,0,0,1,.07,1.88c-.77.94-2.49,0-3.45.8a1.88,1.88,0,0,0-.3,2.18c.3.74.82,1.37,1.06,2.12S57.4,112.53,56.66,112.83Z"/><path class="cls-1" d="M57,112.29c-3.94-1.92-7.93-3.76-11.9-5.62-3.63-1.71-7.3-3.85-11.31-4.5s-8.11-.14-12.13.24L15,103c-1.84.18-3.52.54-5.28-.26-3.81-1.72-5.41-6-6.53-9.75a45.91,45.91,0,0,1-2-12.64c0-1,0-2,.06-3A2.55,2.55,0,0,1,1.55,76a3.28,3.28,0,0,1,1.08-.79,18.2,18.2,0,0,1,5.05-1.88c3.75-.89,7.62-1.29,11.42-1.94C28.77,69.76,38.63,68,48.39,70A.63.63,0,0,0,49,69l-.75-.84-.88.89C53.52,75.91,60.14,82.62,64.3,91l.38-.92c-.77.29-1.86.23-2.49.8-1.12,1,.77,3-.14,3.61-.57.38-1.07,0-1.52.62a2,2,0,0,0-.25,1.41c0,.27.31.88.22,1.11-.23.54-.84.35-1.23.52a3.13,3.13,0,0,0-1.35,1,2.87,2.87,0,0,0-.11,3.35c.22.38.88,1,.86,1.49-.05.78-.65.93-1.25.93a4,4,0,0,0-1.85.26,2.38,2.38,0,0,0-.84,3.05c.14.38,2.13,3.79,1.62,4.14-.66.45,0,1.53.63,1.08,2.43-1.64-2.83-6.14-.65-7.22.53-.27,1.45,0,2-.11a1.93,1.93,0,0,0,1.25-.72c.88-1.23-.13-2.47-.73-3.53a1.65,1.65,0,0,1,.71-2.49c.7-.25,1.35,0,1.85-.72a1.77,1.77,0,0,0,.26-1.31c0-.3-.24-.68-.19-1,.1-.61.37-.52.86-.66,1.31-.35,1.31-1.53,1-2.7-.08-.28-.48-.89-.33-1.17a2.5,2.5,0,0,1,.66-.19c.44-.12.91-.18,1.33-.34a.64.64,0,0,0,.37-.92C61.17,81.89,54.47,75.1,48.25,68.15c-.54-.6-1.42.29-.88.89l.74.83.61-1.05c-8.85-1.88-17.81-.68-26.62.81-4.27.73-8.57,1.32-12.83,2.11A26.51,26.51,0,0,0,4,73.18a15.17,15.17,0,0,0-2.18,1.07c-.49.3-1.4.76-1.64,1.33a10,10,0,0,0-.18,3c0,1.16,0,2.32,0,3.48A45.83,45.83,0,0,0,.81,88.4c.73,4,1.83,8.35,4.13,11.74,1.95,2.87,4.88,4.72,8.38,4.31,4.54-.52,9.13-1,13.69-1.25a26.85,26.85,0,0,1,7.54.39,36.43,36.43,0,0,1,7.43,3c4.79,2.26,9.61,4.47,14.37,6.79C57.07,113.72,57.7,112.64,57,112.29Z"/></g></g></g></svg>