<svg xmlns="http://www.w3.org/2000/svg" viewBox="0 0 57.21 56.31"><defs><style>.cls-1{fill:#fff;}</style></defs><g id="Layer_2" data-name="Layer 2"><g id="baby-cat-body-1-patterns"><g id="body-1-pattern-11-mask"><path class="cls-1" d="M5.63,12.13c1.15,1.53,1,3.71.22,5.46a46.12,46.12,0,0,1-2.95,4.9C-.87,29,.27,37.64,4.63,43.76s11.48,9.88,18.83,11.45a15.41,15.41,0,0,0,5.57.38c2.86-.44,5.35-2.13,7.67-3.85A32.33,32.33,0,0,0,43.07,46c5.79-7.35,5-18.1,1.32-26.71A34.15,34.15,0,0,0,34.33,5.5,21.64,21.64,0,0,0,18.21.82c-5.69.84-11,4.78-12.77,10.25"/><path class="cls-1" d="M5.09,12.45c2,2.94-.43,6.14-2,8.6A18.44,18.44,0,0,0,.22,28.37a21.86,21.86,0,0,0,3,14.42A27.52,27.52,0,0,0,15,53a37.63,37.63,0,0,0,7.13,2.55c2.83.69,5.8,1.16,8.64.26a25.31,25.31,0,0,0,7.27-4.32A28.69,28.69,0,0,0,44,45.85a22.42,22.42,0,0,0,3.93-14.27C47.47,21.19,42.05,9.88,33.31,4,28.41.68,22.1-.95,16.28.58A16.44,16.44,0,0,0,4.83,10.9c-.26.77,1,1.09,1.21.33A15.09,15.09,0,0,1,16.1,1.93C21.19.41,26.76,1.57,31.29,4.2,40,9.27,45.56,20,46.51,29.86a22.71,22.71,0,0,1-2.7,14,22.48,22.48,0,0,1-5.32,5.77,33.07,33.07,0,0,1-6.66,4.48c-5,2.31-11.31.16-16-2.06a26.7,26.7,0,0,1-11.3-9.52,20.26,20.26,0,0,1-2.64-16c.81-2.88,2.62-5,4-7.6,1.19-2.18,1.74-4.88.26-7.07-.45-.67-1.53,0-1.08.63Z"/><path class="cls-1" d="M50.05,37.43c.39,4.29-3.22,7.8-4.61,11.87a3.29,3.29,0,0,0-.22,1.41,2.69,2.69,0,0,0,2.42,2,6.27,6.27,0,0,0,5-1.76,12.53,12.53,0,0,0,2.92-4.65,11.57,11.57,0,0,0,1-4.62,5.67,5.67,0,0,0-1.9-4.2,3.76,3.76,0,0,0-4.41-.34"/><path class="cls-1" d="M49.42,37.43c.24,3.2-1.7,5.91-3.16,8.59-.7,1.28-1.67,2.9-1.68,4.41a3,3,0,0,0,2.27,2.72c3,1,6-1.07,7.68-3.43,1.77-2.54,3.15-6.18,2.53-9.29a5.7,5.7,0,0,0-2.62-3.9,4.41,4.41,0,0,0-4.49,0c-.68.43-.05,1.51.63,1.08a3.18,3.18,0,0,1,3.51.13A4.71,4.71,0,0,1,55.9,41c.38,2.65-.87,5.68-2.31,7.86-1.34,2-4.33,4.26-6.85,2.85-1.42-.79-.76-2.28-.22-3.46s1.12-2.17,1.72-3.24c1.33-2.34,2.64-4.83,2.43-7.61-.05-.79-1.31-.8-1.25,0Z"/></g></g></g></svg>