<svg xmlns="http://www.w3.org/2000/svg" viewBox="0 0 128.07 167.36"><defs><style>.cls-1{fill:#fff;}</style></defs><g id="Layer_2" data-name="Layer 2"><g id="baby-cat-body-1-patterns"><g id="body-1-pattern-14-mask"><path class="cls-1" d="M126.83,52a10.49,10.49,0,0,0-11,5.69,18.41,18.41,0,0,0-1.39,6.41c-.27,3.26-.37,6.53-.43,9.81-.06,3.83,0,7.79,1.44,11.34a15,15,0,0,0,11.19,8.9"/><path class="cls-1" d="M127,51.42a11.25,11.25,0,0,0-8.94,2.45c-3,2.47-3.88,6.1-4.22,9.81a107.66,107.66,0,0,0-.44,14.25c.17,3.87,1,7.71,3.35,10.86a15.81,15.81,0,0,0,9.71,6c.79.14,1.13-1.06.33-1.2A14.58,14.58,0,0,1,117,86.89c-2.55-4.17-2.42-9.23-2.32-14,0-2.61.14-5.23.33-7.84s.36-5.13,1.54-7.39a9.92,9.92,0,0,1,10.15-5.09c.78.13,1.12-1.08.33-1.2Z"/><path class="cls-1" d="M127.44,94.14v-.26"/><path class="cls-1" d="M128.07,94.14v-.26a.48.48,0,0,0-.06-.24.44.44,0,0,0-.13-.2.66.66,0,0,0-.44-.18l-.16,0a.61.61,0,0,0-.28.16l-.1.12a.72.72,0,0,0-.08.32v.26a.42.42,0,0,0,.05.24.63.63,0,0,0,.13.2.53.53,0,0,0,.2.13.49.49,0,0,0,.24.05l.17,0a.57.57,0,0,0,.27-.16l.1-.13a.59.59,0,0,0,.09-.31Z"/><path class="cls-1" d="M84.7,16,84,32.32a17.83,17.83,0,0,0,.15,4,9.79,9.79,0,0,0,9,7.53,11.73,11.73,0,0,0,10.44-6,17.85,17.85,0,0,0,2-5.74c1-5.16.44-11-3.19-14.82a15.39,15.39,0,0,0-6-3.68,12.79,12.79,0,0,0-6.74-.76A6.65,6.65,0,0,0,84.56,17"/><path class="cls-1" d="M84.08,16,83.6,27.88c-.13,3.24-.8,7,.43,10.11a10.61,10.61,0,0,0,13,6c6-1.88,8.73-7.48,9.46-13.32.71-5.61-.52-11.73-5.3-15.24S86.58,9.65,84,16.86c-.28.76.93,1.09,1.2.34,2.29-6.28,11.23-3.69,15.19-.84,4.36,3.13,5.46,8.67,4.93,13.73-.57,5.43-3,10.92-8.61,12.68C92,44.25,86.34,41.76,85,36.83a14.85,14.85,0,0,1-.27-4.75l.21-5.19L85.33,16c0-.81-1.22-.81-1.25,0Z"/><path class="cls-1" d="M49.2,8.57a11.25,11.25,0,0,1,7.16-7.44A9.15,9.15,0,0,1,61.14.8c4.19.91,7,5.3,7.09,9.58a6.09,6.09,0,0,1-.37,2.51,5.92,5.92,0,0,1-1.53,2,17.57,17.57,0,0,1-9.14,4A11.74,11.74,0,0,1,54,19a7,7,0,0,1-5.3-3.76,7,7,0,0,1,.18-6.5"/><path class="cls-1" d="M49.8,8.74a10.66,10.66,0,0,1,6.89-7.06A7.88,7.88,0,0,1,66,5.22a10.55,10.55,0,0,1,1.53,4.62,6.31,6.31,0,0,1-.2,2.59,5.84,5.84,0,0,1-2,2.46,15.12,15.12,0,0,1-5.19,2.65,16.47,16.47,0,0,1-5.9.9,6.34,6.34,0,0,1-4.94-9.35c.38-.71-.7-1.34-1.08-.64a7.61,7.61,0,0,0,3.2,10.46c2.08,1,4.29.86,6.51.45A19.78,19.78,0,0,0,64.57,17c1.82-1.09,3.73-2.66,4.16-4.85a10.64,10.64,0,0,0-.79-5.94c-1.56-3.74-5-6.48-9.2-6.18A11.81,11.81,0,0,0,48.59,8.41a.63.63,0,0,0,1.21.33Z"/><path class="cls-1" d="M104.76,41.32a16.86,16.86,0,0,1-8,5.39c-1.21.38-2.57.7-3.25,1.75A4,4,0,0,0,93,50.11a5.91,5.91,0,0,0,.3,3.23A5,5,0,0,0,97.5,56a10.66,10.66,0,0,0,5.06-1.09,17,17,0,0,0,5.56-3.67A10.08,10.08,0,0,0,111,45.33a3.53,3.53,0,0,0-1.06-3.17,3.73,3.73,0,0,0-1.41-.58,12.29,12.29,0,0,0-3.53-.3"/><path class="cls-1" d="M104.32,40.88A16.91,16.91,0,0,1,100,44.6a38,38,0,0,1-5.09,2.08,3.9,3.9,0,0,0-2.53,3.43,5.64,5.64,0,0,0,1.19,4.75c2.69,2.92,7.05,1.72,10.14.23C107,53.52,110,51,111.15,47.48c.55-1.62.82-3.78-.29-5.23-1.24-1.64-4-1.68-5.89-1.59-.8,0-.8,1.29,0,1.25,1.4-.07,3.86-.15,4.86,1s.51,3.1.07,4.35c-1.08,3.05-3.73,5.19-6.55,6.59-2.61,1.3-6.56,2.66-8.9.09a4.86,4.86,0,0,1-.6-4.75c.54-1.39,2.25-1.61,3.5-2a17.58,17.58,0,0,0,7.86-5.42c.51-.61-.37-1.5-.89-.88Z"/><path class="cls-1" d="M91.17,89.14A16.8,16.8,0,0,0,79.27,94a20.62,20.62,0,0,0-5.82,11.57,9.41,9.41,0,0,0,.81,6.39,7.68,7.68,0,0,0,5.28,3.28A19.16,19.16,0,0,0,85.9,115c2.5-.41,5.2-1.08,6.7-3.11s1.4-5,2.94-7,4.12-2.76,5.08-4.94c1.07-2.43-.57-5.2-2.5-7-2.41-2.28-5.67-4-9-3.53"/><path class="cls-1" d="M91.17,88.51A18,18,0,0,0,76,97a21.91,21.91,0,0,0-3.19,8.74c-.39,2.87-.07,6,2.24,8s5.6,2.42,8.61,2.12c2.69-.26,5.77-.65,8-2.27,2.6-1.86,2.53-4.89,3.83-7.53s4.48-3.3,5.67-5.9c1.35-3-.75-6.13-2.89-8.06-2.48-2.24-5.7-3.84-9.11-3.45-.79.09-.8,1.34,0,1.25a10.39,10.39,0,0,1,7.77,2.69c1.9,1.58,4.26,4.34,3.11,7-.92,2.14-3.54,3-4.94,4.75s-1.47,4.46-2.63,6.53c-1.29,2.29-4,3-6.37,3.41-2.86.5-6.07.87-8.76-.48-5.58-2.8-3.35-10.64-1-15a17,17,0,0,1,14.83-9.11.63.63,0,0,0,0-1.25Z"/><path class="cls-1" d="M74.84,58.62c-1.67.77-1.85,3-1.77,4.86a2.81,2.81,0,0,0,.26,1.32,2.2,2.2,0,0,0,1.9.91,5.38,5.38,0,0,0,5-3.81c.5-1.59.17-3.62-1.29-4.43-1.66-.94-3.73.15-5.18,1.4"/><path class="cls-1" d="M74.52,58.08c-1.75.85-2.09,3-2.09,4.75,0,1.07,0,2.24,1,2.94a3.74,3.74,0,0,0,2.83.49,6.11,6.11,0,0,0,4.49-3.75c.68-1.65.58-3.93-.85-5.18-2-1.78-4.77-.38-6.5,1.1-.61.53.28,1.41.89.89,1.1-1,2.94-2.15,4.42-1.32,1.22.7,1.39,2.4,1,3.63a5,5,0,0,1-2.91,3.19,3.49,3.49,0,0,1-2.21.16c-.87-.26-.88-1-.9-1.82,0-1.39,0-3.3,1.47-4,.73-.35.1-1.43-.63-1.08Z"/><path class="cls-1" d="M14.86,83.9c-.48,5-.79,10.1-1.1,15.15a20.09,20.09,0,0,0,.45,7.34c1.32,4.12,5.22,7,9.36,8.23s8.56,1.1,12.88.95a5.6,5.6,0,0,0,3.19-.76c1.28-.93,1.53-2.68,1.69-4.25L42.7,96.68c.38-3.91.76-7.93-.33-11.71a9.13,9.13,0,0,0-2.82-4.67,11.45,11.45,0,0,0-4.15-1.85c-4-1.09-8.23-1.69-12.19-.57S15.65,82.17,15,86.24"/><path class="cls-1" d="M14.24,83.9c-.45,4.72-.76,9.44-1.05,14.17-.24,4-.5,8.07,1.92,11.49,4.71,6.66,13.51,6.9,20.87,6.65,1.63-.06,3.42-.1,4.59-1.4a7,7,0,0,0,1.37-4.08c.51-4.75.94-9.51,1.4-14.27.41-4.16.81-8.59-.68-12.6a9,9,0,0,0-2.8-4.1,14,14,0,0,0-5.41-2.2c-4.31-1.06-9.07-1.47-13.23.38a11.35,11.35,0,0,0-6.79,8.13c-.14.79,1.06,1.13,1.2.34a10,10,0,0,1,5.58-7.08c3.4-1.74,7.44-1.67,11.11-1a25.91,25.91,0,0,1,4.9,1.33A7.33,7.33,0,0,1,41.39,84c1.41,3.57,1.16,7.57.81,11.32-.36,3.92-.77,7.84-1.15,11.76a32.87,32.87,0,0,1-.65,5.34C39.78,114.66,38,114.89,36,115c-6.74.23-14.83.21-19.46-5.6-2.72-3.4-2.3-7.69-2-11.78.28-4.56.58-9.13,1-13.68.08-.8-1.17-.8-1.25,0Z"/><path class="cls-1" d="M.76,102.8c-.53,2.59.34,5.27,1.57,7.61a8.87,8.87,0,0,0,2.89,3.52,3.94,3.94,0,0,0,4.33.09c1.29-1,1.6-2.77,1.4-4.35s-.79-3.11-.91-4.7A7,7,0,0,0,9.56,102a3.92,3.92,0,0,0-3.25-1.59c-2-.12-4.35.73-4.84,2.66"/><path class="cls-1" d="M.16,102.64c-.6,3.21.57,6.53,2.29,9.23,1.43,2.26,4.15,4.31,6.91,3s2.35-5.08,1.74-7.58a14.59,14.59,0,0,1-.45-2.53,12.33,12.33,0,0,0-.19-2.1,3.62,3.62,0,0,0-2.66-2.59c-2.52-.74-6.13.07-6.94,2.88a.63.63,0,0,0,1.21.33c.56-1.94,3.09-2.45,4.83-2.14A2.61,2.61,0,0,1,9.25,103a10.37,10.37,0,0,1,.15,1.76,13.39,13.39,0,0,0,.29,2c.44,2,1.52,5-.36,6.65s-4.63-.35-5.74-2.07C2,108.93.82,105.87,1.37,103c.14-.79-1.06-1.12-1.21-.33Z"/><path class="cls-1" d="M26.47,166.75c2.9-4.82,5.83-9.67,9.67-13.77s8.72-7.44,14.25-8.47c5-.93,10.13.07,15.17-.41,3.46-.33,6.85-1.34,10.32-1.29,7.23.12,13.71,5,17.74,11"/><path class="cls-1" d="M27,167.06c5.19-8.62,11.16-18.35,21.41-21.43,5.44-1.63,11.11-.43,16.67-.86,5.31-.42,10.33-2.2,15.61-.52s9.38,5.44,12.38,9.83c.45.66,1.53,0,1.08-.63A26.8,26.8,0,0,0,83.45,144,19,19,0,0,0,77,142.25a35.8,35.8,0,0,0-8.81.86c-6,1-12.19-.34-18.18.84a26.58,26.58,0,0,0-12.92,7.16c-4.6,4.39-7.92,9.91-11.18,15.32a.63.63,0,0,0,1.08.63Z"/></g></g></g></svg>