<svg xmlns="http://www.w3.org/2000/svg" viewBox="0 0 44.66 109.36"><defs><style>.cls-1{fill:#fff;}</style></defs><g id="Layer_2" data-name="Layer 2"><g id="baby-cat-body-1-patterns"><g id="body-1-pattern-10-mask"><path class="cls-1" d="M14,3.1A52.17,52.17,0,0,0,2.27,16.24,9.4,9.4,0,0,0,.64,20.18a3.67,3.67,0,0,0,1.7,3.67,5.17,5.17,0,0,0,2.56.37,25.86,25.86,0,0,0,11.24-2.61A14.05,14.05,0,0,0,23.38,13a21.58,21.58,0,0,0,.49-4.32,10.69,10.69,0,0,0-.71-4.8C21.88,1,19.22-1.31,14,3.1"/><path class="cls-1" d="M13.52,2.66A52.72,52.72,0,0,0,1.73,15.92c-1.23,2-2.37,4.39-1.32,6.7,1.14,2.49,3.83,2.31,6.16,2.13,5.49-.42,11.18-2.17,14.79-6.57a13.13,13.13,0,0,0,2.95-6.94c.32-2.68.46-5.63-.79-8.1A5.25,5.25,0,0,0,19.92.07c-2.4-.43-4.66,1.16-6.4,2.59-.63.51.26,1.39.88.88C15.82,2.38,17.82.9,19.79,1.32a4,4,0,0,1,2.56,2.26c1.16,2.18,1,4.84.76,7.22a12,12,0,0,1-2.52,6.36c-3,3.78-7.69,5.58-12.36,6.18-2.12.27-5.84,1.09-6.78-1.49-.82-2.23.84-4.54,2-6.31a52.25,52.25,0,0,1,10.94-12c.63-.5-.26-1.38-.88-.88Z"/><path class="cls-1" d="M24.55,18a5.64,5.64,0,0,0-1.43,1.8A2,2,0,0,0,23.41,22a2.25,2.25,0,0,0,2.77-.15,3,3,0,0,0,1.25-3.25A1.73,1.73,0,0,0,24.55,18"/><path class="cls-1" d="M24.11,17.57c-.92.89-1.92,2-1.79,3.36a2.26,2.26,0,0,0,.94,1.72,2.38,2.38,0,0,0,1.79.32,3.86,3.86,0,0,0,2.79-2.2,2.81,2.81,0,0,0-.47-3.33,2.33,2.33,0,0,0-3.26.13.65.65,0,0,0,0,.89.63.63,0,0,0,.88,0l.21-.22c-.08.08,0,0,0,0l.13-.07s.17-.07,0,0l.09,0,.14,0h.09c-.08,0-.09,0,0,0s.18,0,.26,0,0,0,0,0l.14,0a.88.88,0,0,1,.23.07c.15.05-.1-.07,0,0l.15.08.1.07c-.12-.08,0,0,0,0a1.37,1.37,0,0,1,.17.17c-.09-.1.06.11.08.15s.07.13,0,0a1.55,1.55,0,0,1,.07.23l0,.12c.05.18,0-.11,0,.08s0,.2,0,.3a1.23,1.23,0,0,1,0,.19c0-.12,0,0,0,0a1.6,1.6,0,0,1-.11.39s0,.08,0,.12,0,.08,0,.08a2.54,2.54,0,0,1-.16.28l-.11.16c-.11.17.07-.07-.06.08a2.35,2.35,0,0,1-.26.29,2,2,0,0,1-.41.33,2,2,0,0,1-.32.18l-.11.05-.15.05a1.72,1.72,0,0,1-.52.1h-.15s-.2,0-.06,0a1.24,1.24,0,0,1-.33-.09c.12.05-.05,0-.06,0l-.1-.06c.1.06-.05,0-.06-.05s-.12-.14-.07-.07-.06-.09-.05-.09a1.19,1.19,0,0,1-.09-.15c.05.1,0,0,0-.05l-.06-.2c0-.18,0,.11,0-.08v-.18a1.09,1.09,0,0,1,0-.18c0-.15,0,0,0-.08a2.11,2.11,0,0,1,.28-.71A6.84,6.84,0,0,1,25,18.46a.63.63,0,0,0,0-.89.64.64,0,0,0-.88,0Z"/><path class="cls-1" d="M27.37,104.12c0,1.22.94,3.9,2.94,4.52a3.69,3.69,0,0,0,4.45-3.25,4.71,4.71,0,0,0-3.55-4.63,3.34,3.34,0,0,0-2.43.18,4.13,4.13,0,0,0-1.41,3.18"/><path class="cls-1" d="M26.74,104.12a6.15,6.15,0,0,0,1.9,4.23,3.82,3.82,0,0,0,5,.11A4.32,4.32,0,0,0,35,103.18,5.42,5.42,0,0,0,30,100a3.06,3.06,0,0,0-1.66.51,3.35,3.35,0,0,0-.88,1.06,4,4,0,0,0-.67,2.71c.18.79,1.38.46,1.21-.33a1.65,1.65,0,0,1,.07-.62,4.18,4.18,0,0,1,.35-.91c.32-.62.6-1,1.29-1.14a4.08,4.08,0,0,1,4,2.08,3.09,3.09,0,0,1-.46,3.89,2.63,2.63,0,0,1-3.56.31A5,5,0,0,1,28,104.12a.63.63,0,0,0-1.25,0Z"/><path class="cls-1" d="M39.91,101A5.2,5.2,0,0,0,41,102.88a1.78,1.78,0,0,0,2,.39,2.25,2.25,0,0,0,1-1.69,2.93,2.93,0,0,0-.46-2.4c-.67-.81-1.68-.45-2.59,0a1.67,1.67,0,0,0-1,1.88"/><path class="cls-1" d="M39.37,101.34A4.09,4.09,0,0,0,41.63,104a2.14,2.14,0,0,0,1.75-.17,2.47,2.47,0,0,0,1-1.39A4,4,0,0,0,44.16,99a2,2,0,0,0-1.54-.94,3.33,3.33,0,0,0-1.54.32,3,3,0,0,0-1.3.84,2.44,2.44,0,0,0-.5,1.79.65.65,0,0,0,.63.62.62.62,0,0,0,.62-.62c0-.12,0-.23,0-.35s0-.12,0-.18,0,.1,0,0a2,2,0,0,1,.08-.26c0,.14,0,0,0,0l.07-.12c.07-.12-.06.05,0,0l.08-.09s.22-.17.08-.08a2.46,2.46,0,0,1,.39-.22l.14-.07.1,0,.1,0,.15,0a1.4,1.4,0,0,1,.29-.09l.14,0s.2,0,.07,0h.27s.2,0,.05,0l.11,0s.16.06.08,0,.07,0,.07,0,.14.1.08,0,0,0,0,0l.08.09a.8.8,0,0,1,.14.18l.06.12s.08.18,0,.08a1.71,1.71,0,0,1,.09.3l0,.13s0,.08,0,.13,0-.05,0,0a3.32,3.32,0,0,1,0,.63,1.23,1.23,0,0,1,0,.19c0-.09,0,0,0,0s0,.24-.07.36,0,.19-.08.29a.78.78,0,0,0,0,.14c0,.11.06-.12,0,0l-.14.25a.36.36,0,0,1-.07.1c.08-.1-.07.07-.09.09s-.09.08,0,0a.67.67,0,0,1-.14.09s-.11.06,0,0l-.14,0s-.15,0,0,0h-.3c.13,0,0,0-.07,0l-.17-.05-.08,0a2,2,0,0,1-.32-.18c-.1-.07,0,0,0,0l-.19-.18-.09-.1s-.12-.15-.07-.08a6.43,6.43,0,0,1-.75-1.45.63.63,0,0,0-.86-.22.64.64,0,0,0-.22.85Z"/></g></g></g></svg>