<svg xmlns="http://www.w3.org/2000/svg" viewBox="0 0 145.88 191.76"><defs><style>.cls-1{fill:#fff;}</style></defs><g id="Layer_2" data-name="Layer 2"><g id="baby-cat-body-1-patterns"><g id="body-1-pattern-13-mask"><path class="cls-1" d="M141.26,49.44A167,167,0,0,1,95.58,71.5a261.5,261.5,0,0,0,48.27,2.41"/><path class="cls-1" d="M141,48.9a167.75,167.75,0,0,1-45.54,22c-.53.16-.65,1.11,0,1.2a264.23,264.23,0,0,0,48.44,2.43c.8,0,.8-1.28,0-1.25a262.28,262.28,0,0,1-48.1-2.38v1.2A168.94,168.94,0,0,0,141.58,50c.66-.45,0-1.54-.63-1.08Z"/><path class="cls-1" d="M144,78.86a146.74,146.74,0,0,1-30.74,4.93,3.32,3.32,0,0,0,2,.93q14.69,3.32,29.66,5.17"/><path class="cls-1" d="M143.79,78.26a148,148,0,0,1-30.58,4.9.63.63,0,0,0-.44,1.07,5,5,0,0,0,2.7,1.2l4,.88c2.86.6,5.72,1.15,8.58,1.67q8.34,1.5,16.74,2.53c.79.1.79-1.15,0-1.25q-8-1-15.93-2.4c-2.55-.46-5.09-.94-7.63-1.46-1.27-.26-2.53-.53-3.8-.81s-2.92-.35-3.81-1.25l-.44,1.07a149.67,149.67,0,0,0,30.91-4.94.63.63,0,0,0-.33-1.21Z"/><path class="cls-1" d="M131.16,16.54A263.72,263.72,0,0,1,87.48,48.35c17.22-.55,34.31-3.86,51.52-3.49"/><path class="cls-1" d="M130.72,16.1A265.11,265.11,0,0,1,87.17,47.81.62.62,0,0,0,87.48,49c17.22-.57,34.27-3.82,51.52-3.48a.63.63,0,0,0,0-1.25c-17.25-.34-34.3,2.91-51.52,3.48l.32,1.17A266.82,266.82,0,0,0,131.6,17c.6-.54-.29-1.42-.88-.88Z"/><path class="cls-1" d="M119.12.63c-3,5.78-8.11,10.1-13.11,14.27l8.52-2.82a21,21,0,0,0,2.44-.91,23.4,23.4,0,0,0,4.12-2.63l5.33-4"/><path class="cls-1" d="M118.58.31c-3,5.78-8.08,10-13,14.15-.48.4,0,1.23.61,1L112,13.58a46,46,0,0,0,5.46-1.94,27.51,27.51,0,0,0,4.43-2.91l4.85-3.61c.64-.47,0-1.56-.63-1.08l-4.7,3.49a30.64,30.64,0,0,1-4.27,2.87,38,38,0,0,1-5.47,2l-5.81,1.93.61,1c5-4.18,10.11-8.53,13.2-14.4C120,.23,119-.4,118.58.31Z"/><path class="cls-1" d="M145.24,96.05c-12.31,5.52-25.94,7.16-39.33,8.74L91.2,106.52a164.64,164.64,0,0,0,53.41,15.64"/><path class="cls-1" d="M144.92,95.51c-8.2,3.65-17,5.6-25.84,6.95-9.25,1.41-18.58,2.34-27.88,3.43-.54.07-.93.86-.31,1.17a166.8,166.8,0,0,0,53.72,15.73c.79.09.79-1.16,0-1.25A164.83,164.83,0,0,1,91.52,106l-.32,1.16c9.41-1.11,18.85-2,28.21-3.48,9-1.36,17.83-3.38,26.14-7.07.74-.32.1-1.4-.63-1.08Z"/><path class="cls-1" d="M143.34,129.82c-5.34,1.28-10.91,1.09-16.4.89a112.9,112.9,0,0,0,14.78,4.83,1.79,1.79,0,0,0,1.42,0"/><path class="cls-1" d="M143.18,129.22c-5.33,1.24-10.81,1.06-16.24.87-.75,0-.77,1-.16,1.22,2.84,1.15,5.72,2.19,8.64,3.1,1.43.45,2.88.87,4.33,1.26,1.15.31,2.56.94,3.71.35.72-.36.08-1.44-.63-1.07-.55.28-1.6-.18-2.15-.32l-1.8-.49c-1.35-.38-2.69-.79-4-1.22q-3.93-1.26-7.75-2.81l-.17,1.23c5.54.2,11.13.35,16.57-.92.78-.18.45-1.39-.33-1.2Z"/><path class="cls-1" d="M129.72,159.61a43.46,43.46,0,0,1-7.13-2.18,111.4,111.4,0,0,1-32.25-19.09c-1.24-1.05-2.53-2.25-2.86-3.85,4.26,11,4.5,23.32,9.81,33.82a38.37,38.37,0,0,0,9.18,11.76"/><path class="cls-1" d="M129.89,159a60.58,60.58,0,0,1-12.25-4.29,111.41,111.41,0,0,1-20.8-12c-1.72-1.26-3.41-2.58-5-3.94-1.48-1.22-3.21-2.47-3.7-4.41l-1.21.33c3.11,8.12,4.07,16.81,6.48,25.12,2.32,8,6.34,15.21,12.67,20.73.6.53,1.49-.35.88-.88-6.41-5.6-10.33-12.88-12.58-21s-3.24-16.45-6.24-24.29a.63.63,0,0,0-1.21.33,8.21,8.21,0,0,0,3,4.12c1.59,1.36,3.23,2.67,4.9,3.93a112.1,112.1,0,0,0,10.73,7.19A110,110,0,0,0,117,155.8a61.66,61.66,0,0,0,12.54,4.41c.79.16,1.13-1,.34-1.2Z"/><path class="cls-1" d="M95.49,184.2c-3.48-3.53-7-7.16-9-11.68-1.57-3.49-2.26-7.54-5-10.22.88,9-1.62,18-1,27"/><path class="cls-1" d="M95.93,183.76c-3.27-3.33-6.63-6.73-8.68-11-1.78-3.67-2.4-7.9-5.35-10.92a.63.63,0,0,0-1.07.44c.82,9-1.58,18-1,27,0,.8,1.3.81,1.25,0-.59-9,1.81-17.95,1-27l-1.07.45c3,3.1,3.56,7.69,5.54,11.42,2.13,4,5.35,7.27,8.5,10.47a.62.62,0,0,0,.88-.88Z"/><path class="cls-1" d="M57.72,191.17A104.45,104.45,0,0,1,54,179.73a103.54,103.54,0,0,1-2.14-15.61L48.82,128.5q-15,25.86-27.53,53.08c-.11.25-.3.55-.58.5s-.07-.6.09-.38"/><path class="cls-1" d="M58.32,191a104.29,104.29,0,0,1-3.7-11.43,85.49,85.49,0,0,1-1.82-12.11c-.77-8.28-1.43-16.58-2.14-24.86l-1.21-14.1a.64.64,0,0,0-1.17-.32q-7.56,13-14.51,26.43-3.41,6.58-6.67,13.25-1.68,3.44-3.31,6.9c-.55,1.15-1.09,2.31-1.63,3.47L21.35,180c-.13.29-.45,1.44-.8,1.52l.61.16.06.34-.71.29.13,0c.77.24,1.1-1,.33-1.2l-.12,0a.65.65,0,0,0-.71.29.84.84,0,0,0,1.13,1.22c.58-.33.81-1.21,1.06-1.76.5-1.08,1-2.17,1.52-3.25q2.79-6,5.71-11.86,5.94-12,12.39-23.76,3.61-6.62,7.41-13.13l-1.16-.31,2.16,25.23c.7,8.08,1,16.34,2.64,24.3a92.17,92.17,0,0,0,4.12,13.3c.27.75,1.48.43,1.2-.33Z"/><path class="cls-1" d="M12.92,176.25c-.3-4.64,1.18-9.19,2.73-13.58,1.18-3.33,2.42-6.65,3.65-10a59.53,59.53,0,0,1-7.2,5.13c-1.23.74-2.48,1.43-3.74,2.13L.62,164.24"/><path class="cls-1" d="M13.54,176.25a31.61,31.61,0,0,1,2.14-11.76c1.33-3.9,2.79-7.76,4.22-11.62.24-.64-.61-1-1-.61C13.22,156.91,6.67,160.18.31,163.7c-.71.39-.08,1.47.63,1.08,6.46-3.58,13.08-6.91,18.8-11.63l-1-.61c-1.49,4-3,8-4.36,12a31.79,31.79,0,0,0-2.05,11.68c.05.8,1.3.81,1.25,0Z"/></g></g></g></svg>