<svg xmlns="http://www.w3.org/2000/svg" viewBox="0 0 26.56 64.4"><defs><style>.cls-1{fill:#fff;}</style></defs><g id="Layer_2" data-name="Layer 2"><g id="baby-cat-body-1-patterns"><g id="body-1-pattern-12-mask"><path class="cls-1" d="M26,.63C18.81,5,11.4,9.57,7.08,16.72c-3.32,5.5-4.48,12-5.58,18.35a35.27,35.27,0,0,0-.76,9.81,20.35,20.35,0,0,0,8.51,14,27.94,27.94,0,0,0,15.82,4.93"/><path class="cls-1" d="M25.64.09c-4.89,3-9.83,6-14,10A32.38,32.38,0,0,0,3,25a95.55,95.55,0,0,0-2,9.48A40.84,40.84,0,0,0,0,44,20.5,20.5,0,0,0,7,57.84C12,62.26,18.55,64.23,25.07,64.4a.63.63,0,0,0,0-1.25A27.46,27.46,0,0,1,9.25,58.08,19.69,19.69,0,0,1,1.34,44.65a35.11,35.11,0,0,1,.77-9.42c.48-2.82,1-5.64,1.67-8.42a32.14,32.14,0,0,1,7.92-15c4.22-4.34,9.43-7.52,14.57-10.64A.63.63,0,0,0,25.64.09Z"/></g></g></g></svg>