<svg xmlns="http://www.w3.org/2000/svg" viewBox="0 0 50.9 49.55"><defs><style>.cls-1{fill:#fff;}</style></defs><g id="Layer_2" data-name="Layer 2"><g id="baby-cat-body-1-patterns"><g id="body-1-pattern-1-mask"><path class="cls-1" d="M50.29,28.55C38.79,21.4,32.65,6.33,20.39.59H20C15.87,1,12.15,3.4,9.4,6.49A43.93,43.93,0,0,0,3,17.05,21.28,21.28,0,0,0,.66,24,7.56,7.56,0,0,0,3.08,30.6c2,1.34,4.16,3.36,6,4.87l12.07,10c1.37,1.13,2.73,2.27,4.06,3.43.63.14,1.15-1.47,1.4-2.06a9,9,0,0,1,.7-1.79c.84-1.16,2.6-1,4-.65s3.09.66,4.08-.38c.83-.86.73-2.23,1.24-3.31A3.15,3.15,0,0,1,39.37,39a18.4,18.4,0,0,1,2.55.45,2.13,2.13,0,0,0,2.25-.91,3.35,3.35,0,0,0-.12-2.09c-.16-.7-.12-1.58.5-1.92.85-.47,1.94.51,2.85.16a1.59,1.59,0,0,0,1-1.14,8.19,8.19,0,0,0-.81-2.16C45.72,29.88,48.48,29.28,50.29,28.55Z"/><path class="cls-1" d="M50.6,28C42.15,22.68,37,13.76,30,6.84a40,40,0,0,0-5.42-4.56c-1.46-1-3.3-2.51-5.16-2.25-5.57.76-10,4.78-13,9.3a59.44,59.44,0,0,0-4.21,7.82C1,19.74-.18,22.53,0,25.46a7.72,7.72,0,0,0,3.07,5.91c2.46,1.78,4.71,3.86,7.05,5.8l7.92,6.57,3.76,3.12,1.85,1.56c.41.35,1,1.08,1.53,1.13,1.85.14,1.86-3.4,2.75-4.28s2.75-.31,3.89-.09a4.92,4.92,0,0,0,3.3-.19,3.93,3.93,0,0,0,1.69-2.89c.54-2.22,2-2.71,4.08-2.25a3.64,3.64,0,0,0,3.32-.41c1-.9.58-2,.42-3.19-.2-1.45.64-1.17,1.63-1a2.33,2.33,0,0,0,1.43-.07A2,2,0,0,0,49,33.27,7.61,7.61,0,0,0,48.08,31c-.06-.12-.32-.24-.35-.35-.13-.55.52-.69.9-.85.6-.26,1.22-.45,1.83-.69s.41-1.5-.34-1.2c-1.1.43-3.87.95-3.8,2.58,0,.65.6,1,.88,1.51a3.69,3.69,0,0,1,.42,1.13c.12,1.07-.92.9-1.66.72-2-.48-2.81.88-2.52,2.69.12.71.57,1.45-.23,2.05a2,2,0,0,1-1,.19,13.5,13.5,0,0,1-2.07-.4,3.86,3.86,0,0,0-3,.7,4,4,0,0,0-1.39,2.12c-.46,1.55-.63,3-2.64,2.87s-4.08-1.29-5.81.07c-.86.67-1,1.74-1.39,2.7A3.35,3.35,0,0,1,25.44,48c-.46.47.08.23-.34,0a7,7,0,0,1-1.29-1.09c-2.36-2-4.75-4-7.13-5.93s-4.89-4-7.32-6.08c-1-.88-2.08-1.78-3.14-2.66A38.46,38.46,0,0,1,3,29.67c-4.31-4.41.12-11.8,2.4-16.09C8,8.67,11.6,3.8,17.05,1.88a6.94,6.94,0,0,1,3.29-.64,11.79,11.79,0,0,1,2.9,1.65,35.56,35.56,0,0,1,5.38,4.35C36,14.31,41.21,23.57,50,29.09,50.66,29.52,51.28,28.44,50.6,28Z"/></g></g></g></svg>