<svg xmlns="http://www.w3.org/2000/svg" viewBox="0 0 109.24 108.42"><defs><style>.cls-1{fill:#fff;}</style></defs><g id="Layer_2" data-name="Layer 2"><g id="baby-cat-body-1-patterns"><g id="body-1-pattern-3-mask"><path class="cls-1" d="M50.35,27.34c.15,1,.32,1.94.49,2.9a21.74,21.74,0,0,0,1.7,6.07A17.73,17.73,0,0,0,57,41.52C59.53,43.72,68.9,49.3,71.16,50c4.54,1.38,9.1,2.69,13.66,4,5.92,1.7,11.91,3.38,18.06,3.76a50.14,50.14,0,0,0,5.75,0c-1.95,1-3.29,4.07-4.28,6-1.55,3-5.4,4.09-7.73,6.6-4,4.26-2.5,11.3-5.27,16.42-2.35,4.36-7.29,6.55-11.93,8.26-2,.75-4.24,1.58-5.41,3.41-1,1.52-1,3.43-1.64,5.12s-2.14,4.67-3.85,4.12q-3.37-7.55-7.07-14.93l.19.37a53.68,53.68,0,0,0-7.76-12.71c-1.42-1.81-2.94-3.52-4.47-5.23L45,70.32,32.44,56.26c-1.11-1.23-2.21-2.47-3.37-3.65a104.34,104.34,0,0,0-7.94-7l-12.07-10C7.23,34,5,32,3.07,30.67A7.57,7.57,0,0,1,.65,24.05,21.1,21.1,0,0,1,3,17.11,43.56,43.56,0,0,1,9.39,6.56C12.14,3.47,15.86,1.06,20,.65h.41c12.26,5.75,18.4,20.82,29.9,28"/><path class="cls-1" d="M49.75,27.5a36,36,0,0,0,1.84,8.23,16.24,16.24,0,0,0,4.34,5.69A50.06,50.06,0,0,0,64,46.94,37.92,37.92,0,0,0,72.4,51c5.66,1.71,11.34,3.39,17,4.92a62,62,0,0,0,19.18,2.45l-.31-1.16c-2.1,1.21-3.19,3.61-4.23,5.69-1.25,2.5-3.46,3.65-5.67,5.18a11.24,11.24,0,0,0-4.3,5.21,36.92,36.92,0,0,0-1.62,7.52c-.47,2.76-1.18,5.48-3,7.65a18.81,18.81,0,0,1-6.68,4.58c-2.39,1.08-5.12,1.69-7.31,3.16-2.52,1.68-2.72,4.15-3.56,6.83a8.52,8.52,0,0,1-2,3.6c-.91.84-1,.37-1.45-.57l-1.21-2.65Q64.72,97.93,62,92.49c-.36-.72-1.43-.09-1.08.63l.19.37c.31.62,1.41.18,1.14-.48a55.37,55.37,0,0,0-8.78-14.07c-3.86-4.71-8.08-9.15-12.14-13.69S33.35,56,29,51.68s-9.19-8-13.86-11.89C12.85,37.88,10.52,36,8.23,34c-1-.86-2-1.72-3-2.55a10.79,10.79,0,0,1-3-2.76c-1.46-2.47-1-5.48-.1-8a54.51,54.51,0,0,1,3.8-8c2.67-4.77,6.44-9.41,11.9-11a4.33,4.33,0,0,1,2.89-.22,19.52,19.52,0,0,1,3,1.75,36.36,36.36,0,0,1,5.21,4.31c7.2,7,12.44,16.15,21.1,21.6.68.43,1.31-.65.63-1.08C42.44,22.94,37.34,14.44,30.73,7.66a44,44,0,0,0-5-4.51C24.86,2.53,24,2,23.13,1.42A8.64,8.64,0,0,0,20.33,0,7.57,7.57,0,0,0,17.47.5a15.9,15.9,0,0,0-3.62,1.56A21,21,0,0,0,8.09,7.13,40.07,40.07,0,0,0,3.58,14.4,33.83,33.83,0,0,0,.26,22.53a9.57,9.57,0,0,0,.86,6.81,7.17,7.17,0,0,0,2.13,2.22c1.31.95,2.54,2,3.77,3.07,4.85,4.15,9.83,8.17,14.74,12.26,2.3,1.92,4.59,3.87,6.71,6s4.25,4.62,6.34,7L49.27,76C53.91,81.21,58.4,86.83,61,93.34l1.14-.48L62,92.49l-1.08.63q2.51,5,4.86,10.06l1.11,2.43A9.26,9.26,0,0,0,68,108a1.81,1.81,0,0,0,2.26-.05c1.82-1.19,2.7-3.82,3.18-5.82.38-1.58.7-3.17,2-4.32a12.72,12.72,0,0,1,4.22-2.17c4.88-1.82,10.29-4.16,12.62-9.18s1-11.53,4.85-15.66c2-2.11,4.86-3.07,6.78-5.22s2.38-5.74,5.11-7.31a.63.63,0,0,0-.32-1.17c-11.3.56-22.14-3.26-32.84-6.42a37.33,37.33,0,0,1-5.6-1.81c-1.31-.62-2.58-1.33-3.84-2A72.25,72.25,0,0,1,58,41.53a17.53,17.53,0,0,1-4.71-5.18c-1.51-2.74-1.84-6.13-2.31-9.18-.13-.79-1.33-.46-1.21.33Z"/></g></g></g></svg>