<svg xmlns="http://www.w3.org/2000/svg" viewBox="0 0 43.93 35.19"><defs><style>.cls-1{fill:#fff;}</style></defs><g id="Layer_2" data-name="Layer 2"><g id="baby-cat-body-1-patterns"><g id="body-1-pattern-8-mask"><path class="cls-1" d="M43.28,20.52C43.18,13.9,42.74,7.3,42,.65A41.73,41.73,0,0,1,29.75,7Q15.37,11.42.61,14.56a222,222,0,0,0,32.85,6c2.68.29,7,.63,9.64.07"/><path class="cls-1" d="M43.91,20.52q-.18-10-1.27-19.87c0-.41-.52-.86-.94-.54a42.19,42.19,0,0,1-8.6,5A83.87,83.87,0,0,1,22.6,8.47Q11.62,11.58.45,14a.63.63,0,0,0,0,1.21,224,224,0,0,0,23.23,4.78c3.56.54,7.14,1,10.73,1.35a31.68,31.68,0,0,0,8.86,0c.79-.15.45-1.36-.33-1.21a30.92,30.92,0,0,1-8.7,0c-3.74-.36-7.47-.86-11.18-1.44A222.43,222.43,0,0,1,.78,14v1.21q11.4-2.43,22.62-5.62A83.61,83.61,0,0,0,33.53,6.27a42.58,42.58,0,0,0,8.8-5.08L41.39.65q1.08,9.9,1.27,19.87a.63.63,0,0,0,1.25,0Z"/><path class="cls-1" d="M43.3,25.5c0,3-.11,5.94-.27,8.93-2.14.47-6.82-.51-8.91-1.15s-5.36-1.43-7.44-2.59a15.27,15.27,0,0,1-3.45-2.09c3.33-.43,7.19-.58,10.52-1C36.85,27.19,40.56,27,43.3,25.5Z"/><path class="cls-1" d="M42.68,25.5q0,4.47-.28,8.93l.46-.6A13.6,13.6,0,0,1,38,33.55a40.82,40.82,0,0,1-4.52-1.11c-3.4-1-7-2-9.83-4.29l-.44,1.07c3.6-.45,7.23-.61,10.83-1,3.24-.39,6.62-.58,9.56-2.13.71-.38.08-1.46-.63-1.08-2.91,1.54-6.37,1.66-9.58,2-3.38.41-6.8.55-10.18,1-.47.06-.91.68-.44,1.07,3,2.44,6.75,3.55,10.38,4.61a41.75,41.75,0,0,0,4.94,1.18,14.72,14.72,0,0,0,5.08.21.64.64,0,0,0,.46-.61q.24-4.45.28-8.93A.63.63,0,0,0,42.68,25.5Z"/></g></g></g></svg>