<svg xmlns="http://www.w3.org/2000/svg" viewBox="0 0 156.36 167.35"><defs><style>.cls-1{fill:#fff;}</style></defs><g id="Layer_2" data-name="Layer 2"><g id="baby-cat-body-1-patterns"><g id="body-1-pattern-9-mask"><path class="cls-1" d="M126.79,31.76c-.75,1.33-.62,3.09-.6,4.62a7.17,7.17,0,0,0,8.08,7c.3-1.29-.46-2.56-.94-3.8A9.37,9.37,0,0,1,133,34a1.92,1.92,0,0,0,.07-1.18,1.54,1.54,0,0,0-.7-.68,6.32,6.32,0,0,0-5.54-.37"/><path class="cls-1" d="M126.25,31.44a9,9,0,0,0-.69,4.47,8.56,8.56,0,0,0,1.07,4.26A7.87,7.87,0,0,0,134.27,44a.63.63,0,0,0,.6-.46c.34-1.73-.64-3.13-1.14-4.72a9.42,9.42,0,0,1-.09-5,1.87,1.87,0,0,0-.59-2,5.27,5.27,0,0,0-1.92-.93,7,7,0,0,0-4.51.22c-.73.29-.41,1.5.33,1.2a5.92,5.92,0,0,1,3.85-.22c.46.14,1.35.39,1.61.84.17.29,0,.74-.1,1s-.13.71-.17,1.07a9.89,9.89,0,0,0,.38,4.08c.4,1.28,1.42,2.65,1.15,4l.6-.46a6.63,6.63,0,0,1-6.56-3.22,7.16,7.16,0,0,1-.9-3.53,7.93,7.93,0,0,1,.52-3.93c.37-.71-.7-1.35-1.08-.64Z"/><path class="cls-1" d="M134.7,34a11.56,11.56,0,0,0,.64,5.88c.32.75,1.19,1.56,1.83,1.06a1.45,1.45,0,0,0,.43-.83,8.12,8.12,0,0,0,.4-3.74A3.67,3.67,0,0,0,134.7,34"/><path class="cls-1" d="M134.1,33.82a11.76,11.76,0,0,0,0,4,5.45,5.45,0,0,0,1.46,3.43,1.56,1.56,0,0,0,1.83.3c.66-.38.79-1.22,1-1.89.34-1.35.68-3.08-.15-4.32a4.44,4.44,0,0,0-3.52-2,.63.63,0,0,0,0,1.25,3.19,3.19,0,0,1,2.22,1.06,3.23,3.23,0,0,1,.41,2.92q-.09.45-.21.9a4.32,4.32,0,0,1-.23.8c0,.11-.09.17-.19.17s-.35-.21-.46-.32a3,3,0,0,1-.57-1.15,13.53,13.53,0,0,1-.35-1.53,10.21,10.21,0,0,1,0-3.31.65.65,0,0,0-.43-.77.64.64,0,0,0-.77.44Z"/><path class="cls-1" d="M112.64,71.1c-.1,2.22,0,3.36.89,5A6.8,6.8,0,0,0,117,79.52a11.8,11.8,0,0,0,5,.38c1.3-.12,1.41-.73,2.69-1-.67-3.49-1-3.39-1.83-4.59-1-1.38-1.64-1.94-2.61-3.34a5.85,5.85,0,0,0-4.13-2.72c-1.7-.12-3.53,1.16-3.54,2.86"/><path class="cls-1" d="M112,71.1a10.08,10.08,0,0,0,.53,4.4,9.11,9.11,0,0,0,2.82,3.83,8.26,8.26,0,0,0,5,1.29,8.47,8.47,0,0,0,2.61-.28c.67-.24,1.2-.67,1.9-.85a.63.63,0,0,0,.44-.76,11.7,11.7,0,0,0-1-3.55,18.15,18.15,0,0,0-1.83-2.45c-1.88-2.31-4-5.86-7.51-5a3.75,3.75,0,0,0-3,3.37c0,.81,1.22.81,1.25,0,.07-1.67,2-2.51,3.47-2.14,1.89.48,2.85,2.15,4,3.57.79,1,1.68,2,2.37,3a9.48,9.48,0,0,1,1,3.5l.44-.77a7.23,7.23,0,0,0-1.66.73,5,5,0,0,1-2.18.34,7.44,7.44,0,0,1-4.6-1A7.7,7.7,0,0,1,113.68,75a9,9,0,0,1-.42-3.92c0-.8-1.22-.8-1.25,0Z"/><path class="cls-1" d="M119.17,66.82,125.5,75c.49.64,1.24,1.36,2,1.06a1.7,1.7,0,0,0,.79-.86,7.1,7.1,0,0,0-6.5-10.34,2.58,2.58,0,0,0-1.29.3,2.68,2.68,0,0,0-1.32,1.67"/><path class="cls-1" d="M118.73,67.26l5.11,6.61c.71.91,1.4,2.14,2.47,2.67a1.86,1.86,0,0,0,2.51-1,7.89,7.89,0,0,0,.25-6.55,7.75,7.75,0,0,0-4.54-4.26,6.67,6.67,0,0,0-3.59-.37,3.29,3.29,0,0,0-2.37,2.33.63.63,0,0,0,1.21.33c.51-1.93,2.88-1.63,4.34-1.12a6.5,6.5,0,0,1,3.69,3.33,6.66,6.66,0,0,1,.12,5.27c-.13.31-.33.88-.68,1s-.84-.36-1.08-.64c-.71-.8-1.33-1.69-2-2.53l-4.57-5.92c-.5-.63-1.38.26-.89.89Z"/><path class="cls-1" d="M145.43,81.36c-4.05-2.75-10,4.83-9.33,8.12C137.15,95,145,82,145.43,81.36"/><path class="cls-1" d="M145.74,80.82c-2.46-1.63-5.34,0-7.13,1.85a12.49,12.49,0,0,0-2.43,3.47,5.91,5.91,0,0,0-.69,3.44,2.13,2.13,0,0,0,1.3,1.83,2.52,2.52,0,0,0,2-.62A20.64,20.64,0,0,0,143.08,86c.67-.93,1.31-1.88,1.94-2.84.31-.48.6-1,.95-1.44a.63.63,0,0,0-1.08-.64c-.77,1-1.38,2.12-2.09,3.16a34,34,0,0,1-3.69,4.69l-.45.43-.23.2s-.24.19-.18.15a3.93,3.93,0,0,1-.42.29l-.18.1-.1,0h0a1.39,1.39,0,0,1-.19.06c-.07,0-.16,0,0,0h-.19s-.08,0,.06,0l-.1,0s.11.08,0,0l0,0c-.08-.07-.07-.09,0,0a2.53,2.53,0,0,1-.13-.22c0-.08,0,.06,0-.1a2,2,0,0,1-.07-.26,1.53,1.53,0,0,1-.08-.52,4.49,4.49,0,0,1,.25-1.4,10,10,0,0,1,1.72-3.1c1.4-1.78,4.11-4.17,6.46-2.61.67.44,1.3-.64.63-1.08Z"/><path class="cls-1" d="M147,82.75c-3.1,4-5.82,6.73-7.59,10.16,4.69,2.76,9.67-5.71,7.59-10.16"/><path class="cls-1" d="M146.6,82.3c-2.62,3.36-5.71,6.49-7.69,10.29a.64.64,0,0,0,.23.86c4.63,2.65,8.48-3.42,9-7.33a6.77,6.77,0,0,0-.51-3.69c-.33-.73-1.41-.1-1.08.63a7,7,0,0,1-.35,5.5c-.7,1.64-2,3.45-3.7,4.07a3.16,3.16,0,0,1-2.68-.26l.22.86c1.93-3.72,4.94-6.76,7.5-10a.66.66,0,0,0,0-.89.65.65,0,0,0-.89,0Z"/><path class="cls-1" d="M142.84,50.41a6.28,6.28,0,0,0,7.34,8.88c.91-1.25-.34-3.2-1.15-4.85-.94-1.93-2.07-3.85-4-4.83a2.66,2.66,0,0,0-2.21.8"/><path class="cls-1" d="M142.3,50.09a7.12,7.12,0,0,0,0,6.39,6.85,6.85,0,0,0,5,3.58,7.48,7.48,0,0,0,1.57.08,3.11,3.11,0,0,0,1.68-.41c.75-.69.52-2,.22-2.88a25.67,25.67,0,0,0-1.55-3.27,14.13,14.13,0,0,0-1.78-2.76,8.19,8.19,0,0,0-1.4-1.29,2.46,2.46,0,0,0-1.35-.59,3.09,3.09,0,0,0-2.47,1.15.63.63,0,0,0,1.08.63,2,2,0,0,1,.86-.44.84.84,0,0,1,.88.09,7.44,7.44,0,0,1,2.33,2.47c.62,1,1.13,2.07,1.65,3.12.43.84,1.15,2.11.54,3l.38-.29a5.66,5.66,0,0,1-6.64-8c.35-.72-.73-1.35-1.08-.63Z"/><path class="cls-1" d="M146.45,48.21c2.36,1.69,3.67,4.72,5.12,7.24.11.19.26.4.48.4a.61.61,0,0,0,.39-.23,5.06,5.06,0,0,0,.72-5.94c-1.08-1.85-4.64-2-6.71-1.47"/><path class="cls-1" d="M146.13,48.75A12.76,12.76,0,0,1,149.48,53c.45.79.88,1.6,1.32,2.4a2.2,2.2,0,0,0,.83,1,1.18,1.18,0,0,0,1.4-.47,5.8,5.8,0,0,0,1.28-5,4.45,4.45,0,0,0-1.05-2.14,4.4,4.4,0,0,0-1.84-1.08,9.17,9.17,0,0,0-5.14-.09.62.62,0,0,0,.33,1.2,8,8,0,0,1,4.61.14,2.64,2.64,0,0,1,1.51,1.23,4.34,4.34,0,0,1,.42,2.53,4,4,0,0,1-.41,1.4,3.86,3.86,0,0,1-.39.65c-.1.15-.28.45-.47.48h.33s0,0,0,0a.35.35,0,0,1-.05-.08,1.94,1.94,0,0,1-.15-.24l-.28-.51-.57-1c-.39-.72-.79-1.44-1.22-2.13a12.36,12.36,0,0,0-3.16-3.59.62.62,0,0,0-.85.23.63.63,0,0,0,.22.85Z"/><path class="cls-1" d="M104.69,49.79c-2.49-4.33-1.89-8.51,2.86-11.24,1.79-.9.51,4.23-.42,8.49-.28,1.27-.72,2.69-2.44,2.75"/><path class="cls-1" d="M105.23,49.47a9,9,0,0,1-1.35-4.8,6.16,6.16,0,0,1,2-4.12,8.66,8.66,0,0,1,1.05-.87,8.45,8.45,0,0,0,1-.61l-.09,0c-.11,0-.06-.08-.07-.06a4.42,4.42,0,0,0,.08.7,24.08,24.08,0,0,1-.82,5c-.21,1-.38,2-.67,2.91a1.81,1.81,0,0,1-1.64,1.52c-.8.05-.8,1.3,0,1.25A2.83,2.83,0,0,0,107.12,49a10,10,0,0,0,.85-2.83,30.85,30.85,0,0,0,1.1-6.46,1.93,1.93,0,0,0-.59-1.69c-.69-.45-1.46.13-2,.51a8.3,8.3,0,0,0-3.65,4.9,9.54,9.54,0,0,0,1.35,6.7.63.63,0,0,0,1.08-.63Z"/><path class="cls-1" d="M108.4,96.13c-4.82,2-5.45,6-3.41,10.48,1.54,3.42,3.75,3.49,5.31.06.44-1,1.39-11.59-1.9-10.54"/><path class="cls-1" d="M108.09,95.59c-2.75,1.17-4.79,3.42-4.82,6.51a11,11,0,0,0,1,4.4c.55,1.31,1.43,3,3,3.29s2.58-.93,3.24-2.08a5.6,5.6,0,0,0,.69-2.21,24.82,24.82,0,0,0,.12-6.09c-.18-1.58-.77-4.56-3-3.89a.63.63,0,0,0,.33,1.21c.2-.06.11-.06.3,0-.05,0,.22.06.14,0a.88.88,0,0,1,.4.41,5.74,5.74,0,0,1,.59,2,23.39,23.39,0,0,1,0,5.42,8.52,8.52,0,0,1-.24,1.66,1.46,1.46,0,0,1,0,.2c.07-.24-.08.15-.12.24s-.22.41-.34.6a2.88,2.88,0,0,1-1.17,1.2c-1.08.47-1.92-.93-2.32-1.7a10.6,10.6,0,0,1-1.22-3.93,5.63,5.63,0,0,1,.76-3.57,7.09,7.09,0,0,1,3.41-2.62c.74-.32.1-1.4-.63-1.08Z"/><path class="cls-1" d="M112.93,97.11c0,3.14-.19,6.27-.5,9.39a2.72,2.72,0,0,0,.12,1.42c.56,1.12,2.28.85,3.31.14a6.82,6.82,0,0,0,3-6.77,5.56,5.56,0,0,0-5.88-4.18"/><path class="cls-1" d="M112.3,97.11c0,2.78-.15,5.56-.39,8.32-.1,1.06-.41,2.37.41,3.24a2.59,2.59,0,0,0,2.47.53,6.7,6.7,0,0,0,4.19-4,6.07,6.07,0,0,0-6-8.68c-.79.09-.8,1.34,0,1.25a5,5,0,0,1,4.29,1.74,4.8,4.8,0,0,1,.83,4.6,6,6,0,0,1-3.07,3.75c-.49.21-1.36.43-1.78,0-.28-.33-.18-.88-.14-1.28l.15-1.7q.32-3.84.34-7.69a.63.63,0,0,0-1.25,0Z"/><path class="cls-1" d="M110.56,39.42c-.74,2.72-1.5,6.83-2,9.6-.08.44-.08,1,.35,1.18a.76.76,0,0,0,.37,0,6.56,6.56,0,0,0,6-5.09c.45-2.79-1.88-5.84-4.7-5.72"/><path class="cls-1" d="M110,39.25c-.6,2.22-1,4.47-1.47,6.72-.2,1-.44,2.06-.57,3.09s.36,1.89,1.5,1.78c4-.36,7.75-4.32,6.13-8.43a5.43,5.43,0,0,0-5-3.62.63.63,0,0,0,0,1.25,4.07,4.07,0,0,1,3.6,2.32,4.41,4.41,0,0,1-.23,4.5,6.26,6.26,0,0,1-4,2.65l-.52.08c-.22,0-.22.09-.28-.05s.12-.91.17-1.18c.16-.89.33-1.78.5-2.67.4-2,.81-4.09,1.35-6.1a.62.62,0,0,0-1.2-.34Z"/><path class="cls-1" d="M117.39,130.28a10.28,10.28,0,0,1,2.14-10.3,11.22,11.22,0,0,1,1.46-1.3c.41-.31,1-.59,1.38-.25a1.19,1.19,0,0,1,.26,1l-.15,5a25.26,25.26,0,0,1-.42,3.23c-.18,1.12-.15,3.49-1.66,3.5-.47,0-2.54.13-3-.86"/><path class="cls-1" d="M118,130.12a9.74,9.74,0,0,1,3-10.66,3.14,3.14,0,0,1,.6-.43c.25-.13.33-.18.4.09a2.84,2.84,0,0,1,0,.77l0,1.13c0,1.24,0,2.49-.12,3.74-.07,1.06-.31,2.09-.44,3.14a8.3,8.3,0,0,1-.35,2c-.24.63-.6.63-1.19.63s-1.61,0-1.93-.55-1.47-.08-1.08.63a2.78,2.78,0,0,0,2.32,1.14,3.72,3.72,0,0,0,2.12-.21,3,3,0,0,0,1.19-2.23c.17-1.07.31-2.15.46-3.22a40.7,40.7,0,0,0,.26-4.69c0-.75.09-1.52,0-2.27a1.46,1.46,0,0,0-.77-1.35c-1.14-.51-2.36.74-3.09,1.45a10.31,10.31,0,0,0-2.18,3.13,11,11,0,0,0-.42,8.1c.26.75,1.47.43,1.2-.33Z"/><path class="cls-1" d="M124.68,118.75c-.42,3.64-.63,8-.89,11.61a1,1,0,0,0,.18.82,1,1,0,0,0,1,.07,6.54,6.54,0,0,0-.26-12.5"/><path class="cls-1" d="M124.06,118.75c-.29,2.49-.46,5-.62,7.49L123.2,130a2.43,2.43,0,0,0,.13,1.41,1.29,1.29,0,0,0,1.27.6,5.43,5.43,0,0,0,2.67-1.29,7.51,7.51,0,0,0,1.94-2.33,7,7,0,0,0,.39-5.75,7.44,7.44,0,0,0-4.75-4.44c-.77-.24-1.1,1-.33,1.2a6,6,0,0,1,3.85,7.85,6.12,6.12,0,0,1-3.51,3.42c-.07,0-.38.15-.44.1s0-.48,0-.56c0-.5.07-1,.1-1.49.07-1,.13-2.07.2-3.11.15-2.27.32-4.55.58-6.81.09-.8-1.16-.79-1.25,0Z"/><path class="cls-1" d="M70.2,30.14C68.56,25.62,67,18.35,73.09,18.36c.4,0,.71.44,1.07.62s.37.58.37.94l0,6.57a4.36,4.36,0,0,1-.39,2.21c-.74,1.28-2.49,1.45-4,1.44"/><path class="cls-1" d="M70.8,30a26.91,26.91,0,0,1-1.24-4.49,9.15,9.15,0,0,1,.07-4.26A3.07,3.07,0,0,1,72.28,19a1.34,1.34,0,0,1,1.18.21c.15.11.34.2.42.36a2.85,2.85,0,0,1,0,1l0,4.23c0,.73,0,1.47,0,2.21a2.37,2.37,0,0,1-.58,1.68,4.45,4.45,0,0,1-3.15.77.63.63,0,0,0,0,1.25,6.68,6.68,0,0,0,3.44-.67,3.53,3.53,0,0,0,1.54-3.22c0-1.65,0-3.31,0-5a22.25,22.25,0,0,0,0-2.31,1.71,1.71,0,0,0-.92-1.34,2,2,0,0,0-1.49-.51,5.48,5.48,0,0,0-1.5.25,4.12,4.12,0,0,0-2,1.29,6.77,6.77,0,0,0-1.12,4.8,23.38,23.38,0,0,0,1.46,6.22c.27.75,1.48.42,1.2-.34Z"/><path class="cls-1" d="M76.1,18.48c-.12,3.18.1,7.67,0,10.84a1,1,0,0,0,.13.68.88.88,0,0,0,.42.24,3.17,3.17,0,0,0,2.77-.68,8.44,8.44,0,0,0,1.84-2.3,8.93,8.93,0,0,0,1.5-3.69,4.91,4.91,0,0,0-6.64-5.09"/><path class="cls-1" d="M75.48,18.48c-.09,2.36,0,4.73,0,7.1,0,1.14,0,2.27,0,3.41a2,2,0,0,0,.31,1.45,2.07,2.07,0,0,0,1.49.52c2.53.07,4.09-2.48,5.12-4.43s1.44-4.45.09-6.5a5.59,5.59,0,0,0-6.53-2.15c-.75.27-.43,1.47.33,1.2a4.39,4.39,0,0,1,4.9,1.27,4.75,4.75,0,0,1,.27,5.28c-.78,1.55-2,4-4,4.08-.16,0-.52,0-.65-.08s-.09-.37-.08-.56l0-1.31c0-1,0-1.91,0-2.87,0-2.14-.08-4.28,0-6.41,0-.81-1.22-.81-1.25,0Z"/><path class="cls-1" d="M102.53,2.76c-.61,2,.62,7.65,2.39,8.77a11.91,11.91,0,0,0,5.71,1.65c.24,0,.56,0,.62-.26a.51.51,0,0,0-.1-.35l-1.9-3.39a13.47,13.47,0,0,0-2.77-3.78c-1.19-1-2.48-3.2-4-2.64"/><path class="cls-1" d="M101.93,2.6a10.34,10.34,0,0,0,.33,5.17c.4,1.53,1,3.44,2.42,4.35a10.18,10.18,0,0,0,3.54,1.36,17,17,0,0,0,1.88.27c.57.06,1.27.15,1.64-.41s-.08-1.14-.35-1.62l-1.2-2.14a26.77,26.77,0,0,0-2.13-3.42,15.08,15.08,0,0,0-1.42-1.46c-.45-.43-.85-.91-1.28-1.35-.79-.79-1.82-1.58-3-1.19-.76.26-.44,1.46.33,1.21s1.4.48,1.88,1c.64.67,1.32,1.31,2,2A13.54,13.54,0,0,1,108.45,9l1.86,3.31c.06.1.15.37.25.44l0,.09c.23-.25.24-.36,0-.33a2.35,2.35,0,0,0-.71-.06,15.67,15.67,0,0,1-1.69-.28,8.48,8.48,0,0,1-3-1.22c-1-.7-1.43-2.3-1.73-3.43a9,9,0,0,1-.36-4.63.63.63,0,0,0-1.21-.33Z"/><path class="cls-1" d="M105.42,1.42a56.41,56.41,0,0,1,6.86,8.23,2.52,2.52,0,0,0,1,.93c.94.34,2-1.12,2.42-2,.62-1.31,1.2-2.81.73-4.19-.57-1.65-2.4-2.45-4-3.07-1.93-.72-5.22-1-7,.13"/><path class="cls-1" d="M105,1.86a42.79,42.79,0,0,1,5.09,5.83c.72,1,1.35,2,2.15,2.88a1.79,1.79,0,0,0,2.63.15A6.67,6.67,0,0,0,116.61,8,5.45,5.45,0,0,0,117,4.2c-.71-2.07-3-3.09-5-3.68-2.13-.64-5-.86-6.93.36A.63.63,0,0,0,105.74,2c1.48-.92,3.55-.79,5.19-.43a11.62,11.62,0,0,1,2.45.84,5.05,5.05,0,0,1,2.13,1.57,3.35,3.35,0,0,1,.17,3,6.7,6.7,0,0,1-1.4,2.58c-.15.17-.46.5-.73.47s-.77-.73-1-1c-.62-.85-1.24-1.69-1.88-2.52A42.16,42.16,0,0,0,105.86,1c-.59-.55-1.48.33-.88.88Z"/><path class="cls-1" d="M90.74,161.83c0,.1-.81,1.12-1.37,1.1s-1.11.14-1.56.12-.79-.46-1.13-.55c-.56-.16-1-1-1.29-1.47a14.11,14.11,0,0,1-2.36-6.3c-.12-1.11-.38-1.53-.48-2.64a7.54,7.54,0,0,0,.12-1.88c0-.27,0-1.6.63-2.12.1-.07.55,0,.5,0,2.29,3.84,7.58,7.46,6.92,13.92"/><path class="cls-1" d="M90.13,161.66c.06-.15-.07.07-.1.1s-.21.23-.33.33c-.31.27-.6.22-1,.26a1.7,1.7,0,0,1-1.24-.14,3.81,3.81,0,0,1-.91-.55,11.6,11.6,0,0,1-1.44-2.29,13.89,13.89,0,0,1-1.16-3c-.25-1-.3-2-.53-2.92a5.09,5.09,0,0,1-.16-2c.09-.64,0-1.26,0-1.89a2.08,2.08,0,0,1,.27-.9c-.13.06.24,0,.28,0a.55.55,0,0,0,.38-.2l-1-.13c1.27,2.1,3,3.83,4.46,5.83A11.46,11.46,0,0,1,90.1,162c-.07.8,1.18.8,1.25,0a12.32,12.32,0,0,0-2.33-8.1c-1.45-2.13-3.34-3.94-4.68-6.14a.62.62,0,0,0-1-.12l0,0,.44-.19c-2.15,0-1.53,2.58-1.77,4a7.31,7.31,0,0,0,.31,2.74,24.55,24.55,0,0,0,.86,3.89,18.12,18.12,0,0,0,1.76,3.42,6,6,0,0,0,.87,1.19,5.21,5.21,0,0,0,1.11.67,2.11,2.11,0,0,0,1.32.31,6.7,6.7,0,0,0,1.55-.17A2.76,2.76,0,0,0,91.34,162c.26-.76-.94-1.08-1.21-.33Z"/><path class="cls-1" d="M86.56,146.94c3.15,4.41,4,8.94,7.11,12.58a1,1,0,0,0,.77.48c.32,0,.54-.33.71-.6a17.09,17.09,0,0,0,2.35-5.14,6.76,6.76,0,0,0-.91-5.43,7.65,7.65,0,0,0-2.84-2.19c-2.46-1.21-4.47.07-7.19.3"/><path class="cls-1" d="M86,147.26a53.51,53.51,0,0,1,4.16,7.8,23.62,23.62,0,0,0,2.11,3.69c.56.8,1.47,2.33,2.65,1.74a3.3,3.3,0,0,0,1.12-1.38A23.27,23.27,0,0,0,97.18,157a11.31,11.31,0,0,0,1.11-3.8,6.76,6.76,0,0,0-3.11-6.49,6.61,6.61,0,0,0-4.12-1.21c-1.52.12-3,.65-4.5.8-.79.08-.8,1.33,0,1.25,2.13-.21,4.48-1.36,6.59-.51a5.75,5.75,0,0,1,3.91,5.1c.11,2.44-1.07,4.7-2.33,6.72-.13.21-.2.5-.41.42s-.46-.53-.59-.7a15.55,15.55,0,0,1-1-1.51A32,32,0,0,1,91.06,154a48.65,48.65,0,0,0-4-7.4c-.46-.65-1.54,0-1.08.63Z"/><path class="cls-1" d="M72.36,124a6.31,6.31,0,0,0-2.53,5.48,20,20,0,0,0,1.38,6.34,24,24,0,0,0,3.89-7.21,5.08,5.08,0,0,0,.21-3.55c-.47-1.12-2-1.83-3-1.06"/><path class="cls-1" d="M72.05,123.49c-4.23,2.83-2.78,8.54-1.44,12.52.13.4.74.68,1,.28A22.92,22.92,0,0,0,76,127.83a4,4,0,0,0-.73-3.9,2.55,2.55,0,0,0-3.21-.44c-.64.47,0,1.56.63,1.08a1.43,1.43,0,0,1,2,.7c.54,1.12,0,2.51-.35,3.59a23.3,23.3,0,0,1-3.59,6.54l1,.28c-1.12-3.32-2.8-8.66.86-11.11.67-.44,0-1.53-.63-1.08Z"/><path class="cls-1" d="M77.39,125.5A23.07,23.07,0,0,1,74.18,135a1.54,1.54,0,0,0-.37,1.12c.14.66,1,.83,1.69.75A6.61,6.61,0,0,0,80.94,128c-.55-1.5-2-2.91-3.55-2.54"/><path class="cls-1" d="M76.76,125.5a23.47,23.47,0,0,1-1.86,6.83c-.21.48-.45,1-.7,1.41a15,15,0,0,0-.89,1.54,1.54,1.54,0,0,0,1.11,2.13,4.81,4.81,0,0,0,2.89-.36A7.53,7.53,0,0,0,80,135.28a7.35,7.35,0,0,0,1.9-6.15c-.34-2.23-2.1-4.74-4.64-4.23-.79.15-.45,1.36.33,1.2,1.82-.36,2.91,1.93,3.1,3.38a6,6,0,0,1-1.63,5,6.1,6.1,0,0,1-2.13,1.41,3.25,3.25,0,0,1-2.26.29c-.38-.18-.13-.51,0-.78s.48-.77.69-1.16a20,20,0,0,0,1.16-2.54A25.81,25.81,0,0,0,78,125.5c.1-.8-1.15-.79-1.25,0Z"/><path class="cls-1" d="M54.09,164.4a2.48,2.48,0,0,1-1,1.43,1.34,1.34,0,0,1-.38.14,4.34,4.34,0,0,1-3.32-1.06,11.85,11.85,0,0,1-3.69-4.61,11.43,11.43,0,0,1-.86-2.85,10.56,10.56,0,0,1-.13-1.48c0-.14.1-1.45.07-1.46,3.37.09,9.14,4.34,9.31,9.89"/><path class="cls-1" d="M53.49,164.24A1.4,1.4,0,0,1,52,165.4a4.26,4.26,0,0,1-2-.82,11.11,11.11,0,0,1-4.61-7.66,7.51,7.51,0,0,1,0-1.5,3.91,3.91,0,0,0,0-1.08l-.61.79a9.13,9.13,0,0,1,5.42,2.72,9.73,9.73,0,0,1,3.27,6.55c0,.81,1.28.81,1.25,0A11,11,0,0,0,51.08,157a10.36,10.36,0,0,0-6.3-3.09.64.64,0,0,0-.6.8c-.06-.25,0,0,0,.09s0,.2,0,.31,0,.49,0,.73a9.9,9.9,0,0,0,.27,2.43,12.47,12.47,0,0,0,2.39,5,9.75,9.75,0,0,0,4,3.18,3.18,3.18,0,0,0,2.53,0,3,3,0,0,0,1.37-1.84.62.62,0,0,0-1.2-.33Z"/><path class="cls-1" d="M44.71,152.73c3.65.12,7.37,2,9,5.2.81,1.56,1.12,3.34,2,4.87.13.23.31.47.57.47s.48-.36.58-.65a40.51,40.51,0,0,0,1.16-4.49,7.76,7.76,0,0,0,.19-2.35,6.18,6.18,0,0,0-2.38-3.89,8.55,8.55,0,0,0-6.24-2c-2.24.23-4,.82-4.91,2.87"/><path class="cls-1" d="M44.71,153.36a10.42,10.42,0,0,1,7.5,3.39A12.57,12.57,0,0,1,54.29,161c.32.91,1,3.49,2.48,2.78.59-.29.74-1.05.91-1.61.27-.86.5-1.73.7-2.61.37-1.61.79-3.36.22-5-1-2.83-4-4.84-6.92-5.29s-6.21.34-7.51,3.12c-.34.72.74,1.36,1.08.63,1-2.16,3.49-2.77,5.71-2.58,2.57.21,5.52,1.94,6.43,4.45.54,1.47.07,3.09-.27,4.56-.18.75-.38,1.49-.6,2.23,0,.12-.22.89-.3.89.1,0-.35-.94-.39-1-.54-1.3-.87-2.69-1.53-3.94a9,9,0,0,0-2.18-2.72,12,12,0,0,0-7.41-2.79c-.81,0-.8,1.21,0,1.25Z"/><path class="cls-1" d="M42.42,111.61c-1.26,3.11-.58,5.1.15,7.47s2.4,4.7,4.84,5.28a1.64,1.64,0,0,0,1.83-.48,1.92,1.92,0,0,0,.08-1.28l-1.11-6.47c-.29-1.65-.63-3.41-1.83-4.57s-3.25-1.46-4,0"/><path class="cls-1" d="M41.81,111.45a9.27,9.27,0,0,0-.7,4,15.17,15.17,0,0,0,.74,3.45c.7,2.28,2,4.57,4.22,5.64,1,.46,2.32.84,3.28.13,1.14-.85.51-2.58.31-3.73-.28-1.66-.56-3.32-.85-5a11.38,11.38,0,0,0-1.09-3.66A4.46,4.46,0,0,0,44.84,110a2.58,2.58,0,0,0-3,1.26c-.37.71.71,1.34,1.08.63a1.44,1.44,0,0,1,1.93-.58,3.51,3.51,0,0,1,1.92,1.92,11.43,11.43,0,0,1,.78,2.93l.66,3.83.32,1.86c.07.43.41,1.37.07,1.74-.57.62-2-.18-2.56-.52A8.11,8.11,0,0,1,43,118.39a12.48,12.48,0,0,1-.65-2.94,8.54,8.54,0,0,1,.66-3.67c.29-.75-.91-1.07-1.21-.33Z"/><path class="cls-1" d="M49,112.47l1.7,8.59c.16.79.62,1.8,1.41,1.64a1.47,1.47,0,0,0,.8-.64,10,10,0,0,0,1.54-8.29,3.9,3.9,0,0,0-.69-1.47,5.44,5.44,0,0,0-2.51-1.23,2.09,2.09,0,0,0-1.79-.09c-.62.18-.48,1.43-.46,1.49"/><path class="cls-1" d="M48.43,112.64c.55,2.78,1.09,5.58,1.65,8.36.18.87.54,2,1.5,2.29s1.83-.74,2.32-1.55a10.48,10.48,0,0,0,1.45-6.67,6.11,6.11,0,0,0-1.06-3.14,6.13,6.13,0,0,0-2.84-1.46c.18.07-.2-.1-.25-.12a2.13,2.13,0,0,0-.61-.12,2.62,2.62,0,0,0-1.6.31,2.09,2.09,0,0,0-.56,2.1c.16.78,1.37.45,1.2-.34,0,0,0,.07,0-.06s0-.2,0-.3a1,1,0,0,1,.06-.34s.05-.1,0,0,.3-.06.38-.07a2.48,2.48,0,0,1,1.31.27A3.46,3.46,0,0,1,53.51,113a6,6,0,0,1,.64,2.55,9.33,9.33,0,0,1-1,5.08c-.2.39-.91,1.93-1.4,1.24a6.32,6.32,0,0,1-.66-2.43l-1.41-7.13c-.15-.79-1.36-.45-1.2.34Z"/><path class="cls-1" d="M18.43,147.06c-3.11-2-3.84-7.16-3.81-11.24,0-.25.06-.56.3-.61s.3.09.43.2a51.59,51.59,0,0,1,6.57,7,4.83,4.83,0,0,1,1,1.8,2.56,2.56,0,0,1-.89,2.5,4.59,4.59,0,0,1-3.59.38"/><path class="cls-1" d="M18.74,146.52c-2.82-1.91-3.35-6.09-3.47-9.21,0-.45,0-.89,0-1.33a.74.74,0,0,0,0-.21v0c-.35,0-.43.08-.26.19s.55.5.71.65c.81.74,1.61,1.51,2.37,2.3s1.56,1.67,2.29,2.54A10.24,10.24,0,0,1,22.2,144a1.85,1.85,0,0,1-1,2.41,3.78,3.78,0,0,1-2.46.12c-.73-.31-1.37.77-.63,1.08,1.8.76,4.46.21,5.24-1.72a3.49,3.49,0,0,0-.55-3.36,32.06,32.06,0,0,0-2.62-3.2c-1-1.09-2-2.13-3.06-3.13-.61-.57-2.1-2.44-2.93-1.17a2.56,2.56,0,0,0-.2,1.37c0,.59,0,1.18.07,1.76a24.2,24.2,0,0,0,.48,3.4,9.56,9.56,0,0,0,3.57,6c.67.46,1.3-.63.63-1.08Z"/><path class="cls-1" d="M16.61,134.46a34.59,34.59,0,0,1,6.07,5.9c.79,1,1.78,2.13,3,2,1.41-.17,2.07-1.87,2-3.28a7.91,7.91,0,0,0-7.33-7.45,3.68,3.68,0,0,0-3.82,2.85"/><path class="cls-1" d="M16.29,135a36.08,36.08,0,0,1,6.1,6,4.57,4.57,0,0,0,2.85,2,2.65,2.65,0,0,0,2.58-1.48c1.07-1.95.51-4.48-.58-6.3a8.71,8.71,0,0,0-5.25-4,5.45,5.45,0,0,0-3.69.23A4,4,0,0,0,16,134.3c-.13.78,1.08,1.12,1.21.33.34-2,2.52-2.65,4.29-2.25a7.4,7.4,0,0,1,4.5,3.17c.93,1.43,1.57,3.47.83,5.12a1.44,1.44,0,0,1-1.95.92,7.48,7.48,0,0,1-2.2-2.21,35,35,0,0,0-5.76-5.46c-.64-.48-1.26.6-.63,1.08Z"/><path class="cls-1" d="M67.84,77.53a12.11,12.11,0,0,0-6.5,8.72,4.65,4.65,0,0,0,.6,3.64,24.13,24.13,0,0,0,6.93-10.47,1.72,1.72,0,0,0,.11-1c-.09-.32-.84-1.06-1.14-.92"/><path class="cls-1" d="M67.52,77a12.82,12.82,0,0,0-5.58,5.54c-1.12,2.17-2.15,5.5-.54,7.67a.63.63,0,0,0,1,.13A24.73,24.73,0,0,0,68,83.17c.34-.65.64-1.31.92-2A9.4,9.4,0,0,0,69.61,79c.14-1-.86-2.32-1.94-2.07-.78.18-.45,1.38.33,1.2-.14,0-.09,0,0,.1a1.37,1.37,0,0,1,.25.23.6.6,0,0,1,.08.6,11.44,11.44,0,0,1-.58,1.61,23.29,23.29,0,0,1-1.65,3.27,23.87,23.87,0,0,1-4.6,5.51l1,.12c-1.4-1.89-.3-4.9.71-6.74a11.62,11.62,0,0,1,5-4.76c.72-.36.09-1.44-.63-1.08Z"/><path class="cls-1" d="M71.47,80.16,64.7,90.36a1.05,1.05,0,0,0-.24.6.88.88,0,0,0,.29.55,3.13,3.13,0,0,0,3.55.36,7.11,7.11,0,0,0,2.64-2.69,11.27,11.27,0,0,0,1.77-4.32,5.82,5.82,0,0,0-1.06-4.44"/><path class="cls-1" d="M70.93,79.85,66.71,86.2,64.6,89.37c-.56.86-1.15,1.69-.29,2.58,1.36,1.41,3.64,1.06,5.07,0a11.56,11.56,0,0,0,3.47-5.13,7,7,0,0,0-.66-6.7c-.48-.62-1.57,0-1.08.64,2.25,2.91.46,7.14-1.76,9.53-.95,1-2.76,2-4,.91-.16-.14-.2-.18-.16-.36s.29-.45.41-.62l.89-1.35,1.66-2.5L72,80.48c.44-.67-.64-1.3-1.08-.63Z"/><path class="cls-1" d="M18.93,86.84a9.56,9.56,0,0,0,6.64,9c0-2.45.37-3.66-.69-5.86S21.37,86,19,86.57"/><path class="cls-1" d="M18.31,86.84a10.29,10.29,0,0,0,7.09,9.59.63.63,0,0,0,.79-.61,29.19,29.19,0,0,0,0-3.5A7.76,7.76,0,0,0,25,88.87,6,6,0,0,0,18.82,86c-.78.17-.45,1.38.33,1.2,2-.44,4,1,5,2.68A6.43,6.43,0,0,1,25,92.68c.07,1,0,2.1,0,3.14l.8-.6a9,9,0,0,1-6.18-8.38c0-.8-1.28-.81-1.25,0Z"/><path class="cls-1" d="M21.28,84.48A12.37,12.37,0,0,1,27.89,92c.2.62.4,1.34,1,1.63a1.85,1.85,0,0,0,2.12-.8,5.41,5.41,0,0,0,.59-5.28,8.34,8.34,0,0,0-3.75-4,6.22,6.22,0,0,0-3.72-.91c-1.29.15-2.55.43-2.86,1.7"/><path class="cls-1" d="M21,85a11.94,11.94,0,0,1,5.23,4.69,22.12,22.12,0,0,1,1.37,3.21,2,2,0,0,0,2.69,1.21c2.28-1,2.74-4.2,2.1-6.32a8.84,8.84,0,0,0-4.81-5.15,6.83,6.83,0,0,0-4.29-.56,3,3,0,0,0-2.61,2,.63.63,0,0,0,1.21.33c.25-.88,1.16-1.07,2-1.2a5.42,5.42,0,0,1,3.28.57,7.59,7.59,0,0,1,4,4.31,5.11,5.11,0,0,1,0,3c-.22.69-1,2.18-1.91,1.92-.41-.11-.55-.63-.67-1s-.3-.93-.49-1.38a12.68,12.68,0,0,0-1.46-2.59,13.25,13.25,0,0,0-5-4.17c-.73-.33-1.36.75-.63,1.08Z"/><path class="cls-1" d="M.63,114c-.1-3.66,1-5.79,3.45-8.56a39.23,39.23,0,0,1,1.33,8,3.42,3.42,0,0,1-.61,2.65,2.22,2.22,0,0,1-2.65.21A2.87,2.87,0,0,1,.63,114"/><path class="cls-1" d="M1.25,114A10.46,10.46,0,0,1,2,109.6a15.17,15.17,0,0,1,2.54-3.76l-1-.27a35.19,35.19,0,0,1,1.33,8.21c0,1-.16,2.25-1.42,2.24A2.27,2.27,0,0,1,1.25,114,.63.63,0,0,0,0,114a3.56,3.56,0,0,0,2.54,3.19,2.63,2.63,0,0,0,3.28-1.56A5.35,5.35,0,0,0,6,113.45c0-.91-.14-1.81-.26-2.71a40.87,40.87,0,0,0-1.1-5.5.64.64,0,0,0-1-.28A16.52,16.52,0,0,0,.85,109.1,11.69,11.69,0,0,0,0,114a.63.63,0,0,0,1.25,0Z"/><path class="cls-1" d="M6,105a75.88,75.88,0,0,0,.92,8.23c.19,1.07.55,2.3,1.56,2.7a2.1,2.1,0,0,0,2.11-.47,4,4,0,0,0,1.11-2,7.67,7.67,0,0,0-3.14-8.26A2.26,2.26,0,0,0,6,105"/><path class="cls-1" d="M5.38,105c.12,2.2.35,4.4.66,6.58.24,1.71.39,4.33,2.36,5,2.37.78,3.82-1.88,4.1-3.79a8.39,8.39,0,0,0-1.24-5.65c-1-1.58-3.56-4.09-5.57-2.66-.65.46,0,1.55.63,1.08,1.31-.94,3.18,1.16,3.82,2.14a7.27,7.27,0,0,1,1.18,4.46,5.07,5.07,0,0,1-.7,2.34c-.42.65-1.31,1.25-2.07.78a2.88,2.88,0,0,1-1-2c-.16-.78-.28-1.58-.38-2.38q-.41-2.94-.57-5.9c0-.8-1.29-.81-1.25,0Z"/><path class="cls-1" d="M139.94,4.84l-.6,0c1,.55,2.13,1.2,3.24,1.9-2.84,2.69-4.86,6.61-8.94,8.89.07-3.33,3.46-8.51,5.7-10.79"/><path class="cls-1" d="M139.94,4.22l-.6,0A.63.63,0,0,0,139,5.41c1.1.59,2.18,1.23,3.24,1.9l-.13-1c-3,2.89-5.08,6.67-8.82,8.79l.94.54a12.6,12.6,0,0,1,2-5.54,23.6,23.6,0,0,1,3.54-4.81c.56-.58-.33-1.46-.89-.88a25.18,25.18,0,0,0-3.8,5.19,13.57,13.57,0,0,0-2.09,6,.63.63,0,0,0,.94.54,19.23,19.23,0,0,0,5-4.33c1.35-1.56,2.57-3.23,4.06-4.66a.63.63,0,0,0-.12-1c-1.06-.67-2.14-1.31-3.24-1.9l-.32,1.16.6,0c.8,0,.8-1.28,0-1.25Z"/><path class="cls-1" d="M143.94,7.93c-1.65,3.12-6.71,6.73-8.07,9.43,5,3,10.08-5.1,10.75-7.8-.89-.67-1.79-1.3-2.68-1.9"/><path class="cls-1" d="M143.4,7.61a22,22,0,0,1-4.16,4.86A19.82,19.82,0,0,0,135.33,17a.63.63,0,0,0,.22.85c4.37,2.56,8.58-2.09,10.54-5.58a10.66,10.66,0,0,0,1.13-2.59.65.65,0,0,0-.28-.7c-.89-.66-1.78-1.29-2.69-1.9-.67-.45-1.29.63-.63,1.08.91.61,1.8,1.24,2.68,1.89l-.28-.7A10.34,10.34,0,0,1,144.85,12a16.66,16.66,0,0,1-2.29,3c-1.67,1.72-4.05,3.16-6.38,1.8l.23.85a19.81,19.81,0,0,1,3.94-4.54,21.93,21.93,0,0,0,4.13-4.89c.38-.7-.7-1.34-1.08-.63Z"/><path class="cls-1" d="M155.42,117.53c-3.39,1.41-8.38,4.35-11.66,6-.22.11-.45.25-.49.48-.06.41.47.6.88.64a32.11,32.11,0,0,0,5.7.42,11.34,11.34,0,0,0,2.43-.59c1.89-.65,2.76-.79,2.62-1.55Z"/><path class="cls-1" d="M155.25,116.93a82.41,82.41,0,0,0-7.57,3.81c-1.17.63-2.35,1.27-3.53,1.88-.47.24-1.1.45-1.38.94a1.08,1.08,0,0,0,.51,1.47,5.62,5.62,0,0,0,2,.36c.92.11,1.83.25,2.75.31a12,12,0,0,0,4.63-.7c.83-.28,2.3-.5,2.75-1.39a1.35,1.35,0,0,0,.13-.56c0-.08,0-.34,0-.13v-.06c0-.24.05-.48.07-.72l.44-4.61c.08-.8-1.17-.8-1.25,0l-.32,3.35-.17,1.77c0,.06,0,.4,0,.44s-.38.16-.46.19a19.17,19.17,0,0,1-3.55,1.09,14.4,14.4,0,0,1-4.44-.16l-1-.13c-.18,0-.38,0-.56-.06a2.41,2.41,0,0,0-.35-.07l0,.09c0,.12,0,.13.14,0a1.22,1.22,0,0,0,.28-.14l.88-.45c1-.54,2.05-1.1,3.08-1.65,2.38-1.29,4.77-2.64,7.27-3.69C156.31,117.83,156,116.61,155.25,116.93Z"/><path class="cls-1" d="M155.52,115.89c-3.42,1.51-8.35,2.75-11.77,4.27a1.58,1.58,0,0,1-1.31.16c-.73-.36-.48-1.45-.11-2.17.58-1.09,1.2-2.16,1.87-3.19a12.84,12.84,0,0,1,4.06-4.29c1.72-1,5.8-.81,7.47.26a35.46,35.46,0,0,0-.21,5v-1.21"/><path class="cls-1" d="M155.2,115.35c-2,.87-4.09,1.53-6.16,2.21-1.06.35-2.12.7-3.16,1.08-.47.17-.92.34-1.38.53a7,7,0,0,1-1.49.59c-1.08.12.33-2.16.51-2.48a33.3,33.3,0,0,1,1.91-3c1.11-1.55,2.54-3.13,4.49-3.5a8.31,8.31,0,0,1,5.49.7l-.3-.54a32.88,32.88,0,0,0-.21,5,.63.63,0,0,0,1.25,0v-2a.63.63,0,0,0-1.25,0c0,.26,0,.51,0,.77a.63.63,0,0,0,1.25,0c0-.26,0-.51,0-.77h-1.25v2h1.25a32.88,32.88,0,0,1,.21-5,.63.63,0,0,0-.31-.54,9.37,9.37,0,0,0-5.8-.92,8.16,8.16,0,0,0-5.43,3.54,29.34,29.34,0,0,0-2.31,3.53c-.55.95-1.33,2.08-1.14,3.24s1.47,1.42,2.48,1c1.19-.49,2.38-1,3.6-1.38,2.8-1,5.67-1.79,8.39-3,.73-.32.09-1.4-.64-1.07Z"/><path class="cls-1" d="M130.48,158.05c.14.07,0,.36,0,.22.38-.67-6.18-6.27-10.76-6.47a79.67,79.67,0,0,0,6.31,10.41c1.72-1.3,3.4-2.66,5-4.09"/><path class="cls-1" d="M130,158.5l.05.05-.18-.44,0-.12c-.34.72.71,1.35,1.08.63s-.27-1.35-.72-1.82a19.26,19.26,0,0,0-2.73-2.29c-2.26-1.62-5-3.18-7.83-3.33a.63.63,0,0,0-.54.94,75.52,75.52,0,0,0,6.31,10.41.63.63,0,0,0,.86.22c1.76-1.33,3.48-2.73,5.14-4.19.61-.53-.28-1.41-.88-.88q-2.38,2.08-4.89,4l.85.23a75.52,75.52,0,0,1-6.31-10.41l-.54.94c2.43.12,4.79,1.5,6.75,2.85a20.46,20.46,0,0,1,2.54,2,7.62,7.62,0,0,1,.73.77,1.46,1.46,0,0,0,.15.24s0,0,0,0,.14-.49,0-.3l1.08.63a.86.86,0,0,0-.1-1c-.51-.62-1.39.27-.89.89Z"/><path class="cls-1" d="M125,163c-1-2.89-5.85-8-7.83-9.4-.76-.54-1.88.2-1.94,1.14-.24,3.9,2.13,8.71,4.21,12C121.38,165.54,123.24,164.29,125,163Z"/><path class="cls-1" d="M125.64,162.8a15.92,15.92,0,0,0-2.74-4.37,38.48,38.48,0,0,0-3.84-4.13,11.59,11.59,0,0,0-1.53-1.27,1.87,1.87,0,0,0-2.41.49,3.83,3.83,0,0,0-.42,2.94,17.59,17.59,0,0,0,.76,3.42,33.14,33.14,0,0,0,3.48,7.16.63.63,0,0,0,.86.22q2.85-1.77,5.55-3.75c.65-.47,0-1.56-.63-1.08q-2.7,2-5.55,3.75l.85.23c-2-3.27-4.13-7.17-4.14-11.13,0-.41,0-.84.35-1.11s.55-.15.84.07a17.17,17.17,0,0,1,1.37,1.19,40.9,40.9,0,0,1,3.3,3.54,15.1,15.1,0,0,1,2.7,4.16C124.71,163.88,125.92,163.56,125.64,162.8Z"/><path class="cls-1" d="M41,63.35c2.34-.37,4.67-.81,7-1.25-.73,1.7-.69,2.92-1.42,4.62-.58,1.37-1.46,3-3,3a2.73,2.73,0,0,1-2.48-2.33A9.69,9.69,0,0,1,41,63.35Z"/><path class="cls-1" d="M41.16,64c2.34-.37,4.66-.81,7-1.25l-.77-.77a26.53,26.53,0,0,0-.94,3.27,9.41,9.41,0,0,1-1.29,2.87,1.86,1.86,0,0,1-2,1,2.42,2.42,0,0,1-1.46-2,8.19,8.19,0,0,1-.1-3.55.63.63,0,0,0-1.21-.33,9,9,0,0,0,0,3.87A3.94,3.94,0,0,0,42.21,70a2.77,2.77,0,0,0,3.19-.35,7.18,7.18,0,0,0,1.85-2.95c.58-1.43.73-3,1.33-4.42.2-.48-.36-.84-.77-.77-2.32.45-4.65.88-7,1.25A.63.63,0,0,0,41.16,64Z"/><path class="cls-1" d="M50.88,61.5c1.62-.35,3.27-.75,4.93-1.21.43,3-1.64,6.75-4.17,8.38A1.85,1.85,0,0,1,50,69c-.89-.39-.79-1.67-.52-2.61C49.85,64.9,50.39,63,50.88,61.5Z"/><path class="cls-1" d="M51.05,62.11c1.65-.37,3.29-.77,4.92-1.22l-.77-.44a8.33,8.33,0,0,1-2.12,6.08,9.31,9.31,0,0,1-1.17,1.18,2.85,2.85,0,0,1-1.43.78c-1.06.06-.48-1.81-.34-2.32.43-1.51.86-3,1.34-4.5.25-.77-.95-1.09-1.2-.33-.51,1.55-1,3.13-1.4,4.7-.31,1.13-.56,2.78.66,3.48s2.88-.52,3.79-1.42a10.73,10.73,0,0,0,2.35-3.45,8.51,8.51,0,0,0,.73-4.53.64.64,0,0,0-.77-.44c-1.63.46-3.27.86-4.92,1.22C49.93,61.07,50.26,62.28,51.05,62.11Z"/></g></g></g></svg>