<svg xmlns="http://www.w3.org/2000/svg" viewBox="0 0 27.42 70.21"><defs><style>.cls-1{fill:#fff;}</style></defs><g id="Layer_2" data-name="Layer 2"><g id="baby-cat-tail-2-patterns"><g id="tail-2-pattern-2-mask"><path class="cls-1" d="M15.67,68.61a88.38,88.38,0,0,0,5.76-9.46,44.63,44.63,0,0,0,3.15-6.49,40,40,0,0,0,1.8-10.87,189.18,189.18,0,0,0-2-41.18c-5.9,8.9-7.19,20-9.22,30.43s-5.48,21.57-14,28l-.56.4c.36,2.37,2,4.11,3.53,6C6.91,68.7,12.08,71,15.67,68.61Z"/><path class="cls-1" d="M16.21,68.93a97.05,97.05,0,0,0,7-11.65A32.39,32.39,0,0,0,26.76,45a168,168,0,0,0,.1-28.72Q26.28,8.34,25,.44c-.09-.57-.88-.55-1.14-.15-9.48,14.48-7,33-14.87,48.18A29,29,0,0,1,.3,58.87a.68.68,0,0,0-.29.71,11.19,11.19,0,0,0,2.68,5,17.82,17.82,0,0,0,3.83,3.73C9.31,70.17,13,71,16,69.15c.68-.43.06-1.51-.63-1.08-2.73,1.72-6,.7-8.5-1A17.48,17.48,0,0,1,3.57,63.7a9.9,9.9,0,0,1-2.35-4.45L.93,60C15.2,49.72,15.08,30.38,19.06,15A46.88,46.88,0,0,1,25,.92L23.82.77a190.32,190.32,0,0,1,2.29,27.9q0,6.8-.38,13.58c-.3,4.6-1,9-3,13.19a90.42,90.42,0,0,1-7.57,12.85C14.66,69,15.74,69.57,16.21,68.93Z"/></g></g></g></svg>