<svg xmlns="http://www.w3.org/2000/svg" viewBox="0 0 68.61 75.59"><defs><style>.cls-1{fill:#fff;}</style></defs><g id="Layer_2" data-name="Layer 2"><g id="baby-cat-tail-2-patterns"><g id="tail-2-pattern-3-mask"><path class="cls-1" d="M55,32.43A14.91,14.91,0,0,0,52.16,43.2c.12.67.74,1.53,1.29,1.11a.88.88,0,0,0,.26-.34L57,38.15a8.59,8.59,0,0,0,1.19-2.89,2.94,2.94,0,0,0-1-2.82,1.81,1.81,0,0,0-2.66.61"/><path class="cls-1" d="M54.48,32.11a15.94,15.94,0,0,0-2.77,6.2,14.11,14.11,0,0,0-.33,3.3,4.34,4.34,0,0,0,.78,2.94,1.32,1.32,0,0,0,1.06.49c.58,0,.88-.49,1.15-.95l2-3.62c1.12-2,3-4.36,2.31-6.79a2.82,2.82,0,0,0-2.15-2.15A2.32,2.32,0,0,0,54,32.74c-.33.72.75,1.36,1.08.63a1.15,1.15,0,0,1,1.5-.56,2,2,0,0,1,1,1.87,5.46,5.46,0,0,1-.83,2.61c-.48.89-1,1.77-1.49,2.65l-1.52,2.71c-.08.15-.55,1.13-.6,1.14s-.17-.22-.23-.32a2.15,2.15,0,0,1-.18-.61,12.17,12.17,0,0,1,.36-5,15.06,15.06,0,0,1,2.47-5.17c.49-.64-.6-1.27-1.08-.63Z"/><path class="cls-1" d="M60.64,34.08a43.46,43.46,0,0,0-2.94,9.51c-.06.32-.08.74.22.88s.56-.07.79-.26a12.75,12.75,0,0,0,3.94-4.65,4.67,4.67,0,0,0-2-5.48"/><path class="cls-1" d="M60.1,33.77A46.21,46.21,0,0,0,58,39.71c-.28,1-.52,2-.73,3-.15.72-.46,1.82.37,2.26s1.61-.4,2.18-.9a18,18,0,0,0,1.92-1.88,6.26,6.26,0,0,0,1.82-4.47A5.3,5.3,0,0,0,61,33.54c-.7-.39-1.33.69-.63,1.08a4,4,0,0,1,1.89,2.76,4.34,4.34,0,0,1-.94,3.38,12.73,12.73,0,0,1-1.38,1.56l-.81.74a5.57,5.57,0,0,0-.82.71c-.1.12-.14,0-.05.14s.06,0,.07-.07a1.78,1.78,0,0,0,.08-.47c.09-.41.17-.83.27-1.24.18-.8.38-1.58.61-2.37a43.86,43.86,0,0,1,1.93-5.36c.32-.73-.75-1.37-1.08-.63Z"/><path class="cls-1" d="M.64,63.64a32,32,0,0,0,7.84,7,23.22,23.22,0,0,0,2.95-11.47C7.49,59,2.66,60.26.64,63.64Z"/><path class="cls-1" d="M.19,64.08a32.87,32.87,0,0,0,8,7.08A.62.62,0,0,0,9,70.94a23,23,0,0,0,3-11.79.64.64,0,0,0-.62-.63c-4.12-.12-9,1.07-11.33,4.8-.43.69.65,1.32,1.08.63,2.05-3.34,6.6-4.29,10.25-4.18l-.63-.62A21.77,21.77,0,0,1,7.94,70.31l.86-.22a32,32,0,0,1-7.72-6.9C.57,62.57-.31,63.46.19,64.08Z"/><path class="cls-1" d="M19.48,75c.79-4.39-1.82-10.65-5.54-13.12,0,3.48-1.73,6.95-3.75,9.79"/><path class="cls-1" d="M20.09,75.14A14,14,0,0,0,19,67.45a13.82,13.82,0,0,0-4.71-6.14.63.63,0,0,0-.94.54c-.05,3.48-1.71,6.69-3.67,9.47-.46.66.62,1.29,1.08.64,2.09-3,3.79-6.41,3.84-10.11l-.94.54a12.54,12.54,0,0,1,4.2,5.54,12.71,12.71,0,0,1,1.05,6.87c-.13.79,1.07,1.13,1.21.34Z"/><path class="cls-1" d="M19.48,75a29.3,29.3,0,0,1-9.29-3.33"/><path class="cls-1" d="M19.65,74.37A29.3,29.3,0,0,1,10.5,71.1c-.7-.39-1.33.69-.63,1.08a30.14,30.14,0,0,0,9.45,3.39c.78.14,1.12-1.07.33-1.2Z"/><path class="cls-1" d="M48.54,65.94A43.32,43.32,0,0,0,54,61.33a38.29,38.29,0,0,0-2.1-4c-.33-.44-.78-.92-1.33-.87s-1,.85-1.16,1.51A32.19,32.19,0,0,0,48.54,65.94Z"/><path class="cls-1" d="M48.85,66.48a44.47,44.47,0,0,0,5.54-4.71.65.65,0,0,0,.1-.76c-.6-1.08-1-2.25-1.65-3.32S51.22,55.32,49.93,56c-1,.5-1.18,1.75-1.36,2.73-.22,1.16-.4,2.34-.53,3.51a17.89,17.89,0,0,0-.13,3.73c.09.79,1.34.8,1.25,0a17.26,17.26,0,0,1,.11-3.52,37.33,37.33,0,0,1,.58-3.77,2.72,2.72,0,0,1,.52-1.47c.44-.42,1,.48,1.19.8.74,1.16,1.19,2.46,1.85,3.66l.1-.76a42.22,42.22,0,0,1-5.29,4.52C47.58,65.87,48.2,67,48.85,66.48Z"/><path class="cls-1" d="M53.53,55.76a7.38,7.38,0,0,0,3,2.6c.84-1.07,1.62-2.19,2.36-3.34C57.89,54.09,54.82,55.33,53.53,55.76Z"/><path class="cls-1" d="M53,56.08A7.43,7.43,0,0,0,56.36,59a.57.57,0,0,0,.6-.16c.87-1.12,1.69-2.28,2.46-3.47a.62.62,0,0,0-.1-.75c-.82-.74-2-.55-3-.34a29.29,29.29,0,0,0-2.93.92.63.63,0,0,0,.33,1.21c.88-.3,1.75-.63,2.66-.86.24-.06.49-.11.74-.15l.16,0c-.11,0,.09,0,.09,0l.34,0c.1,0,.2,0,.31,0s-.09,0,0,0l.12,0c.06,0,.28.12.15,0l.12.07c.1,0-.09-.07,0,0l-.1-.76c-.71,1.1-1.46,2.18-2.26,3.22l.61-.16a4.35,4.35,0,0,1-1.41-.94,10.24,10.24,0,0,1-1.21-1.37.66.66,0,0,0-.86-.23A.63.63,0,0,0,53,56.08Z"/><path class="cls-1" d="M63.87,3.42c.54-1,2.52-3.18,3.58-2.72q.33,3.36.53,6.74c-1.58-.1-3.89-2.5-4.18-4.06"/><path class="cls-1" d="M64.41,3.74A6.56,6.56,0,0,1,65.81,2a4.33,4.33,0,0,1,.9-.64,1,1,0,0,1,.37-.13c-.13,0,.08,0,.12,0-.15,0,0,0,.09,0L66.83.7c.22,2.24.39,4.49.53,6.74L68,6.81s-.08,0,0,0l-.17,0-.27-.09A3.18,3.18,0,0,1,67,6.41a6.08,6.08,0,0,1-1.15-.93A4.81,4.81,0,0,1,64.4,3.22a.62.62,0,1,0-1.2.33A6,6,0,0,0,65,6.43a5,5,0,0,0,3,1.63.63.63,0,0,0,.63-.62c-.14-2.25-.31-4.5-.53-6.74a.67.67,0,0,0-.46-.61c-.89-.34-1.86.34-2.5.89a7.47,7.47,0,0,0-1.79,2.13c-.38.71.69,1.34,1.08.63Z"/><path class="cls-1" d="M59.15,7.44c-.43,2-.81,4-1.18,6,1.32.56,2.65,2.19,4,2.76a1.21,1.21,0,0,0,.94.13c.68-.28.36-1.3-.06-1.9C61.9,13.1,60.07,8.75,59.15,7.44Z"/><path class="cls-1" d="M58.55,7.27c-.43,2-.81,4-1.18,6a.63.63,0,0,0,.29.71c1.25.56,2.17,1.66,3.31,2.4a2.81,2.81,0,0,0,2,.6,1.3,1.3,0,0,0,1-1.33c0-1-.75-1.81-1.19-2.64-.53-1-1-2-1.5-3a21.17,21.17,0,0,0-1.53-2.86c-.46-.65-1.54,0-1.08.63a37.37,37.37,0,0,1,2.45,4.75,20,20,0,0,0,1.16,2.13c.14.21.61.84.43,1.12,0,.06.05,0,0,0s-.25,0-.34-.07a4.13,4.13,0,0,1-.77-.42,24,24,0,0,0-3.25-2.36l.28.7c.37-2,.75-4,1.18-6C59.92,6.82,58.71,6.48,58.55,7.27Z"/><path class="cls-1" d="M57,18.58l-.24,1.23c-.24,1.22-.5,2.46-.78,3.69l.06-.13c0,.19-.11.16,0,0s-.18-.05,0,0c1.13.34,3.66-.57,4.77-1,.36-.12.75-.36.76-.74a1.05,1.05,0,0,0-.41-.71c-1.41-1.39-2.7-.85-4.1-2.24"/><path class="cls-1" d="M56.42,18.41c-.31,1.65-.64,3.29-1,4.93a.63.63,0,0,0,1.14.48l.06-.13-1.16-.32,0-.05.16-.28,0,0,.61-.16h0l.44.43v.31c0,.14,0-.06,0-.07a.8.8,0,0,0,0-.26.61.61,0,0,0-.2-.46.68.68,0,0,0-1,.15.65.65,0,0,0,.28.91,1.69,1.69,0,0,0,.7.15,7.71,7.71,0,0,0,2.69-.44c.43-.12.85-.26,1.27-.4a4.9,4.9,0,0,0,1.22-.53A1.26,1.26,0,0,0,62.06,21a3.69,3.69,0,0,0-1.4-1.26A9.71,9.71,0,0,0,59,19.13a3.75,3.75,0,0,1-1.48-.86c-.58-.56-1.47.33-.89.89a5.54,5.54,0,0,0,2.22,1.24,4.37,4.37,0,0,1,2,1.08s.14.2.13.16,0,0,0,0l-.2.11A6.55,6.55,0,0,1,60,22c-.65.22-1.29.43-2,.59a7.09,7.09,0,0,1-1,.18,2.75,2.75,0,0,1-.5,0h-.24c-.09,0,0,0,.14.1l.17.61v0l-.16.28,0,0-.28.16-.12,0-.44-.18h0l-.18-.44v0l.09-.31a.81.81,0,0,0-.13.64.63.63,0,0,0,.44.44h0a.61.61,0,0,0,.6-.16.74.74,0,0,0,.21-.57.65.65,0,0,0-.46-.6.63.63,0,0,0-.71.29l-.06.13,1.14.48c.38-1.64.71-3.28,1-4.93a.63.63,0,0,0-1.21-.33Z"/><path class="cls-1" d="M42.13,48.24A39.19,39.19,0,0,1,36,51.64v.2c.5,3.25.27,7.92.77,11.17.23.08-.2.13,0,0,1.8-1.18,5.32-4.12,6.06-6.14.87-2.41.94-6.48-.72-8.43"/><path class="cls-1" d="M41.81,47.7a40.9,40.9,0,0,1-6.1,3.4.61.61,0,0,0-.31.54c0,1,.2,1.91.26,2.86s.1,2.2.14,3.29.07,2.18.15,3.26c.06.71-.06,2.11.6,2.54l-.13-1,0,0,.44-.18.22.07.13,1a14.75,14.75,0,0,1,1.62-1.2c.67-.53,1.32-1.09,1.94-1.69a10.41,10.41,0,0,0,2.69-3.52c1-2.75,1.07-6.74-.86-9.1-.51-.63-1.39.26-.89.88A6.59,6.59,0,0,1,42.83,53a8.93,8.93,0,0,1-.73,4,11.83,11.83,0,0,1-2.71,3.15c-.55.5-1.13,1-1.72,1.45a12.44,12.44,0,0,0-1.38,1,.65.65,0,0,0,.13,1,.7.7,0,0,0,.88-.12.63.63,0,0,0-.12-1l-.07,0,.29.37A50.86,50.86,0,0,1,37,57.05c0-1-.07-1.94-.13-2.9s-.24-1.68-.24-2.51l-.31.54a40.9,40.9,0,0,0,6.1-3.4c.66-.45,0-1.54-.63-1.08Z"/><path class="cls-1" d="M34.76,52.22l-.87.38a35.21,35.21,0,0,1-6.09,2.21c-1.79,3.25-.37,10.16,3,11.71a.92.92,0,0,0,.62.11.72.72,0,0,0,.47-.4C33.45,62.84,34.06,57.36,34.76,52.22Z"/><path class="cls-1" d="M34.45,51.68c-1.56.69-3.12,1.39-4.74,1.93a18.41,18.41,0,0,0-2.15.62c-.41.21-.57.79-.71,1.19a11,11,0,0,0-.06,6.14,8.75,8.75,0,0,0,3,5.07c.88.64,2.09,1,2.7-.17a15.76,15.76,0,0,0,1.19-3.61,102.83,102.83,0,0,0,1.7-10.47c.1-.78-1.1-1.12-1.21-.33-.58,4.21-.93,8.6-2.32,12.65-.11.3-.23,1-.48,1.22s-.68-.17-.89-.33a5.19,5.19,0,0,1-1.33-1.51,10.73,10.73,0,0,1-1.41-4.26,8.06,8.06,0,0,1,.61-4.7l-.38.29a40.88,40.88,0,0,0,7.12-2.65C35.81,52.43,35.18,51.35,34.45,51.68Z"/></g></g></g></svg>