<svg xmlns="http://www.w3.org/2000/svg" viewBox="0 0 64.99 71.92"><defs><style>.cls-1{fill:#fff;}</style></defs><g id="Layer_2" data-name="Layer 2"><g id="baby-cat-tail-2-patterns"><g id="tail-2-pattern-4-mask"><path class="cls-1" d="M9.41,70.13A33.09,33.09,0,0,1,.62,64.64C3.41,62.4,6.82,60,9,57.17c-.71,3.82.09,8.83.39,12.7"/><path class="cls-1" d="M9.72,69.59A33,33,0,0,1,1.07,64.2v.88C4,62.74,7.12,60.57,9.46,57.61L8.41,57c-.75,4.25,0,8.6.37,12.86.06.8,1.31.8,1.25,0-.32-4.12-1.14-8.41-.41-12.53.1-.54-.61-1.15-1-.61-2.34,3-5.49,5.13-8.4,7.47a.63.63,0,0,0,0,.88,33.85,33.85,0,0,0,8.91,5.59c.73.31,1.37-.77.63-1.08Z"/><path class="cls-1" d="M27.55,71.3A47.72,47.72,0,0,0,41.6,65c-2.69-3.5-6.54-6.62-9.86-9.53C32.14,60.58,30.12,66.86,27.55,71.3Z"/><path class="cls-1" d="M27.72,71.9a48.92,48.92,0,0,0,14.2-6.37.64.64,0,0,0,.12-1C39.23,60.92,35.62,58,32.18,55c-.37-.33-1.1-.14-1.06.44C31.5,60.82,29.65,66.38,27,71a.63.63,0,0,0,1.08.64c2.74-4.79,4.67-10.59,4.28-16.16l-1.07.45c3.44,3,7,5.9,9.86,9.53l.13-1a47.94,47.94,0,0,1-13.9,6.25A.62.62,0,0,0,27.72,71.9Z"/><path class="cls-1" d="M53.15,54.66a86.88,86.88,0,0,0,6-9.77l.91-1.67c-2.84-.07-7.1.39-9.94.24A33.28,33.28,0,0,0,53.15,54.66Z"/><path class="cls-1" d="M53.69,55a93.37,93.37,0,0,0,6.9-11.44.63.63,0,0,0-.54-.94c-3.31-.06-6.63.41-9.94.25a.63.63,0,0,0-.63.62A33.06,33.06,0,0,0,52.61,55c.37.71,1.45.08,1.08-.63a31.33,31.33,0,0,1-3-10.88l-.62.63c3.31.16,6.63-.31,9.94-.25l-.53-.94a95.49,95.49,0,0,1-6.91,11.44C52.13,55,53.22,55.61,53.69,55Z"/><path class="cls-1" d="M64.36,21.46q-.09,3-.27,6.07c-.07,1.11-.15,2.22-.26,3.33-2.53-2.43-4.42-6.06-7-8.38l7.33-1"/><path class="cls-1" d="M63.74,21.46c-.1,3.14-.23,6.28-.54,9.4l1.07-.44c-2.63-2.55-4.3-5.93-7-8.38L57,23.09l7.33-1a.63.63,0,0,0,.43-.77.64.64,0,0,0-.76-.44l-7.34,1a.63.63,0,0,0-.27,1.05c2.74,2.44,4.41,5.82,7,8.37a.63.63,0,0,0,1.07-.44c.31-3.12.44-6.26.54-9.4a.63.63,0,0,0-1.25,0Z"/><path class="cls-1" d="M54.88,6.23c-.58,2.89-1.09,5.81-1.63,8.69,2.27-.52,4.53-1.63,6.8-2.15a.91.91,0,0,0,.42-.17c.41-.35,0-1-.36-1.38L55,6.26"/><path class="cls-1" d="M54.28,6.07c-.58,2.89-1.09,5.79-1.63,8.69a.64.64,0,0,0,.77.77,43.57,43.57,0,0,0,4.32-1.41c.72-.25,1.44-.49,2.17-.67s1.18-.31,1.33-1a1.89,1.89,0,0,0-.6-1.59c-.53-.59-1.14-1.11-1.7-1.66L55.47,5.82c-.58-.56-1.46.32-.88.88l3,2.91L59,11c.24.23,1.06.83,1,1.19,0,0,.06-.09,0,0a2.07,2.07,0,0,1-.43.1l-.92.26c-.63.2-1.24.41-1.86.63a34.63,34.63,0,0,1-3.7,1.19l.77.77c.54-2.9,1-5.8,1.62-8.69.16-.79-1-1.12-1.2-.33Z"/><path class="cls-1" d="M50.91,25.19A53.16,53.16,0,0,1,47.51,34c3.31.07,7.27-.71,10.58-.76.21-.44-.2-.9-.57-1.21C55.18,30.08,53.25,27.17,50.91,25.19Z"/><path class="cls-1" d="M50.3,25A52,52,0,0,1,47,33.72a.63.63,0,0,0,.54.94c3.54.06,7-.69,10.58-.77a.62.62,0,0,0,.6-.45c.32-1-.54-1.63-1.18-2.22a26.52,26.52,0,0,1-2.08-2.16,45,45,0,0,0-4.08-4.32c-.61-.52-1.5.36-.89.89a35.83,35.83,0,0,1,3.61,3.78c.57.65,1.14,1.29,1.75,1.91.28.29.57.57.87.85s.9.61.8.93l.6-.46c-3.54.08-7,.83-10.58.77l.54.94a54.47,54.47,0,0,0,3.46-9A.63.63,0,0,0,50.3,25Z"/><path class="cls-1" d="M43.38,40.45a26.22,26.22,0,0,1-4.5,4.3c-.58.44-1.19.85-1.8,1.24,2.53,1.29,5.79,2.44,8.32,3.74C44.68,47,44.22,43.13,43.38,40.45Z"/><path class="cls-1" d="M42.94,40a27,27,0,0,1-6.18,5.44.64.64,0,0,0,0,1.08c2.71,1.38,5.61,2.36,8.32,3.74a.63.63,0,0,0,.92-.7c-.8-3.07-1.08-6.26-2-9.29-.24-.76-1.45-.44-1.21.33.95,3,1.22,6.22,2,9.29l.92-.71c-2.71-1.38-5.6-2.36-8.32-3.74v1.08a27.48,27.48,0,0,0,6.43-5.64C44.33,40.28,43.45,39.39,42.94,40Z"/><path class="cls-1" d="M26.89,50.87A21.14,21.14,0,0,1,22.58,52a15.62,15.62,0,0,1-6.09-.32c.77,3.56,2.31,7.59,3.08,11.15,1.54-2.55,3.27-5,4.63-7.66C24.86,53.91,26.51,51.94,26.89,50.87Z"/><path class="cls-1" d="M26.72,50.27a16.91,16.91,0,0,1-10.06.84.64.64,0,0,0-.77.77C16.71,55.65,18.14,59.26,19,63a.64.64,0,0,0,1.15.15c1.43-2.36,3-4.64,4.31-7.07A29.44,29.44,0,0,1,26,53.48,11,11,0,0,0,27.49,51c.28-.75-.93-1.07-1.21-.33A11.14,11.14,0,0,1,24.86,53a29.2,29.2,0,0,0-1.62,2.67C22,58,20.42,60.25,19,62.54l1.14.15c-.82-3.77-2.25-7.37-3.08-11.14l-.77.77a18.07,18.07,0,0,0,10.73-.85C27.8,51.2,27.48,50,26.72,50.27Z"/><path class="cls-1" d="M64.23,6.83c-.1-2.07-.24-4.14-.4-6.2C62.58,1,61.48,2,60.24,2.32,61.41,3.54,63.06,5.61,64.23,6.83Z"/><path class="cls-1" d="M64.85,6.83q-.15-3.11-.4-6.2A.64.64,0,0,0,63.66,0c-1.29.37-2.3,1.33-3.59,1.7a.62.62,0,0,0-.27,1c1.38,1.46,2.6,3.06,4,4.52.56.58,1.44-.3.89-.89-1.38-1.45-2.61-3-4-4.51l-.27,1c1.29-.36,2.3-1.33,3.58-1.69L63.2.63q.25,3.09.4,6.2C63.64,7.63,64.89,7.64,64.85,6.83Z"/></g></g></g></svg>