<svg xmlns="http://www.w3.org/2000/svg" viewBox="0 0 54.08 64.43"><defs><style>.cls-1{fill:#fff;}</style></defs><g id="Layer_2" data-name="Layer 2"><g id="baby-cat-tail-2-patterns"><g id="tail-2-pattern-1-mask"><path class="cls-1" d="M53.37,1.61a29,29,0,0,1-10-1c-.49,2.59-.94,5.18-1.44,7.73-.26,1.36-.55,2.73-.87,4.1,3.63,1.47,8.48,1.13,12.34.46C53.49,9.14,53.48,5.37,53.37,1.61Z"/><path class="cls-1" d="M53.37,1a29.56,29.56,0,0,1-9.86-1,.63.63,0,0,0-.77.43c-.74,4-1.39,7.92-2.3,11.83a.65.65,0,0,0,.44.77c4,1.57,8.55,1.17,12.66.46a.62.62,0,0,0,.46-.6c.11-3.77.1-7.54,0-11.3a.63.63,0,0,0-1.25,0c.11,3.76.12,7.53,0,11.3l.46-.61c-3.91.68-8.23,1-12-.45l.43.77C42.55,8.7,43.21,4.73,44,.79l-.77.43a30.47,30.47,0,0,0,10.19,1C54.16,2.16,54.17.91,53.37,1Z"/><path class="cls-1" d="M50.68,31.51a54.89,54.89,0,0,1-2.53,4.95c-2.33,4.21-4.68,8.46-7.84,12.07a14.65,14.65,0,0,1-8.16-4c-2.36-2.05-5.18-4-6-7,.58-.37,1.15-.76,1.7-1.18a28.14,28.14,0,0,0,7.12-8c2.59,1.22,4.91,2.75,7.18,3.18a23.41,23.41,0,0,0,5.79.42A26.8,26.8,0,0,0,50.68,31.51Z"/><path class="cls-1" d="M50.14,31.2A90.72,90.72,0,0,1,45.47,40a53.57,53.57,0,0,1-5.6,8.13l.61-.16a16.31,16.31,0,0,1-7.17-3.24c-2.46-2-5.6-4.17-6.52-7.36L26.5,38a29.51,29.51,0,0,0,9-9.39l-.85.22c3,1.45,5.73,3.11,9.13,3.54a22.06,22.06,0,0,0,7-.29c.79-.16.45-1.36-.33-1.21a20.69,20.69,0,0,1-6.33.29c-3.3-.36-5.93-2-8.86-3.41a.64.64,0,0,0-.86.23A28,28,0,0,1,25.87,37a.65.65,0,0,0-.29.7c1,3.46,4.18,5.74,6.84,7.91a17.7,17.7,0,0,0,7.72,3.57.63.63,0,0,0,.61-.17,53.22,53.22,0,0,0,5.57-8,91.18,91.18,0,0,0,4.9-9.14C51.54,31.1,50.47,30.46,50.14,31.2Z"/><path class="cls-1" d="M16.25,42.31a22.42,22.42,0,0,1-4.66,1.3,16,16,0,0,1-9-1.34C.2,47.88.25,56.38,1.35,62.4c0,.19-.17-.09,0,0s.11.51,0,.35a24.8,24.8,0,0,0,5.37,1,34.78,34.78,0,0,0,17-3.42,5.67,5.67,0,0,1-2.94-2.29A7.83,7.83,0,0,1,20,56.53c-2.07-4.13-4.2-9.28-3.73-13.88"/><path class="cls-1" d="M16.08,41.7c-4.36,1.65-8.8,2-13.14,0a.63.63,0,0,0-.85.22,29.29,29.29,0,0,0-2,10,45.86,45.86,0,0,0,.07,5.5c.06.9.15,1.8.26,2.7,0,.38.1.75.16,1.13a4.55,4.55,0,0,1,.18,1l1.15-.15-.05-.06L1.28,63h.07l-.54-.31v-.1l.76-.44-.07,0-.33,1.21c7.7,2.25,15.64.76,22.83-2.47.54-.24.3-1-.15-1.14a5.53,5.53,0,0,1-3.14-3.08c-.63-1.45-1.37-2.83-2-4.3a21.18,21.18,0,0,1-1.89-9.72c.07-.8-1.18-.79-1.25,0-.32,3.78.83,7.49,2.3,10.93,1.25,2.94,2.38,6.18,5.61,7.38l-.15-1.14C16.5,62.9,8.87,64.3,1.51,62.15c-.77-.23-1.09,1-.33,1.21l.07,0A.65.65,0,0,0,2,62.94a.85.85,0,0,0-.74-1.16.63.63,0,0,0-.54.94l.05.06a.63.63,0,0,0,1.14-.15c.19-.54-.15-1.4-.23-2-.12-.83-.21-1.66-.28-2.49a46.73,46.73,0,0,1-.15-5.29,28.39,28.39,0,0,1,1.9-10.32l-.86.23a17.85,17.85,0,0,0,14.1.1c.75-.28.43-1.49-.33-1.21Z"/></g></g></g></svg>