<svg xmlns="http://www.w3.org/2000/svg" viewBox="0 0 58.36 79.79"><defs><style>.cls-1{fill:#fff;}</style></defs><g id="Layer_2" data-name="Layer 2"><g id="baby-cat-tail-2-patterns"><g id="tail-2-pattern-5-mask"><path class="cls-1" d="M20.41,69A6.89,6.89,0,0,0,20,71.31a3.39,3.39,0,0,0,.78,2.6,2.51,2.51,0,0,0,2.63.21,5.8,5.8,0,0,0,2.07-1.84,4.11,4.11,0,0,0,1.07-2.39c0-1.35-1.25-2.82-2.59-2.63-1.88.26-3.47,1.2-3.5,1.69"/><path class="cls-1" d="M19.8,68.78c-.12.63-.38,1.2-.45,1.85a6.71,6.71,0,0,0,.2,2.56c.61,1.85,2.75,2.22,4.33,1.37a6.45,6.45,0,0,0,2-1.83,5.08,5.08,0,0,0,1.24-2.61,3.3,3.3,0,0,0-2.84-3.5,5,5,0,0,0-1.58.26,8.35,8.35,0,0,0-1.37.51c-.53.26-1.42.72-1.52,1.39a.66.66,0,0,0,.44.77.63.63,0,0,0,.77-.44c0-.13,0,0,0,0l.05-.08c-.06,0-.05,0,0,0l.13-.12a3.78,3.78,0,0,1,.61-.38,7.42,7.42,0,0,1,1.93-.64,1.56,1.56,0,0,1,1.5.45,2.15,2.15,0,0,1,.66,1.43,3.25,3.25,0,0,1-.8,1.94,6.67,6.67,0,0,1-1.44,1.51c-.92.64-2.51.85-2.9-.49a5.61,5.61,0,0,1-.13-2.16c.07-.51.31-1,.41-1.49a.63.63,0,0,0-1.21-.33Z"/><path class="cls-1" d="M44.35,54.67c.88,1.2,3.23,1.53,4.69,1.27a6,6,0,0,0,2.79-1.1,2.59,2.59,0,0,0,1-2.69c-.48-1.46-2.37-1.82-3.91-1.81a7.33,7.33,0,0,0-3.15.54,3,3,0,0,0-1.83,2.45c0,1.08,1.43,2.63,2.5,2.5"/><path class="cls-1" d="M43.81,55c1.12,1.47,3.3,1.83,5,1.61,2.06-.26,4.64-1.36,4.66-3.8,0-2.17-2.26-3-4-3.06-2.1-.12-4.78.22-5.84,2.31A2.72,2.72,0,0,0,43.84,55a3.14,3.14,0,0,0,2.55,1.49c.79-.06.8-1.31,0-1.25A1.83,1.83,0,0,1,45,54.38a1.48,1.48,0,0,1-.32-1.62C45.34,51.12,47.46,51,49,51c1.07,0,2.92.18,3.22,1.48a2,2,0,0,1-.82,2,5.3,5.3,0,0,1-2.37.92,6,6,0,0,1-2.2,0,3.19,3.19,0,0,1-1.93-.94.65.65,0,0,0-.86-.22.63.63,0,0,0-.22.85Z"/><path class="cls-1" d="M35.06,79.15c.33-.21.65-.42,1-.64a44,44,0,0,0,8-6.61c3.47-3.76,6-8.28,8.45-12.75l.27-.49c-4.17,0-10.06,1.44-13.21,4.18C35.33,66.48,34,73.71,35.06,79.15Z"/><path class="cls-1" d="M35.38,79.69a44.31,44.31,0,0,0,10.48-9A77.65,77.65,0,0,0,53.25,59a.63.63,0,0,0-.54-.94c-5.22.08-11.63,1.55-15,5.83S33.5,74.14,34.46,79.31c.15.79,1.35.46,1.21-.33-.89-4.79-.12-10.58,3.06-14.44s9.19-5.18,14-5.25l-.54-.94A76.69,76.69,0,0,1,45,69.8a43.55,43.55,0,0,1-10.23,8.81C34.08,79,34.7,80.13,35.38,79.69Z"/><path class="cls-1" d="M57.73,27.81A189.06,189.06,0,0,0,55.43.61c-4.8,7.23-6.55,15.88-8.13,24.49a4.37,4.37,0,0,0,2.91,2.71c1,.4,2.33,1.85,5.36.85A7.66,7.66,0,0,0,57.73,27.81Z"/><path class="cls-1" d="M58.36,27.81A194.51,194.51,0,0,0,56,.44c-.09-.57-.88-.55-1.14-.15-4.3,6.57-6.21,14.23-7.67,21.84-.31,1.63-.92,3.08.18,4.49a8.48,8.48,0,0,0,3,2,6.69,6.69,0,0,0,2.93,1,8.8,8.8,0,0,0,4.69-1.27c.68-.43.05-1.51-.63-1.08a7.12,7.12,0,0,1-4.62,1,9.92,9.92,0,0,1-2.2-1C49,26.55,47.78,25.91,48.14,24c.3-1.58.6-3.15.93-4.72C50.44,12.82,52.34,6.47,56,.92L54.82.77a191.31,191.31,0,0,1,2.29,27A.63.63,0,0,0,58.36,27.81Z"/><path class="cls-1" d="M19.66,65.31a19.82,19.82,0,0,1-3.78,1A15.93,15.93,0,0,1,3.28,62.6a12.88,12.88,0,0,1-1.92-2.11,26.75,26.75,0,0,0-.73,6.27,6.1,6.1,0,0,0,1.69,4.73,9.14,9.14,0,0,0,4,1.77c2.6.69,5.45,1.35,7.88.21C16.91,72.17,19.18,68.32,19.66,65.31Z"/><path class="cls-1" d="M19.5,64.71a16.36,16.36,0,0,1-9.71.61A14.34,14.34,0,0,1,1.9,60.17a.64.64,0,0,0-1.15.15A23.1,23.1,0,0,0,0,66.9a6.33,6.33,0,0,0,3.07,5.87,14.09,14.09,0,0,0,3.36,1.17,21.1,21.1,0,0,0,4,.75,7.8,7.8,0,0,0,6.3-2.37,13.49,13.49,0,0,0,3.52-6.84c.14-.79-1.07-1.12-1.21-.33a12.2,12.2,0,0,1-3.48,6.57c-2.31,2.19-5.32,1.89-8.19,1.18a15.05,15.05,0,0,1-3.82-1.27,4.83,4.83,0,0,1-2.28-3.72,19.19,19.19,0,0,1,.08-3.47A15.75,15.75,0,0,1,2,60.65L.82,60.8a15.64,15.64,0,0,0,8.34,5.65,17.61,17.61,0,0,0,10.67-.53C20.59,65.66,20.26,64.45,19.5,64.71Z"/></g></g></g></svg>