<svg xmlns="http://www.w3.org/2000/svg" width="504px" heigth="658px" viewBox="0 0 251.84 328.61"><defs><style>.cls-1{fill:#1d1d1b;}</style></defs><g id="Layer_2" data-name="Layer 2"><g id="Слой_2" data-name="Слой 2"><path class="cls-1" d="M53.48,17.37A83.59,83.59,0,0,0,26.33,48c-.37.71.71,1.34,1.08.63a82.29,82.29,0,0,1,26.7-30.16c.66-.45,0-1.54-.63-1.08Z"/><path class="cls-1" d="M26.54,47.48A90.62,90.62,0,0,0,17.62,90a91.56,91.56,0,0,0,1.3,12.24c.14.79,1.35.45,1.21-.34a89.12,89.12,0,0,1,7.49-53.76c.35-.73-.73-1.36-1.08-.64Z"/><path class="cls-1" d="M18.71,101c.59,7.74,3.39,15,6.55,22,.33.74,1.41.1,1.08-.63-3.07-6.8-5.81-13.86-6.38-21.37-.06-.79-1.31-.8-1.25,0Z"/><path class="cls-1" d="M25,123c3.77,5.62,6.67,11.81,9.78,17.81l9.81,18.93c.37.72,1.45.08,1.08-.63l-9.81-18.93c-3.11-6-6-12.19-9.78-17.81-.44-.67-1.53,0-1.08.63Z"/><path class="cls-1" d="M44.84,160.42A97.57,97.57,0,0,0,47.18,170c.23.77,1.44.44,1.2-.33a94.74,94.74,0,0,1-2.33-9.54c-.15-.79-1.36-.46-1.21.33Z"/><path class="cls-1" d="M47.91,170.8l18.58.92c6.13.31,12.31.5,18.33,1.8.79.16,1.12-1,.33-1.21-6-1.28-12.09-1.51-18.17-1.81l-19.07-.95c-.81,0-.8,1.21,0,1.25Z"/><path class="cls-1" d="M84.88,173.68c2.77.47,5.43,1.39,8.16,2a32.32,32.32,0,0,0,7.52.93,32.82,32.82,0,0,0,14.53-3.37c.72-.36.08-1.44-.64-1.08a31.4,31.4,0,0,1-14.32,3.19c-5.19-.09-9.87-2.07-14.92-2.92-.79-.13-1.13,1.07-.33,1.2Z"/><path class="cls-1" d="M114.46,173.57q12-4.71,23.83-10c.73-.32.1-1.4-.63-1.07q-11.66,5.18-23.54,9.83c-.74.29-.41,1.5.34,1.2Z"/><path class="cls-1" d="M137.78,163.34a93.76,93.76,0,0,0,18.66-10.48c1.4-1,2.78-2.08,4.12-3.18,1.12-.91,2.82-1.92,3.37-3.31a26.2,26.2,0,0,0,.92-5.32l1-6.36c.12-.78-1.08-1.12-1.21-.33l-.88,5.63c-.29,1.82-.45,3.73-.88,5.52-.34,1.46-2.42,2.66-3.54,3.57q-2.07,1.66-4.25,3.21a92.38,92.38,0,0,1-17.64,9.85c-.73.3-.41,1.51.33,1.2Z"/><path class="cls-1" d="M103.33,138l1.16-.95a.62.62,0,0,0-.6-1,3.69,3.69,0,0,0-2.24,2.21.64.64,0,0,0,.29.71,3.42,3.42,0,0,0,2.76.48c.41-.17.62-.62.88-1,.46-.57.93-1.14,1.42-1.69a38.77,38.77,0,0,1,12-9.05c2.14-1,5.6-3,8-1.86,1.52.71,3.64,3.2,5.32,1.19,1.19-1.42.05-3.29-1.33-4-4.59-2.45-10.22-.75-14.25,1.93-2.58,1.71-5,3.71-7.41,5.62-2.23,1.76-4.72,3.44-6.12,6-.39.7.69,1.33,1.08.63a15.82,15.82,0,0,1,4.4-4.53c2-1.59,4-3.19,6.07-4.75,3.77-2.89,8-5.43,12.93-4.6a7.63,7.63,0,0,1,3,1c.59.4,1.66,2,0,2.23-.69.09-1.43-.58-1.92-1a5.48,5.48,0,0,0-4.9-1.06c-3.84.84-7.66,3-10.84,5.29a40.61,40.61,0,0,0-5,4.2c-.81.8-1.59,1.63-2.33,2.5-1,1.12-1.36,2.33-3,1.36l.29.7a2.28,2.28,0,0,1,1.36-1.34l-.61-1-1.17.95c-.62.5.27,1.38.89.88Z"/><path class="cls-1" d="M103.67,137.2a9.3,9.3,0,0,1,2.75-2.36l-.76-1a10.7,10.7,0,0,1-2.41,2.14l.86.86a14.62,14.62,0,0,1,4.06-3.74l-.76-1L103,136.5a.62.62,0,0,0,.75,1,24,24,0,0,0,3.87-2.92l-.89-.88L104,136.75a.63.63,0,0,0,.76,1,7.36,7.36,0,0,0,2.85-2.66c.34-.56-.33-1.13-.86-.86a10.43,10.43,0,0,0-3.33,2.68.62.62,0,0,0,.61,1,5.08,5.08,0,0,0,2.44-2,.62.62,0,0,0-.85-.85,14.5,14.5,0,0,0-2.66,2.09.63.63,0,0,0,.28,1,2.07,2.07,0,0,0,2.21-.91c.33-.51-.34-1.22-.86-.86a4.84,4.84,0,0,0-1.07,1,.62.62,0,0,0,.16.8.64.64,0,0,0,.82,0,5.85,5.85,0,0,0,1.21-1.46.63.63,0,0,0-1.08-.63,4.85,4.85,0,0,1-1,1.2l1,.76a2.71,2.71,0,0,1,.62-.6l-.85-.85a.8.8,0,0,1-.36.29.76.76,0,0,1-.44.05l.27,1a13.75,13.75,0,0,1,2.41-1.89l-.85-.86a3.74,3.74,0,0,1-1.7,1.47l.6,1a9.61,9.61,0,0,1,3.08-2.48l-.85-.85a6.18,6.18,0,0,1-2.4,2.22l.76,1,2.78-3.08a.63.63,0,0,0-.89-.88,21.75,21.75,0,0,1-3.61,2.72l.76,1L108.3,133a.63.63,0,0,0-.76-1,16.19,16.19,0,0,0-4.51,4.18c-.38.51.35,1.18.85.86a11.65,11.65,0,0,0,2.66-2.34.63.63,0,0,0,0-.82.61.61,0,0,0-.8-.16,10,10,0,0,0-3,2.56.64.64,0,0,0,0,.88.62.62,0,0,0,.88,0Z"/><path class="cls-1" d="M103.58,137.75c.13-.22.28-.43.43-.64s-.06.08,0,0l.06-.07.13-.15.25-.29c.17-.18.35-.35.54-.52l.29-.25s.06,0,.08-.06-.1.08,0,0l.17-.13a.62.62,0,0,0,.28-.37.58.58,0,0,0-.06-.48.64.64,0,0,0-.85-.23,8.72,8.72,0,0,0-2.36,2.52.63.63,0,0,0,.22.85.65.65,0,0,0,.86-.22Z"/><path class="cls-1" d="M103.78,137.08a28.41,28.41,0,0,1,4.3-4.67.63.63,0,0,0,0-.88.62.62,0,0,0-.88,0,29.16,29.16,0,0,0-4.5,4.92.63.63,0,0,0,.22.86.64.64,0,0,0,.86-.23Z"/><path class="cls-1" d="M103.7,136.88a30.23,30.23,0,0,1,6.34-6,.63.63,0,0,0-.64-1.08,31.41,31.41,0,0,0-6.59,6.23.66.66,0,0,0,0,.88.63.63,0,0,0,.89,0Z"/><path class="cls-1" d="M105.54,134.48a41.39,41.39,0,0,1,6.91-6c.66-.45,0-1.53-.63-1.08a43,43,0,0,0-7.16,6.16c-.55.59.34,1.48.88.89Z"/><path class="cls-1" d="M106.53,133.76a48.17,48.17,0,0,1,8.44-6.83c.68-.43,0-1.51-.63-1.08a50.67,50.67,0,0,0-8.7,7c-.56.57.32,1.46.89.89Z"/><path class="cls-1" d="M109.81,130.74a27.68,27.68,0,0,1,8.55-5.53.65.65,0,0,0,.44-.77A.63.63,0,0,0,118,124a29,29,0,0,0-9.1,5.85c-.59.55.3,1.43.88.88Z"/><path class="cls-1" d="M112.92,128.45a53.06,53.06,0,0,1,8.84-4.77.65.65,0,0,0,.44-.77.64.64,0,0,0-.77-.44,54.3,54.3,0,0,0-9.14,4.91c-.67.44,0,1.52.63,1.07Z"/><path class="cls-1" d="M102.74,137.59a4.84,4.84,0,0,1,1.84-1.52l-.75-1-2,1.87,1,.6a2.21,2.21,0,0,1,.94-1l-.76-1a6.3,6.3,0,0,0-1.35,1.88c-.34.72.72,1.35,1.08.63l.48-1a.63.63,0,0,0-1-.76l-.66.61,1,.76a8.53,8.53,0,0,1,3.26-3.72l-.75-1-3.17,3.41.88.89a33.3,33.3,0,0,1,5-5.1l-1-.76a12.26,12.26,0,0,1-2.85,2.72l.85.86a10.88,10.88,0,0,1,3.08-3.15l-.76-1a46.53,46.53,0,0,1-4,3.84l.88.89a36.49,36.49,0,0,1,7.65-6.19.63.63,0,0,0-.64-1.08,37.86,37.86,0,0,0-7.89,6.38.63.63,0,0,0,.88.89,48.23,48.23,0,0,0,4-3.85c.47-.5-.14-1.39-.75-1a12.24,12.24,0,0,0-3.53,3.6c-.33.51.34,1.21.86.85a14,14,0,0,0,3.3-3.17.61.61,0,0,0-.17-.8.62.62,0,0,0-.82,0,34.16,34.16,0,0,0-5,5.1c-.49.61.32,1.49.88.89l3.17-3.42c.47-.5-.13-1.37-.76-1a9.7,9.7,0,0,0-3.71,4.16.63.63,0,0,0,1,.76l.66-.61-1-.75-.48,1,1.08.63a5.48,5.48,0,0,1,1.15-1.63.63.63,0,0,0-.76-1,3.56,3.56,0,0,0-1.5,1.77c-.26.62.63,1,1,.61l2-1.87c.55-.5-.15-1.27-.76-1a6.11,6.11,0,0,0-2.29,2c-.47.66.62,1.28,1.08.64Z"/><path class="cls-1" d="M105.93,134.15a16.11,16.11,0,0,1,6.48-5.19.62.62,0,0,0,.22-.85.64.64,0,0,0-.85-.23,17.29,17.29,0,0,0-6.93,5.63.63.63,0,0,0,.22.86.65.65,0,0,0,.86-.22Z"/><path class="cls-1" d="M108.38,131.64A10.45,10.45,0,0,0,106,134c-.42.57.52,1.3,1,.76a29.12,29.12,0,0,1,4.81-4.47l-.76-1-4.58,4.92c-.55.58.33,1.47.88.88a47.15,47.15,0,0,1,8.73-7.28l-.63-1.08L112.35,129c-.64.47,0,1.56.64,1.08l3.06-2.26c.64-.47.06-1.53-.63-1.08a48.36,48.36,0,0,0-9,7.48l.88.88,4.59-4.92c.46-.49-.16-1.42-.76-1a29.88,29.88,0,0,0-5.06,4.67l1,.75a8.74,8.74,0,0,1,1.94-1.9c.65-.46,0-1.54-.63-1.08Z"/><path class="cls-1" d="M109.37,132.69A119.55,119.55,0,0,1,120,125.28c.68-.42.06-1.5-.63-1.08q-3.08,1.89-6,4c-.64.46-.07,1.52.63,1.08a42.34,42.34,0,0,1,9.44-5l-.33-1.2c-2,.75-4,1.58-5.95,2.48l.63,1.08a44.84,44.84,0,0,1,7.57-3l-.33-1.2-1.84.75c-.74.29-.42,1.5.33,1.2l1.84-.75c.73-.29.46-1.44-.33-1.2a46.37,46.37,0,0,0-7.87,3.12c-.73.37-.09,1.41.63,1.08q2.79-1.27,5.65-2.36c.74-.28.45-1.46-.33-1.2a43.42,43.42,0,0,0-9.74,5.08l.63,1.08q2.9-2.15,6-4l-.63-1.08a123.36,123.36,0,0,0-10.84,7.61c-.63.49.26,1.37.88.88Z"/><path class="cls-1" d="M121.64,123.76a1.1,1.1,0,0,0-.86.65.64.64,0,0,0,.86.86,12.38,12.38,0,0,1,4-1.15l-.17-1.23L119.64,125l.48,1.14a18.14,18.14,0,0,1,8-2.34c.8,0,.81-1.29,0-1.25l-2.13.1a.63.63,0,0,0,0,1.25,9.59,9.59,0,0,1,4,1.14l.31-1.16a17.8,17.8,0,0,1-4.35-.64l-.33,1.2,4.36,1.07.33-1.21L128,124a.63.63,0,0,0-.61,1c.88,1,2.81,2.11,4.14,1.31a1.14,1.14,0,0,0,.3-1.75,3.23,3.23,0,0,0-2.44-.83.64.64,0,0,0-.61.79,1.79,1.79,0,0,0,2.17,1.25c.78-.19.45-1.4-.33-1.21a.51.51,0,0,1-.63-.37l-.6.79a4.14,4.14,0,0,1,1.26.24c.21.06.26,0,.07.07a1.41,1.41,0,0,1-.54,0,3.32,3.32,0,0,1-1.91-1.14l-.6,1,2.25.39c.78.13,1.13-1,.33-1.21l-4.36-1.06a.62.62,0,0,0-.33,1.2,19,19,0,0,0,4.68.69.63.63,0,0,0,.32-1.17,11.15,11.15,0,0,0-4.64-1.31v1.25l2.13-.1v-1.25a19.44,19.44,0,0,0-8.59,2.52c-.6.34-.2,1.39.48,1.14l5.88-2.15c.61-.22.59-1.31-.16-1.23a14.17,14.17,0,0,0-4.68,1.32l.85.85L122,125c.79-.12.45-1.33-.33-1.21Z"/><path class="cls-1" d="M66.84,143.15c1.37.16,2-1.44,1.45-2.53A4.92,4.92,0,0,0,66.43,139l-3.22-2.07a16.31,16.31,0,0,0-6-2.55,28.45,28.45,0,0,0-7-.59,12.06,12.06,0,0,0-5.51,1.89c-1.42.9-3.29,2.18-3.84,3.85a2.31,2.31,0,0,0,1.81,3.13,1.9,1.9,0,0,0,1.59-.85c.75-.88,1.37-1.9,2.05-2.84.47-.66-.62-1.28-1.08-.64L44,140a4,4,0,0,1-.66.92c-.62.38-1.37.31-1.42-.52-.09-1.26,1.83-2.57,2.72-3.21a11.61,11.61,0,0,1,7.69-2.16c2.77.17,5.83.46,8.31,1.79,1.15.63,2.25,1.38,3.35,2.09l1.82,1.16c.23.15.46.29.69.45s1.25,1.46.35,1.36-.79,1.15,0,1.25Z"/><path class="cls-1" d="M45.34,139.69a16.64,16.64,0,0,1,4.48-2.43.62.62,0,0,0-.33-1.2,17.32,17.32,0,0,0-4.78,2.55.63.63,0,0,0-.22.85.62.62,0,0,0,.85.23Z"/><path class="cls-1" d="M44.93,140.69c2.65-3.72,7-2.86,10.79-1.79s7.46,2.18,10.73,4.32c.67.44,1.3-.64.63-1.08-3.79-2.48-8.25-3.74-12.59-4.87-4-1-8.06-.82-10.64,2.79-.47.65.61,1.28,1.08.63Z"/><path class="cls-1" d="M43.69,139A3.22,3.22,0,0,0,45.44,138a.63.63,0,0,0-.76-1,5.79,5.79,0,0,0-2.87,2.78c-.22.45.15,1.12.71.92a4.45,4.45,0,0,0,2.88-2.91.63.63,0,0,0-.77-.77,4.1,4.1,0,0,0-2.92,2.6.61.61,0,0,0,.29.7,2.24,2.24,0,0,0,3.26-1.54.64.64,0,0,0-.77-.77c-1.05.3-2.79,2-1.4,3s2.28-.94,2.29-2a.64.64,0,0,0-.63-.63A1.76,1.76,0,0,0,43,139.41c-.3.72.68,1.35,1.08.63a7.27,7.27,0,0,1,1.45-1.82l-1-.75L42.81,140a.63.63,0,0,0,.54.94,1,1,0,0,0,.56-1.86c-.92-.7-2.43.51-2.55,1.48-.16,1.3,1.37,1.47,2.18.84,1-.75,1-2.3-.42-2.43l.44,1.07A8.14,8.14,0,0,1,48.48,137l-.33-1.2L45,136.92l.61,1.05a10.41,10.41,0,0,1,5.91-2.2L51,134.71a4.22,4.22,0,0,1-3.23,1.21v1.25a34.25,34.25,0,0,1,4.53-.08c.69,0,.87-1.11.17-1.23a11.17,11.17,0,0,0-3.11-.12c-.78.08-.81,1.31,0,1.25A35.58,35.58,0,0,1,55,137c.74.06.8-1,.17-1.23a12.62,12.62,0,0,0-4.6-.67.63.63,0,0,0,0,1.25,27.66,27.66,0,0,1,6.45,1c.66.18,1.13-.83.48-1.15A11.9,11.9,0,0,0,52,135v1.25a12,12,0,0,1,6.93,1.46l.63-1.08a13.33,13.33,0,0,0-6.63-1.34c-.66,0-.91,1.11-.17,1.23a49.57,49.57,0,0,1,7,1.61l.34-1.21-6-1.07c-.78-.14-1.13,1-.34,1.21l6.24,1.7a.63.63,0,0,0,.33-1.21,18.76,18.76,0,0,0-6.39-1.07c-.67,0-.88,1.12-.16,1.22A54.46,54.46,0,0,1,62,139.49a.63.63,0,0,0,.61-1A10.86,10.86,0,0,0,57,135.64l-.17,1.23a12.69,12.69,0,0,1,6,1.64l.63-1.08-5-2.59c-.59-.31-1.34.52-.76,1A64.68,64.68,0,0,0,65.4,141,.63.63,0,0,0,66,139.9a15.25,15.25,0,0,0-4.32-1.77c-.66-.16-1.14.82-.48,1.14l4.67,2.31a.63.63,0,0,0,.63-1.08l-1.59-1c-.7-.42-1.3.64-.63,1.08l2.39,1.56c.58.39,1.31-.53.76-1l-1.39-1.11c-.62-.5-1.51.37-.88.88l1.38,1.12.76-1-2.39-1.56-.63,1.08,1.59,1,.63-1.08-4.67-2.31-.48,1.15a14,14,0,0,1,4,1.64L66,139.9a61.41,61.41,0,0,1-7.41-5l-.76,1,5,2.59a.63.63,0,0,0,.63-1.08,14,14,0,0,0-6.62-1.81c-.69,0-.87,1.1-.17,1.23a9.63,9.63,0,0,1,5,2.48l.61-1a52.11,52.11,0,0,0-8.19-1.83l-.17,1.23a17.63,17.63,0,0,1,6.06,1l.33-1.21-6.23-1.7L53.75,137l6,1.07a.63.63,0,0,0,.34-1.21,51.46,51.46,0,0,0-7-1.61l-.16,1.23a11.94,11.94,0,0,1,6,1.17c.72.35,1.35-.68.63-1.08A13.13,13.13,0,0,0,52,135c-.79.06-.82,1.26,0,1.25a10.55,10.55,0,0,1,4.84,1.06l.48-1.14a28.81,28.81,0,0,0-6.78-1v1.25a11.84,11.84,0,0,1,4.26.62l.17-1.22a35.58,35.58,0,0,0-5.56,0V137a9.6,9.6,0,0,1,2.78.08l.16-1.23a34.25,34.25,0,0,0-4.53.08c-.79.07-.81,1.31,0,1.25,1.52-.11,3.1-.32,4.12-1.58.31-.39.15-1.1-.45-1.07a11.81,11.81,0,0,0-6.79,2.57c-.5.38,0,1.24.6,1L48.48,137a.62.62,0,0,0-.33-1.2,9.16,9.16,0,0,0-5.47,3.38.64.64,0,0,0,.44,1.07c-.6.54-.52.36.23-.53l.54.94,1.78-2.56c.42-.61-.48-1.22-1-.76A8.05,8.05,0,0,0,43,139.41l1.08.63.63-.47-.62-.62c0,.77-.06.46.69.24l-.77-.76a1,1,0,0,1-1.42.79l.28.71A2.82,2.82,0,0,1,45,138.21l-.76-.77a3.18,3.18,0,0,1-2,2l.71.91a4.78,4.78,0,0,1,2.42-2.33l-.76-1a2.12,2.12,0,0,1-1.2.75c-.77.19-.44,1.4.34,1.2Z"/><path class="cls-1" d="M90.32,172.66a1.62,1.62,0,0,1,.78-1.89,3.55,3.55,0,0,1,2.86-.15,11.66,11.66,0,0,1,5.22,2.57c.57.57,1.46-.31.89-.88A9.42,9.42,0,0,0,97,170.36a14.92,14.92,0,0,0-3.73-1.15,3.92,3.92,0,0,0-3.34.92,2.72,2.72,0,0,0-.79,2.86c.28.75,1.49.42,1.2-.33Z"/><path class="cls-1" d="M86.72,2.58c18.14,1.52,36.63-4.18,54.53.61A.63.63,0,0,0,141.58,2c-18-4.82-36.59.88-54.86-.65-.8-.07-.8,1.18,0,1.25Z"/><path class="cls-1" d="M141.75,3.3a60.87,60.87,0,0,1,19.59,10,86.84,86.84,0,0,1,8.39,7.18,45,45,0,0,1,3.75,3.94c1.29,1.59,2.43,3.29,3.86,4.77.56.58,1.44-.3.88-.88-1.42-1.48-2.56-3.18-3.86-4.77a44.91,44.91,0,0,0-4.05-4.23A86.63,86.63,0,0,0,162,12.18,61.79,61.79,0,0,0,142.08,2.09a.63.63,0,0,0-.33,1.21Z"/><path class="cls-1" d="M176.37,28.07c5.25,7.72,8.32,16.64,10.43,25.67.19.78,1.39.45,1.21-.34-2.14-9.12-5.26-18.16-10.56-26-.45-.67-1.53,0-1.08.63Z"/><path class="cls-1" d="M186.76,52.86a155.67,155.67,0,0,1,.72,30.75c-.78,10.24-2.74,20.4-2.43,30.7a.63.63,0,0,0,1.25,0C186,104,188,93.85,188.73,83.61A155.67,155.67,0,0,0,188,52.86c-.09-.79-1.34-.8-1.25,0Z"/><path class="cls-1" d="M185.86,106.82c7.2,13.07,22.91,18.45,36.95,19.83a36.5,36.5,0,0,0,13.29-.92.62.62,0,0,0-.33-1.2,37.15,37.15,0,0,1-14.59.69A70.64,70.64,0,0,1,207.33,122c-8.32-2.87-16.06-8-20.39-15.84-.39-.7-1.47-.07-1.08.63Z"/><path class="cls-1" d="M235.4,124.9a98.94,98.94,0,0,1-11.55,7.19c-4,2.2-8.22,4.11-12.86,3.94-.81,0-.81,1.22,0,1.25,4.55.17,8.78-1.57,12.72-3.69A98.56,98.56,0,0,0,236,126c.64-.48,0-1.57-.63-1.08Z"/><path class="cls-1" d="M210,137.46c7.29,3.59,16,6.65,19.07,15,.28.75,1.49.43,1.21-.33-3.19-8.74-12-12-19.65-15.73-.72-.36-1.36.72-.63,1.08Z"/><path class="cls-1" d="M219.51,153.12c3.35-.13,6.7-.19,10.06-.15a.63.63,0,0,0,0-1.25c-3.36,0-6.71,0-10.06.15-.8,0-.81,1.29,0,1.25Z"/><path class="cls-1" d="M222.24,153.19c11,6.05,15.67,21,28.8,23.75.78.16,1.12-1,.33-1.21-12.89-2.73-17.58-17.64-28.5-23.62-.7-.39-1.33.69-.63,1.08Z"/><path class="cls-1" d="M251.07,175.69c-6.85,2.25-13.83,4.17-21.07,4.51-.8,0-.8,1.29,0,1.25,7.35-.35,14.44-2.27,21.4-4.55.77-.25.44-1.46-.33-1.21Z"/><path class="cls-1" d="M229.78,181.74c3.12,4.71,4.19,10.46,6.74,15.47,1.31,2.56,2.78,5.06,4.3,7.51,1.18,1.91,2.56,3.68,4.73,4.49.76.28,1.09-.93.34-1.21-2.37-.88-3.63-3.29-4.85-5.34-1.44-2.4-2.85-4.81-4.06-7.33-2.22-4.66-3.24-9.88-6.12-14.22-.44-.67-1.53-.05-1.08.63Z"/><path class="cls-1" d="M234.8,208.65a30.16,30.16,0,0,0,10.07.45.65.65,0,0,0,.63-.62.63.63,0,0,0-.63-.63,29,29,0,0,1-9.74-.41c-.78-.17-1.11,1-.33,1.21Z"/><path class="cls-1" d="M234.38,208.78a213.78,213.78,0,0,1,1,48.17c-.07.8,1.18.79,1.25,0a214.47,214.47,0,0,0-1-48.51c-.1-.79-1.31-.45-1.2.34Z"/><path class="cls-1" d="M235.51,256.8a38.67,38.67,0,0,0-.45,6.72c0,.8,1.29.8,1.25,0a38.67,38.67,0,0,1,.45-6.72.63.63,0,1,0-1.25,0Z"/><path class="cls-1" d="M235,262.59a44.06,44.06,0,0,0-1.09,9.85.63.63,0,0,0,1.25,0,42.92,42.92,0,0,1,1-9.52c.18-.79-1-1.12-1.2-.33Z"/><path class="cls-1" d="M225.19,289a87,87,0,0,1-38.34,31.19c-.73.31-.41,1.52.33,1.21a88.38,88.38,0,0,0,32.22-22.93,87.5,87.5,0,0,0,6.87-8.84c.46-.66-.63-1.29-1.08-.63Z"/><path class="cls-1" d="M186.44,320.4c-9.8,4.91-20.86,5.94-31.62,6.89-.79.07-.8,1.32,0,1.25,11-1,22.24-2.05,32.25-7.06.72-.36.09-1.44-.63-1.08Z"/><path class="cls-1" d="M88.59,298.33a105.85,105.85,0,0,0,11.76,12.1,78.77,78.77,0,0,0,11.38,8,76.34,76.34,0,0,0,26.44,9.23,87.5,87.5,0,0,0,16.65.91c.8,0,.81-1.28,0-1.25a82.09,82.09,0,0,1-28.24-3.67,75.53,75.53,0,0,1-24.27-13.19,103,103,0,0,1-12.84-13c-.53-.6-1.41.28-.88.89Z"/><path class="cls-1" d="M74,275.46a61.83,61.83,0,0,1,8.08,12.29c.36.72,1.43.09,1.08-.63a63.44,63.44,0,0,0-8.27-12.54c-.52-.61-1.4.27-.89.88Z"/><path class="cls-1" d="M81.38,287.13a87.81,87.81,0,0,1,5.06,7.64.62.62,0,0,0,1.07-.63,82.69,82.69,0,0,0-5.05-7.64.63.63,0,0,0-.85-.22.62.62,0,0,0-.23.85Z"/><path class="cls-1" d="M88.61,297.91a.63.63,0,0,0,0-1.25.63.63,0,0,0,0,1.25Z"/><path class="cls-1" d="M85.52,294a14.9,14.9,0,0,0,2.82,3.36.63.63,0,0,0,.89-.89A13.78,13.78,0,0,1,87.76,295l-.32-.39s0-.06,0,0a1,1,0,0,0-.08-.11l-.15-.21c-.21-.29-.41-.59-.6-.89a.64.64,0,0,0-.86-.23.65.65,0,0,0-.22.86Z"/><path class="cls-1" d="M73.8,274.69a11.13,11.13,0,0,1,4.45.86.63.63,0,0,0,.77-.44.64.64,0,0,0-.44-.77,12.23,12.23,0,0,0-4.78-.9.64.64,0,0,0-.62.63.62.62,0,0,0,.62.62Z"/><path class="cls-1" d="M65.23,247.24Q72,260.77,77.67,274.8c.3.73,1.51.41,1.21-.33q-5.75-14.18-12.57-27.86c-.36-.72-1.44-.09-1.08.63Z"/><path class="cls-1" d="M54.45,170.58a21.93,21.93,0,0,0-.57,9.67,37.77,37.77,0,0,0,2,9.6,18,18,0,0,0,5.45,6.66,51,51,0,0,0,7.9,5.44c.7.39,1.33-.69.63-1.08a49.42,49.42,0,0,1-7.48-5.11c-2.15-1.78-4.26-3.76-5.35-6.39a36.34,36.34,0,0,1-1.93-9.12,21.19,21.19,0,0,1,.52-9.34c.25-.76-1-1.09-1.2-.33Z"/><path class="cls-1" d="M168.75,197.74a136,136,0,0,0-16.18,8.69c-.68.42,0,1.51.63,1.08a135.36,135.36,0,0,1,16.19-8.69c.73-.33.09-1.41-.64-1.08Z"/><path class="cls-1" d="M154.13,198.26a23.32,23.32,0,0,0-2,9.67.63.63,0,0,0,1.25,0,21.93,21.93,0,0,1,1.84-9c.32-.73-.75-1.37-1.08-.63Z"/><path class="cls-1" d="M69.19,201.64c1.81,1.78,4.21,2.5,6.59,3.21,3.13.94,6.28,1.86,9.42,2.78,6,1.73,11.91,3.59,18.06,4.46a61.41,61.41,0,0,0,18.55-.59,154.32,154.32,0,0,0,16.61-3.42c5.64-1.57,11.09-3.92,15.45-7.91.6-.55-.29-1.43-.88-.89-7.76,7.1-18.91,8.78-28.89,10.57-6,1.08-12.18,1.87-18.32,1.29-5.94-.55-11.71-2.25-17.42-3.9q-5-1.43-9.9-2.9c-2.84-.84-6.19-1.43-8.39-3.58a.62.62,0,0,0-.88.88Z"/><path class="cls-1" d="M135.47,208.89a39.91,39.91,0,0,0,36.08,11.16l-.61-1.05a61.11,61.11,0,0,1-12,9.47c-.68.41-.06,1.5.63,1.08a63.4,63.4,0,0,0,12.22-9.66.64.64,0,0,0-.61-1A38.65,38.65,0,0,1,136.35,208c-.56-.58-1.44.3-.88.88Z"/><path class="cls-1" d="M157.77,229.25a47.92,47.92,0,0,0,7.8,8.18c2.57,2.24,5.51,4.21,9,4.7l.17-1.22-6.16.25c-1.73.07-3.77.41-5.34-.5a.63.63,0,0,0-.63,1.08c1.63.94,3.52.77,5.33.69l6.8-.27c.67,0,.9-1.13.17-1.23-3.34-.48-6.14-2.37-8.62-4.57a46.79,46.79,0,0,1-7.41-7.74c-.46-.66-1.54,0-1.07.63Z"/><path class="cls-1" d="M162.13,241.65c2,2.52,2.87,5.75,3.79,8.78,1,3.4,1.88,6.87,1.47,10.45-.09.8,1.16.79,1.25,0,.44-3.8-.52-7.53-1.63-11.14-1-3.15-1.91-6.36-4-9-.5-.63-1.38.26-.89.88Z"/><path class="cls-1" d="M24.29,154.15c-7.15.81-12.1,6.43-15.36,12.4-2.8,5.11-7.75,13.78-2,18.68.61.52,1.5-.36.89-.88-2.49-2.12-2.63-5.54-1.77-8.48a44.8,44.8,0,0,1,4.16-9.07c3-5.39,7.57-10.66,14.07-11.4.79-.09.8-1.34,0-1.25Z"/><path class="cls-1" d="M24.27,155c12.54,6,17.5,20.63,29.06,27.91.69.43,1.31-.65.63-1.08-11.56-7.29-16.48-21.91-29-27.91-.73-.35-1.36.73-.64,1.08Z"/><path class="cls-1" d="M7.44,185.82c4.71,3.26,9,7.2,13.42,10.86A153.15,153.15,0,0,1,33.1,207.34c3.87,4,7.46,8.23,11.15,12.36s7.5,8.28,11.16,12.5a53.82,53.82,0,0,1,9.47,15.26c.3.74,1.51.42,1.21-.33a53.6,53.6,0,0,0-7.74-13.35c-3.51-4.43-7.46-8.53-11.23-12.74s-7.67-8.68-11.58-12.95a123.89,123.89,0,0,0-12.48-11.2c-4.92-4.09-9.72-8.5-15-12.15-.66-.45-1.29.63-.63,1.08Z"/><path class="cls-1" d="M7.61,170a14.84,14.84,0,0,0,10.68,10.59c.78.19,1.11-1,.33-1.2a13.59,13.59,0,0,1-9.8-9.72.63.63,0,0,0-1.21.33Z"/><path class="cls-1" d="M14.35,160.46a37,37,0,0,1,7,4.65,21.9,21.9,0,0,1,2.7,3,9.82,9.82,0,0,0,2.51,2.55c.68.43,1.31-.65.63-1.08a10.1,10.1,0,0,1-2.46-2.63,21.2,21.2,0,0,0-2.83-3,40.55,40.55,0,0,0-6.9-4.55.63.63,0,0,0-.63,1.08Z"/><path class="cls-1" d="M1.79,230.41c2.9-2.33,6.59-3.14,10.17-3.72q6.08-1,12.2-1.72c8.27-.95,16.69-1.28,24.89.48.78.16,1.12-1,.33-1.21-8.63-1.84-17.48-1.46-26.18-.4-4.13.5-8.27,1.06-12.37,1.77-3.57.62-7.06,1.61-9.92,3.91-.63.51.26,1.39.88.89Z"/><path class="cls-1" d="M.16,229.88a47.54,47.54,0,0,0,2.11,18.5c1.54,4.75,4.39,10.24,10.1,10.36a.63.63,0,0,0,0-1.25c-5.78-.12-8.13-6.58-9.43-11.22a46.73,46.73,0,0,1-1.53-16.39c.07-.81-1.18-.8-1.25,0Z"/><path class="cls-1" d="M12.57,258.65c4.73-.45,9.46-1,14.2-1.31a29.79,29.79,0,0,1,6.87.2A26.4,26.4,0,0,1,40.4,260c8.38,3.94,17.13,7.52,25,12.47a71.41,71.41,0,0,1,11.89,9.46c.57.56,1.46-.32.88-.88a82,82,0,0,0-22.52-15.25c-4.55-2.18-9.14-4.31-13.7-6.45a39.89,39.89,0,0,0-6.19-2.59,23.37,23.37,0,0,0-6.45-.74c-5.57.05-11.18.89-16.72,1.41-.8.08-.8,1.33,0,1.25Z"/><path class="cls-1" d="M78.13,281.77l0,0-.13-.1a9.74,9.74,0,0,1,1.46,1.41.6.6,0,0,0,.44.18.65.65,0,0,0,.44-.18.68.68,0,0,0,.19-.44.71.71,0,0,0-.19-.44,10.53,10.53,0,0,0-1.6-1.53.64.64,0,0,0-.49-.06.63.63,0,0,0-.37.29.62.62,0,0,0-.06.48l.06.15a.61.61,0,0,0,.23.22Z"/><path class="cls-1" d="M77.47,281.54l1.17,1.21a.65.65,0,0,0,.44.18.63.63,0,0,0,.63-.62.7.7,0,0,0-.19-.45l-1.17-1.2a.61.61,0,0,0-.44-.19.6.6,0,0,0-.44.19.6.6,0,0,0,0,.88Z"/><path class="cls-1" d="M15.25,255.46l-.08-.12,0-.07c0-.05,0-.11,0,.06a1.28,1.28,0,0,1-.07-.28l0,.17a1.54,1.54,0,0,1,0-.37l0,.17a1.17,1.17,0,0,1,.05-.2l0-.1s0,0,0-.06-.07.16,0,.08a1.62,1.62,0,0,0,.1-.18l.06-.08c0-.06-.1.11-.05.07a.1.1,0,0,1,0-.05.86.86,0,0,1,.13-.14h0c-.09.07,0,0,0,0l.08-.06.1,0-.08,0,0,0,.22,0a.61.61,0,0,0,.43-.77.61.61,0,0,0-.28-.37.73.73,0,0,0-.48-.06A1.93,1.93,0,0,0,14,254.23a2,2,0,0,0,.15,1.86.69.69,0,0,0,.38.29.67.67,0,0,0,.48-.06.63.63,0,0,0,.28-.38.58.58,0,0,0-.06-.48Z"/><path class="cls-1" d="M15.88,252.51c-2-1.08-2.9-3.62-.92-5.22s5-.88,7.24-.26,4.51,1.43,6.06,3.18a5.18,5.18,0,0,1,1,5.8c-.39.71.69,1.34,1.08.63a6,6,0,0,0-.08-5.7,9.3,9.3,0,0,0-4.87-4.16c-3.54-1.49-10.46-3.51-12.52,1.22-1,2.19.42,4.54,2.39,5.59.71.38,1.34-.7.63-1.08Z"/><path class="cls-1" d="M6.71,246.06,6.6,246c.08.05,0,0,0,0s0,0,0,0,0,.1,0,0,0-.12,0,0v-.13s0-.1,0,0,0-.1,0-.12a2.84,2.84,0,0,1,.7-.82,1.72,1.72,0,0,1,.39-.27.23.23,0,0,1,.19,0c-.08,0,0,.05,0,0a4.24,4.24,0,0,1,.72,1.08,14.71,14.71,0,0,1,1.17,2.55l.08.28s0-.14,0-.14a1.3,1.3,0,0,0-.17.08l-.3.09a2.73,2.73,0,0,1-1,.06h0l-.18,0-.3-.08a2.39,2.39,0,0,1-.49-.2,2.66,2.66,0,0,1-.9-.77.63.63,0,1,0-.89.88,4.07,4.07,0,0,0,2.76,1.45c1,.12,2.92-.19,2.69-1.59a7.38,7.38,0,0,0-.67-1.8,14.83,14.83,0,0,0-.87-1.68,2.84,2.84,0,0,0-1.28-1.37,1.84,1.84,0,0,0-1.78.54,3.2,3.2,0,0,0-1.12,1.57,1.48,1.48,0,0,0,.72,1.7.64.64,0,0,0,.85-.22.63.63,0,0,0-.22-.86Z"/><path class="cls-1" d="M7.91,255.39a1.89,1.89,0,0,0,1.05.74.64.64,0,0,0,.77-.77,3.24,3.24,0,0,0-.47-1L9,254c0-.06-.07-.12-.1-.19h0c0-.05,0-.11,0-.16s0,0,0,0v-.11c0,.09,0,.06,0,0l0-.11c0-.11,0,0,0,0l.06-.09c.05-.1,0,0,0,0l.11-.12s.09-.07,0,0l.1-.06s.21-.1.1-.06l.22-.07c.12,0,0,0,0,0h.17s.12,0,0,0l.12,0a.88.88,0,0,1,.23.07c-.09,0,0,0,0,0l.11.06.1.07c.15.08-.06-.07.07,0a3,3,0,0,1,.35.36c-.07-.08.07.1.08.12a3.66,3.66,0,0,1,.35.75c.06.2.12.39.17.59s.09.37.13.55,0,.07,0,.11,0-.12,0,0v.11c0,.12,0-.06,0,0s-.05.09,0,0,.1-.11,0-.05l.1-.06h-.12c-.24,0-.48,0-.73-.08l-1.53-.17a.63.63,0,1,0,0,1.25l1.65.19c.55.06,1.14.16,1.56-.3a1.53,1.53,0,0,0,.23-1.42,8.56,8.56,0,0,0-.41-1.42,3.17,3.17,0,0,0-2.05-2,2,2,0,0,0-2.4,1.22,1.84,1.84,0,0,0,.2,1.53c.11.2.24.38.37.57s.11.19.17.29h0a1.72,1.72,0,0,1,.07.21l.77-.77s-.18-.06-.07,0l-.13-.07c-.08-.05.07.09,0,0s-.13-.14-.06-.05a.66.66,0,0,0-.86-.23.63.63,0,0,0-.22.86Z"/><path class="cls-1" d="M14.25,257.33a2.67,2.67,0,0,1,.51.31l-.12-.1a3.41,3.41,0,0,1,.47.46l.88-.88-1.14-1a.67.67,0,0,0-.45-.18.62.62,0,0,0-.44.18.6.6,0,0,0-.18.44A.63.63,0,0,0,14,257l1.15,1a.66.66,0,0,0,.44.19A.63.63,0,0,0,16,258a.59.59,0,0,0,.18-.44l0-.16a.61.61,0,0,0-.16-.28,2.4,2.4,0,0,0-.45-.45,3.07,3.07,0,0,0-.66-.42.49.49,0,0,0-.23-.08.52.52,0,0,0-.25,0,.69.69,0,0,0-.38.29A.67.67,0,0,0,14,257a.62.62,0,0,0,.29.38Z"/><path class="cls-1" d="M14.3,255.29a.86.86,0,0,0-.38.5.88.88,0,0,0,0,.21s0,0,0,0a1.49,1.49,0,0,0,0,.21.37.37,0,0,0,.05.11.22.22,0,0,0,0,.11h0l.1.13,0,0a.9.9,0,0,0,.34.2h0a.71.71,0,0,0,.21,0h0l.18,0H15a1.63,1.63,0,0,0,.19-.09h0l.13-.1h0l0,0h0l.11-.13a.77.77,0,0,0,.08-.19.43.43,0,0,0,0-.25.48.48,0,0,0-.07-.23.55.55,0,0,0-.16-.18.51.51,0,0,0-.22-.11l-.16,0a.72.72,0,0,0-.32.08l-.12.1a.61.61,0,0,0-.16.28h0l.07-.15,0,0,.1-.13,0,0,.13-.1-.05,0,.15-.06h-.07l.17,0h-.07l.17,0h0l.15.06,0,0,.13.1,0,0,.09.13a.08.08,0,0,1,0,0l.06.15a.64.64,0,0,1,0-.07l0,.17a.06.06,0,0,1,0-.06l0,.16s0,0,0-.06l-.06.15,0-.05-.1.13,0,0-.12.1,0,0a.44.44,0,0,0,.17-.16.45.45,0,0,0,.12-.21.53.53,0,0,0,0-.25.49.49,0,0,0-.08-.23l-.09-.13a.61.61,0,0,0-.28-.16l-.17,0a.68.68,0,0,0-.31.08Z"/><path class="cls-1" d="M82.65,157.63c5.28-.13,11.12.73,16.09-1.52.73-.33.1-1.41-.63-1.08a20.1,20.1,0,0,1-7.68,1.34c-2.59.07-5.19-.05-7.78,0a.63.63,0,0,0,0,1.25Z"/><path class="cls-1" d="M98.24,155.23l-7.69,7c-.59.54.29,1.42.89.88l7.68-7c.6-.55-.29-1.43-.88-.89Z"/><path class="cls-1" d="M82.09,157.9q4,2.74,8.3,5.1c.71.39,1.34-.68.63-1.07q-4.26-2.37-8.3-5.11c-.67-.45-1.29.63-.63,1.08Z"/></g></g></svg>
