<svg width="72px" height="70px" xmlns="http://www.w3.org/2000/svg" viewBox="0 0 35.98 34.65"><defs><style>.cls-1{fill:#1d1d1b;}</style></defs><g id="Layer_2" data-name="Layer 2"><g id="волосики"><g id="baby-cat-head-3"><path class="cls-1" d="M35.54.72C30.7-.76,25.63.2,21.09,2.2c-4.31,1.9-8.71,4.71-11.4,8.67C7.17,14.58,6.43,19.62,9,23.51c2.38,3.64,6.72,5.67,10.85,6.54,4.85,1,11-.17,12.51-5.63a.63.63,0,0,0-1.21-.33c-1.3,4.75-6.8,5.62-11,4.75-3.7-.77-7.67-2.49-9.91-5.67-2.57-3.63-1.81-8.35.64-11.84S17,5.51,20.74,3.73c4.49-2.16,9.6-3.29,14.47-1.81.77.24,1.1-1,.33-1.2Z"/><path class="cls-1" d="M31.56,23.65a11.6,11.6,0,0,1-8,.3,5.91,5.91,0,0,1-3.08-2.62c-1-1.78,1.3-3.29,2.54-4.07.68-.43.05-1.51-.63-1.08-1.65,1-3.56,2.45-3.35,4.65a4.69,4.69,0,0,0,1.37,2.47,6.42,6.42,0,0,0,1.84,1.43c2.89,1.52,6.63,1.24,9.62.13.75-.28.42-1.49-.33-1.21Z"/><path class="cls-1" d="M11,9.44C5.36,11.67-.82,16,.09,22.81c.85,6.43,7.49,12.68,14.17,11.74a5.93,5.93,0,0,0,4.09-2.15,23.91,23.91,0,0,0,1.81-2.73A.63.63,0,0,0,19.08,29a17.46,17.46,0,0,1-1.55,2.33,5.53,5.53,0,0,1-4.75,2c-4,0-7.74-3-9.77-6.25s-2.5-7.11-.38-10.31c2-3,5.42-4.91,8.67-6.21.74-.29.41-1.5-.33-1.2Z"/></g></g></g></svg>
