<svg xmlns="http://www.w3.org/2000/svg" width="74px" height="28px" viewBox="0 0 75.16 28.97"><defs><style>.cls-1{fill:#1d1d1b;}</style></defs><g id="Layer_2" data-name="Layer 2"><g id="Слой_24" data-name="Слой 24"><path class="cls-1" d="M60.35,17.88c-4-6.43-10.82-10.08-17.67-12.73C34.75,2.08,26.26-.09,17.7,0a39.72,39.72,0,0,0-14,2.65c-.74.29-.42,1.5.33,1.21C11.74.8,20.21.7,28.33,2.25a69,69,0,0,1,22,7.89,25.33,25.33,0,0,1,8.93,8.37.63.63,0,0,0,1.08-.63Z"/><path class="cls-1" d="M0,3.63c2.79,7.78,10.88,12.3,17.88,15.77C26,23.4,34.91,26,44,25.45a35.51,35.51,0,0,0,14.13-3.82c.72-.37.08-1.45-.63-1.08-15.51,8-34.41,2-47.88-7.42C6,10.63,2.75,7.48,1.25,3.3,1,2.55-.23,2.87,0,3.63Z"/><path class="cls-1" d="M59.43,19.72c.62,1,2.21.64,3.21.72a18.13,18.13,0,0,1,4.19.85A18.39,18.39,0,0,1,74,25.65c.58.56,1.46-.32.89-.88a19.68,19.68,0,0,0-12.6-5.61c-.28,0-1.66.12-1.78-.07a.63.63,0,0,0-1.08.63Z"/><path class="cls-1" d="M59.34,18.66a7.27,7.27,0,0,1-1.68,2l-.13.1c-.1.08.11-.08-.06,0l-.26.19c-.19.13-.37.24-.56.35s-.41.22-.62.31l-.15.07-.06,0-.34.13a.63.63,0,0,0-.43.77.62.62,0,0,0,.76.43,8.53,8.53,0,0,0,4.61-3.74.63.63,0,0,0-.22-.85.64.64,0,0,0-.86.22Z"/><path class="cls-1" d="M1.11,4.32c8.09.14,15.58,4.06,23.33,5.94C31.67,12,39.08,13,46.24,15.08A46.61,46.61,0,0,1,58,20.22c.68.43,1.31-.66.63-1.08-6.45-4.06-13.87-6-21.26-7.46-3.8-.77-7.61-1.46-11.39-2.33S18.28,7.2,14.46,5.92C10.13,4.46,5.72,3.15,1.11,3.07a.63.63,0,0,0,0,1.25Z"/><path class="cls-1" d="M21.38,1.8a25.26,25.26,0,0,0,5.36,8.06c.57.57,1.45-.32.88-.89a23.6,23.6,0,0,1-5-7.51A.64.64,0,0,0,21.82,1a.63.63,0,0,0-.44.77Z"/><path class="cls-1" d="M35.1,4.12a21.94,21.94,0,0,0,3.69,8.47.64.64,0,0,0,.85.23.63.63,0,0,0,.23-.86A21.08,21.08,0,0,1,36.3,3.79c-.15-.79-1.36-.45-1.2.33Z"/><path class="cls-1" d="M47.88,8.56a13.75,13.75,0,0,0,.39,5.3.62.62,0,0,0,1.2-.34,12.76,12.76,0,0,1-.34-5,.63.63,0,1,0-1.25,0Z"/><path class="cls-1" d="M16.46,15.88a1.5,1.5,0,0,0-1.22.2.63.63,0,0,0,.63,1.08,69.83,69.83,0,0,0,10.91-6.34c.65-.47,0-1.55-.63-1.08a69.83,69.83,0,0,1-10.91,6.34l.63,1.08a.22.22,0,0,1,.26-.07c.78.18,1.11-1,.33-1.21Z"/><path class="cls-1" d="M30.4,23.45a54.84,54.84,0,0,0,10.19-11c.46-.66-.62-1.29-1.08-.63a54.2,54.2,0,0,1-10,10.75c-.63.51.26,1.39.88.88Z"/><path class="cls-1" d="M41.58,25.4a43.09,43.09,0,0,0,7.25-10.49c.35-.72-.73-1.36-1.08-.63a42.39,42.39,0,0,1-7.06,10.24c-.55.58.33,1.47.89.88Z"/><path class="cls-1" d="M22.34,25.06a5.87,5.87,0,0,1,.76-.6,8.46,8.46,0,0,1,.91-.55l.47-.23.11-.05c-.06,0,0,0,0,0l.24-.09a10.5,10.5,0,0,1,1.05-.32.63.63,0,0,0,.44-.77.64.64,0,0,0-.77-.43,9.5,9.5,0,0,0-4.13,2.16.64.64,0,0,0,0,.89.65.65,0,0,0,.89,0Z"/><path class="cls-1" d="M50.51,10.26l5.62-.32a.62.62,0,0,0,.62-.62.64.64,0,0,0-.62-.63L50.51,9a.63.63,0,0,0,0,1.25Z"/><path class="cls-1" d="M59.52,19.46c4.56,2.69,9.43,5.24,12.91,9.33a.62.62,0,0,0,.88,0,9.54,9.54,0,0,0,1.81-3.21c.26-.77-1-1.1-1.2-.34a8,8,0,0,1-1.49,2.67h.88c-3.54-4.18-8.51-6.78-13.16-9.53a.63.63,0,0,0-.63,1.08Z"/></g></g></svg>