<svg xmlns="http://www.w3.org/2000/svg" viewBox="0 0 57.43 24.69"><defs><style>.cls-1{fill:#1d1d1b;}</style></defs><g id="Layer_2" data-name="Layer 2"><g id="Слой_6" data-name="Слой 6"><path class="cls-1" d="M5.16,3.63C.74,2.43,0,9,0,11.89A13.2,13.2,0,0,0,4.85,22.47c2.45,1.87,7.58,3.65,9.79.49,1.13-1.61,1.42-4,1.49-6a10.43,10.43,0,0,0-1.42-5.7A18.25,18.25,0,0,0,10.3,6.4C8.58,5,6.73,3.55,4.45,3.34c-.8-.08-.79,1.17,0,1.25,1.76.16,3.26,1.35,4.6,2.4a22.24,22.24,0,0,1,3.27,3.09,11,11,0,0,1,2.29,4.18,12,12,0,0,1-.12,5.56c-.36,1.77-1,3.35-3,3.53a8.12,8.12,0,0,1-4.5-1,11,11,0,0,1-5.41-7.58,15.93,15.93,0,0,1-.05-6c.29-1.63,1-4.6,3.33-4a.62.62,0,0,0,.33-1.2Z"/><path class="cls-1" d="M46.84.61a17.93,17.93,0,0,0-3.79,6.94c-.73,2.34-1.46,5.18-1,7.63.83,4.61,6.09,7.85,10.44,5.66,2.73-1.37,4.1-4.53,4.64-7.38a15.86,15.86,0,0,0-1-9.57A6.31,6.31,0,0,0,48.22.34c-.77.23-.44,1.44.33,1.2,6.19-1.91,8,5.54,7.55,10.17-.24,2.54-1.06,5.37-3,7.16-3.18,3-8.1.93-9.54-2.81-.9-2.32-.19-5.15.46-7.46a17.1,17.1,0,0,1,3.69-7.1c.55-.59-.34-1.48-.89-.89Z"/></g></g></svg>