<svg width="90px" height="86px" xmlns="http://www.w3.org/2000/svg" viewBox="0 0 44.6 42.85"><defs><style>.cls-1{fill:#1d1d1b;}</style></defs><g id="Layer_2" data-name="Layer 2"><g id="волосики"><g id="baby-cat-head-5"><path class="cls-1" d="M42.14,26.58a24.13,24.13,0,0,0,2.45-11.71c0-4.75-.31-9.51-.69-14.25A.63.63,0,0,0,42.83.18c-4.46,4.18-9.07,8-12.1,13.39A21,21,0,0,0,28.18,21c-.4,3.05-.14,6.17-.75,9.2-.16.78,1.05,1.12,1.21.33a69.73,69.73,0,0,0,.65-8.18,19.82,19.82,0,0,1,2.52-8.11c3-5.33,7.53-9,11.91-13.15L42.65.62q.54,6.65.68,13.31c.08,4.14-.29,8.31-2.27,12-.38.71.7,1.34,1.08.63Z"/><path class="cls-1" d="M28.57,30a6.09,6.09,0,0,0-4-3,50.34,50.34,0,0,0-7.62-1.4,108.55,108.55,0,0,0-16.22-1,.64.64,0,0,0-.6.46c-1.17,8.33,7.28,12.72,14.15,14.15.78.16,1.12-1,.33-1.21C8.53,36.75.26,33,1.31,25.4l-.6.45a108.35,108.35,0,0,1,14.63.8c2.46.31,4.92.69,7.35,1.19,1.87.39,3.93.95,4.81,2.81.34.73,1.42.09,1.07-.63Z"/><path class="cls-1" d="M14.11,38.07c-1.95,1.16-3.81,2.44-5.75,3.61A.63.63,0,0,0,9,42.76c1.94-1.17,3.81-2.45,5.75-3.61a.63.63,0,0,0-.63-1.08Z"/></g></g></g></svg>
