<svg width="226px" height="276px" xmlns="http://www.w3.org/2000/svg" viewBox="0 0 112.96 138.12"><defs><style>.cls-1{fill:#1d1d1b;}</style></defs><g id="Layer_2" data-name="Layer 2"><g id="baby-cat-tail"><g id="baby-cat-tail-4"><path class="cls-1" d="M.31,122.93c4.07,2.2,7.43,5.31,11.25,7.85a42.78,42.78,0,0,0,12,5.42c9.17,2.61,18.9,2.34,28.19.54a46.8,46.8,0,0,0,7.88-2.21,45.2,45.2,0,0,0,6.89-2.85c.71-.42.09-1.4-.63-1.08l-2.42,1.07c-.64.29-.18,1.38.48,1.14,7.78-2.75,14.54-7.74,20.72-13.11,5.28-4.59,10.5-9.46,13.52-15.91.34-.72-.66-1.34-1.08-.63l-1.92,3.2a.63.63,0,0,0,1.08.64,129.74,129.74,0,0,0,16.59-40.69.63.63,0,0,0-1-.61,76.08,76.08,0,0,0-7.3,6.2l1,.6a87.65,87.65,0,0,0,.59-21.1l-1.07.44,0,0c.45.51,1.15,0,1-.61-1.57-8.84-.09-17.78,1.47-26.5,1.45-8.08,3.75-16,5.34-24a.63.63,0,0,0-.92-.7A67.81,67.81,0,0,0,89.39,16.74a50.06,50.06,0,0,0-8.23,11.79A21.49,21.49,0,0,0,80,31.69c-.21.77-.79,2.48-.5,3.28.2.59,1.14,1.07,1.59,1.44l5.79,4.73.75-1a37.52,37.52,0,0,1-6.22-4.8c-1.64-1.58-2.89-3.48-4.47-5.09a.64.64,0,0,0-1.07.44c-2.1,19.25-.61,39.61-8.43,57.77A54.55,54.55,0,0,1,58.24,103l.88.88.48-.58c.49-.62-.34-1.49-.89-.89a23.18,23.18,0,0,1-18,7.49,17.42,17.42,0,0,1-9.16-2.85,23.61,23.61,0,0,1-6.49-7,32.92,32.92,0,0,1-4.13-10c-.18-.78-1.39-.45-1.2.33,1.5,6.52,5,13.09,10.36,17.19s13.15,4.52,19.56,2.3a24,24,0,0,0,10-6.52l-.89-.89-.47.59c-.5.61.34,1.49.88.88,6.74-7.62,11-16.89,13.27-26.74s2.88-19.71,3.46-29.63c.33-5.62.64-11.23,1.25-16.83L76,31.16c.73.75,1.32,1.66,2,2.46a38.08,38.08,0,0,0,2.77,2.91A38.58,38.58,0,0,0,87,41.24c.59.37,1.32-.52.76-1l-4.57-3.73a14.12,14.12,0,0,1-2.42-2c0-.06-.18-.1-.2-.17.07.27.32-1,.34-1.11a16.87,16.87,0,0,1,1-3.27c1.79-4.39,4.91-8.38,8-11.92A66.27,66.27,0,0,1,112.65,1.15l-.91-.71c-1.66,8.37-4,16.57-5.51,25-1.54,8.65-2.86,17.47-1.31,26.21l1-.61,0,0a.63.63,0,0,0-1.07.44,86.45,86.45,0,0,1-.54,20.77c-.09.56.57,1.11,1,.61a75.76,75.76,0,0,1,7.3-6.19l-1-.61a128.6,128.6,0,0,1-16.47,40.38l1.08.64,1.92-3.21-1.08-.63c-2.92,6.23-7.91,10.93-13,15.38-6.1,5.32-12.79,10.35-20.49,13.07l.48,1.14,2.42-1.07-.63-1.08a39.18,39.18,0,0,1-6.17,2.57,48.83,48.83,0,0,1-6.44,2,72.11,72.11,0,0,1-14.41,1.73c-9,.11-18.07-1.82-25.74-6.6-4.2-2.62-7.77-6.07-12.15-8.43-.71-.38-1.34.7-.63,1.08Z"/></g></g></g></svg>
