<svg xmlns="http://www.w3.org/2000/svg" viewBox="0 0 145.01 172.28"><defs><style>.cls-1{fill:#1d1d1b;}</style></defs><g id="Layer_2" data-name="Layer 2"><g id="хвостики"><g id="хвост_4" data-name="хвост 4"><path class="cls-1" d="M20,113.07a10.58,10.58,0,0,0,12.14,10.5c5.94-.95,9.52-6.8,11.68-11.88.31-.73-.77-1.37-1.08-.63-1.87,4.4-4.73,9.51-9.62,11a9.31,9.31,0,0,1-11.87-9,.63.63,0,0,0-1.25,0Z"/><path class="cls-1" d="M.17,146.2c8,8.71,18,15.74,24.47,25.8.44.67,1.52,0,1.08-.63-6.59-10.16-16.55-17.26-24.67-26.06-.54-.59-1.42.29-.88.89Z"/><path class="cls-1" d="M26.3,171a27.45,27.45,0,0,0,.21-10.3c-.14-.79-1.34-.45-1.21.34a26,26,0,0,1-.2,9.63c-.17.78,1,1.12,1.2.33Z"/><path class="cls-1" d="M25.94,162.29a77.9,77.9,0,0,0,45-.07,76.53,76.53,0,0,0,11.9-4.76c.72-.36.09-1.44-.63-1.08a76.68,76.68,0,0,1-43.29,7.39,74.81,74.81,0,0,1-12.64-2.68c-.77-.24-1.1,1-.33,1.2Z"/><path class="cls-1" d="M82.55,155.94a28.58,28.58,0,0,1-9.3-2.7c-.72-.35-1.35.72-.63,1.08a30.47,30.47,0,0,0,9.93,2.87c.8.09.79-1.16,0-1.25Z"/><path class="cls-1" d="M73.28,154.05a76.63,76.63,0,0,0,37.86-29.53c.44-.67-.64-1.3-1.08-.63a75.19,75.19,0,0,1-37.11,29c-.75.27-.43,1.48.33,1.21Z"/><path class="cls-1" d="M119.34,48.37a89.39,89.39,0,0,0-1.69,12.5,10.79,10.79,0,0,0,.11,3.16.64.64,0,0,0,.77.44c4.64-1.13,7.71-5,10.3-8.74l-1.16-.31c-.8,9.9-2.86,19.58-4.39,29.37a116.29,116.29,0,0,1-4.88,20.15,132.22,132.22,0,0,1-9.27,20.47c-.39.71.69,1.34,1.08.64A124.16,124.16,0,0,0,123,93.42c.54-2.41.94-4.83,1.31-7.27.8-5.16,1.83-10.29,2.68-15.45s1.51-10.17,1.92-15.28c.05-.67-.85-.78-1.17-.32-2.4,3.5-5.24,7.12-9.55,8.16l.77.44a1.44,1.44,0,0,1-.07-.5,20.12,20.12,0,0,1,0-2.33,87.5,87.5,0,0,1,1.64-12.16c.15-.79-1.05-1.13-1.2-.34Z"/><path class="cls-1" d="M43.89,111.54a73.31,73.31,0,0,0,4.2-39.2l-.92.7c4.22,2.43,8.45,5.65,10.22,10.36.22.61,1.32.59,1.22-.16-.8-6.46,1.37-12.69,2.24-19,.44-3.2.63-6.44,1.15-9.63a38.45,38.45,0,0,1,2.72-9.12A78,78,0,0,1,85.34,16.89,82.36,82.36,0,0,1,101.17,6.4l-.94-.54c-.34,4.12-.58,8.3.63,12.31.23.77,1.44.44,1.2-.33-1.18-3.9-.91-8-.58-12,0-.5-.55-.73-.94-.54A77.52,77.52,0,0,0,74,27,90.67,90.67,0,0,0,64.5,43a43.82,43.82,0,0,0-3.21,8.74A78.3,78.3,0,0,0,60,61.24c-.79,7.28-3.51,14.61-2.6,22l1.23-.17C56.7,78,52.33,74.57,47.8,72a.64.64,0,0,0-.92.71,72.17,72.17,0,0,1-4.19,38.54c-.3.75.91,1.07,1.2.33Z"/><path class="cls-1" d="M102.21,18.38c12-9.86,27.59-13.66,42.36-17.15l-.61-1a112.49,112.49,0,0,0-21.41,36.55,94.18,94.18,0,0,0-3.21,11.64l1.2.34,0-.16c.16-.78-1-1.12-1.21-.33l0,.15c-.16.79,1,1.13,1.2.34C124.2,31,133.09,14.65,144.85,1.06a.63.63,0,0,0-.61-1c-15,3.56-30.75,7.46-42.92,17.47-.62.51.27,1.39.89.89Z"/></g></g></g></svg>