<svg xmlns="http://www.w3.org/2000/svg" viewBox="0 0 190.71 82.46"><defs><style>.cls-1{fill:#1d1d1b;}</style></defs><g id="Layer_2" data-name="Layer 2"><g id="Слой_4" data-name="Слой 4"><path class="cls-1" d="M189.76.07A243,243,0,0,1,139.3,17.85c-5,1.15-10,2.14-15,3-.79.13-.45,1.34.34,1.21A244.17,244.17,0,0,0,176.7,7.25q6.93-2.85,13.69-6.1c.73-.35.1-1.43-.63-1.08Z"/><path class="cls-1" d="M122.78,21c-.93,1.67-.25,3.44.44,5.07a39.06,39.06,0,0,0,11.31,15.19,141.8,141.8,0,0,0,11.86,8.18A79.43,79.43,0,0,0,159,56.49a97.35,97.35,0,0,0,16.31,5.21c.78.18,1.11-1,.33-1.2a81.51,81.51,0,0,1-25.49-10.09c-3.86-2.43-7.68-5-11.43-7.55a41.59,41.59,0,0,1-9.12-8.34,38.16,38.16,0,0,1-3.85-5.91c-.53-1-1-2.05-1.46-3.1s-1.16-2.64-.47-3.88c.39-.7-.69-1.33-1.08-.63Z"/><path class="cls-1" d="M73.2,11.11c-16.06,12.4-36.29,16.62-55.42,22-5.72,1.6-11.41,3.35-17,5.46-.74.28-.42,1.49.33,1.2,19.2-7.28,39.93-10,58.53-18.95a79.22,79.22,0,0,0,14.16-8.62c.63-.49,0-1.58-.63-1.08Z"/><path class="cls-1" d="M.06,40.09A53.81,53.81,0,0,0,19.39,62.6a145.71,145.71,0,0,0,28.7,15,89.53,89.53,0,0,0,17.53,4.85c.79.13,1.13-1.08.33-1.21C55.5,79.51,45.56,75.68,36.16,70.87,27,66.17,17.41,61,10.33,53.35A51.78,51.78,0,0,1,1.14,39.46c-.33-.73-1.41-.09-1.08.63Z"/><path class="cls-1" d="M61.74,60.84A22.4,22.4,0,0,1,59,64.13c-.79.78-3,3.3-4.06,2a6.19,6.19,0,0,1-.76-1.88l-.74-2-1.65-4.52a.64.64,0,0,0-.92-.38,10.68,10.68,0,0,1-5.67,2.14c-.25,0-1,.16-1.22,0-.61-.38-.1-.79.09-1.2a2.11,2.11,0,0,0,.2-1.46.63.63,0,0,0-.77-.44,29.62,29.62,0,0,1-10,2.3c-3,.14-6.23-.14-8.36-2.44-.55-.59-1.43.29-.88.88,2.14,2.31,5.36,2.89,8.38,2.84a30.73,30.73,0,0,0,11.23-2.37l-.77-.44c.17.81-.89,1.52-.75,2.4s1,1.15,1.86,1.19a11.68,11.68,0,0,0,7.32-2.33L50.63,58l2.3,6.34c.44,1.19.83,3.09,2.28,3.46s3-1.21,3.95-2.08a23.28,23.28,0,0,0,3.66-4.27c.45-.67-.63-1.29-1.08-.63Z"/><path class="cls-1" d="M173.15,37.62c-.61,1.81-1.44,4.34-3.59,4.77a2.3,2.3,0,0,1-2.5-.86c-.68-1.26.47-2.75,1.18-3.72.37-.51-.35-1.16-.86-.85-3.16,1.93-6.94,4.1-10.7,2.62l.38.92,1.6-2.87a.63.63,0,0,0-.54-.94c-7.45.3-16.17.46-21.42-5.79-.52-.61-1.4.27-.88.89,5.47,6.5,14.53,6.46,22.3,6.15l-.54-.94L156,39.87a.64.64,0,0,0,.37.92c4.08,1.59,8.23-.65,11.66-2.75l-.85-.86c-1,1.33-2,3-1.3,4.72a3.14,3.14,0,0,0,2.7,1.78c3.39.31,4.89-3,5.8-5.72.26-.77-1-1.1-1.21-.34Z"/></g></g></svg>