<svg xmlns="http://www.w3.org/2000/svg" viewBox="0 0 71.38 87.14"><defs><style>.cls-1{fill:#1d1d1b;}</style></defs><g id="Layer_2" data-name="Layer 2"><g id="Слой_18" data-name="Слой 18"><path class="cls-1" d="M10.28,50.62a16.51,16.51,0,0,0,11,15.54,17,17,0,0,0,10.71,0,53.84,53.84,0,0,0,10.79-4.85c12.73-7.43,15.69-22.63,18.14-36C62.45,16.9,64.18,8.24,69,.92L67.83.77a188.85,188.85,0,0,1,2.3,29.85c0,4.79-.13,9.62-.6,14.39a32.51,32.51,0,0,1-1.39,7A39.62,39.62,0,0,1,65,58.63,73,73,0,0,1,57.85,70a43.28,43.28,0,0,1-10.21,8.72c-7.35,4.71-16.14,8.18-25,7A27.85,27.85,0,0,1,1.91,71.12c-.38-.71-1.46-.08-1.08.63A29.16,29.16,0,0,0,18.72,86.16c8.65,2.4,17.68.14,25.43-4a54.17,54.17,0,0,0,11.3-7.86,45.86,45.86,0,0,0,8.39-11c2.37-4.08,5-8.27,6.07-12.89,1.18-4.84,1.26-10,1.4-14.92A192,192,0,0,0,69,.44C69-.13,68.16-.11,67.9.29,60.19,12.06,60.41,26.6,56.49,39.7c-1.86,6.22-4.67,12.37-9.43,16.91A32.83,32.83,0,0,1,38,62.39C34.52,64,30.83,65.77,26.9,65.83A15.26,15.26,0,0,1,11.53,50.62a.63.63,0,0,0-1.25,0Z"/><path class="cls-1" d="M.28,69.17A2,2,0,0,0,0,70.26a2,2,0,0,0,.35,1.07.74.74,0,0,0,.38.29.62.62,0,0,0,.48-.07.64.64,0,0,0,.29-.37.62.62,0,0,0-.07-.48,2.54,2.54,0,0,1-.16-.28l.07.15a1.4,1.4,0,0,1-.1-.35l0,.17a2.54,2.54,0,0,1,0-.39l0,.17a1.59,1.59,0,0,1,.09-.33L1.27,70a.66.66,0,0,1,.09-.19A.63.63,0,0,0,1.14,69a.65.65,0,0,0-.86.22Z"/></g></g></svg>