<svg xmlns="http://www.w3.org/2000/svg" viewBox="0 0 55.64 58.39"><defs><style>.cls-1{fill:#1d1d1b;}</style></defs><g id="Layer_2" data-name="Layer 2"><g id="Слой_8" data-name="Слой 8"><path class="cls-1" d="M13.68,16.33c-.49,2.44,1.62,4.53,4,4.75,2.92.28,5.54-1.83,7.72-3.49,4.55-3.47,8.69-7.71,10.54-13.24.26-.76-.95-1.09-1.2-.33C33.2,8.52,30,12.14,26.44,15.15a27.4,27.4,0,0,1-5.84,4.09,4.92,4.92,0,0,1-3.66.41,2.83,2.83,0,0,1-2.06-3c.16-.78-1-1.12-1.2-.33Z" transform="translate(0 -0.29)"/><path class="cls-1" d="M35,4.25A16.3,16.3,0,0,1,37.28,15c-.08.58.56,1.1,1,.61C42.19,11.7,46.65,6.65,44.69.72l-1.14.48c5,7.27,10.26,15,10.79,24.13a19.85,19.85,0,0,1-3,12.13,23.34,23.34,0,0,1-9,7.76c-.71.36-.08,1.44.63,1.08,5.71-2.94,10.47-7.81,12-14.17,1.71-7-.29-14.31-3.52-20.58a105.52,105.52,0,0,0-6.86-11c-.38-.55-1.38-.23-1.15.48,1.81,5.47-2.5,10.09-6,13.66l1,.61a17.58,17.58,0,0,0-2.4-11.7c-.42-.68-1.5-.06-1.08.63Z" transform="translate(0 -0.29)"/><path class="cls-1" d="M0,40.94A28.38,28.38,0,0,0,7.6,51.78a28.27,28.27,0,0,0,11.29,6.87.63.63,0,0,0,.61-1,9.44,9.44,0,0,1-2.12-8c.16-.79-1.05-1.12-1.21-.34a10.76,10.76,0,0,0,2.45,9.26l.61-1A26.89,26.89,0,0,1,8.49,50.89,27,27,0,0,1,1.24,40.6c-.26-.75-1.47-.42-1.2.34Z" transform="translate(0 -0.29)"/><path class="cls-1" d="M16.34,49.67a24.9,24.9,0,0,0,14.22,2.21c5-.73,9.73-2.82,14.2-5.13.72-.36.09-1.44-.63-1.08a45.72,45.72,0,0,1-13.07,4.87A23.59,23.59,0,0,1,17,48.6c-.73-.34-1.36.74-.63,1.07Z" transform="translate(0 -0.29)"/></g></g></svg>