<svg xmlns="http://www.w3.org/2000/svg" width="144px" heigth="171px" viewBox="0 0 145.49 172.69"><defs><style>.cls-1{fill:#1d1d1b;}</style></defs><g id="Layer_2" data-name="Layer 2"><g id="Слой_19" data-name="Слой 19"><path class="cls-1" d="M20.56,113a10.59,10.59,0,0,0,7.33,10.14c4.33,1.35,8.69-.33,11.68-3.56,3.16-3.41,4.94-7.91,6.41-12.25a73,73,0,0,0,3.49-16.61,72.78,72.78,0,0,0-.72-18.76l-.92.71a21.1,21.1,0,0,1,9.22,11c.27.74,1.48.42,1.2-.34a22.44,22.44,0,0,0-9.78-11.69.63.63,0,0,0-.92.7,72,72,0,0,1-1.34,29.91A52.09,52.09,0,0,1,41.35,115c-2,3.54-5.14,7-9.46,7.35A9.32,9.32,0,0,1,21.81,113a.63.63,0,0,0-1.25,0Z"/><path class="cls-1" d="M59.28,82.83c-.8-6.45,1.36-12.68,2.23-19,.44-3.2.63-6.44,1.15-9.63a38.66,38.66,0,0,1,2.73-9.12A81.6,81.6,0,0,1,85.62,16.49,73.9,73.9,0,0,1,101,6c.72-.37.09-1.45-.63-1.08A74.87,74.87,0,0,0,74.67,26.54a93.36,93.36,0,0,0-9.5,16A43.55,43.55,0,0,0,62,51.31a80.43,80.43,0,0,0-1.33,9.52c-.78,7.29-3.5,14.62-2.59,22,.1.79,1.35.8,1.25,0Z"/><path class="cls-1" d="M100.9,5.46c-.38,4.54-.67,9.29,1.1,13.6.3.73,1.51.41,1.2-.34-1.73-4.21-1.42-8.82-1-13.26.06-.8-1.19-.8-1.25,0Z"/><path class="cls-1" d="M103.31,18.12C115.15,8.37,130.45,4.68,145,1.22c.79-.18.45-1.39-.33-1.2-14.83,3.51-30.26,7.31-42.28,17.22-.62.51.26,1.39.88.88Z"/><path class="cls-1" d="M144.39.6c-12.15,14-21.48,31-24.88,49.33a82.36,82.36,0,0,0-1.38,15.6.63.63,0,0,0,1.25,0c-.16-18.44,6.34-36.28,16.4-51.55a119.91,119.91,0,0,1,9.5-12.5c.52-.6-.36-1.49-.89-.88Z"/><path class="cls-1" d="M119.27,65.87a36.6,36.6,0,0,0,9.56-9.74l-1.14-.48c-1.38,9.6-2.41,19.24-4.08,28.79a123.22,123.22,0,0,1-7.81,26.86c-2.06,4.91-4.36,9.72-6.67,14.52-.35.72.73,1.35,1.08.63,4-8.35,8-16.77,10.83-25.61,2.93-9.17,4.34-18.77,5.63-28.29.75-5.52,1.43-11,2.22-16.56a.63.63,0,0,0-1.14-.49,34.71,34.71,0,0,1-9.11,9.29c-.65.45,0,1.54.63,1.08Z"/><path class="cls-1" d="M.17,146.6c8,8.72,18,15.75,24.47,25.8.44.67,1.52,0,1.08-.63-6.59-10.15-16.55-17.25-24.67-26.06-.54-.59-1.42.3-.88.89Z"/><path class="cls-1" d="M26.3,171.36a27.4,27.4,0,0,0,.21-10.29c-.14-.79-1.34-.46-1.21.33a26,26,0,0,1-.2,9.63c-.17.78,1,1.12,1.2.33Z"/><path class="cls-1" d="M25.94,162.69a77.81,77.81,0,0,0,45-.07,76.53,76.53,0,0,0,11.9-4.76c.72-.36.09-1.44-.63-1.08a76.59,76.59,0,0,1-43.29,7.39,74.81,74.81,0,0,1-12.64-2.68c-.77-.24-1.1,1-.33,1.2Z"/><path class="cls-1" d="M82.55,156.35a28.85,28.85,0,0,1-9.3-2.71c-.72-.35-1.35.73-.63,1.08a30.49,30.49,0,0,0,9.93,2.88c.8.09.79-1.16,0-1.25Z"/><path class="cls-1" d="M73.28,154.45a76.63,76.63,0,0,0,37.86-29.53c.44-.67-.64-1.29-1.08-.63a75.13,75.13,0,0,1-37.11,29c-.75.27-.43,1.48.33,1.21Z"/></g></g></svg>