<svg xmlns="http://www.w3.org/2000/svg" viewBox="0 0 226.92 76.86"><defs><style>.cls-1{fill:#1d1d1b;}</style></defs><g id="Layer_2" data-name="Layer 2"><g id="Слой_9" data-name="Слой 9"><path class="cls-1" d="M112.47,3.91c-14.55,1.88-29.1,3.91-43.7,5.42-7.18.74-14.37,1.34-21.58,1.67s-14.39.34-21.58.38c-8.17,0-16.34.18-24.47,1-.79.08-.8,1.33,0,1.25,14.49-1.49,29.07-.73,43.6-1.29s28.78-2.2,43.09-4c8.22-1,16.43-2.12,24.64-3.18.79-.11.8-1.36,0-1.25Z"/><path class="cls-1" d="M0,13.19c4.73,14.26,17.52,24.44,29.25,33A181.88,181.88,0,0,0,70.69,68.69a182,182,0,0,0,25.47,7.74c.78.17,1.12-1,.33-1.21A180.56,180.56,0,0,1,53.1,59.4,167.86,167.86,0,0,1,15.43,33.26C9.34,27.54,3.9,20.89,1.24,12.86,1,12.1-.22,12.42,0,13.19Z"/><path class="cls-1" d="M97.23,76.57l1,.27a.66.66,0,0,0,.48-.06A.65.65,0,0,0,99,76.4a.62.62,0,0,0-.06-.48.69.69,0,0,0-.38-.29l-1-.27a.62.62,0,0,0-.48.07.6.6,0,0,0-.29.37.62.62,0,0,0,.06.48.63.63,0,0,0,.37.29Z"/><path class="cls-1" d="M97.65,76.62a.63.63,0,0,0,0-1.25.63.63,0,0,0,0,1.25Z"/><path class="cls-1" d="M97.39,76.37a.63.63,0,0,0,0-1.25.63.63,0,0,0,0,1.25Z"/><path class="cls-1" d="M97.39,76.37a.63.63,0,0,0,0-1.25.63.63,0,0,0,0,1.25Z"/><path class="cls-1" d="M97.39,76.37a.63.63,0,0,0,0-1.25.63.63,0,0,0,0,1.25Z"/><path class="cls-1" d="M96.37,76.62a.63.63,0,0,0,0-1.25.63.63,0,0,0,0,1.25Z"/><path class="cls-1" d="M96.37,76.62a.63.63,0,0,0,0-1.25.63.63,0,0,0,0,1.25Z"/><path class="cls-1" d="M96.37,76.62a.63.63,0,0,0,0-1.25.63.63,0,0,0,0,1.25Z"/><path class="cls-1" d="M94.56,46.68c-.61,1.51-2.2,4.67-4.31,3.53-1.59-.87-1.34-3.5-1.11-5a.63.63,0,0,0-.91-.71l-9.22,4,.94.54c.15-2.77-2.44-4.35-4.9-4.62-3.72-.4-7.65.26-11.38.43-7.15.33-14.7,0-20.77-4.27-.66-.46-1.29.62-.63,1.08,5.12,3.57,11.43,4.55,17.55,4.55,3.54,0,7.07-.31,10.6-.49,2.58-.14,8.5-.79,8.28,3.32a.63.63,0,0,0,.94.54l9.22-4-.92-.7c-.34,2.19-.47,5.61,2.08,6.58,2.91,1.1,4.85-2.25,5.74-4.45.3-.75-.9-1.07-1.2-.34Z"/><path class="cls-1" d="M42.07,42.21A43.22,43.22,0,0,0,62.5,51.84c.79.14,1.13-1.06.33-1.2A42.19,42.19,0,0,1,43,41.33c-.61-.52-1.5.36-.88.88Z"/><path class="cls-1" d="M226.14,0a123.82,123.82,0,0,1-22.25,3.46c-7.59.64-15.19,1.23-22.77,1.92q-22.71,2.07-45.35,4.8-12.63,1.53-25.23,3.25c-.43.06-.53.61-.37.92,7.83,16.11,23.11,26.6,38.7,34.4,8.66,4.33,17.58,8.25,26.63,11.71a56.57,56.57,0,0,0,21.19,3.32c2.64,0,5.27,0,7.91.06.78,0,1.85.26,2.28-.54a.66.66,0,0,0,0-.37l-.3.63.08,0s.3,0,.36,0a15.54,15.54,0,0,0,3.52-.42,49.21,49.21,0,0,1,8.61-1.23.63.63,0,0,0,0-1.25,33.05,33.05,0,0,0-6.64.83c-1.2.24-2.4.48-3.61.64a23.42,23.42,0,0,0-2.51.24,1.06,1.06,0,0,0-.6.31c-.15.2-.25,1.06.05.3s.22-.21-.09-.32a4.49,4.49,0,0,0-1,0c-1.15,0-2.3-.1-3.46-.11-3.95,0-7.92.26-11.86-.15A58.86,58.86,0,0,1,179,60.42a118.08,118.08,0,0,1-12.65-5q-6.65-2.84-13.17-6c-8.31-4-16.49-8.4-23.77-14.09-7.49-5.85-14-13.06-18.17-21.66l-.38.92c30.36-4.16,60.81-7.3,91.35-9.79,8.16-.66,16.34-1.49,24.26-3.65a.62.62,0,0,0-.34-1.2Z"/><path class="cls-1" d="M211.76,40.59a13.34,13.34,0,0,1-5.87,5.54c-.72.34-1.09.56-1.15-.4a13.57,13.57,0,0,1,.77-3.91.64.64,0,0,0-.77-.77l-9.18,1.72.79.6a5.66,5.66,0,0,0-.53-3.21.63.63,0,0,0-1.08,0c-1.49,2.84-4.85,3.25-7.74,3.09-3.36-.18-6.72-.59-10.07-.9l-20.06-1.83c-.8-.07-.8,1.18,0,1.25l22,2c3.49.32,7.2,1,10.7.69a7.56,7.56,0,0,0,6.21-3.68h-1.08a4.51,4.51,0,0,1,.36,2.58c0,.44.44.67.79.61l9.18-1.72-.77-.77c-.39,1.52-2.15,7.53,1.51,6a14.54,14.54,0,0,0,7-6.3.62.62,0,0,0-1.07-.63Z"/><path class="cls-1" d="M156.25,41.45c.62,1.55,2.56,2,4,2.57l5.31,2.22q5.73,2.35,11.49,4.62c.75.29,1.08-.92.34-1.21q-5-2-10-4l-4.8-2-2.79-1.18c-.69-.29-2-.59-2.3-1.36s-1.5-.41-1.2.34Z"/></g></g></svg>