<svg xmlns="http://www.w3.org/2000/svg" viewBox="0 0 112.98 138.12"><defs><style>.cls-1{fill:#1d1d1b;}</style></defs><g id="Layer_2" data-name="Layer 2"><g id="Слой_3" data-name="Слой 3"><path class="cls-1" d="M18.77,92.73a24.36,24.36,0,0,0,11.69,15.51A23.55,23.55,0,0,0,50,109.72a24.05,24.05,0,0,0,9.61-6.4c.53-.59-.35-1.48-.89-.88a23.18,23.18,0,0,1-17.27,7.5A22.3,22.3,0,0,1,24.84,102,22.57,22.57,0,0,1,20,92.4c-.18-.78-1.39-.45-1.21.33Z"/><path class="cls-1" d="M59.12,103.91c6.74-7.63,11-16.9,13.27-26.75s2.88-19.71,3.46-29.63c.33-5.61.64-11.23,1.25-16.82.09-.8-1.16-.79-1.25,0-2.1,19.24-.61,39.6-8.43,57.76A54.39,54.39,0,0,1,58.24,103c-.53.6.35,1.49.88.89Z"/><path class="cls-1" d="M76.24,31.33A38,38,0,0,0,87,41.24a.63.63,0,0,0,.63-1.08A36.42,36.42,0,0,1,77.32,30.7c-.47-.64-1.56,0-1.08.63Z"/><path class="cls-1" d="M80.7,34.8c.34-4.35,2.7-8.17,5.16-11.64a65.11,65.11,0,0,1,7.6-8.89A67.28,67.28,0,0,1,112.65,1.14c.74-.33.1-1.41-.63-1.08a67.46,67.46,0,0,0-27.7,23.13c-2.42,3.5-4.53,7.28-4.87,11.61-.06.8,1.19.79,1.25,0Z"/><path class="cls-1" d="M110.71,1.14q-2.47,12.7-4.7,25.46c-1.44,8.26-2.57,16.67-1.09,25,.14.79,1.35.46,1.21-.33-1.5-8.42-.22-17,1.26-25.3,1.45-8.17,2.93-16.35,4.53-24.49.15-.79-1-1.13-1.21-.34Z"/><path class="cls-1" d="M104.86,51.39a86.54,86.54,0,0,1-.54,20.78c-.12.78,1.08,1.12,1.2.33a86.72,86.72,0,0,0,.59-21.11c-.07-.79-1.32-.8-1.25,0Z"/><path class="cls-1" d="M105.11,72.26l6.82-5.68a.62.62,0,1,0-.88-.88l-6.82,5.67a.63.63,0,0,0,0,.89.65.65,0,0,0,.88,0Z"/><path class="cls-1" d="M111.41,66a128.33,128.33,0,0,1-16.26,40.38c-.43.69.65,1.31,1.08.63a129.34,129.34,0,0,0,16.39-40.68c.17-.78-1-1.12-1.21-.33Z"/><path class="cls-1" d="M95.67,105.83a27,27,0,0,1-6.3,7.86c-2.52,2.39-5.1,4.73-7.77,6.94-5.42,4.49-11.34,8.61-18,11-.75.27-.43,1.48.33,1.21,6.76-2.39,12.74-6.49,18.24-11,2.79-2.3,5.48-4.73,8.11-7.21a28,28,0,0,0,6.49-8.12c.34-.72-.74-1.36-1.08-.63Z"/><path class="cls-1" d="M1,122.24A.63.63,0,0,0,1,121a.63.63,0,0,0,0,1.25Z"/><path class="cls-1" d="M.31,122.93c4.07,2.19,7.43,5.31,11.25,7.85a43,43,0,0,0,12,5.41c9.17,2.61,18.9,2.34,28.19.54a46.76,46.76,0,0,0,7.88-2.2,45.24,45.24,0,0,0,6.89-2.86.63.63,0,0,0-.63-1.08,38.26,38.26,0,0,1-6.17,2.57,47.37,47.37,0,0,1-6.44,2,71.39,71.39,0,0,1-14.41,1.73c-9,.12-18.07-1.81-25.74-6.6-4.2-2.61-7.77-6.06-12.15-8.42-.71-.39-1.34.69-.63,1.08Z"/></g></g></svg>