<svg xmlns="http://www.w3.org/2000/svg" viewBox="0 0 44.15 45.16"><defs><style>.cls-1{fill:#1d1d1b;}</style></defs><g id="Layer_2" data-name="Layer 2"><g id="Слой_10" data-name="Слой 10"><path class="cls-1" d="M42.13,26.53c1.9-3.6,2.07-7.67,2-11.66-.07-4.75-.31-9.51-.69-14.25A.64.64,0,0,0,42.38.18,52.07,52.07,0,0,0,36,7.73a106.39,106.39,0,0,0-5.85,8.89,24.9,24.9,0,0,0-3.3,9.12c-.15,1.1-.67,7.19,2,6.16.74-.29.42-1.5-.33-1.21C28,30.9,28,27,28,26.61a19,19,0,0,1,.86-4.15,34.12,34.12,0,0,1,4.05-8C36,9.78,39.18,5,43.27,1.06L42.2.62q.54,6.65.68,13.31c.08,4.06.12,8.29-1.83,12-.38.71.7,1.34,1.08.63Z"/><path class="cls-1" d="M28.56,30.89a6.11,6.11,0,0,0-4-3,49.13,49.13,0,0,0-7.62-1.4,107.4,107.4,0,0,0-16.22-1,.63.63,0,0,0-.61.46,10.82,10.82,0,0,0,3.5,9.27c2.82,2.68,6.64,3.94,10.38,4.72.78.16,1.12-1,.33-1.21-6-1.24-14-4.95-13-12.45l-.6.46a106.67,106.67,0,0,1,14.62.79c2.47.31,4.93.7,7.36,1.2,1.86.38,3.92,1,4.8,2.8.34.73,1.42.1,1.08-.63Z"/><path class="cls-1" d="M16,39.11c-.51-.73-1.32-.51-2-.12-.94.55-1.87,1.12-2.81,1.68L5.65,44a.63.63,0,0,0,.63,1.08L11,42.28l2.25-1.35,1.12-.67c.19-.11.38-.25.58-.34s.16,0,0-.18c.45.66,1.54,0,1.08-.63Z"/></g></g></svg>