<svg xmlns="http://www.w3.org/2000/svg" viewBox="0 0 70.06 40.16"><defs><style>.cls-1{fill:#1d1d1b;}</style></defs><g id="Layer_2" data-name="Layer 2"><g id="Слой_23" data-name="Слой 23"><path class="cls-1" d="M45.63,17.3a3.6,3.6,0,0,1-3.21-.77,8.87,8.87,0,0,1-2.54-2.34,1.51,1.51,0,0,1,.41-2.29,4.5,4.5,0,0,1,2.76-.39A4.09,4.09,0,0,1,46,13c.46.65,1.54,0,1.08-.63a5.15,5.15,0,0,0-3.35-2,6.31,6.31,0,0,0-3.84.36A2.68,2.68,0,0,0,38.39,14a7.41,7.41,0,0,0,2.87,3.28c1.33,1,3,1.87,4.7,1.28.75-.27.43-1.48-.33-1.21Z"/><path class="cls-1" d="M53.89,18.6c3.8-.58.75-7.73-.21-9.51A17.61,17.61,0,0,0,44.42,1a17.32,17.32,0,0,0-21.55,9.36,17.71,17.71,0,0,0,.2,14.11c.33.73,1.41.1,1.08-.63a16.12,16.12,0,0,1,6-20.12A16,16,0,0,1,50.3,6.47a16.59,16.59,0,0,1,3.21,5.23c.39,1,1.93,5.41,0,5.7-.79.12-.45,1.33.34,1.2Z"/><path class="cls-1" d="M49.45,4.24A21.66,21.66,0,0,1,62.94,6.18c3.66,2,6.58,5.81,5.75,10.14-.15.79,1,1.13,1.2.33C70.79,12,68,7.72,64.13,5.41c-4.44-2.63-10-3.18-15-2.37-.79.12-.46,1.33.33,1.2Z"/><path class="cls-1" d="M55.6,10.49c2.16-.7,4.63-.88,6.61.4A4.68,4.68,0,0,1,64,13a2.66,2.66,0,0,1-.21,2.76c-.53.6.35,1.49.88.89,1.81-2.05.5-5-1.4-6.49-2.3-1.77-5.37-1.71-8-.85-.76.25-.44,1.46.33,1.21Z"/><path class="cls-1" d="M24.79,6.37C19.57,6.68,14.48,9,11.62,13.53c-3.21,5.11-1.79,11-.18,16.42a.62.62,0,0,0,1.2-.33c-1.47-4.94-2.93-10.4-.12-15.16,2.56-4.33,7.39-6.55,12.27-6.84.8,0,.81-1.3,0-1.25Z"/><path class="cls-1" d="M11.11,13.4a13.41,13.41,0,0,0-6,4.26A21,21,0,0,0,.93,24.71a20.48,20.48,0,0,0-.77,8.52A11,11,0,0,0,3.91,40c.6.53,1.49-.35.88-.88a10,10,0,0,1-3.4-6A19.23,19.23,0,0,1,2.13,25a19.53,19.53,0,0,1,3.71-6.35,12.27,12.27,0,0,1,5.61-4.08c.76-.25.43-1.45-.34-1.21Z"/></g></g></svg>