<svg xmlns="http://www.w3.org/2000/svg" width="159px" height="92px" viewBox="0 0 159.86 93.49"><defs><style>.cls-1{fill:#1d1d1b;}</style></defs><g id="Layer_2" data-name="Layer 2"><g id="Слой_20" data-name="Слой 20"><path class="cls-1" d="M32.19,13.78C23.25,20.87,14.6,28.65,8.4,38.34A54.89,54.89,0,0,0,1.5,53.63C0,59.29-.14,65,.09,70.81c.29,7.35.6,14.71.89,22.06a.64.64,0,0,0,.79.61A61.36,61.36,0,0,0,26.16,82.05c.64-.49-.26-1.37-.88-.88A60.09,60.09,0,0,1,1.44,92.27l.79.6L1.47,74c-.24-6-.58-12,.73-18C4.61,45,11,35.39,18.77,27.38A142.74,142.74,0,0,1,33.08,14.66c.63-.5-.26-1.38-.89-.88Z"/><path class="cls-1" d="M140.73.07c-8.06,3.76-14.59,10-21,16.1a40.27,40.27,0,0,0-8.47,10.46,47.3,47.3,0,0,0-4.14,12.88,67.67,67.67,0,0,0-1.11,16.26c0,.81,1.29.81,1.25,0-.47-9.11.63-19,4.51-27.33A35.47,35.47,0,0,1,119.68,18c3.07-3,6.22-5.95,9.49-8.73a55.22,55.22,0,0,1,12.19-8.12c.73-.34.1-1.41-.63-1.07Z"/><path class="cls-1" d="M107.44,56.45c9.49-2.26,18.8-5.22,28.07-8.27,8.31-2.72,16.93-5.27,24.08-10.5.65-.47,0-1.55-.63-1.08-7.2,5.26-15.88,7.79-24.24,10.53-9.12,3-18.28,5.89-27.62,8.11-.78.19-.45,1.39.34,1.21Z"/></g></g></svg>