<svg xmlns="http://www.w3.org/2000/svg" viewBox="0 0 44.44 37.65"><defs><style>.cls-1{fill:#1d1d1b;}</style></defs><g id="Layer_2" data-name="Layer 2"><g id="Слой_5" data-name="Слой 5"><path class="cls-1" d="M44.14,20.41c-3-1.7-6.35-2.21-9.56-3.23a47.68,47.68,0,0,1-9-3.91A45.08,45.08,0,0,1,11,.28C10.69-.18,9.83-.07,9.85.6A45.94,45.94,0,0,0,20.23,27.66c.51.62,1.39-.26.88-.88A44.58,44.58,0,0,1,11.1.6L9.94.91A46.27,46.27,0,0,0,24.26,14,48.53,48.53,0,0,0,33,18c3.49,1.21,7.32,1.66,10.55,3.53a.63.63,0,0,0,.64-1.08Z"/><path class="cls-1" d="M19.89,26.13c-3.16.56-6.32,1.15-9.49,1.66a21.59,21.59,0,0,1-9.63-.11.62.62,0,0,0-.33,1.2,21.81,21.81,0,0,0,9.58.23c3.41-.51,6.8-1.17,10.2-1.77.79-.14.45-1.35-.33-1.21Z"/><path class="cls-1" d="M.51,28.51c.3,2.15,2.83,3.34,4.47,4.33a60.08,60.08,0,0,0,6.62,3.43c.72.32,1.36-.76.63-1.08a62.51,62.51,0,0,1-6.1-3.12c-.94-.56-1.89-1.12-2.79-1.75a3.27,3.27,0,0,1-1.62-2.14c-.11-.79-1.32-.45-1.21.33Z"/><path class="cls-1" d="M11.7,35.56l-1,1a.65.65,0,0,0-.18.44.62.62,0,0,0,.18.44.63.63,0,0,0,.88,0l1-1a.62.62,0,0,0,0-.89.6.6,0,0,0-.44-.18.65.65,0,0,0-.44.18Z"/></g></g></svg>