<svg xmlns="http://www.w3.org/2000/svg" viewBox="0 0 50.25 48.43"><defs><style>.cls-1{fill:#1d1d1b;}</style></defs><g id="Layer_2" data-name="Layer 2"><g id="Слой_21" data-name="Слой 21"><path class="cls-1" d="M13.64,47.6C24.77,40.35,36.38,32.89,49.8,31c.8-.12.46-1.32-.33-1.21C36,31.7,24.22,39.21,13,46.52c-.68.44,0,1.52.63,1.08Z"/><path class="cls-1" d="M35.81,48C38,41.39,34.21,35,31,29.4c-3.39-5.92-7-11.78-12.31-16.23-.61-.52-1.5.36-.89.88,5,4.2,8.48,9.67,11.7,15.25s7.19,11.84,5.07,18.36c-.25.77,1,1.1,1.21.34Z"/><path class="cls-1" d="M10.3,9.27a1.46,1.46,0,0,0,.28,2.25A2.21,2.21,0,0,0,13.23,11a2.72,2.72,0,0,0,.86-2.59A2.29,2.29,0,0,0,12.2,6.82a4.8,4.8,0,0,0-3.15.92.64.64,0,0,0-.22.86.62.62,0,0,0,.85.22c.32-.19.65-.38,1-.54a3.92,3.92,0,0,1,.42-.15l.24-.07.11,0H12l.24.07.11,0s-.09,0,0,0a.56.56,0,0,1,.17.09s.19.14.1,0l.15.15c.08.08,0,0,0,0l.06.09,0,.1s0-.09,0,0a.89.89,0,0,1,.06.2c0-.1,0,0,0,0s0,.1,0,.15,0,.21,0,.1a2.1,2.1,0,0,1-.06.24l0,.08c0,.1,0-.07,0,0s-.08.16-.13.24a1.46,1.46,0,0,1-.2.28l-.18.18-.12.1a1.37,1.37,0,0,1-.2.13l-.11.07s-.13.06-.08,0l0,0-.13,0-.12,0c.07,0,0,0,0,0h-.13c.11,0,0,0,0,0s.06.06,0,0l-.1-.06c.11.07,0,0,0-.06.14.14-.06-.13,0,0s0,0,0,0a.26.26,0,0,0,0-.11c0-.06,0,.11,0,0s0-.11,0-.11-.06.16,0,0,0,0,0,0,0,0,0,0l.09-.09a.62.62,0,0,0,0-.88.64.64,0,0,0-.88,0Z"/><path class="cls-1" d="M10.42,6.56C9.33,4.39,8.07,2.09,5.7,1.12A4.15,4.15,0,0,0,.39,2.74c-1,1.93.17,4,2,4.85a13,13,0,0,0,3.47.93,9.18,9.18,0,0,0,3.94,0c.56-.14.63-1.1,0-1.2A6.19,6.19,0,0,0,4.92,8.45c-1.24,1-2.38,2.63-2,4.28A2.61,2.61,0,0,0,6.4,14.44a5.89,5.89,0,0,0,3.65-3.88c.26-.73-.74-1-1.14-.49C7.56,11.84,6.34,14,6.8,16.27a3.79,3.79,0,0,0,3.91,3.19c1.81-.15,2.79-1.83,3-3.48a8.19,8.19,0,0,0-2.12-6.11.64.64,0,0,0-1.07.45,4.8,4.8,0,0,0,7.82,3.52c1.16-1,2.12-2.78.73-4A4.87,4.87,0,0,0,16.56,9a30,30,0,0,0-4-.32.63.63,0,0,0,0,1.25,14,14,0,0,0,7.39-1.52c1.5-.77,3.53-2.69,1.67-4.27a5.23,5.23,0,0,0-2.82-1,9.3,9.3,0,0,0-3.68.15c-2,.67-2.19,3-3.48,4.42-.46.5.15,1.41.75,1,1.51-1.06,3-2.54,3.24-4.48A3.82,3.82,0,0,0,13.22.3C9.88-1.11,6.9,2.69,8.57,5.73,9,6.44,10,5.81,9.65,5.1A2.54,2.54,0,0,1,13,1.56c2.93,1.57.61,4.74-1.24,6l.76,1A23.1,23.1,0,0,0,14.38,5.4c1-1.5,3.53-1.28,5.09-.91a2.77,2.77,0,0,1,1.37.61c.56.63,0,1.17-.47,1.55a8.64,8.64,0,0,1-2.43,1.26,13,13,0,0,1-5.4.75V9.91a21.57,21.57,0,0,1,4.54.43c.58.13,1.28.32,1.37,1s-.63,1.36-1.13,1.72a3.54,3.54,0,0,1-5.58-2.71l-1.06.44a7.19,7.19,0,0,1,1.79,4.36c0,1.29-.44,3.1-2,3.11S7.91,16.58,8,15.12a8,8,0,0,1,2-4.42l-1.14-.48A4.91,4.91,0,0,1,6.59,13c-1.26.64-2.85.18-2.41-1.49.58-2.18,3.15-3.4,5.26-3.06V7.28A10.75,10.75,0,0,1,4.11,6.9C2.51,6.46.28,5,1.65,3.09,2.8,1.5,4.89,1.86,6.29,2.88A11.38,11.38,0,0,1,9.34,7.19c.37.72,1.45.09,1.08-.63Z"/><path class="cls-1" d="M29.27,24.48A13.89,13.89,0,0,1,29,15.41c1-3.09,3-5.91,4.58-8.7a.63.63,0,0,0-1.08-.63c-1.72,3-3.82,6-4.8,9.3a15.06,15.06,0,0,0,.33,9.43c.28.75,1.49.42,1.21-.33Z"/><path class="cls-1" d="M32.76,6.05a74.35,74.35,0,0,1,.51,12.21,54.16,54.16,0,0,1-.52,6.1c-.24,1.51-.67,3.14-2.16,3.84-.73.35-.1,1.43.63,1.08,3.17-1.49,3-6.35,3.21-9.28A74.77,74.77,0,0,0,34,6.05c-.1-.78-1.35-.79-1.25,0Z"/></g></g></svg>