<svg xmlns="http://www.w3.org/2000/svg" viewBox="0 0 36.55 34.52"><defs><style>.cls-1{fill:#1d1d1b;}</style></defs><g id="Layer_2" data-name="Layer 2"><g id="Слой_22" data-name="Слой 22"><path class="cls-1" d="M35.92.65h-.51a.42.42,0,0,0-.24,0,.63.63,0,0,0-.2.13.53.53,0,0,0-.13.2.52.52,0,0,0-.05.24l0,.17a.53.53,0,0,0,.16.27l.13.1a.59.59,0,0,0,.31.09h.51a.54.54,0,0,0,.25-.06.41.41,0,0,0,.2-.13.46.46,0,0,0,.13-.2.47.47,0,0,0,0-.24l0-.16a.71.71,0,0,0-.16-.28l-.13-.1a.69.69,0,0,0-.32-.08Z"/><path class="cls-1" d="M35.5.72C30.65-.76,25.59.2,21.05,2.2c-4.32,1.9-8.71,4.71-11.4,8.67-2.52,3.71-3.27,8.75-.72,12.64,2.37,3.64,6.72,5.67,10.85,6.54,4.84,1,11-.17,12.5-5.63a.62.62,0,0,0-1.2-.33c-1.3,4.75-6.8,5.62-11,4.75-3.69-.77-7.66-2.49-9.91-5.67-2.56-3.63-1.81-8.35.64-11.84S17,5.51,20.7,3.73C25.19,1.57,30.3.44,35.16,1.92c.77.24,1.1-1,.34-1.2Z"/><path class="cls-1" d="M30.32,24.19c-2.5.31-5.29.37-7.59-.82-1-.53-2.47-1.54-2.48-2.83C20.25,19,21.83,18,23,17.26c.67-.43.05-1.51-.64-1.08-1.46.92-3,2-3.31,3.86s1,3,2.28,3.94c2.58,1.77,6,1.84,9,1.46.79-.1.8-1.35,0-1.25Z"/><path class="cls-1" d="M10.22,9.32c-5,2-10.13,6-10.22,11.86s4.92,11.73,10.52,13.1c3,.72,6.29-.16,7.9-2.9a.62.62,0,0,0-1.07-.63c-2,3.31-6.23,2.89-9.14,1.25a14,14,0,0,1-6.33-7.28C-.54,18,4.78,12.84,10.55,10.53c.74-.3.42-1.51-.33-1.21Z"/><path class="cls-1" d="M18.4,30.21a1,1,0,0,0,.24,0h.08a1.09,1.09,0,0,0,.24,0,1,1,0,0,0,.22-.09.6.6,0,0,0,.13-.09l.12-.1a1.11,1.11,0,0,0,.23-.41.43.43,0,0,0,0-.25A.48.48,0,0,0,19.6,29a.55.55,0,0,0-.16-.18.51.51,0,0,0-.22-.11l-.16,0a.72.72,0,0,0-.32.08l-.12.1a.61.61,0,0,0-.16.28l0,0,.07-.15-.05.09.1-.13-.07.07.12-.1-.09.06.15-.07a.23.23,0,0,1-.11,0l.17,0h-.1l.17,0h-.07a.43.43,0,0,0-.25,0,.39.39,0,0,0-.23.07.55.55,0,0,0-.18.16.53.53,0,0,0-.11.21l0,.17a.56.56,0,0,0,.09.31l.09.13a.61.61,0,0,0,.28.16Z"/><path class="cls-1" d="M18.73,29.25l-1.35,1.22a.61.61,0,0,0-.19.44.6.6,0,0,0,.19.44.61.61,0,0,0,.44.19.68.68,0,0,0,.44-.19l1.36-1.21a.63.63,0,0,0-.45-1.07.72.72,0,0,0-.44.18Z"/></g></g></svg>