<svg xmlns="http://www.w3.org/2000/svg" heigth="21px" width="60px" viewBox="0 0 61.39 22.48"><defs><style>.cls-1{fill:#1d1d1b;}</style></defs><g id="Layer_2" data-name="Layer 2"><g id="Слой_25" data-name="Слой 25"><path class="cls-1" d="M52,.92c-3.74-1-7.52,2-9.5,5a6.45,6.45,0,0,0-1.07,5.4A6.6,6.6,0,0,0,45,14.92a11.88,11.88,0,0,0,11.17,0c2.89-1.63,5.33-4.87,5.23-8.32C61.24,1.72,55.37,1,51.72,0a.62.62,0,0,0-.33,1.2c1.63.45,3.29.85,4.9,1.37A5.43,5.43,0,0,1,59.77,5c1.38,2.78-.86,6.29-3,8a10.19,10.19,0,0,1-8.87,1.71,9.65,9.65,0,0,1-4.23-2.19,4.18,4.18,0,0,1-.79-4.76,10.9,10.9,0,0,1,3.64-4.25,6,6,0,0,1,5.15-1.39A.62.62,0,0,0,52,.92Z"/><path class="cls-1" d="M14.41,5.65A11.27,11.27,0,0,0,2.78,9.07c-2.4,2.85-4.13,8.27-1.37,11.46,1.34,1.54,3.52,1.89,5.46,1.94a19,19,0,0,0,6.54-.85c3.8-1.28,7.29-4.75,6.89-9s-5-7-9.08-6.88a.63.63,0,0,0,0,1.25c3.06-.06,6.62,1.47,7.61,4.6,1.11,3.54-1.54,7-4.62,8.42A15,15,0,0,1,8.69,21.2a10.46,10.46,0,0,1-5.26-.67c-3.5-1.79-2.08-7.22-.37-9.77a10,10,0,0,1,11-3.91.62.62,0,0,0,.33-1.2Z"/></g></g></svg>