<svg width="150px" height="58px" xmlns="http://www.w3.org/2000/svg" viewBox="0 0 74.61 28.73"><defs><style>.cls-1{fill:#008d36;}.cls-2{fill:#1d1d1b;}.cls-3{fill:#634e42;}</style></defs><g id="Layer_2" data-name="Layer 2"><g id="волосики"><g id="baby-cat-head-1"><g id="color-mask"><path class="cls-1" d="M.64,3.45c12-4.84,28.54-2.8,40.68,1.77,7,2.65,15.12,5.82,18,12.73a1.32,1.32,0,0,1,.08.33c0,.1,0,.42,0,.42a8,8,0,0,1-2.09,2.14c-7,3.69-15.28,4.52-23.08,3.27s-15.19-4.47-22-8.5c-5.08-3-9.7-6.5-11.62-12.08"/><path class="cls-2" d="M.81,4.05C8.66,1,17.44.77,25.72,1.92A76.3,76.3,0,0,1,48.7,9c3.28,1.61,6.55,3.68,8.68,6.73a9.08,9.08,0,0,1,1.28,2.24c.32.93-.77,1.72-1.48,2.23a21.11,21.11,0,0,1-6.61,2.64c-8.94,2.4-18.38,1-26.9-2.27A70.5,70.5,0,0,1,10,13.45C6.18,10.93,2.81,7.74,1.24,3.37,1,2.62-.23,2.94,0,3.7a20.6,20.6,0,0,0,7.31,9.41A63.58,63.58,0,0,0,19.88,20.3c8.9,4,18.79,6.14,28.51,4.29a34.43,34.43,0,0,0,6.85-2.07,11.47,11.47,0,0,0,2.82-1.47,5.55,5.55,0,0,0,2-2.18c.4-1.36-1.12-3.23-1.86-4.22a19.13,19.13,0,0,0-3.91-3.82A45,45,0,0,0,43.49,5.38,80.38,80.38,0,0,0,30.71,1.52C20.85-.51,10-.91.48,2.85c-.74.29-.42,1.5.33,1.2Z"/><path class="cls-3" d="M61.9,20.17c3.79,2.24,7.67,4.55,10.5,7.93A8.86,8.86,0,0,0,74,25c-3.55-3.53-9-4.31-13.66-6a3,3,0,0,0-1.1,0"/><path class="cls-2" d="M61.58,20.71c3.75,2.21,7.53,4.48,10.38,7.83a.61.61,0,0,0,.88,0,9.93,9.93,0,0,0,1.74-3.41.62.62,0,0,0-.16-.61,18.5,18.5,0,0,0-7.11-4c-1.31-.45-2.65-.84-4-1.24-.7-.21-1.4-.42-2.09-.65a4.22,4.22,0,0,0-2-.25c-.79.09-.8,1.34,0,1.25a3.64,3.64,0,0,1,.93-.06,8.52,8.52,0,0,1,1,.33c.62.21,1.25.4,1.87.59,1.26.38,2.53.74,3.77,1.16a17.29,17.29,0,0,1,6.77,3.75l-.16-.61A8.27,8.27,0,0,1,72,27.66h.88c-2.91-3.43-6.8-5.77-10.63-8a.63.63,0,0,0-.63,1.08Z"/></g><path class="cls-2" d="M.81,4.05C9,.83,18.16.75,26.74,2.07A73,73,0,0,1,50.15,9.72a23.75,23.75,0,0,1,5.33,3.78A15.07,15.07,0,0,1,57.58,16a5.4,5.4,0,0,1,1.21,2.72.63.63,0,0,0,1.25,0c0-1.59-1.2-3.19-2.13-4.38a19.36,19.36,0,0,0-4.23-3.9A50.37,50.37,0,0,0,42.48,5,71.5,71.5,0,0,0,15.4.06,43.18,43.18,0,0,0,.48,2.85c-.74.29-.42,1.5.33,1.2Z"/><path class="cls-2" d="M0,3.7c2.75,7.69,10.49,12,17.41,15.45,8.07,4,17,6.62,26.06,6.05a35.35,35.35,0,0,0,14.13-3.82c.72-.37.09-1.45-.63-1.08-15.47,8-34.37,2-47.82-7.38C5.72,10.49,2.7,7.43,1.24,3.37,1,2.62-.23,2.94,0,3.7Z"/><path class="cls-2" d="M59.22,19.63a3.64,3.64,0,0,1,.93-.06,8.52,8.52,0,0,1,1,.33c.62.21,1.25.4,1.87.59,1.26.38,2.53.74,3.77,1.16a17.29,17.29,0,0,1,6.77,3.75c.58.56,1.46-.32.89-.88a18.5,18.5,0,0,0-7.11-4c-1.31-.45-2.65-.84-4-1.24-.7-.21-1.4-.42-2.09-.65a4.22,4.22,0,0,0-2-.25c-.79.09-.8,1.34,0,1.25Z"/><path class="cls-2" d="M58.88,18.39l-.2.3-.12.16c0,.06.11-.13,0,0l-.06.07c-.16.19-.33.37-.51.55a13,13,0,0,1-1.13,1,.61.61,0,0,0-.19.44.64.64,0,0,0,.19.45.59.59,0,0,0,.44.18.81.81,0,0,0,.44-.18A8.56,8.56,0,0,0,60,19a.62.62,0,1,0-1.07-.63Z"/><path class="cls-2" d="M.64,4.07C8.73,4.21,16.22,8.13,24,10c7.23,1.76,14.65,2.73,21.8,4.82A47,47,0,0,1,57.55,20c.68.43,1.31-.65.63-1.08-6.45-4.06-13.86-6-21.26-7.46C33.13,10.66,29.31,10,25.53,9.1S17.81,7,14,5.67C9.66,4.21,5.25,2.9.64,2.82a.63.63,0,0,0,0,1.25Z"/><path class="cls-2" d="M20.92,1.55a25.06,25.06,0,0,0,5.35,8.06c.57.57,1.45-.31.89-.89a23.53,23.53,0,0,1-5-7.5.65.65,0,0,0-.77-.44.63.63,0,0,0-.43.77Z"/><path class="cls-2" d="M34.63,3.88a22,22,0,0,0,3.69,8.46.64.64,0,0,0,.86.23.63.63,0,0,0,.22-.86,20.92,20.92,0,0,1-3.56-8.17c-.16-.78-1.37-.45-1.21.34Z"/><path class="cls-2" d="M47.43,8.17a14.25,14.25,0,0,0,.37,5.44A.63.63,0,0,0,49,13.28a13.36,13.36,0,0,1-.33-5.11.63.63,0,1,0-1.25,0Z"/><path class="cls-2" d="M16,15.64a1.46,1.46,0,0,0-1.22.19.63.63,0,0,0,.63,1.08,69.38,69.38,0,0,0,10.91-6.34c.65-.46,0-1.55-.63-1.08a69.83,69.83,0,0,1-10.91,6.34l.63,1.08a.22.22,0,0,1,.26-.07c.78.19,1.11-1,.33-1.2Z"/><path class="cls-2" d="M29.93,23.2a51.53,51.53,0,0,0,9.62-10.38c.46-.66-.62-1.28-1.08-.63a50.32,50.32,0,0,1-9.42,10.13c-.62.51.26,1.39.88.88Z"/><path class="cls-2" d="M41.11,25.15a41.14,41.14,0,0,0,7-10.09c.35-.72-.73-1.35-1.08-.63a39.7,39.7,0,0,1-6.86,9.84c-.55.58.34,1.47.89.88Z"/><path class="cls-2" d="M21.67,25.29c.78-.54,1.6-1,2.43-1.49.41-.23.83-.46,1.26-.67l.54-.27.24-.11.13-.06c-.09,0-.07,0,0,0a.64.64,0,0,0,.43-.77.63.63,0,0,0-.77-.43,22.45,22.45,0,0,0-2.41,1.19c-.85.48-1.69,1-2.49,1.53a.65.65,0,0,0-.23.86.63.63,0,0,0,.86.22Z"/><path class="cls-2" d="M50.55,9.85A14,14,0,0,0,52,9.61l.3,0c.1,0-.19,0,0,0l.11,0,.24,0c.56,0,1.12-.08,1.68-.1a.64.64,0,0,0,.62-.63.62.62,0,0,0-.62-.62,16.07,16.07,0,0,0-2.59.22l-.48.1c-.1,0-.21,0-.31.06s.14,0,0,0l-.11,0-.27,0a.64.64,0,0,0-.63.62.65.65,0,0,0,.63.63Z"/><path class="cls-2" d="M58.9,19.55a13.59,13.59,0,0,0,1.72.72,11.67,11.67,0,0,1,1.82.95c1.15.68,2.3,1.37,3.41,2.11A28.21,28.21,0,0,1,72,28.54a.61.61,0,0,0,.88,0,9.93,9.93,0,0,0,1.74-3.41c.25-.77-1-1.1-1.21-.34A8.27,8.27,0,0,1,72,27.66h.88a29,29,0,0,0-6.15-5.27c-1.11-.74-2.25-1.44-3.4-2.13a15.08,15.08,0,0,0-1.81-1,19.46,19.46,0,0,1-1.95-.8c-.7-.39-1.33.69-.63,1.08Z"/></g></g></g></svg>
