<svg width='100px' height="56px" xmlns="http://www.w3.org/2000/svg" viewBox="0 0 50.14 28.01"><defs><style>.cls-1{fill:#1d1d1b;}</style></defs><g id="Layer_2" data-name="Layer 2"><g id="Слой_11" data-name="Слой 11"><path class="cls-1" d="M39.92,1a87.28,87.28,0,0,0-2.16,13,19.71,19.71,0,0,0,.06,5.89,19.65,19.65,0,0,0,2.49,5.55.63.63,0,0,0,1.08-.63A18.67,18.67,0,0,1,39,19.47a20.25,20.25,0,0,1,0-6A84.86,84.86,0,0,1,41.12,1.29c.19-.78-1-1.11-1.2-.33Z"/><path class="cls-1" d="M39.77.78A24.16,24.16,0,0,0,41.48,6.4l2.43,5.93c1.34,3.28,2.57,6.75,5.16,9.29.58.57,1.46-.32.89-.88-2.62-2.57-3.8-6.18-5.15-9.49C43.39,7.77,41.52,4.2,41,.45c-.12-.79-1.32-.45-1.21.33Z"/><path class="cls-1" d="M40.49,25.69a10.22,10.22,0,0,0,8.8-3.5c.52-.61-.36-1.5-.88-.88a9.08,9.08,0,0,1-7.92,3.13.64.64,0,0,0-.62.63.63.63,0,0,0,.62.62Z"/><path class="cls-1" d="M.47,2.59A35.3,35.3,0,0,1,10.9,21c.17.78,1.37.45,1.2-.34A36.41,36.41,0,0,0,1.35,1.71C.76,1.16-.12,2,.47,2.59Z"/><path class="cls-1" d="M1.48,1.82l-.31-.68C.9.54,0,.88,0,1.45-.1,5.74,1.25,10,1.77,14.22a82.26,82.26,0,0,1,.52,12.94c0,.81,1.22.81,1.25,0A82.26,82.26,0,0,0,3,14.22C2.5,10,1.15,5.73,1.26,1.45L.09,1.77l.31.68c.33.73,1.4.1,1.08-.63Z"/><path class="cls-1" d="M3.37,28a18.58,18.58,0,0,0,8.21-3.31.64.64,0,0,0,.22-.86.62.62,0,0,0-.85-.22A17.73,17.73,0,0,1,3,26.79a.64.64,0,0,0-.44.77.65.65,0,0,0,.77.44Z"/><path class="cls-1" d="M10.78,20.78l.27,2.55a.66.66,0,0,0,.19.44.6.6,0,0,0,.44.18.62.62,0,0,0,.62-.62L12,20.78a.7.7,0,0,0-.18-.44.68.68,0,0,0-.45-.19c-.3,0-.66.28-.62.63Z"/></g></g></svg>
