<svg width="122px" height="46px" xmlns="http://www.w3.org/2000/svg" viewBox="0 0 61.35 22.58"><defs><style>.cls-1{fill:#1d1d1b;}</style></defs><g id="Layer_2" data-name="Layer 2"><g id="бровки"><g id="baby-cat-brows-1"><path class="cls-1" d="M51.54.05A12.24,12.24,0,0,0,45.72,2.7,11.21,11.21,0,0,0,41.8,7.12a5.58,5.58,0,0,0,.33,5.6,9.56,9.56,0,0,0,5,3.11,11.46,11.46,0,0,0,11.08-2.36c2.64-2.43,4.44-6.76,2.07-10a9.42,9.42,0,0,0-4.49-3A9.55,9.55,0,0,0,51.54.05c-.8.05-.81,1.3,0,1.25a9,9,0,0,1,3.35.16,11.15,11.15,0,0,1,2.82,1.31,5,5,0,0,1,2.41,4.15,7.71,7.71,0,0,1-1.75,4.51,9.86,9.86,0,0,1-8.7,3.64c-3.25-.29-8-2.3-7.11-6.31A8.38,8.38,0,0,1,46,4.06c1.63-1.24,3.48-2.53,5.57-2.76.79-.09.8-1.34,0-1.25Z"/><path class="cls-1" d="M14.39,5.69A11.33,11.33,0,0,0,3.24,8.58C.68,11.24-1,15.9.66,19.45s7,3.34,10.34,2.8c3.91-.64,7.64-2.83,8.94-6.76,1.38-4.2-1.5-8.52-5.55-9.8-.76-.24-1.09,1-.33,1.21,3.07,1,5.55,4.15,4.89,7.46-.71,3.48-3.8,5.64-7.07,6.44a19.5,19.5,0,0,1-5.17.47c-1.56-.05-3.37-.31-4.44-1.58s-1.11-3.42-.8-5A10.27,10.27,0,0,1,3.64,10,10,10,0,0,1,14.06,6.9a.63.63,0,0,0,.33-1.21Z"/></g></g></g></svg>
