<svg width="114px" height="50px" xmlns="http://www.w3.org/2000/svg" viewBox="0 0 56.87 25.14"><defs><style>.cls-1{fill:#1d1d1b;}</style></defs><g id="Layer_2" data-name="Layer 2"><g id="бровки"><g id="baby-cat-brows-3"><path class="cls-1" d="M4.52,3.8C.37,4.3-.17,9.93,0,13.23A13,13,0,0,0,5.5,23.39c2.65,1.78,7.78,3.05,9.55-.54a13.75,13.75,0,0,0,1.14-6.11,9.62,9.62,0,0,0-1.85-5.39A31.34,31.34,0,0,0,10,6.78c-1.53-1.42-3.16-3.27-5.47-3-.79.09-.8,1.34,0,1.25,1.81-.23,3.05,1.18,4.26,2.31S11,9.4,12,10.51a11.24,11.24,0,0,1,2.49,3.86,10.59,10.59,0,0,1,.13,5.39c-.3,1.61-.68,3.51-2.5,4A7.32,7.32,0,0,1,7.41,23a10.89,10.89,0,0,1-5.72-7.29,14.47,14.47,0,0,1-.21-6.11c.31-1.78.87-4.33,3-4.59.79-.1.8-1.35,0-1.25Z"/><path class="cls-1" d="M46.62,1.06a17,17,0,0,0-3.7,7.23c-.64,2.37-1.33,5.29-.76,7.73,1.08,4.54,6.62,8,10.83,5,2.6-1.8,3.54-5.23,3.8-8.21a16.47,16.47,0,0,0-1.87-9.7A6.43,6.43,0,0,0,51.61.24,6.13,6.13,0,0,0,46.75,1c-.71.38-.08,1.46.63,1.08,5.93-3.23,8.22,4.68,8.23,9.12,0,2.66-.47,5.71-2.21,7.82-2.82,3.43-7.78,1.69-9.54-1.91-1.14-2.34-.52-5.18,0-7.6a16.3,16.3,0,0,1,3.6-7.53c.54-.59-.34-1.47-.89-.88Z"/></g></g></g></svg>
