<svg width="140px" height="82px" xmlns="http://www.w3.org/2000/svg" viewBox="0 0 70.03 40.86"><defs><style>.cls-1{fill:#1d1d1b;}</style></defs><g id="Layer_2" data-name="Layer 2"><g id="волосики"><g id="baby-cat-head-2"><path class="cls-1" d="M45.52,17.74a3.57,3.57,0,0,1-3.34-.28,6.33,6.33,0,0,1-2.26-2.55c-.48-.88-.84-2.19.12-2.9a4.16,4.16,0,0,1,2.85-.53,4.12,4.12,0,0,1,3,1.49c.46.65,1.55,0,1.08-.63a5.23,5.23,0,0,0-3.51-2,5.93,5.93,0,0,0-3.93.53c-3,1.81-.48,6,1.59,7.45a4.94,4.94,0,0,0,5,.54.62.62,0,0,0,.23-.85.64.64,0,0,0-.86-.23Z"/><path class="cls-1" d="M53.6,19.17c1.51-.25,2-2.28,2-3.58A14.47,14.47,0,0,0,54,9.88a17.59,17.59,0,0,0-9-8.63A17.32,17.32,0,0,0,23,10,17.71,17.71,0,0,0,23,24.45c.33.73,1.41.1,1.08-.63A15.87,15.87,0,0,1,50.84,7.14a16.37,16.37,0,0,1,3,5.57,11.3,11.3,0,0,1,.56,2.88c0,.75-.22,2.23-1.11,2.37s-.45,1.34.34,1.21Z"/><path class="cls-1" d="M49,4.59c5-.82,10.21-.72,14.65,2a9.87,9.87,0,0,1,4.25,4.86,11.19,11.19,0,0,1,.73,6.1c-.15.79,1.06,1.13,1.21.33a12,12,0,0,0-5-12C60,2.62,54.17,2.48,48.65,3.39c-.79.13-.45,1.33.33,1.2Z"/><path class="cls-1" d="M55.56,10.47a7.73,7.73,0,0,1,6.61.4A4.74,4.74,0,0,1,64,13a2.7,2.7,0,0,1-.21,2.77c-.54.6.35,1.48.88.88,1.81-2.05.5-5-1.4-6.49-2.31-1.76-5.38-1.7-8-.85-.76.25-.43,1.46.34,1.21Z"/><path class="cls-1" d="M25,6.47c-5.24.3-10.27,2.24-13.27,6.75-3.44,5.15-2,11.2-.38,16.72a.63.63,0,0,0,1.21-.34c-1.51-5.07-3-10.64.06-15.46C15.36,9.84,20.14,8,25,7.72c.8,0,.81-1.29,0-1.25Z"/><path class="cls-1" d="M11.68,13.47A17.51,17.51,0,0,0,.7,25.33a27.83,27.83,0,0,0-.62,4.46A12.09,12.09,0,0,0,.3,34,14.16,14.16,0,0,0,4.66,40.7c.61.52,1.49-.36.88-.89a13.13,13.13,0,0,1-4-5.93c-.74-2.48-.28-5.76.35-8.22a16.2,16.2,0,0,1,10.1-11c.76-.25.44-1.45-.33-1.21Z"/></g></g></g></svg>
