<svg xmlns="http://www.w3.org/2000/svg" viewBox="0 0 2112.43 2592.53"><defs><style>.cls-1{fill:#72747a;}.cls-2{fill:#191b1a;}.cls-3{fill:#c7c7c7;}.cls-4{fill:#c588a0;}</style></defs><g id="Layer_2" data-name="Layer 2"><g id="_ëîé_1" data-name="‘ëîé_1"><path class="cls-1" d="M189,97.22c-1.8,4.2-2.4,93-1.8,196.84l1.8,189,46.81,1.8,46.21,1.8v82.82l-46.21,1.8L189,573.12l-1.8,100.22L186,774.16h96v84H186v108h96v84H185.44l1.8,52.21,1.8,52.81,46.81,1.8,46.21,1.81v82.81l-46.21,1.8-46.81,1.8-1.8,142.23L186,1529.71l-46.81,1.8L93,1533.31v486.1l46.21,1.8,46.21,1.8,1.8,46.21,1.8,46.21,52.81,1.8,52.21,1.8v-96.62h96v-96h192v-108h-96v-192h-96v-96h-96v-180h96v-96H678.14v-108h-96v-180h96v-96h96V582.12h96V294.06h84V582.12h96V870.18h96v96h96v180h-96v108h288.06v96h96v180h-96v96h-96v192h-96v108h192v96h96V2119l52.81-1.8,52.21-1.8,1.8-46.81,1.8-46.21h82.82l1.8,46.21,1.8,46.81,46.81,1.8,46.21,1.8v384.08l52.81-1.8,52.21-1.8,1.8-46.21,1.8-46.21,46.21-1.8,46.21-1.8V2013.41l-46.21-1.8-46.21-1.8-1.8-46.21-1.8-46.21-52.21-1.8-52.81-1.8v96.62h-84l-1.2-238.85-1.8-238.25-46.21-1.8-46.81-1.8-1.2-142.23-1.8-142.23-46.21-1.8-46.81-1.8v-82.81l46.81-1.81,46.21-1.8,1.8-52.81,1.8-52.21h-96.62v-84h96v-108h-96v-84h96l-1.2-100.82-1.8-100.22-46.21-1.8-46.81-1.8V486.7l46.81-1.8,46.21-1.8V93h-198l-1.8,46.21-1.8,46.21-46.21,1.8-46.21,1.8-1.8,46.21-1.8,46.81h-82.82l-1.8-46.81-1.8-46.21H573.12l-1.8,46.21-1.8,46.81H486.7l-1.8-46.81L483.1,189l-46.21-1.8-46.21-1.8-1.8-46.21L387.08,93l-97.82-1.8L192,90Zm189,190.84v90h-84V198h84Zm1152.23,0v90h-84V198h84ZM666.14,768.16v90h-180v-180h180Zm672.13,0v90h-180v-180h180Zm-864.17,144v42h-180v-84h180Zm1056.21,0v42h-180v-84h180Z"/><path class="cls-2" d="M192,48V96H96V480.1h96v96H96v192H0v96H96v96H0v96H96v96h96v96H96v288.06H0v480.1H96v96h96v96h192v96H672.14v-96h480.09v96h288.06v-96h192v96h-96v192h96v96h288.06v-96h96v-96h96V2016.41h-96v-96h-96v-96h-96V1536.31h-96V1248.25h-96v-96h96v-96h96v-96h-96v-96h96v-96h-96v-192h-96v-96h96V96h-96V0h-192V96h-96v96h-96V96H576.12v96h-96V96h-96V0H192Zm190.84,97.22L381.08,195l49.81-1.8,49.21-1.8v96.62h96V192h672.13v96h96V191.44l49.81,1.8,49.21,1.8-1.8-49.81L1439.69,96h192.64V480.1h-96v96h96v192h-95.42l-1.8,49.21-1.8,49.81,49.81-1.8,49.21-1.8V960.8L1583.12,959l-49.81-1.8,1.8,49.21,1.8,49.81h95.42v96h-96v96h96v288.06h96v480.1h96v-96h96v96h96v384.08h-96v97.82l-73.21-3.6c-39.61-2.4-103.23-4.2-141-4.2h-67.82v-180h186v-198h-96v96h-96v-96h-96v-96h-96v-96h-70.21c-39,0-105-1.8-147-4.2l-76.82-3.6v97.82h-96v96H774.16v-96h-96v-97.82l-76.22,3.6c-42.61,2.4-108.62,4.2-147,4.2H384.08v96h-96v96H192v-96H96v-480.1h96V1248.25h96v-96H192v-96h95.42l1.8-49.81,1.8-49.21L241.85,959,192,960.8V863.58l49.81,1.8,49.21,1.8-1.8-49.81-1.8-49.21H192v-192h96v-96H192V96H384.68Zm283.26,1967.2v90H390.08v-180H666.14Zm768.15,0v90h-276v-180h276Z"/><path class="cls-2" d="M478.9,769.36l-1.8,97.82h198l-1.8-97.82-1.8-97.22H480.7Z"/><path class="cls-2" d="M1151,769.36l-1.8,97.82h198l-1.8-97.82-1.8-97.22H1152.83Z"/><path class="cls-2" d="M766.36,861.78c-2.4,2.4-4.21,27-4.21,54.61V966.2h96v96h108v-96h96.62l-1.8-52.81-1.81-52.22-144.62-1.8C835.37,858.77,768.76,860,766.36,861.78Z"/><path class="cls-2" d="M529.91,1247.05l-145.83,1.2v96h-96v192h96v94.22l73.21,3.6c39.61,2.4,106.22,4.2,147,4.2h73.82v-96h96v-204H678.74l-1.8-46.81-1.8-46.21Zm136.23,193.24v90H390.08v-180H666.14Z"/><path class="cls-2" d="M1146.23,1291.46v46.81h-96v204h96v96h73.82c40.81,0,107.42-1.8,147-4.2l73.21-3.6v-94.22h96v-192h-96v-95.42l-147-1.8-147-1.8Zm288.06,148.83v90h-276v-180h276Z"/><path class="cls-2" d="M1632.33,2064.42v48h96v-96h-96Z"/><path class="cls-3" d="M288.06,288.06v96h96V192h-96Z"/><path class="cls-3" d="M1440.29,288.06v96h96V192h-96Z"/><path class="cls-3" d="M864.18,432.09v144h-96V864.18h-96v96h-96v192h96v192H384.08v192H672.14v96h-192v192h96v96h96v96H384.08v192H672.14v-192h96v96h288.05v-96h96v192h288.06v-192H1152.23v-96h96v-96h96v-192h-192v-96h288.06v-192H1152.23v-192h96v-192h-96v-96h-96V576.12h-96V288.06h-96Zm192,480.1v48h-96v96h-96v-96h-96v-96h288.05Zm-288.05,528.1v96h-96v-192h96Zm384.07,0v96h-96v-192h96Z"/><path class="cls-3" d="M1632.33,2400.49v96h192v-192h-192Z"/><path class="cls-4" d="M288.06,912.19v48h192v-96h-192Z"/><path class="cls-4" d="M1344.27,912.19v48h192v-96h-192Z"/></g></g></svg>