<svg xmlns="http://www.w3.org/2000/svg" viewBox="0 0 1771.39 1489.81"><defs><style>.cls-1{fill:#c48e76;}.cls-2{fill:#edddd3;}.cls-3{fill:#191919;}.cls-4{fill:#8f5831;}.cls-5{fill:#f6a39b;}.cls-6{fill:#d69a60;}</style></defs><g id="Layer_2" data-name="Layer 2"><g id="Dog_Head_Pixel_Single_11" data-name="Dog Head Pixel Single 11"><rect class="cls-1" x="1062.84" y="1270.72" width="44.28" height="43.82"/><polygon class="cls-2" points="885.7 1314.53 929.98 1314.53 929.98 1270.72 885.7 1270.72 841.41 1270.72 841.41 1314.53 885.7 1314.53"/><path class="cls-2" d="M708.56,1314.53h88.57v-43.81h44.28V1226.9H930v43.82h44.29v43.81h88.57v-43.81h44.28V1051.63h-44.28v-43.82h-44.29V964H752.84v43.82H708.56v43.82H664.27v219.09h44.29Zm132.85-306.72H974.27v43.82H930v43.82H841.41v-43.82H797.13v-43.82Z"/><polygon class="cls-2" points="1372.83 1139.26 1328.55 1139.26 1284.26 1139.26 1239.98 1139.26 1195.69 1139.26 1195.69 1095.44 1151.41 1095.44 1151.41 1139.26 1151.41 1183.08 1151.41 1226.9 1151.41 1270.72 1107.12 1270.72 1107.12 1314.53 1062.84 1314.53 1062.84 1358.35 1018.55 1358.35 974.27 1358.35 929.98 1358.35 885.7 1358.35 841.41 1358.35 797.13 1358.35 752.84 1358.35 708.56 1358.35 708.56 1314.53 664.27 1314.53 664.27 1270.72 619.99 1270.72 619.99 1226.9 619.99 1183.08 619.99 1139.26 575.7 1139.26 531.42 1139.26 531.42 1183.08 487.13 1183.08 442.85 1183.08 398.56 1183.08 354.28 1183.08 354.28 1226.9 354.28 1270.72 398.56 1270.72 398.56 1314.53 442.85 1314.53 442.85 1358.35 487.13 1358.35 487.13 1402.17 531.42 1402.17 575.7 1402.17 575.7 1445.99 619.99 1445.99 664.27 1445.99 708.56 1445.99 708.56 1489.81 752.84 1489.81 797.13 1489.81 841.41 1489.81 885.7 1489.81 929.98 1489.81 974.27 1489.81 1018.55 1489.81 1062.84 1489.81 1062.84 1445.99 1107.12 1445.99 1151.41 1445.99 1151.41 1402.17 1195.69 1402.17 1239.98 1402.17 1239.98 1358.35 1284.26 1358.35 1284.26 1314.53 1328.55 1314.53 1328.55 1270.72 1372.83 1270.72 1372.83 1226.9 1417.12 1226.9 1417.12 1183.08 1417.12 1139.26 1372.83 1139.26"/><polygon class="cls-1" points="974.27 1314.53 974.27 1270.72 929.98 1270.72 929.98 1314.53 885.7 1314.53 841.41 1314.53 841.41 1270.72 797.13 1270.72 797.13 1314.53 752.84 1314.53 708.56 1314.53 708.56 1358.35 752.84 1358.35 797.13 1358.35 841.41 1358.35 885.7 1358.35 929.98 1358.35 974.27 1358.35 1018.55 1358.35 1062.84 1358.35 1062.84 1314.53 1018.55 1314.53 974.27 1314.53"/><rect class="cls-1" x="664.27" y="1270.72" width="44.28" height="43.82"/><polygon class="cls-1" points="929.98 1270.72 929.98 1226.9 885.7 1226.9 841.41 1226.9 841.41 1270.72 885.7 1270.72 929.98 1270.72"/><polygon class="cls-1" points="664.27 1183.08 664.27 1139.26 664.27 1095.44 619.99 1095.44 619.99 1139.26 619.99 1183.08 619.99 1226.9 619.99 1270.72 664.27 1270.72 664.27 1226.9 664.27 1183.08"/><polygon class="cls-1" points="1107.12 1095.44 1107.12 1139.26 1107.12 1183.08 1107.12 1226.9 1107.12 1270.72 1151.41 1270.72 1151.41 1226.9 1151.41 1183.08 1151.41 1139.26 1151.41 1095.44 1107.12 1095.44"/><polygon class="cls-1" points="929.98 963.99 929.98 920.17 885.7 920.17 841.41 920.17 841.41 963.99 885.7 963.99 929.98 963.99"/><polygon class="cls-3" points="885.7 1007.81 841.41 1007.81 797.13 1007.81 797.13 1051.63 841.41 1051.63 841.41 1095.44 885.7 1095.44 929.98 1095.44 929.98 1051.63 974.27 1051.63 974.27 1007.81 929.98 1007.81 885.7 1007.81"/><polygon class="cls-3" points="1195.69 832.54 1151.41 832.54 1107.12 832.54 1107.12 876.36 1107.12 920.17 1107.12 963.99 1151.41 963.99 1195.69 963.99 1239.98 963.99 1239.98 920.17 1239.98 876.36 1239.98 832.54 1195.69 832.54"/><polygon class="cls-3" points="575.7 832.54 531.42 832.54 531.42 876.36 531.42 920.17 531.42 963.99 575.7 963.99 619.99 963.99 664.27 963.99 664.27 920.17 664.27 876.36 664.27 832.54 619.99 832.54 575.7 832.54"/><polygon class="cls-4" points="1151.41 701.09 1107.12 701.09 1107.12 744.9 1151.41 744.9 1195.69 744.9 1195.69 701.09 1151.41 701.09"/><polygon class="cls-4" points="575.7 701.09 575.7 744.9 619.99 744.9 664.27 744.9 664.27 701.09 619.99 701.09 575.7 701.09"/><polygon class="cls-2" points="885.7 569.63 885.7 613.45 841.41 613.45 841.41 657.27 841.41 701.09 841.41 744.9 841.41 788.72 841.41 832.54 841.41 876.36 841.41 920.17 885.7 920.17 929.98 920.17 929.98 876.36 929.98 832.54 929.98 788.72 929.98 744.9 929.98 701.09 929.98 657.27 929.98 613.45 929.98 569.63 885.7 569.63"/><polygon class="cls-5" points="442.85 394.36 442.85 350.54 398.56 350.54 398.56 306.73 354.28 306.73 354.28 262.91 310 262.91 310 219.09 265.71 219.09 265.71 175.27 221.42 175.27 177.14 175.27 177.14 131.45 132.85 131.45 132.85 175.27 88.57 175.27 88.57 219.09 88.57 262.91 88.57 306.73 88.57 350.54 88.57 394.36 88.57 438.18 88.57 482 88.57 525.81 132.85 525.81 132.85 569.63 132.85 613.45 177.14 613.45 177.14 657.27 177.14 701.09 221.42 701.09 221.42 744.9 265.71 744.9 265.71 788.72 310 788.72 310 744.9 354.28 744.9 354.28 701.09 354.28 657.27 398.56 657.27 398.56 613.45 442.85 613.45 442.85 569.63 487.13 569.63 487.13 525.81 487.13 482 487.13 438.18 487.13 394.36 442.85 394.36"/><polygon class="cls-5" points="1638.54 131.45 1638.54 87.64 1594.26 87.64 1549.97 87.64 1549.97 131.45 1505.68 131.45 1505.68 175.27 1461.4 175.27 1461.4 219.09 1417.12 219.09 1417.12 262.91 1372.83 262.91 1372.83 306.73 1328.55 306.73 1328.55 350.54 1328.55 394.36 1328.55 438.18 1328.55 482 1328.55 525.81 1328.55 569.63 1328.55 613.45 1372.83 613.45 1372.83 657.27 1372.83 701.09 1417.12 701.09 1417.12 744.9 1417.12 788.72 1461.4 788.72 1505.68 788.72 1505.68 744.9 1549.97 744.9 1549.97 701.09 1594.26 701.09 1594.26 657.27 1638.54 657.27 1638.54 613.45 1638.54 569.63 1682.83 569.63 1682.83 525.81 1682.83 482 1682.83 438.18 1682.83 394.36 1682.83 350.54 1682.83 306.73 1682.83 262.91 1682.83 219.09 1682.83 175.27 1682.83 131.45 1638.54 131.45"/><path class="cls-6" d="M1727.11,43.82V0H1505.69V43.82H1461.4V87.64h-44.28v43.81h-44.29v43.82h-44.28v43.82h-44.29v43.82H1240v87.63h-44.29v43.82h-620V306.72H531.42V262.91H487.13V219.09H442.85V175.27H398.56V131.45H354.28V87.64H265.71V43.82H221.42V0H44.28V43.82H0V569.63H44.28V701.08H88.57v87.64h44.29v43.82h44.28v43.82h44.28v43.81h44.29V964H310v219.09H531.42v-43.82H620v-43.81h44.28v-43.82h44.29v-43.82h44.28V964h88.57V613.45H885.7V569.63H930V964h88.57v43.82h44.29v43.82h44.28v43.82h88.57v43.81H1461.4V920.17H1550V876.36h44.28V832.54h44.29V788.72h44.29V744.9h44.28V657.27h44.28V43.82Zm-44.28,131.45V569.63h-44.29v87.64h-44.29v43.81H1550V744.9h-44.28v43.82h-88.57V701.08h-44.29V613.45h-44.28V306.72h44.28V262.91h44.29V219.09h44.28V175.27h44.29V131.45H1550V87.64h88.57v43.81h44.29ZM664.27,964H531.42V832.54H664.27V964ZM177.14,657.27V613.45H132.86V525.81H88.57V175.27h44.29V131.45h44.28v43.82h88.57v43.82H310v43.82h44.29v43.81h44.28v43.82h44.29v43.82h44.28V569.63H442.85v43.82H398.56v43.82H354.28V744.9H310v43.82H265.71V744.9H221.42V701.08H177.14ZM664.27,744.9H575.7V701.08h88.57Zm442.85-43.82h88.57V744.9h-88.57Zm0,219.09V832.54H1240V964H1107.12Z"/></g></g></svg>