<svg xmlns="http://www.w3.org/2000/svg" viewBox="0 0 119.38 12.11"><defs><style>.cls-1{fill:#fff;}</style></defs><g id="Layer_2" data-name="Layer 2"><g id="baby-cat-ears-3-patterns"><g id="ears-3-pattern-1-mask"><path class="cls-1" d="M116.05,5.84l2.56,2.36a6.55,6.55,0,0,0-5.34-3.93l4.18,3.92a4.72,4.72,0,0,0-5.31-4.76,10.75,10.75,0,0,0,6.25,4.36,13.21,13.21,0,0,0-6-4.62.7.7,0,0,0-.53.83,1.9,1.9,0,0,0,.55.93,15.41,15.41,0,0,0,5.12,3.64,7.23,7.23,0,0,0-3.89-5c-.48-.23-1.16-.34-1.43.11a1.13,1.13,0,0,0,.2,1.09,10.2,10.2,0,0,0,5.23,4.21,6.06,6.06,0,0,0-4.38,1.12,41.57,41.57,0,0,0,5.47-2,7.88,7.88,0,0,0-7.41,2.6,7.86,7.86,0,0,0,6.29-1.12,13.31,13.31,0,0,0-3.78-.09,4.42,4.42,0,0,0-3.12,1.95,12.12,12.12,0,0,1,6.57-1.82c-2.07-1-4.46.32-6.31,1.68a21.66,21.66,0,0,1,5.47-1.85,11.32,11.32,0,0,0-6.37,1.78c2.2.79,4.55-.5,6.54-1.73a6.3,6.3,0,0,0-6.15,1.94A8.54,8.54,0,0,0,117,9.67"/><path class="cls-1" d="M115.6,6.29l2.56,2.35a.63.63,0,0,0,1-.76,7.21,7.21,0,0,0-5.88-4.24.64.64,0,0,0-.44,1.07L117,8.64a.63.63,0,0,0,1.06-.45A5.35,5.35,0,0,0,112,2.83a.62.62,0,0,0-.37.91,11.44,11.44,0,0,0,6.63,4.65c.48.12,1-.45.7-.92A13.9,13.9,0,0,0,113.56,3c-.52-.25-1.1-.61-1.66-.29a1.39,1.39,0,0,0-.61,1.47,3.12,3.12,0,0,0,1,1.47,17.68,17.68,0,0,0,1.36,1.24,16.33,16.33,0,0,0,3.63,2.23.63.63,0,0,0,.92-.7,7.74,7.74,0,0,0-4.35-5.49,1.92,1.92,0,0,0-1.59-.07,1.31,1.31,0,0,0-.61,1.57,5.39,5.39,0,0,0,1,1.63,11.07,11.07,0,0,0,1.24,1.32,11.12,11.12,0,0,0,3.65,2.18l.17-1.23a6.67,6.67,0,0,0-4.7,1.2c-.54.4-.24,1.36.48,1.15a44.37,44.37,0,0,0,5.62-2.05.63.63,0,0,0-.15-1.14,8.5,8.5,0,0,0-8,2.76.63.63,0,0,0,.28,1A8.56,8.56,0,0,0,118,10.1a.63.63,0,0,0-.32-1.16c-2.63-.32-5.86-.42-7.44,2.16a.63.63,0,0,0,.86.86,11.61,11.61,0,0,1,6.25-1.73c.59,0,.9-.91.32-1.17-2.44-1.1-5,.23-6.94,1.68a.63.63,0,0,0,.63,1.08A21.22,21.22,0,0,1,116.64,10c.71-.14.52-1.22-.17-1.23a12,12,0,0,0-6.69,1.86.63.63,0,0,0,.15,1.14c2.48.84,5-.52,7-1.79a.63.63,0,0,0-.14-1.14A7,7,0,0,0,110.05,11c-.27.31-.22,1,.28,1a9.34,9.34,0,0,0,7.1-1.9.63.63,0,0,0,0-.89.64.64,0,0,0-.88,0,7.93,7.93,0,0,1-5.89,1.58l.28,1a5.73,5.73,0,0,1,5.53-1.78l-.15-1.14c-1.76,1.09-3.91,2.39-6,1.66l.15,1.15a10.7,10.7,0,0,1,6-1.69l-.16-1.23a22.34,22.34,0,0,0-5.62,1.91l.63,1.08c1.52-1.11,3.73-2.56,5.68-1.68L117.31,9a12.84,12.84,0,0,0-6.88,1.9l.85.86c1.31-2.15,4.25-1.81,6.36-1.55L117.33,9a7.33,7.33,0,0,1-5.81,1.06l.28,1a7.25,7.25,0,0,1,6.79-2.44l-.15-1.14a41.11,41.11,0,0,1-5.32,1.92l.48,1.14a5.63,5.63,0,0,1,4.07-1,.61.61,0,0,0,.61-.54.63.63,0,0,0-.44-.69,9.63,9.63,0,0,1-3.16-1.9,9.89,9.89,0,0,1-1.17-1.25c-.13-.17-.84-1.13-.72-1.22s1.1.39,1.29.51a6.06,6.06,0,0,1,1.3,1.12A6.56,6.56,0,0,1,117,8.74l.92-.71a15.41,15.41,0,0,1-3.27-1.94,17.27,17.27,0,0,1-1.42-1.28c-.09-.09-1-1-.61-1h-.33a12.65,12.65,0,0,1,5.61,4.32l.7-.91a10.14,10.14,0,0,1-5.88-4.08l-.37.92a4.09,4.09,0,0,1,4.51,4.16l1.07-.44-4.17-3.92-.45,1.06a6,6,0,0,1,4.8,3.62l1-.76L116.49,5.4c-.59-.54-1.48.34-.89.89Z"/><path class="cls-1" d="M6.6,4.43A8.09,8.09,0,0,0,8.12,6.31,10.56,10.56,0,0,0,5.79,1.18C5.48.81,4.94.44,4.57.75a.94.94,0,0,0-.17.88A7.87,7.87,0,0,0,7.15,6.3,5,5,0,0,0,4.54,1.84,7.38,7.38,0,0,0,7.39,6.21a5.19,5.19,0,0,0-3-4.75,19.17,19.17,0,0,0,2.77,5C5.65,8.24,2,6.08.64,8Q3.85,7.65,7,7.06a6.14,6.14,0,0,0-5.68.67A7.62,7.62,0,0,0,8,7.45c-2.53-.36-5.4-.62-7.37,1a8,8,0,0,0,6.69-.61,5.77,5.77,0,0,0-6.43.52A17.73,17.73,0,0,0,7.11,7.13a10.34,10.34,0,0,0-4.79,0"/><path class="cls-1" d="M6.06,4.75a9.74,9.74,0,0,0,1.61,2,.63.63,0,0,0,1.05-.61A10.91,10.91,0,0,0,7.3,2.24c-.53-.91-1.66-2.79-3-2.09S4,2.77,4.39,3.67A8.26,8.26,0,0,0,6.71,6.74.63.63,0,0,0,7.78,6.3a5.67,5.67,0,0,0-2.92-5A.64.64,0,0,0,3.94,2,8.11,8.11,0,0,0,7.07,6.75c.4.3.94-.11.94-.54A5.81,5.81,0,0,0,4.72.92c-.44-.2-1.13.14-.92.71A19.89,19.89,0,0,0,6.63,6.78L6.73,6c-.76.85-2.18.56-3.2.5C2.24,6.46,1,6.55.1,7.65a.63.63,0,0,0,.54.94C2.83,8.37,5,8.06,7.19,7.66a.62.62,0,0,0,.46-.6.65.65,0,0,0-.46-.6A6.77,6.77,0,0,0,1,7.19c-.34.24-.46.88,0,1.08A8.38,8.38,0,0,0,8.36,8c.43-.24.39-1.07-.15-1.14C5.5,6.47,2.5,6.18.23,8c-.4.32-.12.9.27,1a8.7,8.7,0,0,0,7.17-.67.63.63,0,0,0,0-1.08,6.46,6.46,0,0,0-7.19.61C.05,8.27.42,9,.93,9A18.59,18.59,0,0,0,7.27,7.73c.53-.2.66-1.06,0-1.2a11.35,11.35,0,0,0-5.12,0c-.78.19-.45,1.39.34,1.21a10,10,0,0,1,4.45,0V6.53a17.45,17.45,0,0,1-6,1.21l.44,1.07A5.14,5.14,0,0,1,7,8.39V7.31a7.45,7.45,0,0,1-6.2.55l.27,1C3,7.4,5.69,7.75,7.87,8.05L7.72,6.91a7,7,0,0,1-6.07.28V8.27a5.65,5.65,0,0,1,5.21-.61V6.46c-2.06.38-4.14.67-6.22.88l.54.94c.61-.8,2.11-.51,3-.46a4,4,0,0,0,3.44-.91.64.64,0,0,0,.1-.76A18.81,18.81,0,0,1,5,1.29L4.09,2A4.59,4.59,0,0,1,6.76,6.21l.94-.54a6.85,6.85,0,0,1-2.56-4l-.91.7A4.41,4.41,0,0,1,6.53,6.3l1.06-.44A7.63,7.63,0,0,1,5.75,3.63,7.21,7.21,0,0,1,5.2,2.28,5.49,5.49,0,0,1,5,1.58c0-.08,0-.19,0-.27v-.1c0-.08,0-.06-.08.05s0,0,0,0A.31.31,0,0,1,5,1.33a1.57,1.57,0,0,1,.24.21,5.13,5.13,0,0,1,.45.57,11.11,11.11,0,0,1,.81,1.32,10.28,10.28,0,0,1,1,3l1.05-.6A8,8,0,0,1,7.14,4.12a.63.63,0,0,0-1.08.63Z"/></g></g></g></svg>