<svg xmlns="http://www.w3.org/2000/svg" viewBox="0 0 152.58 39.7"><defs><style>.cls-1{fill:#fff;}</style></defs><g id="Layer_2" data-name="Layer 2"><g id="baby-cat-ears-3-patterns"><g id="ears-3-pattern-2-mask"><path class="cls-1" d="M31.05,3.87c-10,0-20,0-29.92,1H.63C4,15.17,11.89,23.25,20.17,30.17q3.95,3.3,8.17,6.41A91.58,91.58,0,0,1,31.05,3.87Z"/><path class="cls-1" d="M31.05,3.25c-5.32,0-10.64,0-16,.18-2.62.07-5.23.18-7.84.35-2.19.14-4.43.53-6.62.51a.62.62,0,0,0-.6.79c4.57,13.81,16.7,23.67,28,32a.63.63,0,0,0,.94-.54A87.58,87.58,0,0,1,31.65,4a.62.62,0,0,0-1.2-.33,88.48,88.48,0,0,0-2.74,32.87l.94-.54C17.65,27.89,5.7,18.21,1.23,4.75l-.6.79c2.11,0,4.26-.36,6.37-.49q4-.27,8.09-.37c5.32-.16,10.64-.16,16-.18A.63.63,0,0,0,31.05,3.25Z"/><path class="cls-1" d="M148.56,39.08a118.67,118.67,0,0,1-17.3-10.53c-8.15-6.09-15.33-13.74-19.75-22.91Q131.7,2.87,152,.63A101,101,0,0,0,148.56,39.08Z"/><path class="cls-1" d="M148.88,38.54C134,30.92,119.56,20.76,112.05,5.32l-.37.92q20.1-2.76,40.27-5l-.6-.79a100,100,0,0,0-3.41,38.62c.09.79,1.34.8,1.25,0A98.9,98.9,0,0,1,152.56.79.64.64,0,0,0,152,0q-20.32,2.25-40.6,5c-.43.06-.53.6-.38.92,7.6,15.62,22.22,26,37.28,33.67C149,40,149.6,38.91,148.88,38.54Z"/></g></g></g></svg>