<svg xmlns="http://www.w3.org/2000/svg" viewBox="0 0 173.67 52.76"><defs><style>.cls-1{fill:#fff;}</style></defs><g id="Layer_2" data-name="Layer 2"><g id="baby-cat-ears-3-patterns"><g id="ears-3-pattern-3-mask"><path class="cls-1" d="M172,51.78c0,.24-.51-1.26-.53-1-.81-2.92-.17-6.29.9-9.13q-6.6-2.64-13.13-5.44c-.62-.26-1.31-.61-1.48-1.26l0-.13L173,36.19c-3.51-11.1-3.55-24.19-1-35.56q-30.3,3-60.49,7.09c4.42,9.18,11.6,16.82,19.75,22.92s17.3,10.73,26.55,15C162.5,47.78,167.22,49.85,172,51.78Z"/><path class="cls-1" d="M171.56,51.34l0,0,1,.13c-.22-.32-.27-.74-.49-1.07a.63.63,0,0,0-1-.13l0,0,1,.27a14.91,14.91,0,0,1,.9-8.79.65.65,0,0,0-.44-.77c-2.42-1-4.84-2-7.25-3l-3.92-1.64c-.33-.14-3-1.09-3-1.45l-.6.46L173,36.82a.62.62,0,0,0,.6-.79c-3.53-11.33-3.55-23.7-1-35.24A.64.64,0,0,0,172,0q-30.39,3-60.65,7.12c-.43.06-.53.6-.38.92C119.73,26,137.53,36.8,155,45q8.31,3.91,16.82,7.38c.74.3,1.07-.91.33-1.21A253.94,253.94,0,0,1,143.85,38c-8.47-4.71-16.51-10.35-23-17.59a56.57,56.57,0,0,1-8.79-12.95l-.37.91Q141.77,4.21,172,1.25l-.6-.79c-2.56,11.75-2.56,24.36,1,35.9l.6-.79-15.26-1.39a.61.61,0,0,0-.6.46,1.86,1.86,0,0,0,1.12,1.79,34.12,34.12,0,0,0,4.16,1.8q4.84,2,9.74,4l-.44-.76a16,16,0,0,0-.89,9.45.63.63,0,0,0,1,.28l0,0-1-.13c.22.33.27.75.5,1.07a.63.63,0,0,0,1,.13l0,0C173,51.61,172.08,50.73,171.56,51.34Z"/><path class="cls-1" d="M52.64,38.56a23.64,23.64,0,0,1-9.25-3.77l-.07.63A41.73,41.73,0,0,0,51.72,41c-1.3,2.69-2.26,8.15-2.42,11.14A190.55,190.55,0,0,1,20.17,32.25C11.89,25.33,4,17.25.63,7h.5c13.65-1.43,27.42-.8,41.14-1.21,3.15-.09,6.3-.24,9.45-.43a73.73,73.73,0,0,0,.92,32.81"/><path class="cls-1" d="M52.81,38a24,24,0,0,1-9.1-3.71c-.43-.3-.9.11-.94.54-.08.69-.1.87.44,1.36A28.1,28.1,0,0,0,45.59,38a43.12,43.12,0,0,0,5.81,3.54l-.22-.85a32.33,32.33,0,0,0-2.51,11.45l.94-.54A195.1,195.1,0,0,1,26.45,36.47C19.71,31.32,13,25.74,7.83,19A41.34,41.34,0,0,1,1.23,6.82l-.6.79c1.78,0,3.6-.29,5.38-.42,2.12-.15,4.24-.26,6.36-.35,4.32-.17,8.65-.21,13-.24,8.8,0,17.58-.09,26.37-.63l-.6-.79A72.66,72.66,0,0,0,52,38.33a.62.62,0,0,0,1.2-.33,71.44,71.44,0,0,1-.92-32.48.64.64,0,0,0-.6-.8c-8.79.54-17.57.58-26.37.63-4.33,0-8.66.07-13,.24-2.12.09-4.24.2-6.36.35-1.78.13-3.59.44-5.38.42a.63.63,0,0,0-.6.79C2.65,15.06,7.85,21.7,13.8,27.41A155.59,155.59,0,0,0,34.92,44.06Q41.78,48.67,49,52.68a.63.63,0,0,0,.94-.54,30.82,30.82,0,0,1,2.34-10.82.64.64,0,0,0-.23-.86,44,44,0,0,1-4.73-2.78c-.8-.54-1.59-1.12-2.35-1.72A8.27,8.27,0,0,1,44,35.3a1.16,1.16,0,0,1,0-.51l-.94.54a24.94,24.94,0,0,0,9.39,3.83c.79.16,1.13-1,.34-1.2Z"/></g></g></g></svg>