<svg xmlns="http://www.w3.org/2000/svg" viewBox="0 0 94.96 138.19"><defs><style>.cls-1{fill:#fff;}</style></defs><g id="Layer_2" data-name="Layer 2"><g id="baby-cat-tail-4-patterns"><g id="tail-4-pattern-6-mask"><path class="cls-1" d="M77,12A67.06,67.06,0,0,1,94.34.61c-1,5-2.37,10.38-3.59,15.62A50.26,50.26,0,0,1,77,12.05"/><path class="cls-1" d="M77.4,12.45A67.17,67.17,0,0,1,94.66,1.15L93.74.44c-1,5.25-2.38,10.42-3.6,15.63l.77-.44a49.39,49.39,0,0,1-13.63-4.12c-.72-.37-1.35.71-.63,1.07a50.19,50.19,0,0,0,13.93,4.26.64.64,0,0,0,.77-.44C92.56,11.19,93.91,6,95,.77A.63.63,0,0,0,94,.07,68.33,68.33,0,0,0,76.52,11.56c-.6.54.29,1.43.88.89Z"/><path class="cls-1" d="M65.62,25.38a20.37,20.37,0,0,0-3.54,9.42l7.22,5.9A36.5,36.5,0,0,1,58.79,31l-.31-.31c-.57,5.2-.89,10.56-1.2,16a107.94,107.94,0,0,0,22.31,2.49A23.53,23.53,0,0,0,87,47.82a66.16,66.16,0,0,1,.72-15.69A33.15,33.15,0,0,1,71.81,29C69.89,28.09,67.54,26.29,65.62,25.38Z"/><path class="cls-1" d="M65.08,25.06A23.19,23.19,0,0,0,61.69,33c-.13.71-.47,1.74,0,2.33a6.62,6.62,0,0,0,1,.82l6.16,5,.76-1a36.71,36.71,0,0,1-6.22-4.8c-1.64-1.58-2.9-3.48-4.48-5.09a.63.63,0,0,0-1.06.44c-.58,5.31-.9,10.64-1.21,16a.63.63,0,0,0,.46.6,109.77,109.77,0,0,0,15.42,2.24c5,.37,9.87.55,14.67-1.09a.65.65,0,0,0,.46-.61,67.23,67.23,0,0,1,.69-15.52c.05-.37-.15-.83-.6-.79A30.9,30.9,0,0,1,76.1,30a25.43,25.43,0,0,1-5.31-2.27c-1.63-1-3.16-2.07-4.85-2.9-.72-.36-1.35.72-.63,1.08,1.81.89,3.43,2.1,5.19,3.1a27.82,27.82,0,0,0,5.26,2.19,31.92,31.92,0,0,0,12,1.55l-.6-.79a68.41,68.41,0,0,0-.74,15.85l.45-.6c-4.68,1.61-9.46,1.41-14.33,1.05a108,108,0,0,1-15.09-2.19l.46.6c.31-5.33.63-10.66,1.21-16L58,31.16c.74.75,1.32,1.66,2,2.46a36.23,36.23,0,0,0,2.77,2.91A38.14,38.14,0,0,0,69,41.24c.59.37,1.31-.52.75-1L64.2,35.73l-1.28-1c-.09-.08-.25-.16-.31-.26s-.07,0-.08-.06c.16.33.29-.67.33-.87a21.75,21.75,0,0,1,3.3-7.81C66.59,25,65.51,24.38,65.08,25.06Z"/><path class="cls-1" d="M87,88.72a122.81,122.81,0,0,0,7.19-22.58L87.4,71.82l-.48.52c.33-2.16.58-4.34.74-6.52a64.71,64.71,0,0,1-32.08,1.09v.17a90.28,90.28,0,0,1-3.84,17.11A69.68,69.68,0,0,0,86.92,89"/><path class="cls-1" d="M87.57,89a127.43,127.43,0,0,0,7.26-22.73.64.64,0,0,0-1-.61,77.32,77.32,0,0,0-7.3,6.2l1,.6q.5-3.31.75-6.68a.63.63,0,0,0-.79-.6,62.94,62.94,0,0,1-31.75,1.09.64.64,0,0,0-.79.6,25,25,0,0,1-.58,4c-.25,1.48-.53,3-.85,4.43A81.12,81.12,0,0,1,51.14,84a.64.64,0,0,0,.43.77,70.1,70.1,0,0,0,35.35,4.82c.79-.1.8-1.35,0-1.25a69.27,69.27,0,0,1-35-4.78l.44.77a79.92,79.92,0,0,0,2.48-9.13c.31-1.47.59-3,.83-4.44a24.33,24.33,0,0,0,.55-3.88l-.79.61a64.28,64.28,0,0,0,32.41-1.09L87,65.82c-.16,2.13-.4,4.24-.71,6.35-.08.56.58,1.11,1,.61a74.69,74.69,0,0,1,7.31-6.19l-1-.61a125.29,125.29,0,0,1-7.13,22.43c-.31.73.77,1.37,1.08.63Z"/><path class="cls-1" d="M43.46,133.2a25,25,0,0,0,4.71-2.06l-2.42,1.07c6.8-2.36,13.25-6.86,19.08-11.79-6.4-3.88-11.25-9.76-16.26-15.31A16.46,16.46,0,0,1,45,98a52.33,52.33,0,0,1-4.3,5.52l.48-.59A22.77,22.77,0,0,1,33,108.65C34.48,117.4,40,125,43.46,133.2c-.16-.25.16,0,0-.29"/><path class="cls-1" d="M43.63,133.8a27.94,27.94,0,0,0,4.86-2.12c.71-.42.09-1.4-.63-1.08l-2.42,1.07c-.65.29-.19,1.38.48,1.14,7.22-2.55,13.53-7,19.35-11.94a.64.64,0,0,0-.12-1A54.19,54.19,0,0,1,53.84,110c-3.38-3.67-7.12-7.2-8.25-12.25a.64.64,0,0,0-1.15-.15,56.16,56.16,0,0,1-4.2,5.4l.89.88.47-.58c.49-.62-.33-1.49-.88-.89a23.27,23.27,0,0,1-8,5.67.64.64,0,0,0-.28.71c1.54,9,6.94,16.49,10.48,24.69.28.66,1.33.19,1.14-.48l0-.13-.44.77.07,0a.64.64,0,0,0,.44-.77l0-.12a.62.62,0,0,0-1.2.33l0,.13.44-.77-.07,0a.63.63,0,0,0-.44.76l0,.13,1.14-.48c-3.49-8.11-8.84-15.55-10.36-24.4l-.29.71a24.2,24.2,0,0,0,8.25-5.86l-.88-.89-.48.59c-.49.61.35,1.49.89.88a57.28,57.28,0,0,0,4.39-5.65l-1.14-.15c1.16,5.16,4.84,8.73,8.29,12.49A56.51,56.51,0,0,0,64.52,121l-.13-1c-5.65,4.75-11.8,9.15-18.8,11.63l.48,1.14,2.42-1.07-.63-1.08a26.12,26.12,0,0,1-4.57,2c-.75.27-.43,1.48.34,1.21Z"/><path class="cls-1" d="M1.9,134.34A47.91,47.91,0,0,0,12.18,137a57,57,0,0,0,7.73.54c.05-.18-.34-.12-.49,0s.65.11.49,0c-2.62-1.7-1.68-5.68-1.54-9.51.2-5.69,3-12,4.61-17.44a21.66,21.66,0,0,1-4.86-.69,17.81,17.81,0,0,1-8.43-5.32,48.06,48.06,0,0,0-9,22.35,18.44,18.44,0,0,0,1.23,7.44c.09.23,0-.39-.3-.81"/><path class="cls-1" d="M1.73,134.94a52.15,52.15,0,0,0,18.18,3.19.63.63,0,0,0,.54-.94c-.37-.51-.81-.45-1.35-.23a.64.64,0,0,0-.28.71v.05a.62.62,0,0,0,.43.44,2.21,2.21,0,0,0,.81,0,.63.63,0,0,0,.46-.61v0a.62.62,0,0,0-.31-.54c-1.76-1.25-1.57-3.72-1.45-5.62a53.14,53.14,0,0,1,.64-6.91c.92-4.7,2.81-9.14,4.17-13.71a.63.63,0,0,0-.61-.79,18,18,0,0,1-12.85-5.84.64.64,0,0,0-1,.13A50,50,0,0,0,1.39,120,28.41,28.41,0,0,0,0,128a19.07,19.07,0,0,0,.48,3.76,7.46,7.46,0,0,0,1,3,.63.63,0,0,0,1.07-.44,2.24,2.24,0,0,0-.42-1.16c-.43-.68-1.52-.05-1.08.63a1,1,0,0,1,.25.53l1.07-.44A5.34,5.34,0,0,1,2,132.57q-.22-.82-.39-1.68a14.65,14.65,0,0,1-.3-3.68,33.94,33.94,0,0,1,1.63-7.85,49.16,49.16,0,0,1,7.33-14.5l-1,.13A19.3,19.3,0,0,0,23,111.19l-.6-.79c-1.53,5.16-3.77,10.17-4.46,15.54a51.85,51.85,0,0,0-.45,7.26c0,1.92.5,3.69,2.13,4.85l-.31-.54v0l.46-.6H19.6l.43.44v0l-.29.7h.11l-.54-.31.07.1.54-.94a51.28,51.28,0,0,1-17.85-3.14c-.75-.29-1.07.92-.33,1.2Z"/></g></g></g></svg>