<svg width="78px" height="116px" xmlns="http://www.w3.org/2000/svg" viewBox="0 0 38.83 58.36"><defs><style>.cls-1{fill:#fff;}</style></defs><g id="Layer_2" data-name="Layer 2"><g id="baby-cat-tail-4-patterns"><g id="tail-4-pattern-1-mask"><path class="cls-1" d="M.63,55.05c.58-8.23.86-16.47,1.73-24.34l.3.31A36.54,36.54,0,0,0,13.18,40.7L6,34.8c.23-3.86,2.16-7.42,4.32-10.63A67.18,67.18,0,0,1,38.22.61C36.74,8.12,34.36,16.36,33,23.89,31.37,33,29.73,42.34,31.4,51.44l0,0c.12,1.21.21,2.43.28,3.65-.19-.25-1.72-.57-1.92-.81a1.08,1.08,0,0,1-1.35.56,3.09,3.09,0,0,1-1.3-.94l-.88,1.7-5-6.52a42.5,42.5,0,0,1-3.72,7.79,23.7,23.7,0,0,1-3.22-4.24,15.45,15.45,0,0,0-1.8,5.14L8.88,55.1a1.76,1.76,0,0,0-.7-.37c-.65-.13-1.22.47-1.5,1.07a4.31,4.31,0,0,1-1,1.7l-3-5.4C2.13,52.68.75,54.25.63,55.05Z"/><path class="cls-1" d="M1.25,55.05C1.82,46.94,2.1,38.8,3,30.71l-1.07.45c.74.75,1.33,1.66,2,2.46a38.08,38.08,0,0,0,2.77,2.91,38.14,38.14,0,0,0,6.17,4.71c.59.37,1.32-.52.76-1L9.05,36.53a13.75,13.75,0,0,1-2.42-2c0-.06-.19-.1-.21-.17.08.27.33-1,.35-1.11a16.2,16.2,0,0,1,1-3.27c1.79-4.39,4.91-8.38,8-11.92A66.27,66.27,0,0,1,38.53,1.15L37.61.44C36,8.81,33.6,17,32.1,25.4c-1.54,8.65-2.85,17.47-1.3,26.21L31.85,51l0,0a.63.63,0,0,0-1.07.44c.11,1.21.2,2.43.27,3.65l1.07-.44c-.55-.44-1.39-.39-1.91-.82a.64.64,0,0,0-1,.13c-.45.83-1.41-.23-1.68-.5a.62.62,0,0,0-1,.12l-.88,1.7h1.08l-5-6.52a.63.63,0,0,0-1.14.15,43.24,43.24,0,0,1-3.66,7.64l1-.13a24.05,24.05,0,0,1-3.12-4.11.63.63,0,0,0-1.08,0,17.19,17.19,0,0,0-1.87,5.3l.92-.38-2.77-2c-.62-.45-1.29-1.12-2.13-1-1.63.15-1.66,2.06-2.61,3l1,.13-3-5.4a.63.63,0,0,0-1-.13A8.06,8.06,0,0,0,0,54.88c-.19.78,1,1.12,1.21.34a6.92,6.92,0,0,1,1.91-2.68l-1-.12,3,5.4a.63.63,0,0,0,1,.12c.76-.72,1-2.77,2.44-2.3a7.6,7.6,0,0,1,1.58,1.17l2,1.46a.63.63,0,0,0,.92-.37,16.16,16.16,0,0,1,1.74-5H13.71A25.68,25.68,0,0,0,17,57.27a.63.63,0,0,0,1-.13,44.79,44.79,0,0,0,3.78-7.94l-1.14.15,5,6.52a.63.63,0,0,0,1.08,0l.87-1.7-1,.13c1,1,2.78,1.89,3.64.25l-1,.13c.55.44,1.39.39,1.92.81s1.1.15,1.06-.44c-.07-1.22-.16-2.44-.27-3.65l-1.07.44,0,0c.45.51,1.14,0,1-.61-1.58-8.84-.1-17.78,1.47-26.5,1.45-8.08,3.75-16,5.34-24a.63.63,0,0,0-.92-.7A68,68,0,0,0,15.26,16.74,50.32,50.32,0,0,0,7,28.53a20.46,20.46,0,0,0-1.19,3.16c-.21.77-.78,2.48-.5,3.28.21.59,1.14,1.07,1.6,1.44l5.78,4.73.76-1a36.71,36.71,0,0,1-6.22-4.8c-1.64-1.58-2.89-3.48-4.47-5.09a.64.64,0,0,0-1.07.44C.85,38.8.57,46.94,0,55.05,0,55.85,1.2,55.85,1.25,55.05Z"/></g></g></g></svg>
