<svg xmlns="http://www.w3.org/2000/svg" viewBox="0 0 98.16 122.41"><defs><style>.cls-1{fill:#fff;}</style></defs><g id="Layer_2" data-name="Layer 2"><g id="baby-cat-tail-4-patterns"><g id="tail-4-pattern-5-mask"><path class="cls-1" d="M20.1,91.64a16.08,16.08,0,0,0,5.58,2.75,21.7,21.7,0,0,0,4.74.69c-1.53,4.69-4.08,8.92-4.6,13.82a137.4,137.4,0,0,1-5.72-17"/><path class="cls-1" d="M19.79,92.18A18.81,18.81,0,0,0,30.42,95.7l-.61-.79c-1.55,4.68-4,9-4.62,14l1.17-.31A142.47,142.47,0,0,1,20.7,91.78a.62.62,0,0,0-1.2.33,142.79,142.79,0,0,0,5.78,17.11c.27.64,1.1.22,1.16-.32.55-4.82,3.07-9.11,4.58-13.66a.64.64,0,0,0-.6-.79,17.59,17.59,0,0,1-10-3.35c-.65-.48-1.28.61-.63,1.08Z"/><path class="cls-1" d="M43.08,91.94a22.26,22.26,0,0,0,5.64-4.54l-.47.59a54.48,54.48,0,0,0,3.8-4.81c.56,4.8.63,10.86,1.18,15.66a1.57,1.57,0,0,1-.89-.38l-9.18-6.37"/><path class="cls-1" d="M43.39,92.48a23.51,23.51,0,0,0,5.77-4.63L48.28,87l-.48.59c-.49.61.35,1.49.89.88a56.42,56.42,0,0,0,3.9-4.94l-1.16-.31c.59,5.2.59,10.46,1.18,15.66l.62-.62c-.45-.06-1-.57-1.34-.83l-1.14-.79-2.43-1.69-4.84-3.36c-.66-.46-1.29.63-.63,1.08l5.35,3.72,2.55,1.77a6,6,0,0,0,2.48,1.35.63.63,0,0,0,.63-.63c-.59-5.2-.59-10.46-1.18-15.66a.64.64,0,0,0-1.17-.32,53.78,53.78,0,0,1-3.71,4.69l.89.88.47-.58c.5-.62-.33-1.5-.88-.89a22.55,22.55,0,0,1-5.52,4.44.63.63,0,0,0,.63,1.08Z"/><path class="cls-1" d="M56.24,76.1A65.55,65.55,0,0,0,61,62.94c.46.17,1.09,1.55,1.38,1.94L74,80.75C68.27,79,62,77.81,56.24,76.1Z"/><path class="cls-1" d="M56.78,76.41a68.47,68.47,0,0,0,4.83-13.3l-.92.37c.44.24.7,1,1,1.4.4.65.89,1.26,1.34,1.88l3.54,4.81,7,9.5.71-.92c-5.88-1.75-11.91-2.91-17.78-4.66a.63.63,0,0,0-.33,1.21C62,78.44,68,79.61,73.85,81.35c.49.15,1-.46.71-.91L67.18,70.38l-3.64-5c-.41-.56-.78-1.12-1.13-1.71a3.31,3.31,0,0,0-1.09-1.31.64.64,0,0,0-.92.38,66.63,66.63,0,0,1-4.7,13C55.35,76.5,56.43,77.13,56.78,76.41Z"/><path class="cls-1" d="M63.06,52.19c.62-4.5,1-9.07,1.33-13.63A146.73,146.73,0,0,0,81.18,53.8s0,.05,0,0C79.36,53.09,79,54,77,53.71s-3.71-.24-5.79-.44A56.58,56.58,0,0,1,63.06,52.19Z"/><path class="cls-1" d="M63.66,52.36c.63-4.58,1-9.19,1.35-13.8L63.94,39A157.52,157.52,0,0,0,80.86,54.34l-.12-1,0,0,.61-.16c-1.22-.46-2.15-.12-3.38-.08a20.12,20.12,0,0,1-2.45-.24c-.89-.08-1.77-.1-2.66-.15a48.56,48.56,0,0,1-9.61-1.17.62.62,0,0,0-.33,1.2A50.16,50.16,0,0,0,72.19,54c1.7.11,3.39.23,5.09.39,1.3.13,2.43-.42,3.71.07a.61.61,0,0,0,.61-.16l0,0a.65.65,0,0,0-.13-1A156.08,156.08,0,0,1,64.83,38.12a.63.63,0,0,0-1.07.44c-.31,4.5-.69,9-1.3,13.46C62.35,52.81,63.55,53.15,63.66,52.36Z"/><path class="cls-1" d="M69.7,18.69a22,22,0,0,1,3.86-9.38,20,20,0,0,0,5.53,4.14C83.71,15.24,85.64,17,90,19.33c-15.68-1.2-16.66,3.5-17.2,3a37.14,37.14,0,0,1-3.2-2.95"/><path class="cls-1" d="M70.32,18.69A21.85,21.85,0,0,1,74.1,9.63l-1,.13a26.8,26.8,0,0,0,3.33,2.87,24.6,24.6,0,0,0,4.43,2.25c3.07,1.42,5.84,3.37,8.79,5L90,18.7c-4.28-.31-8.84-.47-13,.76a10.75,10.75,0,0,0-4.19,2.23c-.2.18-.15.06.15.06s.4.24,0-.09l-1-.83c-.67-.61-1.32-1.24-2-1.89s-1.44.31-.88.88a18.41,18.41,0,0,0,3.22,3,.8.8,0,0,0,.81.15,4.45,4.45,0,0,0,1-.76c1.77-1.39,4.4-1.93,6.66-2.19A50.16,50.16,0,0,1,90,20a.63.63,0,0,0,.32-1.16c-2.86-1.57-5.54-3.45-8.49-4.85a30.05,30.05,0,0,1-4.24-2,24,24,0,0,1-3.57-3A.63.63,0,0,0,73,9a23.21,23.21,0,0,0-4,9.69c-.09.79,1.16.79,1.25,0Z"/><path class="cls-1" d="M95.72,14c.31-1.87.64-3.74,1-5.59q.38-2.09.84-4.23C94.4,2.57,90.45,1.67,87.08.63A17,17,0,0,0,90.4,5.11c1.89,2.1,3.73,6.56,5.32,8.89.38-.2-1.91-3.34-2.11-3.72"/><path class="cls-1" d="M96.32,14.17c.54-3.29,1.12-6.57,1.82-9.83a.61.61,0,0,0-.29-.7C94.5,2,90.81,1.12,87.24,0a.63.63,0,0,0-.7.92C87.67,3.49,90,5.22,91.39,7.58c1.34,2.2,2.35,4.6,3.79,6.73a.63.63,0,0,0,1,.13c.67-.55-.25-1.77-.56-2.26-.46-.74-1-1.45-1.45-2.21a.63.63,0,0,0-1.08.63c.32.57.73,1.09,1.08,1.63.23.36.46.71.68,1.08a3.62,3.62,0,0,0,.25.48c.21.31-.27.16.2-.23l1,.12C94.82,11.55,93.81,9.15,92.47,7a18.21,18.21,0,0,0-2.15-2.87A14.48,14.48,0,0,1,87.62.32l-.71.92C90.37,2.3,94,3.08,97.22,4.72L96.94,4c-.7,3.26-1.28,6.54-1.82,9.82-.13.79,1.07,1.13,1.2.34Z"/><path class="cls-1" d="M95.27,38.56A85,85,0,0,1,95,53.27c-1.65-2.42-5.17-5-7.61-6.61a54.74,54.74,0,0,1-6.73-5.31,10.89,10.89,0,0,0-3.93-2.79C82.72,38.62,89.25,38.06,95.27,38.56Z"/><path class="cls-1" d="M94.64,38.56a87.07,87.07,0,0,1-.31,14.71L95.49,53c-2.14-3.05-5.38-5.16-8.4-7.23a50.2,50.2,0,0,1-5.4-4.25c-1.5-1.35-2.89-2.84-4.84-3.52l-.17,1.22c6.2,0,12.4-.49,18.59,0,.8.07.79-1.18,0-1.25-6.19-.49-12.39,0-18.59,0a.63.63,0,0,0-.16,1.23c1.92.67,3.3,2.36,4.8,3.66a53.69,53.69,0,0,0,4.85,3.8c2.93,2,6.16,4,8.24,7a.63.63,0,0,0,1.17-.32,87.07,87.07,0,0,0,.31-14.71C95.84,37.76,94.59,37.76,94.64,38.56Z"/><path class="cls-1" d="M88.17,86.27a129.77,129.77,0,0,0,7.44-15.5c-7.64-1.26-15-3.15-21.21-7.83L88.24,86.13"/><path class="cls-1" d="M88.71,86.59a137.89,137.89,0,0,0,7.51-15.65.62.62,0,0,0-.44-.77C88.31,68.93,80.87,67,74.71,62.4c-.51-.38-1.15.36-.85.86L87.7,86.45a.63.63,0,0,0,1.08-.63L74.94,62.63l-.86.85c6.24,4.67,13.81,6.64,21.37,7.9L95,70.61A134.41,134.41,0,0,1,87.63,86a.63.63,0,0,0,1.08.63Z"/><path class="cls-1" d="M77,100.93a100.78,100.78,0,0,1-14.4,11.29c-.35-5.42-.09-11.84-1.21-17.16a56.63,56.63,0,0,0-1.61-6A87.66,87.66,0,0,0,75.2,100.74,11.2,11.2,0,0,0,77,100.93Z"/><path class="cls-1" d="M76.5,100.49a100.1,100.1,0,0,1-14.26,11.19l.94.54c-.24-3.9-.2-7.8-.49-11.69a49.9,49.9,0,0,0-2.36-11.65l-1,.61a91.66,91.66,0,0,0,9.53,7.84c1.69,1.19,3.41,2.33,5.18,3.41a5.26,5.26,0,0,0,3,.81c.81,0,.79-1.17,0-1.25h0c-.81-.07-.8,1.18,0,1.25h0V100.3a6.51,6.51,0,0,1-1.17-.08,7,7,0,0,1-2-1.1Q71.38,97.64,69.12,96a89.44,89.44,0,0,1-9-7.4.63.63,0,0,0-1,.61,48.74,48.74,0,0,1,2.34,11.72c.26,3.75.23,7.52.46,11.28a.63.63,0,0,0,.94.54,102.29,102.29,0,0,0,14.52-11.39C78,100.83,77.1,99.94,76.5,100.49Z"/><path class="cls-1" d="M50.77,117.8c-.72.25-1.45.51-2.19.81a38.56,38.56,0,0,1-6.76,1.9,75.58,75.58,0,0,1-8.73,1.28c.47-5,1.54-10.57,2-15.56,0-.26.11-.58.36-.61a.57.57,0,0,1,.43.19L48.1,116.28A20.65,20.65,0,0,0,50.77,117.8Z"/><path class="cls-1" d="M50.6,117.2a67.11,67.11,0,0,1-8.45,2.61,77,77,0,0,1-9.06,1.35l.62.63c.26-2.71.66-5.41,1.06-8.1.18-1.24.35-2.47.52-3.71l.24-1.89c0-.21.06-1.85.25-1.93l-.49.06c.42.09.9.67,1.22.94l1.06.91L39.83,110l4.37,3.75c2,1.69,3.84,3.53,6.25,4.58.74.32,1.37-.76.64-1.08-2.43-1.05-4.29-2.91-6.27-4.61-2.82-2.42-5.57-5-8.49-7.28a1.12,1.12,0,0,0-1.35-.22c-.46.31-.48.89-.54,1.39-.18,1.74-.4,3.47-.65,5.2-.47,3.35-1,6.68-1.33,10.05a.63.63,0,0,0,.63.62,79.12,79.12,0,0,0,9.06-1.33,67,67,0,0,0,8.79-2.67C51.69,118.14,51.37,116.93,50.6,117.2Z"/><path class="cls-1" d="M19.74,121.49A44.1,44.1,0,0,1,.62,114.2c4-4.13,9-7.68,13-11.81.62-.63.25.5.4-.37C14.82,108.53,18,115.18,19.74,121.49Z"/><path class="cls-1" d="M19.9,120.88a44.15,44.15,0,0,1-19-7.22l.12,1c2.1-2.13,4.38-4.07,6.65-6,1.12-1,2.24-1.91,3.34-2.9.52-.47,1-.94,1.55-1.42l.75-.73c.17-.16.33-.33.49-.49.47-.31.32-.6-.44-.88l1.23.16a.33.33,0,0,1,0-.17L13.42,102c.85,6.82,3.84,13.08,5.72,19.63a.62.62,0,0,0,1.2-.33c-1.84-6.43-4.83-12.61-5.67-19.3-.08-.62-1.1-.93-1.23-.16a2.07,2.07,0,0,0-.06.5.63.63,0,0,0,1.23.17c.36-.91-.8-1.09-1.33-.65-.74.6-1.38,1.36-2.08,2s-1.47,1.34-2.23,2c-3,2.59-6,5.06-8.79,7.87a.63.63,0,0,0,.13,1,45,45,0,0,0,19.26,7.35C20.36,122.2,20.7,121,19.9,120.88Z"/></g></g></g></svg>