<svg xmlns="http://www.w3.org/2000/svg" viewBox="0 0 99.91 136.56"><defs><style>.cls-1{fill:#fff;}</style></defs><g id="Layer_2" data-name="Layer 2"><g id="baby-cat-tail-4-patterns"><g id="tail-4-pattern-3-mask"><path class="cls-1" d="M48.15,110.38c-1.81,2.06-2.13,5-2.14,7.74,0,2.29.3,4.9,2.15,6.26.34.25.87.42,1.13.09a1,1,0,0,0,.12-.66A20.19,20.19,0,0,1,51,115a12.73,12.73,0,0,0,1-2.89,2.94,2.94,0,0,0-.93-2.76,1.71,1.71,0,0,0-2.57.59"/><path class="cls-1" d="M47.71,109.94c-1.78,2.09-2.24,4.8-2.31,7.47-.06,2.35.06,5.11,1.77,6.92.63.67,1.94,1.49,2.66.45A3.11,3.11,0,0,0,50,123a18.58,18.58,0,0,1,.13-2.47,19.59,19.59,0,0,1,1.16-4.76,12.89,12.89,0,0,0,1.33-4.13,3.19,3.19,0,0,0-1.74-3.11,2.31,2.31,0,0,0-3,1.06c-.31.73.77,1.37,1.08.63a1.13,1.13,0,0,1,2-.06,3.36,3.36,0,0,1,0,3.1c-.39,1-.88,2-1.22,3.08a19.17,19.17,0,0,0-.78,3.35,21.5,21.5,0,0,0-.24,3.31,3.32,3.32,0,0,1,0,.94c-.09.23,0,.1,0,.09s-.25-.12-.3-.15a3.26,3.26,0,0,1-1-1c-1-1.58-1-3.62-.93-5.42.06-2.3.4-4.77,1.94-6.59.52-.61-.36-1.5-.88-.88Z"/><path class="cls-1" d="M53.26,109.34q-1,6.3-1.63,12.64c.51.42,1.26,0,1.74-.48a15.69,15.69,0,0,0,4-6.46,6.68,6.68,0,0,0,0-4.84c-.71-1.5-2.63-2.49-4.09-1.71"/><path class="cls-1" d="M52.66,109.17q-1,6.39-1.65,12.81a.59.59,0,0,0,.31.54c1.69,1.06,3.48-1.54,4.32-2.69a15.5,15.5,0,0,0,2.57-5.39c.45-1.82.46-3.94-.83-5.43A3.69,3.69,0,0,0,53,108c-.72.35-.09,1.43.64,1.08a2.52,2.52,0,0,1,3.06,1.17,5.5,5.5,0,0,1,.18,4.34,15,15,0,0,1-1.83,3.94,14.88,14.88,0,0,1-1.37,1.79c-.32.35-1.2,1.52-1.74,1.17l.31.54q.63-6.26,1.6-12.48c.13-.78-1.08-1.12-1.2-.33Z"/><path class="cls-1" d="M73.63,90.89c-2.13,2.49-4.12,7.25-3.66,10.5.1.76.62,1.72,1.35,1.5a1.44,1.44,0,0,0,.73-.73l3.24-5.45a6.38,6.38,0,0,0,1.28-3.88c-.17-1.38-1.73-2.63-2.94-1.94"/><path class="cls-1" d="M73.19,90.44a17.76,17.76,0,0,0-3,5.42,10.82,10.82,0,0,0-.74,6c.22.82.82,1.74,1.77,1.69,1.16-.05,1.74-1.64,2.24-2.48l2.16-3.63A10.32,10.32,0,0,0,77.14,94a3.4,3.4,0,0,0-.91-3.13,2.49,2.49,0,0,0-2.92-.54c-.71.36-.08,1.44.63,1.08a1.37,1.37,0,0,1,1.66.64,2.54,2.54,0,0,1,.13,2.41,15.33,15.33,0,0,1-1.4,2.62l-1.62,2.73-.78,1.31c-.12.2-.51,1.13-.8,1.15-.52,0-.59-1.34-.6-1.67a12.32,12.32,0,0,1,.9-4.6,16,16,0,0,1,2.64-4.69c.52-.61-.36-1.5-.88-.89Z"/><path class="cls-1" d="M78.44,92.74c-.22,3.6-3.29,7.09-3,10.69.8.35,1.7-.22,2.32-.84a10.53,10.53,0,0,0,3-6.22,4.43,4.43,0,0,0-.29-2.45,2,2,0,0,0-2-1.18"/><path class="cls-1" d="M77.81,92.74c-.27,3.75-3.25,6.83-3,10.69a.64.64,0,0,0,.45.6c1.4.51,2.67-.64,3.51-1.63a11.5,11.5,0,0,0,2.11-3.69,8.07,8.07,0,0,0,.44-4.29,2.83,2.83,0,0,0-2.86-2.31c-.79.09-.8,1.34,0,1.25,1.16-.13,1.69,1,1.73,2a8.35,8.35,0,0,1-.58,3.16,9.72,9.72,0,0,1-1.5,2.71c-.54.69-1.51,1.94-2.51,1.57l.46.61a12,12,0,0,1,1.38-5.35,16.8,16.8,0,0,0,1.64-5.34c.06-.8-1.19-.8-1.25,0Z"/><path class="cls-1" d="M1.74,114.73a18.93,18.93,0,0,0-1.06,7.08c0,1,.56,2.3,1.53,2.11a1.77,1.77,0,0,0,1-.75,22,22,0,0,0,4.14-9c.2-1,.24-2.25-.61-2.82a2.38,2.38,0,0,0-2.2,0c-1.66.68-3.28,2.57-3.09,4.37"/><path class="cls-1" d="M1.14,114.56a19.81,19.81,0,0,0-1,4.23,11,11,0,0,0,0,3.88c.21.85.77,1.84,1.75,1.88,1.19.06,1.9-1.18,2.49-2a22.41,22.41,0,0,0,3.3-7.32,6.1,6.1,0,0,0,.2-3.14,2.25,2.25,0,0,0-2.48-1.55C3,110.78.6,113.27.78,115.77c.06.79,1.31.8,1.25,0a4.17,4.17,0,0,1,2.91-3.87c.83-.28,1.69-.2,1.84.8a6.55,6.55,0,0,1-.38,2.59,21.29,21.29,0,0,1-2.35,5.51,9.3,9.3,0,0,1-1.68,2.33c-.69.58-1-.67-1.06-1.17a17,17,0,0,1,1-7.07c.27-.76-.94-1.09-1.2-.33Z"/><path class="cls-1" d="M10.55,112.14c-1,2.94-3.16,6.94-4.19,9.88-.13.36-.2.89.16,1a.76.76,0,0,0,.47,0,9.31,9.31,0,0,0,6.85-7.46,3.35,3.35,0,0,0-.18-2c-.54-1.07-1.87-1.43-3-1.67"/><path class="cls-1" d="M9.94,112c-.74,2.1-1.72,4.1-2.63,6.13-.45,1-.89,2-1.29,3-.28.75-.78,2,.18,2.48C7,124,8.31,123.33,9,123a10.12,10.12,0,0,0,2.47-1.74,9.82,9.82,0,0,0,2.88-5.16,3.74,3.74,0,0,0-.62-3.38,5.49,5.49,0,0,0-3-1.36c-.78-.16-1.12,1-.33,1.21a5.26,5.26,0,0,1,2.18.79,2.32,2.32,0,0,1,.56,2.41A8.63,8.63,0,0,1,11,120,9,9,0,0,1,9,121.56a8.19,8.19,0,0,1-1.07.53l-.53.19a3.59,3.59,0,0,0-.59.22c.07,0,0,0,0-.06a1.45,1.45,0,0,1,.07-.26c.06-.19.14-.39.21-.58.16-.41.32-.82.5-1.23.35-.83.72-1.65,1.09-2.47.84-1.85,1.71-3.68,2.39-5.59.27-.76-.94-1.09-1.21-.34Z"/><path class="cls-1" d="M74.64,60.3a20.38,20.38,0,0,0-1.83,6.38A9.72,9.72,0,0,0,74.31,73a.58.58,0,0,0,.19.19c.29.12.51-.26.59-.56A39.66,39.66,0,0,1,77,67.16c.61-1.45,1.32-3,1.11-4.52s-1.84-3-3.29-2.42"/><path class="cls-1" d="M74.1,60C72.33,64.05,71,69,73.59,73.08c.22.35.45.7.88.77a1,1,0,0,0,1-.56A6.46,6.46,0,0,0,76,71.78c.18-.62.37-1.24.58-1.85.4-1.18.88-2.33,1.36-3.48a8.32,8.32,0,0,0,.8-3.35c0-2-1.93-4.28-4.12-3.48-.75.28-.42,1.48.34,1.21a1.85,1.85,0,0,1,2.22,1.08,4.11,4.11,0,0,1-.1,3.31c-.37,1.06-.86,2.08-1.25,3.12S75,70.63,74.68,71.8c0,.07-.26.85-.25.86l.3-.12c-.08-.12-.15-.24-.22-.36a7.28,7.28,0,0,1-.7-1.62,10,10,0,0,1-.42-3,18.23,18.23,0,0,1,1.79-6.93c.32-.73-.76-1.37-1.08-.63Z"/><path class="cls-1" d="M79.75,61.38c-.89,3-1.66,6-2.31,9-.13.62-.21,1.39.3,1.77s1.49-.09,2.07-.62a12.77,12.77,0,0,0,3.35-4.13,5.05,5.05,0,0,0,0-4.25,3.61,3.61,0,0,0-3.6-2"/><path class="cls-1" d="M79.15,61.22q-1,3.44-1.85,7c-.3,1.29-1.48,4.7.91,4.8a3.47,3.47,0,0,0,2.3-1.22,20,20,0,0,0,2.1-2.22,6.6,6.6,0,0,0,1.46-5.68,4.33,4.33,0,0,0-4.53-3.27.66.66,0,0,0-.63.63c0,.3.29.67.63.62a3,3,0,0,1,3.24,2.1,5.08,5.08,0,0,1-.89,4.49,12.93,12.93,0,0,1-1.55,1.76,5.65,5.65,0,0,1-1.79,1.48c-.82.29-.56-.86-.46-1.3.19-.9.39-1.79.61-2.68.49-2.06,1-4.1,1.66-6.13a.63.63,0,0,0-1.21-.33Z"/><path class="cls-1" d="M85.42,19.18A14,14,0,0,0,82,28.32c0,1.21.5,2.75,1.71,2.77l3-6.76a7,7,0,0,0,.82-2.76c0-1-1.24-2-2.15-2.39"/><path class="cls-1" d="M85,18.74a14.64,14.64,0,0,0-3.43,7.37C81.27,28,81,31.54,83.7,31.72a.62.62,0,0,0,.54-.31c1.15-2.55,2.4-5.08,3.45-7.67a3.85,3.85,0,0,0,.24-3.19,4.53,4.53,0,0,0-2.34-2c-.74-.31-1.07.9-.33,1.2s1.56.93,1.68,1.67c.17,1-.54,2.16-.92,3l-2.86,6.34.54-.31c-.77-.06-1-1.16-1.07-1.78a10.84,10.84,0,0,1,.3-3.21,13.64,13.64,0,0,1,2.93-5.86c.53-.6-.35-1.49-.88-.88Z"/><path class="cls-1" d="M89.69,20.46,85.86,30.72c.58.44,1.4,0,2-.39a16.36,16.36,0,0,0,3.32-2.76,5.5,5.5,0,0,0,1.43-4,3.36,3.36,0,0,0-2.63-3"/><path class="cls-1" d="M89.09,20.3,85.25,30.55a.65.65,0,0,0,.29.71c1.35.86,2.93-.56,4-1.34a10,10,0,0,0,3.1-3.36A5.1,5.1,0,0,0,93,22.45,3.88,3.88,0,0,0,90.15,20c-.79-.14-1.13,1.07-.34,1.21a2.65,2.65,0,0,1,2,1.75,3.9,3.9,0,0,1-.38,3.16,8.43,8.43,0,0,1-2.35,2.59c-.47.38-1,.72-1.47,1.07s-1,.73-1.45.44l.29.7,3.83-10.25c.28-.76-.92-1.08-1.2-.33Z"/><path class="cls-1" d="M20,105.24a16.19,16.19,0,0,0,6,3.07,19.82,19.82,0,0,0,2.39.48c-1,3.39-2.14,6.84-3.09,10.23a1,1,0,0,1-.42.67.91.91,0,0,1-.76-.11,7.64,7.64,0,0,1-4.25-6.22c-.09-1.18-.61-2.34-.42-3.52C19.65,108.85,19.88,106.23,20,105.24Z"/><path class="cls-1" d="M19.6,105.68a17.93,17.93,0,0,0,8.66,3.71l-.44-.77c-.74,2.62-1.59,5.21-2.39,7.81-.19.63-.37,1.26-.55,1.89a3.84,3.84,0,0,1-.24.77c-.14.07-.62-.28-.74-.35a6.86,6.86,0,0,1-2.21-2.11,7.16,7.16,0,0,1-1.11-2.8c-.09-.55-.13-1.1-.23-1.65a8.11,8.11,0,0,1-.28-1.84c0-.79.19-1.62.27-2.41s.17-1.69.3-2.52-1.08-1.13-1.2-.33c-.24,1.46-.33,3-.53,4.42a8.57,8.57,0,0,0,.23,3,19.16,19.16,0,0,0,.59,3,8.46,8.46,0,0,0,3.36,4.21c.67.43,1.64,1,2.35.35a2,2,0,0,0,.53-1c.18-.63.36-1.25.55-1.88.83-2.74,1.72-5.46,2.51-8.21a.64.64,0,0,0-.44-.77,16.9,16.9,0,0,1-8.11-3.39C19.85,104.31,19,105.19,19.6,105.68Z"/><path class="cls-1" d="M29.83,108.94a23.45,23.45,0,0,0,7.82-.72c-.54,3.22-2.9,6.38-5.09,8.81-.79.86-2,1.71-3,1.11a39.67,39.67,0,0,1,.31-8.85"/><path class="cls-1" d="M29.83,109.57a24.4,24.4,0,0,0,8-.75l-.77-.77a14.23,14.23,0,0,1-2.73,5.85c-.63.87-1.32,1.7-2,2.5-.54.6-1.54,1.67-2.44,1.2l.31.54a38.87,38.87,0,0,1,.28-8.69c.14-.78-1.06-1.12-1.2-.33a28.91,28.91,0,0,0-.43,5.25c0,.91,0,1.81.06,2.71a5.06,5.06,0,0,0,.06,1.23,1.13,1.13,0,0,0,.91.61c1.49.3,2.72-.92,3.6-1.94a28.47,28.47,0,0,0,2.83-3.74,13.91,13.91,0,0,0,2-4.85.64.64,0,0,0-.77-.77,23.47,23.47,0,0,1-7.65.7c-.8-.06-.8,1.19,0,1.25Z"/><path class="cls-1" d="M55.55,92a58.65,58.65,0,0,0,3.09-6.64l.13.12,4.12,3.2a6.54,6.54,0,0,1,1.19,2c.25.54-.22.94-.73,1.27a1.81,1.81,0,0,1-1.13.17c-1.88-.15-4.7.42-6.48-.2"/><path class="cls-1" d="M56.09,92.34a61.46,61.46,0,0,0,3.16-6.79l-1,.27a24.93,24.93,0,0,0,2.29,1.81l1.31,1a3.94,3.94,0,0,1,1,.88,9.69,9.69,0,0,1,.68,1.32c.08.17.07.18-.1.34a1.14,1.14,0,0,1-.62.33c-.49.06-1,0-1.53,0s-1.11,0-1.66.07a9.76,9.76,0,0,1-3.65-.23c-.76-.25-1.09,1-.33,1.21a10.29,10.29,0,0,0,3.71.29c.66,0,1.33-.08,2-.09a10.16,10.16,0,0,0,1.83,0,2.48,2.48,0,0,0,1.5-1.09A1.7,1.7,0,0,0,64.43,90a6.36,6.36,0,0,0-.9-1.5,8.82,8.82,0,0,0-1.35-1.09L60.46,86a13.22,13.22,0,0,1-1.38-1.09.63.63,0,0,0-1,.27,58.9,58.9,0,0,1-3,6.49c-.38.71.7,1.34,1.08.64Z"/><path class="cls-1" d="M59.55,82.93q.72-2.1,1.32-4.26c2.12,0,4.74,2.37,6.39,3.7.59.48,1.26,1.12,1.14,1.88-.17,1.12-1.73,1.27-2.84,1a19.82,19.82,0,0,1-5.81-2.23"/><path class="cls-1" d="M60.15,83.1c.48-1.41.93-2.83,1.33-4.26l-.61.46a6,6,0,0,1,2.89,1.17,31.69,31.69,0,0,1,2.71,2.06c.44.36,2,1.45,1,2s-2.13.07-3-.17a19.28,19.28,0,0,1-4.42-1.86.63.63,0,0,0-.63,1.08,20.8,20.8,0,0,0,4.72,2c1.24.35,2.7.72,3.91.07a1.77,1.77,0,0,0,1-1.4,2.39,2.39,0,0,0-.83-1.89,17.8,17.8,0,0,0-1.49-1.24c-.55-.45-1.11-.9-1.7-1.31a8,8,0,0,0-4.13-1.76.63.63,0,0,0-.6.46c-.4,1.43-.84,2.85-1.33,4.26-.26.76,1,1.09,1.21.33Z"/><path class="cls-1" d="M64.9,50c.1-1.72.2-3.45.3-5.16,1.09.22,2.48,1.12,3.57,1.34a1.8,1.8,0,0,1,1.19.6c.42.67-.2,1.51-.87,1.93A10.94,10.94,0,0,1,64.9,50Z"/><path class="cls-1" d="M65.52,50c.11-1.72.21-3.44.31-5.16l-.79.6a11.4,11.4,0,0,1,2.16.85,9.68,9.68,0,0,0,1.17.44,3.3,3.3,0,0,1,1,.3.36.36,0,0,1,.12.18c0-.1,0,.15,0,.06l0,.1s0,.15,0,.09a1.72,1.72,0,0,1-.65.71,6.8,6.8,0,0,1-1.75.75,11.78,11.78,0,0,1-1.2.33l-.55.1h-.12l-.26,0a.63.63,0,0,0,0,1.25,8.75,8.75,0,0,0,2.36-.47,8.58,8.58,0,0,0,2.18-.93,2.27,2.27,0,0,0,1.19-2.49c-.39-1-1.51-1-2.39-1.37a21.42,21.42,0,0,0-2.87-1.14.64.64,0,0,0-.79.61c-.1,1.72-.2,3.44-.31,5.16a.63.63,0,1,0,1.25,0Z"/><path class="cls-1" d="M65.34,42.56q.15-2.62.33-5.22a13.23,13.23,0,0,1,4.61,6.11.73.73,0,0,1,0,.58c-.17.27-.56.24-.86.18C68.37,44,66.39,42.76,65.34,42.56Z"/><path class="cls-1" d="M66,42.56c.11-1.74.22-3.48.34-5.22l-.94.54a12.2,12.2,0,0,1,4.24,5.49,1.79,1.79,0,0,0,.1.35s0,0,0,0,.12-.16.12-.1a4,4,0,0,1-.53-.08,8.39,8.39,0,0,1-1.2-.49A12.62,12.62,0,0,0,65.5,42c-.78-.17-1.11,1-.33,1.21a10.7,10.7,0,0,1,2.24.93,5.39,5.39,0,0,0,2.45.78A1.1,1.1,0,0,0,71,43.8a4,4,0,0,0-.47-1.56A12.36,12.36,0,0,0,68.7,39.4,15.89,15.89,0,0,0,66,36.8c-.41-.31-.91.12-.94.54-.12,1.74-.23,3.48-.34,5.22C64.67,43.36,65.92,43.36,66,42.56Z"/><path class="cls-1" d="M88.68,7.25c1.57-1.23,3.2-2.38,4.87-3.47a27.55,27.55,0,0,1,.54,5.52C92.35,9.09,89.87,8.54,88.68,7.25Z"/><path class="cls-1" d="M89.12,7.69c1.53-1.19,3.12-2.31,4.75-3.37L93,4a12.76,12.76,0,0,1,.39,2.61c.07.91.1,1.83.12,2.74l.63-.62c-.34,0-.84-.13-1.25-.21a14.91,14.91,0,0,1-1.46-.38,5.44,5.44,0,0,1-2.26-1.28c-.56-.59-1.44.3-.89.88A6.62,6.62,0,0,0,91,9.27a15.75,15.75,0,0,0,3.12.66.63.63,0,0,0,.62-.63c0-.94-.06-1.88-.13-2.82a15.3,15.3,0,0,0-.42-2.86.63.63,0,0,0-.92-.38q-2.58,1.68-5,3.57a.64.64,0,0,0,0,.88A.65.65,0,0,0,89.12,7.69Z"/><path class="cls-1" d="M95.83,2.38c1-.62,2.11-1.21,3.19-1.77C99,2.24,97.39,5.35,97,6.93,95.64,6.24,96,3.86,95.83,2.38Z"/><path class="cls-1" d="M96.15,2.92Q97.71,2,99.33,1.15L98.39.61a2.6,2.6,0,0,1-.07.56,7.69,7.69,0,0,1-.21.79c-.17.58-.38,1.15-.6,1.71-.39,1-.86,2-1.15,3.09l.92-.37a1,1,0,0,1-.47-.54,3.38,3.38,0,0,1-.24-1.06c-.07-.8,0-1.61-.11-2.41a.65.65,0,0,0-.63-.63.63.63,0,0,0-.62.63c.16,1.63-.29,4.13,1.44,5.09a.63.63,0,0,0,.91-.37,32.85,32.85,0,0,1,1.19-3.18A10.7,10.7,0,0,0,99.64.61.64.64,0,0,0,98.7.07q-1.62.84-3.18,1.77A.63.63,0,0,0,96.15,2.92Z"/><path class="cls-1" d="M94.94,46.27c.12,1.21.28,2.41.5,3.61l0,0c.15,1.51.25,3,.32,4.54,0,.5,0,1,0,1.5a23.51,23.51,0,0,1-7.19.59c-.58,0-1.31-.22-1.42-.79a1.29,1.29,0,0,1,.18-.81A24.36,24.36,0,0,1,94.94,46.27Z"/><path class="cls-1" d="M94.32,46.27c.12,1.27.29,2.53.52,3.78l1-.61,0,0a.62.62,0,0,0-1.06.44q.28,3,.36,6l.46-.6a23.94,23.94,0,0,1-5.85.62c-.36,0-1.85.13-2-.39-.06-.24.35-.82.47-1s.35-.62.54-.92a22.32,22.32,0,0,1,6.48-6.75c.67-.43,0-1.51-.63-1.08a23.51,23.51,0,0,0-6.15,6.07c-.41.57-.8,1.15-1.15,1.75a4.68,4.68,0,0,0-.8,1.88c-.1,1.76,2.23,1.71,3.41,1.72a25.78,25.78,0,0,0,6-.66.62.62,0,0,0,.45-.61q-.08-3-.36-6L95,50.28l0,0c.45.52,1.15,0,1-.6-.2-1.15-.36-2.29-.47-3.45C95.49,45.48,94.24,45.47,94.32,46.27Z"/><path class="cls-1" d="M95.67,62.64c.09-1.58.13-3.17.13-4.76h-.32a97.39,97.39,0,0,0-9.94,1.23c-.18,0-.33.17-.51.23-1.09.37-.54.85.09,1,2.78.81,12.25,1.44,10.21,2.83"/><path class="cls-1" d="M96.3,62.64c.08-1.58.12-3.17.12-4.76a.63.63,0,0,0-.62-.62,46.85,46.85,0,0,0-5.67.52c-1,.14-2.11.27-3.15.44a6.68,6.68,0,0,0-2.7.78,1,1,0,0,0-.44,1.13A1.65,1.65,0,0,0,85,61a16.4,16.4,0,0,0,2,.41c1.8.3,3.62.53,5.42.87a13.57,13.57,0,0,1,2.26.56A1.68,1.68,0,0,1,95,63c.12.06.13.07.12.08s-.07-.28-.07-.3.08-.07.07-.13,0,0,0,0c-.66.46,0,1.55.63,1.08.45-.32.79-.83.46-1.37a2.11,2.11,0,0,0-1.24-.79,26.82,26.82,0,0,0-4.62-.93,45.3,45.3,0,0,1-4.77-.83,2.16,2.16,0,0,0-.41-.13l0,0c-.14-.09-.16.05-.07.39,0,0,.34-.15.4-.17a4.32,4.32,0,0,1,1.17-.32c1-.17,1.92-.31,2.89-.43a48.84,48.84,0,0,1,6.39-.62l-.63-.63c0,1.59,0,3.18-.12,4.76,0,.8,1.2.8,1.25,0Z"/><path class="cls-1" d="M99.27,75.44c-.65,2.07-1.35,4.13-2.11,6.16a18.18,18.18,0,0,1-3.53-1.37,1.91,1.91,0,0,1-.87-1.8c.18-1,1.38-1.52,2.41-1.73C96,76.53,98.44,75.51,99.27,75.44Z"/><path class="cls-1" d="M98.67,75.27c-.65,2.08-1.36,4.13-2.11,6.17l.77-.44a22,22,0,0,1-2.12-.71c-.64-.25-1.46-.51-1.77-1.23-.37-.87.57-1.38,1.26-1.59.35-.11.71-.17,1.06-.28s.74-.25,1.11-.38l1.4-.48.62-.18.26-.06.11,0c.13,0-.12,0,0,0a.65.65,0,0,0,.63-.63.63.63,0,0,0-.63-.62,11.07,11.07,0,0,0-2.57.73c-.44.16-.87.31-1.3.44s-.84.19-1.25.34c-1.11.41-2.18,1.26-2,2.57a3,3,0,0,0,2,2.29,19.19,19.19,0,0,0,2.84,1,.64.64,0,0,0,.77-.43c.76-2,1.46-4.09,2.12-6.16C100.12,74.84,98.91,74.51,98.67,75.27Z"/><path class="cls-1" d="M96.66,82.93q-1,2.59-2.11,5.14h-.17c-2.92-.7-4.18-5-3.11-7.85h0a11,11,0,0,0,5,2.55"/><path class="cls-1" d="M96.05,82.77c-.64,1.67-1.32,3.34-2,5l.54-.31H94.4c.14,0-.08,0-.11,0a2.28,2.28,0,0,1-.45-.2,3.41,3.41,0,0,1-.78-.59A4.94,4.94,0,0,1,92,84.81a6.43,6.43,0,0,1-.08-4.43l-.6.46h0l-.45-.18a11.38,11.38,0,0,0,5.27,2.71.62.62,0,0,0,.33-1.2,14,14,0,0,1-2.75-1,7.9,7.9,0,0,1-1.28-.77c-.33-.25-.69-.79-1.13-.79a.63.63,0,0,0-.6.46,7.56,7.56,0,0,0,.18,5.36,6.16,6.16,0,0,0,1.49,2.24,3.56,3.56,0,0,0,2.21,1,.62.62,0,0,0,.54-.31q1.14-2.62,2.17-5.29a.63.63,0,0,0-.44-.77.65.65,0,0,0-.77.44Z"/><path class="cls-1" d="M72.94,112.07c1.22.9,2.39,2.52,3.51,3.55,1.33-1.21,2.63-2.42,3.88-3.61.33-.31.69-.69,1.07-1.11-5-.89-9,.95-8.15,1.17"/><path class="cls-1" d="M72.62,112.61A46,46,0,0,1,76,116.06a.64.64,0,0,0,.88,0,66.84,66.84,0,0,0,5-4.72.63.63,0,0,0-.28-1,15.84,15.84,0,0,0-7,.26,5.29,5.29,0,0,0-1.66.7c-.54.39-.61,1.19.13,1.41s1.1-1,.33-1.2c0,0,.14.09.18.13a.56.56,0,0,1,.1.63s-.09.15,0,0,0,0,0,0a2.73,2.73,0,0,1,.48-.25l.24-.1.39-.13c.33-.1.66-.18,1-.25a14.59,14.59,0,0,1,5.51-.07L81,110.46A66.79,66.79,0,0,1,76,115.18h.88a46.43,46.43,0,0,0-3.64-3.65.63.63,0,0,0-.63,1.08Z"/><path class="cls-1" d="M75.43,116.53c-1.72,1.53-3.5,3-5.33,4.5,0-1.22-.27-3.93-.27-5.14a1.69,1.69,0,0,1,.22-1c.43-.61,1.38-.4,2-.06C73.05,115.3,74.68,115.75,75.43,116.53Z"/><path class="cls-1" d="M75,116.09c-1.74,1.54-3.51,3-5.33,4.5l1.06.44c0-1.47-.18-2.93-.24-4.39,0-.31,0-.63,0-1a.89.89,0,0,1,.08-.43.38.38,0,0,1,.21-.15,1.74,1.74,0,0,1,.92.19c.36.16.71.33,1.08.48A6.8,6.8,0,0,1,75,117c.57.57,1.46-.31.89-.88a7.47,7.47,0,0,0-2.46-1.38,7.19,7.19,0,0,0-2.47-.85,1.73,1.73,0,0,0-1.3.5,2.25,2.25,0,0,0-.44,1.55c0,.79.06,1.58.12,2.37s.14,1.83.14,2.75a.64.64,0,0,0,1.07.44q2.73-2.18,5.34-4.5C76.48,116.44,75.59,115.55,75,116.09Z"/><path class="cls-1" d="M28.84,135.94a68.71,68.71,0,0,0,7.16-.5c-1.82-2.42-5.53-4.83-8.27-6.12-.79-.37-1.92-.59-2.37.15v.33c.18,2.17,1.87,4.32,3.06,6.14"/><path class="cls-1" d="M28.84,136.56a68.52,68.52,0,0,0,7.16-.5c.41,0,.86-.51.54-.94a22,22,0,0,0-7-5.57c-1.06-.58-2.4-1.44-3.68-1.14a1.35,1.35,0,0,0-1.13,1.13,5.24,5.24,0,0,0,.36,1.92,23.64,23.64,0,0,0,2.78,4.79c.44.67,1.53.05,1.08-.63a22.36,22.36,0,0,1-2.65-4.49A5.32,5.32,0,0,1,26,130c0-.08,0-.29,0-.37s0-.11,0,.13a.35.35,0,0,1,.13-.08,2,2,0,0,0,.33,0,2.09,2.09,0,0,1,.5.08,5.38,5.38,0,0,1,.89.37,30.78,30.78,0,0,1,4.16,2.5,16.33,16.33,0,0,1,3.49,3.2l.54-.94a68.52,68.52,0,0,1-7.16.5.63.63,0,0,0,0,1.25Z"/><path class="cls-1" d="M25.85,135.91a55.48,55.48,0,0,1-5.76-.5c-.81-.12-1.62-.25-2.42-.41v-.22a27.4,27.4,0,0,1,1.68-6.35c.36-.62,1.07-1.28,1.69-.92a1.5,1.5,0,0,1,.49.59c.9,1.57,3.14,5.78,4,7.35"/><path class="cls-1" d="M25.85,135.28a54.05,54.05,0,0,1-8-.88l.46.6a6.55,6.55,0,0,1,.15-1.12c.11-.58.24-1.16.38-1.74a16.15,16.15,0,0,1,1-3.17c.13-.28.68-1.2,1-.86a5.87,5.87,0,0,1,.74,1.26l1.73,3.18c.58,1.07,1.16,2.15,1.77,3.22a.63.63,0,0,0,1.08-.63c-1.26-2.22-2.44-4.48-3.67-6.71a3.45,3.45,0,0,0-1.14-1.49,1.76,1.76,0,0,0-2.14.69,8.88,8.88,0,0,0-1.36,3.42c-.19.73-.36,1.47-.51,2.21A9.36,9.36,0,0,0,17,135a.62.62,0,0,0,.46.6,54.43,54.43,0,0,0,8.35.93c.8,0,.8-1.22,0-1.25Z"/></g></g></g></svg>