<svg xmlns="http://www.w3.org/2000/svg" viewBox="0 0 96.79 123.86"><defs><style>.cls-1{fill:#fff;}</style></defs><g id="Layer_2" data-name="Layer 2"><g id="baby-cat-tail-4-patterns"><g id="tail-4-pattern-4-mask"><path class="cls-1" d="M52.23,99.62c-.27,1.26-.79,2.45-1,3.72a3.68,3.68,0,0,0,1.15,3.49,3.65,3.65,0,0,0,4.06-.29,5.4,5.4,0,0,0,2.44-4.09,4.17,4.17,0,0,0-2.37-4,3.41,3.41,0,0,0-4.25,1.45"/><path class="cls-1" d="M51.63,99.46c-.47,2.13-1.59,4.29-.66,6.47s3.18,2.41,5.06,1.57a6.09,6.09,0,0,0,3.47-4.59A4.85,4.85,0,0,0,57.08,98a4,4,0,0,0-5.32,1.58c-.37.71.71,1.34,1.08.63A2.77,2.77,0,0,1,56.17,99a3.48,3.48,0,0,1,2.12,3.46,4.75,4.75,0,0,1-2.39,3.71c-1.24.73-3,.86-3.75-.64-.87-1.84.29-3.93.69-5.73.17-.78-1-1.12-1.21-.33Z"/><path class="cls-1" d="M73.41,76.16a5.45,5.45,0,0,0,7.63,0c.95-1,1.36-2.86.22-3.65a3,3,0,0,0-1.42-.4A26.18,26.18,0,0,0,77.18,72a6.88,6.88,0,0,0-2.71.38,2.82,2.82,0,0,0-1.79,1.95,3.2,3.2,0,0,0,2,2.78"/><path class="cls-1" d="M73,76.6c2.55,2.65,8.08,2.32,9.41-1.47a2.89,2.89,0,0,0-.22-2.56,3.52,3.52,0,0,0-2.82-1.11c-2.22-.19-5.2-.46-6.72,1.55a2.47,2.47,0,0,0-.18,2.84,3.49,3.49,0,0,0,2,1.85c.78.18,1.12-1,.33-1.2a2.26,2.26,0,0,1-1.2-1.1,1.28,1.28,0,0,1-.07-1.56c1-1.52,3.39-1.27,5-1.19.49,0,1,.06,1.46.12a1.74,1.74,0,0,1,1.08.41,1.61,1.61,0,0,1,.12,1.62A3.89,3.89,0,0,1,78.07,77a4.77,4.77,0,0,1-4.21-1.32c-.56-.58-1.45.3-.89.88Z"/><path class="cls-1" d="M86.62,38.09a6.29,6.29,0,0,0,.1,3.84,4.16,4.16,0,0,0,4,2.17,5.17,5.17,0,0,0,4.65-3.22,4,4,0,0,0-2.14-5,6.88,6.88,0,0,0-2.86-.23,6.5,6.5,0,0,0-2.44.47,2.21,2.21,0,0,0-1.33,2"/><path class="cls-1" d="M86,37.93c-.49,2.2-.4,4.71,1.71,6a5.79,5.79,0,0,0,5.83-.05,5,5,0,0,0,2.61-5,4.4,4.4,0,0,0-4-3.85,12,12,0,0,0-2,0,7.59,7.59,0,0,0-2.16.37A2.92,2.92,0,0,0,86,38.09a.63.63,0,0,0,1.25,0c0-2,3.15-1.87,4.44-1.84a3.31,3.31,0,0,1,2.22.78,3.57,3.57,0,0,1,1,1.8c.72,3.25-3.24,5.48-6,4.33a2.93,2.93,0,0,1-1.68-1.68,5.78,5.78,0,0,1,0-3.22c.17-.78-1-1.12-1.21-.33Z"/><path class="cls-1" d="M25,93.65a17.28,17.28,0,0,0,4.74,2.57c6.3,2.2,13.59,1,19.28-2.57,2.12,3.56.72,9.79-2.28,12.65a12.53,12.53,0,0,1-8.62,3.06,14.06,14.06,0,0,1-5.34-.91C27.93,106.52,24,98.77,25,93.65Z"/><path class="cls-1" d="M24.69,94.19c7.24,5.38,17.2,4.55,24.64,0L48.48,94c1.68,3,1,7-.66,9.89-2.08,3.66-6.32,5-10.33,4.87a10.94,10.94,0,0,1-9.35-5.25c-1.8-2.75-3.13-6.33-2.54-9.66.15-.79-1.06-1.13-1.2-.33-1,5.51,2.4,12.66,7.44,15.22a15.13,15.13,0,0,0,10.72.64,10.67,10.67,0,0,0,7-6.15c1.31-3,1.72-6.87,0-9.86a.64.64,0,0,0-.86-.23c-7.1,4.34-16.47,5.13-23.38,0C24.67,92.63,24.05,93.72,24.69,94.19Z"/><path class="cls-1" d="M67.19,60.82a167.3,167.3,0,0,0,2.57-22.56c2.46.76,5.15,3.16,7,4.94a11.06,11.06,0,0,1,3.46,6.74,9.5,9.5,0,0,1-3.4,8.18c-2.39,1.93-6.72,3.63-9.65,2.7,0-.16,2.78,1,3.52.1"/><path class="cls-1" d="M67.79,61a169.87,169.87,0,0,0,2.59-22.73l-.79.61c2.69.89,5,3,7,5a9.86,9.86,0,0,1,3,8,9.05,9.05,0,0,1-4.45,6.64C72.91,59.89,70,61,67.36,60.22l.27,1c-.49.43-.55.05-.17.23a2,2,0,0,0,.47.12,10.3,10.3,0,0,0,1.21.23,2.39,2.39,0,0,0,2-.48c.6-.53-.28-1.42-.88-.88-.93.84-2.61-.89-3.52-.1a.62.62,0,0,0,.28,1c2.88.83,6.11-.25,8.6-1.71a10.4,10.4,0,0,0,5.16-7.39,10.88,10.88,0,0,0-2.72-8.66,20.08,20.08,0,0,0-8.15-6,.63.63,0,0,0-.79.6,168.39,168.39,0,0,1-2.54,22.4c-.16.78,1,1.12,1.2.33Z"/><path class="cls-1" d="M85.19,19.68a5.24,5.24,0,0,1-6.57-7,22.36,22.36,0,0,1,2.2-3.95,60.57,60.57,0,0,1,5.31-6.39,5.37,5.37,0,0,1,9.12,2.35h0a13.21,13.21,0,0,1,.49,3.85A11.46,11.46,0,0,1,89.16,18C87.6,18.72,86.31,19.27,85.19,19.68Z"/><path class="cls-1" d="M85,19.07a4.66,4.66,0,0,1-6.2-4.78c.19-1.79,1.41-3.63,2.41-5.08a54.22,54.22,0,0,1,4-5C86.35,3,87.38,1.71,89.05,1.35a4.84,4.84,0,0,1,3.7.74,5.45,5.45,0,0,1,2.12,3.7,10,10,0,0,1-.43,5.79c-1.65,4.09-5.49,6-9.42,7.49-.75.28-.42,1.49.34,1.21,4.08-1.5,8-3.51,10-7.64a10.85,10.85,0,0,0,.91-6.23A7.59,7.59,0,0,0,94,1.46,6.1,6.1,0,0,0,89.75,0a6.47,6.47,0,0,0-4.5,2.33,64.42,64.42,0,0,0-4.78,5.79c-1.23,1.7-2.61,3.81-2.88,5.92a5.93,5.93,0,0,0,7.77,6.23C86.11,20,85.79,18.81,85,19.07Z"/><path class="cls-1" d="M96.18,83.13q-2.66,5.25-5.75,10.24l1.92-3.21a71.7,71.7,0,0,1-24.28,24.23c-2.54-7.85-.8-17.76,4.65-24s15.2-10,23-7.3"/><path class="cls-1" d="M95.64,82.82Q93,88.06,89.89,93.06l1.08.63,1.92-3.21a.63.63,0,0,0-1.08-.63,71.1,71.1,0,0,1-24.06,24l.92.38a25.66,25.66,0,0,1,1.62-19.07A23.25,23.25,0,0,1,84.92,83.63a18.53,18.53,0,0,1,10.64.11c.77.25,1.1-1,.34-1.21-6.46-2.12-13.69-.22-19.16,3.54a24.27,24.27,0,0,0-10.16,16.87,26.56,26.56,0,0,0,.89,11.62.63.63,0,0,0,.92.37,72.54,72.54,0,0,0,24.5-24.45l-1.08-.63-1.92,3.21a.63.63,0,0,0,1.08.63q3.09-5,5.75-10.24c.36-.72-.72-1.35-1.08-.63Z"/><path class="cls-1" d="M22.42,123.24A44.81,44.81,0,0,1,9.56,118.7a79.53,79.53,0,0,1-8.93-6.21c3.06-2.87,8.77-3.5,12.61-1.8a17.46,17.46,0,0,1,3.32,2,14.28,14.28,0,0,1,3.83,3.92C21.45,118.42,22.77,121.21,22.42,123.24Z"/><path class="cls-1" d="M22.58,122.64a45.29,45.29,0,0,1-11.66-3.93c-3.61-1.83-6.74-4.37-10-6.76l.13,1c3.24-2.92,8.74-3.36,12.56-1.36a16.59,16.59,0,0,1,6,5.09c1.22,1.85,2.44,4.31,2.13,6.58-.1.79,1.15.79,1.25,0,.33-2.47-1-5.19-2.3-7.21a17.72,17.72,0,0,0-6.83-5.72A13,13,0,0,0,.18,112.05a.64.64,0,0,0,.13,1c3.35,2.47,6.58,5.08,10.33,6.93a46.52,46.52,0,0,0,11.61,3.88C23,124,23.37,122.79,22.58,122.64Z"/></g></g></g></svg>