<svg xmlns="http://www.w3.org/2000/svg" viewBox="0 0 51.01 27.66"><defs><style>.cls-1{fill:#fff;}</style></defs><g id="Layer_2" data-name="Layer 2"><g id="baby-cat-tail-4-patterns"><g id="tail-4-pattern-2-mask"><path class="cls-1" d="M50.39,2.07c-.39.43-.76.82-1.1,1.14-7.61,7.22-16.76,15.2-26.67,18.64L25,20.78c-2.31,1.39-4.64,1.95-7.15,2.95a39.44,39.44,0,0,1-6.76,1.9A74.32,74.32,0,0,1,.62,27C2.39,18.63,10.68,12.24,17.84,7.5c3.75-2.48,7.66-4.9,12-6C36.09,0,44.1.8,50.39,2.07Z"/><path class="cls-1" d="M50,1.62a75.65,75.65,0,0,1-6,5.7c-2.17,1.93-4.4,3.81-6.71,5.57a55.29,55.29,0,0,1-14.74,8.36l.48,1.14,2.42-1.08-.63-1.07a32,32,0,0,1-5.36,2.27c-2,.7-3.86,1.45-5.89,2A72.63,72.63,0,0,1,.62,26.41l.6.79C2.83,20,8.85,14.64,14.62,10.48a76.83,76.83,0,0,1,9.71-6.16,27.59,27.59,0,0,1,12.08-3A62.22,62.22,0,0,1,50.22,2.67c.79.16,1.12-1,.33-1.21-8-1.59-16.95-2.56-24.69.76a62.6,62.6,0,0,0-11.1,6.62,56.46,56.46,0,0,0-8.66,7.3A23.44,23.44,0,0,0,0,26.87a.62.62,0,0,0,.6.79,74.38,74.38,0,0,0,13.19-2c2.1-.52,4.07-1.31,6.1-2a31.14,31.14,0,0,0,5.45-2.33c.71-.41.09-1.39-.63-1.07l-2.42,1.07c-.64.29-.19,1.38.48,1.14a56,56,0,0,0,15-8.48c2.29-1.74,4.49-3.58,6.64-5.48a78.2,78.2,0,0,0,6.36-6C51.37,1.91,50.49,1,50,1.62Z"/></g></g></g></svg>