<svg xmlns="http://www.w3.org/2000/svg" viewBox="0 0 113.5 138.12"><defs><style>.cls-1{fill:#fff;}</style></defs><g id="Layer_2" data-name="Layer 2"><g id="baby-cat-tail"><g id="baby-cat-tail-4"><g id="mask"><path class="cls-1" d="M20.86,90.2c1.85,8.23,7.63,17.56,15.8,19.67a23.61,23.61,0,0,0,23-7l-.48.58C77.32,83.15,74.32,55.15,77,30.71l.31.31A36.5,36.5,0,0,0,87.84,40.7l-7.22-5.9c.24-3.86,2.17-7.42,4.33-10.63A67.15,67.15,0,0,1,112.88.61c-1.47,7.51-3.85,15.75-5.21,23.28-1.64,9.11-3.28,18.45-1.6,27.55l0,0a85.33,85.33,0,0,1-.57,20.94l.48-.52,6.82-5.68a128.09,128.09,0,0,1-16.53,40.54l1.93-3.21A43.36,43.36,0,0,1,91,113.58c-7.61,7.21-16.76,15.19-26.67,18.63l2.42-1.07c-2.31,1.4-4.64,2-7.15,3A38.56,38.56,0,0,1,52.8,136a65.07,65.07,0,0,1-22.08,1,43.6,43.6,0,0,1-20.38-8.21,65.05,65.05,0,0,0-9.17-6.37l-.55-.33a86.51,86.51,0,0,0,7.54-8.43c.5-.65,1-1.3,1.49-2,.65-.86,1.29-1.75,1.88-2.66C14.39,104.6,20.86,90.2,20.86,90.2Z"/><path class="cls-1" d="M20.26,90.36c1.5,6.52,4.95,13.09,10.36,17.19s13.15,4.52,19.57,2.3a24,24,0,0,0,10-6.52l-.88-.89-.48.59c-.49.61.34,1.49.89.88,6.73-7.62,11-16.89,13.26-26.74s2.88-19.71,3.46-29.63c.33-5.62.65-11.23,1.26-16.83l-1.07.45c.74.75,1.32,1.66,2,2.46a36.23,36.23,0,0,0,2.77,2.91,38.14,38.14,0,0,0,6.17,4.71c.59.37,1.31-.52.75-1l-4.56-3.73a13.39,13.39,0,0,1-2.42-2c0-.06-.19-.1-.21-.17.08.27.33-1,.35-1.11a16.2,16.2,0,0,1,1-3.27c1.79-4.39,4.9-8.38,8-11.92A66.27,66.27,0,0,1,113.2,1.15l-.92-.71c-1.66,8.37-4,16.57-5.51,25-1.54,8.65-2.86,17.47-1.3,26.21l1-.61,0,0a.62.62,0,0,0-1.06.44,87,87,0,0,1-.55,20.77c-.08.56.58,1.11,1,.61a74.69,74.69,0,0,1,7.31-6.19l-1-.61a128.6,128.6,0,0,1-16.47,40.38l1.08.64,1.93-3.21-1.08-.63c-2.92,6.23-7.91,10.93-13,15.38-6.09,5.32-12.78,10.35-20.48,13.07l.48,1.14L67,131.68l-.63-1.08a39.29,39.29,0,0,1-6.18,2.57,48.52,48.52,0,0,1-6.9,2.08,71.23,71.23,0,0,1-14.91,1.63c-9.07,0-18.25-2.2-25.85-7.3-2.08-1.39-4-3-6-4.49-1.8-1.32-3.7-2.42-5.61-3.57l.12,1c4.65-4.6,9.2-9.74,12.36-15.5,2.33-4.25,4.38-8.66,6.41-13.06.53-1.14,1.06-2.29,1.57-3.44.33-.72-.75-1.36-1.08-.63q-2,4.44-4.1,8.81A74.49,74.49,0,0,1,9,111.51a89,89,0,0,1-8.8,10.11.63.63,0,0,0,.13,1c1.72,1,3.44,2,5.07,3.18,1.93,1.38,3.74,2.9,5.67,4.28a42.22,42.22,0,0,0,12,5.84c9.37,2.9,19.42,2.71,29,.88a44.33,44.33,0,0,0,7.91-2.17,47.34,47.34,0,0,0,7.1-2.93c.71-.42.09-1.4-.63-1.08L64,131.67c-.65.29-.19,1.38.48,1.14,7.78-2.75,14.53-7.74,20.71-13.11,5.29-4.59,10.5-9.46,13.53-15.91.33-.72-.66-1.34-1.08-.63l-1.93,3.2a.63.63,0,0,0,1.08.64,129.76,129.76,0,0,0,16.6-40.69.64.64,0,0,0-1.05-.61,77.32,77.32,0,0,0-7.3,6.2l1,.6a87.65,87.65,0,0,0,.59-21.1l-1.07.44,0,0c.45.51,1.14,0,1-.61-1.57-8.84-.09-17.78,1.48-26.5,1.45-8.08,3.74-16,5.34-24a.63.63,0,0,0-.92-.7A68,68,0,0,0,89.93,16.74,50.06,50.06,0,0,0,81.7,28.53a21.49,21.49,0,0,0-1.18,3.16c-.21.77-.79,2.48-.5,3.28.21.59,1.14,1.07,1.59,1.44l5.79,4.73.76-1a36.71,36.71,0,0,1-6.22-4.8c-1.64-1.58-2.9-3.48-4.48-5.09a.63.63,0,0,0-1.06.44C74.3,50,75.78,70.32,68,88.48A54.33,54.33,0,0,1,58.78,103l.89.88.47-.58c.49-.62-.33-1.49-.88-.89a23.21,23.21,0,0,1-18,7.49,17.39,17.39,0,0,1-9.16-2.85,23.48,23.48,0,0,1-6.49-7,32.94,32.94,0,0,1-4.14-10C21.28,89.25,20.08,89.58,20.26,90.36Z"/></g></g></g></g></svg>