<svg xmlns="http://www.w3.org/2000/svg" viewBox="0 0 44.58 42.85"><defs><style>.cls-1{fill:#fff;}</style></defs><g id="Layer_2" data-name="Layer 2"><g id="волосики"><g id="baby-cat-head-5"><g id="mask"><path class="cls-1" d="M28,30.33c-.82-2-3.23-2.71-5.34-3.12a105.28,105.28,0,0,0-22-2c-.57,3.44,1.24,7,3.92,9.18a22.48,22.48,0,0,0,9.79,4.2"/><path class="cls-1" d="M28.57,30a6.09,6.09,0,0,0-4-3,50.34,50.34,0,0,0-7.62-1.4,108.55,108.55,0,0,0-16.22-1,.64.64,0,0,0-.6.46c-1.17,8.33,7.28,12.72,14.15,14.15.78.16,1.12-1,.33-1.21C8.53,36.75.26,33,1.31,25.4l-.6.45a108.35,108.35,0,0,1,14.63.8c2.46.31,4.92.69,7.35,1.19,1.87.39,3.93.95,4.81,2.81.34.73,1.42.09,1.07-.63Z"/><path class="cls-1" d="M8.67,42.22c2.82-1.68,3-2,5.75-3.61,0,0,10.93-5.22,14.59-6.88,3.14-1.42,12.59-5.46,12.59-5.46C43.51,22.81,44,18.61,44,14.66q-.12-7-.69-14C39.84,3.85,35.73,7.08,33.09,11a24.25,24.25,0,0,0-3.93,8.18C28.27,22.43,28.75,27,28,30.33"/><path class="cls-1" d="M9,42.76c2.75-1.65,5.33-3.42,8.23-4.8,3.48-1.65,7-3.31,10.45-4.93,3.19-1.48,6.42-2.86,9.65-4.25,1.4-.61,2.83-1.16,4.2-1.81s1.93-3.31,2.28-4.69a36.4,36.4,0,0,0,.74-10Q44.38,6.42,43.9.62A.63.63,0,0,0,42.83.18c-4.46,4.18-9.07,8-12.1,13.39A21,21,0,0,0,28.18,21c-.4,3.05-.14,6.17-.75,9.2-.16.78,1.05,1.12,1.21.33a69.73,69.73,0,0,0,.65-8.18,19.82,19.82,0,0,1,2.52-8.11c3-5.33,7.53-9,11.91-13.15L42.65.62q.41,5.07.59,10.16A46.43,46.43,0,0,1,43,20.06a20.21,20.21,0,0,1-1.1,4.12c-.27.68-.38,1.34-1,1.69a29.44,29.44,0,0,1-4,1.72c-6.57,2.82-13.05,5.82-19.51,8.89-1.09.52-2.21,1-3.28,1.56-2,1.07-3.86,2.47-5.8,3.64A.63.63,0,0,0,9,42.76Z"/></g></g></g></g></svg>