<svg xmlns="http://www.w3.org/2000/svg" viewBox="0 0 146 172.7"><defs><style>.cls-1{fill:#fff;}</style></defs><g id="Layer_2" data-name="Layer 2"><g id="baby-cat-tail"><g id="baby-cat-tail-1"><g id="mask"><path class="cls-1" d="M21.68,113a9.81,9.81,0,0,0,12,9.76c5.38-1.25,8.66-6.63,10.73-11.75a72.12,72.12,0,0,0,4.19-38.88,21.52,21.52,0,0,1,9.5,11.33l1.75,4.87-.74-5.46c-.83-6.09,1.19-12.17,2.12-18.25.69-4.51.79-9.13,1.89-13.57a50,50,0,0,1,4.26-10.6,95.62,95.62,0,0,1,7.07-11.9A73.86,73.86,0,0,1,102.05,5c-.37,4.38-.73,9,.75,13.11C114.61,8.05,130.29,4.19,145.37.62l-.05.42C129.78,18.94,119,41.82,119.25,65.52l.2-.2a34.71,34.71,0,0,0,9.33-9.5c-1.77,12.24-3,24.76-5.67,36.84-2.62,11.74-7.75,22.7-13,33.47l.93-1.53a75.54,75.54,0,0,1-37.48,29.24l-.18.34A29.35,29.35,0,0,0,83,157l0,.35a76.91,76.91,0,0,1-56.5,4.74,25.94,25.94,0,0,1-.32,9.13l-.52.89C19.14,161.91,9.14,154.91,1.1,146.15l-.48-.57C5,141.39,9.28,137,12.34,131.73,15,127.2,21.68,113,21.68,113Z"/><path class="cls-1" d="M21.05,113a10.59,10.59,0,0,0,7.33,10.15c4.33,1.35,8.69-.34,11.68-3.56,3.16-3.41,4.95-7.91,6.41-12.26A73,73,0,0,0,50,90.69a73.23,73.23,0,0,0-.73-18.76l-.91.7a21.14,21.14,0,0,1,7.44,7.27,46,46,0,0,1,3.51,8.56.63.63,0,0,0,1.21-.33A65.12,65.12,0,0,1,59.58,80,51.21,51.21,0,0,1,61,69.43c.67-3.33,1.15-6.64,1.5-10A51.15,51.15,0,0,1,64.32,49.2c2-6.37,5.5-12.52,9.15-18.09A73.25,73.25,0,0,1,102.36,5.57L101.42,5c-.37,4.44-.69,9,.78,13.28a.63.63,0,0,0,1,.28C115.14,8.5,130.71,4.73,145.53,1.22l-.79-.6c-.06.61-1.14,1.48-1.61,2-.75.91-1.5,1.83-2.22,2.76q-2.17,2.78-4.19,5.67a112,112,0,0,0-7.45,12.34A95.66,95.66,0,0,0,120,49.72a82.11,82.11,0,0,0-1.42,15.8.63.63,0,0,0,1.07.44,28.23,28.23,0,0,1,2.38-1.82,35.31,35.31,0,0,0,2.8-2.53,36.63,36.63,0,0,0,4.45-5.48l-1.14-.48c-1.38,9.59-2.41,19.24-4.08,28.79a123.75,123.75,0,0,1-7.8,26.86c-2.07,4.91-4.36,9.72-6.68,14.51a.63.63,0,0,0,1.08.63l.93-1.52c.42-.69-.64-1.3-1.08-.63a74.53,74.53,0,0,1-17.26,18.26,75.62,75.62,0,0,1-10.38,6.56c-1.88,1-3.8,1.89-5.77,2.71-1,.4-2,.79-3,1.15-.64.24-1,.3-1.3.89a.64.64,0,0,0,.22.86A31.38,31.38,0,0,0,83,157.59l-.62-.62,0,.35.3-.54a76,76,0,0,1-56,4.68c-.5-.16-.82.32-.76.77a26.6,26.6,0,0,1,.14,5.78,8.55,8.55,0,0,1-.92,3.75h1.08a79.83,79.83,0,0,0-12.42-14.19c-4.29-4-8.92-7.91-12.73-12.43V146c5-4.8,9.67-9.85,12.94-16,2.29-4.31,4.4-8.72,6.5-13.12.58-1.2,1.15-2.41,1.72-3.61.34-.72-.74-1.36-1.08-.63q-2.13,4.51-4.32,9c-2.25,4.6-4.41,9.32-7.46,13.45a79.35,79.35,0,0,1-9.18,10,.63.63,0,0,0,0,.88c3.72,4.42,8.23,8.2,12.42,12.15,4.61,4.35,9.07,8.89,12.53,14.23a.64.64,0,0,0,1.08,0,9.3,9.3,0,0,0,1-3.93,27.34,27.34,0,0,0-.14-6.58l-.77.77a77.78,77.78,0,0,0,47.32-.76q3-1,6-2.31c1.06-.46,2.1-.94,3.13-1.45.69-.34.85-.44.92-1.17,0-.37-.32-.59-.63-.63a29.28,29.28,0,0,1-9.29-2.7l.22.85c.23-.44,1.46-.65,2-.87.91-.36,1.81-.73,2.71-1.12,1.94-.85,3.84-1.77,5.7-2.78a76.42,76.42,0,0,0,27.21-24.8l-1.08-.63-.93,1.52,1.08.63c4-8.34,8-16.76,10.83-25.6,2.93-9.18,4.34-18.78,5.63-28.3.75-5.52,1.43-11,2.23-16.56a.63.63,0,0,0-1.15-.48A34.87,34.87,0,0,1,123.69,61a32.91,32.91,0,0,1-2.5,2.23,26.8,26.8,0,0,0-2.38,1.83l1.06.44c-.16-19.07,6.79-37.49,17.45-53.11,1.54-2.25,3.16-4.46,4.86-6.6.82-1,1.65-2.06,2.5-3.07.6-.71,1.22-1.19,1.31-2.12,0-.42-.43-.69-.79-.6-15.06,3.56-30.76,7.44-42.84,17.68l1,.28C102,13.79,102.31,9.36,102.67,5a.63.63,0,0,0-.94-.54A74.82,74.82,0,0,0,73.82,28.38,86.18,86.18,0,0,0,64,46.49c-2.61,6.74-2.46,14-3.82,21a71.42,71.42,0,0,0-1.79,11.62,58,58,0,0,0,.94,9.38l1.21-.33c-1.12-3.12-2.06-6.37-3.84-9.19A22.56,22.56,0,0,0,49,71.55a.64.64,0,0,0-.92.71,71.86,71.86,0,0,1-1.34,29.91A51.84,51.84,0,0,1,41.84,115c-2,3.54-5.14,7-9.46,7.35A9.32,9.32,0,0,1,22.3,113,.63.63,0,0,0,21.05,113Z"/></g></g></g></g></svg>