<svg xmlns="http://www.w3.org/2000/svg" viewBox="0 0 227.75 78.63"><defs><style>.cls-1{fill:#fff;}</style></defs><g id="Layer_2" data-name="Layer 2"><g id="baby-cat-ears"><g id="baby-cat-ears-3"><g id="mask"><path class="cls-1" d="M112.47,4.85,96.12,7C78.23,9.29,60.3,11.61,42.27,12.14c-13.72.41-27.49-.22-41.14,1.21H.63C4,23.61,11.89,31.69,20.17,38.6,42.1,56.91,70.91,71.48,98.79,77.73l1.14.28a46.29,46.29,0,0,1-1.75-9.42l.13.69a88.19,88.19,0,0,1-.91-24.06,94.32,94.32,0,0,1,9-31l-.72,1.64a81.92,81.92,0,0,1,6.82-11"/><path class="cls-1" d="M112.47,4.23C97.75,6.13,83,8.19,68.27,9.7c-7.34.75-14.7,1.35-22.07,1.67s-14.71.29-22.07.34c-4.09,0-8.17.09-12.25.26-2.12.09-4.24.2-6.36.36-1.62.12-3.27.41-4.89.39a.63.63,0,0,0-.6.79c2.42,7.31,7.06,13.56,12.46,19A140.83,140.83,0,0,0,31,47.68,197.65,197.65,0,0,0,75.12,71.21a207.31,207.31,0,0,0,24.65,7.4.64.64,0,0,0,.77-.77,46.28,46.28,0,0,1-1.73-9.25l-1.23.16.12.7c.14.79,1.35.45,1.21-.33a90,90,0,0,1,8-54.59l-1.08-.63-.72,1.64c-.31.72.7,1.36,1.08.63a84.68,84.68,0,0,1,6.82-11c.47-.65-.61-1.28-1.08-.63a84.68,84.68,0,0,0-6.82,11l1.08.63.72-1.64c.32-.73-.73-1.37-1.08-.63A91.47,91.47,0,0,0,97.7,69.45l1.21-.33-.12-.7a.63.63,0,0,0-1.23.17,48.84,48.84,0,0,0,1.77,9.58l.77-.77a209.36,209.36,0,0,1-21-6.05,192.79,192.79,0,0,1-22.93-9.89c-14.33-7.3-28.16-16.27-40-27.18C9.78,28.4,4,21.54,1.23,13.18L.63,14c1.3,0,2.62-.21,3.92-.31,2-.16,3.91-.28,5.86-.38C14,13.11,17.59,13,21.19,13c7.35-.08,14.71,0,22.06-.26,14.76-.48,29.45-2.15,44.08-4,8.38-1.06,16.76-2.16,25.14-3.24.78-.1.79-1.36,0-1.25Z"/><path class="cls-1" d="M227.12.63c-9.07,2.51-18.53,3.18-27.91,3.93q-44,3.51-87.7,9.51c4.42,9.17,11.6,16.82,19.75,22.91s17.3,10.74,26.55,15c6.73,3.09,13.54,6,20.47,8.59A60.54,60.54,0,0,0,193.4,63.2c3.53,0,7.46-.16,11,0,4.66.21,5.89-.57,8.08-.68,4-.2,3.44-1.34,7.5-1.27Z"/><path class="cls-1" d="M227,0A123.82,123.82,0,0,1,204.7,3.49c-7.59.64-15.19,1.23-22.77,1.92q-22.71,2.07-45.35,4.8Q124,11.74,111.35,13.46c-.43.06-.53.61-.38.92,7.84,16.11,23.12,26.6,38.7,34.4,8.67,4.33,17.59,8.25,26.64,11.71a56.57,56.57,0,0,0,21.19,3.32c4.33-.07,8.73.37,13-.39,1.51-.27,3.06-.24,4.54-.61a18.39,18.39,0,0,1,4.9-.92.65.65,0,0,0,.62-.63L223,40.82,226.86,8.1l.88-7.47c.1-.8-1.15-.79-1.25,0l-2.41,20.44-3.87,32.72-.88,7.47.63-.62a12.19,12.19,0,0,0-4.12.62,21.79,21.79,0,0,1-4.33.74c-1.17.15-2.32.42-3.5.53-2,.18-4.07,0-6.11,0a116.37,116.37,0,0,1-12-.19,57.69,57.69,0,0,1-10.26-1.95,121.87,121.87,0,0,1-12.73-5q-6.64-2.85-13.16-6c-8.3-4-16.47-8.41-23.72-14.11-7.43-5.84-13.87-13-18-21.54l-.37.92C142,10.51,172.49,7.37,203,4.88c8.16-.66,16.34-1.49,24.25-3.65A.62.62,0,0,0,227,0Z"/></g></g></g></g></svg>