<svg xmlns="http://www.w3.org/2000/svg" viewBox="0 0 50.14 27.77"><defs><style>.cls-1{fill:#fff;}</style></defs><g id="Layer_2" data-name="Layer 2"><g id="бровки"><g id="baby-cat-brows-2"><g id="mask"><path class="cls-1" d="M40.37.68a90.49,90.49,0,0,0-2.1,14.67,16.66,16.66,0,0,0,.07,3.93,17.83,17.83,0,0,0,2.51,5.81c4.2-.3,7.09-1.72,8.66-3.85-2.12-2-3.29-4.82-4.39-7.53L42.23,6.63A24.31,24.31,0,0,1,40.37.68Z" transform="translate(0 -0.06)"/><path class="cls-1" d="M39.77.51a85.42,85.42,0,0,0-2,12.92,22.34,22.34,0,0,0,0,6.22,18.88,18.88,0,0,0,2.53,5.76.6.6,0,0,0,.54.31c3.48-.29,7-1.29,9.2-4.17a.62.62,0,0,0-.09-.76c-2.61-2.56-3.79-6.15-5.14-9.46C43.39,7.84,41.53,4.27,41,.51c-.12-.79-1.33-.46-1.21.33.6,4.06,2.66,7.94,4.2,11.71,1.33,3.24,2.56,6.62,5.1,9.13l-.1-.76c-1.9,2.48-5.15,3.3-8.12,3.55l.54.31a17.22,17.22,0,0,1-2.45-5.67A24.52,24.52,0,0,1,39.09,13,81.78,81.78,0,0,1,41,.84C41.17.06,40-.27,39.77.51Z" transform="translate(0 -0.06)"/><path class="cls-1" d="M2.91,27.22a80,80,0,0,0-1.3-18,34.62,34.62,0,0,1-1-7.69,3.58,3.58,0,0,0,.43.56A35.62,35.62,0,0,1,11.5,20.84c.11,1,.19,1.76.27,2.55A22.25,22.25,0,0,1,2.91,27.22Z" transform="translate(0 -0.06)"/><path class="cls-1" d="M3.54,27.22A82.26,82.26,0,0,0,3,14.28C2.5,10,1.15,5.79,1.26,1.51L.09,1.82c1,1.44,2.47,2.57,3.58,3.91a35,35,0,0,1,3.61,5.4,33,33,0,0,1,3.87,12.26l.31-.54a21,21,0,0,1-8.71,3.77c-.8.12-.46,1.32.33,1.2a21.73,21.73,0,0,0,9-3.89.64.64,0,0,0,.31-.54A34.32,34.32,0,0,0,8.73,11.21,34.67,34.67,0,0,0,5.35,5.86c-.63-.82-1.29-1.62-2-2.38A21.5,21.5,0,0,1,1.17,1.19.63.63,0,0,0,0,1.51C-.1,5.8,1.25,10,1.77,14.28a82.26,82.26,0,0,1,.52,12.94C2.26,28,3.51,28,3.54,27.22Z" transform="translate(0 -0.06)"/></g></g></g></g></svg>