<svg xmlns="http://www.w3.org/2000/svg" viewBox="0 0 71.76 87.13"><defs><style>.cls-1{fill:#fff;}</style></defs><g id="Layer_2" data-name="Layer 2"><g id="baby-cat-tail"><g id="baby-cat-tail-2"><g id="mask"><path class="cls-1" d="M11.35,49.84c0,4.51,1.92,9.79,5.32,12.76a15.93,15.93,0,0,0,12.6,3.69,29,29,0,0,0,7.43-2.46A44,44,0,0,0,45.57,59c8.55-6.4,12-17.49,14-28S62.92,9.51,68.82.61a189.18,189.18,0,0,1,2,41.18A40,40,0,0,1,69,52.66a44.63,44.63,0,0,1-3.15,6.49c-2.47,4.47-5,9-8.45,12.75a43.91,43.91,0,0,1-8,6.61c-7.4,5-16.13,8.62-25,7.95C15,85.75,5,79,.66,70.59l0-.06c.47-.66.93-1.32,1.39-2,0,0,3.69-6.93,4.89-9.33S11.35,49.84,11.35,49.84Z"/><path class="cls-1" d="M10.73,49.84c0,6.69,3.5,13.21,9.8,15.89,7.42,3.15,15-.23,21.65-3.83,13.29-7.24,16.52-22.41,19-36.11C62.78,17.18,64.49,8.36,69.36.92L68.22.77a189.49,189.49,0,0,1,2.29,30.09,142.56,142.56,0,0,1-.65,14.61,29.94,29.94,0,0,1-1.57,7.23,46.27,46.27,0,0,1-3.21,6.51,66.16,66.16,0,0,1-7.41,11.43A44.82,44.82,0,0,1,47.1,79.26c-7.45,4.61-16.55,8-25.41,6.2C13.36,83.8,4.92,78,1.16,70.21v.63A81,81,0,0,0,7.19,60c1.65-3.24,3.16-6.57,4.7-9.87.34-.72-.74-1.36-1.08-.63-1.54,3.3-3.05,6.63-4.69,9.87a82.78,82.78,0,0,1-6,10.82.6.6,0,0,0,0,.63c3.43,7.09,10.68,12.53,18,15,8.52,2.82,17.62.82,25.43-3.13A55.2,55.2,0,0,0,55.19,74.9a44,44,0,0,0,8.59-10.85c2.42-4.09,5.1-8.36,6.34-13C71.44,46.19,71.52,41,71.68,36A192,192,0,0,0,69.42.44c-.09-.57-.88-.55-1.14-.15-7.81,11.94-7.49,26.71-11.57,40-1.94,6.27-4.88,12.43-9.82,16.87a36.22,36.22,0,0,1-9.7,5.82c-3.59,1.6-7.28,3.14-11.29,2.84a14.79,14.79,0,0,1-10.29-5.19A17.33,17.33,0,0,1,12,49.84.63.63,0,0,0,10.73,49.84Z"/></g></g></g></g></svg>