<svg xmlns="http://www.w3.org/2000/svg" viewBox="0 0 69.99 40.86"><defs><style>.cls-1{fill:#fff;}</style></defs><g id="Layer_2" data-name="Layer 2"><g id="волосики"><g id="baby-cat-head-2"><g id="mask"><path class="cls-1" d="M5.08,40.26c2.48-2.16,4.85-4.56,7.79-6,6.51-3.25,20.78-7.14,27.65-9.16C47.73,23,69.2,17.7,69.2,17.7a12,12,0,0,0-2.57-9.48A15.75,15.75,0,0,0,58.83,4a25.85,25.85,0,0,0-10,0l-.25,0a15.92,15.92,0,0,0-5-2.69A17,17,0,0,0,26.08,6.22c-.25.28-.49.58-.71.87H25a17.81,17.81,0,0,0-9.09,2.75,13.81,13.81,0,0,0-4,4.2l-.14,0a16,16,0,0,0-8.19,6.46,17.33,17.33,0,0,0-2.3,4.74A22.15,22.15,0,0,0,.78,28.9a20.32,20.32,0,0,0-.15,3.57C.84,35.19,3,38.52,5.08,40.26"/><path class="cls-1" d="M5.52,40.7c2.56-2.25,5-4.66,8.11-6.15a66.56,66.56,0,0,1,7-2.78c5.26-1.83,10.62-3.38,16-4.93,8.2-2.36,16.45-4.49,24.74-6.56l8-2a.63.63,0,0,0,.44-.44,12.61,12.61,0,0,0-1.83-9C66,6,62.5,4.27,59.19,3.43a20.62,20.62,0,0,0-5.81-.54c-1,0-1.92.11-2.88.23l-1.24.17c-.19,0-.52.17-.69.11s-.06-.16-.2-.27A15.64,15.64,0,0,0,38.44,0,17.9,17.9,0,0,0,29.1,2.82a11.7,11.7,0,0,0-3.71,3.24c-.2.35-.11.33-.32.42a6.26,6.26,0,0,1-1.23.09,20.32,20.32,0,0,0-2.56.4,15.09,15.09,0,0,0-8.91,5.4c-.18.23-.53.91-.68,1.05a6.41,6.41,0,0,1-.75.3,14.68,14.68,0,0,0-2.42,1.19,17.73,17.73,0,0,0-4,3.49,20,20,0,0,0-3.15,5.06A20.86,20.86,0,0,0,0,30.24,12.61,12.61,0,0,0,4.64,40.7c.61.52,1.5-.36.88-.88a11.43,11.43,0,0,1-4.27-9.14A23,23,0,0,1,2.07,25a16.92,16.92,0,0,1,2.55-4.8,16.61,16.61,0,0,1,3.7-3.69,15.07,15.07,0,0,1,2-1.22,14.68,14.68,0,0,0,1.92-.74c.55-.37.91-1.27,1.33-1.78a14.57,14.57,0,0,1,1.45-1.49,13.57,13.57,0,0,1,5-2.73,21.64,21.64,0,0,1,5-.85c1.14-.08,1.73-1.37,2.52-2.12a16.4,16.4,0,0,1,8.15-4.08A15.53,15.53,0,0,1,45.1,2.64a16.6,16.6,0,0,1,2.14,1.21c.51.35.86.76,1.47.79a14.1,14.1,0,0,0,2.23-.32,29.36,29.36,0,0,1,3.12-.2A17,17,0,0,1,65.31,7.81a10.74,10.74,0,0,1,3.29,9.73L69,17.1C52.93,21,36.72,25,21,30.33a76.21,76.21,0,0,0-7.77,3c-3.31,1.55-5.89,4.07-8.6,6.45-.61.54.28,1.42.88.89Z"/></g></g></g></g></svg>