<svg xmlns="http://www.w3.org/2000/svg" viewBox="0 0 44.88 37.77"><defs><style>.cls-1{fill:#fff;}</style></defs><g id="Layer_2" data-name="Layer 2"><g id="волосики"><g id="baby-cat-head-6"><g id="mask"><path class="cls-1" d="M44.25,21.2S38.74,19,36.13,18.29A46.76,46.76,0,0,1,10.51.6,44.86,44.86,0,0,0,20.7,27.22l-.42-.49c-2.56.46-5.33.91-7.9,1.36-3.9.69-8,1.37-11.75.19l.26.11C1,29.61,2.63,30.53,3.65,31.2c2.72,1.77,8,5.61,7.67,5.95L28.13,29Z"/><path class="cls-1" d="M44.41,20.6c-5.25-2.22-10.89-3.41-16-5.88A45.45,45.45,0,0,1,11.05.28c-.34-.46-1.2-.35-1.17.32A46,46,0,0,0,20.25,27.66l.89-.88c-.2-.23-.39-.55-.69-.65-.59-.19-1.58.22-2.17.32l-5.84,1c-3.86.67-7.8,1.35-11.64.23-.66-.19-1.15.86-.48,1.14a11.46,11.46,0,0,0,.61,1.05,6.89,6.89,0,0,0,1.35,1.18c1.09.76,2.23,1.46,3.32,2.23s2.29,1.63,3.4,2.5c.41.32.82.64,1.21,1a2.11,2.11,0,0,0,.38.35c.41.23-.15.44.19-.28a.63.63,0,0,0,.86.85l26-12.59,6.94-3.36c.73-.35.09-1.43-.63-1.08L17.75,33.35,11,36.61l.85.86c.31-.67-.32-1.18-.77-1.59-1-.92-2.17-1.74-3.28-2.55s-2.47-1.77-3.74-2.6A10.19,10.19,0,0,1,2,29.23C1.55,28.7,1.61,28,1,27.74L.47,28.88a22,22,0,0,0,9.58.23c3.48-.53,6.94-1.17,10.4-1.77l-.61-.16.41.48c.53.62,1.39-.27.89-.88A44.52,44.52,0,0,1,11.13.6L10,.91A46.72,46.72,0,0,0,27.39,15.63c5.35,2.62,11.21,3.86,16.69,6.17C44.82,22.11,45.15,20.91,44.41,20.6Z"/></g></g></g></g></svg>