<svg xmlns="http://www.w3.org/2000/svg" viewBox="0 0 102.16 116.81"><defs><style>.cls-1{fill:#fff;}</style></defs><g id="Layer_2" data-name="Layer 2"><g id="baby-cat-tail-1-patterns"><g id="baby-cat-tail-1-mask"><path class="cls-1" d="M58.91,17.93C70.64,8.19,86.7,4.14,101.55.62,89.76,14.2,80.65,31.05,77.08,48.54l0-.15a19.73,19.73,0,0,1-1.73-4.79,11.16,11.16,0,0,0-1.94,2.28c-4,5.75-6.88,12.17-9.76,18.55L53.84,86.24A230.55,230.55,0,0,0,50,59.17c-2,6.58-5.83,12.44-9.59,18.21L33.59,87.81c-3.13,4.81-6.27,9.62-9.71,14.21a163.53,163.53,0,0,1-12,14.17,52,52,0,0,0-1.56-14.32A59.33,59.33,0,0,1,.63,111h0A72,72,0,0,0,4.82,72.1c4.37,2.49,8.81,6,10.5,10.73-.82-6.09,1.19-12.16,2.13-18.24.69-4.52.79-9.14,1.89-13.57a50.38,50.38,0,0,1,4.25-10.61,96.42,96.42,0,0,1,7.08-11.9c6.86-9.68,16.94-17.67,27.52-23-.34,4.06-.62,8.29.6,12.14"/><path class="cls-1" d="M59.35,18.38c12-9.86,27.59-13.66,42.36-17.15l-.6-1A112.34,112.34,0,0,0,79.69,36.73a94.18,94.18,0,0,0-3.21,11.64l1.2.34c.15-.69-.39-1.33-.65-2a20.13,20.13,0,0,1-1-3.33.63.63,0,0,0-1-.27,19.45,19.45,0,0,0-3.3,4.3c-1,1.6-2,3.25-2.88,4.92-1.83,3.42-3.46,6.95-5.06,10.49Q58.49,74.39,53.3,85.93l1.16.31A236.21,236.21,0,0,0,50.59,59c-.13-.64-1-.55-1.21,0-2.61,8.36-7.91,15.6-12.65,22.86-5,7.67-9.87,15.47-15.55,22.66-3.07,3.89-6.34,7.62-9.73,11.23l1.07.44a54.75,54.75,0,0,0-1.58-14.48.63.63,0,0,0-1-.28,56.79,56.79,0,0,1-9.58,9l.94.54a6,6,0,0,1,.48-1.11c.16-.43.32-.85.47-1.28.26-.72.5-1.43.73-2.16.52-1.58,1-3.19,1.38-4.81A75.68,75.68,0,0,0,6,91.83a72.91,72.91,0,0,0-.61-19.9l-.92.71C8.73,75.07,13,78.29,14.72,83c.23.6,1.32.59,1.23-.17-.8-6.45,1.36-12.68,2.23-19,.44-3.2.63-6.44,1.15-9.63a38.19,38.19,0,0,1,2.73-9.12A77.74,77.74,0,0,1,42.67,16.49,82.43,82.43,0,0,1,58.51,6l-.95-.54c-.33,4.12-.58,8.3.63,12.3a.63.63,0,0,0,1.21-.33c-1.18-3.9-.91-8-.59-12,0-.5-.55-.74-.94-.54A77.57,77.57,0,0,0,31.35,26.54a90.18,90.18,0,0,0-9.51,16,43.55,43.55,0,0,0-3.22,8.75,78.41,78.41,0,0,0-1.33,9.52c-.78,7.29-3.51,14.62-2.59,22l1.23-.16c-1.89-5-6.26-8.5-10.79-11.11a.63.63,0,0,0-.92.7,72.2,72.2,0,0,1,.51,20,72.37,72.37,0,0,1-1.85,9.89q-.63,2.43-1.44,4.8c-.24.71-.49,1.43-.76,2.14A6.29,6.29,0,0,0,0,111a.63.63,0,0,0,.94.54,57.91,57.91,0,0,0,9.83-9.2l-1-.28a53.14,53.14,0,0,1,1.54,14.15.63.63,0,0,0,1.06.45A171.39,171.39,0,0,0,29.12,95.71C34.32,88,39.48,80.27,44.34,72.38a58.66,58.66,0,0,0,6.25-13H49.38a232.7,232.7,0,0,1,3.83,26.91c0,.55.89.94,1.17.32q5.1-11.32,10.21-22.65c1.57-3.47,3.15-6.93,4.93-10.29q1.28-2.43,2.71-4.75A21.07,21.07,0,0,1,75.82,44l-1-.27a22,22,0,0,0,.85,2.84c.15.38.86,1.74.85,1.76-.16.79,1,1.13,1.2.34C81.34,31,90.23,14.65,102,1.06a.63.63,0,0,0-.61-1c-15,3.56-30.75,7.46-42.92,17.47-.62.51.27,1.39.89.89Z"/></g></g></g></svg>