<svg xmlns="http://www.w3.org/2000/svg" viewBox="0 0 77.66 73.83"><defs><style>.cls-1{fill:#1d1d1b;}</style></defs><g id="Layer_2" data-name="Layer 2"><g id="baby-cat-tail-1-patterns"><g id="Слой_72" data-name="Слой 72"><path class="cls-1" d="M77.58,5.24A19.38,19.38,0,0,1,75.94.45a.63.63,0,0,0-1-.28,19.27,19.27,0,0,0-3.3,4.31c-1,1.6-2,3.24-2.87,4.91-1.84,3.42-3.47,7-5.07,10.49q-5.2,11.52-10.4,23.06l1.16.32A236.07,236.07,0,0,0,50.55,16c-.13-.63-1-.55-1.2,0-2.62,8.36-7.92,15.6-12.66,22.86-5,7.67-9.87,15.47-15.55,22.67-3.07,3.88-6.34,7.61-9.73,11.22l1.07.44A54.75,54.75,0,0,0,10.9,58.72a.64.64,0,0,0-1.05-.28,56,56,0,0,1-9.58,9c-.64.47,0,1.56.63,1.08a58,58,0,0,0,9.84-9.2l-1.05-.28A53.14,53.14,0,0,1,11.23,73.2a.63.63,0,0,0,1.07.45A171.5,171.5,0,0,0,29.08,52.72c5.2-7.67,10.36-15.43,15.22-23.33a58.45,58.45,0,0,0,6.25-13h-1.2a234.72,234.72,0,0,1,3.82,26.92c0,.55.89.93,1.17.31q5.1-11.32,10.22-22.65c1.56-3.46,3.14-6.93,4.92-10.29.86-1.61,1.75-3.2,2.71-4.75a21.07,21.07,0,0,1,3.59-4.83l-1-.27A20.33,20.33,0,0,0,76.5,5.87c.38.71,1.46.08,1.08-.63Z"/></g></g></g></svg>