<svg xmlns="http://www.w3.org/2000/svg" viewBox="0 0 109.7 162.18"><defs><style>.cls-1{fill:#fff;}</style></defs><g id="Layer_2" data-name="Layer 2"><g id="baby-cat-tail-1-patterns"><g id="tail-1-pattern-4-mask"><path class="cls-1" d="M18.86,114.31a29.11,29.11,0,0,0,4-7.13,71.77,71.77,0,0,0,4.56-17.34,49.06,49.06,0,0,1,9.3,19.39c1.64,8.43.6,17.11-.44,25.63C32.23,126.76,25.67,120.25,18.86,114.31Z"/><path class="cls-1" d="M19.3,114.75a37.33,37.33,0,0,0,5.56-11.3A73.68,73.68,0,0,0,28,90l-1,.28a45.34,45.34,0,0,1,9.22,19.58c1.52,8.26.47,16.73-.54,25l1.16-.32c-4.1-8.18-10.66-14.71-17.48-20.68-.6-.52-1.49.36-.88.89,6.74,5.9,13.22,12.33,17.28,20.43.31.61,1.1.23,1.17-.32,1-8.53,2.09-17.27.41-25.79A46.93,46.93,0,0,0,27.82,89.4a.63.63,0,0,0-1,.28,73.26,73.26,0,0,1-2.84,12.57c-1.31,4.07-2.88,8.21-5.52,11.61C17.93,114.49,18.81,115.38,19.3,114.75Z"/><path class="cls-1" d="M37.34,75.14c.16-4.79,1.57-9.56,2.3-14.35.5-3.29.69-6.63,1.18-9.92,4.89,1.94,8.06,7,11.57,10.88q4.29,4.78,8.53,9.61c5.34,6.09,10.86,12.77,11.72,20.82l-4.83-4A59.89,59.89,0,0,0,60,82.3c-4-2.38-8.47-3.8-12.9-5.2C44.19,76.17,40.26,76.07,37.34,75.14Z"/><path class="cls-1" d="M38,75.14c.17-4.16,1.2-8.19,2-12.27C40.64,59,40.86,55,41.43,51l-.77.44C44.4,53,47,56.3,49.53,59.34c2.94,3.56,6.1,7,9.15,10.42C64.39,76.23,71,83.22,72,92.18l1.07-.44c-5.41-4.52-10.61-9.39-17.17-12.19a67.2,67.2,0,0,0-9.35-3.26c-3-.79-6.1-.86-9.05-1.75a.63.63,0,0,0-.33,1.21c2.83.85,5.81,1,8.67,1.65A61.91,61.91,0,0,1,55,80.52c6.58,2.74,11.77,7.59,17.17,12.11.37.3,1.14.15,1.07-.45-.81-7-4.79-12.84-9.19-18.11C59.2,68.22,54,62.65,49.08,56.84c-2.29-2.69-4.78-5.2-8.09-6.57a.62.62,0,0,0-.77.44c-.59,4.1-.83,8.23-1.6,12.31s-1.73,8-1.9,12.12C36.68,76,37.93,76,38,75.14Z"/><path class="cls-1" d="M44.26,39.75c.49-1.06,1-2.1,1.53-3.14a96.3,96.3,0,0,1,7.08-11.89q1.26-1.78,2.62-3.48c12.19,5.55,24.93,13.51,36.27,20.63L62,40.2C56.33,39.88,49.93,40.07,44.26,39.75Z"/><path class="cls-1" d="M44.8,40.07A90.85,90.85,0,0,1,55.93,21.68l-.75.1C67.84,27.57,79.68,35,91.45,42.41l.31-1.16L67.21,39.87c-7.65-.43-15.31-.33-22.95-.74-.81-.05-.8,1.2,0,1.25,7.64.41,15.3.31,22.95.74L91.76,42.5a.63.63,0,0,0,.32-1.17C80.31,33.94,68.47,26.49,55.81,20.7a.63.63,0,0,0-.76.1A92.27,92.27,0,0,0,43.72,39.43C43.38,40.16,44.46,40.8,44.8,40.07Z"/><path class="cls-1" d="M12.27,160.13a76.93,76.93,0,0,0,19.28,1.31c.08.26-.08-.27,0,0-4.3-10.25-10.93-19.91-16.24-29.68,2.27,9.5.37,19.56-3.1,28.68"/><path class="cls-1" d="M12.1,160.73a79.3,79.3,0,0,0,19.45,1.33l-.6-.46,0,.08a.62.62,0,0,0,1.2-.33l0-.15a.63.63,0,0,0-1.21.33l0,.07,1.14-.48c-4.41-10.41-10.84-19.78-16.24-29.67-.34-.64-1.29-.2-1.14.48,2.21,9.52.29,19.34-3.11,28.34-.28.75.93,1.08,1.21.33,3.48-9.21,5.36-19.26,3.11-29l-1.15.48C20.17,142,26.6,151.34,31,161.75c.28.66,1.33.19,1.14-.48l0-.07-1.21.33,0,.15,1.2-.33,0-.08a.64.64,0,0,0-.6-.46,77.47,77.47,0,0,1-19.11-1.29c-.79-.15-1.13,1.06-.34,1.21Z"/><path class="cls-1" d="M105.11,67.3c-1,7.24-2,14.48-3.62,21.57a94.09,94.09,0,0,1-2.82,9.91c.43-1.46.46-1.65-1.5-4.07C88.43,84,80.23,71.43,69.93,62.15c11.7-.13,23.24,2.52,34.65,5.15"/><path class="cls-1" d="M104.48,67.3c-1.41,10.57-3,21.18-6.41,31.31l1.21.33a3.11,3.11,0,0,0-.13-2.6,35.13,35.13,0,0,0-3.4-4.4C93,88.4,90.24,84.79,87.5,81.21c-5.27-6.87-10.7-13.68-17.13-19.5l-.44,1.07c11.7-.1,23.14,2.51,34.48,5.12.78.18,1.12-1,.33-1.2-11.44-2.64-23-5.27-34.81-5.17a.63.63,0,0,0-.44,1.06c6.13,5.56,11.36,12,16.39,18.55,2.43,3.16,4.82,6.34,7.26,9.48Q95,93,96.88,95.34c.92,1.15,1.62,1.82,1.19,3.27-.23.78,1,1.09,1.21.33,3.46-10.24,5-21,6.45-31.64.11-.8-1.14-.79-1.25,0Z"/><path class="cls-1" d="M78.24,134.05a75.35,75.35,0,0,1-23.53,15c.79-15.79-1.69-32.78-7.93-47.31C58.67,110.71,69.9,121.69,78.24,134.05Z"/><path class="cls-1" d="M77.8,133.61a75.84,75.84,0,0,1-23.25,14.81l.79.6c.77-16.16-1.65-32.69-8-47.62l-.86.85c11.93,9,22.82,19.69,31.24,32.12.45.66,1.53,0,1.08-.63-8.55-12.62-19.58-23.38-31.69-32.56-.56-.43-1.06.36-.85.85,6.28,14.72,8.61,31.06,7.85,47a.63.63,0,0,0,.79.61,77.26,77.26,0,0,0,23.8-15.14C79.27,133.94,78.39,133.06,77.8,133.61Z"/><path class="cls-1" d="M100.66,39a97.16,97.16,0,0,1,6.09-16.15c-4.52-3.28-9.84-5.4-15-7.56A20.35,20.35,0,0,0,93.6,21.4c2.24,5.33,4.82,12.25,7.06,17.58.14-.33.65-2.35.78-2.67"/><path class="cls-1" d="M101.27,39.14a98.57,98.57,0,0,1,6-16,.64.64,0,0,0-.22-.85c-4.63-3.31-9.93-5.43-15.14-7.63a.62.62,0,0,0-.79.61A21.7,21.7,0,0,0,93,21.56c.79,1.89,1.55,3.78,2.3,5.68,1.58,4,3.11,8,4.76,11.9a.63.63,0,0,0,1.21,0c.32-.87.45-1.8.78-2.66s-.93-1.08-1.21-.34-.46,1.8-.78,2.67h1.21c-1.6-3.81-3.09-7.67-4.61-11.52-.73-1.85-1.47-3.7-2.24-5.54a22.61,22.61,0,0,1-2-6.48l-.79.6c5.11,2.15,10.29,4.25,14.83,7.5l-.22-.86a100.12,100.12,0,0,0-6.15,16.3.63.63,0,0,0,1.21.33Z"/><path class="cls-1" d="M9.45,119.17c-2.62,4.46-6.2,8.49-8.82,13a92.21,92.21,0,0,0,.18-19,9.74,9.74,0,0,0,8.64,6Z"/><path class="cls-1" d="M8.91,118.85c-2.67,4.5-6.15,8.46-8.82,13l1.16.32a88.19,88.19,0,0,0,.19-19l-1.17.32a10.59,10.59,0,0,0,9.18,6.35c.81,0,.8-1.2,0-1.25a9.35,9.35,0,0,1-8.1-5.74c-.24-.56-1.22-.28-1.16.32a88.19,88.19,0,0,1-.19,19c-.07.64.88.81,1.17.31,2.67-4.5,6.15-8.46,8.82-13A.63.63,0,0,0,8.91,118.85Z"/><path class="cls-1" d="M99.78,3.69c3-1.15,6-2.15,9.13-3.06a72.72,72.72,0,0,1,0,9C106.16,7.78,102.53,5.52,99.78,3.69Z"/><path class="cls-1" d="M100,4.29c3-1.15,6-2.15,9.13-3.06l-.79-.6a70.81,70.81,0,0,1,0,9l.94-.54c-3-2-6.11-3.92-9.13-5.92-.67-.45-1.3.63-.63,1.08,3,2,6.11,3.91,9.13,5.92a.64.64,0,0,0,.94-.54,70.81,70.81,0,0,0,0-9,.63.63,0,0,0-.79-.6c-3.08.9-6.14,1.9-9.13,3.05C98.87,3.37,99.2,4.58,100,4.29Z"/></g></g></g></svg>