<svg xmlns="http://www.w3.org/2000/svg" viewBox="0 0 114.48 161.59"><defs><style>.cls-1{fill:#fff;}</style></defs><g id="Layer_2" data-name="Layer 2"><g id="baby-cat-tail-1-patterns"><g id="tail-1-pattern-6-mask"><path class="cls-1" d="M45.87,132.26A2.64,2.64,0,0,0,48.46,131a3.87,3.87,0,0,0-.31-2.21,26.19,26.19,0,0,0-2.48-5.53,9.33,9.33,0,0,0-4.79-3.63,9.83,9.83,0,0,0,5,12.66c-.16-.15,1.28.15,1.13,0"/><path class="cls-1" d="M45.7,132.86A2.7,2.7,0,0,0,48.89,129c-.27-.9-.61-1.79-1-2.66a15,15,0,0,0-2.67-4.67A10.4,10.4,0,0,0,41.05,119a.65.65,0,0,0-.77.44,10.57,10.57,0,0,0,5.27,13.37.63.63,0,0,0,.86-.86l0,0-.09.76c-.21.19-.46.15-.08.18l.47,0a.87.87,0,0,0,.76-.19.62.62,0,0,0,.1-.75v0a.63.63,0,0,0-1.08.64v0l.1-.76c.21-.19.45-.15.07-.18l-.47,0a.88.88,0,0,0-.76.19.63.63,0,0,0-.1.75l0,0,.85-.86a9.34,9.34,0,0,1-4.69-12l-.77.44a9.2,9.2,0,0,1,3.39,2.1,11.59,11.59,0,0,1,2.24,3.52c.3.67.56,1.35.81,2a12.09,12.09,0,0,1,.7,2.16,1.07,1.07,0,0,1-.61,1.33,1.7,1.7,0,0,1-1.22.31c-.76-.26-1.09,1-.33,1.2Z"/><path class="cls-1" d="M44.14,118a39.89,39.89,0,0,1,5.67,10.39c.15.4.37.87.8.91s.78-.53.93-1l.59-1.78a11.76,11.76,0,0,0,.78-3.68A5.76,5.76,0,0,0,44.14,118"/><path class="cls-1" d="M43.7,118.43a37.34,37.34,0,0,1,4,6.48,35.62,35.62,0,0,1,1.45,3.37c.31.83.84,1.94,1.93,1.57s1.27-1.88,1.56-2.77a15.22,15.22,0,0,0,.92-3.82,6.39,6.39,0,0,0-9.69-5.81.63.63,0,0,0,.63,1.08,5.13,5.13,0,0,1,7.82,4.31,10,10,0,0,1-.66,3.21c-.16.5-.32,1-.49,1.49,0,.13-.29,1.12-.46,1.13s-.44-1-.49-1.08c-.18-.47-.37-.93-.57-1.4-.41-1-.85-1.89-1.33-2.81a37.28,37.28,0,0,0-3.7-5.83c-.49-.64-1.37.25-.88.88Z"/><path class="cls-1" d="M67.7,120.8a17.42,17.42,0,0,0,1.6,13.29.41.41,0,0,0,.22.23c.23.07.39-.22.45-.46l2.13-8.6c.35-1.41.69-3,.08-4.27s-3.55-1.31-4.48-.19"/><path class="cls-1" d="M67.1,120.63a18.09,18.09,0,0,0-.45,7.71,17.24,17.24,0,0,0,1,3.86c.22.54.46,1.08.73,1.6s.49,1.09,1.09,1.14c1.2.11,1.31-2,1.5-2.74l1.13-4.56a32,32,0,0,0,.94-4.21,4.16,4.16,0,0,0-.66-3.19,3.9,3.9,0,0,0-5.17.11c-.54.6.34,1.49.88.89.69-.76,2.63-1,3.36-.16.59.66.42,2,.28,2.76-.21,1.12-.53,2.23-.8,3.34l-.84,3.39-.42,1.69-.19.78c0,.15-.16.39-.13.52s0,.22.2.18.3.08.18-.06-.25-.47-.32-.61-.24-.48-.35-.72c-.21-.48-.39-1-.56-1.45a17.33,17.33,0,0,1-.71-3A16.73,16.73,0,0,1,68.3,121a.62.62,0,0,0-1.2-.33Z"/><path class="cls-1" d="M74.3,119.31l-.45,12.51a21.63,21.63,0,0,0,3.63-3.59c1.37-1.67,2.61-3.68,2.4-5.83-.27-2.61-3-3.6-5.58-3.09"/><path class="cls-1" d="M73.67,119.31l-.45,12.51a.64.64,0,0,0,1,.54,23.38,23.38,0,0,0,4.24-4.31,8.71,8.71,0,0,0,2.11-5.13,4,4,0,0,0-2-3.63,6.33,6.33,0,0,0-4.4-.58c-.79.15-.46,1.35.33,1.2a5.06,5.06,0,0,1,3.44.46,3,3,0,0,1,1.33,3.18,9,9,0,0,1-2.13,4.15,21.21,21.21,0,0,1-3.57,3.58l.94.54.45-12.51c0-.8-1.22-.8-1.25,0Z"/><path class="cls-1" d="M61.74,88.41a10.67,10.67,0,0,0-1.94,13.21c2-3,4.47-6.67,5.31-10.52A4.47,4.47,0,0,0,65,88.32c-.39-.86-2.34-.14-3.25.09"/><path class="cls-1" d="M61.3,88a11.32,11.32,0,0,0-2,14,.63.63,0,0,0,1.08,0c2-3.06,4.15-6.21,5.15-9.79.35-1.23.91-3.54-.27-4.52-1-.8-2.6-.09-3.65.18A.63.63,0,0,0,61.91,89c.49-.13,1-.29,1.49-.4a2,2,0,0,1,.78-.08c.27,0,.27.07.36.35.42,1.41-.26,3.15-.76,4.46a40.92,40.92,0,0,1-4.52,8h1.08a10.08,10.08,0,0,1,1.84-12.46c.6-.53-.29-1.42-.88-.88Z"/><path class="cls-1" d="M67.32,90.19c-.16,4.62-3.45,9.2-3.51,13.82a5.5,5.5,0,0,0,3-1.27,11,11,0,0,0,4.52-6.17c.57-2.54-.45-5.54-2.8-6.67-.45-.21-1.19-.2-1.23.29"/><path class="cls-1" d="M66.7,90.19c-.22,4.82-3.4,9-3.52,13.82a.65.65,0,0,0,.63.63c2.19-.13,4.16-1.79,5.6-3.34A9.68,9.68,0,0,0,72.08,96a7,7,0,0,0-1.37-5.13,4.84,4.84,0,0,0-2.13-1.64,1.36,1.36,0,0,0-1.86.79c-.19.78,1,1.11,1.21.33,0-.17,1.37.81,1.47.91A5,5,0,0,1,70.48,93a6.11,6.11,0,0,1,.1,4.07,9.35,9.35,0,0,1-2.44,3.78c-1.13,1.13-2.66,2.48-4.33,2.58l.62.62c.12-4.83,3.3-9,3.52-13.82,0-.8-1.22-.8-1.25,0Z"/><path class="cls-1" d="M88.17,112.27c.89.43,2-.62,2.5-1.5a3.29,3.29,0,0,0,0-2.87,9.67,9.67,0,0,0-1.75-2.39l-1.5-1.68A4.9,4.9,0,0,0,86,102.64c-.55-.27-2.55,1.48-3,1.87-.37,1,.26,2.08.89,2.94a35.25,35.25,0,0,0,4.31,4.82c.06-.29.66.26.72,0"/><path class="cls-1" d="M88,112.87a2.33,2.33,0,0,0,2.44-.77,3.65,3.65,0,0,0,1.16-2.59c0-2.34-2-4.1-3.41-5.7a14.42,14.42,0,0,0-1.07-1.14A2.23,2.23,0,0,0,85.9,102a3,3,0,0,0-1.67.73A17.34,17.34,0,0,0,82.65,104c-.72.65-.39,1.92,0,2.68A15.21,15.21,0,0,0,85,109.81a34.62,34.62,0,0,0,2.78,2.9.63.63,0,0,0,1-.12c-.56.09-.71.17-.46.23l.15.06a1.53,1.53,0,0,0,.29.07.72.72,0,0,0,.74-.39c.31-.73-.76-1.37-1.08-.63.56-.09.71-.17.46-.23l-.15-.06a1.53,1.53,0,0,0-.29-.07.71.71,0,0,0-.74.39l1-.13a36,36,0,0,1-3.78-4.12,5.68,5.68,0,0,1-1.32-2.29,1.46,1.46,0,0,1,0-.59c0,.12-.09.1,0,0l.56-.47a10.58,10.58,0,0,1,1.35-1,1.65,1.65,0,0,1,.41-.18c-.21,0,0,.07.12.14a3.65,3.65,0,0,1,.51.45c.67.68,1.29,1.42,1.92,2.13A9.6,9.6,0,0,1,90,108.07a2.71,2.71,0,0,1,0,2.55c-.32.52-1,1.33-1.7,1a.62.62,0,0,0-.34,1.2Z"/><path class="cls-1" d="M88.61,101.48c1.27,1.9,2.56,3.78,3.86,5.66.25.35.55.75,1,.79.62,0,1-.63,1.23-1.22a11.08,11.08,0,0,0,.56-4.08A4.25,4.25,0,0,0,93.7,99.2,4.8,4.8,0,0,0,91,98.63a3.28,3.28,0,0,0-2,.47c-.56.44-.68,2.38-.1,2.79"/><path class="cls-1" d="M88.07,101.8l2.07,3.06c.66,1,1.28,2,2,2.87a1.6,1.6,0,0,0,2.42.4,4.92,4.92,0,0,0,1.13-2.76c.35-1.88.43-4.25-.77-5.86a3.62,3.62,0,0,0-2.48-1.41,6.85,6.85,0,0,0-3,.08,2.12,2.12,0,0,0-1.52,1.95,2.53,2.53,0,0,0,.53,2.21c.62.5,1.51-.38.88-.89-.24-.2-.22-.81-.18-1.16.07-.52.18-.78.69-.92a6,6,0,0,1,2.27-.07,2.52,2.52,0,0,1,1.8,1c.88,1.21.83,3,.63,4.45a6,6,0,0,1-.66,2.28c-.14.22-.26.38-.51.26s-.5-.61-.67-.86q-1.8-2.59-3.55-5.21c-.44-.67-1.52,0-1.08.63Z"/><path class="cls-1" d="M88.31,72.6c-.19-2.46.74-5.39.17-7.78-.28-1.15-1.91-1.83-2.92-2.44-.89,2-1.73,4.06-1.46,6.19S86.18,72.78,88.31,72.6Z"/><path class="cls-1" d="M88.94,72.6c-.16-2.28.53-4.54.32-6.82a3.4,3.4,0,0,0-1.05-2.45,13.86,13.86,0,0,0-2.34-1.49.63.63,0,0,0-.85.23c-1,2.31-2.16,5-1.31,7.58.66,2,2.42,3.71,4.6,3.57.8,0,.81-1.3,0-1.25A3.65,3.65,0,0,1,84.83,69c-.57-2.14.4-4.42,1.27-6.34l-.86.22a13.76,13.76,0,0,1,2,1.25A2.72,2.72,0,0,1,88,66.44c0,2.06-.49,4.1-.35,6.16C87.74,73.4,89,73.4,88.94,72.6Z"/><path class="cls-1" d="M89.43,61.84c.6,3.24.83,6.73,2.18,9.73,1.28-1.57,3-3.76,3.25-5.77s-.37-4.41-2.14-5.38c-1.15-.63-3.06.69-3.29,1.42"/><path class="cls-1" d="M88.83,62c.6,3.33.85,6.74,2.24,9.87a.64.64,0,0,0,1,.13,18.52,18.52,0,0,0,3-4.6,7.09,7.09,0,0,0,0-4.85c-.45-1.3-1.52-2.9-3.06-2.93a3.67,3.67,0,0,0-3.24,2c-.28.75.92,1.07,1.21.33a2.33,2.33,0,0,1,2.29-1.08c1.09.39,1.64,1.81,1.84,2.84a5.85,5.85,0,0,1-.48,3.73,20,20,0,0,1-2.52,3.62l1,.13c-1.33-3-1.53-6.37-2.11-9.57-.15-.79-1.35-.46-1.21.33Z"/><path class="cls-1" d="M54.48,64.18c-1-3.92,1-7.83,3.9-10.38a.82.82,0,0,1,1.34.61,28.45,28.45,0,0,1-.48,7.32,5.29,5.29,0,0,1-1,2.21c-.52.62-1.63,1.81-2.42,1.6-1-.27-1.6-.44-1.6-3"/><path class="cls-1" d="M55.08,64a8.65,8.65,0,0,1,.56-5.47,11.43,11.43,0,0,1,1.47-2.47,11.63,11.63,0,0,1,.85-1c.18-.19.68-.86.94-.84.41,0,.23,2.37.22,2.74a23.92,23.92,0,0,1-.25,3.38A7.63,7.63,0,0,1,58,63.25a4.3,4.3,0,0,1-1.73,1.63,1.13,1.13,0,0,1-1-.28c-.44-.47-.37-1.47-.38-2.07a.63.63,0,0,0-1.25,0,4.94,4.94,0,0,0,.53,2.68,2.32,2.32,0,0,0,1.46.91A2.81,2.81,0,0,0,58.15,65a6.09,6.09,0,0,0,1.65-2.93,20.94,20.94,0,0,0,.55-4.32c0-.71,0-1.42,0-2.12a4,4,0,0,0-.23-1.94,1.48,1.48,0,0,0-1.07-.7,1.68,1.68,0,0,0-1.4.61,13.47,13.47,0,0,0-2.33,2.83,10.4,10.4,0,0,0-1.46,7.9c.18.78,1.39.45,1.2-.33Z"/><path class="cls-1" d="M62,53.44c0,4-1.7,8.13-1.7,12.1,0,.16.83.88.93,1,.25.33,1.63-.69,1.92-1a22.59,22.59,0,0,0,3.08-3.69A8.29,8.29,0,0,0,67.57,59a5.1,5.1,0,0,0-1.18-4.28c-1-1.14-2.86-1.35-4.39-1.23"/><path class="cls-1" d="M61.37,53.44c0,2.91-.87,5.72-1.35,8.58-.11.63-.2,1.27-.27,1.91a4.46,4.46,0,0,0,0,1.89,2.9,2.9,0,0,0,1.51,1.4c.76.11,1.61-.6,2.15-1a16.26,16.26,0,0,0,2.43-2.68c1.57-2,3-4.43,2.22-7.08a5,5,0,0,0-2.21-3A7,7,0,0,0,62,52.81c-.8.06-.81,1.31,0,1.25a6.56,6.56,0,0,1,2.85.32,3.41,3.41,0,0,1,1.9,2.08c.82,2.24-.41,4.28-1.72,6A19.3,19.3,0,0,1,62.79,65a5.1,5.1,0,0,1-.62.51l-.84.44.34.11,0,0s-.13-.12-.13-.13-.2-.18-.29-.27-.33-.26-.37-.38c0,.12.07-.1.07-.09l0-.57a25,25,0,0,1,.49-3.44,42.35,42.35,0,0,0,1.18-7.74.63.63,0,0,0-1.25,0Z"/><path class="cls-1" d="M89.64,34.65c-1.65-.61-5.3-.48-6.63.67a5,5,0,0,0-1.59,4.75,13.42,13.42,0,0,0,7.21-1.88c1-.62,2.1-1.78,1.6-2.88s-1.84-1.1-3-1"/><path class="cls-1" d="M89.8,34.05a8.29,8.29,0,0,0-3-.38,8.86,8.86,0,0,0-3.1.56c-2.3.92-3.34,3.69-2.87,6a.63.63,0,0,0,.6.46A14.16,14.16,0,0,0,86,40.05a10.39,10.39,0,0,0,3.86-2c1-.88,1.59-2.32.66-3.46-.76-.93-2.13-1-3.24-.92-.79,0-.8,1.3,0,1.25s1.83-.15,2.3.49c.63.85-.63,1.86-1.26,2.24a12.74,12.74,0,0,1-6.89,1.8l.6.46a4.06,4.06,0,0,1,2.37-4.62,8.31,8.31,0,0,1,5.08,0c.76.27,1.08-.94.33-1.21Z"/><path class="cls-1" d="M81,42.22c1.95-.16,3.72.22,5.53-.52a21.08,21.08,0,0,1,4.35-1.6.61.61,0,0,1,.55.1.64.64,0,0,1,.11.39A6.53,6.53,0,0,1,85.09,47a5.08,5.08,0,0,1-1.84-.41A4,4,0,0,1,81,42.22"/><path class="cls-1" d="M81,42.84c1.91-.14,3.87.18,5.7-.53.89-.36,1.75-.8,2.66-1.13a8.54,8.54,0,0,1,1.33-.41,1.59,1.59,0,0,0,.34-.06c-.1.07,0-.24-.12-.05s0,.5,0,.66c-.4,3-3.54,5.55-6.59,4.91a3.41,3.41,0,0,1-2.68-3.85c.14-.78-1.06-1.12-1.2-.33a4.68,4.68,0,0,0,2.18,4.86,6,6,0,0,0,5.8-.16,7.39,7.39,0,0,0,3.51-4.27c.22-.72.58-2.1,0-2.72a1.39,1.39,0,0,0-1.35-.23,9.49,9.49,0,0,0-1.77.54,18,18,0,0,1-3.66,1.38c-1.35.23-2.74,0-4.1.14-.8.06-.8,1.31,0,1.25Z"/><path class="cls-1" d="M.63,145.59a12.51,12.51,0,0,1,6.47-9.21,21.44,21.44,0,0,1-.59,5.77,7.28,7.28,0,0,1-3.41,4.53,2.4,2.4,0,0,1-1.54.3,1.13,1.13,0,0,1-.93-1.13"/><path class="cls-1" d="M1.23,145.76a12,12,0,0,1,6.19-8.84l-.94-.54c0,2.31,0,4.77-1.07,6.9a6.55,6.55,0,0,1-1.75,2.29,4,4,0,0,1-1.31.74c-.4.12-1.11.12-1.1-.46a.63.63,0,0,0-1.25,0c0,1.47,1.56,2,2.77,1.64A6.37,6.37,0,0,0,5.83,145c1.77-2.51,1.86-5.69,1.9-8.65a.63.63,0,0,0-.94-.54A13.11,13.11,0,0,0,0,145.43c-.12.78,1.09,1.12,1.2.33Z"/><path class="cls-1" d="M9.47,138c0,3.4-2.31,6.3-3.72,9.39a.87.87,0,0,0-.09.79c.22.38.8.25,1.19.05,2.51-1.23,5.19-3.11,5.37-5.9A4.46,4.46,0,0,0,9.47,138"/><path class="cls-1" d="M8.85,138a13.1,13.1,0,0,1-1.93,5.79c-.51.94-1,1.87-1.49,2.82-.38.77-.84,2,.31,2.38.81.26,1.68-.33,2.35-.7a14.82,14.82,0,0,0,2.32-1.58,6.32,6.32,0,0,0,2.45-4.53,5.16,5.16,0,0,0-3.22-4.79.63.63,0,0,0-.33,1.21,3.88,3.88,0,0,1,2.3,3.44,4.94,4.94,0,0,1-1.86,3.59,11.29,11.29,0,0,1-1.83,1.31c-.3.18-.61.36-.92.52l-.46.23-.21.08c-.12,0-.17,0-.15.07s.21-.36.25-.44l.26-.54c.2-.38.4-.76.61-1.14.41-.76.83-1.52,1.21-2.29A12.73,12.73,0,0,0,10.1,138a.63.63,0,0,0-1.25,0Z"/><path class="cls-1" d="M20.92,117.7a9.85,9.85,0,0,1-6.87.47c.14,2.51,1.45,5.43,2.17,7.84s5.11,3.51,7.22,4.87c.68-1.93-.28-2.94-.59-5.38-.37-2.88-1.42-5-1.93-7.8a26.15,26.15,0,0,0,1.06,4"/><path class="cls-1" d="M20.6,117.16a9.46,9.46,0,0,1-6.38.41.62.62,0,0,0-.79.6,20.32,20.32,0,0,0,1.25,5.21c.3.86.6,1.73.88,2.6a4.22,4.22,0,0,0,.81,1.52c1.72,2,4.59,2.56,6.75,3.92a.63.63,0,0,0,.92-.37,5.08,5.08,0,0,0,.1-2.76c-.26-1.12-.57-2.18-.74-3.32-.38-2.54-1.41-4.92-1.88-7.44-.13-.68-1.3-.53-1.23.17a13.36,13.36,0,0,0,.57,2.58,10.76,10.76,0,0,1,.52,1.64c.12.79,1.32.45,1.21-.33a9.78,9.78,0,0,0-.47-1.48,11.76,11.76,0,0,1-.58-2.41l-1.23.17c.44,2.36,1.38,4.59,1.81,6.95a32.67,32.67,0,0,0,.67,3.24,4.39,4.39,0,0,1,.05,2.66l.92-.38c-2-1.26-4.62-1.78-6.31-3.51a3.22,3.22,0,0,1-.75-1.38c-.24-.77-.52-1.53-.78-2.3a19.55,19.55,0,0,1-1.24-5l-.79.6a10.79,10.79,0,0,0,7.34-.53c.74-.32.1-1.4-.63-1.08Z"/><path class="cls-1" d="M23.44,116.13a18.64,18.64,0,0,0,4.34-5.37c1.46,1.26,1.43,4.6,1.06,6.49-.59,3-1.28,7.75-2.62,10.49C24.64,124.72,23.1,119.53,23.44,116.13Z"/><path class="cls-1" d="M23.88,116.58a19.83,19.83,0,0,0,4.44-5.5l-1,.12a4.92,4.92,0,0,1,1.09,3.58,20,20,0,0,1-.49,3.85c-.54,2.94-1,6.07-2.26,8.79h1.08c-1.72-3.33-3-7.51-2.69-11.29.06-.8-1.19-.79-1.25,0-.35,4,1,8.4,2.86,11.92a.63.63,0,0,0,1.08,0c1.45-3,1.9-6.5,2.52-9.78.46-2.46,1-6-1.06-8a.64.64,0,0,0-1,.12A18.74,18.74,0,0,1,23,115.69C22.38,116.2,23.27,117.08,23.88,116.58Z"/><path class="cls-1" d="M33.52,94.11a74.28,74.28,0,0,0,1.13-7.57c1.68.61,5.3.22,5.79,1.94.12.41-1.68,2.64-2,2.94-.17.16-.6.8-.84.85C36.89,92.4,34.24,94.06,33.52,94.11Z"/><path class="cls-1" d="M34.12,94.28a74.83,74.83,0,0,0,1.15-7.74l-.79.6a18.94,18.94,0,0,0,3.34.56,5,5,0,0,1,1.49.41,1,1,0,0,1,.41.31s.09.15.11.19,0,.13,0,0a.29.29,0,0,1,0-.16s0,0,0,.07-.06.15,0,0l-.06.13-.15.25a7.38,7.38,0,0,1-.46.68c-.27.39-.57.76-.87,1.12s-.53.63-.81.92l-.11.11s.11,0,0,0l-.23.07c-.23.09-.46.2-.69.31-.58.28-1.14.59-1.72.88-.27.14-.54.28-.82.4l-.28.11c-.06,0-.35.07-.14,0a.63.63,0,1,0,0,1.25A4.38,4.38,0,0,0,35,94.21c.59-.29,1.17-.61,1.75-.9l.43-.22.22-.1a4.49,4.49,0,0,0,.61-.23,5,5,0,0,0,1.05-1.09c.38-.42.72-.87,1.06-1.33A5.77,5.77,0,0,0,41,88.92c.45-1.2-1.07-2-2-2.25-1.37-.37-2.85-.26-4.19-.73-.41-.15-.75.23-.79.6A71.19,71.19,0,0,1,32.91,94C32.76,94.73,34,95.07,34.12,94.28Z"/><path class="cls-1" d="M34.78,84.93q.26-3.48.17-7c2.69,1,4.8,4.31,5.45,7.11a.78.78,0,0,1-.07.67c-.19.22-.54.15-.81.07C37.92,85.36,36.38,85.39,34.78,84.93Z"/><path class="cls-1" d="M35.41,84.93q.24-3.48.17-7l-.79.61a8.85,8.85,0,0,1,4.31,4.64,11.79,11.79,0,0,1,.56,1.5,6.65,6.65,0,0,0,.16.72c.17-.13.2-.18.08-.17l-.11,0c-.19,0-.37-.1-.56-.15-1.41-.34-2.88-.38-4.28-.77a.62.62,0,0,0-.33,1.2c1.3.37,2.66.43,4,.71a3.2,3.2,0,0,0,1.8.19,1.2,1.2,0,0,0,.6-1.51,12,12,0,0,0-3-5.54,8.1,8.1,0,0,0-2.9-2,.63.63,0,0,0-.79.6q.08,3.48-.17,7C34.1,85.73,35.35,85.73,35.41,84.93Z"/><path class="cls-1" d="M66,16.58C67.44,15,69,13.45,70.61,12c1,3.66,2.86,6.47,2.58,10.27a.68.68,0,0,1-.15.43c-.16.14-.41.07-.61,0C69.49,21.43,65.81,19.77,66,16.58Z"/><path class="cls-1" d="M66.39,17q2.23-2.38,4.67-4.58l-1-.28c.51,1.79,1.25,3.49,1.83,5.25a14.77,14.77,0,0,1,.66,2.68,11.48,11.48,0,0,1,.09,1.44,3.7,3.7,0,0,0,0,.74q.3-.14.06-.18l-.2-.08c-2.28-1-5.92-2.43-5.84-5.43a.63.63,0,0,0-1.25,0c-.08,2.91,2.54,4.66,4.88,5.79.89.43,3.26,1.92,3.57.14a11.1,11.1,0,0,0-.63-5.1c-.58-1.88-1.39-3.68-1.93-5.58a.64.64,0,0,0-1-.28c-1.62,1.47-3.17,3-4.66,4.59C65,16.73,65.84,17.61,66.39,17Z"/><path class="cls-1" d="M77.31,6.63c1.14.1.82,1.82,1.39,2.81s0,2.32,0,3.46a9.23,9.23,0,0,1-2.26,5.61.7.7,0,0,1-.36.25c-.33.07-.55-.31-.67-.63-.93-2.57-2.23-5.08-3-7.72C74,9.09,75.63,7.82,77.31,6.63Z"/><path class="cls-1" d="M77.14,7.24c.53.08.53.88.62,1.31a13,13,0,0,1,.58,2c0,.86-.22,1.73-.28,2.58a8.64,8.64,0,0,1-.64,2.65,9.72,9.72,0,0,1-.59,1.16c-.11.17-.21.34-.33.5a4.41,4.41,0,0,0-.51.65l-.11.11c.2,0,.24-.08.13-.21a2.08,2.08,0,0,0-.24-.62c-.18-.49-.38-1-.58-1.45A52.09,52.09,0,0,1,73,10.24l-.17.61C74.41,9.56,76,8.34,77.62,7.17c.65-.46,0-1.54-.63-1.08C75.27,7.32,73.61,8.61,72,10a.62.62,0,0,0-.16.61A54.08,54.08,0,0,0,74,16.22c.37.89,1.2,4.32,2.79,2.84a9,9,0,0,0,2.33-4.51c.19-.88.21-1.78.35-2.67a4.5,4.5,0,0,0-.09-2.52,17.18,17.18,0,0,1-.59-2A1.67,1.67,0,0,0,77.47,6C76.69,5.91,76.35,7.12,77.14,7.24Z"/><path class="cls-1" d="M100,6c2.15-1.06,4.36-2,6.61-2.89-.46,2.66-.79,5.9-2.17,8.22a6.2,6.2,0,0,1-4.31-5"/><path class="cls-1" d="M100.29,6.58c2.11-1,4.27-2,6.46-2.83L106,3c-.47,2.71-.69,5.65-2.11,8.08l.71-.29a5.62,5.62,0,0,1-3.88-4.56.62.62,0,0,0-.77-.43.64.64,0,0,0-.44.77A6.87,6.87,0,0,0,104.24,12a.65.65,0,0,0,.71-.29c1.48-2.53,1.74-5.55,2.24-8.38.07-.41-.28-1-.77-.77-2.3.9-4.56,1.87-6.76,3-.72.36-.09,1.44.63,1.08Z"/><path class="cls-1" d="M108.12,2.57c1.89-.7,3.81-1.34,5.75-1.94-.48,3.42-2.82,8.59-5,8.78-.94.08-.45.14-.6,0a.6.6,0,0,1-.09-.54C108.49,6.78,107.57,4.61,108.12,2.57Z"/><path class="cls-1" d="M108.29,3.17c1.89-.7,3.81-1.34,5.74-1.93l-.77-.77a16.61,16.61,0,0,1-2,5.87,6.93,6.93,0,0,1-1.6,2.05,1.9,1.9,0,0,1-.76.39,4.13,4.13,0,0,0-1,.18.63.63,0,0,0,.31,1.16.67.67,0,0,0,.56-1c-.12-.17-.13-.17,0,0a.5.5,0,0,1,0-.21l.06-.48a8.83,8.83,0,0,0,0-1.15c-.08-1.5-.48-3-.11-4.53a.62.62,0,0,0-1.2-.33,11.2,11.2,0,0,0,0,4,10.4,10.4,0,0,1,.07,2,3.7,3.7,0,0,0-.07.81,1,1,0,0,0,.11.41l.17.22c-.19-.62,0-.95.44-1l.32,1.17c-.27.12-.08,0,0,0l.28,0a2.85,2.85,0,0,0,.58-.12,3.41,3.41,0,0,0,1-.59,7.78,7.78,0,0,0,1.81-2.26A17.56,17.56,0,0,0,114.47.8c.06-.44-.27-.93-.77-.77Q110.81.93,108,2C107.21,2.24,107.53,3.45,108.29,3.17Z"/><path class="cls-1" d="M112.07,25.8c-1.08,2.5-2.06,5-2.93,7.6-2-1.2-5.44-2.88-6.49-5a2,2,0,0,1-.2-1.79,2.08,2.08,0,0,1,1.92-.79C106.52,25.77,110,25.11,112.07,25.8Z"/><path class="cls-1" d="M111.53,25.49q-1.65,3.81-3,7.75l.92-.37c-2-1.17-4.36-2.22-5.81-4.07a3.07,3.07,0,0,1-.72-1.56c0-.65.67-.77,1.18-.8,1.21-.07,2.42-.16,3.63-.25a11,11,0,0,1,4.17.21c.76.25,1.09-1,.33-1.2a11.41,11.41,0,0,0-4.28-.27l-2.26.18c-.67.05-1.36,0-2,.12a2.3,2.3,0,0,0-1.74,1,2.49,2.49,0,0,0,.11,2.34,7.83,7.83,0,0,0,2.75,2.94c1.28.92,2.67,1.65,4,2.44a.62.62,0,0,0,.91-.37c.86-2.52,1.82-5,2.87-7.45C112.93,25.39,111.85,24.75,111.53,25.49Z"/><path class="cls-1" d="M100.72,28.61c1,3.09,4.71,6.09,7.44,7.88q-.7,2.35-1.28,4.74a12.94,12.94,0,0,1-6.22-5.53A8.64,8.64,0,0,1,100.6,29"/><path class="cls-1" d="M100.12,28.78c1.26,3.58,4.66,6.23,7.72,8.25l-.28-.7q-.7,2.36-1.28,4.74l.77-.44a11.8,11.8,0,0,1-5.18-4.11,7.81,7.81,0,0,1-.67-7.41c.3-.74-.91-1.07-1.2-.33a9,9,0,0,0,.79,8.37,13.42,13.42,0,0,0,5.92,4.69.63.63,0,0,0,.77-.44c.39-1.59.81-3.17,1.28-4.74a.65.65,0,0,0-.29-.71,28.5,28.5,0,0,1-4.15-3.28,11.39,11.39,0,0,1-3-4.22c-.27-.76-1.48-.43-1.21.33Z"/><path class="cls-1" d="M110.7,76.17c-.38,2.44-.8,4.88-1.26,7.3-1.62,0-3.17-1.17-4.55-2-.5-.31-1.3-1.19-1-1.71a11.73,11.73,0,0,1,1.72-1.58,35.5,35.5,0,0,1,4.76-1.9"/><path class="cls-1" d="M110.1,76c-.39,2.44-.8,4.88-1.27,7.3l.61-.45a6.15,6.15,0,0,1-2.82-1.06c-.44-.26-.88-.54-1.31-.82a2.32,2.32,0,0,1-.74-.69,1.87,1.87,0,0,1-.14-.3v0l0,.12s0,0,0,0,0,.06,0,0a.46.46,0,0,1,.07-.07c.21-.23.44-.45.67-.66s.45-.42.69-.6c0,0-.08,0,0,0l.13-.06c.26-.14.54-.26.81-.38a33.64,33.64,0,0,1,3.73-1.42c.77-.24.44-1.45-.33-1.21a39.41,39.41,0,0,0-3.84,1.46,6.06,6.06,0,0,0-1.36.71c-.27.22-.54.45-.79.69-.58.54-1.23,1.09-.9,2a4.8,4.8,0,0,0,2.28,2.12,8.08,8.08,0,0,0,3.88,1.49.63.63,0,0,0,.6-.46c.46-2.43.88-4.86,1.26-7.31a.62.62,0,0,0-1.2-.33Z"/><path class="cls-1" d="M109.16,84.87c-.23,1.14-.47,2.27-.72,3.4s-.46,2-.72,3c-1.84-.7-4.29-5.27-4.45-7.24a35.36,35.36,0,0,1,5.89.55"/><path class="cls-1" d="M108.56,84.7c-.43,2.14-.89,4.26-1.44,6.36l.77-.43c.12.05-.06,0-.08,0l-.19-.1-.25-.19a6.8,6.8,0,0,1-.71-.71,11.73,11.73,0,0,1-1.28-1.85,14.81,14.81,0,0,1-1-2,8.68,8.68,0,0,1-.33-1,3.06,3.06,0,0,1-.1-.41,1.06,1.06,0,0,1,0-.19c0-.07,0-.08,0,0s0-.07,0-.11l-.63.63a20.05,20.05,0,0,1,2.9.14c1,.1,1.89.21,2.82.38a.63.63,0,0,0,.77-.43.62.62,0,0,0-.43-.77c-1-.19-2-.31-3-.42a20.24,20.24,0,0,0-3-.15.62.62,0,0,0-.62.62,10.9,10.9,0,0,0,1.7,4.45c.76,1.29,1.76,2.82,3.21,3.39a.62.62,0,0,0,.77-.43c.54-2.11,1-4.23,1.43-6.36.16-.79-1-1.13-1.2-.34Z"/><path class="cls-1" d="M30.85,151.39c.55,3.15,1.08,6.81,2.68,9.58q3.31,0,6.62-.24c.26-2.35-1.53-4.87-3.08-6.65a8.77,8.77,0,0,0-6.22-3"/><path class="cls-1" d="M30.25,151.56c.57,3.31,1.05,6.76,2.74,9.72a.63.63,0,0,0,.54.31q3.31,0,6.62-.24a.65.65,0,0,0,.63-.62c.24-2.67-1.57-5.13-3.22-7a9.42,9.42,0,0,0-6.71-3.21c-.8,0-.8,1.21,0,1.25a8.2,8.2,0,0,1,5.83,2.85c1.44,1.66,3.06,3.82,2.85,6.15l.62-.63q-3.3.26-6.62.24l.54.31c-1.63-2.86-2.06-6.23-2.61-9.43-.14-.79-1.35-.45-1.21.34Z"/><path class="cls-1" d="M24.52,160.38c2.33.29,4.68.47,7,.55v-.36c-.84-2.67-2.44-5.32-3.41-7.95-.2-.56-.58-1.22-1.17-1.15a1.21,1.21,0,0,0-.68.44c-2,2.18-2,5.52-1.77,8.5"/><path class="cls-1" d="M24.52,161q3.51.44,7,.55a.63.63,0,0,0,.63-.62,5.07,5.07,0,0,0-.48-1.81c-.31-.78-.65-1.54-1-2.3-.72-1.52-1.4-3-2.05-4.59a2,2,0,0,0-1.29-1.35,1.82,1.82,0,0,0-1.78.9A8,8,0,0,0,24,155.55a22.56,22.56,0,0,0-.1,4.86c.05.8,1.3.81,1.25,0a20.72,20.72,0,0,1,.07-4.59,7.76,7.76,0,0,1,.62-2.11,6.07,6.07,0,0,1,.56-1c.12-.16.47-.7.7-.67s.34.44.4.58c.18.4.32.82.49,1.22.36.85.75,1.69,1.15,2.53s.81,1.69,1.17,2.56a5.51,5.51,0,0,1,.63,2l.62-.63q-3.53-.12-7-.55a.63.63,0,0,0,0,1.25Z"/></g></g></g></svg>