<svg xmlns="http://www.w3.org/2000/svg" viewBox="0 0 72.16 38.24"><defs><style>.cls-1{fill:#fff;}</style></defs><g id="Layer_2" data-name="Layer 2"><g id="baby-cat-tail-1-patterns"><g id="tail-1-pattern-1-mask"><path class="cls-1" d="M.65,28.51l.49-.68A73.72,73.72,0,0,1,28.21,5c-.37,4.38-.73,9,.75,13.11C40.77,8.05,56.45,4.19,71.53.62l0,.42a111.63,111.63,0,0,0-21,35.26l-.7-.42A41.85,41.85,0,0,1,49,22.17a218.39,218.39,0,0,0-31.7,15.44L11.93,23.29A40,40,0,0,0,1.35,28"/><path class="cls-1" d="M1.19,28.82A73.81,73.81,0,0,1,28.52,5.57L27.58,5c-.37,4.44-.69,9,.78,13.28a.63.63,0,0,0,1,.28C41.3,8.5,56.87,4.73,71.7,1.22l-.8-.6c-.05.51-.75,1-1.12,1.46-.56.66-1.11,1.33-1.66,2Q66.5,6.1,65,8.17,61.79,12.46,59,17a105.67,105.67,0,0,0-9.14,19.1l.92-.37c-.15-.09-.54-.23-.63-.38.19-.15.19-.35,0-.6s-.13-.62-.19-.93c-.24-1.35-.41-2.71-.52-4.08a42.89,42.89,0,0,1,.12-7.6.63.63,0,0,0-.79-.6A222.59,222.59,0,0,0,17,37.07l.92.38L12.53,23.12a.64.64,0,0,0-.77-.44A42.56,42.56,0,0,0,1,27.45a.63.63,0,0,0,.63,1.08A41,41,0,0,1,12.1,23.89l-.77-.44,5.34,14.33a.64.64,0,0,0,.92.37A221.71,221.71,0,0,1,49.15,22.77l-.79-.6a41.85,41.85,0,0,0,0,9A39.45,39.45,0,0,0,49,35.11a1.91,1.91,0,0,0,1.19,1.73.64.64,0,0,0,.92-.38,104.21,104.21,0,0,1,9.46-19.54q2.79-4.55,6-8.81Q68.22,5.9,70,3.79c.78-1,2-1.91,2.18-3.17,0-.42-.43-.69-.79-.6C56.3,3.58,40.6,7.46,28.52,17.7l1,.28C28.13,13.79,28.47,9.36,28.83,5a.63.63,0,0,0-.94-.54A75.11,75.11,0,0,0,.11,28.19c-.46.66.62,1.28,1.08.63Z"/></g></g></g></svg>