<svg xmlns="http://www.w3.org/2000/svg" viewBox="0 0 83.77 107.43"><defs><style>.cls-1{fill:#fff;}</style></defs><g id="Layer_2" data-name="Layer 2"><g id="baby-cat-tail-1-patterns"><g id="tail-1-pattern-7-mask"><path class="cls-1" d="M56.46,101.76a51,51,0,0,0-2-12.75,34.61,34.61,0,0,1-14.88,15.76A68.24,68.24,0,0,0,27.09,58.49a27.83,27.83,0,0,1-1.72,5.84A63.15,63.15,0,0,1,22,70,29.1,29.1,0,0,0,18,84.1L11.29,73.32A56.78,56.78,0,0,1,7,65.66,28.78,28.78,0,0,1,5.64,47.3c-1.92.9-3.92,3.28-5,5.09.09-.46.2-.92.31-1.38a50,50,0,0,1,4.26-10.6,96.86,96.86,0,0,1,7.07-11.9A73.86,73.86,0,0,1,39.82,5c-.37,4.38-.73,9,.75,13.11C52.38,8.05,68.06,4.19,83.14.62l0,.42C67.55,18.94,56.75,41.82,57,65.52l.2-.2a34.71,34.71,0,0,0,9.33-9.5c-1.77,12.24-3,24.76-5.67,36.84a102.2,102.2,0,0,1-4.35,14.17,50.83,50.83,0,0,0-.22-7.51"/><path class="cls-1" d="M57.09,101.76A54.34,54.34,0,0,0,55,88.84a.63.63,0,0,0-1.14-.15,34.52,34.52,0,0,1-14.67,15.54l1,.54A69.13,69.13,0,0,0,27.62,58.18a.63.63,0,0,0-1.14.15,24.75,24.75,0,0,1-2.24,6.86c-1.12,2-2.53,3.92-3.59,6A30.36,30.36,0,0,0,17.4,84.1l1.17-.31-5.45-8.71A86.57,86.57,0,0,1,8.05,66.4a28.28,28.28,0,0,1-1.8-18.93.64.64,0,0,0-.92-.71A14.26,14.26,0,0,0,.08,52.08l1.14.48A48.63,48.63,0,0,1,5.94,40.31a96.42,96.42,0,0,1,6.6-11.11A73.17,73.17,0,0,1,40.13,5.57L39.19,5c-.37,4.44-.69,9,.78,13.28a.63.63,0,0,0,1,.28C52.91,8.5,68.48,4.73,83.31,1.22l-.8-.6c-.06.61-1.14,1.48-1.61,2-.75.91-1.5,1.83-2.22,2.76q-2.18,2.78-4.19,5.67A112,112,0,0,0,67,23.43a95.66,95.66,0,0,0-9.23,26.29,81.32,81.32,0,0,0-1.41,15.8.63.63,0,0,0,1.06.44,28.23,28.23,0,0,1,2.38-1.82,33.64,33.64,0,0,0,2.8-2.53,36.63,36.63,0,0,0,4.45-5.48L66,55.65c-2.48,17.19-3.81,34.65-10,51l1.22.16c.1-1.29.06-2.61,0-3.91a17.64,17.64,0,0,0-.27-3.77c-.18-.78-1.39-.45-1.2.33a18.57,18.57,0,0,1,.23,3.73c0,1.2.05,2.42,0,3.62,0,.75,1,.78,1.23.17,6.22-16.37,7.55-33.83,10-51A.63.63,0,0,0,66,55.5,34.87,34.87,0,0,1,61.46,61,32.91,32.91,0,0,1,59,63.25a26.8,26.8,0,0,0-2.38,1.83l1.07.44C57.48,46.45,64.43,28,75.09,12.41,76.63,10.16,78.25,8,80,5.81c.82-1,1.65-2.06,2.5-3.07.6-.71,1.22-1.19,1.31-2.12,0-.42-.43-.69-.79-.6C67.91,3.58,52.21,7.46,40.13,17.7l1,.28C39.74,13.79,40.08,9.36,40.44,5a.63.63,0,0,0-.94-.54A74.77,74.77,0,0,0,20.2,18.22,81.4,81.4,0,0,0,5.5,38.45,53,53,0,0,0,0,52.23a.63.63,0,0,0,1.14.48A12.9,12.9,0,0,1,6,47.84L5,47.14A29.6,29.6,0,0,0,6.46,65.9a66.1,66.1,0,0,0,5.07,9l6,9.54a.63.63,0,0,0,1.16-.32,29,29,0,0,1,3.7-13.42c1.08-1.9,2.41-3.66,3.37-5.63a27.35,27.35,0,0,0,2-6.39l-1.14.15a68.12,68.12,0,0,1,12.37,46c-.05.49.55.74.94.54a35.56,35.56,0,0,0,15.1-16l-1.14-.15a52.69,52.69,0,0,1,2,12.59.63.63,0,0,0,1.25,0Z"/></g></g></g></svg>