<svg xmlns="http://www.w3.org/2000/svg" viewBox="0 0 146.56 165.97"><defs><style>.cls-1{fill:#fff;}</style></defs><g id="Layer_2" data-name="Layer 2"><g id="baby-cat-tail-1-patterns"><g id="tail-1-pattern-5-mask"><path class="cls-1" d="M73.78,135.17c-.27,1.19.77,3.6,1.68,4.4a10,10,0,0,0,4.13,2.36,5.22,5.22,0,0,0,4.55-.86c2.15-1.79,1.88-5.37.17-7.59a6.73,6.73,0,0,0-7-2.53c-2.53.77-4.27,3.8-3.26,6.24"/><path class="cls-1" d="M73.18,135a5.73,5.73,0,0,0,.84,3.64,7.81,7.81,0,0,0,3.06,2.89c2.58,1.54,6.33,1.83,8.27-.88,1.54-2.14,1.08-5.33-.41-7.38a7.43,7.43,0,0,0-7.65-3c-2.89.79-5,4.16-3.85,7,.28.75,1.49.42,1.2-.33a4.32,4.32,0,0,1,2.29-5.26c2.16-1,4.82-.07,6.4,1.55a5.71,5.71,0,0,1,1.4,5.9c-1,2.44-4,2.68-6.12,1.73a7.63,7.63,0,0,1-3.22-2.43,4.89,4.89,0,0,1-1-3.17c.15-.79-1.06-1.12-1.21-.33Z"/><path class="cls-1" d="M79,69.57a16.71,16.71,0,0,0-5.62,10.5,11.9,11.9,0,0,0,.29,4.79C75.17,90,81.25,93,86.51,91.93s9.43-5.49,11.23-10.55c1.12-3.14,1.4-6.8-.29-9.67-1.83-3.09-5.62-4.61-9.21-4.61s-6.54.56-9.23,2.47"/><path class="cls-1" d="M78.57,69.13c-4.3,3.8-7.3,10.49-5.4,16.21,1.52,4.59,6.36,7.4,11,7.44,5.39,0,10.11-3.64,12.71-8.15s3.77-11.33-.62-15.27c-4.6-4.14-12.73-3.69-17.62-.33-.66.45,0,1.54.63,1.08,4-2.74,10.2-3.39,14.5-1,5,2.81,4.9,9,2.69,13.61-2,4.22-5.77,7.87-10.49,8.67-4.23.72-9.1-1.31-11.13-5.19-2.84-5.4.37-12.49,4.56-16.19.61-.53-.28-1.41-.88-.88Z"/><path class="cls-1" d="M83.36,58.61a4,4,0,0,0,3.83,3,6.94,6.94,0,0,0,4.71-2,5.66,5.66,0,0,0,1.73-2.51A2.86,2.86,0,0,0,93,54.2a4.14,4.14,0,0,0-2.22-.87,7.67,7.67,0,0,0-4.58.35c-1.41.69-3.35,3.46-2.83,4.93"/><path class="cls-1" d="M82.75,58.78a4.65,4.65,0,0,0,4.78,3.43,8.15,8.15,0,0,0,6-3.6c1.32-1.94,1-4.7-1.38-5.58a10.24,10.24,0,0,0-3.69-.5,5.54,5.54,0,0,0-3.16.95,7.42,7.42,0,0,0-2,2.41,3.85,3.85,0,0,0-.56,2.89c.24.76,1.45.44,1.21-.33a2.44,2.44,0,0,1,.31-1.7,6.84,6.84,0,0,1,1.34-1.86c1.32-1.29,3.29-1.24,5-1a2.89,2.89,0,0,1,2.28,1.16,2.61,2.61,0,0,1-.1,2.4,7.09,7.09,0,0,1-4.43,3.36c-1.82.42-4-.43-4.4-2.4-.16-.79-1.36-.46-1.21.33Z"/><path class="cls-1" d="M43.77,123.18c-.66,1.23-1.33,2.71-.72,4A3.22,3.22,0,0,0,45,128.67a6.07,6.07,0,0,0,8.14-5.42,2.16,2.16,0,0,0-.19-1.15,2.32,2.32,0,0,0-.59-.66c-2.38-1.92-7-.9-8.55,1.74"/><path class="cls-1" d="M43.23,122.87a6.16,6.16,0,0,0-1,3.66,3.39,3.39,0,0,0,2,2.51,6.67,6.67,0,0,0,9-3.54,5.07,5.07,0,0,0,.36-3.42,3.61,3.61,0,0,0-2.3-1.91,6.23,6.23,0,0,0-2.68-.32,6.9,6.9,0,0,0-5.37,3,.63.63,0,0,0,1.08.63c1.38-2.29,5.23-3.26,7.47-1.69a1.47,1.47,0,0,1,.69.93,4,4,0,0,1-.12,1.41,5.6,5.6,0,0,1-1.24,2.42A5.49,5.49,0,0,1,46,128.31a3.1,3.1,0,0,1-2.43-1.56c-.43-1.08.25-2.32.75-3.25.37-.71-.71-1.34-1.08-.63Z"/><path class="cls-1" d="M44.44,112.31c.2-.45.39-.89.57-1.34a71.45,71.45,0,0,0,4.19-14.9c3.13-.41,6.65,2.48,8.45,5.06a6.54,6.54,0,0,1,.18,6.8A8.79,8.79,0,0,1,52.18,112C49.85,112.57,46.72,113,44.44,112.31Z"/><path class="cls-1" d="M45,112.63a70.07,70.07,0,0,0,4.83-16.4l-.61.46c2.49-.26,4.79,1.35,6.46,3a8.08,8.08,0,0,1,2.14,3.12,6.16,6.16,0,0,1,0,3.68,7.71,7.71,0,0,1-5.4,4.79,14.64,14.64,0,0,1-7.76.4.62.62,0,0,0-.34,1.2,14.87,14.87,0,0,0,7.11-.08,10.69,10.69,0,0,0,5.81-3,7.63,7.63,0,0,0,2.07-6.11,9.12,9.12,0,0,0-3.37-5.53c-1.8-1.61-4.17-3-6.69-2.78a.64.64,0,0,0-.6.46A68.52,68.52,0,0,1,43.9,112C43.58,112.73,44.66,113.36,45,112.63Z"/><path class="cls-1" d="M110.53,13c10.62-6.41,23.2-9.48,35.4-12.37l0,.42a114.37,114.37,0,0,0-18.26,28.41c-2.93-.13-5.52-1.94-8.15-3.25C114.55,23.75,110.38,18.5,110.53,13Z"/><path class="cls-1" d="M110.85,13.53C121.63,7.07,134,4.09,146.1,1.22l-.79-.6c-.05.42-.42.62-.72,1-.48.56-1,1.12-1.41,1.69-.87,1.06-1.72,2.14-2.56,3.23-1.78,2.33-3.49,4.73-5.09,7.19a109.38,109.38,0,0,0-8.44,15.43l.54-.31c-2.31-.16-4.33-1.29-6.33-2.37a25.8,25.8,0,0,1-5.09-3.2,13.74,13.74,0,0,1-5-10.26.63.63,0,0,0-1.25,0,15,15,0,0,0,5.41,11.14,28.29,28.29,0,0,0,5.54,3.5,16.74,16.74,0,0,0,6.77,2.44.58.58,0,0,0,.54-.31A110.27,110.27,0,0,1,136.85,14q2.51-3.8,5.29-7.39c1-1.22,1.92-2.41,2.91-3.59.64-.77,1.4-1.35,1.51-2.36a.64.64,0,0,0-.8-.6c-12.21,2.89-24.67,5.92-35.54,12.43A.63.63,0,0,0,110.85,13.53Z"/><path class="cls-1" d="M75.06,28.51a73.45,73.45,0,0,1,13.5-14.45,11.49,11.49,0,0,1,1,7.67,7.8,7.8,0,0,1-4.06,4.59C82.79,27.59,78,28.85,75.06,28.51Z"/><path class="cls-1" d="M75.6,28.82A74,74,0,0,1,89,14.5l-1-.12a10,10,0,0,1,1.17,5.32,6.76,6.76,0,0,1-2.52,5.13,14.52,14.52,0,0,1-5.6,2.37,17,17,0,0,1-6,.68c-.8-.08-.8,1.17,0,1.25a16.49,16.49,0,0,0,5.14-.44A26.13,26.13,0,0,0,85.39,27a8.67,8.67,0,0,0,4-3.42A8.08,8.08,0,0,0,90.43,19a10.82,10.82,0,0,0-1.33-5.26.63.63,0,0,0-1-.13,74.59,74.59,0,0,0-13.6,14.57C74.05,28.85,75.13,29.47,75.6,28.82Z"/><path class="cls-1" d="M125.12,85.43q-.65,3.64-1.45,7.23c-2.62,11.74-7.74,22.7-13,33.47-3.53-2-4.59-8.79-5.37-12.76a26.13,26.13,0,0,1,8.85-24.64C116.81,86.58,121.82,84.76,125.12,85.43Z"/><path class="cls-1" d="M124.52,85.27a118.87,118.87,0,0,1-5.61,20.89c-2.53,6.71-5.61,13.2-8.73,19.65l.86-.22c-2.5-1.49-3.41-4.84-4.07-7.49a39.48,39.48,0,0,1-1.44-9.4,25.69,25.69,0,0,1,8.4-18.92c2.8-2.49,7.22-4.42,11-3.75.79.14,1.13-1.06.34-1.2-3.51-.62-7.43.69-10.36,2.6a23.37,23.37,0,0,0-7.4,8.51A27.35,27.35,0,0,0,104.34,107a36.74,36.74,0,0,0,1.24,10.63c.73,3.21,1.79,7.22,4.83,9a.62.62,0,0,0,.85-.23c3.1-6.41,6.15-12.86,8.69-19.52a117.46,117.46,0,0,0,5.77-21.32C125.86,84.81,124.66,84.47,124.52,85.27Z"/><path class="cls-1" d="M77.49,152.58c-1.09.45-2.2.87-3.32,1.26l-.18.34A29.34,29.34,0,0,0,83.61,157l0,.35a77,77,0,0,1-50.18,6.38c.88-5.38,6.07-10.85,10.78-13.59s10.17-3.92,15.57-4.66c2.81-.38,5.74-.64,8.41.3C71.34,146.87,75.28,150,77.49,152.58Z"/><path class="cls-1" d="M77.33,152c-1,.39-1.93.76-2.91,1.12a1.36,1.36,0,0,0-1,.77.64.64,0,0,0,.23.86,31.23,31.23,0,0,0,9.93,2.87L83,157l0,.35.31-.54a76.77,76.77,0,0,1-49.71,6.32l.44.76c.75-4.14,3.53-7.67,6.62-10.39a28.72,28.72,0,0,1,12.11-6.07,59.47,59.47,0,0,1,6.75-1.28,20.23,20.23,0,0,1,7.44-.08c3.93.93,7.53,4,10.14,7,.53.6,1.42-.28.88-.88a26.69,26.69,0,0,0-8-6.32c-3.42-1.69-7.08-1.42-10.75-.91-7.6,1.07-15,3.25-20.59,8.77-2.71,2.69-5.08,6-5.77,9.85a.64.64,0,0,0,.44.77,78.59,78.59,0,0,0,27.27.87A77.3,77.3,0,0,0,74.07,162q3.18-1.08,6.26-2.42c1.06-.47,2.14-.93,3.17-1.48a1,1,0,0,0,.73-1.08c0-.37-.32-.59-.62-.63a29.26,29.26,0,0,1-9.3-2.7l.22.85c.18-.33.65-.35,1.06-.5l2.07-.81C78.39,152.88,78.07,151.67,77.33,152Z"/><path class="cls-1" d="M12.29,148.19c.51.87.62,8.49.62,8.88-.12-5.46-.53-12.46-3-17.27-.34-.67-1.16-1.65-1.91-1.53a86.11,86.11,0,0,1-7.4,7.88c3.52,3.84,8.47,7.35,12.29,10.92"/><path class="cls-1" d="M11.75,148.51a6.69,6.69,0,0,1,.25,1.68c.09.94.13,1.88.17,2.82.06,1.35.13,2.71.11,4.06h1.25c-.12-5.35-.35-11-2.37-16.06a7,7,0,0,0-1.68-2.8,2.12,2.12,0,0,0-1.25-.57c-.67,0-.93.52-1.32,1a88.25,88.25,0,0,1-6.73,7.08.64.64,0,0,0,0,.89c3.73,4,8.27,7.18,12.28,10.92.59.54,1.48-.34.89-.89-4-3.73-8.55-6.89-12.29-10.92v.89c2-1.92,4-3.93,5.82-6,.23-.26.46-.52.68-.79s.48-.75.68-.8.79.53,1,.85A12.92,12.92,0,0,1,10.52,143c1.43,4.54,1.66,9.4,1.76,14.12a.63.63,0,0,0,1.25,0c0-1.48,0-3-.12-4.46-.05-1-.1-2-.2-2.92a5.27,5.27,0,0,0-.38-1.81c-.36-.72-1.44-.09-1.08.63Z"/></g></g></g></svg>