<svg xmlns="http://www.w3.org/2000/svg" viewBox="0 0 102.2 116.8"><defs><style>.cls-1{fill:#fff;}</style></defs><g id="Layer_2" data-name="Layer 2"><g id="baby-cat-tail-1-patterns"><g id="tail-1-pattern-2-mask"><path class="cls-1" d="M.65,111A72.12,72.12,0,0,0,4.84,72.09a21.54,21.54,0,0,1,9.51,11.33l1.74,4.87-.74-5.46c-.83-6.09,1.19-12.17,2.12-18.25.69-4.51.79-9.13,1.89-13.57a50,50,0,0,1,4.26-10.6,95.69,95.69,0,0,1,7.08-11.9A73.75,73.75,0,0,1,58.25,5c-.37,4.38-.73,9,.75,13.11C70.81,8.05,86.49,4.19,101.57.62l0,.42C89.64,14.72,80.53,31.31,77,49a23.48,23.48,0,0,1-1.62-5.37,10.9,10.9,0,0,0-1.94,2.28c-4,5.75-6.88,12.17-9.76,18.55L53.86,86.23A228.92,228.92,0,0,0,50,59.15c-2,6.58-5.82,12.45-9.58,18.21L33.62,87.8c-3.14,4.81-6.28,9.61-9.71,14.21a167.15,167.15,0,0,1-12,14.17,52.35,52.35,0,0,0-1.56-14.32A59,59,0,0,1,.65,111Z"/><path class="cls-1" d="M1.25,111.14a73.33,73.33,0,0,0,4.2-39.21l-.92.7A21.06,21.06,0,0,1,12,79.9c1.61,2.64,2.48,5.67,3.52,8.56a.62.62,0,0,0,1.2-.33A65.12,65.12,0,0,1,15.78,80a51.21,51.21,0,0,1,1.43-10.59c.67-3.33,1.15-6.64,1.5-10A51.17,51.17,0,0,1,20.53,49.2c2-6.37,5.5-12.52,9.15-18.09A73.25,73.25,0,0,1,58.57,5.57L57.63,5c-.38,4.44-.7,9,.77,13.28a.64.64,0,0,0,1.05.28C71.34,8.5,86.91,4.73,101.74,1.22L101,.62c0,.45-.63.86-1,1.27-.64.75-1.27,1.52-1.89,2.3q-1.59,2-3.1,4-3.3,4.46-6.16,9.23A104.26,104.26,0,0,0,79.7,36.78a92.44,92.44,0,0,0-3.28,12l1.14-.15A21.14,21.14,0,0,1,76,43.42.63.63,0,0,0,75,43.15a19.83,19.83,0,0,0-3.3,4.3c-1,1.6-2,3.25-2.87,4.92-1.84,3.42-3.46,7-5.06,10.48Q58.51,74.39,53.32,85.92l1.17.31A233.46,233.46,0,0,0,50.61,59c-.12-.64-1-.56-1.2,0-2.62,8.36-7.92,15.6-12.66,22.86-5,7.67-9.86,15.47-15.55,22.66-3.07,3.89-6.34,7.61-9.73,11.23l1.07.44A54.29,54.29,0,0,0,11,101.7a.62.62,0,0,0-1-.28,57.23,57.23,0,0,1-9.59,9c-.64.47,0,1.55.64,1.08a58.32,58.32,0,0,0,9.83-9.21L9.75,102a52.69,52.69,0,0,1,1.54,14.15.63.63,0,0,0,1.07.44A172.24,172.24,0,0,0,29.15,95.7C34.35,88,39.5,80.26,44.36,72.37a58.22,58.22,0,0,0,6.25-13.05h-1.2a232.39,232.39,0,0,1,3.83,26.91c0,.55.88.94,1.16.32L64.62,63.9c1.56-3.47,3.15-6.93,4.93-10.3.85-1.61,1.75-3.2,2.71-4.75A20.73,20.73,0,0,1,75.85,44l-1-.28a22.11,22.11,0,0,0,1.68,5.53.63.63,0,0,0,1.14-.15A102.12,102.12,0,0,1,95.57,9.52c1.26-1.74,2.58-3.45,3.94-5.11.67-.83,1.35-1.64,2-2.45A2,2,0,0,0,102.2.62a.63.63,0,0,0-.79-.6C86.34,3.58,70.64,7.46,58.56,17.7l1,.28c-1.44-4.19-1.1-8.62-.73-12.95,0-.51-.56-.73-1-.54A74.9,74.9,0,0,0,30,28.38a85.69,85.69,0,0,0-9.86,18.11c-2.61,6.74-2.47,14-3.83,21a71.42,71.42,0,0,0-1.79,11.62,58,58,0,0,0,1,9.38l1.2-.33c-1.11-3.12-2.06-6.37-3.84-9.19a22.56,22.56,0,0,0-7.69-7.39.64.64,0,0,0-.92.71A72.16,72.16,0,0,1,.05,110.8C-.25,111.55,1,111.87,1.25,111.14Z"/></g></g></g></svg>