<svg xmlns="http://www.w3.org/2000/svg" viewBox="0 0 73.3 84.5"><defs><style>.cls-1{fill:#fff;}</style></defs><g id="Layer_2" data-name="Layer 2"><g id="baby-cat-tail-1-patterns"><g id="tail-1-pattern-3-mask"><path class="cls-1" d="M.63,45.86c0,3.59,3,4.73,5.32,7.48A80.76,80.76,0,0,1,16.65,70a112.7,112.7,0,0,1,13.07-12.5,101.91,101.91,0,0,1,4,19.94q8.68-4.55,17.15-9.51a44.3,44.3,0,0,1-2.06,15c.84.1,3.8-4.68,4.56-5a29.85,29.85,0,0,1-1.55,6A74.55,74.55,0,0,0,64,69.71l-.93,1.52a221.27,221.27,0,0,0,9.58-21.94,39.22,39.22,0,0,0-3.39,2.92,99.18,99.18,0,0,0-2-20.48c-5.67,9.36-14.81,16-23.7,22.36.69-14.05-3-27.91-6.62-41.5.73,4.94-2.75,9.37-5.39,13.61a47,47,0,0,0-5.41,12.4c-7.66-10.72-8.42-24.82-7.78-38-1.83,1.14-2.81,1.85-3.57,3.86-.18,1.74-.36,3.48-.62,5.21-.93,6.08-2.95,12.15-2.12,18.25l.74,5.46-1.75-4.88A21.46,21.46,0,0,0,1.57,17.2,72.24,72.24,0,0,1,.63,45.86Z"/><path class="cls-1" d="M0,45.86a6.71,6.71,0,0,0,2.21,4.72,53.59,53.59,0,0,1,4.85,5.14A81.17,81.17,0,0,1,16.11,70.3a.63.63,0,0,0,1,.13A114.18,114.18,0,0,1,30.16,57.94l-1.05-.28a102.44,102.44,0,0,1,4,19.77A.63.63,0,0,0,34,78q8.67-4.56,17.14-9.51l-.94-.54a44.82,44.82,0,0,1-2,14.82.62.62,0,0,0,.6.79c1,0,1.85-1.37,2.42-2.1.7-.9,1.46-2.43,2.46-3L52.73,78a10.21,10.21,0,0,1-.65,2.82,12.17,12.17,0,0,1-.84,2.71.62.62,0,0,0,1,.75A76.22,76.22,0,0,0,64.56,70l-1.08-.63-.93,1.53,1.08.63a228.8,228.8,0,0,0,9.64-22.09.63.63,0,0,0-.92-.7,33.39,33.39,0,0,0-3.51,3l1.07.44a102.8,102.8,0,0,0-2-20.64.64.64,0,0,0-1.15-.15C61,40.75,52,47.28,43.28,53.55l.94.54c.65-14.2-3-28.07-6.65-41.67-.18-.65-1.32-.55-1.23.17.6,4.77-2.45,8.8-4.87,12.61a49.49,49.49,0,0,0-5.91,13.24l1.14-.15C19,27.38,18.41,13.49,19,.62a.63.63,0,0,0-.94-.54C16.25,1.22,14.4,2.66,14.15,5c-.4,3.67-1,7.25-1.75,10.87a43.19,43.19,0,0,0-1.12,10,77.28,77.28,0,0,0,.94,7.73l1.2-.33c-1.11-3.12-2.06-6.37-3.84-9.19a22.54,22.54,0,0,0-7.69-7.38.63.63,0,0,0-.92.71A72.28,72.28,0,0,1,0,45.7c-.18.78,1,1.11,1.21.33a74.14,74.14,0,0,0,1-29l-.92.71A21.12,21.12,0,0,1,8.7,25a46.29,46.29,0,0,1,3.52,8.56.62.62,0,0,0,1.2-.33c-.32-2.37-.77-4.77-.89-7.17a39.47,39.47,0,0,1,1-9.43c.57-2.93,1.19-5.86,1.56-8.83.19-1.51.12-3.19,1-4.48A8.31,8.31,0,0,1,18.7,1.16L17.76.62c-.61,13.08.06,27.23,7.87,38.3a.63.63,0,0,0,1.14-.15,50.75,50.75,0,0,1,6.45-14c2.36-3.66,4.94-7.65,4.37-12.2l-1.22.17C40,26.25,43.61,40,43,54.09a.62.62,0,0,0,.94.54C52.84,48.23,62,41.57,67.83,32.05l-1.14-.15a101,101,0,0,1,2,20.31.63.63,0,0,0,1.07.44A31.13,31.13,0,0,1,73,49.83l-.92-.7a225.07,225.07,0,0,1-9.51,21.79.63.63,0,0,0,1.08.63L64.56,70c.42-.69-.64-1.29-1.08-.63a75.33,75.33,0,0,1-12.14,14l1,.76a14.37,14.37,0,0,0,1-3.26,8.64,8.64,0,0,0,.59-3.24.63.63,0,0,0-.92-.37,8.35,8.35,0,0,0-2,2.27c-.37.49-1.71,2.66-2.26,2.68l.6.79a45.72,45.72,0,0,0,2.08-15.15.63.63,0,0,0-.94-.54q-8.46,5-17.14,9.51l.94.54a104.3,104.3,0,0,0-4-20.1.63.63,0,0,0-1-.28,114.36,114.36,0,0,0-13.07,12.5l1,.12A81.93,81.93,0,0,0,8.87,56,36.38,36.38,0,0,0,4.4,50.91c-1.57-1.43-3.08-2.77-3.15-5C1.22,45.06,0,45.06,0,45.86Z"/></g></g></g></svg>