<?xml version="1.0" encoding="UTF-8" standalone="yes"?>
<svg xmlns="http://www.w3.org/2000/svg" viewBox="0 0 61.35 22.63">
  <g id="Layer_2" data-name="Layer 2">
    <g id="baby-cat-brows">
      <g id="baby-cat-brows-1">
        <g id="mask">
          <path fill="currentColor" d="M51.54.68c-2.39.2-4.8,2-6.71,3.49a8.66,8.66,0,0,0-2.55,3.4,5.06,5.06,0,0,0,0,4.14,6.06,6.06,0,0,0,2.51,2.43,11.62,11.62,0,0,0,9.14,1.12,10,10,0,0,0,6.52-6.37,5.45,5.45,0,0,0-.25-4.39,7.62,7.62,0,0,0-4.27-3.32c-1-.32-1.12-.71-4.35-.5"/>
          <path d="M51.54.05A12.24,12.24,0,0,0,45.72,2.7,11.21,11.21,0,0,0,41.8,7.12a5.58,5.58,0,0,0,.33,5.6,9.56,9.56,0,0,0,5,3.11,11.46,11.46,0,0,0,11.08-2.36c2.64-2.43,4.44-6.76,2.07-10a9.42,9.42,0,0,0-4.49-3A9.55,9.55,0,0,0,51.54.05c-.8.05-.81,1.3,0,1.25a9,9,0,0,1,3.35.16,11.15,11.15,0,0,1,2.82,1.31,5,5,0,0,1,2.41,4.15,7.71,7.71,0,0,1-1.75,4.51,9.86,9.86,0,0,1-8.7,3.64c-3.25-.29-8-2.3-7.11-6.31A8.38,8.38,0,0,1,46,4.06c1.63-1.24,3.48-2.53,5.57-2.76.79-.09.8-1.34,0-1.25Z"/>
          <path fill="currentColor" d="M14.23,6.3A10.68,10.68,0,0,0,4.87,8,10.67,10.67,0,0,0,.69,16.5a5.6,5.6,0,0,0,1.14,3.63c1.25,1.46,3.38,1.75,5.3,1.77A15.42,15.42,0,0,0,16,19.72c2.55-1.72,4.28-4.93,3.54-7.93A7.9,7.9,0,0,0,14.23,6.3"/>
          <path d="M14.39,5.69A11.33,11.33,0,0,0,3.24,8.58C.68,11.24-1,15.9.66,19.45s7,3.34,10.34,2.8c3.91-.64,7.64-2.83,8.94-6.76,1.38-4.2-1.5-8.52-5.55-9.8-.76-.24-1.09,1-.33,1.21,3.07,1,5.55,4.15,4.89,7.46-.71,3.48-3.8,5.64-7.07,6.44a19.5,19.5,0,0,1-5.17.47c-1.56-.05-3.37-.31-4.44-1.58s-1.11-3.42-.8-5A10.27,10.27,0,0,1,3.64,10,10,10,0,0,1,14.06,6.9a.63.63,0,0,0,.33-1.21Z"/>
        </g>
        <path d="M51.54.1a12.23,12.23,0,0,0-5.82,2.64A11.24,11.24,0,0,0,41.8,7.17a5.56,5.56,0,0,0,.33,5.59,9.51,9.51,0,0,0,5,3.12,11.46,11.46,0,0,0,11.08-2.36c2.64-2.43,4.44-6.77,2.07-10a9.44,9.44,0,0,0-4.49-3A9.69,9.69,0,0,0,51.54.1c-.8,0-.81,1.29,0,1.25a8.78,8.78,0,0,1,3.35.16,11.12,11.12,0,0,1,2.82,1.3A5.07,5.07,0,0,1,60.12,7a7.76,7.76,0,0,1-1.75,4.51,9.89,9.89,0,0,1-8.7,3.64c-3.25-.29-8-2.31-7.11-6.32A8.38,8.38,0,0,1,46,4.1c1.63-1.23,3.48-2.53,5.57-2.75.79-.09.8-1.34,0-1.25Z"/>
        <path d="M14.39,5.74A11.33,11.33,0,0,0,3.24,8.63C.68,11.28-1,16,.66,19.49c1.73,3.69,7,3.35,10.34,2.8,3.91-.63,7.64-2.82,8.94-6.75,1.38-4.21-1.5-8.53-5.55-9.8-.76-.24-1.09,1-.33,1.2,3.07,1,5.55,4.16,4.89,7.47-.71,3.48-3.8,5.64-7.07,6.43a19.1,19.1,0,0,1-5.17.47c-1.56,0-3.37-.31-4.44-1.58s-1.11-3.41-.8-5a10.19,10.19,0,0,1,2.17-4.64A10,10,0,0,1,14.06,6.94a.62.62,0,0,0,.33-1.2Z"/>
      </g>
    </g>
  </g>
</svg>