<?xml version="1.0" encoding="UTF-8" standalone="yes"?>
<svg xmlns="http://www.w3.org/2000/svg" viewBox="0 0 272.13 104.19">
  <g id="Layer_2" data-name="Layer 2">
    <g id="baby-cat-whiskers">
      <g id="baby-cat-whiskers-1">
        <path d="M198.75,67.61l0-1.81-.46.6c1.38-.52,3.15-.9,4.28-1.9s2.23-2.7,3.45-3.92a96,96,0,0,1,8.3-7L223.83,46a29.74,29.74,0,0,0,3.76-3.15,5.36,5.36,0,0,0,1.27-3.72,2.5,2.5,0,0,1,.09-.77c.43-.77.91-.47,1.5-.45a2.45,2.45,0,0,0,1.54-.34c1.09-.73,1.08-2.19,1.92-3.09s2.37-.86,3.41-1.5a7.74,7.74,0,0,0,2.18-2.82A2.14,2.14,0,0,1,240.67,29c.71-.18,1.57.27,2.31.23a4.91,4.91,0,0,0,3.1-1.62,26.62,26.62,0,0,0,2.24-2.84,13.9,13.9,0,0,1,3.87-3.58A31.62,31.62,0,0,1,257,18.87a20.28,20.28,0,0,0,4.69-2.13,4.36,4.36,0,0,0,1.51-3.57,9.9,9.9,0,0,1,.15-2.83c.3-.87,1.26-2.09,2.24-1.39a.65.65,0,0,0,.86-.23L272,.9c.47-.65-.61-1.28-1.08-.63l-5.59,7.82.85-.22C264,6.32,262,9.26,261.93,11.19s.37,3.77-1.52,4.87a40.57,40.57,0,0,1-4.65,2,19.9,19.9,0,0,0-7.56,4.89c-.91,1.06-1.64,2.27-2.55,3.33a6.13,6.13,0,0,1-1.57,1.39c-1,.53-1.72.25-2.75.14-2.88-.32-2.86,3.2-4.92,4.25-1,.53-2.24.54-3.15,1.32s-1.13,3.09-2.44,3.31c-.67.11-1.3-.22-2,0a1.83,1.83,0,0,0-.95.89,3.92,3.92,0,0,0-.29,1.52A4,4,0,0,1,226.7,42a31.9,31.9,0,0,1-4.14,3.46l-4.64,3.7c-3.45,2.76-7,5.43-10.32,8.33a37.32,37.32,0,0,0-4.36,4.35,7.65,7.65,0,0,1-2,2.16A29.42,29.42,0,0,1,198,65.2a.64.64,0,0,0-.46.6l0,1.81c0,.8,1.22.8,1.25,0Z" fill="currentColor"/>
        <path d="M205.87,70.59c.73-1,7.78-9.27,8.76-7.36.34.67,1.26.18,1.14-.48-.25-1.44,1.28-2.42,2.37-3,1.27-.7,2.61-1.3,3.91-2q4-2.09,7.85-4.43t7.53-5A10.55,10.55,0,0,0,239.31,47a2.33,2.33,0,0,0,.47-1.15c.31-1.23,1.66-3.93,3.3-2.44a.63.63,0,0,0,.88,0,35,35,0,0,1,10.94-8.14c.72-.35.09-1.43-.64-1.08a35.93,35.93,0,0,0-11.18,8.34H244c-2.22-2-4.64.41-5.28,2.6-.33,1.11-.74,1.34-1.69,2s-1.64,1.15-2.47,1.71q-2.39,1.62-4.86,3.14c-3.28,2-6.65,3.89-10.1,5.61-2.18,1.09-5.52,2.45-5,5.46l1.14-.48c-2.12-4.14-9.79,5.87-10.92,7.36-.49.64.6,1.26,1.08.63Z" fill="currentColor"/>
        <path d="M213,72.82a2.7,2.7,0,0,1,3.91-.31.63.63,0,0,0,1-.28l.61-1.87.27-.85c.08-.21.44-.85.38-1,.17.45.9.68,1.15.15.39-.85,1.57-.85,2.36-1.11a13.1,13.1,0,0,0,3-1.75l6.6-4.4c.67-.44.05-1.53-.63-1.08l-7.23,4.82a10,10,0,0,1-3.13,1.49,2.8,2.8,0,0,0-2,1.4l1.14.15a1.24,1.24,0,0,0-2.05-.48,3.69,3.69,0,0,0-.8,1.65l-.82,2.55,1-.27a4,4,0,0,0-5.87.56c-.48.65.61,1.27,1.08.63Z" fill="currentColor"/>
        <path d="M79.9,90.36a3.33,3.33,0,0,0-6-1.89l1,.28a1.8,1.8,0,0,0-1.75-1.45,3.32,3.32,0,0,0-2.56,1.57l.61-.17a127.6,127.6,0,0,0-29.73-5l.62.63c.17-1.51,0-3.49-1.84-3.79a1.71,1.71,0,0,0-1.56.51c-.35.39-.38.93-.83,1.26a2,2,0,0,1-1.16.31,8.91,8.91,0,0,1-3.14-1,6.79,6.79,0,0,0-2.75-.44c-1.91.06-3.73.75-5.63.85a4.12,4.12,0,0,1-2.92-.79,25.59,25.59,0,0,0-2-1.85,9,9,0,0,0-5.23-1A35.6,35.6,0,0,1,.75,76.27C0,76-.32,77.19.42,77.48a33.69,33.69,0,0,0,12.83,2.26c1.83,0,3.82-.36,5.58.31s2.5,2.42,4.25,3c3.39,1.11,6.82-1.5,10.22-.22,1.48.57,2.93,1.43,4.57.91a2.73,2.73,0,0,0,1.35-.94c.39-.52.83-1.52,1.54-.58.4.54.22,1.52.15,2.14a.64.64,0,0,0,.63.62,126.29,126.29,0,0,1,29.39,4.94.62.62,0,0,0,.61-.16c.29-.35,1.93-2.19,2.23-.67a.63.63,0,0,0,1,.28,2.09,2.09,0,0,1,3.84,1c.08.79,1.33.8,1.25,0Z" fill="currentColor"/>
        <path d="M72,95.15a5.14,5.14,0,0,1-3.74-1.07,1.67,1.67,0,0,0-.72-.43c-.36-.09-.83.1-1.23,0a4.16,4.16,0,0,1-1.18-.33.64.64,0,0,0-.71.29c-1.55,2.92-6.15,1.38-8.59.83-4-.91-8-2-12-2.7-1.81-.31-3.46.2-5.25.09q-3.06-.18-6.12-.32c-4.24-.2-8.48-.32-12.73-.39a.63.63,0,0,0,0,1.25q6.86.1,13.71.43c2.12.11,4.24.29,6.36.36,1,0,1.93-.4,3-.31a26.52,26.52,0,0,1,3.42.68c4.12.93,8.24,2.08,12.4,2.78,2.46.42,5.6.45,6.93-2.07l-.7.29a5.17,5.17,0,0,0,2.91.3l-.61-.16A6.36,6.36,0,0,0,72,96.4c.79-.07.8-1.32,0-1.25Z" fill="currentColor"/>
        <path d="M62.2,101.71c-.21,0-.43-.75-.63-.92a1.34,1.34,0,0,0-1.07-.28,2,2,0,0,0-1,.56c-.7.67-1.16,1-2.14.66-2.53-.93-5.49,0-8.1.35a25.85,25.85,0,0,1-4.86.55c-1.09-.07-1.92-.91-3-.44-.72.31-.95.78-1.8.64a13,13,0,0,1-1.91-.74,2.32,2.32,0,0,0-2.48.39c-.59.54.29,1.42.89.88.85-.77,2.49.7,3.43.82,1.15.15,1.94-1,3-.8.46.1.87.38,1.37.45a6.93,6.93,0,0,0,1.82,0c1.38-.16,2.74-.37,4.11-.56l4.21-.57a5.38,5.38,0,0,1,2.26,0,15.9,15.9,0,0,0,1.64.57,2.17,2.17,0,0,0,2.11-.86c.22-.26.25-.43.62-.4s.31.19.52.47a1.18,1.18,0,0,0,.74.49c.78.19,1.11-1,.33-1.21Z" fill="currentColor"/>
      </g>
    </g>
  </g>
</svg>