<?xml version="1.0" encoding="UTF-8" standalone="yes"?>
<svg xmlns="http://www.w3.org/2000/svg" viewBox="0 0 190.74 82.48">
  <g id="Layer_2" data-name="Layer 2">
    <g id="baby-cat-ears">
      <g id="baby-cat-ears-2">
        <g id="mask">
          <path d="M175.54,61.1a98.83,98.83,0,0,1-13.27-4,69.33,69.33,0,0,1-7.68-3.42c-3.06-1.61-6-3.53-8.85-5.44l-4.44-2.94a75.65,75.65,0,0,1-6.3-4.49A38.72,38.72,0,0,1,123.47,25c-.46-1.19-.84-2.61-.13-3.67l1.16.12A242.78,242.78,0,0,0,190.1.61Z" fill="currentColor"/>
          <path d="M175.7,60.5a81.77,81.77,0,0,1-25.48-10.08c-3.86-2.43-7.69-5-11.44-7.56a41.81,41.81,0,0,1-9.12-8.34,37.63,37.63,0,0,1-3.84-5.91,32.42,32.42,0,0,1-1.46-3.1c-.5-1.19-1.17-2.64-.48-3.87l-.54.3a16.67,16.67,0,0,0,4.75-.5q3.53-.63,7-1.38,6.92-1.47,13.73-3.34a241.2,241.2,0,0,0,27-9.12q7.38-3,14.56-6.45L189.5.44,184.57,20.9l-7.84,32.59-1.8,7.45c-.18.78,1,1.11,1.21.33l4.93-20.46,7.84-32.59,1.8-7.44a.64.64,0,0,0-.92-.71,242.5,242.5,0,0,1-52.72,18.29q-3.85.86-7.72,1.58a21.17,21.17,0,0,1-6,.75.63.63,0,0,0-.54.31c-.93,1.67-.24,3.44.44,5.07a39.48,39.48,0,0,0,11.31,15.2c3.72,3,7.87,5.53,11.86,8.17a80,80,0,0,0,12.66,7.05,97.9,97.9,0,0,0,16.3,5.22C176.15,61.89,176.49,60.68,175.7,60.5Z"/>
          <path d="M62.3,61.16l3.51,20.69C51.44,79.51,38,73.09,25.51,65.67a86.44,86.44,0,0,1-10.18-6.82A51.64,51.64,0,0,1,.63,39.78L1,39.16c12.16-4.64,24.92-7.41,37.4-11.1s24.88-8.43,35.14-16.41c0,0,.52-.29.7-.36s.71-.21.71-.21c-1.27,2-2.46,4.09-3.55,6.2l.72-1.64a94.32,94.32,0,0,0-9,31,88.19,88.19,0,0,0,.91,24.06L63.94,70a42.58,42.58,0,0,0,1,6.48" fill="currentColor"/>
          <path d="M61.7,61.32,65.21,82l.77-.76c-10.46-1.74-20.39-5.57-29.8-10.38C27,66.17,17.43,61,10.35,53.35A51.7,51.7,0,0,1,1.17,39.47v.63a1.62,1.62,0,0,1,.39-.53,11.37,11.37,0,0,1,1.84-.63c1.34-.49,2.69-.95,4-1.4,2.71-.9,5.44-1.73,8.18-2.52,5.42-1.56,10.87-3,16.3-4.47C42,27.77,52.09,24.67,61.47,19.94a81.42,81.42,0,0,0,7.58-4.34q1.83-1.18,3.59-2.49a6.94,6.94,0,0,1,2.48-1.43l-.71-.92q-1.91,3-3.55,6.21l1.08.63L72.66,16c.32-.72-.72-1.37-1.08-.63a91.39,91.39,0,0,0-8.12,55.55l1.2-.33-.12-.7c-.12-.69-1.28-.53-1.23.17a46.84,46.84,0,0,0,1,6.65c.18.78,1.38.45,1.21-.33a45.09,45.09,0,0,1-1-6.32l-1.23.16.13.7c.13.79,1.34.46,1.2-.33a90,90,0,0,1,8-54.59l-1.08-.63L70.86,17c-.31.72.71,1.36,1.08.63,1.1-2.12,2.28-4.18,3.55-6.2a.63.63,0,0,0-.71-.92c-1.94.5-3.46,2.09-5.09,3.2-2.17,1.47-4.42,2.82-6.72,4.07a108.4,108.4,0,0,1-15.12,6.59C37.12,28.17,26,30.72,15.06,33.88c-2.81.82-5.62,1.67-8.4,2.6-1.35.45-2.7.92-4,1.41-.86.32-1.86.45-2.35,1.27s-.17,1,.16,1.69C1,42.09,1.64,43.31,2.32,44.5a50.84,50.84,0,0,0,4.12,6.16c6.57,8.49,15.67,14,25,19.09,10.72,5.86,22.13,10.7,34.25,12.7a.63.63,0,0,0,.76-.77L62.91,61c-.14-.79-1.34-.45-1.21.33Z"/>
        </g>
        <path d="M175.7,60.52a81.55,81.55,0,0,1-25.48-10.09c-3.86-2.43-7.69-5-11.44-7.55a41.61,41.61,0,0,1-9.12-8.35,37.54,37.54,0,0,1-3.84-5.9,33.6,33.6,0,0,1-1.46-3.1c-.5-1.19-1.17-2.64-.48-3.88l-.54.31a16.67,16.67,0,0,0,4.75-.5q3.53-.64,7-1.38,6.92-1.47,13.73-3.34a243.24,243.24,0,0,0,27-9.12q7.38-3,14.56-6.45c.72-.35.09-1.43-.63-1.08a243,243,0,0,1-52.72,18.29q-3.85.86-7.72,1.58a21.17,21.17,0,0,1-6,.75.63.63,0,0,0-.54.31c-.93,1.67-.24,3.43.44,5.07a39.56,39.56,0,0,0,2.94,5.67,39.23,39.23,0,0,0,8.37,9.52c3.72,3,7.87,5.54,11.86,8.18a80,80,0,0,0,12.66,7,97,97,0,0,0,16.3,5.21c.78.18,1.12-1,.33-1.2Z"/>
        <path d="M173.18,37.64c-.62,1.81-1.44,4.34-3.6,4.77a2.27,2.27,0,0,1-2.49-.86c-.69-1.26.47-2.75,1.17-3.72.38-.51-.35-1.16-.85-.85-3.16,1.93-6.94,4.09-10.7,2.62l.37.92,1.6-2.87a.63.63,0,0,0-.54-.94c-7.44.3-16.16.46-21.42-5.79-.51-.62-1.39.27-.88.89,5.47,6.5,14.54,6.46,22.3,6.15L157.6,37,156,39.89a.63.63,0,0,0,.37.91c4.08,1.6,8.24-.64,11.67-2.74l-.86-.86c-1,1.33-2,3-1.29,4.72a3.13,3.13,0,0,0,2.7,1.78c3.38.31,4.88-3.05,5.79-5.73.26-.76-.94-1.09-1.2-.33Z"/>
        <path d="M24.29,57.12C26.43,59.43,29.65,60,32.68,60A30.68,30.68,0,0,0,43.9,57.59l-.77-.44c.18.81-.89,1.52-.74,2.4s1,1.15,1.86,1.19a11.71,11.71,0,0,0,7.32-2.33L50.65,58,53,64.37c.43,1.2.82,3.1,2.27,3.47s3-1.21,4-2.08a23.28,23.28,0,0,0,3.66-4.27l-1.14-.15L65.21,82l.77-.77c-10.46-1.73-20.39-5.56-29.8-10.37C27,66.19,17.43,61,10.35,53.37A51.75,51.75,0,0,1,1.17,39.48v.63c.09-.16.19-.45.33-.55A14.32,14.32,0,0,1,3.17,39c1.27-.46,2.54-.9,3.82-1.32q3.94-1.32,8-2.47c5.25-1.53,10.55-2.92,15.83-4.36C40.48,28.23,50.18,25.33,59.3,21A79.07,79.07,0,0,0,73.86,12.2c.63-.48,0-1.57-.63-1.07C55.66,24.69,33.29,28.41,12.55,34.64c-2.73.82-5.45,1.69-8.14,2.63L2.4,38a7.65,7.65,0,0,0-1.71.65A1.9,1.9,0,0,0,0,39.8c0,.41.35.9.52,1.25.26.56.53,1.11.82,1.66.57,1.1,1.17,2.17,1.82,3.23a54,54,0,0,0,4.15,5.83C14,59.91,23.06,65.26,32.19,70.19c10.49,5.67,21.64,10.32,33.46,12.28a.63.63,0,0,0,.76-.77L62.91,61c-.1-.57-.87-.55-1.15-.15a21.78,21.78,0,0,1-2.7,3.29c-.79.78-3,3.3-4.06,2a6.44,6.44,0,0,1-.75-1.88l-.75-2-1.64-4.52a.64.64,0,0,0-.92-.38,10.68,10.68,0,0,1-5.68,2.14c-.25,0-1,.16-1.22,0-.6-.38-.09-.79.1-1.2a2.23,2.23,0,0,0,.2-1.46.64.64,0,0,0-.77-.44,29.73,29.73,0,0,1-10,2.3c-3,.14-6.22-.15-8.36-2.44-.54-.59-1.43.29-.88.88Z"/>
      </g>
    </g>
  </g>
</svg>