<?xml version="1.0" encoding="UTF-8" standalone="yes"?>
<svg xmlns="http://www.w3.org/2000/svg" viewBox="0 0 40.49 34.67">
  <g id="Layer_2" data-name="Layer 2">
    <g id="baby-cat-head">
      <g id="baby-cat-head-3">
        <g id="mask">
          <path d="M31.72,24.28c-3.44,1.31-8.74,1.48-11.14-1.76a4.59,4.59,0,0,1-.81-1.29,3,3,0,0,1,.69-2.69,8.93,8.93,0,0,1,2.26-1.79,10.8,10.8,0,0,1,3-1.2,41.05,41.05,0,0,1,6,1l8.15-15-4.5-.14c-5.92-1.89-12.43.2-17.76,3.4a22.57,22.57,0,0,0-7.49,6.64A11.4,11.4,0,0,0,8.44,21c1.37,4.24,5.67,6.86,10,8.09a14.77,14.77,0,0,0,7.82.39,7.59,7.59,0,0,0,5.5-5.19" fill="currentColor"/>
          <path d="M31.56,23.68a12.21,12.21,0,0,1-7.22.54,6.08,6.08,0,0,1-3-1.77A2.64,2.64,0,0,1,20.38,20a4.19,4.19,0,0,1,1.79-2.13,6.82,6.82,0,0,1,4.92-1.57c1.5.21,3,.52,4.47.86a.63.63,0,0,0,.7-.29l8.15-15a.63.63,0,0,0-.54-.94L36.08.74A12.6,12.6,0,0,1,33.91.32,17.32,17.32,0,0,0,29.6,0C23.94.34,18.36,3,13.94,6.47,9.86,9.65,6.54,14.58,7.54,20c.91,5,5.51,8,10,9.48,5.26,1.69,13,1.45,14.79-5a.63.63,0,0,0-1.21-.34c-1.6,5.86-8.83,5.61-13.42,4.1-4.29-1.42-8.68-4.5-9-9.38-.42-5.34,3.42-9.67,7.56-12.47S25.33,1.3,30.43,1.25c2,0,3.86.69,5.84.75l3.6.11-.54-.94L31.18,16.22l.71-.29a26.6,26.6,0,0,0-5.91-1,9.08,9.08,0,0,0-6.37,3.75c-1.65,2.76,1,5.49,3.5,6.46a12.75,12.75,0,0,0,8.78-.25c.75-.27.42-1.48-.33-1.2Z"/>
          <path d="M11.13,10.06C6.78,11.77,1.79,15,.82,19.52S2.63,29,6.53,31.81a10.82,10.82,0,0,0,5.93,2.25c2.15,0,4.59-.46,5.61-2.35a6.57,6.57,0,0,0,.78-.94c.11-.22.77-1.39.77-1.39" fill="currentColor"/>
          <path d="M11,9.46C5.36,11.7-.82,16,.09,22.84c.85,6.43,7.49,12.67,14.17,11.74a5.94,5.94,0,0,0,4.09-2.16,23.79,23.79,0,0,0,1.81-2.72.63.63,0,0,0-1.08-.63,16.73,16.73,0,0,1-1.55,2.32,5.53,5.53,0,0,1-4.75,2c-4,0-7.74-3-9.77-6.25s-2.5-7.11-.38-10.32c2-3,5.42-4.91,8.67-6.2.74-.3.41-1.51-.33-1.21Z"/>
        </g>
        <path d="M35.54.74C30.7-.73,25.63.22,21.09,2.22c-4.31,1.91-8.71,4.72-11.4,8.68C7.17,14.61,6.43,19.64,9,23.54c2.38,3.64,6.72,5.67,10.85,6.53,4.85,1,11-.17,12.51-5.62a.63.63,0,0,0-1.21-.34c-1.3,4.76-6.8,5.63-11,4.76-3.7-.77-7.67-2.49-9.91-5.67-2.57-3.64-1.81-8.35.64-11.84S17,5.53,20.74,3.75C25.23,1.6,30.34.47,35.21,2A.63.63,0,0,0,35.54.74Z"/>
        <path d="M31.56,23.68a11.66,11.66,0,0,1-8,.3,5.93,5.93,0,0,1-3.08-2.63c-1-1.78,1.3-3.28,2.54-4.06.68-.43.05-1.51-.63-1.08-1.65,1-3.56,2.45-3.35,4.65a4.66,4.66,0,0,0,1.37,2.46,6.25,6.25,0,0,0,1.84,1.43c2.89,1.53,6.63,1.25,9.62.13.75-.28.42-1.48-.33-1.2Z"/>
        <path d="M11,9.46C5.36,11.7-.82,16,.09,22.84c.85,6.43,7.49,12.67,14.17,11.74a5.94,5.94,0,0,0,4.09-2.16,23.79,23.79,0,0,0,1.81-2.72.63.63,0,0,0-1.08-.63,16.73,16.73,0,0,1-1.55,2.32,5.53,5.53,0,0,1-4.75,2c-4,0-7.74-3-9.77-6.25s-2.5-7.11-.38-10.32c2-3,5.42-4.91,8.67-6.2.74-.3.41-1.51-.33-1.21Z"/>
      </g>
    </g>
  </g>
</svg>