<?xml version="1.0" encoding="UTF-8" standalone="yes"?>
<svg xmlns="http://www.w3.org/2000/svg" viewBox="0 0 230.41 86.62">
  <g id="Layer_2" data-name="Layer 2">
    <g id="baby-cat-whiskers">
      <g id="baby-cat-whiskers-3">
        <path d="M163.67,61.75c5.64-10.09,13.57-18.58,21.75-26.66,8.6-8.5,17.22-17.25,27.17-24.2a100.11,100.11,0,0,1,17.49-9.75c.74-.32.1-1.4-.63-1.08a110.8,110.8,0,0,0-30.24,20.08c-4.54,4.11-8.9,8.41-13.27,12.69-4.17,4.08-8.28,8.23-12.11,12.63a93.63,93.63,0,0,0-11.24,15.66c-.39.71.69,1.34,1.08.63Z" fill="currentColor"/>
        <path d="M172.88,59.59c1.49-3.61,4.51-6.24,7.37-8.77s6.09-5.26,9.26-7.76a203,203,0,0,1,19.86-13.83q5.82-3.57,11.87-6.74c.71-.38.08-1.46-.64-1.08a207.43,207.43,0,0,0-40.9,28.23c-3.16,2.79-6.39,5.64-8,9.62-.31.74.9,1.07,1.21.33Z" fill="currentColor"/>
        <path d="M180.86,56.9a222.73,222.73,0,0,1,19.2-12.69.63.63,0,0,0-.63-1.08,222.73,222.73,0,0,0-19.2,12.69c-.64.47,0,1.56.63,1.08Z" fill="currentColor"/>
        <path d="M.6,69.78A153.8,153.8,0,0,1,48,72.8c.79.18,1.12-1,.34-1.2A154.79,154.79,0,0,0,.6,68.53c-.8.07-.8,1.32,0,1.25Z" fill="currentColor"/>
        <path d="M6.25,84.28C18.09,77,32.41,77.39,45.77,78.36c.81.06.8-1.19,0-1.25-13.58-1-28.12-1.31-40.16,6.09-.68.42-.05,1.5.64,1.08Z" fill="currentColor"/>
        <path d="M20.77,86.51a28.75,28.75,0,0,1,16.32-4.73.63.63,0,0,0,0-1.25,29.89,29.89,0,0,0-17,4.9c-.67.44,0,1.53.63,1.08Z" fill="currentColor"/>
      </g>
    </g>
  </g>
</svg>