<?xml version="1.0" encoding="UTF-8" standalone="yes"?>
<svg xmlns="http://www.w3.org/2000/svg" viewBox="0 0 301.51 88.14">
  <g id="Layer_2" data-name="Layer 2">
    <g id="baby-cat-whiskers">
      <g id="baby-cat-whiskers-2">
        <path d="M202.05,66.33l-1.2.83.85.85c9.07-13.26,21.71-23.73,34.36-33.42,12.41-9.49,25.59-18.1,39.82-24.62a135.76,135.76,0,0,1,25.18-8.75c.78-.18.45-1.39-.33-1.2-15.44,3.66-30,10.29-43.54,18.51a258.81,258.81,0,0,0-38.55,28.79,113.65,113.65,0,0,0-18,20.06.63.63,0,0,0,.85.86l1.21-.84c.65-.45,0-1.53-.64-1.07Z" fill="currentColor"/>
        <path d="M203.37,72.76c3.16-4.9,7.46-8.87,11.88-12.6s9.17-7.43,14-10.86a226.12,226.12,0,0,1,29.56-17.9q8.88-4.5,18.13-8.18c.74-.29.41-1.5-.33-1.2a227.43,227.43,0,0,0-60.69,36c-5,4.18-10,8.58-13.6,14.13-.44.68.64,1.3,1.08.63Z" fill="currentColor"/>
        <path d="M212.71,72.85a64.39,64.39,0,0,1,16-11c.72-.35.09-1.43-.63-1.08A65.64,65.64,0,0,0,211.82,72c-.59.55.3,1.43.89.88Z" fill="currentColor"/>
        <path d="M.59,65.33c21.59-2.75,43.06,2.51,63.4,9.39,5.8,2,11.57,4.06,17.33,6.16.75.27,1.08-.93.33-1.21-20.29-7.39-41-14.87-62.71-16.16a98.73,98.73,0,0,0-18.35.57c-.78.1-.79,1.35,0,1.25Z" fill="currentColor"/>
        <path d="M25.18,79a254.42,254.42,0,0,1,55.74,6.39c.78.18,1.11-1,.33-1.2a255.54,255.54,0,0,0-56.07-6.44.63.63,0,0,0,0,1.25Z" fill="currentColor"/>
        <path d="M51.15,88a66.68,66.68,0,0,1,21.61.17c.79.14,1.13-1.07.33-1.2a68.27,68.27,0,0,0-22.28-.17c-.79.12-.45,1.33.34,1.2Z" fill="currentColor"/>
      </g>
    </g>
  </g>
</svg>