<?xml version="1.0" encoding="UTF-8" standalone="yes"?>
<svg xmlns="http://www.w3.org/2000/svg" viewBox="0 0 55.66 58.39">
  <g id="Layer_2" data-name="Layer 2">
    <g id="baby-cat-tail">
      <g id="baby-cat-tail-3">
        <g id="mask">
          <path d="M14.54,15.66c-.52,2,1.36,4.75,3.43,4.81s4-1.12,5.64-2.33c5-3.6,9.81-8.08,11.73-14l.23-.24A16.59,16.59,0,0,1,37.9,15.15a29.3,29.3,0,0,0,5.22-6.34,9.86,9.86,0,0,0,1-7.93c3.5,5.13,7,10.32,9.14,16.17s2.62,12.5.07,18.16A22.65,22.65,0,0,1,42.7,45.76l1.77.45C35.32,51,26.52,53.82,16.68,49.13l.12.27a10,10,0,0,0,2.28,8.65C11.81,56.06,3.13,47.9.67,40.77l-.05-.16c.51-.66,1-1.29,1.55-2,1.06-1.36,2.09-2.76,3-4.2C8.11,30.09,14.54,15.66,14.54,15.66Z" transform="translate(0 -0.29)" fill="currentColor"/>
          <path d="M13.94,15.49a5,5,0,0,0,3,5.41c2.86,1,6-1.45,8.11-3a38.77,38.77,0,0,0,6.81-6.3A24.09,24.09,0,0,0,34.38,7.9a21.75,21.75,0,0,0,1-2A5.17,5.17,0,0,1,36,4.38l-1-.13A16.3,16.3,0,0,1,37.3,15c-.08.58.56,1.1,1,.61C42.22,11.7,46.67,6.65,44.71.72l-1.14.48c5,7.27,10.27,15,10.79,24.13a19.91,19.91,0,0,1-3,12.13,23.41,23.41,0,0,1-9,7.76.63.63,0,0,0,.15,1.14l1.76.46-.14-1.15a45.89,45.89,0,0,1-13.08,4.87A23.59,23.59,0,0,1,17,48.6a.63.63,0,0,0-.85.85c.15.33-.18,1.4-.18,1.87a10.64,10.64,0,0,0,2.68,7.17l.61-1a27.24,27.24,0,0,1-11-6.82,33.16,33.16,0,0,1-4.34-5.05,17.11,17.11,0,0,1-2.66-5.14l-.16.61a66.64,66.64,0,0,0,5.7-8c1.29-2.26,2.44-4.61,3.58-7C12,22.77,13.56,19.39,15.08,16c.33-.72-.75-1.36-1.08-.63-2.24,5-4.56,10.06-7.12,14.94C6.21,31.54,5.54,32.81,4.76,34s-1.48,2.16-2.27,3.21c-.5.67-1,1.32-1.53,2C.67,39.55.12,40,0,40.44s.35,1.32.57,1.84a23.18,23.18,0,0,0,1.62,3,33,33,0,0,0,4.18,5.25c3.44,3.55,7.72,6.72,12.53,8.09a.63.63,0,0,0,.61-1,9.42,9.42,0,0,1-2.22-4.83,8.94,8.94,0,0,1,0-2.53,2.11,2.11,0,0,0-.07-1.43l-.86.85a24.91,24.91,0,0,0,14.22,2.21c5-.73,9.73-2.82,14.21-5.13a.63.63,0,0,0-.15-1.14l-1.77-.46L43,46.3c5.7-2.94,10.46-7.81,12-14.17,1.72-7-.29-14.31-3.52-20.58a103.86,103.86,0,0,0-6.86-11c-.38-.55-1.38-.23-1.14.48,1.8,5.47-2.5,10.09-6,13.66l1,.61a17.7,17.7,0,0,0-2.4-11.7.64.64,0,0,0-1-.13A8.57,8.57,0,0,0,34,5.88a21.31,21.31,0,0,1-1.84,3.21,30.35,30.35,0,0,1-5.25,5.67,27.13,27.13,0,0,1-6.42,4.53c-1.3.58-2.83.9-4-.09a3.69,3.69,0,0,1-1.35-3.38C15.3,15,14.1,14.7,13.94,15.49Z" transform="translate(0 -0.29)"/>
        </g>
        <path d="M.06,40.94A28.59,28.59,0,0,0,7.63,51.78a28.27,28.27,0,0,0,11.29,6.87.63.63,0,0,0,.61-1,9.42,9.42,0,0,1-2.22-4.83,8.94,8.94,0,0,1,0-2.53,2.11,2.11,0,0,0-.07-1.43l-.86.85a24.91,24.91,0,0,0,14.22,2.21c5-.73,9.73-2.82,14.21-5.13a.63.63,0,0,0-.15-1.14l-1.77-.46L43,46.3c5.7-2.94,10.46-7.81,12-14.17,1.72-7-.29-14.31-3.52-20.58a103.86,103.86,0,0,0-6.86-11c-.38-.55-1.38-.23-1.14.48,1.8,5.47-2.5,10.09-6,13.66l1,.61a17.7,17.7,0,0,0-2.4-11.7.64.64,0,0,0-1-.13A8.57,8.57,0,0,0,34,5.88a21.31,21.31,0,0,1-1.84,3.21,30.35,30.35,0,0,1-5.25,5.67,27.13,27.13,0,0,1-6.42,4.53c-1.3.58-2.83.9-4-.09a3.69,3.69,0,0,1-1.35-3.38c.16-.78-1-1.12-1.2-.33a5,5,0,0,0,3,5.41c2.86,1,6-1.45,8.11-3a38.77,38.77,0,0,0,6.81-6.3A24.09,24.09,0,0,0,34.38,7.9a21.75,21.75,0,0,0,1-2A5.17,5.17,0,0,1,36,4.38l-1-.13A16.3,16.3,0,0,1,37.3,15c-.08.58.56,1.1,1,.61C42.22,11.7,46.67,6.65,44.71.72l-1.14.48c5,7.27,10.27,15,10.79,24.13a19.91,19.91,0,0,1-3,12.13,23.41,23.41,0,0,1-9,7.76.63.63,0,0,0,.15,1.14l1.76.46-.14-1.15a45.89,45.89,0,0,1-13.08,4.87A23.59,23.59,0,0,1,17,48.6a.63.63,0,0,0-.85.85c.15.33-.18,1.4-.18,1.87a10.64,10.64,0,0,0,2.68,7.17l.61-1A27,27,0,0,1,8.51,50.89,27.05,27.05,0,0,1,1.27,40.6c-.27-.75-1.48-.42-1.21.34Z" transform="translate(0 -0.29)"/>
      </g>
    </g>
  </g>
</svg>