<?xml version="1.0" encoding="UTF-8" standalone="yes"?>
<svg xmlns="http://www.w3.org/2000/svg" viewBox="0 0 48.5 48.45">
  <g id="Layer_2" data-name="Layer 2">
    <g id="baby-cat-head">
      <g id="baby-cat-head-4">
        <path d="M15.27,47.39c5.14-3.36,10.15-7,15.53-10A50.11,50.11,0,0,1,48.05,31.5c.79-.11.45-1.32-.34-1.2A50.51,50.51,0,0,0,30.5,36.18c-5.51,3-10.61,6.7-15.86,10.13-.67.44-.05,1.52.63,1.08Z" fill="currentColor"/>
        <path d="M35.8,48c2.16-6.67-1.67-13.16-4.89-18.78-3.42-6-7.29-11.81-12.59-16.28-.61-.52-1.5.36-.88.88,5,4.23,8.71,9.69,12,15.31s7.31,12,5.18,18.53c-.25.77,1,1.1,1.21.34Z" fill="currentColor"/>
        <path d="M9.21,7.59A2,2,0,0,0,8.4,9.31a2.26,2.26,0,0,0,1.2,2,3.14,3.14,0,0,0,3.7-.44A2.93,2.93,0,0,0,14.15,9a2,2,0,0,0-.94-1.73,3.82,3.82,0,0,0-2-.45,3.41,3.41,0,0,0-2.09.89.64.64,0,0,0,0,.89.66.66,0,0,0,.89,0s.14-.12.07-.07l.15-.11.35-.2s.15-.06.05,0l.15-.05.18,0,.08,0c-.06,0-.07,0,0,0a3.66,3.66,0,0,1,.74,0c.13,0-.07,0,0,0l.17,0,.36.1s.15.06,0,0l.14.07.13.08s.07.08,0,0l.08.07s.09.11,0,0l.09.13c.05.09,0-.05,0,.06l.06.22c0-.11,0,0,0,.06V9.1c0-.11,0,0,0,.05a2,2,0,0,1-.06.23l0,.07-.08.15a.86.86,0,0,1-.1.16l0,.07c-.05.08,0-.06,0,0a3.45,3.45,0,0,1-.26.28l-.07.06a1.22,1.22,0,0,1-.19.12s-.2.09-.11.06l-.17.06-.19,0s-.1,0,0,0h-.08a1.89,1.89,0,0,1-.41,0s-.16,0,0,0l-.18,0-.31-.08-.12,0-.06,0c-.08,0,.1.06,0,0l-.23-.13L10,10.12c-.08,0,.1.09,0,0L9.86,10c-.07-.08,0,0,0,0s-.05-.06-.06-.09a1.29,1.29,0,0,1-.09-.16c-.07-.12,0,.12,0,0a1,1,0,0,0,0-.1c0-.06,0-.12,0-.17a.09.09,0,0,0,0-.05c0-.09,0,.08,0,.08a.17.17,0,0,0,0-.1V9.24a.45.45,0,0,0,0-.11c0-.13,0,.13,0,0s.05-.24.09-.36-.06.13,0,0a.16.16,0,0,0,0-.07,1.48,1.48,0,0,1,.08-.13c0-.07-.11.12,0,.05l0,0s0,0,.05-.05-.15.11-.06.05a.62.62,0,0,0,.22-.85.63.63,0,0,0-.85-.23Z" fill="currentColor"/>
        <path d="M10.73,7.36c-1-2.07-2-4.37-4-5.68S2.11.37.65,2.34.28,6.52,2.2,7.53A12.44,12.44,0,0,0,6,8.56a9.32,9.32,0,0,0,4,0c.56-.15.63-1.11,0-1.21-3-.49-7.72,1.6-7,5.31a2.59,2.59,0,0,0,3.5,1.8A5.89,5.89,0,0,0,10,10.58c.25-.73-.75-1-1.14-.49C7.54,11.86,6.33,14,6.78,16.29a3.81,3.81,0,0,0,3.92,3.19c1.81-.15,2.79-1.83,3-3.48a6.78,6.78,0,0,0-1.51-5.33.63.63,0,0,0-1.07.44,3.58,3.58,0,0,0,2.18,3.48,4.91,4.91,0,0,0,5-.73c1.16-1,2.12-2.78.73-4A5,5,0,0,0,16.6,9a19.13,19.13,0,0,0-3.1-.36.63.63,0,0,0,0,1.25,11.14,11.14,0,0,0,6.14-1.32c1.41-.74,3.78-2.45,2.17-4.22-1.35-1.48-4.4-1.51-6.21-1.18A3,3,0,0,0,13.48,4.6c-.49.86-.55,1.88-1.24,2.64-.45.5.15,1.41.76,1,1.7-1.18,2.94-2.82,2.57-5A4,4,0,0,0,11.5,0C7.94.19,8.42,5.81,9.66,8a.62.62,0,0,0,1.07-.63,6.72,6.72,0,0,1-.67-3.25c0-.82,0-2.25.84-2.72C12.18.66,14,2,14.3,3.21c.46,1.7-.63,3-1.93,3.93l.76,1A4.49,4.49,0,0,0,14,6.7,5.59,5.59,0,0,1,14.74,5c.94-1.09,3.82-.74,5-.36.53.17,1.4.46,1.26,1.23-.07.36-.59.78-.87,1a11.22,11.22,0,0,1-2.05,1.1,9.67,9.67,0,0,1-4.63.72V9.89a17.3,17.3,0,0,1,3.57.47c.57.13,1.28.32,1.37,1s-.63,1.36-1.14,1.72a3.66,3.66,0,0,1-3.46.43,2.33,2.33,0,0,1-1.5-2.37l-1.06.44a5.33,5.33,0,0,1,1.18,3.59c0,1.29-.44,3.1-2,3.11S7.9,16.61,7.94,15.14a7.9,7.9,0,0,1,2-4.41l-1.14-.49a5,5,0,0,1-2.27,2.82c-1.35.69-2.9.07-2.35-1.65.67-2.13,3.29-3.2,5.37-2.85V7.35a11.09,11.09,0,0,1-5.81-.53C1.94,6.25.1,4.22,2.12,2.61c1.61-1.29,3.81-.28,5,1.08A19.48,19.48,0,0,1,9.66,8c.36.72,1.43.09,1.07-.63Z" fill="currentColor"/>
        <path d="M27.45,23.54a6.77,6.77,0,0,1,.21-4.71c.51-1.45,1.11-2.87,1.67-4.3,1.15-2.89,3-5.46,4.58-8.14a.63.63,0,0,0-1.08-.63C31.16,8.63,29.19,11.37,28,14.5s-2.93,6.1-1.78,9.37c.27.75,1.47.43,1.21-.33Z" fill="currentColor"/>
        <path d="M32.74,6.07a73.27,73.27,0,0,1,.52,12.21c-.15,3.48.08,8.23-3.66,10-.73.33-.1,1.41.63,1.08,3.69-1.7,3.95-5.76,4.18-9.29A73.1,73.1,0,0,0,34,6.07c-.09-.78-1.34-.79-1.25,0Z" fill="currentColor"/>
      </g>
    </g>
  </g>
</svg>