<?xml version="1.0" encoding="UTF-8" standalone="yes"?>
<svg xmlns="http://www.w3.org/2000/svg" viewBox="0 0 70.03 40.86">
  <g id="Layer_2" data-name="Layer 2">
    <g id="baby-cat-head">
      <g id="baby-cat-head-2">
        <g id="mask">
          <path d="M5.1,40.26c2.48-2.16,4.85-4.56,7.79-6C19.4,31,33.67,27.09,40.54,25.08c7.21-2.12,28.68-7.37,28.68-7.37a12.06,12.06,0,0,0-2.57-9.49A15.66,15.66,0,0,0,58.85,4a25.65,25.65,0,0,0-10,0l-.25,0a16.1,16.1,0,0,0-5-2.68A16.92,16.92,0,0,0,26.1,6.22c-.25.28-.49.58-.71.88H25A17.77,17.77,0,0,0,16,9.85a13.57,13.57,0,0,0-4,4.2l-.14,0a16,16,0,0,0-8.19,6.47,16.59,16.59,0,0,0-2.3,4.73,22.12,22.12,0,0,0-.57,3.63,21.17,21.17,0,0,0-.14,3.56C.86,35.19,3,38.52,5.1,40.26" fill="currentColor"/>
          <path d="M5.54,40.7c2.56-2.25,5-4.66,8.11-6.15a68.78,68.78,0,0,1,7-2.78c5.26-1.83,10.62-3.38,16-4.92,8.21-2.37,16.46-4.5,24.75-6.57l8-2a.61.61,0,0,0,.44-.44,12.61,12.61,0,0,0-1.83-9C66.06,6,62.52,4.28,59.21,3.43a20.62,20.62,0,0,0-5.81-.54c-1,0-1.92.12-2.88.23-.41.06-.83.11-1.24.18a2.16,2.16,0,0,1-.69.11c-.07,0-.06-.17-.2-.28A15.63,15.63,0,0,0,38.46,0a18,18,0,0,0-9.35,2.81,11.7,11.7,0,0,0-3.7,3.25c-.2.35-.11.32-.32.41a5.62,5.62,0,0,1-1.23.09A24.34,24.34,0,0,0,21.3,7a15.09,15.09,0,0,0-8.91,5.4c-.18.23-.53.92-.68,1.05a4.13,4.13,0,0,1-.75.3,14,14,0,0,0-2.42,1.2,17.44,17.44,0,0,0-4,3.48,19.68,19.68,0,0,0-3.15,5.06,20.86,20.86,0,0,0-1.3,6.78A12.58,12.58,0,0,0,4.66,40.7c.61.53,1.49-.35.88-.88a11.41,11.41,0,0,1-4.27-9.13A23,23,0,0,1,2.09,25a16.92,16.92,0,0,1,2.55-4.8,16.56,16.56,0,0,1,3.7-3.68,13.58,13.58,0,0,1,2-1.22,15.25,15.25,0,0,0,1.92-.74c.54-.38.91-1.28,1.33-1.79a13.33,13.33,0,0,1,6.43-4.22,21.64,21.64,0,0,1,5-.85c1.14-.07,1.72-1.37,2.52-2.12a16.4,16.4,0,0,1,8.15-4.08,15.53,15.53,0,0,1,9.41,1.11,16.17,16.17,0,0,1,2.14,1.22c.51.34.86.75,1.47.78A14.1,14.1,0,0,0,51,4.32c1-.11,2.07-.19,3.11-.2A17,17,0,0,1,65.33,7.81a10.73,10.73,0,0,1,3.28,9.73l.44-.44C53,21.05,36.74,25,21,30.34a73.88,73.88,0,0,0-7.77,3c-3.31,1.56-5.89,4.08-8.6,6.46-.61.53.28,1.41.88.88Z"/>
        </g>
        <path d="M45.52,17.74a3.57,3.57,0,0,1-3.34-.28,6.33,6.33,0,0,1-2.26-2.55c-.48-.88-.84-2.19.12-2.9a4.16,4.16,0,0,1,2.85-.53,4.12,4.12,0,0,1,3,1.49c.46.65,1.55,0,1.08-.63a5.23,5.23,0,0,0-3.51-2,5.93,5.93,0,0,0-3.93.53c-3,1.81-.48,6,1.59,7.45a4.94,4.94,0,0,0,5,.54.62.62,0,0,0,.23-.85.64.64,0,0,0-.86-.23Z"/>
        <path d="M53.6,19.17c1.51-.25,2-2.28,2-3.58A14.47,14.47,0,0,0,54,9.88a17.59,17.59,0,0,0-9-8.63A17.32,17.32,0,0,0,23,10,17.71,17.71,0,0,0,23,24.45c.33.73,1.41.1,1.08-.63A15.87,15.87,0,0,1,50.84,7.14a16.37,16.37,0,0,1,3,5.57,11.3,11.3,0,0,1,.56,2.88c0,.75-.22,2.23-1.11,2.37s-.45,1.34.34,1.21Z"/>
        <path d="M49,4.59c5-.82,10.21-.72,14.65,2a9.87,9.87,0,0,1,4.25,4.86,11.19,11.19,0,0,1,.73,6.1c-.15.79,1.06,1.13,1.21.33a12,12,0,0,0-5-12C60,2.62,54.17,2.48,48.65,3.39c-.79.13-.45,1.33.33,1.2Z"/>
        <path d="M55.56,10.47a7.73,7.73,0,0,1,6.61.4A4.74,4.74,0,0,1,64,13a2.7,2.7,0,0,1-.21,2.77c-.54.6.35,1.48.88.88,1.81-2.05.5-5-1.4-6.49-2.31-1.76-5.38-1.7-8-.85-.76.25-.43,1.46.34,1.21Z"/>
        <path d="M25,6.47c-5.24.3-10.27,2.24-13.27,6.75-3.44,5.15-2,11.2-.38,16.72a.63.63,0,0,0,1.21-.34c-1.51-5.07-3-10.64.06-15.46C15.36,9.84,20.14,8,25,7.72c.8,0,.81-1.29,0-1.25Z"/>
        <path d="M11.68,13.47A17.51,17.51,0,0,0,.7,25.33a27.83,27.83,0,0,0-.62,4.46A12.09,12.09,0,0,0,.3,34,14.16,14.16,0,0,0,4.66,40.7c.61.52,1.49-.36.88-.89a13.13,13.13,0,0,1-4-5.93c-.74-2.48-.28-5.76.35-8.22a16.2,16.2,0,0,1,10.1-11c.76-.25.44-1.45-.33-1.21Z"/>
      </g>
    </g>
  </g>
</svg>