<?xml version="1.0" encoding="UTF-8" standalone="yes"?>
<svg xmlns="http://www.w3.org/2000/svg" viewBox="0 0 159.89 93.5">
  <g id="Layer_2" data-name="Layer 2">
    <g id="baby-cat-ears">
      <g id="baby-cat-ears-1">
        <g id="mask">
          <path d="M26.24,81.25A47,47,0,0,1,24,70.1l.12.7a89,89,0,0,1-.91-24.07,94.59,94.59,0,0,1,9-31l-.72,1.64c.6-1.17,1.23-2.32,1.88-3.46l-.67.32c-7.7,6.1-15.14,12.68-21,20.56S1.47,52,.72,61.76a81.89,81.89,0,0,0,0,9.53l.87,21.59A59.83,59.83,0,0,0,25.72,81.62Z" fill="currentColor"/>
          <path d="M26.84,81.08a48.49,48.49,0,0,1-2.26-11l-1.22.17.12.69c.14.79,1.34.46,1.2-.33a90,90,0,0,1,8-54.59l-1.08-.63-.72,1.64c-.32.72.7,1.36,1.08.63.6-1.16,1.23-2.32,1.88-3.46a.63.63,0,0,0-.85-.85,11.17,11.17,0,0,0-2.18,1.51c-1.26,1-2.51,2-3.74,3.09-2.24,1.89-4.44,3.85-6.55,5.89A82.57,82.57,0,0,0,9.11,37.27,56,56,0,0,0,1.85,52.41C.09,58.3-.16,64.23.08,70.34Q.51,81.6,1,92.88a.63.63,0,0,0,.79.6A61.37,61.37,0,0,0,15.2,88.87a75.89,75.89,0,0,0,11.35-7.08c.65-.47,0-1.55-.63-1.08A76.41,76.41,0,0,1,15,87.6,60.31,60.31,0,0,1,1.44,92.28l.8.6L1.46,73.74c-.25-6.16-.54-12.27.88-18.33,2.64-11.27,9.45-21,17.5-29.12,2.23-2.24,4.56-4.38,7-6.44q1.83-1.58,3.72-3.11a15.85,15.85,0,0,1,3.12-2.29l-.86-.86c-.65,1.14-1.28,2.3-1.88,3.46l1.08.63L32.69,16c.31-.72-.73-1.36-1.08-.63A91.4,91.4,0,0,0,23.48,71l1.2-.33-.12-.69c-.12-.69-1.28-.54-1.23.16a49.62,49.62,0,0,0,2.31,11.31C25.88,82.18,27.09,81.85,26.84,81.08Z"/>
          <path d="M159.28,37.15c-6.19,4.58-13.63,7.05-20.94,9.46-10.27,3.37-20.55,6.76-31.07,9.24l-.6-.07A66.82,66.82,0,0,1,108.58,36a37.69,37.69,0,0,1,4.8-11.63,52.69,52.69,0,0,1,8.14-8.95C127.49,9.76,133.6,4,141.05.61Z" fill="currentColor"/>
          <path d="M159,36.61C151.58,42,142.62,44.55,134,47.36c-4.6,1.51-9.21,3-13.85,4.37q-3.47,1-7,2c-1.24.33-2.49.66-3.74,1a7.92,7.92,0,0,1-2.79.48l.63.62c-.47-9.11.63-19,4.51-27.34A35.74,35.74,0,0,1,119.68,18c3.08-3,6.22-5.95,9.49-8.73a54.7,54.7,0,0,1,12.2-8.12l-.86-.22,16,32,2.27,4.55c.36.72,1.44.08,1.08-.63l-16-32L141.59.3a.64.64,0,0,0-.85-.23c-8.07,3.77-14.6,10-21,16.11a40.48,40.48,0,0,0-8.47,10.46,47.69,47.69,0,0,0-4.14,12.87,67.79,67.79,0,0,0-1.11,16.27.65.65,0,0,0,.62.63,6,6,0,0,0,2.18-.29q1.88-.46,3.75-1c2.49-.66,5-1.36,7.45-2.09,4.8-1.41,9.56-3,14.31-4.5,8.68-2.84,17.77-5.42,25.24-10.88C160.24,37.22,159.62,36.14,159,36.61Z"/>
        </g>
        <path d="M32.2,13.79C23.26,20.88,14.6,28.66,8.4,38.34a55.24,55.24,0,0,0-6.9,15.3C0,59.3-.14,65,.09,70.81L1,92.88a.63.63,0,0,0,.79.6A61.22,61.22,0,0,0,26.16,82.06c.64-.49-.25-1.37-.88-.88A60.09,60.09,0,0,1,1.44,92.28l.8.6L1.47,74C1.23,68,.9,62,2.2,56,4.61,45,11,35.4,18.77,27.38A143.89,143.89,0,0,1,33.08,14.67c.63-.5-.26-1.38-.88-.88Z"/>
        <path d="M159,36.61C151.58,42,142.62,44.55,134,47.36c-4.6,1.51-9.21,3-13.85,4.37q-3.47,1-7,2c-1.24.33-2.49.66-3.74,1a7.92,7.92,0,0,1-2.79.48l.63.62c-.47-9.11.63-19,4.51-27.34A35.74,35.74,0,0,1,119.68,18c3.08-3,6.22-5.95,9.49-8.73a54.7,54.7,0,0,1,12.2-8.12c.72-.34.09-1.42-.63-1.08-8.07,3.77-14.6,10-21,16.11a40.48,40.48,0,0,0-8.47,10.46,47.69,47.69,0,0,0-4.14,12.87,67.79,67.79,0,0,0-1.11,16.27.65.65,0,0,0,.62.63,6,6,0,0,0,2.18-.29q1.88-.46,3.75-1c2.49-.66,5-1.36,7.45-2.09,4.8-1.41,9.56-3,14.31-4.5,8.68-2.84,17.77-5.42,25.24-10.88.64-.47,0-1.55-.64-1.08Z"/>
      </g>
    </g>
  </g>
</svg>