<svg width="136" height="55" viewBox="0 0 136 55" fill="none" xmlns="http://www.w3.org/2000/svg">
<path d="M9.6479 51H35.7486V46.2188C35.7486 44.1053 34.8925 42.0784 33.3686 40.584C31.8447 39.0896 29.7778 38.25 27.6226 38.25H24.3722C23.9412 38.25 23.5278 38.0821 23.223 37.7832C22.9183 37.4843 22.747 37.0789 22.747 36.6562C22.747 36.2336 22.9183 35.8282 23.223 35.5293C23.5278 35.2304 23.9412 35.0625 24.3722 35.0625H27.6226C30.6398 35.0625 33.5335 36.2379 35.667 38.3301C37.8005 40.4223 38.999 43.2599 38.999 46.2188V51H39.8116C41.3458 51 42.737 50.3912 43.7446 49.4062H43.8746V49.2756C44.8505 48.2639 45.3917 46.9228 45.3861 45.5303V21.2734C50.6192 21.0694 53.7494 15.3765 50.954 10.9522L49.3223 8.37037C48.7046 7.39204 47.8424 6.58458 46.8174 6.02453C45.7924 5.46448 44.6385 5.17039 43.4651 5.17013H38.8008V3.14288C38.8008 2.73015 38.7179 2.32146 38.5568 1.94015C38.3957 1.55884 38.1597 1.21237 37.8621 0.920526C37.5645 0.628684 37.2112 0.397182 36.8223 0.239237C36.4335 0.0812932 36.0167 0 35.5959 0C34.5522 0.000418503 33.5189 0.202416 32.5548 0.59446C31.5908 0.986503 30.7149 1.56092 29.9773 2.2849C29.2396 3.00888 28.6546 3.86826 28.2556 4.81396C27.8566 5.75967 27.6515 6.77318 27.6519 7.79663V18.8126C23.4979 19.2143 20.3612 21.1395 18.0567 23.8553C16.6265 25.5382 15.5246 27.5145 14.6763 29.5864C13.9384 31.0526 13.4216 32.6432 13.1681 34.3198L13.1258 34.5079C12.2287 38.2755 11.9134 42.024 11.8159 44.8099C11.7769 46.002 11.7769 47.0284 11.7899 47.8125H9.6479C8.39913 47.8126 7.17755 47.4548 6.13338 46.7831C5.08922 46.1114 4.268 45.1551 3.77071 44.0318C3.27342 42.9085 3.12175 41.6671 3.33434 40.4604C3.54694 39.2536 4.11453 38.1341 4.96732 37.2396L7.95769 34.0935C10.0179 31.9254 11.14 29.058 11.0879 26.0949C11.0358 23.1318 9.81341 20.3041 7.67816 18.207L4.74304 15.3287C4.59312 15.1765 4.41379 15.0551 4.21551 14.9715C4.01723 14.888 3.80397 14.844 3.58818 14.8422C3.37238 14.8404 3.15838 14.8807 2.95865 14.9608C2.75892 15.041 2.57746 15.1593 2.42487 15.3089C2.27227 15.4586 2.15159 15.6365 2.06988 15.8324C1.98816 16.0283 1.94704 16.2381 1.94892 16.4497C1.95079 16.6614 1.99562 16.8705 2.0808 17.0649C2.16597 17.2594 2.28979 17.4352 2.44501 17.5822L5.38012 20.4606C6.92215 21.9723 7.8051 24.0123 7.8427 26.1502C7.8803 28.288 7.06961 30.3567 5.58165 31.9196L2.59128 35.0657C1.3097 36.4154 0.45757 38.1024 0.139352 39.9201C-0.178866 41.7377 0.0506593 43.6069 0.799788 45.2985C1.54892 46.99 2.78509 48.4305 4.35676 49.4433C5.92843 50.456 7.76729 50.997 9.6479 51Z" fill="black"/>
<path d="M66.1906 8.5109H60.9306V7.3309H78.4706V8.5109H73.1906V21.3309H66.1906V8.5109ZM80.4084 7.3309H86.2484L92.4484 21.3309H84.8884L82.7884 16.6909H78.3884L76.5884 21.3309H75.1284L80.4084 7.3309ZM82.2284 15.4709L80.4084 11.4109L78.8284 15.4709H82.2284ZM94.4186 12.0109V21.3309H93.2386V7.3309H99.0786L101.999 13.1709L104.319 7.3309H110.719V21.3309H104.319V10.8309L100.239 21.3309H98.4986L94.4186 12.0109ZM116.658 7.3309H122.498L128.698 21.3309H121.138L119.038 16.6909H114.638L112.838 21.3309H111.378L116.658 7.3309ZM118.478 15.4709L116.658 11.4109L115.078 15.4709H118.478ZM61.0706 36.3309H73.7706C74.944 36.3309 75.8906 36.6709 76.6106 37.3509C77.3306 38.0176 77.6906 38.9242 77.6906 40.0709C77.6906 40.7509 77.524 41.3842 77.1906 41.9709C76.8573 42.5576 76.3973 43.0242 75.8106 43.3709C75.224 43.7176 74.5573 43.8909 73.8106 43.8909L67.7106 43.9109V50.3309H61.0706V36.3309ZM68.4106 42.7509C68.8906 42.7509 69.3306 42.6376 69.7306 42.4109C70.144 42.1709 70.464 41.8509 70.6906 41.4509C70.9306 41.0376 71.0506 40.5976 71.0506 40.1309C71.0506 39.6509 70.9306 39.2109 70.6906 38.8109C70.464 38.3976 70.144 38.0709 69.7306 37.8309C69.3306 37.5909 68.8906 37.4709 68.4106 37.4709H67.7106V42.7509H68.4106ZM78.6683 36.3309H93.2083V37.5109H85.7083V42.6909H89.3883V43.8909H85.7083V49.1309H93.2083V50.3309H78.6683V36.3309ZM99.4719 37.5109H94.2119V36.3309H111.752V37.5109H106.472V50.3309H99.4719V37.5109ZM122.002 41.3509C123.588 41.7776 124.775 42.3442 125.562 43.0509C126.348 43.7442 126.742 44.6509 126.742 45.7709C126.742 46.6642 126.462 47.4642 125.902 48.1709C125.342 48.8776 124.515 49.4309 123.422 49.8309C122.342 50.2309 121.028 50.4309 119.482 50.4309C117.655 50.4309 116.042 50.1976 114.642 49.7309C113.255 49.2509 112.168 48.6709 111.382 47.9909L112.042 47.0909C112.735 47.6376 113.608 48.1042 114.662 48.4909C115.715 48.8776 116.848 49.0709 118.062 49.0709C118.848 49.0709 119.442 48.9576 119.842 48.7309C120.255 48.5042 120.462 48.1842 120.462 47.7709C120.462 47.0509 119.748 46.4909 118.322 46.0909L115.722 45.3309C114.308 44.9042 113.215 44.3109 112.442 43.5509C111.682 42.7909 111.302 41.8909 111.302 40.8509C111.302 39.9842 111.575 39.1976 112.122 38.4909C112.668 37.7842 113.462 37.2309 114.502 36.8309C115.555 36.4176 116.815 36.2109 118.282 36.2109C119.682 36.2109 120.968 36.3709 122.142 36.6909C123.328 37.0109 124.295 37.3976 125.042 37.8509L124.382 38.7709C123.755 38.4109 123.002 38.1042 122.122 37.8509C121.255 37.5976 120.342 37.4709 119.382 37.4709C118.542 37.4709 117.895 37.6042 117.442 37.8709C117.002 38.1242 116.782 38.4776 116.782 38.9309C116.782 39.2776 116.948 39.5842 117.282 39.8509C117.615 40.1042 118.248 40.3576 119.182 40.6109L122.002 41.3509Z" fill="black"/>
</svg>
