<svg xmlns="http://www.w3.org/2000/svg" viewBox="0 0 34.76 51.28"><defs><style>.cls-1{fill:#fff;}</style></defs><g id="Layer_2" data-name="Layer 2"><g id="baby-cat-tail-3-patterns"><g id="tail-3-pattern-4-mask"><path class="cls-1" d="M2.7,18.14c5-3.6,9.82-8.08,11.73-14l.23-.24A16.59,16.59,0,0,1,17,15.15a29.26,29.26,0,0,0,5.21-6.34,9.87,9.87,0,0,0,1-7.93c3.5,5.13,7,10.32,9.13,16.17s2.62,12.5.07,18.16A22.62,22.62,0,0,1,21.8,45.76l1.77.45A48.91,48.91,0,0,1,11.34,51a20.71,20.71,0,0,0,3.43-6.53A20.19,20.19,0,0,1,5.34,44a34.79,34.79,0,0,0,8.1-12,16,16,0,0,0,1.38-7.82A47.19,47.19,0,0,1,.62,29.77c3.66-4,7.71-7.91,9.07-13.14C7.72,17.18,4.44,17.06,2.7,18.14Z" transform="translate(0 -0.29)"/><path class="cls-1" d="M3,18.68A42.74,42.74,0,0,0,10.56,12a24.81,24.81,0,0,0,2.82-3.94,20.48,20.48,0,0,0,1-2.1,5.83,5.83,0,0,1,.68-1.59l-1-.13A16.24,16.24,0,0,1,16.39,15c-.07.58.57,1.1,1.05.61C21.31,11.7,25.77,6.65,23.81.72l-1.14.48c5,7.27,10.26,15,10.79,24.13a19.92,19.92,0,0,1-3,12.13,23.34,23.34,0,0,1-9,7.76.63.63,0,0,0,.15,1.14l1.77.46-.15-1.15a49.59,49.59,0,0,1-12.08,4.68l.61,1a20.2,20.2,0,0,0,3.59-6.8c.18-.49-.34-.85-.76-.77a20.13,20.13,0,0,1-9.1-.39l.27,1a35.6,35.6,0,0,0,6.8-9.1c1.78-3.41,3.26-7.25,2.87-11.16a.63.63,0,0,0-.94-.54A47.5,47.5,0,0,1,.45,29.16l.61,1.05c3.7-4,7.74-8,9.24-13.41A.63.63,0,0,0,9.53,16c-2.35.6-5,.35-7.14,1.57A.63.63,0,0,0,3,18.68c2-1.15,4.61-.88,6.84-1.45l-.77-.77c-1.43,5.2-5.37,9-8.91,12.87a.62.62,0,0,0,.6,1,48.9,48.9,0,0,0,14.36-5.61l-.94-.54c.38,3.83-1.11,7.58-2.89,10.9A34.46,34.46,0,0,1,4.9,43.59a.63.63,0,0,0,.27,1,21.94,21.94,0,0,0,9.77.39l-.77-.77a18.82,18.82,0,0,1-3.28,6.25.64.64,0,0,0,.61,1.05,50.56,50.56,0,0,0,12.38-4.81.63.63,0,0,0-.15-1.14L22,45.15l.15,1.15c5.71-2.94,10.47-7.81,12-14.17,1.71-7-.29-14.31-3.52-20.58a105.61,105.61,0,0,0-6.87-11c-.37-.55-1.37-.23-1.14.48,1.81,5.47-2.5,10.09-6,13.66l1,.61a17.58,17.58,0,0,0-2.4-11.7.63.63,0,0,0-1-.13c-.79.85-1,2.24-1.54,3.26A23,23,0,0,1,9.81,11,41.32,41.32,0,0,1,2.39,17.6C1.74,18.07,2.36,19.15,3,18.68Z" transform="translate(0 -0.29)"/></g></g></g></svg>