<svg xmlns="http://www.w3.org/2000/svg" viewBox="0 0 54.31 46.26"><defs><style>.cls-1{fill:#fff;}</style></defs><g id="Layer_2" data-name="Layer 2"><g id="baby-cat-tail-3-patterns"><g id="tail-3-pattern-3-mask"><path class="cls-1" d="M36.16,18.74a17.32,17.32,0,0,0,0,12.36,6.42,6.42,0,0,0,2.06-5.7C38,24,39.7,22.74,39.6,21.28s-2.13-3.21-3.44-2.54"/><path class="cls-1" d="M35.56,18.57a18,18,0,0,0,0,12.69.64.64,0,0,0,1,.28,7.7,7.7,0,0,0,2.26-4.33c.09-.73-.07-1.42,0-2.13a5.75,5.75,0,0,1,.91-2,3.14,3.14,0,0,0-.41-3.74,3,3,0,0,0-3.49-1.12c-.74.33-.1,1.41.63,1.08.9-.4,2,.79,2.35,1.5.48,1.07-.46,2.06-.88,3a3.2,3.2,0,0,0-.35,1.55,9,9,0,0,1,0,1.72,6.37,6.37,0,0,1-1.92,3.61l1.05.28a16.93,16.93,0,0,1,0-12c.28-.76-.93-1.08-1.21-.34Z"/><path class="cls-1" d="M41.46,18.35c-.53,3.46-.62,7.32-1.15,10.78l2.52-2.95A12.35,12.35,0,0,0,45,23a4.15,4.15,0,0,0-.16-3.76,2.54,2.54,0,0,0-3.41-.85"/><path class="cls-1" d="M40.86,18.18c-.54,3.58-.62,7.21-1.15,10.78-.08.55.59,1.14,1,.61,1.12-1.31,2.28-2.6,3.36-3.95A7.82,7.82,0,0,0,46,21.55,3.88,3.88,0,0,0,44.56,18a3.06,3.06,0,0,0-3.41-.19c-.67.44,0,1.52.63,1.08a1.89,1.89,0,0,1,2.39.42,3.22,3.22,0,0,1,.4,3.08,9.41,9.41,0,0,1-1.94,3.07l-2.76,3.23,1,.61c.54-3.58.62-7.21,1.15-10.78.12-.79-1.08-1.13-1.2-.34Z"/><path class="cls-1" d="M10.8,30.43a15.26,15.26,0,0,1,4.52-9.36,23,23,0,0,1,0,8.07,6.48,6.48,0,0,1-.56,2.22,2.11,2.11,0,0,1-1.82,1.2c-.77,0-2.34-1.4-2.1-2.13"/><path class="cls-1" d="M11.43,30.43a14.74,14.74,0,0,1,4.33-8.92l-1-.27a22.61,22.61,0,0,1-.14,8.4c-.12.81-.58,2.52-1.74,2.27a2.17,2.17,0,0,1-.93-.6c-.12-.12-.56-.51-.5-.71.19-.78-1-1.12-1.21-.34-.26,1.09.85,2.11,1.7,2.59a2.43,2.43,0,0,0,3.32-1.11,6.14,6.14,0,0,0,.65-2.31c.12-.93.23-1.87.31-2.8a18.37,18.37,0,0,0-.26-5.73.62.62,0,0,0-1-.27,16.06,16.06,0,0,0-4.7,9.8c-.09.8,1.16.79,1.25,0Z"/><path class="cls-1" d="M17.78,21.69c-.21,3.18-.15,6.46,0,9.64a1.27,1.27,0,0,0,.23.84c.5.52,1.33-.12,1.74-.71a15.21,15.21,0,0,0,2.16-3.9,5.33,5.33,0,0,0-.28-4.32,3.29,3.29,0,0,0-3.81-1.55"/><path class="cls-1" d="M17.15,21.69C17,23.9,17,26.11,17,28.32c0,1.08,0,2.17.09,3.24.07.85.66,1.59,1.59,1.39a3.42,3.42,0,0,0,1.9-1.71,15.66,15.66,0,0,0,1.53-2.66,6.37,6.37,0,0,0,.06-5.51,4,4,0,0,0-4.6-2c-.75.26-.43,1.47.33,1.21A2.67,2.67,0,0,1,21,23.49a4.9,4.9,0,0,1,.14,4.26,11.78,11.78,0,0,1-1.09,2.08,5.74,5.74,0,0,1-1.37,1.79c-.29.18-.3.1-.32-.21s0-.85,0-1.28q0-1.3-.06-2.61c0-1.95,0-3.89.13-5.83.05-.81-1.2-.8-1.25,0Z"/><path class="cls-1" d="M23.55,11.35a43,43,0,0,0,4.64-4c.48.44.27,2,.26,2.65l0,9.35C25.31,18.27,22.4,14.44,23.55,11.35Z"/><path class="cls-1" d="M23.87,11.89a45.12,45.12,0,0,0,4.76-4.08h-.88c.31.34.12,1.34.1,1.75-.05,1,0,2,0,3l0,6.83.79-.61c-2.7-1-5.49-4.22-4.43-7.23.26-.76-.95-1.09-1.21-.33-1.29,3.69,2,7.57,5.31,8.77a.63.63,0,0,0,.79-.6l0-7.55c0-.94,0-1.88.05-2.82a2.84,2.84,0,0,0-.49-2.07.63.63,0,0,0-.88,0,43.83,43.83,0,0,1-4.51,3.89C22.6,11.29,23.23,12.38,23.87,11.89Z"/><path class="cls-1" d="M33.12.63A23.59,23.59,0,0,1,29.4,6.08a29.14,29.14,0,0,0,2.87,9.08c2.35-4,3.18-9.31,1.43-13.58-.07-.17-.41-.9-.58-.95s.18.31.32.42"/><path class="cls-1" d="M32.58.32A22.14,22.14,0,0,1,30.4,3.89C30,4.46,29.49,5,29,5.55s-.21,1.13-.11,1.75a33.12,33.12,0,0,0,2.8,8.18.63.63,0,0,0,1.08,0,17.88,17.88,0,0,0,2.45-8.75,14,14,0,0,0-.61-4.36C34.42,1.63,34-.14,32.91,0a.63.63,0,0,0-.44.77,1.68,1.68,0,0,0,.53.68c.61.51,1.5-.37.88-.89-.11-.09-.32-.43-.2-.12l-.44.76h0l-.48-.07c.18.12.37.77.45,1a13,13,0,0,1,.5,1.75A14.21,14.21,0,0,1,34,7.66a16.7,16.7,0,0,1-2.25,7.18h1.08A28.81,28.81,0,0,1,30,6.08l-.19.45A25,25,0,0,0,33.66,1C34,.23,32.94-.4,32.58.32Z"/><path class="cls-1" d="M50.39,7.36c-.75-1.58-1.59-3.12-2.49-4.63a10.32,10.32,0,0,0-2.1,5.11c1.4.09,3.67.65,4.51-.48"/><path class="cls-1" d="M50.93,7.05c-.75-1.59-1.6-3.13-2.49-4.64a.64.64,0,0,0-1.08,0,11,11,0,0,0-2.19,5.43c0,.35.32.6.63.62,1.64.12,3.86.76,5.05-.78a.64.64,0,0,0-.23-.86.64.64,0,0,0-.85.23c.07-.09-.08.06-.11.09s.07,0,0,0l-.12.07-.11,0-.25.08-.27.06h-.18a4,4,0,0,1-.6,0c-.78,0-1.56-.16-2.33-.22l.62.63a9.87,9.87,0,0,1,2-4.8H47.36c.89,1.51,1.74,3.05,2.49,4.64a.64.64,0,0,0,.86.22.63.63,0,0,0,.22-.85Z"/><path class="cls-1" d="M47.59,11.83c1.62,1.13,3.27,2.32,5.21,1.94-.24-.88-.51-1.76-.82-2.62s-.68-1.77-1.06-2.64C49.81,9.35,48.7,11,47.59,11.83Z"/><path class="cls-1" d="M47.27,12.37A15.82,15.82,0,0,0,49.88,14a5.27,5.27,0,0,0,3.08.42.63.63,0,0,0,.44-.77,38.42,38.42,0,0,0-1.94-5.42c-.18-.41-.7-.34-1-.12-1.25,1-2.09,2.35-3.33,3.32a.62.62,0,0,0,0,.88.64.64,0,0,0,.88,0c1.25-1,2.09-2.35,3.33-3.32l-1-.13a34.6,34.6,0,0,1,1.81,5.12l.44-.77c-1.77.32-3.37-.94-4.72-1.88a.64.64,0,0,0-.86.22A.65.65,0,0,0,47.27,12.37Z"/><path class="cls-1" d="M53.68,22.87a19.83,19.83,0,0,1-1.27,5.59c-.91-.27-2.86-1.17-3.8-1.05l-.14-.32a2.81,2.81,0,0,1,.43-3A7.28,7.28,0,0,1,53.68,22.87Z"/><path class="cls-1" d="M53.05,22.87a19.84,19.84,0,0,1-1.24,5.43l.77-.44c-.66-.2-1.29-.47-1.93-.69a5.11,5.11,0,0,0-2-.39l.54.31a2.5,2.5,0,0,1-.2-1.78,2.15,2.15,0,0,1,.5-.85c.06-.06-.09.05.06,0l.17-.11c.12-.07.25-.13.38-.19a8.26,8.26,0,0,1,.87-.32A9.64,9.64,0,0,1,52,23.54a4.32,4.32,0,0,1,.88-.11h.43c.18,0,0,0,.06,0l.15,0c.77.24,1.1-1,.33-1.2a3.81,3.81,0,0,0-1.68,0,10.71,10.71,0,0,0-1.86.44,5.53,5.53,0,0,0-1.6.78,3,3,0,0,0-1.06,2,3.5,3.5,0,0,0,.09,1.4,6.85,6.85,0,0,0,.34.85.6.6,0,0,0,.54.31A2.41,2.41,0,0,1,49,28h0l.13,0,.2,0a9.08,9.08,0,0,1,1,.31c.62.21,1.23.47,1.85.66a.63.63,0,0,0,.77-.43,21.1,21.1,0,0,0,1.29-5.76.62.62,0,0,0-.62-.62A.64.64,0,0,0,53.05,22.87Z"/><path class="cls-1" d="M51.8,29.86a20,20,0,0,1-2.31,3.61c-.85.25-2.62-3.21-2.31-4S51.33,29.11,51.8,29.86Z"/><path class="cls-1" d="M51.26,29.54A18.74,18.74,0,0,1,49,33l.28-.16c-.1,0,.18,0,.08,0s-.13,0,.08,0c-.16,0,.1.08,0,0l-.13-.07c-.1-.06.11.1,0,0l-.1-.09c-.11-.1-.2-.22-.3-.33.12.14,0-.06-.06-.09L48.73,32a7.58,7.58,0,0,1-.55-1,2.14,2.14,0,0,1-.1-.22c.06.14,0,0,0,0L48,30.63a4.16,4.16,0,0,1-.16-.5l-.06-.23s0,0,0-.07,0,0,0,0a1.15,1.15,0,0,0,0-.18v-.07s0,.18,0,.06-.09.15,0,0c-.1.15-.09.11,0,.07s0,.07-.06,0l.07,0c.08,0,0,0,0,0a.48.48,0,0,1,.18-.06l.21,0c.13,0-.15,0,0,0h.08a5.06,5.06,0,0,1,.55,0,4.93,4.93,0,0,1,.55,0l.25,0,.15,0h.08a6.9,6.9,0,0,1,1.17.29s.28.12.1,0l.2.1.06,0c.14.08,0,0,0,0s.17.24,0,0a.62.62,0,0,0,.85.23.64.64,0,0,0,.23-.86,2.12,2.12,0,0,0-1.13-.74,7.81,7.81,0,0,0-1.58-.34,6.85,6.85,0,0,0-1.5-.05,2,2,0,0,0-1.3.46,1.37,1.37,0,0,0-.25,1.31,6.25,6.25,0,0,0,.51,1.45A7.75,7.75,0,0,0,47.86,33a3.18,3.18,0,0,0,1,1,1,1,0,0,0,.94,0,2.38,2.38,0,0,0,.58-.68l.44-.6a19.39,19.39,0,0,0,1.52-2.56.64.64,0,0,0-.23-.85A.63.63,0,0,0,51.26,29.54Z"/><path class="cls-1" d="M21.6,38.36a22,22,0,0,0,2.21,7.2A25.17,25.17,0,0,0,31.26,45a31.36,31.36,0,0,0-4.6-5,6.65,6.65,0,0,0-4.89-1.87"/><path class="cls-1" d="M21,38.53a21.9,21.9,0,0,0,2,6.82,2.42,2.42,0,0,0,.4.65c.27.26.74.21,1.09.22a21.68,21.68,0,0,0,2.28,0,28.43,28.43,0,0,0,4.69-.63.63.63,0,0,0,.37-.92,25.42,25.42,0,0,0-4.08-4.53c-1.65-1.54-3.61-2.79-5.95-2.62-.8.06-.81,1.31,0,1.25,2.12-.15,3.78,1,5.25,2.43a23.58,23.58,0,0,1,3.7,4.1l.38-.92a25.16,25.16,0,0,1-7.29.54l.54.31A13,13,0,0,1,23,41.84a32.29,32.29,0,0,1-.78-3.64.62.62,0,0,0-.76-.44.65.65,0,0,0-.44.77Z"/><path class="cls-1" d="M15.53,43.51l-.12-.27a24.36,24.36,0,0,0,6.34,2c-.67-1.66-2.07-5-2.75-6.66-.23-.59-.74-1.29-1.31-1a1.12,1.12,0,0,0-.5.57,14,14,0,0,0-1.52,4.89"/><path class="cls-1" d="M16.07,43.19,16,42.92l-.86.86a25.7,25.7,0,0,0,6.49,2.12c.41.07,1-.28.77-.77-.73-1.81-1.49-3.62-2.23-5.42a5.47,5.47,0,0,0-1.41-2.52,1.26,1.26,0,0,0-1.52,0,3.66,3.66,0,0,0-1,1.56A15.23,15.23,0,0,0,15,43.05a.63.63,0,1,0,1.25,0A13.57,13.57,0,0,1,17.48,39c.12-.25.27-.5.39-.75a.12.12,0,0,1,.08-.06h0c.08,0,.18.14.23.2a4.89,4.89,0,0,1,.58,1.22c.8,2,1.62,3.92,2.42,5.88l.77-.77a24.53,24.53,0,0,1-6.2-2,.63.63,0,0,0-.85.86l.12.26a.64.64,0,0,0,.86.23.65.65,0,0,0,.22-.86Z"/><path class="cls-1" d="M4.9,43.52A29.83,29.83,0,0,1,.62,37.63c1-.94,2.41-.7,3.69-1.19A70.39,70.39,0,0,1,4.9,43.52Z"/><path class="cls-1" d="M5.34,43.07a28.92,28.92,0,0,1-4.18-5.76l-.1.76a3.09,3.09,0,0,1,1.57-.62A10.53,10.53,0,0,0,4.48,37l-.79-.6a62.18,62.18,0,0,1,.58,7.08c0,.8,1.22.8,1.25,0a62.18,62.18,0,0,0-.58-7.08.63.63,0,0,0-.79-.6,14.52,14.52,0,0,1-2.06.44,4,4,0,0,0-1.91.91.62.62,0,0,0-.1.75,30.86,30.86,0,0,0,4.37,6C5,44.55,5.88,43.67,5.34,43.07Z"/></g></g></g></svg>