<svg xmlns="http://www.w3.org/2000/svg" viewBox="0 0 49.48 58.39"><defs><style>.cls-1{fill:#fff;}</style></defs><g id="Layer_2" data-name="Layer 2"><g id="baby-cat-tail-3-patterns"><g id="tail-3-pattern-2-mask"><path class="cls-1" d="M.62,50.09c3.63,3.75,8.18,6.84,12.28,8a10,10,0,0,1-2.28-8.65l-.12-.27c9.84,4.69,18.64,1.83,27.79-2.92l-1.77-.45A22.69,22.69,0,0,0,47.14,35.21c2.54-5.66,2-12.32-.07-18.16S41.43,6,37.93.88a9.86,9.86,0,0,1-1,7.93,29.3,29.3,0,0,1-5.22,6.34A16.59,16.59,0,0,0,29.39,3.94l-.24.24c-1.91,5.88-6.7,10.36-11.72,14-1.69,1.21-3.57,2.39-5.64,2.33a4,4,0,0,1-3.67-2.73c-.35,2.81,2.11,6.47,4.92,6.8,1.06.13,2.32,0,3,.85a25.9,25.9,0,0,1-7.81,3.2,1.42,1.42,0,0,0-1.06.6,1.45,1.45,0,0,0,.23,1.24,32.57,32.57,0,0,1,3.22,9A70,70,0,0,0,3.8,36.6C2.05,40.88.39,45.32.79,49.93h0" transform="translate(0 -0.29)"/><path class="cls-1" d="M.18,50.53c3.48,3.56,7.71,6.74,12.56,8.12a.63.63,0,0,0,.61-1,9.52,9.52,0,0,1-2.23-4.83,9.32,9.32,0,0,1,0-2.53A2.11,2.11,0,0,0,11,48.82l-.86.85A24.9,24.9,0,0,0,24.4,51.88c5-.73,9.73-2.82,14.21-5.13a.63.63,0,0,0-.15-1.14l-1.77-.46.15,1.15c5.7-2.94,10.46-7.81,12-14.17,1.72-7-.29-14.31-3.52-20.58a103.86,103.86,0,0,0-6.86-11c-.38-.55-1.38-.23-1.14.48,1.8,5.47-2.5,10.09-6,13.66l1,.61a17.64,17.64,0,0,0-2.39-11.7.64.64,0,0,0-1-.13,7.45,7.45,0,0,0-1,2.21,20.89,20.89,0,0,1-1.59,2.9,28.75,28.75,0,0,1-4.83,5.5,40.05,40.05,0,0,1-5.77,4.44c-2.15,1.32-6,2.29-7-1a.62.62,0,0,0-1.22.17,7.39,7.39,0,0,0,2.21,5.68A6.12,6.12,0,0,0,12.13,25c1.1.35,2.6,0,3.46.85l.13-1a26,26,0,0,1-5.51,2.54c-1.09.35-3.33.41-3.69,1.79a2.2,2.2,0,0,0,.33,1.56c.48,1,1,1.95,1.39,3A32.94,32.94,0,0,1,10,39.62l.92-.7Q7.51,37.28,4,36a.64.64,0,0,0-.77.44C1.44,40.75-.18,45.2.16,49.93L1,49.32l-.08,0a.63.63,0,0,0-.34,1.21l.18,0A.62.62,0,0,0,1,49.35l-.09,0a.63.63,0,0,0-.33,1.21l.09,0L1,49.35.87,49.3.53,50.51l.09,0a.63.63,0,0,0,.79-.6c-.33-4.62,1.28-9,3-13.16l-.77.43Q7,38.45,10.3,40a.63.63,0,0,0,.91-.71,32.59,32.59,0,0,0-1.35-4.85c-.25-.69-.53-1.38-.83-2.06a12.48,12.48,0,0,1-1.1-2.27c-.19-1.08,1-1,1.76-1.25s1.7-.54,2.53-.87a27.9,27.9,0,0,0,4.13-2.06.63.63,0,0,0,.12-1c-1.34-1.37-3.43-.65-5-1.67a6.23,6.23,0,0,1-2.74-5.54l-1.23.16A4.72,4.72,0,0,0,12.77,21c2.79-.39,5.18-2.44,7.32-4.13a35.5,35.5,0,0,0,6.19-6.12,23.08,23.08,0,0,0,2.11-3.24c.3-.56.57-1.14.82-1.73a4.65,4.65,0,0,1,.62-1.44l-1-.13A16.3,16.3,0,0,1,31.12,15c-.08.58.56,1.1,1,.61C36,11.7,40.49,6.65,38.53.72l-1.14.48c5,7.27,10.27,15,10.79,24.13a19.85,19.85,0,0,1-3,12.13,23.31,23.31,0,0,1-9,7.76.63.63,0,0,0,.15,1.14l1.76.46L38,45.67A45.72,45.72,0,0,1,24.9,50.54,23.59,23.59,0,0,1,10.81,48.6a.63.63,0,0,0-.85.85c.15.33-.18,1.4-.18,1.87a10.64,10.64,0,0,0,2.68,7.17l.61-1c-4.64-1.33-8.68-4.4-12-7.8-.56-.58-1.44.3-.88.88Z" transform="translate(0 -0.29)"/></g></g></g></svg>