<svg xmlns="http://www.w3.org/2000/svg" viewBox="0 0 44.06 47.82"><defs><style>.cls-1{fill:#fff;}</style></defs><g id="Layer_2" data-name="Layer 2"><g id="baby-cat-tail-3-patterns"><g id="tail-3-pattern-1-mask"><path class="cls-1" d="M34.52,17.55a4.72,4.72,0,0,0,5.14,5,4.71,4.71,0,0,0,3.45-6.25,3.28,3.28,0,0,0-.81-1.17,4.41,4.41,0,0,0-2.91-.95,5.4,5.4,0,0,0-3.21.76c-.92.63-2,2-1.68,3.06"/><path class="cls-1" d="M33.9,17.55a5.33,5.33,0,0,0,2.91,5,4.72,4.72,0,0,0,5.48-.73,5.49,5.49,0,0,0,1.66-5,4.08,4.08,0,0,0-1.88-2.67,6.28,6.28,0,0,0-3.39-.63,5.44,5.44,0,0,0-3.5,1.39,3.57,3.57,0,0,0-1.28,3.22c.17.78,1.38.45,1.2-.34s.47-1.52,1-2a3.86,3.86,0,0,1,2.33-1,6,6,0,0,1,2.7.28,2.72,2.72,0,0,1,1.59,1.87,4.13,4.13,0,0,1-1,3.81,3.48,3.48,0,0,1-3.92.89,4.12,4.12,0,0,1-2.57-4.09c.07-.8-1.18-.79-1.25,0Z"/><path class="cls-1" d="M15.23,9.61c2.07.06,3.95-1.12,5.63-2.33A41.4,41.4,0,0,0,28.36.62c.41.1.9,1.74.91,2.16a18.56,18.56,0,0,1-.44,5.52,6.21,6.21,0,0,1-3.4,4.14,6.86,6.86,0,0,1-4,.1A17.42,17.42,0,0,1,15.23,9.61Z"/><path class="cls-1" d="M15.23,10.24c2.79,0,5.13-1.78,7.26-3.39a41.29,41.29,0,0,0,6.32-5.79l-.76.1c.31.14.52,1.16.58,1.51a14.79,14.79,0,0,1,0,2.9A7.86,7.86,0,0,1,26.52,11c-1.53,1.41-3.67,1.3-5.55.77a15.74,15.74,0,0,1-5.3-2.62c-.63-.49-1.52.39-.89.89,3.26,2.52,9.28,5.19,12.77,1.7A9.57,9.57,0,0,0,29.9,5.17a10.92,10.92,0,0,0-.16-3.23c-.17-.6-.43-1.58-1.06-1.86a.65.65,0,0,0-.76.09,38.29,38.29,0,0,1-5.86,5.45C20.09,7.13,17.84,9,15.23,9A.63.63,0,0,0,15.23,10.24Z"/><path class="cls-1" d="M37.71,37.3c-7.74,3.48-15.38,5-23.78,1l.13.27a9.92,9.92,0,0,0,2.28,8.65C10.77,45.66,4.38,40.52.58,35c.74-3.3,3.91-5.73,6.6-7.77A26.58,26.58,0,0,1,16.33,23a19.42,19.42,0,0,1,7.29-.82C30.33,23,36.83,30.62,37.71,37.3Z"/><path class="cls-1" d="M37.4,36.76A34.84,34.84,0,0,1,26.07,40a23.64,23.64,0,0,1-11.82-2.24.64.64,0,0,0-.86.86c.15.32-.17,1.4-.18,1.87a10.73,10.73,0,0,0,.31,2.65,11,11,0,0,0,2.38,4.52l.61-1a27.39,27.39,0,0,1-11.1-6.9c-.8-.77-1.57-1.58-2.29-2.42s-1.93-1.85-1.74-2.8c.38-1.95,2.45-3.73,3.89-4.94a28.92,28.92,0,0,1,12.34-6.18,15.09,15.09,0,0,1,7.46-.22,14,14,0,0,1,5.21,2.81,19,19,0,0,1,6.83,11.53c.12.79,1.32.46,1.21-.33a19.93,19.93,0,0,0-6.46-11.48,14.61,14.61,0,0,0-12.53-3.92A29.68,29.68,0,0,0,5.27,27.92a15.83,15.83,0,0,0-4.7,5.24c-.34.71-.82,1.57-.42,2.31a17.92,17.92,0,0,0,2.36,3c3.62,4.1,8.34,7.8,13.66,9.32a.63.63,0,0,0,.61-1,9.5,9.5,0,0,1-2.22-4.83,9.32,9.32,0,0,1,0-2.53A2,2,0,0,0,14.47,38l-.85.85a24.79,24.79,0,0,0,12.45,2.41,36.8,36.8,0,0,0,12-3.38C38.76,37.52,38.13,36.44,37.4,36.76Z"/></g></g></g></svg>