<svg xmlns="http://www.w3.org/2000/svg" viewBox="0 0 115.11 44.84"><defs><style>.cls-1{fill:#fff;}</style></defs><g id="Layer_2" data-name="Layer 2"><g id="baby-cat-ears-1-patterns"><g id="ears-1-pattern-1-mask"><path class="cls-1" d="M112.71,1.07a15.7,15.7,0,0,0-6.9,1.77c-.32.17-.68.4-.72.77-.08.63.78.91,1.41.86a6.26,6.26,0,0,0,5-3.36,11,11,0,0,0-5.72,2.54A7,7,0,0,0,112.3,1.3a6.64,6.64,0,0,0-6.94,2.33A7,7,0,0,0,112.45.85a9.25,9.25,0,0,0-6.36,2.67,8.21,8.21,0,0,0,5.74-1.89,37,37,0,0,0-5.78,2,1,1,0,0,0,1.23-.36"/><path class="cls-1" d="M112.71.45a16.46,16.46,0,0,0-4.18.63,17.12,17.12,0,0,0-2,.71,5.47,5.47,0,0,0-1.7,1,1.28,1.28,0,0,0-.22,1.57,1.76,1.76,0,0,0,1.31.75,5.58,5.58,0,0,0,3.35-.83A6.85,6.85,0,0,0,112,1.43a.64.64,0,0,0-.71-.92,11.77,11.77,0,0,0-6,2.69.63.63,0,0,0,.28,1,7.63,7.63,0,0,0,7.16-2.51.63.63,0,0,0-.28-1,7.29,7.29,0,0,0-7.65,2.62.63.63,0,0,0,.38.92A7.64,7.64,0,0,0,113,1.17a.62.62,0,0,0-.53-.94,10,10,0,0,0-6.8,2.84.63.63,0,0,0,.44,1.07,8.92,8.92,0,0,0,6.18-2.07c.5-.42,0-1.19-.61-1a39.35,39.35,0,0,0-5.93,2.08.63.63,0,0,0,0,1.08,1.62,1.62,0,0,0,2.09-.58c.45-.67-.63-1.3-1.08-.63a.33.33,0,0,1-.38.13V4.18A37.6,37.6,0,0,1,112,2.23l-.61-1a7.65,7.65,0,0,1-5.3,1.7L106.53,4a8.68,8.68,0,0,1,5.92-2.48l-.54-.94A6.35,6.35,0,0,1,105.53,3l.37.92a6,6,0,0,1,6.24-2.05l-.28-1A6.35,6.35,0,0,1,105.92,3l.28,1a10.62,10.62,0,0,1,5.45-2.38L110.94.8a5.66,5.66,0,0,1-2.32,2.38,5.53,5.53,0,0,1-1.62.59,4.06,4.06,0,0,1-.69.08c-.13,0-.51,0-.58-.16s.64-.44.77-.5a14.31,14.31,0,0,1,2-.81,15.23,15.23,0,0,1,4.18-.68.63.63,0,0,0,0-1.25Z"/><path class="cls-1" d="M113.77,2.06A9.36,9.36,0,0,0,113.4,7a13.64,13.64,0,0,0,1.07-4.31,1.37,1.37,0,0,0-.11-.8,1,1,0,0,0-1.4-.13,2.22,2.22,0,0,0-.68,1.4A7.38,7.38,0,0,0,112.6,7a14.1,14.1,0,0,0,.84-6c-.24-.32-.69.12-.8.5a9.63,9.63,0,0,0,.14,5.77,7.83,7.83,0,0,0,.8-6.63,10.51,10.51,0,0,0-1,6A11.37,11.37,0,0,0,113.43,2"/><path class="cls-1" d="M113.17,1.89a10,10,0,0,0-.37,5.26.63.63,0,0,0,1.14.15,14.48,14.48,0,0,0,1-3.74,3.35,3.35,0,0,0,0-1.91,1.41,1.41,0,0,0-1.3-.77c-1.28,0-1.84,1.24-2,2.33A8.12,8.12,0,0,0,112,7.15a.63.63,0,0,0,1.2,0,15,15,0,0,0,.86-3.85,16,16,0,0,0,0-2c0-.38,0-.73-.38-1a.88.88,0,0,0-.79-.07,1.76,1.76,0,0,0-1,1.35,11.5,11.5,0,0,0-.29,1.94,10.34,10.34,0,0,0,.53,3.82.63.63,0,0,0,1.14.14,8.47,8.47,0,0,0,.86-7.11A.63.63,0,0,0,113,.3a11.28,11.28,0,0,0-1.11,6.31.63.63,0,0,0,1.23.16A12,12,0,0,0,114.05,2a.63.63,0,0,0-1.25,0,11.22,11.22,0,0,1-.84,4.4l1.22.17a10.07,10.07,0,0,1,.94-5.67L113,.79a7.26,7.26,0,0,1-.74,6.14l1.14.15A9.18,9.18,0,0,1,112.89,4a8.3,8.3,0,0,1,.16-1.5,3.68,3.68,0,0,1,.19-.81l.05-.1s.07,0,0-.06a.8.8,0,0,1-.34-.07L112.82,1A13.84,13.84,0,0,1,112,6.82h1.2a7.16,7.16,0,0,1-.4-2.9c0-.49.12-1.69.76-1.79.26,0,.3.06.29.34a10.14,10.14,0,0,1-.15,1.35,13.26,13.26,0,0,1-.84,2.84l1.14.15a9,9,0,0,1,.37-4.59.62.62,0,0,0-.43-.77.64.64,0,0,0-.77.44Z"/><path class="cls-1" d="M6,37.55a6.3,6.3,0,0,0-2.9,1.35c-.3.24-.6.65-.4,1s.67.28,1,.16a7.16,7.16,0,0,0,3.77-2.95,8.61,8.61,0,0,0-6,3.85,12.37,12.37,0,0,0,6.2-3.76,9,9,0,0,0-7,3.39c.28.7,1.32.51,2,.16a19.62,19.62,0,0,0,4.48-3.24A8.62,8.62,0,0,0,.64,41.13a2.07,2.07,0,0,0,2.53,0A6,6,0,0,0,4.83,39"/><path class="cls-1" d="M5.82,37a7,7,0,0,0-3.09,1.43A1.73,1.73,0,0,0,2,39.7a1.14,1.14,0,0,0,1.1,1,2.87,2.87,0,0,0,1.37-.34,6.57,6.57,0,0,0,1.33-.72A8,8,0,0,0,8,37.41c.33-.51-.22-1-.71-.92A9.23,9.23,0,0,0,.92,40.63a.63.63,0,0,0,.71.91A13,13,0,0,0,8.1,37.63a.63.63,0,0,0-.44-1.07A9.65,9.65,0,0,0,.17,40.13a.65.65,0,0,0-.09.75c.68,1.46,2.59.56,3.55,0a20.72,20.72,0,0,0,3.9-3,.63.63,0,0,0-.44-1.06,9.31,9.31,0,0,0-7,4,.62.62,0,0,0,.1.75,2.61,2.61,0,0,0,3,.3,5.76,5.76,0,0,0,2.19-2.54c.39-.7-.69-1.34-1.08-.63a5.16,5.16,0,0,1-1.48,1.94,1.44,1.44,0,0,1-1.73,0l.1.76a7.93,7.93,0,0,1,5.91-3.33l-.45-1.07a18.73,18.73,0,0,1-3.11,2.43A7.1,7.1,0,0,1,2,40.31a1.61,1.61,0,0,1-.61.11.58.58,0,0,1-.14,0s0,0-.09-.14l-.1.76a8.45,8.45,0,0,1,6.6-3.2l-.44-1.07a11.93,11.93,0,0,1-5.93,3.6l.71.92A8,8,0,0,1,7.63,37.7l-.7-.92A6.55,6.55,0,0,1,3.64,39.4c-.11,0-.28.05-.38.1s-.08,0-.09,0,.15.15.07.16.25-.3.28-.33a3.81,3.81,0,0,1,.41-.29,6,6,0,0,1,2.22-.9c.79-.15.45-1.36-.33-1.2Z"/><path class="cls-1" d="M7,40.34a13.27,13.27,0,0,0-.32,3.32A4.82,4.82,0,0,0,7.19,39,12,12,0,0,0,6.84,44a13.12,13.12,0,0,0,.46-6.22A7.48,7.48,0,0,0,5.73,43c0,.58.39,1.31,1,1.2A52.39,52.39,0,0,0,8,38.81c.06-.33.08-.75-.22-.91s-.67.15-.87.45a6.78,6.78,0,0,0-1.19,4.23c0,.63.51,1.45,1.07,1.18a1,1,0,0,0,.41-.48,12.82,12.82,0,0,0,1.38-5,3,3,0,0,0-1.87,3"/><path class="cls-1" d="M6.42,40.18a14,14,0,0,0-.34,3.48A.63.63,0,0,0,7.24,44a5.51,5.51,0,0,0,.49-5.34c-.22-.52-1-.32-1.14.15a13,13,0,0,0-.36,5.41.63.63,0,0,0,1.21,0,13.93,13.93,0,0,0,.46-6.54.63.63,0,0,0-1-.28,8.22,8.22,0,0,0-1.73,4.17,5.15,5.15,0,0,0,.09,2.07c.21.64.72,1.31,1.47,1.21a.64.64,0,0,0,.6-.46c.48-1.61.89-3.25,1.21-4.9.14-.68.36-1.61-.35-2.07s-1.54.22-1.94.86a7.23,7.23,0,0,0-1.12,4.36A2.12,2.12,0,0,0,6,44.29c.72.42,1.42-.1,1.75-.75a13.55,13.55,0,0,0,1.43-5.21.62.62,0,0,0-.79-.61,3.7,3.7,0,0,0-2.32,3.62.63.63,0,0,0,1.25,0,2.44,2.44,0,0,1,1.41-2.41l-.8-.6a11.87,11.87,0,0,1-.77,3.47,8,8,0,0,1-.32.75c0,.05-.36.66-.36.67s.16,0,.15,0-.09-.07-.1-.08a1.19,1.19,0,0,1-.21-.55,5.87,5.87,0,0,1,.61-3.07c.12-.24.26-.48.4-.71a1.83,1.83,0,0,1,.21-.26l.1-.07c0,.07-.35-.08-.26-.12a2.15,2.15,0,0,1,0,.42l-.21,1c-.3,1.43-.66,2.84-1.07,4.24l.6-.46a.26.26,0,0,1-.15,0s0,0,0,0a1.08,1.08,0,0,1-.08-.11A1.42,1.42,0,0,1,6.35,43a6.53,6.53,0,0,1,.07-1.65,6.72,6.72,0,0,1,1.32-3L6.7,38a12.6,12.6,0,0,1-.47,5.88H7.44a11.22,11.22,0,0,1,.36-4.75l-1.15.15a4.26,4.26,0,0,1-.49,4.08l1.17.31a12.38,12.38,0,0,1,.3-3.15c.17-.79-1-1.12-1.21-.33Z"/></g></g></g></svg>