<svg xmlns="http://www.w3.org/2000/svg" viewBox="0 0 151.77 86.95"><defs><style>.cls-1{fill:#fff;}</style></defs><g id="Layer_2" data-name="Layer 2"><g id="baby-cat-ears-1-patterns"><g id="ears-1-pattern-3-mask"><path class="cls-1" d="M151.13,35.33a123.8,123.8,0,0,1-12.74,4.72c-10.27,3.38-20.55,6.76-31.07,9.25l-.6-.07a66.78,66.78,0,0,1,1.91-19.82,37.74,37.74,0,0,1,4.8-11.64,52.63,52.63,0,0,1,8.14-8.94c3-2.81,6-5.65,9.21-8.21,6.07,3.09,9.61,9.2,12.91,15.16s5.38,13.06,7.44,19.55c-.24-.54-.48-1.63-.72-2.16"/><path class="cls-1" d="M150.82,34.79C143.67,38,136,40.21,128.56,42.6c-3.69,1.18-7.39,2.32-11.11,3.39q-2.79.8-5.6,1.53c-1.55.41-3.53,1.27-5.13,1.08l.63.63c-.48-9.3.66-19.48,4.79-27.93,2-4.15,5.09-7.48,8.4-10.64s6.95-6.6,10.68-9.6l-.76.1c5.79,3,9.23,8.72,12.31,14.25,3.52,6.31,5.58,13.22,7.76,20.08l1.21-.33c-.29-.71-.45-1.45-.73-2.16s-1.5-.41-1.2.34.44,1.45.72,2.15,1.45.45,1.21-.33c-2.26-7.1-4.43-14.2-8.08-20.73C140.53,8.83,137,3.14,131.09.08a.64.64,0,0,0-.75.1c-3.91,3.14-7.57,6.59-11.17,10.06a37.88,37.88,0,0,0-8.3,10.82c-4.05,8.59-5.25,18.76-4.77,28.17a.64.64,0,0,0,.62.62c1.48.17,3.1-.51,4.53-.88q2.93-.75,5.83-1.58c4-1.12,7.89-2.33,11.81-3.59,7.57-2.42,15.31-4.66,22.56-7.93.73-.33.1-1.41-.63-1.08Z"/><path class="cls-1" d="M24,63.55a48.73,48.73,0,0,0,2.6,12.12c-7,5.5-16.2,8.77-24.95,10.66L.79,64.73a81.72,81.72,0,0,1,0-9.52A50.43,50.43,0,0,1,9.1,31.93a39.65,39.65,0,0,1,14.12,8.26c.16.15-1.21-.86-1-.89s1.19,1,1,.89a88.92,88.92,0,0,0,.91,24"/><path class="cls-1" d="M23.38,63.55A51.34,51.34,0,0,0,26,75.84l.29-.71c-7.22,5.56-16,8.67-24.8,10.59l.79.61L1.69,71.6c-.19-4.74-.54-9.51-.4-14.25.27-9,3.52-17.56,8.35-25.1l-.71.29a40.2,40.2,0,0,1,7.35,3.33c1.12.65,2.21,1.35,3.26,2.1.59.42,1.16.86,1.71,1.31a6.67,6.67,0,0,1,1.44,1.24l.86-.86a2.79,2.79,0,0,1-.8-.64v.63l0,0-.7.28a1.72,1.72,0,0,1,.64.59l.37-.92,0,0a.65.65,0,0,0-.46.6,91,91,0,0,0,.93,24.22c.14.79,1.34.45,1.2-.33a89.77,89.77,0,0,1-.88-23.89l-.46.6h0a.64.64,0,0,0,.37-.92A2.69,2.69,0,0,0,22.4,38.7a.63.63,0,0,0-.7.29l0,0a.62.62,0,0,0,0,.63,3.94,3.94,0,0,0,1.24,1.09.63.63,0,0,0,.86-.85A10.63,10.63,0,0,0,21,37.52,40.67,40.67,0,0,0,17.29,35a42.44,42.44,0,0,0-8-3.68.63.63,0,0,0-.71.29C3.8,39.06.51,47.51.08,56.4c-.24,4.89.14,9.82.34,14.71L1,86.33a.63.63,0,0,0,.79.6c8.91-1.94,17.81-5.1,25.1-10.72a.66.66,0,0,0,.29-.71,49.43,49.43,0,0,1-2.59-12c-.06-.8-1.31-.81-1.25,0Z"/></g></g></g></svg>