<svg xmlns="http://www.w3.org/2000/svg" viewBox="0 0 127.87 64.53"><defs><style>.cls-1{fill:#fff;}</style></defs><g id="Layer_2" data-name="Layer 2"><g id="baby-cat-ears-1-patterns"><g id="ears-1-pattern-2-mask"><path class="cls-1" d="M127.24,21.25c-6.59,2.09-13.22,4-19.95,5.63l-.6-.07A66.49,66.49,0,0,1,108.61,7a45.89,45.89,0,0,1,2-6.37,30.72,30.72,0,0,1,16.46,19.69c.12.94.14.82.12.6"/><path class="cls-1" d="M127.07,20.65c-3.52,1.11-7.06,2.19-10.62,3.2q-2.55.72-5.11,1.39c-1.42.36-3.18,1.12-4.65,1l.63.62a61.75,61.75,0,0,1,3.94-26l-.92.38a30.21,30.21,0,0,1,14.38,14.39A28.67,28.67,0,0,1,126,18.87a14.15,14.15,0,0,1,.51,1.83,1.6,1.6,0,0,0,.15.68.64.64,0,0,0,1.17-.32.76.76,0,0,0,0-.15c0-.8-1.29-.81-1.25,0a.76.76,0,0,1,0,.15l1.16-.31c0-.07-.2-1.13-.26-1.33-.16-.53-.33-1.06-.52-1.59a30.56,30.56,0,0,0-1.28-3.07,31.52,31.52,0,0,0-3.76-6A31.11,31.11,0,0,0,111,.08a.64.64,0,0,0-.92.37,62.8,62.8,0,0,0-4,26.36.65.65,0,0,0,.62.63,11.67,11.67,0,0,0,4-.76q2.81-.7,5.58-1.5c3.72-1,7.41-2.16,11.08-3.33.77-.24.44-1.45-.33-1.2Z"/><path class="cls-1" d="M23.85,54.07A59.8,59.8,0,0,1,1.63,63.91L.76,42.32C.71,41,.65,39.61.63,38.25A42,42,0,0,1,13,44.09a35.14,35.14,0,0,1,3.13,2.58C18.66,48.9,22.3,51.1,23.85,54.07Z"/><path class="cls-1" d="M23.53,53.53A60.33,60.33,0,0,1,1.47,63.31l.79.6c-.35-8.55-.83-17.1-1-25.66l-.79.61a36.62,36.62,0,0,1,13.22,6.49c1.71,1.37,3.33,2.84,5.05,4.21a17.23,17.23,0,0,1,4.58,4.82c.39.71,1.47.08,1.08-.63a17,17,0,0,0-4.48-4.83c-1.92-1.55-3.76-3.22-5.7-4.73A38.21,38.21,0,0,0,.79,37.65a.63.63,0,0,0-.79.6c.18,8.56.66,17.11,1,25.66a.64.64,0,0,0,.79.61A61.23,61.23,0,0,0,24.16,54.6C24.81,54.14,24.19,53.06,23.53,53.53Z"/></g></g></g></svg>