<?xml version="1.0" encoding="UTF-8" standalone="yes"?>
<svg xmlns="http://www.w3.org/2000/svg" viewBox="0 0 251.85 328.6">
  <defs/>
  <g data-name="Layer_2">
    <g data-name="baby-cat-body-1-patterns">
      <g data-name="body-1-pattern-12-mask">
        <path d="M164.65,134.37l-.88,5.62c-.29,1.83-.45,3.73-.88,5.53-.36,1.51-2.55,2.77-3.71,3.72q-2.09,1.71-4.26,3.3a87,87,0,0,1-17.61,10.16l.63,1.08.36-.16c.74-.33.1-1.4-.63-1.08q-11.65,5.19-23.54,9.83l.49,1.15.48-.23-.63-1.08a31.47,31.47,0,0,1-15.41,3.16c-5.11-.26-9.7-2.38-14.69-3.22-.78-.13-1.13,1-.33,1.2l.79.17c.79.17,1.12-1,.34-1.2-6-1.29-12.1-1.52-18.18-1.82l-19.07-.94.6.46c-.62-1.89-1.12-3.83-1.62-5.75-.56-2.2-.83-4.45-1.88-6.47l-7.3-14.09c-2.37-4.56-4.79-9.11-7.06-13.73a65.15,65.15,0,0,0-3.24-6,46.07,46.07,0,0,1-3.18-6.69A53.05,53.05,0,0,1,20,101l-1.23.17.12.69c.14.79,1.35.46,1.21-.33a90,90,0,0,1,8-54.59l-1.08-.63L26.34,48c-.31.72.7,1.36,1.08.63a82.38,82.38,0,0,1,26.7-30.16c.66-.45,0-1.53-.63-1.08A83.67,83.67,0,0,0,26.34,48l1.08.63L28.14,47c.32-.72-.72-1.36-1.08-.63a91.47,91.47,0,0,0-8.13,55.55l1.21-.33-.12-.7c-.12-.69-1.28-.53-1.23.17a51.29,51.29,0,0,0,3.33,14.24c.82,2.16,1.74,4.28,2.69,6.38s2.34,4.16,3.44,6.3c4.76,9.19,9.45,18.43,14.21,27.62a32.61,32.61,0,0,1,2.06,4.09c.43,1.23.6,2.59.91,3.86.56,2.29,1.16,4.59,1.89,6.83a.66.66,0,0,0,.6.46l18.58.92c6.13.3,12.31.5,18.33,1.79l.34-1.2-.8-.17-.33,1.2a74.27,74.27,0,0,1,7.62,2,33.53,33.53,0,0,0,7.83,1.28,32.82,32.82,0,0,0,15.61-3.35c.72-.35.09-1.42-.63-1.08l-.48.23c-.64.29-.19,1.4.48,1.14q12-4.71,23.83-10l-.63-1.08-.36.16c-.74.33-.1,1.39.63,1.08a87.57,87.57,0,0,0,18.68-11q2-1.51,3.95-3.12c1.13-.92,2.82-1.92,3.37-3.33a26.11,26.11,0,0,0,.92-5.31l1-6.36c.12-.79-1.08-1.13-1.21-.33Z"/>
        <path d="M130.66,124.57a.51.51,0,0,1-.63-.37l-.6.79a2.46,2.46,0,0,1,1,.15c.1.32-.08.34-.55,0a3.45,3.45,0,0,1-1.61-1.07l-.6,1,2.25.38c.78.13,1.13-1,.33-1.2l-4.36-1.07a.63.63,0,0,0-.33,1.21,20,20,0,0,0,4.68.68.63.63,0,0,0,.32-1.16A11.46,11.46,0,0,0,126,122.7V124l2.13-.11v-1.25a45.74,45.74,0,0,0-10.44,2.78c-.34.13-.8.25-.9.65-.18.65.45.81.93.78a11.59,11.59,0,0,0,2.31-.55c2-.6,3.93-1.43,5.88-2.15.6-.22.58-1.31-.17-1.22a14.65,14.65,0,0,0-4.68,1.31l.85.86L122,125c.63-.21.57-1.28-.17-1.23-1.38.1-3,0-4.31.5a29.2,29.2,0,0,0-8.56,5.62.63.63,0,0,0,.44,1.07h.35l-.31-1.16a31.67,31.67,0,0,0-6.59,6.23.64.64,0,0,0,0,.88l.42.47a.63.63,0,0,0,1-.13c2.2-4,6.9-5.51,9.83-8.81a15.7,15.7,0,0,1,10.08-5.12,13.42,13.42,0,0,1,4,.14c1,.2,3.32.68,3.36,2.08.07,2.3-2.57.16-3.18-.27a4.83,4.83,0,0,0-2.81-.91c-2.09,0-4.17,1-6,1.82a38.86,38.86,0,0,0-5.61,3.11,40.15,40.15,0,0,0-5.45,4.35c-.92.88-1.8,1.8-2.63,2.76-.39.45-.77.92-1.14,1.39-.57.72-1.19.6-2,.12l.29.71a2.25,2.25,0,0,1,1.36-1.34l-.61-1-1.17.95.89.89a15.55,15.55,0,0,1,2.16-2.36l-.94-.54a4.66,4.66,0,0,1,0,1,2.85,2.85,0,0,1-.94,1.19l.88.88a3.08,3.08,0,0,1,.72-.72l-.75-1a.9.9,0,0,1-1.07.44l.45,1.07a14.64,14.64,0,0,1,2.4-1.9l-.85-.85A7,7,0,0,1,103,137.9l.76,1a14,14,0,0,1,3.59-3.58l-.85-.86a6.48,6.48,0,0,1-2.4,2.22l.76,1,2.78-3.07a.63.63,0,0,0-.89-.89,22.76,22.76,0,0,1-3.61,2.72l.76,1,4.42-4.36a.63.63,0,0,0-.76-1,17.3,17.3,0,0,0-4.51,4.19c-.38.5.35,1.19.85.85a12.93,12.93,0,0,0,2.67-2.34.63.63,0,0,0-.76-1,11,11,0,0,0-3,2.56.64.64,0,0,0,0,.89h0a.65.65,0,0,0,1-.12,29.35,29.35,0,0,1,4.3-4.68c.61-.53-.28-1.4-.88-.88l-1.56,1.35.89.88a49.43,49.43,0,0,1,8.44-6.82l-.86-.86-2,3.15c-.32.5.34,1.23.86.85l3.07-2.26c.63-.46.05-1.52-.64-1.08a49.91,49.91,0,0,0-9,7.48l.88.89,4.59-4.92c.46-.5-.16-1.43-.76-1a31.55,31.55,0,0,0-5.06,4.67l1,.76a7.35,7.35,0,0,1,1.46-1.54c.15-.1.1-.17.24-.23s.29,0,.4,0c.54-.15,1.11-.83,1.56-1.17.62-.47,1.24-.94,1.87-1.4q3.58-2.61,7.36-5c.68-.43.06-1.5-.63-1.08q-3.07,1.88-6,4c-.64.47-.07,1.52.63,1.08a42.72,42.72,0,0,1,9.44-5l-.33-1.21q-3,1.14-6,2.49l.63,1.07a46,46,0,0,1,7.57-3l-.33-1.21c-.3.13-.62.24-.92.38a7,7,0,0,1-.64.35c-.21,0-.54-.24-.74-.31-.71-.27-1.14,0-1.85.32-2.1.86-4.22,1.7-6.24,2.76-.82.42-1.62,1-2.44,1.33a10.47,10.47,0,0,0-2.23,1.44,44,44,0,0,0-5.3,4.82c-.46.49.16,1.41.76,1a35.62,35.62,0,0,0,2.66-2.81,16.49,16.49,0,0,1,4.33-2.8l-.63-1.08a49.92,49.92,0,0,0-8.6,6.86.62.62,0,0,0,.88.88,51.67,51.67,0,0,0,4-3.84c.46-.5-.15-1.4-.76-1a12.84,12.84,0,0,0-3.53,3.59c-.33.51.34,1.22.86.86a15.27,15.27,0,0,0,3.3-3.17c.46-.61-.48-1.18-1-.76a34.65,34.65,0,0,0-5,5.1c-.49.61.32,1.48.88.88L106,133.9c.47-.51-.14-1.38-.76-1a10.67,10.67,0,0,0-3.84,4.39c-.29.61.45,1.28,1,.75.27-.27.52-.55.79-.82l-1-.76c-.25.42-.55.79-.79,1.21l1.08.63a7.5,7.5,0,0,1,1.46-1.86c.5-.49-.15-1.38-.75-1a3.68,3.68,0,0,0-1.45,1.62.62.62,0,0,0,1,.75l2-1.86c.55-.51-.15-1.27-.76-1-.79.37-3.85,1.87-2,2.94a.63.63,0,0,0,.63-1.08c.37.22,0,.21.46.07a3,3,0,0,0,.59-.36c.32-.18.65-.34,1-.49l-.75-1-2,1.86,1,.76a2.55,2.55,0,0,1,1-1.18l-.76-1a8.51,8.51,0,0,0-1.66,2.12.63.63,0,0,0,1.08.63c.24-.42.54-.79.79-1.21a.63.63,0,0,0-1-.76c-.27.27-.52.56-.79.83l1,.76a9.46,9.46,0,0,1,3.39-3.94l-.75-1-3.17,3.42.88.88a35.21,35.21,0,0,1,5-5.1l-1-.75a13.14,13.14,0,0,1-2.85,2.72l.85.85a11.37,11.37,0,0,1,3.08-3.14l-.76-1a49.86,49.86,0,0,1-4,3.85l.88.88a48.27,48.27,0,0,1,8.35-6.66.63.63,0,0,0-.63-1.08,17.32,17.32,0,0,0-4.14,2.61,14.81,14.81,0,0,0-1.7,1.66,8.28,8.28,0,0,1-1.15,1.34l.76,1a41.49,41.49,0,0,1,4.88-4.49,12.11,12.11,0,0,1,1.65-1.22,4,4,0,0,1,.69-.25,18.89,18.89,0,0,0,2.49-1.44c2-1,4.07-1.85,6.14-2.7a2.43,2.43,0,0,1,.8-.32c.26,0,.54.26.8.33.78.21,1.62-.37,2.35-.67s.46-1.44-.33-1.21a47.61,47.61,0,0,0-7.87,3.13c-.73.36-.09,1.4.63,1.07q2.79-1.27,5.65-2.35c.74-.28.45-1.46-.33-1.21a44.05,44.05,0,0,0-9.74,5.08l.63,1.08q2.9-2.15,6-4l-.63-1.08a125.42,125.42,0,0,0-10.84,7.6l.61-.16c-1.2-.34-2.49,1.53-3.11,2.35-.42.56.52,1.29,1,.76a30.46,30.46,0,0,1,4.81-4.48l-.75-1-4.59,4.92c-.55.59.33,1.47.88.89a48.07,48.07,0,0,1,8.74-7.29l-.64-1.08L112.37,129l.85.86,2-3.15a.63.63,0,0,0-.85-.85,51.06,51.06,0,0,0-8.7,7c-.57.57.28,1.4.89.88l1.55-1.35-.88-.88a31,31,0,0,0-4.5,4.93l1-.13h0v.89a9.91,9.91,0,0,1,2.75-2.37l-.76-1a11.42,11.42,0,0,1-2.41,2.14l.86.86a15.56,15.56,0,0,1,4.06-3.74l-.75-1L103,136.5a.62.62,0,0,0,.75,1,25.6,25.6,0,0,0,3.87-2.91l-.89-.89L104,136.76a.62.62,0,0,0,.75,1,7.85,7.85,0,0,0,2.85-2.67c.35-.54-.33-1.14-.86-.85a14.72,14.72,0,0,0-3.85,3.78.63.63,0,0,0,.76,1,8.28,8.28,0,0,0,2.82-3.08.63.63,0,0,0-.86-.86,16.77,16.77,0,0,0-2.66,2.09.63.63,0,0,0,.44,1.07,2.09,2.09,0,0,0,2-.81c.4-.5-.14-1.45-.76-1a5.27,5.27,0,0,0-1,.92.62.62,0,0,0,.88.88,3.85,3.85,0,0,0,1.3-1.77,7.91,7.91,0,0,0,0-1.29.63.63,0,0,0-.94-.54,17.66,17.66,0,0,0-2.42,2.55.63.63,0,0,0,.89.89l1.17-1a.63.63,0,0,0-.61-1,3.73,3.73,0,0,0-2.24,2.22.62.62,0,0,0,.29.7,3.29,3.29,0,0,0,2.91.42c.38-.2.59-.72.86-1,.5-.62,1-1.24,1.56-1.83a38.3,38.3,0,0,1,5.84-5.25,39.21,39.21,0,0,1,6.93-4,25.51,25.51,0,0,1,3.68-1.39,5.38,5.38,0,0,1,2.58-.17,6.21,6.21,0,0,1,2.15,1.28c1.39,1,3.87,1.35,4.24-.88s-2.22-3.39-4.06-3.79a16.69,16.69,0,0,0-13.75,3.54,25.52,25.52,0,0,0-2.06,2.1,21.07,21.07,0,0,1-3.52,2.79c-2.32,1.59-4.78,3.37-6.16,5.88l1-.12-.42-.47v.88a31,31,0,0,1,6.34-6,.64.64,0,0,0-.32-1.17h-.35l.44,1.07a30.65,30.65,0,0,1,7.92-5.27c1.18-.56,2.78-.4,4.07-.49l-.16-1.23a1.29,1.29,0,0,0-.85.66c-.38.56.33,1.09.85.85a13,13,0,0,1,4-1.14l-.17-1.23c-2,.74-4.08,1.64-6.16,2.22-.49.14-1,.26-1.49.36a2,2,0,0,0-.37.08c-.23.2-.07-.68.38.31v.63c-.26.37-.11.12.14,0s.66-.23,1-.34c1-.32,1.95-.61,2.93-.89a40.79,40.79,0,0,1,6.15-1.48c.78-.09.83-1.29,0-1.25l-2.13.11a.63.63,0,0,0,0,1.25,9.9,9.9,0,0,1,4,1.14l.31-1.17a18.37,18.37,0,0,1-4.35-.64l-.33,1.21,4.36,1.06.33-1.2L128,124a.63.63,0,0,0-.61,1.05c.89,1,3.22,2.38,4.41,1.08,1.38-1.5-1.4-2.34-2.41-2.35a.63.63,0,0,0-.61.79,1.83,1.83,0,0,0,2.17,1.24c.79-.13.45-1.33-.33-1.2Z"/>
        <path d="M49.5,136.06a18.73,18.73,0,0,0-4.42,2.29,4.2,4.2,0,0,0-1.22,1.71.63.63,0,0,0,1.08.63c2.73-3.8,7.17-2.8,11-1.71a37.22,37.22,0,0,1,10.48,4.24c.55.36,1.13-.33.85-.85l-1.13-2.15-1,.75,1.38,1.12.76-1L65,139.54l-.63,1.08,1.59,1,.63-1.08-4.67-2.31-.48,1.14a13.59,13.59,0,0,1,4,1.65l.63-1.08a62.61,62.61,0,0,1-7.41-5l-.76,1,5,2.6c.71.37,1.33-.68.63-1.08a14,14,0,0,0-6.62-1.81c-.69,0-.87,1.1-.16,1.22a9.65,9.65,0,0,1,5,2.49l.61-1.05a61.14,61.14,0,0,0-9.45-2.11l-.16,1.23A21.76,21.76,0,0,1,60,138.73l.33-1.21-6.23-1.7-.34,1.2,6,1.07a.62.62,0,0,0,.33-1.2,49.7,49.7,0,0,0-7-1.61l-.16,1.23a11.83,11.83,0,0,1,6,1.17c.72.34,1.35-.69.64-1.08A13.09,13.09,0,0,0,52,135c-.79.07-.82,1.26,0,1.25a10.53,10.53,0,0,1,4.84,1.07l.48-1.14a29.35,29.35,0,0,0-6.78-1v1.25a11.93,11.93,0,0,1,4.27.63l.16-1.23a35.58,35.58,0,0,0-5.56,0V137a10,10,0,0,1,2.78.08l.16-1.23a34.26,34.26,0,0,0-4.53.09c-.79.06-.81,1.31,0,1.25,1.52-.11,3.1-.32,4.12-1.58.31-.39.15-1.1-.44-1.07a11.8,11.8,0,0,0-6.8,2.56c-.49.39,0,1.25.61,1L48.49,137a.63.63,0,0,0-.33-1.21,9.17,9.17,0,0,0-5.47,3.39.63.63,0,0,0,.44,1.06c-.6.54-.52.36.23-.53l.54.95,1.78-2.57c.42-.6-.48-1.21-1-.75a8.1,8.1,0,0,0-1.65,2.07l1.08.63.64-.47-.63-.63c0,.77-.06.47.69.25l-.77-.77a1,1,0,0,1-1.42.8l.28.7a2.82,2.82,0,0,1,2-1.72l-.76-.77a3.17,3.17,0,0,1-2,2l.7.92a4.8,4.8,0,0,1,2.42-2.34l-.76-1a2.08,2.08,0,0,1-1.19.74c-.73.19-.5,1.16.16,1.23l2.21.24-.54-.94L44,140a4.31,4.31,0,0,1-.66.93c-.62.38-1.37.31-1.42-.52-.09-1.27,1.83-2.58,2.72-3.21a11.57,11.57,0,0,1,7.7-2.17c2.76.17,5.82.46,8.3,1.8,1.16.62,2.25,1.37,3.36,2.08l1.81,1.17c.23.14.46.28.69.44s1.25,1.47.35,1.36-.79,1.16,0,1.25a1.65,1.65,0,0,0,1.45-2.52A4.83,4.83,0,0,0,66.44,139L63.22,137a16,16,0,0,0-6-2.55,28.45,28.45,0,0,0-7-.59,12,12,0,0,0-5.51,1.88c-1.42.9-3.29,2.19-3.84,3.86a2.32,2.32,0,0,0,1.81,3.13,1.9,1.9,0,0,0,1.59-.85c.75-.89,1.38-1.91,2.05-2.85.31-.43-.12-.89-.54-.94l-2.21-.24L43.7,139A3.24,3.24,0,0,0,45.45,138a.63.63,0,0,0-.76-1,5.81,5.81,0,0,0-2.87,2.79c-.22.45.15,1.11.71.92a4.45,4.45,0,0,0,2.88-2.91.63.63,0,0,0-.77-.77,4.08,4.08,0,0,0-2.92,2.59.62.62,0,0,0,.29.71,2.25,2.25,0,0,0,3.26-1.55.64.64,0,0,0-.77-.77c-1,.31-2.79,2-1.4,3s2.28-1,2.29-2a.62.62,0,0,0-.62-.62,1.75,1.75,0,0,0-1.72,1.09c-.3.71.68,1.35,1.08.63a7.32,7.32,0,0,1,1.45-1.82l-1-.76L42.82,140a.63.63,0,0,0,.54.94,1,1,0,0,0,.56-1.85c-.92-.71-2.43.5-2.55,1.48-.16,1.29,1.37,1.47,2.18.84,1-.76,1-2.31-.42-2.44l.44,1.07A8.13,8.13,0,0,1,48.49,137l-.33-1.21L45,136.93l.61,1a10.36,10.36,0,0,1,5.92-2.19l-.45-1.07a4.19,4.19,0,0,1-3.23,1.22v1.25a34.26,34.26,0,0,1,4.53-.09c.7,0,.87-1.1.17-1.22a10.8,10.8,0,0,0-3.11-.13c-.78.09-.81,1.32,0,1.25A35.58,35.58,0,0,1,55,137c.74.06.8-1,.17-1.23a13.06,13.06,0,0,0-4.6-.67.63.63,0,0,0,0,1.25,28.2,28.2,0,0,1,6.45,1c.67.18,1.14-.82.48-1.14A11.79,11.79,0,0,0,52,135v1.25a11.89,11.89,0,0,1,6.93,1.47l.64-1.08a13.28,13.28,0,0,0-6.64-1.34c-.66,0-.9,1.11-.17,1.22a51.46,51.46,0,0,1,7,1.61l.33-1.2-6-1.07c-.78-.14-1.12,1-.34,1.2L60,138.73a.63.63,0,0,0,.33-1.21,22.9,22.9,0,0,0-7.64-1.36c-.68,0-.89,1.12-.17,1.22A62.35,62.35,0,0,1,62,139.5a.63.63,0,0,0,.61-1.05,10.84,10.84,0,0,0-5.57-2.8l-.17,1.23a12.46,12.46,0,0,1,6,1.64l.63-1.08-5-2.6c-.59-.31-1.34.53-.76,1A66,66,0,0,0,65.41,141a.63.63,0,0,0,.63-1.08,14.69,14.69,0,0,0-4.32-1.77c-.66-.16-1.14.81-.48,1.14l4.67,2.31a.63.63,0,0,0,.63-1.08l-1.59-1c-.7-.42-1.3.64-.63,1.08l2.39,1.57c.58.38,1.31-.53.76-1l-1.39-1.12a.63.63,0,0,0-1,.76L66.23,143l.86-.86c-3.77-2.46-8.2-3.72-12.52-4.85-4-1-8.1-.86-10.71,2.77l1.08.63a3.56,3.56,0,0,1,1-1.38,15.05,15.05,0,0,1,3.94-2c.75-.27.43-1.48-.33-1.21Z"/>
        <path d="M90.33,172.66a1.62,1.62,0,0,1,.78-1.88,3.55,3.55,0,0,1,2.86-.16,11.67,11.67,0,0,1,5.22,2.58c.57.56,1.46-.32.89-.89A9.39,9.39,0,0,0,97,170.37a14.69,14.69,0,0,0-3.73-1.16,3.93,3.93,0,0,0-3.34.93,2.7,2.7,0,0,0-.79,2.85c.28.75,1.49.43,1.2-.33Z"/>
        <path d="M186.31,114.31C186,104,188,93.85,188.75,83.61A155.7,155.7,0,0,0,188,52.86c-.09-.77-1.27-.82-1.25,0l0,.72,1.23-.17c-2.05-9.16-3.93-19.07-10.66-26.1-.56-.58-1.43.3-.88.89l.87.95.89-.89c-2.31-2.38-4.09-5.18-6.44-7.54a91.1,91.1,0,0,0-7.07-6.4A68.17,68.17,0,0,0,149.2,4.66,55,55,0,0,0,131.9.3c-7.11-.64-14.25-.13-21.35.42-7.92.61-15.88,1.28-23.82.62-.8-.07-.8,1.18,0,1.25,13.86,1.15,27.63-1.81,41.49-1.28a56.91,56.91,0,0,1,18.22,3.55,64.11,64.11,0,0,1,16.11,9.31A87.2,87.2,0,0,1,170.33,21a39.85,39.85,0,0,1,3.43,3.69,56.61,56.61,0,0,0,3.59,4.44c.56.58,1.43-.3.89-.89l-.88-1-.88.89c6.56,6.85,8.34,16.61,10.34,25.54a.62.62,0,0,0,1.22-.16l0-.72h-1.25a155.7,155.7,0,0,1,.73,30.75c-.78,10.24-2.75,20.4-2.44,30.7a.63.63,0,0,0,1.25,0Z"/>
        <path d="M235.7,270.56a75.47,75.47,0,0,0,.61-9h-1.25v2h1.25c-.17-4.43.68-8.89,1-13.31.3-4.77.43-9.56.38-14.34s-.26-9.54-.64-14.29q-.28-3.65-.69-7.29a57.35,57.35,0,0,1-.73-6.24l-.79.6a34.26,34.26,0,0,0,10.92.59.63.63,0,0,0,.17-1.23c-2.44-.91-3.72-3.44-5-5.55a82,82,0,0,1-4.23-7.76c-2.15-4.68-3.27-9.85-6.15-14.18l-.54.94c7.36-.36,14.44-2.28,21.41-4.56l-.61-1,0,0,.61-.16c-7-1.48-11.32-6.85-15.93-11.78a61.91,61.91,0,0,0-15.62-12l-.31,1.17q3.1-.13,6.23-.16h2.87c.54,0,1.06.13,1.48-.25a.62.62,0,0,0,.16-.61c-3.21-8.73-12-11.94-19.65-15.73l-.32,1.17c5,.18,9.64-1.91,13.89-4.22,2.3-1.25,4.57-2.57,6.8-3.94,1.14-.7,2.26-1.41,3.35-2.17a8.25,8.25,0,0,0,2.16-1.77c.32-.46-.22-1-.71-.92a37.15,37.15,0,0,1-14.59.69A69.67,69.67,0,0,1,207.35,122a57.18,57.18,0,0,1-12-6c-3.6-2.28-6.89-5-9-8.8-.39-.71-1.47-.08-1.08.63,3.32,6,9.6,9.75,15.54,12.74a63,63,0,0,0,22,6,36.5,36.5,0,0,0,13.29-.91l-.7-.92a8.71,8.71,0,0,1-2.29,1.72c-1,.7-2.1,1.36-3.17,2-2,1.24-4.11,2.46-6.21,3.6-4.12,2.25-8.65,4.32-13.45,4.15a.63.63,0,0,0-.31,1.16c7.31,3.6,16,6.65,19.07,15l.17-.61s-1.59-.13-1.8-.13l-2.63,0c-1.76,0-3.52.08-5.27.15a.63.63,0,0,0-.32,1.16,59.53,59.53,0,0,1,16.12,12.62c4.33,4.91,9.06,9.87,15.73,11.28a.63.63,0,0,0,.61-.16l0,0c.39-.43,0-1.25-.61-1-6.85,2.24-13.83,4.16-21.07,4.51a.63.63,0,0,0-.54.94c3.13,4.71,4.26,10.41,6.75,15.44,1.35,2.74,2.92,5.37,4.51,8,1.21,2,2.6,3.82,4.84,4.65l.16-1.22a33.27,33.27,0,0,1-10.58-.54.63.63,0,0,0-.8.6,57.64,57.64,0,0,0,.73,6.24q.4,3.65.69,7.29.57,7.13.64,14.29c.05,4.78-.08,9.57-.38,14.34-.28,4.42-1.13,8.88-1,13.31a.63.63,0,0,0,1.25,0v-2a.63.63,0,0,0-1.25,0,75.47,75.47,0,0,1-.61,9c-.1.79,1.15.78,1.25,0Z"/>
        <path d="M65.24,247.24q3.57,7.13,6.83,14.39c2,4.51,3.77,9.15,5.82,13.64l.7-.92a12.8,12.8,0,0,0-4.78-.9.63.63,0,0,0-.54.94l10.56,16.92a68.68,68.68,0,0,0,6.6,9.12,87.17,87.17,0,0,0,16.84,15.2,77.78,77.78,0,0,0,39,12.85,105.93,105.93,0,0,0,23-1.57,69.67,69.67,0,0,0,11.41-2.73,102.68,102.68,0,0,0,9.68-4.08A88.06,88.06,0,0,0,223.17,294q1.62-2.1,3.11-4.29c.46-.67-.62-1.3-1.08-.63a87.06,87.06,0,0,1-31,27.75c-3,1.57-6.06,2.87-9.1,4.28a54.92,54.92,0,0,1-10.95,3.62,103.18,103.18,0,0,1-11.72,1.87,100.55,100.55,0,0,1-11.37.8,77.62,77.62,0,0,1-39.65-10.63,76.84,76.84,0,0,1-17-13.75,72.24,72.24,0,0,1-8.67-11l-11.1-17.78-.3-.48-.54.94a11.89,11.89,0,0,1,4.45.85c.57.23.91-.48.71-.92-2-4.49-3.8-9.12-5.82-13.63q-3.27-7.26-6.83-14.39c-.36-.72-1.44-.09-1.08.63Z"/>
        <path d="M168.77,197.74c-5.77,2.64-11,6.28-16.33,9.65l.94.54a22.49,22.49,0,0,1,1.84-9,.62.62,0,0,0-1-.75c-5.46,5-12.71,7.7-19.77,9.54-3.81,1-7.68,1.71-11.55,2.38a71.81,71.81,0,0,1-14,1.27c-9-.22-17.82-3.28-26.41-5.79-2.2-.64-4.4-1.28-6.6-2-.91-.28-1.81-.59-2.7-1-.37-.15-.74-.36-1.11-.48-.1,0-.22-.14-.31-.14s.37.37.15.25-.36-.34-.53-.45c-.33-.21-.68-.39-1-.59-.75-.45-1.49-.91-2.23-1.38-1.54-1-3-2-4.51-3.14A28,28,0,0,1,59,192.5,14.38,14.38,0,0,1,56.1,186c-1-4.88-2-10.19-.44-15.06.25-.77-1-1.1-1.2-.33-1.37,4.26-.8,8.71-.05,13a28.43,28.43,0,0,0,1.54,6.3,15,15,0,0,0,3.41,4.78,52.68,52.68,0,0,0,9,6.73,18.86,18.86,0,0,0,2.28,1.37c.22.09.2-.1.13-.14s.07.23.16.27l.44.25a33,33,0,0,0,5.39,1.95q7,2.12,14.08,4.11a91.31,91.31,0,0,0,13.57,3c9.12,1.11,18.52-.63,27.41-2.63,8.29-1.87,17-4.76,23.34-10.6l-1-.76a24,24,0,0,0-2,9.67.63.63,0,0,0,.94.54c5.35-3.37,10.56-7,16.33-9.65.73-.33.09-1.41-.63-1.08Z"/>
        <path d="M169,260.88c.42-3.79-.51-7.49-1.61-11.08-1-3.18-1.93-6.39-4-9l-.76,1c1.66.92,3.49.77,5.33.7l6.8-.28c.67,0,.9-1.12.17-1.23-3.38-.5-6.19-2.4-8.7-4.63a47.5,47.5,0,0,1-7.32-7.68l-.23.86c4.65-2.81,9.36-5.71,13.21-9.59a.63.63,0,0,0-.61-1A38.63,38.63,0,0,1,136.36,208c-.56-.58-1.44.31-.88.89a39.94,39.94,0,0,0,36.08,11.15l-.61-1c-3.77,3.81-8.39,6.64-12.95,9.39a.62.62,0,0,0-.22.85,48.28,48.28,0,0,0,7.83,8.21c2.58,2.24,5.49,4.17,8.94,4.68l.16-1.23-5.83.24c-1.84.07-4,.44-5.67-.49a.63.63,0,0,0-.76,1c2,2.57,2.9,5.85,3.83,8.93a25.83,25.83,0,0,1,1.43,10.3c-.09.8,1.16.79,1.25,0Z"/>
        <path d="M66.57,247.13a55.49,55.49,0,0,0-8.78-14.06c-3.87-4.71-8.08-9.15-12.14-13.69s-8-9.29-12.3-13.57-9.19-8-13.86-11.89c-2.31-1.92-4.64-3.82-6.93-5.77-1-.86-2-1.73-3-2.55a11.1,11.1,0,0,1-3-2.76c-1.47-2.47-1-5.48-.11-8.05a55.17,55.17,0,0,1,3.81-8c2.66-4.76,6.44-9.4,11.9-11a4.33,4.33,0,0,1,2.89-.21,19.13,19.13,0,0,1,3,1.74,37.74,37.74,0,0,1,5.21,4.31c7.19,7,12.43,16.15,21.1,21.61.68.43,1.31-.65.63-1.08-8.15-5.13-13.26-13.63-19.86-20.42a44.1,44.1,0,0,0-5.05-4.5q-1.23-.93-2.55-1.74a8.79,8.79,0,0,0-2.81-1.39,7.42,7.42,0,0,0-2.86.48,15.8,15.8,0,0,0-3.61,1.55,21.17,21.17,0,0,0-5.76,5.07,40.15,40.15,0,0,0-4.51,7.28,34.37,34.37,0,0,0-3.33,8.12,9.61,9.61,0,0,0,.87,6.82,7.24,7.24,0,0,0,2.13,2.21c1.31.95,2.54,2,3.77,3.07,4.85,4.16,9.83,8.17,14.74,12.26,2.3,1.92,4.59,3.87,6.7,6s4.26,4.62,6.35,6.95L53.6,230.14c4.64,5.2,9.13,10.81,11.77,17.33.29.73,1.5.41,1.2-.34Z"/>
        <path d="M7.62,170a14.83,14.83,0,0,0,10.68,10.6c.78.19,1.11-1,.33-1.21a13.57,13.57,0,0,1-9.8-9.72.63.63,0,0,0-1.21.33Z"/>
        <path d="M14.36,160.46a38,38,0,0,1,7,4.65,22.51,22.51,0,0,1,2.7,3,9.66,9.66,0,0,0,2.51,2.55c.68.43,1.31-.65.63-1.08A10.06,10.06,0,0,1,24.72,167a20.75,20.75,0,0,0-2.83-3,41.16,41.16,0,0,0-6.9-4.55c-.7-.39-1.33.69-.63,1.08Z"/>
        <path d="M80.21,283.32a119.63,119.63,0,0,0-9.75-8.66A68,68,0,0,0,59,267.42c-4.88-2.47-9.86-4.72-14.81-7-2.35-1.11-4.67-2.34-7.12-3.22A21.86,21.86,0,0,0,29.75,256c-5.38,0-10.83.82-16.19,1.32a7.21,7.21,0,0,1-2.89-.06,7.91,7.91,0,0,1-3.31-2,16.55,16.55,0,0,1-3.73-6.78,46.15,46.15,0,0,1-2.37-15.6,12,12,0,0,1,.09-2.08,1.66,1.66,0,0,1,1-1.25,13.93,13.93,0,0,1,3.11-1.44,38.85,38.85,0,0,1,6.48-1.43c12-1.84,24.36-5.1,36.48-2.53.79.17,1.12-1,.34-1.2-11.14-2.37-22.29.16-33.31,1.94-4.49.72-9.4,1-13.41,3.38-.68.4-1.55.85-1.83,1.6a7.12,7.12,0,0,0-.12,1.85c0,.78,0,1.55,0,2.32a48,48,0,0,0,.72,8c.82,4.7,2.15,10.42,5.62,13.93a8.77,8.77,0,0,0,5.47,2.71,19.57,19.57,0,0,0,3.22-.29l4.41-.42c5.51-.53,11.47-1.6,16.86.2a77.22,77.22,0,0,1,8.15,3.67l7.82,3.68c5.19,2.44,10.44,4.9,15.09,8.3a109.05,109.05,0,0,1,12,10.34.62.62,0,0,0,.88-.88Z"/>
        <path d="M30.34,256.65a6,6,0,0,0-.08-5.7,9.3,9.3,0,0,0-4.87-4.16c-3.53-1.5-10.46-3.51-12.52,1.22-1,2.19.42,4.54,2.39,5.58l.15-1.14c-1,.24-1.13,1.66-1.19,2.48a5.44,5.44,0,0,0,.46,3.19c.45.66,1.53,0,1.08-.63a3.79,3.79,0,0,1-.31-2,7.59,7.59,0,0,1,.1-1.17,2.55,2.55,0,0,1,.15-.54c.06-.1.14-.12,0-.09a.64.64,0,0,0,.15-1.15c-2-1.07-2.9-3.61-.92-5.22s5-.88,7.24-.26,4.51,1.43,6.06,3.18a5.22,5.22,0,0,1,1,5.81c-.39.7.68,1.33,1.07.63Z"/>
        <path d="M8.48,244.8c0-.05-.19.26-.08.14-.12.14,0,0,0,0s0,0,0,0l.1,0,.26-.08a10,10,0,0,1,1.09-.22c.12,0,0,0,0,0l.15,0,.19,0a2.42,2.42,0,0,1,.38,0,1.84,1.84,0,0,1,.6.24,3.51,3.51,0,0,1,.64.4l.15.17s0,0,0,.09,0,.08,0,.06l-.08.13a1.81,1.81,0,0,1-.25.3,14.51,14.51,0,0,1-1.23,1.25,14,14,0,0,1-1.35,1.09,1.27,1.27,0,0,0-.19.13c-.09.1,0-.06,0,.05h0s-.14-.15-.15-.16a5.69,5.69,0,0,1-.35-.57,2.68,2.68,0,0,1,0-2.8.63.63,0,0,0-.22-.86.64.64,0,0,0-.86.23,3.88,3.88,0,0,0-.1,3.86c.26.58.71,1.38,1.39,1.51a1.53,1.53,0,0,0,1.12-.37c.34-.24.67-.5,1-.76A17.06,17.06,0,0,0,12.37,247c.51-.57,1.08-1.22.77-2a2.84,2.84,0,0,0-1.51-1.34,2.77,2.77,0,0,0-1.6-.3,9.66,9.66,0,0,0-1.59.29c-.43.11-1.08.33-1.16.84a.64.64,0,0,0,.43.77.63.63,0,0,0,.77-.44Z"/>
        <path d="M11.32,254.83c0-.22,0-.16,0-.11s-.05.09,0-.09c0,.05-.1.12,0,0,0,0-.11.1,0,0l0,0c-.12.07.08,0,0,0l-.11,0-.13,0H11.1c-.11,0,.16,0,0,0a4.56,4.56,0,0,1-.64,0l-.2,0c.14,0,0,0,0,0l-.41-.09-.35-.11-.19-.07c.17.06,0,0-.09,0l-.34-.19-.14-.1,0,0-.05,0a2.06,2.06,0,0,1-.26-.25l-.07-.08c-.06-.07.08.12,0,0l-.12-.17c0-.05-.05-.11-.08-.15s0,.09,0,0a.45.45,0,0,0,0-.11.84.84,0,0,1,0-.17s0-.06,0-.09,0-.06,0-.09v0c0,.08,0,.1,0,.06s-.06.12,0,.05-.1.13,0,0l.12-.15a1.15,1.15,0,0,0,.18-.62s0-.12,0-.13,0,.17,0,.09-.11.19,0,.11,0,0,0-.05-.12.06,0,0a1.18,1.18,0,0,0,.19-.11l.09,0c.14-.07-.08,0,0,0l.22-.08.45-.14.42-.08c.12,0,0,0,0,0h.28l.44,0,.27,0c-.11,0,0,0,0,0l.18,0L11,252l.14.05h0c.05,0,.17.13.08,0l.09.09.08.1.06.08a.61.61,0,0,1,.07.1,2.12,2.12,0,0,1,.12.2l.14.26s0,.11,0,0l.06.16.06.21s.05.3,0,.14a2.37,2.37,0,0,1,0,.46c0-.16,0,.08,0,.12l0,.12s0-.08,0,0l-.06.11c-.06.1,0,0,0,0l-.2.2s.1-.06,0,0l-.15.09-.11.05c-.16.09.1,0-.07,0a1,1,0,0,0-.54.38.65.65,0,0,0,.56,1,1,1,0,0,0,.34-.06.73.73,0,0,0,.52-.49.68.68,0,0,0-.07-.5.49.49,0,0,0-.17-.18c-.06-.05-.39-.2-.14-.08l.23.22h0l-.1.76h0l-.27.16h-.28l-.28-.16h0L11,254.9h0l.22-.23s0,0,0,0l-.1,0-.2.06s-.25,0-.08,0h-.2a2.08,2.08,0,0,1-.35,0c.17,0,0,0-.08,0l-.19-.05-.19-.06s-.23-.09-.09,0l-.32-.16a3.13,3.13,0,0,1-.34-.21l-.16-.12,0,0a4.91,4.91,0,0,1-.51-.51l-.06-.07c.06.07.06.07,0,0l-.07-.1c-.06-.09-.11-.18-.16-.27s0,.08,0,0,0-.08,0-.13,0-.06,0-.09,0,.18,0,0,0,0,0,0l0-.1C8,253,8,253.05,8,253s0,0-.06.07L8,253a.62.62,0,0,0,0-.88.64.64,0,0,0-.88,0,1.17,1.17,0,0,0-.32,1.19,2.81,2.81,0,0,0,.64,1.14A4.35,4.35,0,0,0,10,256a3.36,3.36,0,0,0,1.05,0,1.38,1.38,0,0,0,1-.48.63.63,0,0,0-.09-.76.7.7,0,0,0-1,0,.64.64,0,0,0-.1.76.84.84,0,0,0,.23.23l0,0c.27.13.21.06-.17-.19l-.08-.31h0L11,255s.22-.26.3-.23l-.06,0c-.05,0-.1,0,.09,0-.07,0-.05,0,.11,0l.28.16h0l.16.28h0l-.06.48c.14-.28-.3.33-.16.18s.12-.06,0,0l.32-.14a2.51,2.51,0,0,0,.54-.38,2.15,2.15,0,0,0,.61-1,3,3,0,0,0-.35-2.28,3,3,0,0,0-.75-.95,2.35,2.35,0,0,0-1.14-.44,4.91,4.91,0,0,0-2,.05,2.62,2.62,0,0,0-1.75,1,1.43,1.43,0,0,0-.11.58c0-.13,0,0,0,0l0-.08s0,0,0,0,0,0,0,0a1.24,1.24,0,0,0-.14.18,1.44,1.44,0,0,0,0,1.17,3.61,3.61,0,0,0,2.75,2.25c.94.23,2.78.37,2.92-1a.63.63,0,0,0-.62-.63.65.65,0,0,0-.63.63Z"/>
        <path d="M82.42,157.36c2.68,1.83,5.46,3.54,8.3,5.11l.28.19,7.69-7-.25-.1c-4.26,2-11.15,1.3-15.78,1.43"/>
        <g data-name="color">
          <path d="M234.4,208.15c-7.14,4.33-14.56,8.94-18.87,16.09-3.33,5.5-4.49,12-5.58,18.34a35.34,35.34,0,0,0-.76,9.82,20.38,20.38,0,0,0,8.5,14,28,28,0,0,0,15.83,4.93"/>
          <path d="M234.08,207.61c-4.89,3-9.83,6-14,10a32.32,32.32,0,0,0-8.7,14.92,92.63,92.63,0,0,0-2,9.47,41.5,41.5,0,0,0-.94,9.48,20.56,20.56,0,0,0,7,13.9c4.93,4.41,11.53,6.39,18.06,6.56a.63.63,0,0,0,0-1.25,27.44,27.44,0,0,1-15.82-5.08,19.6,19.6,0,0,1-7.91-13.43,35.47,35.47,0,0,1,.76-9.41c.49-2.82,1-5.65,1.68-8.42a32,32,0,0,1,7.92-15c4.21-4.33,9.43-7.51,14.56-10.63a.63.63,0,0,0-.63-1.08Z"/>
        </g>
      </g>
    </g>
  </g>
</svg>