<?xml version="1.0" encoding="UTF-8" standalone="yes"?>
<svg xmlns="http://www.w3.org/2000/svg" viewBox="0 0 251.85 328.6">
  <defs/>
  <g data-name="Layer_2">
    <g data-name="baby-cat-body-1-patterns">
      <g data-name="body-1-pattern-9-mask">
        <path d="M164.65,134.37l-.88,5.62c-.29,1.83-.45,3.73-.88,5.53-.36,1.51-2.55,2.77-3.71,3.72q-2.09,1.71-4.26,3.3a87,87,0,0,1-17.61,10.16l.63,1.08.36-.16c.74-.33.1-1.4-.63-1.08q-11.65,5.19-23.54,9.83l.49,1.15.48-.23-.63-1.08a31.47,31.47,0,0,1-15.41,3.16c-5.11-.26-9.7-2.38-14.69-3.22-.78-.13-1.13,1-.33,1.2l.79.17c.79.17,1.12-1,.34-1.2-6-1.29-12.1-1.52-18.18-1.82l-19.07-.94.6.46c-.62-1.89-1.12-3.83-1.62-5.75-.56-2.2-.83-4.45-1.88-6.47l-7.3-14.09c-2.37-4.56-4.79-9.11-7.06-13.73a65.15,65.15,0,0,0-3.24-6,46.07,46.07,0,0,1-3.18-6.69A53.05,53.05,0,0,1,20,101l-1.23.17.12.69c.14.79,1.35.46,1.21-.33a90,90,0,0,1,8-54.59l-1.08-.63L26.34,48c-.31.72.7,1.36,1.08.63a82.38,82.38,0,0,1,26.7-30.16c.66-.45,0-1.53-.63-1.08A83.67,83.67,0,0,0,26.34,48l1.08.63L28.14,47c.32-.72-.72-1.36-1.08-.63a91.47,91.47,0,0,0-8.13,55.55l1.21-.33-.12-.7c-.12-.69-1.28-.53-1.23.17a51.29,51.29,0,0,0,3.33,14.24c.82,2.16,1.74,4.28,2.69,6.38s2.34,4.16,3.44,6.3c4.76,9.19,9.45,18.43,14.21,27.62a32.61,32.61,0,0,1,2.06,4.09c.43,1.23.6,2.59.91,3.86.56,2.29,1.16,4.59,1.89,6.83a.66.66,0,0,0,.6.46l18.58.92c6.13.3,12.31.5,18.33,1.79l.34-1.2-.8-.17-.33,1.2a74.27,74.27,0,0,1,7.62,2,33.53,33.53,0,0,0,7.83,1.28,32.82,32.82,0,0,0,15.61-3.35c.72-.35.09-1.42-.63-1.08l-.48.23c-.64.29-.19,1.4.48,1.14q12-4.71,23.83-10l-.63-1.08-.36.16c-.74.33-.1,1.39.63,1.08a87.57,87.57,0,0,0,18.68-11q2-1.51,3.95-3.12c1.13-.92,2.82-1.92,3.37-3.33a26.11,26.11,0,0,0,.92-5.31l1-6.36c.12-.79-1.08-1.13-1.21-.33Z"/>
        <path d="M130.66,124.57a.51.51,0,0,1-.63-.37l-.6.79a2.46,2.46,0,0,1,1,.15c.1.32-.08.34-.55,0a3.45,3.45,0,0,1-1.61-1.07l-.6,1,2.25.38c.78.13,1.13-1,.33-1.2l-4.36-1.07a.63.63,0,0,0-.33,1.21,20,20,0,0,0,4.68.68.63.63,0,0,0,.32-1.16A11.46,11.46,0,0,0,126,122.7V124l2.13-.11v-1.25a45.74,45.74,0,0,0-10.44,2.78c-.34.13-.8.25-.9.65-.18.65.45.81.93.78a11.59,11.59,0,0,0,2.31-.55c2-.6,3.93-1.43,5.88-2.15.6-.22.58-1.31-.17-1.22a14.65,14.65,0,0,0-4.68,1.31l.85.86L122,125c.63-.21.57-1.28-.17-1.23-1.38.1-3,0-4.31.5a29.2,29.2,0,0,0-8.56,5.62.63.63,0,0,0,.44,1.07h.35l-.31-1.16a31.67,31.67,0,0,0-6.59,6.23.64.64,0,0,0,0,.88l.42.47a.63.63,0,0,0,1-.13c2.2-4,6.9-5.51,9.83-8.81a15.7,15.7,0,0,1,10.08-5.12,13.42,13.42,0,0,1,4,.14c1,.2,3.32.68,3.36,2.08.07,2.3-2.57.16-3.18-.27a4.83,4.83,0,0,0-2.81-.91c-2.09,0-4.17,1-6,1.82a38.86,38.86,0,0,0-5.61,3.11,40.15,40.15,0,0,0-5.45,4.35c-.92.88-1.8,1.8-2.63,2.76-.39.45-.77.92-1.14,1.39-.57.72-1.19.6-2,.12l.29.71a2.25,2.25,0,0,1,1.36-1.34l-.61-1-1.17.95.89.89a15.55,15.55,0,0,1,2.16-2.36l-.94-.54a4.66,4.66,0,0,1,0,1,2.85,2.85,0,0,1-.94,1.19l.88.88a3.08,3.08,0,0,1,.72-.72l-.75-1a.9.9,0,0,1-1.07.44l.45,1.07a14.64,14.64,0,0,1,2.4-1.9l-.85-.85A7,7,0,0,1,103,137.9l.76,1a14,14,0,0,1,3.59-3.58l-.85-.86a6.48,6.48,0,0,1-2.4,2.22l.76,1,2.78-3.07a.63.63,0,0,0-.89-.89,22.76,22.76,0,0,1-3.61,2.72l.76,1,4.42-4.36a.63.63,0,0,0-.76-1,17.3,17.3,0,0,0-4.51,4.19c-.38.5.35,1.19.85.85a12.93,12.93,0,0,0,2.67-2.34.63.63,0,0,0-.76-1,11,11,0,0,0-3,2.56.64.64,0,0,0,0,.89h0a.65.65,0,0,0,1-.12,29.35,29.35,0,0,1,4.3-4.68c.61-.53-.28-1.4-.88-.88l-1.56,1.35.89.88a49.43,49.43,0,0,1,8.44-6.82l-.86-.86-2,3.15c-.32.5.34,1.23.86.85l3.07-2.26c.63-.46.05-1.52-.64-1.08a49.91,49.91,0,0,0-9,7.48l.88.89,4.59-4.92c.46-.5-.16-1.43-.76-1a31.55,31.55,0,0,0-5.06,4.67l1,.76a7.35,7.35,0,0,1,1.46-1.54c.15-.1.1-.17.24-.23s.29,0,.4,0c.54-.15,1.11-.83,1.56-1.17.62-.47,1.24-.94,1.87-1.4q3.58-2.61,7.36-5c.68-.43.06-1.5-.63-1.08q-3.07,1.88-6,4c-.64.47-.07,1.52.63,1.08a42.72,42.72,0,0,1,9.44-5l-.33-1.21q-3,1.14-6,2.49l.63,1.07a46,46,0,0,1,7.57-3l-.33-1.21c-.3.13-.62.24-.92.38a7,7,0,0,1-.64.35c-.21,0-.54-.24-.74-.31-.71-.27-1.14,0-1.85.32-2.1.86-4.22,1.7-6.24,2.76-.82.42-1.62,1-2.44,1.33a10.47,10.47,0,0,0-2.23,1.44,44,44,0,0,0-5.3,4.82c-.46.49.16,1.41.76,1a35.62,35.62,0,0,0,2.66-2.81,16.49,16.49,0,0,1,4.33-2.8l-.63-1.08a49.92,49.92,0,0,0-8.6,6.86.62.62,0,0,0,.88.88,51.67,51.67,0,0,0,4-3.84c.46-.5-.15-1.4-.76-1a12.84,12.84,0,0,0-3.53,3.59c-.33.51.34,1.22.86.86a15.27,15.27,0,0,0,3.3-3.17c.46-.61-.48-1.18-1-.76a34.65,34.65,0,0,0-5,5.1c-.49.61.32,1.48.88.88L106,133.9c.47-.51-.14-1.38-.76-1a10.67,10.67,0,0,0-3.84,4.39c-.29.61.45,1.28,1,.75.27-.27.52-.55.79-.82l-1-.76c-.25.42-.55.79-.79,1.21l1.08.63a7.5,7.5,0,0,1,1.46-1.86c.5-.49-.15-1.38-.75-1a3.68,3.68,0,0,0-1.45,1.62.62.62,0,0,0,1,.75l2-1.86c.55-.51-.15-1.27-.76-1-.79.37-3.85,1.87-2,2.94a.63.63,0,0,0,.63-1.08c.37.22,0,.21.46.07a3,3,0,0,0,.59-.36c.32-.18.65-.34,1-.49l-.75-1-2,1.86,1,.76a2.55,2.55,0,0,1,1-1.18l-.76-1a8.51,8.51,0,0,0-1.66,2.12.63.63,0,0,0,1.08.63c.24-.42.54-.79.79-1.21a.63.63,0,0,0-1-.76c-.27.27-.52.56-.79.83l1,.76a9.46,9.46,0,0,1,3.39-3.94l-.75-1-3.17,3.42.88.88a35.21,35.21,0,0,1,5-5.1l-1-.75a13.14,13.14,0,0,1-2.85,2.72l.85.85a11.37,11.37,0,0,1,3.08-3.14l-.76-1a49.86,49.86,0,0,1-4,3.85l.88.88a48.27,48.27,0,0,1,8.35-6.66.63.63,0,0,0-.63-1.08,17.32,17.32,0,0,0-4.14,2.61,14.81,14.81,0,0,0-1.7,1.66,8.28,8.28,0,0,1-1.15,1.34l.76,1a41.49,41.49,0,0,1,4.88-4.49,12.11,12.11,0,0,1,1.65-1.22,4,4,0,0,1,.69-.25,18.89,18.89,0,0,0,2.49-1.44c2-1,4.07-1.85,6.14-2.7a2.43,2.43,0,0,1,.8-.32c.26,0,.54.26.8.33.78.21,1.62-.37,2.35-.67s.46-1.44-.33-1.21a47.61,47.61,0,0,0-7.87,3.13c-.73.36-.09,1.4.63,1.07q2.79-1.27,5.65-2.35c.74-.28.45-1.46-.33-1.21a44.05,44.05,0,0,0-9.74,5.08l.63,1.08q2.9-2.15,6-4l-.63-1.08a125.42,125.42,0,0,0-10.84,7.6l.61-.16c-1.2-.34-2.49,1.53-3.11,2.35-.42.56.52,1.29,1,.76a30.46,30.46,0,0,1,4.81-4.48l-.75-1-4.59,4.92c-.55.59.33,1.47.88.89a48.07,48.07,0,0,1,8.74-7.29l-.64-1.08L112.37,129l.85.86,2-3.15a.63.63,0,0,0-.85-.85,51.06,51.06,0,0,0-8.7,7c-.57.57.28,1.4.89.88l1.55-1.35-.88-.88a31,31,0,0,0-4.5,4.93l1-.13h0v.89a9.91,9.91,0,0,1,2.75-2.37l-.76-1a11.42,11.42,0,0,1-2.41,2.14l.86.86a15.56,15.56,0,0,1,4.06-3.74l-.75-1L103,136.5a.62.62,0,0,0,.75,1,25.6,25.6,0,0,0,3.87-2.91l-.89-.89L104,136.76a.62.62,0,0,0,.75,1,7.85,7.85,0,0,0,2.85-2.67c.35-.54-.33-1.14-.86-.85a14.72,14.72,0,0,0-3.85,3.78.63.63,0,0,0,.76,1,8.28,8.28,0,0,0,2.82-3.08.63.63,0,0,0-.86-.86,16.77,16.77,0,0,0-2.66,2.09.63.63,0,0,0,.44,1.07,2.09,2.09,0,0,0,2-.81c.4-.5-.14-1.45-.76-1a5.27,5.27,0,0,0-1,.92.62.62,0,0,0,.88.88,3.85,3.85,0,0,0,1.3-1.77,7.91,7.91,0,0,0,0-1.29.63.63,0,0,0-.94-.54,17.66,17.66,0,0,0-2.42,2.55.63.63,0,0,0,.89.89l1.17-1a.63.63,0,0,0-.61-1,3.73,3.73,0,0,0-2.24,2.22.62.62,0,0,0,.29.7,3.29,3.29,0,0,0,2.91.42c.38-.2.59-.72.86-1,.5-.62,1-1.24,1.56-1.83a38.3,38.3,0,0,1,5.84-5.25,39.21,39.21,0,0,1,6.93-4,25.51,25.51,0,0,1,3.68-1.39,5.38,5.38,0,0,1,2.58-.17,6.21,6.21,0,0,1,2.15,1.28c1.39,1,3.87,1.35,4.24-.88s-2.22-3.39-4.06-3.79a16.69,16.69,0,0,0-13.75,3.54,25.52,25.52,0,0,0-2.06,2.1,21.07,21.07,0,0,1-3.52,2.79c-2.32,1.59-4.78,3.37-6.16,5.88l1-.12-.42-.47v.88a31,31,0,0,1,6.34-6,.64.64,0,0,0-.32-1.17h-.35l.44,1.07a30.65,30.65,0,0,1,7.92-5.27c1.18-.56,2.78-.4,4.07-.49l-.16-1.23a1.29,1.29,0,0,0-.85.66c-.38.56.33,1.09.85.85a13,13,0,0,1,4-1.14l-.17-1.23c-2,.74-4.08,1.64-6.16,2.22-.49.14-1,.26-1.49.36a2,2,0,0,0-.37.08c-.23.2-.07-.68.38.31v.63c-.26.37-.11.12.14,0s.66-.23,1-.34c1-.32,1.95-.61,2.93-.89a40.79,40.79,0,0,1,6.15-1.48c.78-.09.83-1.29,0-1.25l-2.13.11a.63.63,0,0,0,0,1.25,9.9,9.9,0,0,1,4,1.14l.31-1.17a18.37,18.37,0,0,1-4.35-.64l-.33,1.21,4.36,1.06.33-1.2L128,124a.63.63,0,0,0-.61,1.05c.89,1,3.22,2.38,4.41,1.08,1.38-1.5-1.4-2.34-2.41-2.35a.63.63,0,0,0-.61.79,1.83,1.83,0,0,0,2.17,1.24c.79-.13.45-1.33-.33-1.2Z"/>
        <path d="M49.5,136.06a18.73,18.73,0,0,0-4.42,2.29,4.2,4.2,0,0,0-1.22,1.71.63.63,0,0,0,1.08.63c2.73-3.8,7.17-2.8,11-1.71a37.22,37.22,0,0,1,10.48,4.24c.55.36,1.13-.33.85-.85l-1.13-2.15-1,.75,1.38,1.12.76-1L65,139.54l-.63,1.08,1.59,1,.63-1.08-4.67-2.31-.48,1.14a13.59,13.59,0,0,1,4,1.65l.63-1.08a62.61,62.61,0,0,1-7.41-5l-.76,1,5,2.6c.71.37,1.33-.68.63-1.08a14,14,0,0,0-6.62-1.81c-.69,0-.87,1.1-.16,1.22a9.65,9.65,0,0,1,5,2.49l.61-1.05a61.14,61.14,0,0,0-9.45-2.11l-.16,1.23A21.76,21.76,0,0,1,60,138.73l.33-1.21-6.23-1.7-.34,1.2,6,1.07a.62.62,0,0,0,.33-1.2,49.7,49.7,0,0,0-7-1.61l-.16,1.23a11.83,11.83,0,0,1,6,1.17c.72.34,1.35-.69.64-1.08A13.09,13.09,0,0,0,52,135c-.79.07-.82,1.26,0,1.25a10.53,10.53,0,0,1,4.84,1.07l.48-1.14a29.35,29.35,0,0,0-6.78-1v1.25a11.93,11.93,0,0,1,4.27.63l.16-1.23a35.58,35.58,0,0,0-5.56,0V137a10,10,0,0,1,2.78.08l.16-1.23a34.26,34.26,0,0,0-4.53.09c-.79.06-.81,1.31,0,1.25,1.52-.11,3.1-.32,4.12-1.58.31-.39.15-1.1-.44-1.07a11.8,11.8,0,0,0-6.8,2.56c-.49.39,0,1.25.61,1L48.49,137a.63.63,0,0,0-.33-1.21,9.17,9.17,0,0,0-5.47,3.39.63.63,0,0,0,.44,1.06c-.6.54-.52.36.23-.53l.54.95,1.78-2.57c.42-.6-.48-1.21-1-.75a8.1,8.1,0,0,0-1.65,2.07l1.08.63.64-.47-.63-.63c0,.77-.06.47.69.25l-.77-.77a1,1,0,0,1-1.42.8l.28.7a2.82,2.82,0,0,1,2-1.72l-.76-.77a3.17,3.17,0,0,1-2,2l.7.92a4.8,4.8,0,0,1,2.42-2.34l-.76-1a2.08,2.08,0,0,1-1.19.74c-.73.19-.5,1.16.16,1.23l2.21.24-.54-.94L44,140a4.31,4.31,0,0,1-.66.93c-.62.38-1.37.31-1.42-.52-.09-1.27,1.83-2.58,2.72-3.21a11.57,11.57,0,0,1,7.7-2.17c2.76.17,5.82.46,8.3,1.8,1.16.62,2.25,1.37,3.36,2.08l1.81,1.17c.23.14.46.28.69.44s1.25,1.47.35,1.36-.79,1.16,0,1.25a1.65,1.65,0,0,0,1.45-2.52A4.83,4.83,0,0,0,66.44,139L63.22,137a16,16,0,0,0-6-2.55,28.45,28.45,0,0,0-7-.59,12,12,0,0,0-5.51,1.88c-1.42.9-3.29,2.19-3.84,3.86a2.32,2.32,0,0,0,1.81,3.13,1.9,1.9,0,0,0,1.59-.85c.75-.89,1.38-1.91,2.05-2.85.31-.43-.12-.89-.54-.94l-2.21-.24L43.7,139A3.24,3.24,0,0,0,45.45,138a.63.63,0,0,0-.76-1,5.81,5.81,0,0,0-2.87,2.79c-.22.45.15,1.11.71.92a4.45,4.45,0,0,0,2.88-2.91.63.63,0,0,0-.77-.77,4.08,4.08,0,0,0-2.92,2.59.62.62,0,0,0,.29.71,2.25,2.25,0,0,0,3.26-1.55.64.64,0,0,0-.77-.77c-1,.31-2.79,2-1.4,3s2.28-1,2.29-2a.62.62,0,0,0-.62-.62,1.75,1.75,0,0,0-1.72,1.09c-.3.71.68,1.35,1.08.63a7.32,7.32,0,0,1,1.45-1.82l-1-.76L42.82,140a.63.63,0,0,0,.54.94,1,1,0,0,0,.56-1.85c-.92-.71-2.43.5-2.55,1.48-.16,1.29,1.37,1.47,2.18.84,1-.76,1-2.31-.42-2.44l.44,1.07A8.13,8.13,0,0,1,48.49,137l-.33-1.21L45,136.93l.61,1a10.36,10.36,0,0,1,5.92-2.19l-.45-1.07a4.19,4.19,0,0,1-3.23,1.22v1.25a34.26,34.26,0,0,1,4.53-.09c.7,0,.87-1.1.17-1.22a10.8,10.8,0,0,0-3.11-.13c-.78.09-.81,1.32,0,1.25A35.58,35.58,0,0,1,55,137c.74.06.8-1,.17-1.23a13.06,13.06,0,0,0-4.6-.67.63.63,0,0,0,0,1.25,28.2,28.2,0,0,1,6.45,1c.67.18,1.14-.82.48-1.14A11.79,11.79,0,0,0,52,135v1.25a11.89,11.89,0,0,1,6.93,1.47l.64-1.08a13.28,13.28,0,0,0-6.64-1.34c-.66,0-.9,1.11-.17,1.22a51.46,51.46,0,0,1,7,1.61l.33-1.2-6-1.07c-.78-.14-1.12,1-.34,1.2L60,138.73a.63.63,0,0,0,.33-1.21,22.9,22.9,0,0,0-7.64-1.36c-.68,0-.89,1.12-.17,1.22A62.35,62.35,0,0,1,62,139.5a.63.63,0,0,0,.61-1.05,10.84,10.84,0,0,0-5.57-2.8l-.17,1.23a12.46,12.46,0,0,1,6,1.64l.63-1.08-5-2.6c-.59-.31-1.34.53-.76,1A66,66,0,0,0,65.41,141a.63.63,0,0,0,.63-1.08,14.69,14.69,0,0,0-4.32-1.77c-.66-.16-1.14.81-.48,1.14l4.67,2.31a.63.63,0,0,0,.63-1.08l-1.59-1c-.7-.42-1.3.64-.63,1.08l2.39,1.57c.58.38,1.31-.53.76-1l-1.39-1.12a.63.63,0,0,0-1,.76L66.23,143l.86-.86c-3.77-2.46-8.2-3.72-12.52-4.85-4-1-8.1-.86-10.71,2.77l1.08.63a3.56,3.56,0,0,1,1-1.38,15.05,15.05,0,0,1,3.94-2c.75-.27.43-1.48-.33-1.21Z"/>
        <path d="M90.33,172.66a1.62,1.62,0,0,1,.78-1.88,3.55,3.55,0,0,1,2.86-.16,11.67,11.67,0,0,1,5.22,2.58c.57.56,1.46-.32.89-.89A9.39,9.39,0,0,0,97,170.37a14.69,14.69,0,0,0-3.73-1.16,3.93,3.93,0,0,0-3.34.93,2.7,2.7,0,0,0-.79,2.85c.28.75,1.49.43,1.2-.33Z"/>
        <path d="M186.31,114.31C186,104,188,93.85,188.75,83.61A155.7,155.7,0,0,0,188,52.86c-.09-.77-1.27-.82-1.25,0l0,.72,1.23-.17c-2.05-9.16-3.93-19.07-10.66-26.1-.56-.58-1.43.3-.88.89l.87.95.89-.89c-2.31-2.38-4.09-5.18-6.44-7.54a91.1,91.1,0,0,0-7.07-6.4A68.17,68.17,0,0,0,149.2,4.66,55,55,0,0,0,131.9.3c-7.11-.64-14.25-.13-21.35.42-7.92.61-15.88,1.28-23.82.62-.8-.07-.8,1.18,0,1.25,13.86,1.15,27.63-1.81,41.49-1.28a56.91,56.91,0,0,1,18.22,3.55,64.11,64.11,0,0,1,16.11,9.31A87.2,87.2,0,0,1,170.33,21a39.85,39.85,0,0,1,3.43,3.69,56.61,56.61,0,0,0,3.59,4.44c.56.58,1.43-.3.89-.89l-.88-1-.88.89c6.56,6.85,8.34,16.61,10.34,25.54a.62.62,0,0,0,1.22-.16l0-.72h-1.25a155.7,155.7,0,0,1,.73,30.75c-.78,10.24-2.75,20.4-2.44,30.7a.63.63,0,0,0,1.25,0Z"/>
        <path d="M235.7,270.56a75.47,75.47,0,0,0,.61-9h-1.25v2h1.25c-.17-4.43.68-8.89,1-13.31.3-4.77.43-9.56.38-14.34s-.26-9.54-.64-14.29q-.28-3.65-.69-7.29a57.35,57.35,0,0,1-.73-6.24l-.79.6a34.26,34.26,0,0,0,10.92.59.63.63,0,0,0,.17-1.23c-2.44-.91-3.72-3.44-5-5.55a82,82,0,0,1-4.23-7.76c-2.15-4.68-3.27-9.85-6.15-14.18l-.54.94c7.36-.36,14.44-2.28,21.41-4.56l-.61-1,0,0,.61-.16c-7-1.48-11.32-6.85-15.93-11.78a61.91,61.91,0,0,0-15.62-12l-.31,1.17q3.1-.13,6.23-.16h2.87c.54,0,1.06.13,1.48-.25a.62.62,0,0,0,.16-.61c-3.21-8.73-12-11.94-19.65-15.73l-.32,1.17c5,.18,9.64-1.91,13.89-4.22,2.3-1.25,4.57-2.57,6.8-3.94,1.14-.7,2.26-1.41,3.35-2.17a8.25,8.25,0,0,0,2.16-1.77c.32-.46-.22-1-.71-.92a37.15,37.15,0,0,1-14.59.69A69.67,69.67,0,0,1,207.35,122a57.18,57.18,0,0,1-12-6c-3.6-2.28-6.89-5-9-8.8-.39-.71-1.47-.08-1.08.63,3.32,6,9.6,9.75,15.54,12.74a63,63,0,0,0,22,6,36.5,36.5,0,0,0,13.29-.91l-.7-.92a8.71,8.71,0,0,1-2.29,1.72c-1,.7-2.1,1.36-3.17,2-2,1.24-4.11,2.46-6.21,3.6-4.12,2.25-8.65,4.32-13.45,4.15a.63.63,0,0,0-.31,1.16c7.31,3.6,16,6.65,19.07,15l.17-.61s-1.59-.13-1.8-.13l-2.63,0c-1.76,0-3.52.08-5.27.15a.63.63,0,0,0-.32,1.16,59.53,59.53,0,0,1,16.12,12.62c4.33,4.91,9.06,9.87,15.73,11.28a.63.63,0,0,0,.61-.16l0,0c.39-.43,0-1.25-.61-1-6.85,2.24-13.83,4.16-21.07,4.51a.63.63,0,0,0-.54.94c3.13,4.71,4.26,10.41,6.75,15.44,1.35,2.74,2.92,5.37,4.51,8,1.21,2,2.6,3.82,4.84,4.65l.16-1.22a33.27,33.27,0,0,1-10.58-.54.63.63,0,0,0-.8.6,57.64,57.64,0,0,0,.73,6.24q.4,3.65.69,7.29.57,7.13.64,14.29c.05,4.78-.08,9.57-.38,14.34-.28,4.42-1.13,8.88-1,13.31a.63.63,0,0,0,1.25,0v-2a.63.63,0,0,0-1.25,0,75.47,75.47,0,0,1-.61,9c-.1.79,1.15.78,1.25,0Z"/>
        <path d="M65.24,247.24q3.57,7.13,6.83,14.39c2,4.51,3.77,9.15,5.82,13.64l.7-.92a12.8,12.8,0,0,0-4.78-.9.63.63,0,0,0-.54.94l10.56,16.92a68.68,68.68,0,0,0,6.6,9.12,87.17,87.17,0,0,0,16.84,15.2,77.78,77.78,0,0,0,39,12.85,105.93,105.93,0,0,0,23-1.57,69.67,69.67,0,0,0,11.41-2.73,102.68,102.68,0,0,0,9.68-4.08A88.06,88.06,0,0,0,223.17,294q1.62-2.1,3.11-4.29c.46-.67-.62-1.3-1.08-.63a87.06,87.06,0,0,1-31,27.75c-3,1.57-6.06,2.87-9.1,4.28a54.92,54.92,0,0,1-10.95,3.62,103.18,103.18,0,0,1-11.72,1.87,100.55,100.55,0,0,1-11.37.8,77.62,77.62,0,0,1-39.65-10.63,76.84,76.84,0,0,1-17-13.75,72.24,72.24,0,0,1-8.67-11l-11.1-17.78-.3-.48-.54.94a11.89,11.89,0,0,1,4.45.85c.57.23.91-.48.71-.92-2-4.49-3.8-9.12-5.82-13.63q-3.27-7.26-6.83-14.39c-.36-.72-1.44-.09-1.08.63Z"/>
        <path d="M168.77,197.74c-5.77,2.64-11,6.28-16.33,9.65l.94.54a22.49,22.49,0,0,1,1.84-9,.62.62,0,0,0-1-.75c-5.46,5-12.71,7.7-19.77,9.54-3.81,1-7.68,1.71-11.55,2.38a71.81,71.81,0,0,1-14,1.27c-9-.22-17.82-3.28-26.41-5.79-2.2-.64-4.4-1.28-6.6-2-.91-.28-1.81-.59-2.7-1-.37-.15-.74-.36-1.11-.48-.1,0-.22-.14-.31-.14s.37.37.15.25-.36-.34-.53-.45c-.33-.21-.68-.39-1-.59-.75-.45-1.49-.91-2.23-1.38-1.54-1-3-2-4.51-3.14A28,28,0,0,1,59,192.5,14.38,14.38,0,0,1,56.1,186c-1-4.88-2-10.19-.44-15.06.25-.77-1-1.1-1.2-.33-1.37,4.26-.8,8.71-.05,13a28.43,28.43,0,0,0,1.54,6.3,15,15,0,0,0,3.41,4.78,52.68,52.68,0,0,0,9,6.73,18.86,18.86,0,0,0,2.28,1.37c.22.09.2-.1.13-.14s.07.23.16.27l.44.25a33,33,0,0,0,5.39,1.95q7,2.12,14.08,4.11a91.31,91.31,0,0,0,13.57,3c9.12,1.11,18.52-.63,27.41-2.63,8.29-1.87,17-4.76,23.34-10.6l-1-.76a24,24,0,0,0-2,9.67.63.63,0,0,0,.94.54c5.35-3.37,10.56-7,16.33-9.65.73-.33.09-1.41-.63-1.08Z"/>
        <path d="M169,260.88c.42-3.79-.51-7.49-1.61-11.08-1-3.18-1.93-6.39-4-9l-.76,1c1.66.92,3.49.77,5.33.7l6.8-.28c.67,0,.9-1.12.17-1.23-3.38-.5-6.19-2.4-8.7-4.63a47.5,47.5,0,0,1-7.32-7.68l-.23.86c4.65-2.81,9.36-5.71,13.21-9.59a.63.63,0,0,0-.61-1A38.63,38.63,0,0,1,136.36,208c-.56-.58-1.44.31-.88.89a39.94,39.94,0,0,0,36.08,11.15l-.61-1c-3.77,3.81-8.39,6.64-12.95,9.39a.62.62,0,0,0-.22.85,48.28,48.28,0,0,0,7.83,8.21c2.58,2.24,5.49,4.17,8.94,4.68l.16-1.23-5.83.24c-1.84.07-4,.44-5.67-.49a.63.63,0,0,0-.76,1c2,2.57,2.9,5.85,3.83,8.93a25.83,25.83,0,0,1,1.43,10.3c-.09.8,1.16.79,1.25,0Z"/>
        <path d="M66.57,247.13a55.49,55.49,0,0,0-8.78-14.06c-3.87-4.71-8.08-9.15-12.14-13.69s-8-9.29-12.3-13.57-9.19-8-13.86-11.89c-2.31-1.92-4.64-3.82-6.93-5.77-1-.86-2-1.73-3-2.55a11.1,11.1,0,0,1-3-2.76c-1.47-2.47-1-5.48-.11-8.05a55.17,55.17,0,0,1,3.81-8c2.66-4.76,6.44-9.4,11.9-11a4.33,4.33,0,0,1,2.89-.21,19.13,19.13,0,0,1,3,1.74,37.74,37.74,0,0,1,5.21,4.31c7.19,7,12.43,16.15,21.1,21.61.68.43,1.31-.65.63-1.08-8.15-5.13-13.26-13.63-19.86-20.42a44.1,44.1,0,0,0-5.05-4.5q-1.23-.93-2.55-1.74a8.79,8.79,0,0,0-2.81-1.39,7.42,7.42,0,0,0-2.86.48,15.8,15.8,0,0,0-3.61,1.55,21.17,21.17,0,0,0-5.76,5.07,40.15,40.15,0,0,0-4.51,7.28,34.37,34.37,0,0,0-3.33,8.12,9.61,9.61,0,0,0,.87,6.82,7.24,7.24,0,0,0,2.13,2.21c1.31.95,2.54,2,3.77,3.07,4.85,4.16,9.83,8.17,14.74,12.26,2.3,1.92,4.59,3.87,6.7,6s4.26,4.62,6.35,6.95L53.6,230.14c4.64,5.2,9.13,10.81,11.77,17.33.29.73,1.5.41,1.2-.34Z"/>
        <path d="M7.62,170a14.83,14.83,0,0,0,10.68,10.6c.78.19,1.11-1,.33-1.21a13.57,13.57,0,0,1-9.8-9.72.63.63,0,0,0-1.21.33Z"/>
        <path d="M14.36,160.46a38,38,0,0,1,7,4.65,22.51,22.51,0,0,1,2.7,3,9.66,9.66,0,0,0,2.51,2.55c.68.43,1.31-.65.63-1.08A10.06,10.06,0,0,1,24.72,167a20.75,20.75,0,0,0-2.83-3,41.16,41.16,0,0,0-6.9-4.55c-.7-.39-1.33.69-.63,1.08Z"/>
        <path d="M80.21,283.32a119.63,119.63,0,0,0-9.75-8.66A68,68,0,0,0,59,267.42c-4.88-2.47-9.86-4.72-14.81-7-2.35-1.11-4.67-2.34-7.12-3.22A21.86,21.86,0,0,0,29.75,256c-5.38,0-10.83.82-16.19,1.32a7.21,7.21,0,0,1-2.89-.06,7.91,7.91,0,0,1-3.31-2,16.55,16.55,0,0,1-3.73-6.78,46.15,46.15,0,0,1-2.37-15.6,12,12,0,0,1,.09-2.08,1.66,1.66,0,0,1,1-1.25,13.93,13.93,0,0,1,3.11-1.44,38.85,38.85,0,0,1,6.48-1.43c12-1.84,24.36-5.1,36.48-2.53.79.17,1.12-1,.34-1.2-11.14-2.37-22.29.16-33.31,1.94-4.49.72-9.4,1-13.41,3.38-.68.4-1.55.85-1.83,1.6a7.12,7.12,0,0,0-.12,1.85c0,.78,0,1.55,0,2.32a48,48,0,0,0,.72,8c.82,4.7,2.15,10.42,5.62,13.93a8.77,8.77,0,0,0,5.47,2.71,19.57,19.57,0,0,0,3.22-.29l4.41-.42c5.51-.53,11.47-1.6,16.86.2a77.22,77.22,0,0,1,8.15,3.67l7.82,3.68c5.19,2.44,10.44,4.9,15.09,8.3a109.05,109.05,0,0,1,12,10.34.62.62,0,0,0,.88-.88Z"/>
        <path d="M30.34,256.65a6,6,0,0,0-.08-5.7,9.3,9.3,0,0,0-4.87-4.16c-3.53-1.5-10.46-3.51-12.52,1.22-1,2.19.42,4.54,2.39,5.58l.15-1.14c-1,.24-1.13,1.66-1.19,2.48a5.44,5.44,0,0,0,.46,3.19c.45.66,1.53,0,1.08-.63a3.79,3.79,0,0,1-.31-2,7.59,7.59,0,0,1,.1-1.17,2.55,2.55,0,0,1,.15-.54c.06-.1.14-.12,0-.09a.64.64,0,0,0,.15-1.15c-2-1.07-2.9-3.61-.92-5.22s5-.88,7.24-.26,4.51,1.43,6.06,3.18a5.22,5.22,0,0,1,1,5.81c-.39.7.68,1.33,1.07.63Z"/>
        <path d="M8.48,244.8c0-.05-.19.26-.08.14-.12.14,0,0,0,0s0,0,0,0l.1,0,.26-.08a10,10,0,0,1,1.09-.22c.12,0,0,0,0,0l.15,0,.19,0a2.42,2.42,0,0,1,.38,0,1.84,1.84,0,0,1,.6.24,3.51,3.51,0,0,1,.64.4l.15.17s0,0,0,.09,0,.08,0,.06l-.08.13a1.81,1.81,0,0,1-.25.3,14.51,14.51,0,0,1-1.23,1.25,14,14,0,0,1-1.35,1.09,1.27,1.27,0,0,0-.19.13c-.09.1,0-.06,0,.05h0s-.14-.15-.15-.16a5.69,5.69,0,0,1-.35-.57,2.68,2.68,0,0,1,0-2.8.63.63,0,0,0-.22-.86.64.64,0,0,0-.86.23,3.88,3.88,0,0,0-.1,3.86c.26.58.71,1.38,1.39,1.51a1.53,1.53,0,0,0,1.12-.37c.34-.24.67-.5,1-.76A17.06,17.06,0,0,0,12.37,247c.51-.57,1.08-1.22.77-2a2.84,2.84,0,0,0-1.51-1.34,2.77,2.77,0,0,0-1.6-.3,9.66,9.66,0,0,0-1.59.29c-.43.11-1.08.33-1.16.84a.64.64,0,0,0,.43.77.63.63,0,0,0,.77-.44Z"/>
        <path d="M11.32,254.83c0-.22,0-.16,0-.11s-.05.09,0-.09c0,.05-.1.12,0,0,0,0-.11.1,0,0l0,0c-.12.07.08,0,0,0l-.11,0-.13,0H11.1c-.11,0,.16,0,0,0a4.56,4.56,0,0,1-.64,0l-.2,0c.14,0,0,0,0,0l-.41-.09-.35-.11-.19-.07c.17.06,0,0-.09,0l-.34-.19-.14-.1,0,0-.05,0a2.06,2.06,0,0,1-.26-.25l-.07-.08c-.06-.07.08.12,0,0l-.12-.17c0-.05-.05-.11-.08-.15s0,.09,0,0a.45.45,0,0,0,0-.11.84.84,0,0,1,0-.17s0-.06,0-.09,0-.06,0-.09v0c0,.08,0,.1,0,.06s-.06.12,0,.05-.1.13,0,0l.12-.15a1.15,1.15,0,0,0,.18-.62s0-.12,0-.13,0,.17,0,.09-.11.19,0,.11,0,0,0-.05-.12.06,0,0a1.18,1.18,0,0,0,.19-.11l.09,0c.14-.07-.08,0,0,0l.22-.08.45-.14.42-.08c.12,0,0,0,0,0h.28l.44,0,.27,0c-.11,0,0,0,0,0l.18,0L11,252l.14.05h0c.05,0,.17.13.08,0l.09.09.08.1.06.08a.61.61,0,0,1,.07.1,2.12,2.12,0,0,1,.12.2l.14.26s0,.11,0,0l.06.16.06.21s.05.3,0,.14a2.37,2.37,0,0,1,0,.46c0-.16,0,.08,0,.12l0,.12s0-.08,0,0l-.06.11c-.06.1,0,0,0,0l-.2.2s.1-.06,0,0l-.15.09-.11.05c-.16.09.1,0-.07,0a1,1,0,0,0-.54.38.65.65,0,0,0,.56,1,1,1,0,0,0,.34-.06.73.73,0,0,0,.52-.49.68.68,0,0,0-.07-.5.49.49,0,0,0-.17-.18c-.06-.05-.39-.2-.14-.08l.23.22h0l-.1.76h0l-.27.16h-.28l-.28-.16h0L11,254.9h0l.22-.23s0,0,0,0l-.1,0-.2.06s-.25,0-.08,0h-.2a2.08,2.08,0,0,1-.35,0c.17,0,0,0-.08,0l-.19-.05-.19-.06s-.23-.09-.09,0l-.32-.16a3.13,3.13,0,0,1-.34-.21l-.16-.12,0,0a4.91,4.91,0,0,1-.51-.51l-.06-.07c.06.07.06.07,0,0l-.07-.1c-.06-.09-.11-.18-.16-.27s0,.08,0,0,0-.08,0-.13,0-.06,0-.09,0,.18,0,0,0,0,0,0l0-.1C8,253,8,253.05,8,253s0,0-.06.07L8,253a.62.62,0,0,0,0-.88.64.64,0,0,0-.88,0,1.17,1.17,0,0,0-.32,1.19,2.81,2.81,0,0,0,.64,1.14A4.35,4.35,0,0,0,10,256a3.36,3.36,0,0,0,1.05,0,1.38,1.38,0,0,0,1-.48.63.63,0,0,0-.09-.76.7.7,0,0,0-1,0,.64.64,0,0,0-.1.76.84.84,0,0,0,.23.23l0,0c.27.13.21.06-.17-.19l-.08-.31h0L11,255s.22-.26.3-.23l-.06,0c-.05,0-.1,0,.09,0-.07,0-.05,0,.11,0l.28.16h0l.16.28h0l-.06.48c.14-.28-.3.33-.16.18s.12-.06,0,0l.32-.14a2.51,2.51,0,0,0,.54-.38,2.15,2.15,0,0,0,.61-1,3,3,0,0,0-.35-2.28,3,3,0,0,0-.75-.95,2.35,2.35,0,0,0-1.14-.44,4.91,4.91,0,0,0-2,.05,2.62,2.62,0,0,0-1.75,1,1.43,1.43,0,0,0-.11.58c0-.13,0,0,0,0l0-.08s0,0,0,0,0,0,0,0a1.24,1.24,0,0,0-.14.18,1.44,1.44,0,0,0,0,1.17,3.61,3.61,0,0,0,2.75,2.25c.94.23,2.78.37,2.92-1a.63.63,0,0,0-.62-.63.65.65,0,0,0-.63.63Z"/>
        <path d="M82.42,157.36c2.68,1.83,5.46,3.54,8.3,5.11l.28.19,7.69-7-.25-.1c-4.26,2-11.15,1.3-15.78,1.43"/>
        <g data-name="color">
          <path d="M206.92,179.4c-.75,1.33-.62,3.09-.6,4.61a7.18,7.18,0,0,0,8.08,7c.3-1.3-.46-2.57-1-3.81a9.41,9.41,0,0,1-.36-5.58,1.87,1.87,0,0,0,.06-1.19,1.54,1.54,0,0,0-.7-.68,6.26,6.26,0,0,0-5.53-.36"/>
          <path d="M206.38,179.08a9,9,0,0,0-.69,4.47,8.66,8.66,0,0,0,1.06,4.26,7.88,7.88,0,0,0,7.65,3.83.62.62,0,0,0,.6-.45c.34-1.74-.65-3.13-1.14-4.72a9.52,9.52,0,0,1-.1-5,1.86,1.86,0,0,0-.58-2,5.5,5.5,0,0,0-1.92-.92,7,7,0,0,0-4.51.21c-.74.3-.42,1.51.33,1.21a5.86,5.86,0,0,1,3.85-.22c.46.14,1.35.39,1.61.83s0,.75-.1,1a9.53,9.53,0,0,0-.17,1.07,9.83,9.83,0,0,0,.38,4.07c.4,1.29,1.42,2.65,1.15,4l.6-.46a6.65,6.65,0,0,1-6.57-3.21,7.27,7.27,0,0,1-.89-3.54,7.85,7.85,0,0,1,.52-3.93c.37-.71-.71-1.34-1.08-.63Z"/>
          <path d="M214.83,181.62a11.58,11.58,0,0,0,.63,5.89c.33.75,1.19,1.56,1.84,1.06a1.52,1.52,0,0,0,.43-.83,8.13,8.13,0,0,0,.4-3.74,3.69,3.69,0,0,0-3.3-2.38"/>
          <path d="M214.23,181.46a11.76,11.76,0,0,0,0,4,5.45,5.45,0,0,0,1.46,3.43,1.57,1.57,0,0,0,1.83.3c.65-.39.79-1.22,1-1.89.34-1.35.68-3.09-.16-4.32a4.41,4.41,0,0,0-3.51-1.95.63.63,0,0,0,0,1.25,3.15,3.15,0,0,1,2.21,1.06,3.23,3.23,0,0,1,.42,2.92c-.06.3-.14.6-.21.9a6,6,0,0,1-.23.8c-.06.11-.09.17-.19.16s-.35-.2-.46-.32a3,3,0,0,1-.57-1.14,11.45,11.45,0,0,1-.35-1.54,10.15,10.15,0,0,1,0-3.3A.65.65,0,0,0,215,181a.62.62,0,0,0-.76.44Z"/>
          <path d="M192.76,218.74c-.1,2.21,0,3.36.9,5a6.8,6.8,0,0,0,3.51,3.38,12,12,0,0,0,5,.38c1.3-.12,1.4-.73,2.68-1-.67-3.49-1-3.39-1.83-4.6-1-1.38-1.63-1.94-2.6-3.34a5.86,5.86,0,0,0-4.13-2.71c-1.7-.13-3.54,1.16-3.55,2.86"/>
          <path d="M192.14,218.74a10.1,10.1,0,0,0,.52,4.4,9.19,9.19,0,0,0,2.83,3.82,10.86,10.86,0,0,0,7.65,1c.67-.23,1.2-.67,1.9-.84a.64.64,0,0,0,.44-.77,11.87,11.87,0,0,0-1-3.55,18.94,18.94,0,0,0-1.83-2.44c-1.88-2.31-4-5.86-7.51-5a3.73,3.73,0,0,0-3,3.37c0,.81,1.22.8,1.25,0,.06-1.67,2-2.51,3.46-2.14,1.9.48,2.86,2.15,4,3.57.8,1,1.69,2,2.38,3a9.62,9.62,0,0,1,1.05,3.49l.44-.76a7.45,7.45,0,0,0-1.66.72,4.93,4.93,0,0,1-2.19.35,7.42,7.42,0,0,1-4.59-1,7.83,7.83,0,0,1-2.47-3.34,9.06,9.06,0,0,1-.41-3.91c0-.8-1.22-.8-1.25,0Z"/>
          <path d="M199.3,214.45l6.33,8.18c.49.64,1.24,1.36,2,1.05a1.63,1.63,0,0,0,.79-.86,7.1,7.1,0,0,0-6.51-10.33,2.57,2.57,0,0,0-1.28.3,2.64,2.64,0,0,0-1.32,1.66"/>
          <path d="M198.86,214.89,204,221.5c.71.91,1.4,2.15,2.47,2.67a1.85,1.85,0,0,0,2.51-1,7.72,7.72,0,0,0-4.29-10.82,6.76,6.76,0,0,0-3.59-.36,3.27,3.27,0,0,0-2.37,2.33.62.62,0,0,0,1.2.33c.51-1.93,2.89-1.64,4.35-1.12a6.47,6.47,0,0,1,3.69,3.33,6.66,6.66,0,0,1,.12,5.27c-.13.31-.33.88-.68,1s-.84-.36-1.09-.64c-.7-.8-1.32-1.69-2-2.54L199.74,214c-.49-.64-1.37.25-.88.88Z"/>
          <path d="M225.55,229c-4.05-2.76-9.94,4.82-9.32,8.11,1.05,5.52,8.86-7.53,9.32-8.11"/>
          <path d="M225.87,228.46c-2.46-1.63-5.34,0-7.14,1.85a12.52,12.52,0,0,0-2.42,3.47,5.88,5.88,0,0,0-.69,3.43,2.08,2.08,0,0,0,1.3,1.83,2.49,2.49,0,0,0,2-.62,21.05,21.05,0,0,0,4.25-4.82c.67-.93,1.31-1.88,1.94-2.85.31-.47.6-1,.94-1.44a.62.62,0,0,0-.22-.85.65.65,0,0,0-.86.22c-.76,1-1.37,2.12-2.08,3.15a32.84,32.84,0,0,1-3.69,4.69c-.15.15-.3.3-.46.44l-.22.19s-.24.2-.18.16l-.42.29-.18.1-.11.05c-.12.06,0,0,0,0l-.18.06c-.08,0-.17,0,0,0h-.18s-.08,0,.06,0l-.1,0c0-.05.11.08,0,0s.1.09,0,0-.07-.09,0,0a1.59,1.59,0,0,1-.13-.22c0-.08,0,.07,0-.09a2.58,2.58,0,0,1-.08-.26,1.58,1.58,0,0,1-.07-.53,4,4,0,0,1,.25-1.39,9.93,9.93,0,0,1,1.72-3.1c1.4-1.78,4.11-4.17,6.46-2.61.67.44,1.3-.64.63-1.08Z"/>
          <path d="M227.17,230.38c-3.11,4-5.83,6.73-7.59,10.17,4.69,2.75,9.67-5.71,7.59-10.17"/>
          <path d="M226.73,229.94c-2.62,3.36-5.71,6.48-7.69,10.29a.65.65,0,0,0,.22.86c4.64,2.64,8.49-3.42,9-7.33a6.86,6.86,0,0,0-.51-3.69c-.33-.73-1.41-.1-1.08.63a7,7,0,0,1-.35,5.5,7.13,7.13,0,0,1-3.71,4.06,3.1,3.1,0,0,1-2.67-.25l.22.85c1.93-3.72,4.94-6.76,7.49-10a.64.64,0,0,0,0-.88.62.62,0,0,0-.88,0Z"/>
          <path d="M223,198a6.29,6.29,0,0,0,7.35,8.89c.91-1.25-.34-3.2-1.15-4.86-.94-1.92-2.07-3.85-4-4.82A2.71,2.71,0,0,0,223,198"/>
          <path d="M222.42,197.73a7.18,7.18,0,0,0,0,6.39,7.06,7.06,0,0,0,6.61,3.65,3.1,3.1,0,0,0,1.68-.4c.75-.69.53-2.05.23-2.88a27.1,27.1,0,0,0-1.55-3.27,14.29,14.29,0,0,0-1.78-2.76,7.45,7.45,0,0,0-1.4-1.29,2.55,2.55,0,0,0-1.35-.6,3.13,3.13,0,0,0-2.48,1.16.63.63,0,0,0,1.08.63,2.15,2.15,0,0,1,.87-.44.82.82,0,0,1,.88.09,7.35,7.35,0,0,1,2.33,2.47c.62,1,1.13,2.07,1.65,3.12.42.84,1.15,2.11.54,3l.38-.28a5.66,5.66,0,0,1-6.65-8c.36-.72-.72-1.35-1.08-.63Z"/>
          <path d="M226.58,195.85c2.36,1.69,3.67,4.72,5.12,7.24.11.19.26.4.48.39a.6.6,0,0,0,.39-.22,5.08,5.08,0,0,0,.72-5.95c-1.09-1.84-4.65-2-6.71-1.46"/>
          <path d="M226.26,196.39a12.76,12.76,0,0,1,3.35,4.22c.45.79.87,1.6,1.32,2.39a2.17,2.17,0,0,0,.83,1,1.18,1.18,0,0,0,1.4-.47,5.81,5.81,0,0,0,1.28-5,4.49,4.49,0,0,0-1.05-2.14,4.6,4.6,0,0,0-1.84-1.09,9.17,9.17,0,0,0-5.14-.08.62.62,0,0,0,.33,1.2,8,8,0,0,1,4.61.13,2.69,2.69,0,0,1,1.51,1.24,4.33,4.33,0,0,1,.42,2.53,4.6,4.6,0,0,1-.41,1.4,4.86,4.86,0,0,1-.39.65c-.11.15-.29.45-.47.48h.33s0,.05,0,0a.12.12,0,0,1,0-.07,2.07,2.07,0,0,1-.15-.25l-.28-.5-.57-1c-.39-.72-.79-1.44-1.22-2.14a12.45,12.45,0,0,0-3.16-3.58.62.62,0,0,0-.85.22.64.64,0,0,0,.22.86Z"/>
          <path d="M184.82,197.42c-2.49-4.32-1.9-8.51,2.86-11.23,1.78-.9.51,4.22-.42,8.49-.28,1.26-.73,2.69-2.44,2.74"/>
          <path d="M185.36,197.11A9,9,0,0,1,184,192.3a6.19,6.19,0,0,1,2-4.12,9.6,9.6,0,0,1,1.05-.86,10.11,10.11,0,0,0,1-.61l-.09,0c-.11,0-.06-.08-.07-.06a4.3,4.3,0,0,0,.08.69,24.73,24.73,0,0,1-.82,5.06c-.22,1-.38,2-.67,2.91a1.82,1.82,0,0,1-1.64,1.52c-.8,0-.8,1.3,0,1.25a2.84,2.84,0,0,0,2.43-1.45,9.87,9.87,0,0,0,.84-2.82,30.33,30.33,0,0,0,1.11-6.47,1.94,1.94,0,0,0-.59-1.68c-.69-.46-1.47.13-2,.51a8.3,8.3,0,0,0-3.65,4.9,9.49,9.49,0,0,0,1.35,6.7.63.63,0,0,0,1.08-.63Z"/>
          <path d="M188.53,243.76c-4.82,2-5.45,6-3.42,10.49,1.55,3.42,3.75,3.49,5.32.06.44-1,1.39-11.59-1.9-10.55"/>
          <path d="M188.22,243.22c-2.75,1.18-4.8,3.42-4.82,6.52a11,11,0,0,0,1,4.4c.55,1.31,1.42,3,3,3.29s2.58-.93,3.24-2.08a5.65,5.65,0,0,0,.69-2.21,25.34,25.34,0,0,0,.12-6.09c-.18-1.59-.77-4.56-3-3.89a.63.63,0,0,0,.33,1.21c.19-.06.11-.07.3-.05-.05,0,.22.06.14,0a.86.86,0,0,1,.4.42,6,6,0,0,1,.59,2.05,23.39,23.39,0,0,1,0,5.42,10.1,10.1,0,0,1-.24,1.65,1.66,1.66,0,0,1-.06.21c.07-.25-.07.15-.12.24s-.21.41-.33.6a2.88,2.88,0,0,1-1.17,1.2c-1.08.47-1.92-.93-2.33-1.7a10.9,10.9,0,0,1-1.21-3.93,5.69,5.69,0,0,1,.75-3.57,7.2,7.2,0,0,1,3.42-2.63c.74-.31.1-1.39-.63-1.08Z"/>
          <path d="M193.05,244.75c0,3.13-.19,6.27-.49,9.38a2.66,2.66,0,0,0,.12,1.43c.56,1.12,2.27.84,3.31.13a6.82,6.82,0,0,0,2.95-6.76,5.56,5.56,0,0,0-5.89-4.18"/>
          <path d="M192.43,244.75q0,4.17-.4,8.32c-.09,1.06-.4,2.37.42,3.23a2.57,2.57,0,0,0,2.47.54,6.77,6.77,0,0,0,4.19-4,6.31,6.31,0,0,0-.32-5.85,6.23,6.23,0,0,0-5.74-2.83c-.79.08-.8,1.33,0,1.25a5,5,0,0,1,4.3,1.73,4.8,4.8,0,0,1,.83,4.6,6,6,0,0,1-3.07,3.76c-.49.2-1.37.43-1.78-.05-.29-.33-.18-.89-.14-1.29l.15-1.7c.2-2.55.32-5.12.34-7.68a.63.63,0,0,0-1.25,0Z"/>
          <path d="M190.69,187.06c-.74,2.72-1.5,6.82-2,9.6-.08.44-.08,1,.34,1.18a.93.93,0,0,0,.37,0,6.57,6.57,0,0,0,6-5.09c.45-2.79-1.88-5.85-4.7-5.72"/>
          <path d="M190.09,186.89c-.6,2.21-1,4.47-1.47,6.72-.2,1-.44,2-.57,3.09s.35,1.88,1.5,1.78c4-.37,7.75-4.33,6.13-8.44a5.44,5.44,0,0,0-5-3.61.63.63,0,0,0,0,1.25,4.08,4.08,0,0,1,3.6,2.31,4.4,4.4,0,0,1-.24,4.51,6.25,6.25,0,0,1-4,2.65l-.52.08c-.22,0-.22.09-.29-.06s.13-.9.17-1.17l.51-2.67c.4-2.05.81-4.09,1.35-6.11a.62.62,0,0,0-1.2-.33Z"/>
          <path d="M197.52,277.92a10.29,10.29,0,0,1,2.14-10.31,11.92,11.92,0,0,1,1.46-1.29c.4-.31,1-.59,1.38-.25a1.17,1.17,0,0,1,.26.95l-.15,5a25,25,0,0,1-.42,3.23c-.18,1.13-.15,3.5-1.66,3.5-.47,0-2.54.13-3-.85"/>
          <path d="M198.12,277.75a9.71,9.71,0,0,1,3-10.66,3.64,3.64,0,0,1,.6-.43c.24-.12.33-.17.4.1a3.23,3.23,0,0,1,0,.76l0,1.13c0,1.25,0,2.5-.11,3.74-.07,1.06-.31,2.1-.44,3.15a8.39,8.39,0,0,1-.35,2c-.24.62-.6.63-1.2.62s-1.6,0-1.92-.55-1.47-.07-1.08.63a2.72,2.72,0,0,0,2.31,1.14,3.76,3.76,0,0,0,2.13-.2,3,3,0,0,0,1.18-2.23c.18-1.07.32-2.15.47-3.23a38.52,38.52,0,0,0,.25-4.68c0-.75.1-1.52.06-2.27a1.45,1.45,0,0,0-.77-1.35c-1.14-.51-2.36.74-3.09,1.45a10.27,10.27,0,0,0-2.18,3.12,11,11,0,0,0-.42,8.1c.26.76,1.47.43,1.2-.33Z"/>
          <path d="M204.81,266.39c-.42,3.64-.63,7.95-.89,11.61a1,1,0,0,0,.18.82,1,1,0,0,0,1,.07,6.54,6.54,0,0,0-.26-12.5"/>
          <path d="M204.19,266.39c-.29,2.48-.46,5-.62,7.48-.08,1.24-.16,2.48-.25,3.71a2.54,2.54,0,0,0,.14,1.42,1.27,1.27,0,0,0,1.26.59,5.38,5.38,0,0,0,2.68-1.29,7.37,7.37,0,0,0,1.93-2.33,6.87,6.87,0,0,0,.39-5.74,7.44,7.44,0,0,0-4.74-4.45.63.63,0,0,0-.33,1.21,5.93,5.93,0,0,1,.33,11.26c-.06,0-.37.16-.43.11s0-.48,0-.57c0-.49.07-1,.1-1.49.07-1,.13-2.06.2-3.1.15-2.27.32-4.55.58-6.81.09-.8-1.16-.8-1.25,0Z"/>
          <path d="M150.33,177.78c-1.65-4.52-3.17-11.79,2.88-11.78.41,0,.72.43,1.08.61s.36.59.36.94l0,6.58a4.27,4.27,0,0,1-.38,2.21c-.74,1.28-2.49,1.45-4,1.44"/>
          <path d="M150.93,177.61a26.76,26.76,0,0,1-1.24-4.5,9.11,9.11,0,0,1,.07-4.25,3.08,3.08,0,0,1,2.64-2.19,1.36,1.36,0,0,1,1.18.21c.16.12.35.2.43.37a2.85,2.85,0,0,1,0,1l0,4.22c0,.74,0,1.48,0,2.22a2.31,2.31,0,0,1-.57,1.68c-.79.77-2.12.77-3.15.77a.63.63,0,0,0,0,1.25,6.63,6.63,0,0,0,3.43-.68,3.52,3.52,0,0,0,1.55-3.21c0-1.65,0-3.31,0-5,0-.76.05-1.55,0-2.31a1.73,1.73,0,0,0-.92-1.34,2.1,2.1,0,0,0-1.49-.52,6.27,6.27,0,0,0-1.5.25,4.21,4.21,0,0,0-2,1.3,6.76,6.76,0,0,0-1.12,4.8,23.3,23.3,0,0,0,1.45,6.21c.27.75,1.48.43,1.21-.33Z"/>
          <path d="M156.23,166.11c-.12,3.18.09,7.67,0,10.85a1,1,0,0,0,.14.67.75.75,0,0,0,.41.24,3.12,3.12,0,0,0,2.77-.67,8.44,8.44,0,0,0,1.85-2.3,9.27,9.27,0,0,0,1.5-3.69,4.92,4.92,0,0,0-6.64-5.1"/>
          <path d="M155.61,166.11c-.09,2.37,0,4.74,0,7.1,0,1.14,0,2.28,0,3.42a2,2,0,0,0,.31,1.44,2.12,2.12,0,0,0,1.49.53c2.53.07,4.08-2.48,5.12-4.44s1.44-4.44.09-6.5a5.62,5.62,0,0,0-6.54-2.15c-.75.27-.42,1.48.34,1.21a4.37,4.37,0,0,1,4.9,1.27,4.73,4.73,0,0,1,.27,5.27c-.78,1.56-2,4-4,4.08-.17,0-.52,0-.65-.07s-.09-.37-.08-.56c0-.44,0-.88,0-1.31,0-1,0-1.92,0-2.87,0-2.14-.07-4.28,0-6.42a.63.63,0,0,0-1.25,0Z"/>
          <path d="M182.66,150.4c-.62,2,.62,7.64,2.38,8.77a11.94,11.94,0,0,0,5.71,1.64c.25,0,.57,0,.62-.25a.53.53,0,0,0-.09-.36l-1.91-3.38a13.15,13.15,0,0,0-2.76-3.78c-1.2-1-2.48-3.2-4-2.64"/>
          <path d="M182.06,150.23a10.21,10.21,0,0,0,.33,5.17c.4,1.54,1,3.45,2.41,4.35a10.32,10.32,0,0,0,3.55,1.37c.62.12,1.25.21,1.87.27s1.28.15,1.65-.41-.08-1.15-.35-1.63l-1.21-2.13a25.17,25.17,0,0,0-2.13-3.43,13.79,13.79,0,0,0-1.41-1.45c-.45-.43-.85-.91-1.28-1.35-.79-.8-1.82-1.59-3-1.19-.75.25-.43,1.46.34,1.2s1.4.48,1.87,1c.65.67,1.33,1.32,2,2a13.27,13.27,0,0,1,1.9,2.72l1.86,3.3c.06.11.15.38.25.45l.05.09c.23-.25.23-.36,0-.33s-.51-.05-.7-.07a16.25,16.25,0,0,1-1.7-.27,8.51,8.51,0,0,1-3-1.22c-1-.71-1.43-2.31-1.73-3.43a9.14,9.14,0,0,1-.37-4.63.62.62,0,0,0-1.2-.34Z"/>
          <path d="M185.55,149.05a57.6,57.6,0,0,1,6.86,8.23,2.48,2.48,0,0,0,1,.94c.94.34,2-1.13,2.42-2,.62-1.32,1.2-2.81.73-4.19-.57-1.65-2.4-2.46-4-3.07-1.93-.72-5.23-1-7,.12"/>
          <path d="M185.11,149.5a42.2,42.2,0,0,1,5.09,5.83c.71.94,1.35,2,2.15,2.88a1.79,1.79,0,0,0,2.63.14,6.64,6.64,0,0,0,1.76-2.7,5.47,5.47,0,0,0,.41-3.81c-.71-2.07-3-3.1-5-3.68-2.14-.64-5-.87-6.94.35-.68.43,0,1.51.63,1.08,1.49-.91,3.56-.78,5.2-.43a12.47,12.47,0,0,1,2.45.85,5.12,5.12,0,0,1,2.13,1.57,3.35,3.35,0,0,1,.17,3,6.91,6.91,0,0,1-1.4,2.58c-.16.16-.47.5-.73.47s-.77-.73-1-1c-.62-.85-1.24-1.7-1.88-2.53a42.82,42.82,0,0,0-4.84-5.49c-.59-.54-1.48.34-.88.89Z"/>
          <path d="M170.86,309.46c0,.1-.8,1.13-1.36,1.11s-1.11.13-1.56.11-.79-.45-1.13-.55c-.57-.16-1-1-1.29-1.46a14.1,14.1,0,0,1-2.36-6.31c-.12-1.1-.39-1.53-.49-2.63a6.87,6.87,0,0,0,.13-1.88c0-.27-.05-1.6.63-2.12.1-.07.55,0,.5,0,2.29,3.85,7.57,7.46,6.92,13.93"/>
          <path d="M170.26,309.3c.05-.15-.07.06-.1.09s-.21.24-.33.34a1.57,1.57,0,0,1-1,.26,1.68,1.68,0,0,1-1.23-.14,3.84,3.84,0,0,1-.91-.56,11,11,0,0,1-1.44-2.29,12.86,12.86,0,0,1-1.16-3c-.25-1-.3-2-.53-2.93a4.7,4.7,0,0,1-.16-2c.09-.63,0-1.25,0-1.88a2.27,2.27,0,0,1,.28-.91c-.13.07.24,0,.28,0a.62.62,0,0,0,.38-.2l-1-.13c1.27,2.1,3,3.83,4.46,5.82a11.5,11.5,0,0,1,2.38,7.79c-.08.8,1.17.8,1.25,0a12.35,12.35,0,0,0-2.34-8.11c-1.45-2.12-3.33-3.93-4.67-6.13a.63.63,0,0,0-1-.13l0,0,.44-.18c-2.15,0-1.53,2.57-1.77,4a7.51,7.51,0,0,0,.3,2.74,26,26,0,0,0,.87,3.89,17.47,17.47,0,0,0,1.76,3.41,5.75,5.75,0,0,0,.87,1.2,5.21,5.21,0,0,0,1.11.67,2.09,2.09,0,0,0,1.32.31,7.36,7.36,0,0,0,1.55-.17,2.8,2.8,0,0,0,1.55-1.49c.26-.76-.95-1.09-1.21-.33Z"/>
          <path d="M166.69,294.58c3.15,4.41,4,8.93,7.11,12.58a1,1,0,0,0,.77.48c.32,0,.54-.33.71-.6a17.09,17.09,0,0,0,2.35-5.14,6.79,6.79,0,0,0-.91-5.43,7.61,7.61,0,0,0-2.85-2.19c-2.45-1.21-4.46.06-7.18.3"/>
          <path d="M166.15,294.9a54.43,54.43,0,0,1,4.15,7.8,25,25,0,0,0,2.12,3.69c.56.79,1.47,2.33,2.65,1.74a3.44,3.44,0,0,0,1.12-1.38,23.27,23.27,0,0,0,1.12-2.09,11.51,11.51,0,0,0,1.1-3.81,6.75,6.75,0,0,0-3.1-6.48,6.63,6.63,0,0,0-4.12-1.21c-1.53.11-3,.65-4.5.8-.79.07-.8,1.32,0,1.25,2.13-.22,4.48-1.36,6.59-.52a5.79,5.79,0,0,1,3.91,5.1c.11,2.45-1.07,4.71-2.33,6.73-.13.21-.2.49-.41.41s-.46-.52-.6-.69c-.37-.48-.71-1-1-1.51a34.51,34.51,0,0,1-1.62-3.07,49.94,49.94,0,0,0-4-7.39c-.46-.66-1.55,0-1.08.63Z"/>
          <path d="M152.49,271.67a6.27,6.27,0,0,0-2.53,5.48,19.91,19.91,0,0,0,1.38,6.33,24,24,0,0,0,3.89-7.2,5.14,5.14,0,0,0,.21-3.55c-.47-1.12-2-1.83-2.95-1.06"/>
          <path d="M152.18,271.13c-4.23,2.83-2.78,8.54-1.44,12.52.13.39.73.67,1,.28a22.76,22.76,0,0,0,4.34-8.47,4,4,0,0,0-.74-3.89,2.51,2.51,0,0,0-3.2-.44c-.64.47,0,1.56.63,1.08a1.43,1.43,0,0,1,2,.7c.53,1.12,0,2.51-.35,3.59A23.44,23.44,0,0,1,150.9,283l1,.28c-1.11-3.33-2.79-8.67.87-11.11.66-.45,0-1.53-.63-1.08Z"/>
          <path d="M157.51,273.14a23.21,23.21,0,0,1-3.2,9.48,1.61,1.61,0,0,0-.38,1.12c.14.67,1,.84,1.69.76a6.61,6.61,0,0,0,5.44-8.83c-.54-1.49-2-2.9-3.55-2.53"/>
          <path d="M156.89,273.14A23.56,23.56,0,0,1,155,280c-.22.48-.45.95-.71,1.41a14.59,14.59,0,0,0-.88,1.54,1.53,1.53,0,0,0,1.1,2.12,4.72,4.72,0,0,0,2.89-.36,7.45,7.45,0,0,0,2.66-1.76,7.31,7.31,0,0,0,1.89-6.15c-.33-2.23-2.09-4.74-4.63-4.24-.79.16-.46,1.37.33,1.21,1.82-.37,2.91,1.92,3.1,3.38a6,6,0,0,1-1.63,5,6.13,6.13,0,0,1-2.13,1.42,3.25,3.25,0,0,1-2.26.29c-.38-.18-.13-.51,0-.79s.48-.76.69-1.16a20.82,20.82,0,0,0,1.16-2.54,25.62,25.62,0,0,0,1.49-6.17c.09-.8-1.16-.79-1.25,0Z"/>
          <path d="M134.22,312a2.51,2.51,0,0,1-1,1.42,1.37,1.37,0,0,1-.38.15,4.34,4.34,0,0,1-3.32-1.07,11.62,11.62,0,0,1-3.69-4.61,11.23,11.23,0,0,1-.86-2.84,10.56,10.56,0,0,1-.13-1.48c0-.14.1-1.45.07-1.46,3.37.09,9.14,4.34,9.31,9.89"/>
          <path d="M133.62,311.88a1.41,1.41,0,0,1-1.53,1.16,4.26,4.26,0,0,1-2-.83,10.69,10.69,0,0,1-3-3.19,11,11,0,0,1-1.58-4.46,8.38,8.38,0,0,1,0-1.5,3.26,3.26,0,0,0,0-1.08l-.6.79a9,9,0,0,1,5.41,2.72,9.65,9.65,0,0,1,3.27,6.55c0,.8,1.29.81,1.25,0a10.91,10.91,0,0,0-3.63-7.43,10.31,10.31,0,0,0-6.3-3.09.63.63,0,0,0-.6.79c-.06-.24,0,0,0,.09s0,.21,0,.32,0,.49,0,.73a10,10,0,0,0,.27,2.43,12.3,12.3,0,0,0,2.39,5,9.89,9.89,0,0,0,4,3.19,3.22,3.22,0,0,0,2.53,0,3,3,0,0,0,1.38-1.84.62.62,0,0,0-1.2-.33Z"/>
          <path d="M124.84,300.37c3.64.11,7.37,2,9,5.2.81,1.56,1.12,3.34,2,4.87.12.22.31.47.57.46s.48-.35.58-.65a38.21,38.21,0,0,0,1.15-4.48,7.52,7.52,0,0,0,.19-2.36,6.13,6.13,0,0,0-2.37-3.88,8.61,8.61,0,0,0-6.24-2c-2.24.23-4,.82-4.91,2.88"/>
          <path d="M124.84,301a10.5,10.5,0,0,1,7.5,3.39,12.73,12.73,0,0,1,2.07,4.25c.33.92,1,3.5,2.49,2.78.58-.28.74-1,.91-1.6.26-.87.5-1.74.7-2.62.37-1.61.79-3.35.22-5-1-2.83-4-4.84-6.92-5.29s-6.22.34-7.51,3.11c-.34.73.74,1.36,1.08.63,1-2.15,3.49-2.76,5.71-2.58,2.57.22,5.52,1.95,6.43,4.46.54,1.47.07,3.09-.28,4.55-.17.75-.37,1.5-.6,2.24a3.87,3.87,0,0,1-.29.89c.1,0-.35-.94-.39-1.05-.55-1.3-.88-2.68-1.53-3.94a9.41,9.41,0,0,0-2.18-2.72,12.16,12.16,0,0,0-7.41-2.79c-.81,0-.81,1.22,0,1.25Z"/>
          <path d="M122.54,259.25c-1.25,3.11-.58,5.1.15,7.47s2.41,4.7,4.85,5.27a1.65,1.65,0,0,0,1.83-.47,2,2,0,0,0,.08-1.29l-1.12-6.46c-.28-1.65-.62-3.41-1.82-4.57s-3.26-1.46-4,.05"/>
          <path d="M121.94,259.08a9.32,9.32,0,0,0-.7,4,14.94,14.94,0,0,0,.74,3.45c.7,2.28,2,4.58,4.22,5.65,1,.46,2.32.84,3.27.13,1.15-.85.52-2.59.32-3.73-.28-1.66-.57-3.32-.85-5a11.38,11.38,0,0,0-1.09-3.66,4.5,4.5,0,0,0-2.89-2.26,2.57,2.57,0,0,0-2.95,1.25c-.37.72.7,1.35,1.07.64A1.45,1.45,0,0,1,125,259a3.53,3.53,0,0,1,1.93,1.92,11.31,11.31,0,0,1,.77,2.93c.23,1.27.44,2.55.66,3.82l.32,1.87c.08.42.42,1.36.08,1.73-.57.63-2-.17-2.56-.51a8.12,8.12,0,0,1-3.08-4.72,13,13,0,0,1-.64-2.95,8.24,8.24,0,0,1,.66-3.66c.29-.75-.92-1.08-1.21-.34Z"/>
          <path d="M129.16,260.11l1.7,8.59c.16.79.62,1.8,1.4,1.64a1.46,1.46,0,0,0,.81-.64,9.92,9.92,0,0,0,1.53-8.3,3.7,3.7,0,0,0-.68-1.46,5.39,5.39,0,0,0-2.51-1.23,2.11,2.11,0,0,0-1.8-.09c-.62.17-.47,1.43-.45,1.49"/>
          <path d="M128.56,260.27c.55,2.79,1.09,5.58,1.65,8.37.18.87.54,2,1.5,2.28s1.82-.73,2.32-1.54a10.56,10.56,0,0,0,1.45-6.68,6,6,0,0,0-1.07-3.13c-.72-.89-1.82-1.07-2.83-1.47l-.26-.11a2.38,2.38,0,0,0-.6-.13,2.67,2.67,0,0,0-1.6.31,2.08,2.08,0,0,0-.56,2.1c.16.79,1.36.46,1.2-.33,0,0,0,.07,0-.07a2.8,2.8,0,0,1,0-.29,1,1,0,0,1,.06-.35s.05-.09,0,0,.29-.06.38-.08a2.59,2.59,0,0,1,1.31.28,3.4,3.4,0,0,1,2.13,1.22,6,6,0,0,1,.65,2.56,9.35,9.35,0,0,1-1.05,5.08c-.21.38-.91,1.93-1.41,1.24a6.36,6.36,0,0,1-.65-2.44l-1.41-7.12c-.15-.79-1.36-.46-1.2.33Z"/>
          <path d="M98.56,294.7c-3.11-2.05-3.84-7.16-3.82-11.24,0-.25.06-.56.3-.61a.53.53,0,0,1,.43.2,51,51,0,0,1,6.58,7,4.53,4.53,0,0,1,1,1.8,2.54,2.54,0,0,1-.88,2.49,4.59,4.59,0,0,1-3.59.39"/>
          <path d="M98.87,294.16c-2.82-1.91-3.35-6.09-3.48-9.22,0-.44,0-.88,0-1.32,0,0,0-.19,0-.21v0c-.35,0-.43.07-.26.19s.55.49.71.64q1.22,1.13,2.37,2.31c.79.82,1.55,1.66,2.28,2.53a10.26,10.26,0,0,1,1.86,2.59,1.86,1.86,0,0,1-1,2.41,3.78,3.78,0,0,1-2.46.12c-.73-.31-1.37.77-.63,1.08,1.79.76,4.46.21,5.24-1.72a3.51,3.51,0,0,0-.55-3.36,33.64,33.64,0,0,0-2.62-3.21c-1-1.08-2-2.12-3.06-3.12-.61-.58-2.11-2.44-2.93-1.17a2.54,2.54,0,0,0-.2,1.37c0,.59,0,1.17.07,1.76a23,23,0,0,0,.48,3.4,9.56,9.56,0,0,0,3.57,6.05c.67.45,1.29-.63.63-1.08Z"/>
          <path d="M96.73,282.1a34,34,0,0,1,6.08,5.9c.79,1,1.78,2.13,3,2s2.07-1.87,2-3.29a7.91,7.91,0,0,0-7.33-7.44,3.68,3.68,0,0,0-3.83,2.85"/>
          <path d="M96.42,282.64a36.39,36.39,0,0,1,6.1,6,4.58,4.58,0,0,0,2.85,2,2.67,2.67,0,0,0,2.58-1.48c1.07-2,.51-4.48-.58-6.3a8.71,8.71,0,0,0-5.25-4,5.45,5.45,0,0,0-3.69.23,3.94,3.94,0,0,0-2.3,2.85c-.13.79,1.07,1.13,1.21.34.34-2,2.52-2.65,4.29-2.26a7.39,7.39,0,0,1,4.49,3.17c.94,1.44,1.58,3.48.84,5.13a1.43,1.43,0,0,1-1.95.91,7.44,7.44,0,0,1-2.2-2.2,35.86,35.86,0,0,0-5.76-5.46c-.64-.49-1.26.6-.63,1.08Z"/>
          <path d="M148,225.17a12.11,12.11,0,0,0-6.49,8.72,4.58,4.58,0,0,0,.6,3.63A24.07,24.07,0,0,0,149,227.05a1.68,1.68,0,0,0,.11-1c-.1-.32-.85-1.06-1.15-.92"/>
          <path d="M147.65,224.63a12.71,12.71,0,0,0-5.58,5.54c-1.12,2.17-2.15,5.49-.54,7.67a.65.65,0,0,0,1,.13,24.64,24.64,0,0,0,5.58-7.17,20.63,20.63,0,0,0,.91-2,9,9,0,0,0,.74-2.19c.13-1-.86-2.32-1.94-2.07-.79.17-.45,1.38.33,1.2-.14,0-.09,0,0,.09a1.42,1.42,0,0,1,.25.24.6.6,0,0,1,.07.6,11.44,11.44,0,0,1-.58,1.61,22.71,22.71,0,0,1-1.64,3.27,23.82,23.82,0,0,1-4.6,5.5l1,.13c-1.4-1.89-.3-4.9.71-6.74a11.62,11.62,0,0,1,5-4.76c.72-.36.09-1.44-.63-1.08Z"/>
          <path d="M151.6,227.8,144.82,238a1,1,0,0,0-.23.6.81.81,0,0,0,.29.54,3.11,3.11,0,0,0,3.55.37,7.11,7.11,0,0,0,2.64-2.69,11.16,11.16,0,0,0,1.76-4.32,5.77,5.77,0,0,0-1.05-4.44"/>
          <path d="M151.06,227.49l-4.22,6.35L144.73,237c-.57.85-1.16,1.69-.3,2.58,1.36,1.4,3.65,1,5.08,0a11.62,11.62,0,0,0,3.47-5.13,7,7,0,0,0-.66-6.7c-.49-.63-1.57,0-1.08.63,2.24,2.91.46,7.14-1.76,9.54-.95,1-2.76,2-4,.91-.16-.14-.2-.18-.17-.37s.3-.44.41-.62l.9-1.34,1.66-2.5,3.89-5.87c.45-.68-.63-1.3-1.07-.63Z"/>
          <path d="M99.06,234.48a9.55,9.55,0,0,0,6.64,9c0-2.45.37-3.66-.7-5.87s-3.5-4-5.88-3.38"/>
          <path d="M98.44,234.48a10.25,10.25,0,0,0,7.09,9.58.63.63,0,0,0,.79-.6,29.37,29.37,0,0,0,0-3.51,7.81,7.81,0,0,0-1.24-3.45A6.06,6.06,0,0,0,99,233.6c-.79.18-.45,1.38.33,1.21,2-.45,4,1,5,2.68a6.43,6.43,0,0,1,.88,2.82c.06,1.05,0,2.1-.05,3.15l.79-.6a9,9,0,0,1-6.17-8.38c0-.81-1.28-.81-1.25,0Z"/>
          <path d="M101.41,232.12a12.41,12.41,0,0,1,6.61,7.47,2.52,2.52,0,0,0,1,1.63,1.85,1.85,0,0,0,2.12-.8,5.39,5.39,0,0,0,.58-5.28,8.28,8.28,0,0,0-3.74-4,6.23,6.23,0,0,0-3.72-.92c-1.3.16-2.55.44-2.87,1.7"/>
          <path d="M101.1,232.66a12,12,0,0,1,5.23,4.68,23.94,23.94,0,0,1,1.37,3.22,2,2,0,0,0,2.69,1.21c2.28-1,2.74-4.21,2.09-6.32a8.85,8.85,0,0,0-4.8-5.15,6.84,6.84,0,0,0-4.29-.57,3,3,0,0,0-2.61,2,.63.63,0,0,0,1.21.33c.25-.88,1.16-1.07,2-1.2a5.38,5.38,0,0,1,3.27.56,7.59,7.59,0,0,1,4.06,4.32,5,5,0,0,1,0,3c-.21.68-1,2.18-1.9,1.92-.41-.12-.55-.63-.67-1s-.31-.92-.5-1.38a12.83,12.83,0,0,0-1.45-2.58,13.07,13.07,0,0,0-5-4.17c-.73-.33-1.36.74-.63,1.08Z"/>
          <path d="M80.76,261.6c-.1-3.67,1-5.79,3.44-8.56a38.47,38.47,0,0,1,1.34,8,3.52,3.52,0,0,1-.61,2.65,2.25,2.25,0,0,1-2.66.21,2.87,2.87,0,0,1-1.51-2.35"/>
          <path d="M81.38,261.6a10.51,10.51,0,0,1,.73-4.37,14.85,14.85,0,0,1,2.54-3.75l-1.05-.28a35.27,35.27,0,0,1,1.33,8.22c0,1-.17,2.25-1.42,2.24a2.27,2.27,0,0,1-2.13-2.06c0-.81-1.28-.81-1.25,0a3.57,3.57,0,0,0,2.54,3.19A2.63,2.63,0,0,0,86,263.23a5.34,5.34,0,0,0,.21-2.14c0-.91-.13-1.81-.25-2.71a41.32,41.32,0,0,0-1.1-5.51.63.63,0,0,0-1-.27A16.2,16.2,0,0,0,81,256.73a11.6,11.6,0,0,0-.85,4.87.63.63,0,0,0,1.25,0Z"/>
          <path d="M86.14,252.6a73.2,73.2,0,0,0,.92,8.23c.19,1.08.55,2.3,1.56,2.71a2.12,2.12,0,0,0,2.11-.47,4,4,0,0,0,1.1-2,7.64,7.64,0,0,0-3.13-8.25,2.28,2.28,0,0,0-2.56-.26"/>
          <path d="M85.51,252.6c.12,2.21.35,4.4.66,6.58.24,1.72.39,4.34,2.36,5,2.36.78,3.81-1.88,4.09-3.8a8.33,8.33,0,0,0-1.23-5.65c-1-1.57-3.56-4.08-5.57-2.66-.65.47,0,1.55.63,1.08,1.31-.93,3.18,1.17,3.82,2.15a7.18,7.18,0,0,1,1.17,4.46,5.05,5.05,0,0,1-.69,2.34c-.42.65-1.31,1.25-2.08.78a2.94,2.94,0,0,1-1-2c-.15-.79-.27-1.59-.37-2.38q-.4-2.94-.57-5.91c0-.8-1.29-.8-1.25,0Z"/>
          <path d="M220.07,152.48l-.6,0c1,.56,2.13,1.2,3.24,1.91-2.85,2.69-4.86,6.6-8.94,8.88.06-3.32,3.46-8.51,5.7-10.79"/>
          <path d="M220.07,151.86l-.6,0a.63.63,0,0,0-.31,1.16c1.1.6,2.18,1.24,3.23,1.91l-.12-1c-3,2.89-5.08,6.66-8.82,8.78l.94.54a12.56,12.56,0,0,1,2-5.54,23.76,23.76,0,0,1,3.53-4.8c.57-.58-.32-1.46-.88-.89a24.93,24.93,0,0,0-3.81,5.2,13.68,13.68,0,0,0-2.08,6,.63.63,0,0,0,.94.54,19,19,0,0,0,5-4.32c1.34-1.56,2.57-3.23,4.06-4.66a.63.63,0,0,0-.12-1c-1.06-.67-2.14-1.31-3.24-1.91l-.32,1.17.6,0c.8,0,.8-1.29,0-1.25Z"/>
          <path d="M224.07,155.56c-1.65,3.12-6.71,6.74-8.08,9.43,5,3,10.08-5.09,10.76-7.8-.89-.66-1.79-1.3-2.68-1.9"/>
          <path d="M223.53,155.25a22.69,22.69,0,0,1-4.16,4.86,19.66,19.66,0,0,0-3.92,4.57.63.63,0,0,0,.23.85c4.37,2.55,8.58-2.09,10.54-5.58a10.66,10.66,0,0,0,1.13-2.59.65.65,0,0,0-.29-.71c-.88-.65-1.77-1.28-2.68-1.9-.67-.45-1.29.64-.63,1.08.91.62,1.8,1.25,2.68,1.9l-.29-.7a10.31,10.31,0,0,1-1.16,2.58,15.89,15.89,0,0,1-2.3,3c-1.66,1.73-4,3.16-6.37,1.8l.22.86a19.89,19.89,0,0,1,3.95-4.54,22.71,22.71,0,0,0,4.13-4.89c.38-.71-.7-1.34-1.08-.63Z"/>
          <path d="M235.54,265.17c-3.38,1.41-8.37,4.35-11.65,6-.22.1-.46.25-.49.48-.07.4.47.6.87.63a31.38,31.38,0,0,0,5.71.43,11.13,11.13,0,0,0,2.42-.6c1.9-.64,2.77-.78,2.63-1.54Z"/>
          <path d="M235.38,264.56c-2.61,1.1-5.09,2.47-7.57,3.81-1.18.64-2.35,1.28-3.53,1.89-.47.24-1.11.45-1.38.93a1.08,1.08,0,0,0,.5,1.48,5.67,5.67,0,0,0,2,.35c.91.12,1.83.25,2.75.31a11.6,11.6,0,0,0,4.63-.7c.83-.27,2.29-.5,2.75-1.38a1.4,1.4,0,0,0,.13-.57c0-.07,0-.33,0-.13a.43.43,0,0,0,0-.05c0-.24,0-.48.07-.72l.44-4.61c.07-.8-1.18-.8-1.25,0l-.32,3.35-.17,1.77c0,.06,0,.4,0,.43s-.38.17-.46.2a20,20,0,0,1-3.55,1.09,14.39,14.39,0,0,1-4.44-.16l-1-.13c-.19,0-.38,0-.56-.06a1.67,1.67,0,0,0-.35-.07v.09c0,.12,0,.13.15,0a1.83,1.83,0,0,0,.28-.14l.87-.45c1-.54,2.06-1.1,3.09-1.66,2.38-1.29,4.77-2.63,7.27-3.68C236.44,265.46,236.12,264.25,235.38,264.56Z"/>
          <path d="M235.65,263.52c-3.42,1.52-8.35,2.75-11.77,4.27a1.6,1.6,0,0,1-1.32.17c-.72-.36-.47-1.45-.1-2.17.57-1.1,1.2-2.16,1.87-3.19a12.84,12.84,0,0,1,4.06-4.29c1.71-1,5.8-.82,7.47.26a33.92,33.92,0,0,0-.21,4.95v-2c0,.26,0,.52,0,.77"/>
          <path d="M235.33,263c-2,.88-4.09,1.53-6.16,2.22-1.06.35-2.12.7-3.17,1.08l-1.37.52a6.51,6.51,0,0,1-1.49.59c-1.09.13.33-2.15.51-2.48.59-1,1.22-2,1.91-3,1.11-1.55,2.54-3.13,4.49-3.49a8.25,8.25,0,0,1,5.49.7l-.31-.54a35.58,35.58,0,0,0-.21,4.95.63.63,0,0,0,1.25,0v-2a.63.63,0,0,0-1.25,0v.77a.63.63,0,0,0,1.25,0v-.77H235v2h1.25a35.58,35.58,0,0,1,.21-4.95.6.6,0,0,0-.31-.54,9.33,9.33,0,0,0-5.79-.92,8.15,8.15,0,0,0-5.44,3.54,31.36,31.36,0,0,0-2.31,3.52c-.54.95-1.32,2.09-1.13,3.24s1.47,1.43,2.48,1c1.19-.49,2.38-1,3.6-1.37,2.8-1,5.66-1.79,8.38-3,.74-.32.1-1.4-.63-1.08Z"/>
          <path d="M210.6,305.69c.14.06,0,.35,0,.22.38-.68-6.18-6.28-10.77-6.47a80.4,80.4,0,0,0,6.32,10.41c1.72-1.3,3.4-2.67,5-4.09"/>
          <path d="M210.16,306.13l.05.06-.18-.44,0-.12c-.35.72.71,1.35,1.08.63s-.28-1.35-.73-1.83a19.22,19.22,0,0,0-2.72-2.28c-2.26-1.62-5-3.19-7.84-3.34a.63.63,0,0,0-.54.94,76.69,76.69,0,0,0,6.32,10.42.63.63,0,0,0,.85.22c1.77-1.34,3.49-2.73,5.15-4.19.61-.53-.28-1.41-.88-.88q-2.38,2.08-4.9,4l.86.23a76.69,76.69,0,0,1-6.32-10.42l-.54.94c2.44.13,4.8,1.51,6.76,2.85a20.56,20.56,0,0,1,2.53,2,7.77,7.77,0,0,1,.74.78,1,1,0,0,0,.15.23c0,.05,0,0,0,0s.14-.5,0-.3l1.08.63a.86.86,0,0,0-.1-1c-.51-.63-1.39.26-.89.88Z"/>
          <path d="M205.17,310.6c-1-2.88-5.85-8-7.83-9.39-.76-.54-1.89.2-1.94,1.13-.24,3.9,2.13,8.72,4.21,12Q202.46,312.59,205.17,310.6Z"/>
          <path d="M205.77,310.44a15.92,15.92,0,0,0-2.74-4.37,37.56,37.56,0,0,0-3.84-4.13,10.86,10.86,0,0,0-1.53-1.27,1.87,1.87,0,0,0-2.41.49,3.82,3.82,0,0,0-.42,2.93,16,16,0,0,0,.76,3.42,33,33,0,0,0,3.48,7.17.64.64,0,0,0,.86.22c1.89-1.18,3.75-2.44,5.55-3.76.64-.47,0-1.55-.63-1.07-1.8,1.32-3.66,2.57-5.55,3.75l.85.23c-2.05-3.27-4.14-7.18-4.14-11.13,0-.41,0-.84.34-1.11a.61.61,0,0,1,.84.06,15.82,15.82,0,0,1,1.38,1.2,39.49,39.49,0,0,1,3.3,3.54,15.15,15.15,0,0,1,2.69,4.16C204.84,311.52,206.05,311.2,205.77,310.44Z"/>
          <path d="M121.12,211c2.34-.37,4.67-.8,7-1.25-.72,1.7-.68,2.93-1.41,4.63-.58,1.37-1.47,2.95-3,3a2.71,2.71,0,0,1-2.48-2.33A9.73,9.73,0,0,1,121.12,211Z"/>
          <path d="M121.29,211.58c2.33-.37,4.66-.8,7-1.24l-.77-.77a26.53,26.53,0,0,0-.94,3.27,9.35,9.35,0,0,1-1.29,2.86,1.88,1.88,0,0,1-2,1,2.4,2.4,0,0,1-1.46-2,8,8,0,0,1-.1-3.55.63.63,0,0,0-1.21-.33,9.18,9.18,0,0,0,0,3.87,4,4,0,0,0,1.78,2.93,2.77,2.77,0,0,0,3.19-.36,7.29,7.29,0,0,0,1.85-2.94c.57-1.43.73-3,1.33-4.42.2-.48-.36-.85-.77-.77-2.32.44-4.65.88-7,1.25a.63.63,0,0,0-.44.77A.63.63,0,0,0,121.29,211.58Z"/>
          <path d="M131,209.14c1.62-.35,3.27-.76,4.92-1.22.44,3-1.63,6.76-4.16,8.39a1.88,1.88,0,0,1-1.69.35c-.89-.39-.79-1.68-.52-2.61C130,212.53,130.52,210.64,131,209.14Z"/>
          <path d="M131.18,209.74q2.48-.54,4.92-1.21l-.77-.44a8.36,8.36,0,0,1-2.12,6.08,9.24,9.24,0,0,1-1.17,1.17,2.87,2.87,0,0,1-1.43.79c-1.07.06-.48-1.82-.34-2.33.43-1.5.86-3,1.34-4.49.25-.77-1-1.1-1.2-.34-.51,1.56-1,3.13-1.4,4.71-.32,1.12-.56,2.78.66,3.47s2.88-.52,3.79-1.41a11,11,0,0,0,2.35-3.45,8.53,8.53,0,0,0,.73-4.53.63.63,0,0,0-.77-.44c-1.63.45-3.28.86-4.93,1.22C130.06,208.71,130.39,209.92,131.18,209.74Z"/>
        </g>
      </g>
    </g>
  </g>
</svg>