<?xml version="1.0" encoding="UTF-8" standalone="yes"?>
<svg xmlns="http://www.w3.org/2000/svg" viewBox="0 0 159.94 93.5">
  <defs/>
  <g data-name="Layer_2">
    <g data-name="baby-cat-ears-1-patterns">
      <g data-name="ears-1-pattern-3-mask">
        <path d="M26.89,81.08a49,49,0,0,1-2.26-11l-1.22.17.12.69c.14.79,1.34.46,1.2-.33a90,90,0,0,1,8-54.59l-1.08-.63-.72,1.64c-.32.72.7,1.36,1.08.63.6-1.16,1.23-2.32,1.88-3.46a.63.63,0,0,0-.85-.85,11.17,11.17,0,0,0-2.18,1.51c-1.26,1-2.51,2-3.74,3.09-2.24,1.89-4.44,3.85-6.55,5.89A82.57,82.57,0,0,0,9.16,37.27,56,56,0,0,0,1.9,52.41C.14,58.3-.11,64.23.13,70.34Q.56,81.6,1,92.88a.63.63,0,0,0,.79.6,61.19,61.19,0,0,0,13.42-4.61A75.89,75.89,0,0,0,26.6,81.79c.65-.47,0-1.55-.63-1.08A76.41,76.41,0,0,1,15,87.6,60.4,60.4,0,0,1,1.5,92.28l.79.6L1.51,73.74c-.25-6.16-.54-12.27.88-18.33,2.64-11.27,9.45-21,17.5-29.12,2.23-2.24,4.56-4.38,7-6.44q1.83-1.58,3.72-3.11a15.85,15.85,0,0,1,3.12-2.29l-.86-.86c-.65,1.14-1.28,2.3-1.88,3.46l1.08.63L32.74,16c.31-.72-.73-1.36-1.08-.63A91.4,91.4,0,0,0,23.53,71l1.2-.33-.12-.69c-.12-.69-1.28-.54-1.23.16a49.62,49.62,0,0,0,2.31,11.31C25.93,82.18,27.14,81.85,26.89,81.08Z"/>
        <path d="M159,36.61c-7.38,5.4-16.34,7.94-24.93,10.75-4.6,1.51-9.21,3-13.85,4.37q-3.47,1-7,2c-1.24.33-2.49.66-3.74,1a7.92,7.92,0,0,1-2.79.48l.63.62c-.47-9.11.63-19,4.51-27.34A35.74,35.74,0,0,1,119.73,18c3.08-3,6.22-5.95,9.49-8.73a54.7,54.7,0,0,1,12.2-8.12l-.86-.22,16,32,2.27,4.55c.36.72,1.44.08,1.08-.63l-16-32L141.64.3a.64.64,0,0,0-.85-.23c-8.07,3.77-14.6,10-21,16.11a40.23,40.23,0,0,0-8.46,10.46,47.37,47.37,0,0,0-4.15,12.87,67.79,67.79,0,0,0-1.11,16.27.65.65,0,0,0,.62.63,6,6,0,0,0,2.18-.29q1.88-.46,3.75-1c2.49-.66,5-1.36,7.45-2.09,4.8-1.41,9.56-3,14.31-4.5,8.68-2.84,17.77-5.42,25.24-10.88C160.29,37.22,159.67,36.14,159,36.61Z"/>
        <g data-name="color">
          <path d="M151.13,41.88a123.86,123.86,0,0,1-12.74,4.73c-10.27,3.37-20.55,6.76-31.07,9.24l-.6-.07A66.82,66.82,0,0,1,108.63,36a37.69,37.69,0,0,1,4.8-11.63,52.69,52.69,0,0,1,8.14-8.95c3-2.81,6-5.64,9.21-8.2,6.07,3.09,9.61,9.2,12.91,15.16s5.38,13.05,7.44,19.54c-.24-.53-.48-1.62-.72-2.15"/>
          <path d="M150.82,41.34c-7.15,3.23-14.8,5.43-22.26,7.81-3.69,1.18-7.39,2.33-11.11,3.39q-2.79.81-5.6,1.54c-1.55.41-3.53,1.27-5.13,1.08l.63.62c-.48-9.29.66-19.47,4.79-27.92,2-4.15,5.09-7.48,8.4-10.64s6.95-6.6,10.68-9.6l-.76.1c5.79,3,9.23,8.71,12.31,14.24,3.52,6.32,5.58,13.23,7.76,20.09l1.21-.33c-.29-.71-.45-1.45-.73-2.16s-1.5-.42-1.2.33.44,1.45.72,2.16,1.45.45,1.21-.33c-2.26-7.1-4.43-14.2-8.08-20.73C140.53,15.39,137,9.7,131.09,6.64a.63.63,0,0,0-.75.09c-3.91,3.14-7.57,6.59-11.17,10.07a37.74,37.74,0,0,0-8.3,10.82c-4.05,8.59-5.25,18.76-4.77,28.16a.65.65,0,0,0,.62.63c1.48.17,3.1-.52,4.53-.88q2.93-.75,5.83-1.58c4-1.13,7.89-2.34,11.81-3.59,7.57-2.42,15.31-4.66,22.56-7.94.73-.33.1-1.41-.63-1.08Z"/>
          <path d="M24,70.1a48.81,48.81,0,0,0,2.6,12.13c-7,5.49-16.2,8.77-24.95,10.65L.79,71.29a81.89,81.89,0,0,1,0-9.53A50.44,50.44,0,0,1,9.1,38.49a39.78,39.78,0,0,1,14.12,8.25c.16.16-1.21-.85-1-.88s1.19,1,1,.88a89,89,0,0,0,.91,24.06"/>
          <path d="M23.38,70.1A51.13,51.13,0,0,0,26,82.39l.29-.7c-7.22,5.56-16,8.67-24.8,10.59l.79.6-.6-14.72c-.19-4.74-.54-9.51-.4-14.26.27-9,3.52-17.55,8.35-25.09l-.71.28a40.24,40.24,0,0,1,7.35,3.34,38.47,38.47,0,0,1,3.26,2.1c.59.42,1.16.85,1.71,1.31a6.63,6.63,0,0,1,1.44,1.23l.86-.85a2.66,2.66,0,0,1-.8-.65v.63l0,0-.7.29a1.57,1.57,0,0,1,.64.59l.37-.92h0a.66.66,0,0,0-.46.6A91,91,0,0,0,23.53,71c.14.79,1.34.46,1.2-.33a89.77,89.77,0,0,1-.88-23.89l-.46.61h0a.64.64,0,0,0,.37-.92,2.6,2.6,0,0,0-1.39-1.16.64.64,0,0,0-.7.28l0,0a.62.62,0,0,0,0,.63,4,4,0,0,0,1.24,1.1.63.63,0,0,0,.86-.86A10.79,10.79,0,0,0,21,44.08a38.74,38.74,0,0,0-3.74-2.51,41.82,41.82,0,0,0-8-3.68.63.63,0,0,0-.71.29C3.8,45.62.51,54.06.08,63c-.24,4.9.14,9.83.34,14.72L1,92.88a.63.63,0,0,0,.79.6c8.91-1.94,17.81-5.09,25.1-10.71a.67.67,0,0,0,.29-.71,49.51,49.51,0,0,1-2.59-12c-.06-.79-1.31-.8-1.25,0Z"/>
        </g>
      </g>
    </g>
  </g>
</svg>