<?xml version="1.0" encoding="UTF-8" standalone="yes"?>
<svg xmlns="http://www.w3.org/2000/svg" viewBox="0 0 190.67 82.46">
  <defs/>
  <g data-name="Layer_2">
    <g data-name="baby-cat-ears-2-patterns">
      <g data-name="ears-2-pattern-2-mask">
        <path d="M175.64,60.5a81.77,81.77,0,0,1-25.48-10.08q-5.79-3.64-11.44-7.56a42,42,0,0,1-9.12-8.34,37.63,37.63,0,0,1-3.84-5.91,32.42,32.42,0,0,1-1.46-3.1c-.5-1.19-1.17-2.64-.48-3.87l-.54.3a16.6,16.6,0,0,0,4.75-.5q3.54-.63,7.05-1.38,6.91-1.47,13.74-3.34a242.58,242.58,0,0,0,27-9.12q7.38-3,14.55-6.45l-.92-.71L184.52,20.9l-7.85,32.59-1.79,7.45c-.19.78,1,1.11,1.2.33L181,40.81l7.84-32.59,1.8-7.44a.64.64,0,0,0-.92-.71A242.31,242.31,0,0,1,137,18.36c-2.56.57-5.14,1.1-7.72,1.58a21.17,21.17,0,0,1-6,.75.61.61,0,0,0-.53.31c-.94,1.67-.25,3.44.43,5.07a40.06,40.06,0,0,0,2.94,5.67,39.11,39.11,0,0,0,8.38,9.53,142.44,142.44,0,0,0,11.86,8.17A79.43,79.43,0,0,0,159,56.49a97.9,97.9,0,0,0,16.3,5.22C176.1,61.89,176.43,60.68,175.64,60.5Z"/>
        <path d="M61.64,61.32,65.15,82l.77-.76c-10.45-1.74-20.39-5.57-29.79-10.38C27,66.17,17.37,61,10.29,53.35A51.7,51.7,0,0,1,1.11,39.47v.63a1.78,1.78,0,0,1,.39-.53,11.37,11.37,0,0,1,1.84-.63c1.34-.49,2.69-.95,4-1.4,2.71-.9,5.44-1.73,8.19-2.52,5.41-1.56,10.86-3,16.29-4.47C42,27.77,52,24.67,61.41,19.94A80.15,80.15,0,0,0,69,15.6q1.83-1.18,3.59-2.49a7.11,7.11,0,0,1,2.48-1.43l-.71-.92q-1.91,3-3.54,6.21l1.07.63L72.6,16c.32-.72-.72-1.37-1.08-.63A91.46,91.46,0,0,0,63.4,70.88l1.2-.33-.12-.7c-.12-.69-1.28-.53-1.23.17a48.32,48.32,0,0,0,1,6.65c.18.78,1.39.45,1.21-.33a45.09,45.09,0,0,1-1-6.32l-1.22.16.12.7c.14.79,1.34.46,1.2-.33A90,90,0,0,1,72.6,16l-1.08-.63L70.81,17c-.32.72.7,1.36,1.07.63,1.1-2.12,2.28-4.18,3.55-6.2a.63.63,0,0,0-.7-.92c-2,.5-3.47,2.09-5.1,3.2-2.17,1.47-4.42,2.82-6.72,4.07a107.89,107.89,0,0,1-15.12,6.59C37.06,28.17,25.94,30.72,15,33.88c-2.81.82-5.62,1.67-8.4,2.6-1.35.45-2.7.92-4,1.41-.86.32-1.85.45-2.34,1.27s-.18,1,.15,1.69C1,42.09,1.58,43.31,2.26,44.5a53.29,53.29,0,0,0,4.12,6.16c6.57,8.49,15.68,14,25,19.09,10.72,5.86,22.13,10.7,34.25,12.7a.64.64,0,0,0,.77-.77L62.85,61c-.14-.79-1.34-.45-1.21.33Z"/>
        <g data-name="color">
          <path d="M137.82,18.82c-4.43,1-8.9,1.87-13.38,2.62l-1.16-.12c-.71,1.06-.33,2.48.14,3.67a38.7,38.7,0,0,0,11.52,15.83A100.08,100.08,0,0,1,137.82,18.82Z"/>
          <path d="M137.66,18.22c-2.71.6-5.42,1.17-8.14,1.68-2,.39-4.16,1-6.24.79a.61.61,0,0,0-.53.31c-1,1.72-.2,3.57.5,5.23a38.94,38.94,0,0,0,3,5.65,39.71,39.71,0,0,0,8.29,9.39.63.63,0,0,0,1.06-.45A89.33,89.33,0,0,1,138.43,19a.63.63,0,0,0-1.21-.34,90.71,90.71,0,0,0-2.91,22.17l1.07-.44a38.36,38.36,0,0,1-7.5-8.23,38.76,38.76,0,0,1-2.7-4.67c-.75-1.56-2.33-4.14-1.36-5.84l-.54.3a21.78,21.78,0,0,0,6.15-.75c2.86-.54,5.72-1.13,8.56-1.77C138.77,19.25,138.44,18,137.66,18.22Z"/>
          <path d="M16.83,60.06c-.53-.4-1-.8-1.56-1.21A51.75,51.75,0,0,1,.57,39.78l.37-.62C7,36.84,13.24,35,19.51,33.26a116.48,116.48,0,0,0-2.85,26.45c.57.91.2-1.46,0-1.87"/>
          <path d="M17.15,59.52a51.77,51.77,0,0,1-16-20.05v.63c.31-.51.32-.49.89-.67.75-.24,1.49-.55,2.23-.81q2.58-.91,5.18-1.74c3.4-1.08,6.83-2.07,10.27-3l-.77-.77a112.63,112.63,0,0,0-2.7,19.26c-.09,1.56-.15,3.13-.17,4.7,0,.82-.41,2.73.36,3.3,1.53,1.15,1.09-2.1.86-2.68-.29-.74-1.5-.41-1.2.33.12.31.46,1.31.3,1.59l.54-.31c.39.16.51,0,.38-.38v-.81c0-.56,0-1.11,0-1.67,0-1,.05-2,.1-3q.17-3.41.53-6.81a107.16,107.16,0,0,1,2.18-13.2.63.63,0,0,0-.77-.77c-4.58,1.27-9.14,2.6-13.64,4.14-1,.35-2.1.72-3.14,1.1a5,5,0,0,0-2.19,1c-.95,1.1.28,2.54.82,3.6A53,53,0,0,0,16.51,60.6c.65.48,1.27-.61.64-1.08Z"/>
        </g>
      </g>
    </g>
  </g>
</svg>