<?xml version="1.0" encoding="UTF-8" standalone="yes"?>
<svg xmlns="http://www.w3.org/2000/svg" viewBox="0 0 227.75 78.63">
  <defs/>
  <g data-name="Layer_2">
    <g data-name="baby-cat-ears-3-patterns">
      <g data-name="ears-3-pattern-3-mask">
        <path d="M112.47,4.23C97.75,6.13,83,8.19,68.27,9.7c-7.34.75-14.7,1.35-22.07,1.67s-14.71.29-22.07.34c-4.09,0-8.17.09-12.25.26-2.12.09-4.24.2-6.36.36-1.62.12-3.27.41-4.89.39a.63.63,0,0,0-.6.79c2.42,7.31,7.06,13.56,12.46,19A140.83,140.83,0,0,0,31,47.68,197.65,197.65,0,0,0,75.12,71.21a207.31,207.31,0,0,0,24.65,7.4.64.64,0,0,0,.77-.77,46.28,46.28,0,0,1-1.73-9.25l-1.23.16.12.7c.14.79,1.35.45,1.21-.33a90,90,0,0,1,8-54.59l-1.08-.63-.72,1.64c-.31.72.7,1.36,1.08.63a84.68,84.68,0,0,1,6.82-11c.47-.65-.61-1.28-1.08-.63a84.68,84.68,0,0,0-6.82,11l1.08.63.72-1.64c.32-.73-.73-1.37-1.08-.63A91.47,91.47,0,0,0,97.7,69.45l1.21-.33-.12-.7a.63.63,0,0,0-1.23.17,48.84,48.84,0,0,0,1.77,9.58l.77-.77a209.36,209.36,0,0,1-21-6.05,192.79,192.79,0,0,1-22.93-9.89c-14.33-7.3-28.16-16.27-40-27.18C9.78,28.4,4,21.54,1.23,13.18L.63,14c1.3,0,2.62-.21,3.92-.31,2-.16,3.91-.28,5.86-.38C14,13.11,17.59,13,21.19,13c7.35-.08,14.71,0,22.06-.26,14.76-.48,29.45-2.15,44.08-4,8.38-1.06,16.76-2.16,25.14-3.24.78-.1.79-1.36,0-1.25Z"/>
        <path d="M227,0A123.82,123.82,0,0,1,204.7,3.49c-7.59.64-15.19,1.23-22.77,1.92q-22.71,2.07-45.35,4.8Q124,11.74,111.35,13.46c-.43.06-.53.61-.38.92,7.84,16.11,23.12,26.6,38.7,34.4,8.67,4.33,17.59,8.25,26.64,11.71a56.57,56.57,0,0,0,21.19,3.32c4.33-.07,8.73.37,13-.39,1.51-.27,3.06-.24,4.54-.61a18.39,18.39,0,0,1,4.9-.92.65.65,0,0,0,.62-.63L223,40.82,226.86,8.1l.88-7.47c.1-.8-1.15-.79-1.25,0l-2.41,20.44-3.87,32.72-.88,7.47.63-.62a12.19,12.19,0,0,0-4.12.62,21.79,21.79,0,0,1-4.33.74c-1.17.15-2.32.42-3.5.53-2,.18-4.07,0-6.11,0a116.37,116.37,0,0,1-12-.19,57.69,57.69,0,0,1-10.26-1.95,121.87,121.87,0,0,1-12.73-5q-6.64-2.85-13.16-6c-8.3-4-16.47-8.41-23.72-14.11-7.43-5.84-13.87-13-18-21.54l-.37.92C142,10.51,172.49,7.37,203,4.88c8.16-.66,16.34-1.49,24.25-3.65A.62.62,0,0,0,227,0Z"/>
        <g data-name="color">
          <path d="M172,58.13c0,.24-.51-1.26-.53-1-.81-2.93-.17-6.29.9-9.13q-6.6-2.65-13.13-5.44c-.62-.27-1.31-.61-1.48-1.26l0-.13L173,42.54c-3.51-11.11-3.55-24.19-1-35.57q-30.3,3-60.49,7.1c4.42,9.17,11.6,16.82,19.75,22.91s17.3,10.74,26.55,15C162.5,54.13,167.22,56.2,172,58.13Z"/>
          <path d="M171.56,57.69l0,0,1,.13c-.22-.33-.27-.75-.49-1.07a.63.63,0,0,0-1-.13l0,0,1,.28a14.91,14.91,0,0,1,.9-8.79.64.64,0,0,0-.44-.77q-3.63-1.47-7.25-3l-3.92-1.64c-.33-.14-3-1.09-3-1.45l-.6.45L173,43.17a.63.63,0,0,0,.6-.8c-3.53-11.32-3.55-23.69-1-35.23a.64.64,0,0,0-.61-.79q-30.39,3-60.65,7.11c-.43.06-.53.61-.38.92,8.76,18,26.56,28.77,44.05,37q8.31,3.91,16.82,7.37c.74.31,1.07-.9.33-1.2A255.74,255.74,0,0,1,143.85,44.3c-8.47-4.71-16.51-10.36-23-17.6a56.14,56.14,0,0,1-8.79-12.95l-.37.92Q141.77,10.55,172,7.6l-.6-.79c-2.56,11.75-2.56,24.36,1,35.9l.6-.79-15.26-1.4a.62.62,0,0,0-.6.46,1.86,1.86,0,0,0,1.12,1.8,34.06,34.06,0,0,0,4.16,1.79q4.84,2.05,9.74,4l-.44-.77a16.08,16.08,0,0,0-.89,9.46.63.63,0,0,0,1,.28l0,0-1-.13c.22.32.27.74.5,1.07a.63.63,0,0,0,1,.12l0,0C173,58,172.08,57.07,171.56,57.69Z"/>
          <path d="M52.64,44.91a23.51,23.51,0,0,1-9.25-3.78l-.07.64a42.15,42.15,0,0,0,8.4,5.58C50.42,50,49.46,55.5,49.3,58.48A189.12,189.12,0,0,1,20.17,38.59C11.89,31.68,4,23.6.63,13.34h.5c13.65-1.43,27.42-.8,41.14-1.21,3.15-.09,6.3-.24,9.45-.43a73.73,73.73,0,0,0,.92,32.81"/>
          <path d="M52.81,44.3a24,24,0,0,1-9.1-3.71c-.43-.3-.9.12-.94.54-.08.7-.1.88.44,1.37.75.66,1.57,1.26,2.38,1.85a43.12,43.12,0,0,0,5.81,3.54L51.18,47a32.38,32.38,0,0,0-2.51,11.45l.94-.54A195,195,0,0,1,26.45,42.82C19.71,37.67,13,32.09,7.83,25.32a41.34,41.34,0,0,1-6.6-12.15L.63,14c1.78,0,3.6-.3,5.38-.42,2.12-.16,4.24-.27,6.36-.35C16.69,13,21,13,25.35,13c8.8,0,17.58-.1,26.37-.63l-.6-.79A72.67,72.67,0,0,0,52,44.68a.62.62,0,0,0,1.2-.34,71.43,71.43,0,0,1-.92-32.48.63.63,0,0,0-.6-.79c-8.79.53-17.57.58-26.37.63-4.33,0-8.66.07-13,.24-2.12.08-4.24.19-6.36.35-1.78.12-3.59.44-5.38.42a.63.63,0,0,0-.6.79C2.65,21.41,7.85,28.05,13.8,33.76A156.38,156.38,0,0,0,34.92,50.41Q41.78,55,49,59a.63.63,0,0,0,.94-.54,30.92,30.92,0,0,1,2.34-10.82.63.63,0,0,0-.23-.85A44,44,0,0,1,47.3,44c-.8-.55-1.59-1.12-2.35-1.72a9.71,9.71,0,0,1-.92-.67,1.14,1.14,0,0,1,0-.51l-.94.54a24.79,24.79,0,0,0,9.39,3.84c.79.16,1.13-1,.34-1.21Z"/>
        </g>
      </g>
    </g>
  </g>
</svg>