<?xml version="1.0" encoding="UTF-8" standalone="yes"?>
<svg xmlns="http://www.w3.org/2000/svg" viewBox="0 0 165.9 99.89">
  <defs/>
  <g data-name="Layer_2">
    <g data-name="baby-cat-ears-1-patterns">
      <g data-name="ears-1-pattern-1-mask">
        <g data-name="color">
          <path d="M112.71,56.12a15.83,15.83,0,0,0-6.9,1.76c-.32.18-.68.41-.72.78-.08.63.78.91,1.41.85a6.23,6.23,0,0,0,5-3.35,11.05,11.05,0,0,0-5.72,2.53,6.94,6.94,0,0,0,6.54-2.34,6.64,6.64,0,0,0-6.94,2.33,7,7,0,0,0,7.09-2.78,9.25,9.25,0,0,0-6.36,2.67,8.21,8.21,0,0,0,5.74-1.89,37,37,0,0,0-5.78,2,1,1,0,0,0,1.23-.36"/>
          <path d="M112.71,55.5a16.46,16.46,0,0,0-4.18.63,17.12,17.12,0,0,0-2,.71,5.47,5.47,0,0,0-1.7.95,1.28,1.28,0,0,0-.22,1.57,1.76,1.76,0,0,0,1.31.75,5.65,5.65,0,0,0,3.35-.83,6.85,6.85,0,0,0,2.72-2.8.64.64,0,0,0-.71-.92,11.77,11.77,0,0,0-6,2.69.64.64,0,0,0,.28,1,7.63,7.63,0,0,0,7.16-2.51.63.63,0,0,0-.28-1,7.29,7.29,0,0,0-7.65,2.62.63.63,0,0,0,.38.92A7.64,7.64,0,0,0,113,56.22a.62.62,0,0,0-.53-.94,10,10,0,0,0-6.8,2.84.63.63,0,0,0,.44,1.07,8.92,8.92,0,0,0,6.18-2.07c.5-.42,0-1.19-.61-1a39.35,39.35,0,0,0-5.93,2.08.63.63,0,0,0,0,1.08,1.63,1.63,0,0,0,2.09-.58c.45-.68-.63-1.3-1.08-.63a.33.33,0,0,1-.38.13v1.08A37.6,37.6,0,0,1,112,57.28l-.61-1.05a7.61,7.61,0,0,1-5.3,1.71l.44,1.07a8.64,8.64,0,0,1,5.92-2.48l-.54-.94a6.35,6.35,0,0,1-6.38,2.49l.37.92a6,6,0,0,1,6.24-2l-.28-1a6.35,6.35,0,0,1-5.94,2.18l.28,1a10.62,10.62,0,0,1,5.45-2.38l-.71-.91a5.66,5.66,0,0,1-2.32,2.38,5.53,5.53,0,0,1-1.62.59,4.06,4.06,0,0,1-.69.08c-.13,0-.51,0-.58-.17s.64-.43.77-.49a14.31,14.31,0,0,1,2-.81,15.23,15.23,0,0,1,4.18-.68.63.63,0,0,0,0-1.25Z"/>
          <path d="M113.77,57.11A9.35,9.35,0,0,0,113.4,62a13.64,13.64,0,0,0,1.07-4.31,1.37,1.37,0,0,0-.11-.8,1,1,0,0,0-1.4-.14,2.27,2.27,0,0,0-.68,1.41A7.38,7.38,0,0,0,112.6,62a14.1,14.1,0,0,0,.84-6c-.24-.32-.69.12-.8.5a9.63,9.63,0,0,0,.14,5.77,7.83,7.83,0,0,0,.8-6.63,10.51,10.51,0,0,0-1,6,11.37,11.37,0,0,0,.87-4.57"/>
          <path d="M113.17,56.94a10,10,0,0,0-.37,5.26.63.63,0,0,0,1.14.14,14.3,14.3,0,0,0,1-3.73,3.35,3.35,0,0,0,0-1.91,1.41,1.41,0,0,0-1.3-.77c-1.28,0-1.84,1.24-2,2.33A8.12,8.12,0,0,0,112,62.2a.63.63,0,0,0,1.2,0,15,15,0,0,0,.86-3.85,16,16,0,0,0,0-2c0-.38,0-.73-.38-1a.88.88,0,0,0-.79-.07,1.74,1.74,0,0,0-1,1.35,11.5,11.5,0,0,0-.29,1.94,10.26,10.26,0,0,0,.53,3.81.63.63,0,0,0,1.14.15,8.47,8.47,0,0,0,.86-7.11.63.63,0,0,0-1.14-.15,11.28,11.28,0,0,0-1.11,6.31.63.63,0,0,0,1.23.16,12,12,0,0,0,.89-4.73.63.63,0,0,0-1.25,0,11.22,11.22,0,0,1-.84,4.4l1.22.17a10.07,10.07,0,0,1,.94-5.67L113,55.84a7.26,7.26,0,0,1-.74,6.14l1.14.15a9.22,9.22,0,0,1-.49-3.12,8.3,8.3,0,0,1,.16-1.5,3.68,3.68,0,0,1,.19-.81l.05-.1s.07,0,0-.06a1,1,0,0,1-.34-.07l-.18-.44a13.84,13.84,0,0,1-.82,5.84h1.2a7.16,7.16,0,0,1-.4-2.9c0-.49.12-1.69.76-1.79.26,0,.3.06.29.34a10.14,10.14,0,0,1-.15,1.35,13.43,13.43,0,0,1-.84,2.84l1.14.15a9,9,0,0,1,.37-4.59.62.62,0,0,0-.43-.77.64.64,0,0,0-.77.44Z"/>
          <path d="M6,92.6A6.3,6.3,0,0,0,3.08,94c-.3.24-.6.65-.4,1s.67.28,1,.16a7.21,7.21,0,0,0,3.77-3,8.61,8.61,0,0,0-6,3.85,12.37,12.37,0,0,0,6.2-3.76,9,9,0,0,0-7,3.39c.28.7,1.32.51,2,.16a19.62,19.62,0,0,0,4.48-3.24A8.62,8.62,0,0,0,.64,96.18a2.07,2.07,0,0,0,2.53,0,6,6,0,0,0,1.66-2.15"/>
          <path d="M5.82,92a7.09,7.09,0,0,0-3.09,1.44A1.73,1.73,0,0,0,2,94.75a1.14,1.14,0,0,0,1.1,1,2.87,2.87,0,0,0,1.37-.34,6.57,6.57,0,0,0,1.33-.72A8,8,0,0,0,8,92.46c.33-.51-.22-1-.71-.92A9.23,9.23,0,0,0,.92,95.68a.63.63,0,0,0,.71.91A13.05,13.05,0,0,0,8.1,92.67a.63.63,0,0,0-.44-1.06A9.67,9.67,0,0,0,.17,95.17a.67.67,0,0,0-.09.76c.68,1.46,2.59.56,3.55,0a20.72,20.72,0,0,0,3.9-3,.64.64,0,0,0-.44-1.07,9.29,9.29,0,0,0-7,4,.62.62,0,0,0,.1.75,2.61,2.61,0,0,0,3,.3,5.76,5.76,0,0,0,2.19-2.54c.39-.71-.69-1.34-1.08-.63a5.16,5.16,0,0,1-1.48,1.94,1.44,1.44,0,0,1-1.73,0l.1.76a8,8,0,0,1,5.91-3.34L6.64,92.1a18.73,18.73,0,0,1-3.11,2.43A7.1,7.1,0,0,1,2,95.36a1.43,1.43,0,0,1-.61.1.32.32,0,0,1-.14,0s0,0-.09-.14l-.1.76a8.45,8.45,0,0,1,6.6-3.2l-.44-1.07a11.93,11.93,0,0,1-5.93,3.6l.71.92a8,8,0,0,1,5.63-3.56l-.7-.92a6.55,6.55,0,0,1-3.29,2.62c-.11,0-.28,0-.38.1s-.08,0-.09,0,.15.16.07.17.25-.3.28-.33a3.81,3.81,0,0,1,.41-.29,5.82,5.82,0,0,1,2.22-.9c.79-.15.45-1.36-.33-1.21Z"/>
          <path d="M7,95.39a13.27,13.27,0,0,0-.32,3.32A4.82,4.82,0,0,0,7.19,94a12,12,0,0,0-.35,5.08,13.12,13.12,0,0,0,.46-6.22,7.46,7.46,0,0,0-1.57,5.19c0,.57.39,1.31,1,1.2A53,53,0,0,0,8,93.86c.06-.33.08-.75-.22-.91s-.67.15-.87.45a6.78,6.78,0,0,0-1.19,4.23c0,.63.51,1.45,1.07,1.18a1,1,0,0,0,.41-.48,12.82,12.82,0,0,0,1.38-5,3,3,0,0,0-1.87,3"/>
          <path d="M6.42,95.22a14.16,14.16,0,0,0-.34,3.49A.63.63,0,0,0,7.24,99a5.51,5.51,0,0,0,.49-5.34c-.22-.52-1-.32-1.14.15a13,13,0,0,0-.36,5.41.63.63,0,0,0,1.21,0,13.93,13.93,0,0,0,.46-6.54.63.63,0,0,0-1-.28A8.22,8.22,0,0,0,5.13,96.6a5.15,5.15,0,0,0,.09,2.07c.21.64.72,1.31,1.47,1.21a.64.64,0,0,0,.6-.46c.48-1.61.89-3.25,1.21-4.91.14-.67.36-1.6-.35-2.06s-1.54.22-1.94.86a7.23,7.23,0,0,0-1.12,4.36A2.12,2.12,0,0,0,6,99.34c.72.42,1.42-.1,1.75-.75a13.55,13.55,0,0,0,1.43-5.21.62.62,0,0,0-.79-.61,3.7,3.7,0,0,0-2.32,3.62.63.63,0,0,0,1.25,0A2.44,2.44,0,0,1,8.74,94l-.8-.6a11.94,11.94,0,0,1-.77,3.47,8,8,0,0,1-.32.75c0,.05-.36.66-.36.67s.16,0,.15,0-.09-.07-.1-.08a1.24,1.24,0,0,1-.21-.55,5.87,5.87,0,0,1,.61-3.07,8.13,8.13,0,0,1,.4-.71,1.83,1.83,0,0,1,.21-.26l.1-.07c0,.07-.35-.08-.26-.12a2.18,2.18,0,0,1,0,.42l-.21,1c-.3,1.43-.66,2.84-1.07,4.24l.6-.46a.26.26,0,0,1-.15,0s0,0,0,0a1.08,1.08,0,0,1-.08-.11A1.42,1.42,0,0,1,6.35,98a6.53,6.53,0,0,1,.07-1.65,6.72,6.72,0,0,1,1.32-3L6.7,93a12.6,12.6,0,0,1-.47,5.88H7.44a11.22,11.22,0,0,1,.36-4.75l-1.15.15a4.26,4.26,0,0,1-.49,4.08l1.17.31a12.38,12.38,0,0,1,.3-3.15c.17-.79-1-1.12-1.21-.34Z"/>
        </g>
        <path d="M32.85,81.08a48.49,48.49,0,0,1-2.26-11l-1.23.17.13.69c.13.79,1.34.46,1.2-.33a90,90,0,0,1,8-54.59l-1.08-.63-.72,1.64c-.31.72.71,1.36,1.08.63.61-1.16,1.24-2.32,1.89-3.46a.63.63,0,0,0-.86-.85,11.1,11.1,0,0,0-2.17,1.51c-1.26,1-2.51,2-3.75,3.09q-3.36,2.84-6.55,5.89A82.57,82.57,0,0,0,15.11,37.27,56.35,56.35,0,0,0,7.85,52.41,54.42,54.42,0,0,0,6.08,70.34c.29,7.51.61,15,.91,22.54a.64.64,0,0,0,.79.6,61.27,61.27,0,0,0,13.43-4.61,76.92,76.92,0,0,0,11.35-7.08c.65-.47,0-1.55-.63-1.08A77,77,0,0,1,21,87.6,60.48,60.48,0,0,1,7.45,92.28l.79.6L7.47,73.74c-.25-6.16-.54-12.27.88-18.33,2.64-11.27,9.44-21,17.5-29.12q3.34-3.36,6.94-6.44,1.85-1.58,3.72-3.11a16.22,16.22,0,0,1,3.13-2.29l-.86-.86c-.65,1.14-1.28,2.3-1.89,3.46l1.08.63L38.69,16c.32-.72-.72-1.36-1.08-.63A91.4,91.4,0,0,0,29.49,71l1.2-.33-.12-.69c-.12-.69-1.28-.54-1.23.16a50.15,50.15,0,0,0,2.3,11.31C31.88,82.18,33.09,81.85,32.85,81.08Z"/>
        <path d="M165,36.61C157.58,42,148.62,44.55,140,47.36c-4.6,1.51-9.21,3-13.85,4.37-2.32.69-4.64,1.35-7,2-1.25.33-2.5.66-3.75,1a7.86,7.86,0,0,1-2.78.48l.62.62c-.46-9.11.64-19,4.52-27.34A35.39,35.39,0,0,1,125.69,18c3.07-3,6.21-5.95,9.49-8.73a54.64,54.64,0,0,1,12.19-8.12l-.85-.22,16,32,2.27,4.55c.36.72,1.43.08,1.08-.63l-16-32L147.6.3a.65.65,0,0,0-.86-.23c-8.06,3.77-14.59,10-21,16.11a40.27,40.27,0,0,0-8.47,10.46,47.72,47.72,0,0,0-4.15,12.87,68.83,68.83,0,0,0-1.11,16.27.65.65,0,0,0,.63.63,6,6,0,0,0,2.18-.29q1.88-.46,3.75-1,3.73-1,7.45-2.09c4.8-1.41,9.56-3,14.31-4.5,8.68-2.84,17.76-5.42,25.23-10.88C166.24,37.22,165.62,36.14,165,36.61Z"/>
      </g>
    </g>
  </g>
</svg>