<?xml version="1.0" encoding="UTF-8" standalone="yes"?>
<svg xmlns="http://www.w3.org/2000/svg" viewBox="0 0 159.91 93.5">
  <defs/>
  <g data-name="Layer_2">
    <g data-name="baby-cat-ears-1-patterns">
      <g data-name="ears-1-pattern-2-mask">
        <path d="M26.86,81.08a49,49,0,0,1-2.25-11l-1.23.17.12.69c.14.79,1.34.46,1.21-.33a90,90,0,0,1,8-54.59l-1.08-.63-.72,1.64c-.32.72.7,1.36,1.08.63.6-1.16,1.23-2.32,1.88-3.46a.63.63,0,0,0-.85-.85,11.17,11.17,0,0,0-2.18,1.51c-1.26,1-2.51,2-3.74,3.09-2.24,1.89-4.44,3.85-6.55,5.89A82.57,82.57,0,0,0,9.13,37.27,56,56,0,0,0,1.87,52.41C.11,58.3-.14,64.23.1,70.34Q.54,81.6,1,92.88a.63.63,0,0,0,.79.6,61.19,61.19,0,0,0,13.42-4.61,76.5,76.5,0,0,0,11.36-7.08c.64-.47,0-1.55-.64-1.08A75.86,75.86,0,0,1,15,87.6,60.4,60.4,0,0,1,1.47,92.28l.79.6L1.48,73.74c-.24-6.16-.54-12.27.88-18.33,2.64-11.27,9.45-21,17.51-29.12,2.22-2.24,4.55-4.38,6.94-6.44q1.83-1.58,3.72-3.11a15.85,15.85,0,0,1,3.12-2.29l-.85-.86c-.66,1.14-1.29,2.3-1.89,3.46l1.08.63L32.71,16c.31-.72-.73-1.36-1.08-.63A91.48,91.48,0,0,0,23.5,71l1.21-.33-.13-.69a.62.62,0,0,0-1.22.16,50.15,50.15,0,0,0,2.3,11.31C25.9,82.18,27.11,81.85,26.86,81.08Z"/>
        <path d="M159,36.61c-7.39,5.4-16.35,7.94-24.94,10.75-4.6,1.51-9.2,3-13.84,4.37q-3.48,1-7,2c-1.24.33-2.49.66-3.74,1a7.92,7.92,0,0,1-2.79.48l.63.62c-.47-9.11.63-19,4.51-27.34A35.74,35.74,0,0,1,119.7,18c3.08-3,6.22-5.95,9.49-8.73a54.7,54.7,0,0,1,12.2-8.12l-.86-.22,16,32,2.26,4.55c.36.72,1.44.08,1.08-.63l-16-32L141.61.3a.64.64,0,0,0-.85-.23c-8.07,3.77-14.6,10-21,16.11a40.44,40.44,0,0,0-8.46,10.46,47.37,47.37,0,0,0-4.15,12.87,67.79,67.79,0,0,0-1.11,16.27.65.65,0,0,0,.62.63,6,6,0,0,0,2.18-.29q1.88-.46,3.75-1,3.75-1,7.45-2.09c4.8-1.41,9.56-3,14.32-4.5,8.67-2.84,17.76-5.42,25.23-10.88C160.26,37.22,159.64,36.14,159,36.61Z"/>
        <g data-name="color">
          <path d="M127.24,50.22c-6.59,2.09-13.22,4-19.95,5.63l-.6-.07A66.49,66.49,0,0,1,108.61,36a45.89,45.89,0,0,1,2-6.37,30.72,30.72,0,0,1,16.46,19.69c.12.94.14.82.12.6"/>
          <path d="M127.07,49.62c-3.52,1.11-7.06,2.19-10.62,3.2q-2.55.72-5.11,1.39c-1.42.36-3.18,1.12-4.65.95l.63.62a61.75,61.75,0,0,1,3.94-26l-.92.38a30.21,30.21,0,0,1,14.38,14.39A28.67,28.67,0,0,1,126,47.84a14.15,14.15,0,0,1,.51,1.83,1.6,1.6,0,0,0,.15.68.64.64,0,0,0,1.17-.32.76.76,0,0,0,0-.15c0-.8-1.29-.81-1.25,0a.76.76,0,0,1,0,.15l1.16-.31c0-.07-.2-1.13-.26-1.33-.16-.53-.33-1.07-.52-1.59a30.73,30.73,0,0,0-1.28-3.08A31.76,31.76,0,0,0,122,37.77a31.11,31.11,0,0,0-11-8.72.64.64,0,0,0-.92.37,62.8,62.8,0,0,0-4,26.36.65.65,0,0,0,.62.63,11.9,11.9,0,0,0,4-.76c1.87-.47,3.73-1,5.58-1.5,3.72-1,7.41-2.16,11.08-3.33.77-.24.44-1.45-.33-1.2Z"/>
          <path d="M23.85,83A59.82,59.82,0,0,1,1.63,92.88L.76,71.29C.71,69.93.65,68.58.63,67.22A42,42,0,0,1,13,73.06a35.14,35.14,0,0,1,3.13,2.58C18.66,77.87,22.3,80.07,23.85,83Z"/>
          <path d="M23.53,82.49A60.18,60.18,0,0,1,1.47,92.28l.79.6c-.35-8.55-.83-17.1-1-25.66l-.79.6a36.8,36.8,0,0,1,13.22,6.5c1.71,1.37,3.33,2.84,5.05,4.21a17.23,17.23,0,0,1,4.58,4.82c.39.7,1.47.07,1.08-.63a16.91,16.91,0,0,0-4.48-4.83c-1.92-1.55-3.76-3.22-5.7-4.73A38.21,38.21,0,0,0,.79,66.62a.63.63,0,0,0-.79.6c.18,8.56.66,17.11,1,25.66a.63.63,0,0,0,.79.6,61,61,0,0,0,22.36-9.91C24.81,83.11,24.19,82,23.53,82.49Z"/>
        </g>
      </g>
    </g>
  </g>
</svg>