<?xml version="1.0" encoding="UTF-8" standalone="yes"?>
<svg xmlns="http://www.w3.org/2000/svg" viewBox="0 0 234.06 78.63">
  <defs/>
  <g data-name="Layer_2">
    <g data-name="baby-cat-ears-3-patterns">
      <g data-name="ears-3-pattern-1-mask">
        <path d="M118.78,4.23c-14.72,1.9-29.43,4-44.2,5.47-7.34.75-14.69,1.35-22.06,1.67s-14.72.29-22.08.34c-4.08,0-8.17.09-12.25.26-2.12.09-4.24.2-6.35.36-1.62.12-3.27.41-4.9.39a.63.63,0,0,0-.6.79c2.43,7.31,7.07,13.56,12.46,19a141.49,141.49,0,0,0,18.46,15.2A198.08,198.08,0,0,0,81.43,71.21a207.31,207.31,0,0,0,24.65,7.4.63.63,0,0,0,.77-.77,47.74,47.74,0,0,1-1.73-9.25l-1.22.16.12.7c.14.79,1.34.45,1.2-.33a90,90,0,0,1,8-54.59l-1.08-.63-.71,1.64c-.32.72.7,1.36,1.07.63a84.68,84.68,0,0,1,6.82-11c.48-.65-.61-1.28-1.08-.63a83.54,83.54,0,0,0-6.81,11l1.07.63.72-1.64c.32-.73-.72-1.37-1.08-.63A91.46,91.46,0,0,0,104,69.45l1.2-.33-.12-.7c-.12-.69-1.28-.54-1.23.17a48.86,48.86,0,0,0,1.78,9.58l.77-.77a209.54,209.54,0,0,1-21-6.05,192.65,192.65,0,0,1-22.92-9.89c-14.34-7.3-28.16-16.27-40-27.18-6.4-5.88-12.17-12.74-14.94-21.1L6.94,14c1.31,0,2.62-.21,3.92-.31,2-.16,3.91-.28,5.87-.38,3.58-.17,7.18-.25,10.77-.29,7.36-.08,14.71,0,22.07-.26,14.75-.48,29.44-2.15,44.08-4C102,7.66,110.4,6.56,118.78,5.48c.79-.1.8-1.36,0-1.25Z"/>
        <path d="M233.27,0A123.79,123.79,0,0,1,211,3.49c-7.59.64-15.18,1.23-22.77,1.92q-22.71,2.07-45.34,4.8-12.63,1.53-25.24,3.25c-.43.06-.53.61-.37.92C125.12,30.49,140.4,41,156,48.78c8.67,4.33,17.58,8.25,26.63,11.71a56.57,56.57,0,0,0,21.19,3.32c4.34-.07,8.74.37,13-.39,1.5-.27,3-.24,4.54-.61a18.31,18.31,0,0,1,4.89-.92.64.64,0,0,0,.62-.63l2.42-20.44L233.17,8.1l.89-7.47c.09-.8-1.16-.79-1.25,0l-2.42,20.44-3.86,32.72-.89,7.47.63-.62a12.23,12.23,0,0,0-4.12.62,21.81,21.81,0,0,1-4.32.74c-1.18.15-2.33.42-3.51.53-2,.18-4.07,0-6.1,0a116.56,116.56,0,0,1-12-.19A57.58,57.58,0,0,1,186,60.38a122,122,0,0,1-12.74-5q-6.63-2.85-13.15-6c-8.31-4-16.47-8.41-23.73-14.11-7.42-5.84-13.86-13-18-21.54l-.38.92c30.36-4.16,60.82-7.3,91.35-9.79,8.16-.66,16.34-1.49,24.26-3.65A.62.62,0,0,0,233.27,0Z"/>
        <g data-name="color">
          <path d="M116.05,12.13l2.56,2.35a6.55,6.55,0,0,0-5.34-3.93l4.18,3.93a4.73,4.73,0,0,0-5.31-4.77,10.75,10.75,0,0,0,6.25,4.36,13.21,13.21,0,0,0-6-4.62.7.7,0,0,0-.53.83,1.9,1.9,0,0,0,.55.93,15.41,15.41,0,0,0,5.12,3.64,7.23,7.23,0,0,0-3.89-5c-.48-.22-1.16-.34-1.43.12a1.12,1.12,0,0,0,.2,1.08,10.27,10.27,0,0,0,5.23,4.22,6,6,0,0,0-4.38,1.11,41.57,41.57,0,0,0,5.47-2,7.88,7.88,0,0,0-7.41,2.6,7.86,7.86,0,0,0,6.29-1.12,13.31,13.31,0,0,0-3.78-.09,4.45,4.45,0,0,0-3.12,1.95,12.12,12.12,0,0,1,6.57-1.82c-2.07-1-4.46.32-6.31,1.68a21.66,21.66,0,0,1,5.47-1.85,11.32,11.32,0,0,0-6.37,1.78c2.2.79,4.55-.5,6.54-1.73a6.32,6.32,0,0,0-6.15,1.94A8.54,8.54,0,0,0,117,16"/>
          <path d="M115.6,12.57l2.56,2.35a.63.63,0,0,0,1-.76,7.21,7.21,0,0,0-5.88-4.24.64.64,0,0,0-.44,1.07L117,14.92a.63.63,0,0,0,1.06-.44A5.35,5.35,0,0,0,112,9.11a.62.62,0,0,0-.37.91,11.44,11.44,0,0,0,6.63,4.65c.48.13,1-.45.7-.92a13.9,13.9,0,0,0-5.37-4.48C113,9,112.46,8.66,111.9,9a1.39,1.39,0,0,0-.61,1.47,3.12,3.12,0,0,0,1,1.47,17.68,17.68,0,0,0,1.36,1.24,16.33,16.33,0,0,0,3.63,2.23.63.63,0,0,0,.92-.7,7.76,7.76,0,0,0-4.35-5.49,1.88,1.88,0,0,0-1.59-.06,1.29,1.29,0,0,0-.61,1.56,5.39,5.39,0,0,0,1,1.63,10.35,10.35,0,0,0,1.24,1.32,11.12,11.12,0,0,0,3.65,2.18l.17-1.23a6.67,6.67,0,0,0-4.7,1.2c-.54.4-.24,1.36.48,1.15a44.37,44.37,0,0,0,5.62-2,.63.63,0,0,0-.15-1.14,8.53,8.53,0,0,0-8,2.76.64.64,0,0,0,.28,1.05A8.57,8.57,0,0,0,118,16.38a.63.63,0,0,0-.32-1.16c-2.63-.32-5.86-.42-7.44,2.17a.63.63,0,0,0,.86.85,11.61,11.61,0,0,1,6.25-1.73c.59,0,.9-.9.32-1.17-2.44-1.1-5,.23-6.94,1.68a.63.63,0,0,0,.63,1.08,21.22,21.22,0,0,1,5.32-1.78c.71-.14.52-1.22-.17-1.23A12,12,0,0,0,109.78,17a.63.63,0,0,0,.15,1.14c2.48.84,5-.51,7-1.79a.63.63,0,0,0-.14-1.14,7,7,0,0,0-6.76,2.1c-.27.3-.22,1,.28,1a9.3,9.3,0,0,0,7.1-1.9.63.63,0,0,0,0-.89.65.65,0,0,0-.88,0,7.93,7.93,0,0,1-5.89,1.58l.28,1.05a5.73,5.73,0,0,1,5.53-1.78l-.15-1.14c-1.76,1.1-3.91,2.39-6,1.66l.15,1.15a10.78,10.78,0,0,1,6-1.69l-.16-1.23A22.34,22.34,0,0,0,110.69,17l.63,1.08c1.52-1.11,3.73-2.56,5.68-1.68l.31-1.16a12.84,12.84,0,0,0-6.88,1.9l.85.86c1.31-2.15,4.25-1.81,6.36-1.55l-.31-1.17a7.29,7.29,0,0,1-5.81,1.06l.28,1A7.25,7.25,0,0,1,118.59,15l-.15-1.14a41.11,41.11,0,0,1-5.32,1.92l.48,1.14a5.63,5.63,0,0,1,4.07-1,.61.61,0,0,0,.61-.54.63.63,0,0,0-.44-.69,9.63,9.63,0,0,1-3.16-1.9,9.89,9.89,0,0,1-1.17-1.25c-.13-.17-.84-1.13-.72-1.22s1.1.39,1.29.51a6.06,6.06,0,0,1,1.3,1.12A6.56,6.56,0,0,1,117,15l.92-.71a15,15,0,0,1-3.27-1.94,17.27,17.27,0,0,1-1.42-1.28c-.09-.09-1-1-.61-1h-.33a12.6,12.6,0,0,1,5.61,4.33l.7-.92a10.14,10.14,0,0,1-5.88-4.08l-.37.92a4.1,4.1,0,0,1,4.51,4.17l1.07-.45-4.17-3.92-.45,1.06a6,6,0,0,1,4.8,3.62l1-.75-2.56-2.36c-.59-.54-1.48.34-.89.89Z"/>
          <path d="M6.6,10.71a8.09,8.09,0,0,0,1.52,1.88A10.56,10.56,0,0,0,5.79,7.46c-.31-.37-.85-.74-1.22-.42a.91.91,0,0,0-.17.87,7.87,7.87,0,0,0,2.75,4.67A5,5,0,0,0,4.54,8.12a7.38,7.38,0,0,0,2.85,4.37,5.19,5.19,0,0,0-3-4.75,19.17,19.17,0,0,0,2.77,5C5.65,14.52,2,12.36.64,14.25q3.21-.33,6.38-.91A6.14,6.14,0,0,0,1.34,14,7.62,7.62,0,0,0,8,13.73c-2.53-.36-5.4-.62-7.37,1a8,8,0,0,0,6.69-.61,5.77,5.77,0,0,0-6.43.52,17.73,17.73,0,0,0,6.18-1.24,10.47,10.47,0,0,0-4.79,0"/>
          <path d="M6.06,11a9.74,9.74,0,0,0,1.61,2,.63.63,0,0,0,1.05-.61A10.91,10.91,0,0,0,7.3,8.52c-.53-.91-1.66-2.79-3-2.08S4,9.05,4.39,10A8.26,8.26,0,0,0,6.71,13a.63.63,0,0,0,1.07-.44,5.67,5.67,0,0,0-2.92-5,.64.64,0,0,0-.92.71A8.11,8.11,0,0,0,7.07,13c.4.3.94-.11.94-.54A5.81,5.81,0,0,0,4.72,7.2c-.44-.2-1.13.15-.92.71a19.89,19.89,0,0,0,2.83,5.15l.1-.75c-.76.85-2.18.56-3.2.5C2.24,12.74,1,12.83.1,13.93a.63.63,0,0,0,.54.94c2.19-.22,4.38-.53,6.55-.93a.62.62,0,0,0,.46-.6.65.65,0,0,0-.46-.6A6.77,6.77,0,0,0,1,13.47c-.34.24-.46.88,0,1.08a8.38,8.38,0,0,0,7.34-.28c.43-.24.39-1.07-.15-1.14-2.71-.38-5.71-.67-8,1.17-.4.32-.12.9.27,1a8.66,8.66,0,0,0,7.17-.67.63.63,0,0,0,0-1.08,6.46,6.46,0,0,0-7.19.61c-.43.35-.06,1.08.45,1.07A18.59,18.59,0,0,0,7.27,14c.53-.2.66-1.06,0-1.2a11.35,11.35,0,0,0-5.12,0c-.78.19-.45,1.4.34,1.21a10,10,0,0,1,4.45,0v-1.2A17.45,17.45,0,0,1,.93,14l.44,1.07A5.14,5.14,0,0,1,7,14.67V13.59a7.45,7.45,0,0,1-6.2.55l.27,1C3,13.68,5.69,14,7.87,14.33l-.15-1.14a7,7,0,0,1-6.07.28v1.08a5.65,5.65,0,0,1,5.21-.61v-1.2c-2.06.38-4.14.67-6.22.88l.54.94c.61-.8,2.11-.51,3-.46,1.21.08,2.57.07,3.44-.91a.63.63,0,0,0,.1-.76A18.92,18.92,0,0,1,5,7.58l-.92.7a4.6,4.6,0,0,1,2.67,4.21L7.7,12A6.85,6.85,0,0,1,5.14,8l-.91.7a4.42,4.42,0,0,1,2.3,3.92l1.06-.44A7.5,7.5,0,0,1,5.75,9.91,7.21,7.21,0,0,1,5.2,8.56,5.49,5.49,0,0,1,5,7.86c0-.08,0-.19,0-.27v-.1c0-.08,0-.06-.08,0s0,0,0,0A.31.31,0,0,1,5,7.61a1.57,1.57,0,0,1,.24.21,5.13,5.13,0,0,1,.45.57,11.11,11.11,0,0,1,.81,1.32,10.28,10.28,0,0,1,1,3l1.05-.6A8,8,0,0,1,7.14,10.4.63.63,0,0,0,6.06,11Z"/>
        </g>
      </g>
    </g>
  </g>
</svg>