<?xml version="1.0" encoding="UTF-8" standalone="yes"?>
<svg xmlns="http://www.w3.org/2000/svg" viewBox="0 0 190.67 82.46">
  <defs/>
  <g data-name="Layer_2">
    <g data-name="baby-cat-ears-2-patterns">
      <g data-name="ears-2-pattern-3-mask">
        <path d="M175.65,60.5a81.68,81.68,0,0,1-25.48-10.08c-3.86-2.43-7.69-5-11.44-7.56a41.81,41.81,0,0,1-9.12-8.34,38.41,38.41,0,0,1-3.85-5.91c-.53-1-1-2-1.46-3.1s-1.16-2.64-.47-3.87l-.54.3a16.67,16.67,0,0,0,4.75-.5q3.53-.63,7-1.38,6.93-1.47,13.74-3.34a241.88,241.88,0,0,0,27-9.12q7.38-3,14.56-6.45l-.92-.71L184.52,20.9l-7.84,32.59-1.8,7.45c-.19.78,1,1.11,1.21.33L181,40.81l7.85-32.59L190.65.78a.63.63,0,0,0-.91-.71A242.5,242.5,0,0,1,137,18.36q-3.86.86-7.72,1.58a21.17,21.17,0,0,1-6,.75.63.63,0,0,0-.54.31c-.93,1.67-.24,3.44.44,5.07a39.48,39.48,0,0,0,11.31,15.2c3.71,3,7.87,5.53,11.86,8.17A79.53,79.53,0,0,0,159,56.49a97.9,97.9,0,0,0,16.3,5.22C176.1,61.89,176.44,60.68,175.65,60.5Z"/>
        <path d="M61.65,61.32,65.16,82l.77-.76c-10.46-1.74-20.4-5.57-29.8-10.38C27,66.17,17.38,61,10.3,53.35A52,52,0,0,1,1.11,39.47v.63a1.79,1.79,0,0,1,.4-.53,11.37,11.37,0,0,1,1.84-.63c1.34-.49,2.69-.95,4-1.4,2.71-.9,5.44-1.73,8.18-2.52,5.41-1.56,10.87-3,16.3-4.47C42,27.77,52,24.67,61.41,19.94A78.92,78.92,0,0,0,69,15.6q1.85-1.18,3.6-2.49a7,7,0,0,1,2.47-1.43l-.7-.92q-1.9,3-3.55,6.21l1.08.63L72.61,16c.32-.72-.72-1.37-1.08-.63A91.47,91.47,0,0,0,63.4,70.88l1.21-.33-.12-.7c-.12-.69-1.28-.53-1.23.17a46.84,46.84,0,0,0,1,6.65c.18.78,1.38.45,1.21-.33a45.09,45.09,0,0,1-1-6.32l-1.23.16.12.7c.14.79,1.35.46,1.21-.33a90,90,0,0,1,8-54.59l-1.08-.63L70.81,17c-.31.72.7,1.36,1.08.63,1.1-2.12,2.28-4.18,3.55-6.2a.63.63,0,0,0-.71-.92c-1.94.5-3.46,2.09-5.09,3.2-2.17,1.47-4.42,2.82-6.73,4.07A107.77,107.77,0,0,1,47.8,24.34C37.06,28.17,25.94,30.72,15,33.88c-2.82.82-5.62,1.67-8.4,2.6-1.36.45-2.7.92-4,1.41-.86.32-1.86.45-2.35,1.27s-.18,1,.16,1.69C1,42.09,1.59,43.31,2.27,44.5a50.84,50.84,0,0,0,4.12,6.16c6.57,8.49,15.67,14,25,19.09,10.72,5.86,22.13,10.7,34.24,12.7a.63.63,0,0,0,.77-.77L62.86,61c-.14-.79-1.34-.45-1.21.33Z"/>
        <g data-name="color">
          <path d="M157.09,13.67a242.2,242.2,0,0,1-32.65,7.78l-1.15-.11c-.71,1.05-.33,2.48.13,3.67A38.7,38.7,0,0,0,135,40.84a75.54,75.54,0,0,0,6.3,4.48l4.44,3c2.43,1.61,4.87,3.22,7.41,4.65-.91-4.77-.72-11.45,2.37-15.2C151.19,31,152.74,20.36,157.09,13.67Z"/>
          <path d="M156.92,13.06c-5.8,1.81-11.67,3.42-17.59,4.79q-4.32,1-8.68,1.85c-2.37.46-4.94,1.26-7.36,1a.63.63,0,0,0-.54.31c-.83,1.49-.38,3,.22,4.54a39.31,39.31,0,0,0,9.22,13.67,65.43,65.43,0,0,0,9.55,7.17c3.64,2.41,7.25,4.9,11,7.06a.63.63,0,0,0,.92-.7c-.86-4.69-.9-10.68,2.21-14.6a.65.65,0,0,0,.1-.75c-4.32-7-2.61-16.8,1.61-23.43.44-.68-.64-1.31-1.07-.63-4.47,7-6.17,17.33-1.62,24.69l.1-.76c-3.43,4.32-3.49,10.62-2.54,15.81l.92-.71c-3.37-1.92-6.59-4.11-9.83-6.26a82.26,82.26,0,0,1-9.29-6.66,37.86,37.86,0,0,1-6.75-7.81,39.67,39.67,0,0,1-2.43-4.31c-.73-1.54-2.22-4-1.28-5.69l-.54.31c2.25.23,4.54-.45,6.75-.87q4.61-.87,9.16-1.92,9.12-2.1,18.05-4.9C158,14,157.69,12.82,156.92,13.06Z"/>
          <path d="M34,29.33c-11.07,3.11-22.29,5.75-33,9.85l-.38.62A51.74,51.74,0,0,0,15.28,58.86a85.3,85.3,0,0,0,10.18,6.83C28.25,67.34,31.09,69,34,70.47c-.15-3.4-.69-8.81,1.14-11.69-2.79-4-3.89-8.89-4-13.72S33.09,34.08,34,29.33Z"/>
          <path d="M33.81,28.73C28,30.34,22.24,31.84,16.48,33.48c-2.84.8-5.67,1.65-8.47,2.56Q6,36.7,3.93,37.42c-1,.36-2.77.65-3.52,1.44A1.36,1.36,0,0,0,0,40.11,16.52,16.52,0,0,0,1.87,43.8a50.78,50.78,0,0,0,4,6.22A52.59,52.59,0,0,0,16.76,60.79,132.49,132.49,0,0,0,33.66,71a.63.63,0,0,0,.94-.54c-.17-3.61-.89-8.11,1.06-11.37a.64.64,0,0,0,0-.63,24,24,0,0,1-3.87-14.36c.18-5,1.86-9.76,2.79-14.61.15-.79-1-1.13-1.21-.33-1,5.07-2.75,10.11-2.84,15.32a25.19,25.19,0,0,0,4,14.61v-.63c-2.08,3.48-1.41,8.14-1.23,12l.94-.54c-7.09-3.76-14.43-7.74-20.46-13.1A51.92,51.92,0,0,1,1.11,39.48v.63a1.33,1.33,0,0,1,.46-.5,10,10,0,0,1,2-.74c1.42-.52,2.86-1,4.3-1.48,2.88-.94,5.78-1.81,8.69-2.64,5.84-1.67,11.72-3.18,17.56-4.82A.62.62,0,0,0,33.81,28.73Z"/>
        </g>
      </g>
    </g>
  </g>
</svg>