<?xml version="1.0" encoding="UTF-8" standalone="yes"?>
<svg xmlns="http://www.w3.org/2000/svg" viewBox="0 0 71.76 87.13">
  <defs/>
  <g data-name="Layer_2">
    <g data-name="baby-cat-tail-2-patterns">
      <g data-name="tail-2-pattern-3-mask">
        <path d="M10.73,49.84c0,6.69,3.5,13.21,9.8,15.89,7.42,3.15,15-.23,21.65-3.83,13.29-7.24,16.52-22.41,19-36.11C62.78,17.18,64.49,8.36,69.36.92L68.22.77a189.49,189.49,0,0,1,2.29,30.09,142.56,142.56,0,0,1-.65,14.61,29.94,29.94,0,0,1-1.57,7.23,46.27,46.27,0,0,1-3.21,6.51,66.16,66.16,0,0,1-7.41,11.43A44.82,44.82,0,0,1,47.1,79.26c-7.45,4.61-16.55,8-25.41,6.2C13.36,83.8,4.92,78,1.16,70.21v.63A81,81,0,0,0,7.19,60c1.65-3.24,3.16-6.57,4.7-9.87.34-.72-.74-1.36-1.08-.63-1.54,3.3-3.05,6.63-4.69,9.87a82.78,82.78,0,0,1-6,10.82.6.6,0,0,0,0,.63c3.43,7.09,10.68,12.53,18,15,8.52,2.82,17.62.82,25.43-3.13A55.2,55.2,0,0,0,55.19,74.9a44,44,0,0,0,8.59-10.85c2.42-4.09,5.1-8.36,6.34-13C71.44,46.19,71.52,41,71.68,36A192,192,0,0,0,69.42.44c-.09-.57-.88-.55-1.14-.15-7.81,11.94-7.49,26.71-11.57,40-1.94,6.27-4.88,12.43-9.82,16.87a36.22,36.22,0,0,1-9.7,5.82c-3.59,1.6-7.28,3.14-11.29,2.84a14.79,14.79,0,0,1-10.29-5.19A17.33,17.33,0,0,1,12,49.84.63.63,0,0,0,10.73,49.84Z"/>
        <g data-name="color">
          <path d="M57.83,43.66A14.91,14.91,0,0,0,55,54.43c.12.68.74,1.53,1.29,1.12a1.14,1.14,0,0,0,.26-.35l3.27-5.82A8.8,8.8,0,0,0,61,46.49a2.93,2.93,0,0,0-1-2.82,1.8,1.8,0,0,0-2.65.61"/>
          <path d="M57.29,43.34a15.91,15.91,0,0,0-2.77,6.21,14,14,0,0,0-.33,3.29A4.38,4.38,0,0,0,55,55.78a1.34,1.34,0,0,0,1.06.49c.59,0,.89-.49,1.15-1l2-3.61c1.12-2,2.95-4.37,2.31-6.79a2.83,2.83,0,0,0-2.15-2.16A2.33,2.33,0,0,0,56.79,44c-.33.73.75,1.36,1.08.63a1.13,1.13,0,0,1,1.49-.55,2,2,0,0,1,1,1.86,5.47,5.47,0,0,1-.84,2.61c-.48.89-1,1.77-1.49,2.66l-1.52,2.7C56.46,54,56,55,56,55a3.16,3.16,0,0,1-.23-.32,2.05,2.05,0,0,1-.18-.61,12,12,0,0,1,.36-5A15,15,0,0,1,58.37,44c.48-.64-.6-1.26-1.08-.63Z"/>
          <path d="M63.45,45.31a44,44,0,0,0-3,9.51c-.06.32-.07.74.22.89s.57-.08.79-.27a12.68,12.68,0,0,0,3.95-4.65,4.67,4.67,0,0,0-2-5.48"/>
          <path d="M62.91,45a46.21,46.21,0,0,0-2.14,5.94c-.28,1-.53,2-.74,3-.14.72-.45,1.82.38,2.27s1.61-.41,2.18-.91a20,20,0,0,0,1.92-1.88A6.24,6.24,0,0,0,66.33,49a5.35,5.35,0,0,0-2.56-4.22c-.71-.39-1.34.69-.63,1.08A4,4,0,0,1,65,48.61,4.26,4.26,0,0,1,64.08,52a11.33,11.33,0,0,1-1.38,1.56l-.8.74a5.18,5.18,0,0,0-.83.71c-.09.12-.13,0,0,.15s.06,0,.08-.07a3.7,3.7,0,0,0,.08-.48c.08-.41.17-.83.27-1.24.18-.79.38-1.58.61-2.37A42.82,42.82,0,0,1,64,45.63c.32-.73-.76-1.37-1.08-.63Z"/>
          <path d="M3.44,74.87a32.3,32.3,0,0,0,7.85,7,23.28,23.28,0,0,0,2.94-11.48C10.3,70.24,5.46,71.49,3.44,74.87Z"/>
          <path d="M3,75.31a33.07,33.07,0,0,0,8,7.09.64.64,0,0,0,.86-.23,23,23,0,0,0,3-11.79.64.64,0,0,0-.63-.63c-4.11-.12-9,1.07-11.33,4.8A.63.63,0,0,0,4,75.18C6,71.84,10.58,70.9,14.23,71l-.62-.62a21.77,21.77,0,0,1-2.86,11.16l.85-.22a32.3,32.3,0,0,1-7.72-6.89C3.38,73.8,2.5,74.69,3,75.31Z"/>
          <path d="M22.29,86.2c.79-4.39-1.83-10.65-5.54-13.12,0,3.48-1.74,7-3.75,9.79"/>
          <path d="M22.89,86.37a14,14,0,0,0-1.11-7.69,13.68,13.68,0,0,0-4.72-6.13.63.63,0,0,0-.94.53c0,3.48-1.7,6.69-3.66,9.48-.47.66.61,1.28,1.08.63,2.09-3,3.78-6.41,3.83-10.11l-.94.54a12.49,12.49,0,0,1,4.21,5.54A12.73,12.73,0,0,1,21.69,86c-.14.78,1.07,1.12,1.2.33Z"/>
          <path d="M22.29,86.2A29.21,29.21,0,0,1,13,82.87"/>
          <path d="M22.46,85.6a29,29,0,0,1-9.15-3.27c-.7-.39-1.34.69-.63,1.08a30.35,30.35,0,0,0,9.44,3.4c.79.13,1.13-1.07.34-1.21Z"/>
          <path d="M51.34,77.17a41.91,41.91,0,0,0,5.42-4.61,40.11,40.11,0,0,0-2.1-4c-.33-.45-.78-.93-1.33-.88s-1,.85-1.17,1.51A33.22,33.22,0,0,0,51.34,77.17Z"/>
          <path d="M51.66,77.71A44.47,44.47,0,0,0,57.2,73a.65.65,0,0,0,.1-.76c-.6-1.08-1-2.25-1.65-3.32S54,66.55,52.73,67.2c-1,.5-1.17,1.76-1.36,2.73-.22,1.17-.39,2.34-.52,3.51a17.26,17.26,0,0,0-.13,3.73c.08.79,1.33.8,1.25,0a16.59,16.59,0,0,1,.11-3.52c.13-1.26.32-2.52.57-3.76a2.93,2.93,0,0,1,.52-1.48c.45-.42,1,.48,1.19.8.74,1.16,1.2,2.47,1.86,3.66l.09-.75A42.9,42.9,0,0,1,51,76.63C50.38,77.1,51,78.19,51.66,77.71Z"/>
          <path d="M56.33,67a7.46,7.46,0,0,0,3,2.59c.83-1.07,1.61-2.19,2.36-3.34C60.7,65.32,57.62,66.56,56.33,67Z"/>
          <path d="M55.79,67.31a7.5,7.5,0,0,0,3.37,2.89.62.62,0,0,0,.61-.16c.87-1.13,1.68-2.28,2.46-3.47a.64.64,0,0,0-.1-.76c-.82-.74-2.06-.55-3-.33a29.06,29.06,0,0,0-2.92.91.65.65,0,0,0-.44.77.64.64,0,0,0,.77.44c.88-.3,1.75-.63,2.65-.85.25-.06.49-.12.74-.16l.17,0h.08l.34,0h.32c.13,0-.1,0,0,0l.13,0c.06,0,.27.11.14,0l.12.06c.11,0-.08-.07,0,0l-.09-.75c-.72,1.1-1.46,2.18-2.26,3.21l.6-.16a4.26,4.26,0,0,1-1.4-.94,10.33,10.33,0,0,1-1.22-1.37.63.63,0,0,0-.85-.22A.62.62,0,0,0,55.79,67.31Z"/>
          <path d="M66.67,14.66c.55-1,2.52-3.19,3.59-2.73.22,2.24.39,4.49.53,6.74-1.58-.1-3.9-2.5-4.18-4.06"/>
          <path d="M67.21,15a6.41,6.41,0,0,1,1.41-1.71,4,4,0,0,1,.89-.64,1.28,1.28,0,0,1,.38-.13c-.13,0,.08,0,.11,0-.14,0,.06,0,.09,0l-.46-.6q.33,3.36.54,6.74l.62-.63h0l-.16,0a1.22,1.22,0,0,1-.27-.09,2.93,2.93,0,0,1-.56-.28,6,6,0,0,1-1.15-.93,4.74,4.74,0,0,1-1.41-2.26.62.62,0,1,0-1.2.33,6,6,0,0,0,1.79,2.88,5,5,0,0,0,3,1.63.63.63,0,0,0,.63-.62q-.21-3.37-.54-6.74a.65.65,0,0,0-.45-.61c-.9-.34-1.86.35-2.51.89a8,8,0,0,0-1.79,2.13c-.38.71.7,1.34,1.08.63Z"/>
          <path d="M62,18.67c-.42,2-.8,4-1.17,6,1.32.57,2.65,2.2,4,2.76a1.29,1.29,0,0,0,1,.14c.68-.29.36-1.31-.07-1.91C64.71,24.34,62.88,20,62,18.67Z"/>
          <path d="M61.35,18.5c-.43,2-.81,4-1.18,6a.66.66,0,0,0,.29.71c1.26.56,2.17,1.66,3.31,2.4a2.78,2.78,0,0,0,2,.6,1.31,1.31,0,0,0,1-1.32,6.13,6.13,0,0,0-1.2-2.65c-.52-1-1-2-1.5-3a21.25,21.25,0,0,0-1.53-2.86c-.45-.65-1.54,0-1.08.64a36.05,36.05,0,0,1,2.46,4.74A20.76,20.76,0,0,0,65,25.86c.15.21.62.84.44,1.12,0,.06,0,0,0,0s-.25-.05-.33-.08a3.84,3.84,0,0,1-.77-.42,25,25,0,0,0-3.26-2.36l.29.71c.37-2,.75-4,1.18-6C62.73,18.05,61.52,17.72,61.35,18.5Z"/>
          <path d="M59.83,29.81c-.08.41-.15.82-.23,1.23q-.36,1.85-.78,3.69l.06-.12c0,.18-.11.15,0,0s-.18-.06,0,0c1.13.33,3.66-.57,4.77-1,.35-.13.75-.37.76-.75a1.09,1.09,0,0,0-.41-.71c-1.41-1.39-2.7-.85-4.11-2.23"/>
          <path d="M59.23,29.64c-.31,1.65-.64,3.29-1,4.93a.62.62,0,0,0,1.14.48l.06-.13-1.17-.31,0-.06.16-.28v0l.6-.16h0l.44.43v.31c0,.14,0-.06,0-.07a.55.55,0,0,0,.06-.26.67.67,0,0,0-1.25-.31.68.68,0,0,0,.28.92,1.92,1.92,0,0,0,.71.15A8.2,8.2,0,0,0,62,34.86l1.27-.41a4.68,4.68,0,0,0,1.21-.53,1.25,1.25,0,0,0,.42-1.66A3.59,3.59,0,0,0,63.47,31a9,9,0,0,0-1.66-.63,3.77,3.77,0,0,1-1.48-.87c-.58-.55-1.46.33-.88.89a5.42,5.42,0,0,0,2.22,1.24,4.43,4.43,0,0,1,2,1.08s.14.2.13.16,0,0,0,0l-.19.12c-.21.09-.48.17-.72.25a19,19,0,0,1-1.95.59,7.34,7.34,0,0,1-1,.18,2.83,2.83,0,0,1-.5,0h-.24c-.09,0,0,0,.14.1l.16.61v0l-.17.28h0l-.27.16h-.12L58.45,35h0l-.18-.44v0l.08-.31a.82.82,0,0,0-.12.65.62.62,0,0,0,.44.43h0a.65.65,0,0,0,.61-.16.76.76,0,0,0,.2-.57.65.65,0,0,0-.45-.61.63.63,0,0,0-.71.29l-.06.13,1.14.48c.37-1.63.7-3.28,1-4.93a.62.62,0,1,0-1.2-.33Z"/>
          <path d="M44.93,59.47a39.51,39.51,0,0,1-6.1,3.41v.19c.5,3.25.27,7.92.77,11.17.23.08-.21.13,0,0,1.8-1.18,5.32-4.12,6-6.14.88-2.41,1-6.48-.72-8.43"/>
          <path d="M44.62,58.93a41,41,0,0,1-6.1,3.41.6.6,0,0,0-.31.54c0,.94.2,1.9.26,2.85s.09,2.2.13,3.3.08,2.17.16,3.25c.05.71-.06,2.11.59,2.54l-.12-1,0,0,.44-.18.22.07.12,1a15.22,15.22,0,0,1,1.63-1.2c.67-.53,1.32-1.09,1.93-1.68a10.41,10.41,0,0,0,2.69-3.53c1.06-2.74,1.08-6.73-.86-9.1-.51-.63-1.38.26-.88.88a6.6,6.6,0,0,1,1.15,4.13,8.74,8.74,0,0,1-.74,4,11.79,11.79,0,0,1-2.7,3.15c-.56.51-1.13,1-1.72,1.45a10.62,10.62,0,0,0-1.38,1,.63.63,0,0,0,.13,1,.71.71,0,0,0,.88-.11.64.64,0,0,0-.13-1l-.07,0,.29.37a50.85,50.85,0,0,1-.37-5.79c0-1-.07-1.93-.14-2.9s-.23-1.68-.23-2.5l-.31.54A41,41,0,0,0,45.25,60c.65-.45,0-1.54-.63-1.08Z"/>
          <path d="M37.57,63.45l-.87.38A34.5,34.5,0,0,1,30.6,66c-1.78,3.26-.36,10.16,3,11.71a1,1,0,0,0,.62.12.79.79,0,0,0,.47-.41C36.26,74.07,36.86,68.59,37.57,63.45Z"/>
          <path d="M37.25,62.91a50,50,0,0,1-4.74,1.93,16.68,16.68,0,0,0-2.15.63c-.4.2-.56.78-.7,1.18a11,11,0,0,0-.07,6.14,8.77,8.77,0,0,0,3,5.07c.89.64,2.09,1,2.71-.17a16.26,16.26,0,0,0,1.19-3.61,102.61,102.61,0,0,0,1.69-10.46c.11-.79-1.09-1.13-1.2-.34-.58,4.22-.93,8.61-2.33,12.65-.1.31-.23,1-.47,1.22s-.69-.17-.9-.32A5.49,5.49,0,0,1,32,75.31a10.43,10.43,0,0,1-1.41-4.26,8.15,8.15,0,0,1,.6-4.7l-.37.29A41.49,41.49,0,0,0,37.89,64C38.62,63.66,38,62.58,37.25,62.91Z"/>
        </g>
      </g>
    </g>
  </g>
</svg>