<?xml version="1.0" encoding="UTF-8" standalone="yes"?>
<svg xmlns="http://www.w3.org/2000/svg" viewBox="0 0 55.66 58.39">
  <defs/>
  <g data-name="Layer_2">
    <g data-name="baby-cat-tail-3-patterns">
      <g data-name="tail-3-pattern-3-mask">
        <path d="M13.94,15.49a5,5,0,0,0,3,5.41c2.86,1,6-1.45,8.11-3a38.77,38.77,0,0,0,6.81-6.3A24.09,24.09,0,0,0,34.38,7.9a21.75,21.75,0,0,0,1-2A5.17,5.17,0,0,1,36,4.38l-1-.13A16.3,16.3,0,0,1,37.3,15c-.08.58.56,1.1,1,.61C42.22,11.7,46.67,6.65,44.71.72l-1.14.48c5,7.27,10.27,15,10.79,24.13a19.91,19.91,0,0,1-3,12.13,23.41,23.41,0,0,1-9,7.76.63.63,0,0,0,.15,1.14l1.76.46-.14-1.15a45.89,45.89,0,0,1-13.08,4.87A23.59,23.59,0,0,1,17,48.6a.63.63,0,0,0-.85.85c.15.33-.18,1.4-.18,1.87a10.64,10.64,0,0,0,2.68,7.17l.61-1a27.24,27.24,0,0,1-11-6.82,33.16,33.16,0,0,1-4.34-5.05,17.11,17.11,0,0,1-2.66-5.14l-.16.61a66.64,66.64,0,0,0,5.7-8c1.29-2.26,2.44-4.61,3.58-7C12,22.77,13.56,19.39,15.08,16c.33-.72-.75-1.36-1.08-.63-2.24,5-4.56,10.06-7.12,14.94C6.21,31.54,5.54,32.81,4.76,34s-1.48,2.16-2.27,3.21c-.5.67-1,1.32-1.53,2C.67,39.55.12,40,0,40.44s.35,1.32.57,1.84a23.18,23.18,0,0,0,1.62,3,33,33,0,0,0,4.18,5.25c3.44,3.55,7.72,6.72,12.53,8.09a.63.63,0,0,0,.61-1,9.42,9.42,0,0,1-2.22-4.83,8.94,8.94,0,0,1,0-2.53,2.11,2.11,0,0,0-.07-1.43l-.86.85a24.91,24.91,0,0,0,14.22,2.21c5-.73,9.73-2.82,14.21-5.13a.63.63,0,0,0-.15-1.14l-1.77-.46L43,46.3c5.7-2.94,10.46-7.81,12-14.17,1.72-7-.29-14.31-3.52-20.58a103.86,103.86,0,0,0-6.86-11c-.38-.55-1.38-.23-1.14.48,1.8,5.47-2.5,10.09-6,13.66l1,.61a17.7,17.7,0,0,0-2.4-11.7.64.64,0,0,0-1-.13A8.57,8.57,0,0,0,34,5.88a21.31,21.31,0,0,1-1.84,3.21,30.35,30.35,0,0,1-5.25,5.67,27.13,27.13,0,0,1-6.42,4.53c-1.3.58-2.83.9-4-.09a3.69,3.69,0,0,1-1.35-3.38C15.3,15,14.1,14.7,13.94,15.49Z" transform="translate(0 -0.29)"/>
        <g data-name="color">
          <path d="M37.43,24.66a17.29,17.29,0,0,0,0,12.35,6.39,6.39,0,0,0,2.07-5.69c-.2-1.46,1.47-2.66,1.37-4.13s-2.13-3.2-3.44-2.53" transform="translate(0 -0.29)"/>
          <path d="M36.83,24.49a18,18,0,0,0,0,12.69.63.63,0,0,0,1,.27,7.65,7.65,0,0,0,2.27-4.33c.09-.72-.07-1.41,0-2.12A5.5,5.5,0,0,1,41,29a3.17,3.17,0,0,0-.41-3.75,3.05,3.05,0,0,0-3.5-1.11c-.73.33-.09,1.4.64,1.08.89-.41,2,.78,2.35,1.5.48,1.07-.46,2.06-.89,3a3.31,3.31,0,0,0-.34,1.55,9.87,9.87,0,0,1,0,1.72A6.37,6.37,0,0,1,37,36.57l1,.28a17,17,0,0,1,0-12c.29-.75-.92-1.08-1.2-.33Z" transform="translate(0 -0.29)"/>
          <path d="M42.73,24.27c-.53,3.46-.62,7.31-1.15,10.78l2.51-2.95a12.11,12.11,0,0,0,2.2-3.22,4.11,4.11,0,0,0-.16-3.77,2.53,2.53,0,0,0-3.4-.84" transform="translate(0 -0.29)"/>
          <path d="M42.13,24.1c-.54,3.58-.62,7.2-1.16,10.78-.08.54.6,1.14,1.05.61,1.12-1.31,2.28-2.6,3.35-4a7.76,7.76,0,0,0,1.9-4.06,3.86,3.86,0,0,0-1.45-3.55,3,3,0,0,0-3.41-.19c-.67.44,0,1.52.63,1.08a1.87,1.87,0,0,1,2.39.42,3.2,3.2,0,0,1,.41,3.08,9.23,9.23,0,0,1-2,3.06c-.91,1.08-1.84,2.16-2.75,3.23l1,.61c.54-3.57.61-7.2,1.15-10.78.12-.78-1.09-1.12-1.2-.33Z" transform="translate(0 -0.29)"/>
          <path d="M12.07,36.35A15.26,15.26,0,0,1,16.59,27a23,23,0,0,1-.05,8.07A6.15,6.15,0,0,1,16,37.27a2.11,2.11,0,0,1-1.82,1.2c-.77,0-2.35-1.4-2.1-2.12" transform="translate(0 -0.29)"/>
          <path d="M12.69,36.35A14.73,14.73,0,0,1,17,27.43l-1-.28a22.88,22.88,0,0,1-.14,8.41c-.12.8-.58,2.51-1.74,2.27a2.26,2.26,0,0,1-.93-.6c-.13-.12-.56-.51-.51-.72.19-.78-1-1.11-1.2-.33-.27,1.09.85,2.11,1.7,2.59a2.45,2.45,0,0,0,3.32-1.11,6,6,0,0,0,.64-2.32c.12-.93.24-1.86.32-2.8a18.61,18.61,0,0,0-.26-5.72.63.63,0,0,0-1-.28,16.09,16.09,0,0,0-4.71,9.81c-.08.8,1.17.79,1.25,0Z" transform="translate(0 -0.29)"/>
          <path d="M19,27.6c-.2,3.18-.14,6.46,0,9.65a1.24,1.24,0,0,0,.24.83c.5.53,1.33-.11,1.74-.7a15.37,15.37,0,0,0,2.16-3.9,5.35,5.35,0,0,0-.28-4.33A3.33,3.33,0,0,0,19,27.6" transform="translate(0 -0.29)"/>
          <path d="M18.42,27.6c-.14,2.21-.16,4.43-.12,6.64,0,1.07,0,2.17.09,3.23.08.85.67,1.6,1.6,1.4a3.51,3.51,0,0,0,1.9-1.72,15.56,15.56,0,0,0,1.53-2.66,6.39,6.39,0,0,0,.06-5.5,4,4,0,0,0-4.6-2c-.76.26-.43,1.47.33,1.2a2.69,2.69,0,0,1,3.07,1.21,4.86,4.86,0,0,1,.13,4.26,11.64,11.64,0,0,1-1.08,2.07A5.41,5.41,0,0,1,20,37.53c-.28.18-.29.1-.32-.21s0-.85,0-1.27c0-.87,0-1.74-.05-2.62,0-1.94,0-3.89.13-5.83,0-.8-1.2-.8-1.25,0Z" transform="translate(0 -0.29)"/>
          <path d="M24.82,17.27a45.19,45.19,0,0,0,4.64-4c.48.44.26,2,.26,2.65l0,9.34C26.58,24.19,23.67,20.36,24.82,17.27Z" transform="translate(0 -0.29)"/>
          <path d="M25.13,17.81a46.54,46.54,0,0,0,4.77-4.09H29c.3.34.12,1.35.09,1.75-.05,1,0,2,0,3l0,6.83.79-.6c-2.7-1-5.49-4.22-4.44-7.24.27-.76-.94-1.08-1.2-.33-1.29,3.7,2,7.58,5.3,8.77a.64.64,0,0,0,.8-.6l0-7.54c0-.95,0-1.89.05-2.83a2.85,2.85,0,0,0-.49-2.06.63.63,0,0,0-.88,0,44.12,44.12,0,0,1-4.52,3.89C23.87,17.21,24.49,18.29,25.13,17.81Z" transform="translate(0 -0.29)"/>
          <path d="M34.39,6.55A23.91,23.91,0,0,1,30.67,12a29,29,0,0,0,2.87,9.08c2.35-4,3.18-9.32,1.43-13.59-.07-.16-.41-.9-.58-.94s.18.3.32.41" transform="translate(0 -0.29)"/>
          <path d="M33.85,6.23A23.17,23.17,0,0,1,31.67,9.8c-.43.58-.91,1.1-1.36,1.66s-.21,1.14-.11,1.76A32.5,32.5,0,0,0,33,21.39a.63.63,0,0,0,1.08,0,17.82,17.82,0,0,0,2.45-8.74,14.59,14.59,0,0,0-.61-4.36c-.24-.75-.68-2.51-1.74-2.33a.61.61,0,0,0-.44.76,1.62,1.62,0,0,0,.53.68c.61.52,1.5-.36.88-.88-.11-.09-.32-.43-.21-.13l-.43.77h0l-.48-.06c.19.11.38.77.46,1A12,12,0,0,1,35,9.83a13.48,13.48,0,0,1,.22,3.75A16.55,16.55,0,0,1,33,20.76h1.08A28.64,28.64,0,0,1,31.29,12l-.18.44a25.26,25.26,0,0,0,3.82-5.57c.35-.72-.73-1.36-1.08-.64Z" transform="translate(0 -0.29)"/>
          <path d="M51.66,13.28c-.75-1.58-1.6-3.12-2.5-4.64a10.41,10.41,0,0,0-2.1,5.11c1.4.1,3.68.66,4.51-.47" transform="translate(0 -0.29)"/>
          <path d="M52.2,13c-.76-1.58-1.6-3.12-2.5-4.63a.64.64,0,0,0-1.08,0,11,11,0,0,0-2.18,5.42c0,.35.32.61.62.63,1.65.12,3.87.75,5-.79a.61.61,0,0,0-.22-.85A.64.64,0,0,0,51,13c.06-.08-.08.07-.11.1s.07-.05,0,0l-.11.07s-.21.1-.11.06l-.25.08-.27.05c.07,0,0,0,0,0h-.77c-.78,0-1.55-.17-2.33-.22l.63.62A9.86,9.86,0,0,1,49.7,9H48.62c.9,1.51,1.74,3,2.5,4.63A.63.63,0,1,0,52.2,13Z" transform="translate(0 -0.29)"/>
          <path d="M48.86,17.74c1.61,1.13,3.27,2.33,5.2,2-.23-.89-.51-1.76-.81-2.62s-.68-1.78-1.06-2.65C51.08,15.27,50,16.9,48.86,17.74Z" transform="translate(0 -0.29)"/>
          <path d="M48.54,18.28a15.74,15.74,0,0,0,2.6,1.59,5.16,5.16,0,0,0,3.09.42.64.64,0,0,0,.44-.77,38.75,38.75,0,0,0-1.94-5.41c-.18-.41-.71-.34-1-.13-1.25,1-2.09,2.36-3.33,3.32a.63.63,0,0,0,0,.89.65.65,0,0,0,.88,0c1.24-1,2.08-2.36,3.33-3.32l-1-.13a35.35,35.35,0,0,1,1.81,5.12l.44-.77c-1.77.32-3.37-.94-4.73-1.89a.63.63,0,0,0-.63,1.08Z" transform="translate(0 -0.29)"/>
          <path d="M55,28.79a20.71,20.71,0,0,1-1.27,5.59c-.91-.27-2.87-1.18-3.81-1.06L49.74,33a2.8,2.8,0,0,1,.42-3A7.2,7.2,0,0,1,55,28.79Z" transform="translate(0 -0.29)"/>
          <path d="M54.32,28.79a19.51,19.51,0,0,1-1.25,5.42l.77-.44c-.65-.19-1.28-.46-1.92-.68a4.86,4.86,0,0,0-2.05-.39l.54.31a2.56,2.56,0,0,1-.2-1.78,2.11,2.11,0,0,1,.51-.85c.06-.07-.09.05.05,0l.17-.11.39-.2a7.65,7.65,0,0,1,.87-.31,9.68,9.68,0,0,1,1.06-.27,5.16,5.16,0,0,1,.88-.11h.43c.18,0,0,0,.06,0l.15,0a.63.63,0,0,0,.33-1.21,4.18,4.18,0,0,0-1.69,0,9.79,9.79,0,0,0-1.85.45,5.29,5.29,0,0,0-1.6.78,3,3,0,0,0-1.06,2A3.36,3.36,0,0,0,49,32.79c.09.29.23.57.34.85a.61.61,0,0,0,.54.31,1.7,1.7,0,0,1,.39,0h0l.13,0,.21,0a10.42,10.42,0,0,1,1,.31c.62.21,1.22.47,1.85.66a.64.64,0,0,0,.77-.44,21,21,0,0,0,1.29-5.75.63.63,0,0,0-.62-.63A.64.64,0,0,0,54.32,28.79Z" transform="translate(0 -0.29)"/>
          <path d="M53.06,35.78a19.58,19.58,0,0,1-2.31,3.61c-.84.24-2.62-3.22-2.3-4S52.6,35,53.06,35.78Z" transform="translate(0 -0.29)"/>
          <path d="M52.52,35.46A19.22,19.22,0,0,1,50.31,39l.28-.17c-.1,0,.18,0,.08,0s-.14,0,.08,0c-.17,0,.1.08,0,0l-.13-.08c-.1-.05.11.11,0,0l-.11-.09-.29-.33c.11.13,0-.06-.06-.09L50,38c-.2-.33-.38-.67-.55-1a2.29,2.29,0,0,0-.1-.23c.07.15,0,0,0,0s0-.09,0-.13-.12-.33-.17-.5a1.89,1.89,0,0,1,0-.23.2.2,0,0,1,0-.07c0-.14,0,0,0,0a1.28,1.28,0,0,0,0-.19s0,0,0-.06,0,.17,0,0-.1.15,0,0c-.11.15-.09.11-.05.06s0,.07-.06.05l.06,0c.09-.05,0,0,0,0s.13,0,.18-.06l.21-.05c.13,0-.16,0,0,0h.09a3.33,3.33,0,0,1,.55,0l.55,0,.25,0,.15,0H51a6.54,6.54,0,0,1,1.16.28c.06,0,.28.13.1,0l.2.1.07,0c.13.08,0,0,0,0s.17.23,0,0a.64.64,0,0,0,.86.22.62.62,0,0,0,.22-.85,2.09,2.09,0,0,0-1.13-.74,7,7,0,0,0-1.57-.34,6.3,6.3,0,0,0-1.5-.05,2.07,2.07,0,0,0-1.3.45,1.4,1.4,0,0,0-.26,1.32,7,7,0,0,0,.51,1.45,8.2,8.2,0,0,0,.78,1.34,3,3,0,0,0,1,1,1,1,0,0,0,.94,0,2.72,2.72,0,0,0,.58-.68l.44-.6a19.32,19.32,0,0,0,1.51-2.56.64.64,0,0,0-.22-.85A.63.63,0,0,0,52.52,35.46Z" transform="translate(0 -0.29)"/>
          <path d="M22.87,44.28c.32,2.09,1.07,5.41,2.21,7.19a24.87,24.87,0,0,0,7.45-.56,31.29,31.29,0,0,0-4.6-5A6.64,6.64,0,0,0,23,44.08" transform="translate(0 -0.29)"/>
          <path d="M22.27,44.45a21.9,21.9,0,0,0,2,6.82,2.23,2.23,0,0,0,.4.64c.27.26.74.21,1.08.23.76,0,1.53,0,2.29,0a27.3,27.3,0,0,0,4.68-.64.62.62,0,0,0,.38-.91A25.54,25.54,0,0,0,29,46.06c-1.64-1.53-3.6-2.78-5.95-2.61-.79.06-.8,1.31,0,1.25,2.13-.16,3.79,1,5.26,2.43a24,24,0,0,1,3.7,4.1l.37-.92a25.09,25.09,0,0,1-7.28.54l.54.31a13,13,0,0,1-1.37-3.41,31.82,31.82,0,0,1-.78-3.64.63.63,0,0,0-.77-.43.64.64,0,0,0-.43.77Z" transform="translate(0 -0.29)"/>
          <path d="M16.8,49.42l-.13-.26A24.68,24.68,0,0,0,23,51.21c-.67-1.66-2.08-5-2.75-6.67-.23-.58-.74-1.29-1.32-1a1.15,1.15,0,0,0-.49.57A14.29,14.29,0,0,0,16.93,49" transform="translate(0 -0.29)"/>
          <path d="M17.34,49.11l-.13-.27-.85.86a26,26,0,0,0,6.49,2.11c.41.08,1-.28.77-.77-.73-1.81-1.49-3.61-2.24-5.42A5.51,5.51,0,0,0,20,43.1a1.28,1.28,0,0,0-1.52,0,3.75,3.75,0,0,0-1,1.55A15.52,15.52,0,0,0,16.31,49a.63.63,0,0,0,.62.62.64.64,0,0,0,.63-.62,13.27,13.27,0,0,1,1.19-4.09c.12-.25.27-.49.39-.74a.1.1,0,0,1,.08-.07h0c.09,0,.19.15.23.2A4.77,4.77,0,0,1,20,45.5c.81,2,1.63,3.91,2.42,5.88l.77-.77a24.59,24.59,0,0,1-6.19-2,.63.63,0,0,0-.86.85l.13.27a.63.63,0,0,0,1.08-.63Z" transform="translate(0 -0.29)"/>
          <path d="M6.16,49.43a30.12,30.12,0,0,1-4.27-5.88c1-.94,2.41-.71,3.69-1.19A69.93,69.93,0,0,1,6.16,49.43Z" transform="translate(0 -0.29)"/>
          <path d="M6.6,49a29.46,29.46,0,0,1-4.17-5.76l-.1.76a3.19,3.19,0,0,1,1.57-.63A10.4,10.4,0,0,0,5.74,43L5,42.36a64.39,64.39,0,0,1,.59,7.07c0,.81,1.22.81,1.25,0a64.39,64.39,0,0,0-.59-7.07.63.63,0,0,0-.79-.61,14.12,14.12,0,0,1-2.05.45,3.85,3.85,0,0,0-1.91.9.64.64,0,0,0-.1.76,30.68,30.68,0,0,0,4.37,6C6.26,50.47,7.15,49.58,6.6,49Z" transform="translate(0 -0.29)"/>
        </g>
      </g>
    </g>
  </g>
</svg>