<?xml version="1.0" encoding="UTF-8" standalone="yes"?>
<svg xmlns="http://www.w3.org/2000/svg" viewBox="0 0 113.5 138.12">
  <defs/>
  <g data-name="Layer_2">
    <g data-name="baby-cat-tail-4-patterns">
      <g data-name="tail-4-pattern-4-mask">
        <path d="M20.26,90.36c1.5,6.52,4.95,13.09,10.36,17.19s13.15,4.52,19.57,2.3a24,24,0,0,0,10-6.52l-.88-.89-.48.59c-.49.61.34,1.49.89.88,6.73-7.62,11-16.89,13.26-26.74s2.88-19.71,3.46-29.63c.33-5.62.65-11.23,1.26-16.83l-1.07.45c.74.75,1.32,1.66,2,2.46a36.23,36.23,0,0,0,2.77,2.91,38.14,38.14,0,0,0,6.17,4.71c.59.37,1.31-.52.75-1l-4.56-3.73a13.39,13.39,0,0,1-2.42-2c0-.06-.19-.1-.21-.17.08.27.33-1,.35-1.11a16.2,16.2,0,0,1,1-3.27c1.79-4.39,4.9-8.38,8-11.92A66.27,66.27,0,0,1,113.2,1.15l-.92-.71c-1.66,8.37-4,16.57-5.51,25-1.54,8.65-2.86,17.47-1.3,26.21l1-.61,0,0a.62.62,0,0,0-1.06.44,87,87,0,0,1-.55,20.77c-.08.56.58,1.11,1,.61a74.69,74.69,0,0,1,7.31-6.19l-1-.61a128.6,128.6,0,0,1-16.47,40.38l1.08.64,1.93-3.21-1.08-.63c-2.92,6.23-7.91,10.93-13,15.38-6.09,5.32-12.78,10.35-20.48,13.07l.48,1.14L67,131.68l-.63-1.08a39.29,39.29,0,0,1-6.18,2.57,48.52,48.52,0,0,1-6.9,2.08,71.23,71.23,0,0,1-14.91,1.63c-9.07,0-18.25-2.2-25.85-7.3-2.08-1.39-4-3-6-4.49-1.8-1.32-3.7-2.42-5.61-3.57l.12,1c4.65-4.6,9.2-9.74,12.36-15.5,2.33-4.25,4.38-8.66,6.41-13.06.53-1.14,1.06-2.29,1.57-3.44.33-.72-.75-1.36-1.08-.63q-2,4.44-4.1,8.81A74.49,74.49,0,0,1,9,111.51a89,89,0,0,1-8.8,10.11.63.63,0,0,0,.13,1c1.72,1,3.44,2,5.07,3.18,1.93,1.38,3.74,2.9,5.67,4.28a42.22,42.22,0,0,0,12,5.84c9.37,2.9,19.42,2.71,29,.88a44.33,44.33,0,0,0,7.91-2.17,47.34,47.34,0,0,0,7.1-2.93c.71-.42.09-1.4-.63-1.08L64,131.67c-.65.29-.19,1.38.48,1.14,7.78-2.75,14.53-7.74,20.71-13.11,5.29-4.59,10.5-9.46,13.53-15.91.33-.72-.66-1.34-1.08-.63l-1.93,3.2a.63.63,0,0,0,1.08.64,129.76,129.76,0,0,0,16.6-40.69.64.64,0,0,0-1.05-.61,77.32,77.32,0,0,0-7.3,6.2l1,.6a87.65,87.65,0,0,0,.59-21.1l-1.07.44,0,0c.45.51,1.14,0,1-.61-1.57-8.84-.09-17.78,1.48-26.5,1.45-8.08,3.74-16,5.34-24a.63.63,0,0,0-.92-.7A68,68,0,0,0,89.93,16.74,50.06,50.06,0,0,0,81.7,28.53a21.49,21.49,0,0,0-1.18,3.16c-.21.77-.79,2.48-.5,3.28.21.59,1.14,1.07,1.59,1.44l5.79,4.73.76-1a36.71,36.71,0,0,1-6.22-4.8c-1.64-1.58-2.9-3.48-4.48-5.09a.63.63,0,0,0-1.06.44C74.3,50,75.78,70.32,68,88.48A54.33,54.33,0,0,1,58.78,103l.89.88.47-.58c.49-.62-.33-1.49-.88-.89a23.21,23.21,0,0,1-18,7.49,17.39,17.39,0,0,1-9.16-2.85,23.48,23.48,0,0,1-6.49-7,32.94,32.94,0,0,1-4.14-10C21.28,89.25,20.08,89.58,20.26,90.36Z"/>
        <g data-name="color">
          <path d="M58,112.93c-.27,1.26-.8,2.45-1,3.72a3.7,3.7,0,0,0,1.15,3.48,3.65,3.65,0,0,0,4.07-.28,5.41,5.41,0,0,0,2.43-4.09,4.17,4.17,0,0,0-2.37-4,3.39,3.39,0,0,0-4.24,1.45"/>
          <path d="M57.37,112.77c-.47,2.13-1.59,4.29-.66,6.47s3.18,2.41,5.06,1.57a6.06,6.06,0,0,0,3.47-4.59,4.85,4.85,0,0,0-2.42-4.89,4,4,0,0,0-5.31,1.58c-.38.71.7,1.34,1.08.63a2.76,2.76,0,0,1,3.33-1.24A3.51,3.51,0,0,1,64,115.76a4.77,4.77,0,0,1-2.39,3.71c-1.25.73-3,.86-3.76-.64-.87-1.84.29-3.93.69-5.73.17-.78-1-1.12-1.21-.33Z"/>
          <path d="M79.16,89.47a5.44,5.44,0,0,0,7.62,0c1-1,1.36-2.86.22-3.65a3,3,0,0,0-1.42-.4c-.88-.09-1.77-.14-2.66-.15a7.08,7.08,0,0,0-2.71.39,2.81,2.81,0,0,0-1.78,1.95,3.18,3.18,0,0,0,2,2.78"/>
          <path d="M78.71,89.91c2.55,2.65,8.08,2.32,9.41-1.47a2.86,2.86,0,0,0-.22-2.56,3.48,3.48,0,0,0-2.81-1.11c-2.22-.19-5.21-.46-6.73,1.55a2.47,2.47,0,0,0-.18,2.84,3.52,3.52,0,0,0,2,1.85c.79.18,1.12-1,.34-1.2a2.19,2.19,0,0,1-1.2-1.1,1.25,1.25,0,0,1-.07-1.56c1-1.52,3.38-1.27,5-1.19.48,0,1,.06,1.46.12a1.73,1.73,0,0,1,1.07.41,1.57,1.57,0,0,1,.12,1.62,3.88,3.88,0,0,1-3.1,2.24A4.78,4.78,0,0,1,79.6,89c-.56-.59-1.44.3-.89.88Z"/>
          <path d="M92.37,51.4a6.25,6.25,0,0,0,.1,3.83,4.14,4.14,0,0,0,4,2.18,5.16,5.16,0,0,0,4.65-3.22,4,4,0,0,0-2.13-5A6.92,6.92,0,0,0,96.13,49a6.31,6.31,0,0,0-2.44.47,2.18,2.18,0,0,0-1.32,1.95"/>
          <path d="M91.76,51.24c-.49,2.2-.39,4.71,1.72,6a5.75,5.75,0,0,0,5.82,0,5,5,0,0,0,2.62-5,4.41,4.41,0,0,0-4-3.85,12,12,0,0,0-2,0,8,8,0,0,0-2.17.36,3,3,0,0,0-2.07,2.68.63.63,0,0,0,1.25,0c0-1.95,3.15-1.87,4.45-1.84a3.22,3.22,0,0,1,2.21.78,3.45,3.45,0,0,1,1,1.8c.73,3.25-3.24,5.47-6,4.33A2.93,2.93,0,0,1,93,54.79a6,6,0,0,1,0-3.22c.17-.78-1-1.12-1.21-.33Z"/>
          <path d="M30.74,107a17.28,17.28,0,0,0,4.74,2.57c6.3,2.2,13.6,1,19.28-2.57,2.13,3.56.72,9.79-2.28,12.65a12.49,12.49,0,0,1-8.61,3.06,14.12,14.12,0,0,1-5.35-.91C33.68,119.83,29.73,112.08,30.74,107Z"/>
          <path d="M30.43,107.5c7.25,5.38,17.21,4.55,24.65,0l-.86-.22c1.69,3,1,7-.65,9.89-2.08,3.66-6.33,5-10.33,4.87a10.92,10.92,0,0,1-9.35-5.25c-1.81-2.75-3.14-6.33-2.54-9.66.14-.79-1.07-1.13-1.21-.34-1,5.52,2.4,12.67,7.45,15.23a15.12,15.12,0,0,0,10.72.64,10.72,10.72,0,0,0,7-6.15c1.3-3.05,1.71-6.87,0-9.86a.64.64,0,0,0-.86-.23c-7.09,4.34-16.47,5.13-23.38,0C30.41,105.94,29.79,107,30.43,107.5Z"/>
          <path d="M72.94,74.13A168.92,168.92,0,0,0,75.5,51.57c2.47.76,5.16,3.16,7,4.94A11.07,11.07,0,0,1,86,63.25a9.5,9.5,0,0,1-3.41,8.18c-2.38,1.93-6.71,3.63-9.64,2.7,0-.16,2.77,1,3.52.1"/>
          <path d="M73.54,74.3a173.4,173.4,0,0,0,2.59-22.73l-.8.6c2.7.9,5,3,7,5a9.83,9.83,0,0,1,3,8,9.11,9.11,0,0,1-4.46,6.64c-2.23,1.35-5.17,2.42-7.78,1.68l.28,1c-.49.43-.56.05-.18.23a2,2,0,0,0,.48.12,8.3,8.3,0,0,0,1.21.22,2.4,2.4,0,0,0,2-.47c.6-.54-.29-1.42-.89-.88-.93.84-2.61-.89-3.52-.1a.63.63,0,0,0,.28,1c2.88.83,6.11-.25,8.6-1.72a10.35,10.35,0,0,0,5.17-7.38A10.89,10.89,0,0,0,83.81,57a20.11,20.11,0,0,0-8.14-6,.63.63,0,0,0-.79.6A168.26,168.26,0,0,1,72.33,74c-.15.79,1,1.13,1.21.34Z"/>
          <path d="M90.93,33a5.23,5.23,0,0,1-6.57-7,22.84,22.84,0,0,1,2.21-4,61.49,61.49,0,0,1,5.31-6.38A5.36,5.36,0,0,1,101,18h0a13.57,13.57,0,0,1,.5,3.85,11.48,11.48,0,0,1-6.58,9.45A41.55,41.55,0,0,1,90.93,33Z"/>
          <path d="M90.77,32.38a4.67,4.67,0,0,1-6.21-4.79A12.32,12.32,0,0,1,87,22.52a54.22,54.22,0,0,1,4-5c1.09-1.22,2.11-2.47,3.78-2.83a4.88,4.88,0,0,1,3.71.74,5.44,5.44,0,0,1,2.11,3.69,9.9,9.9,0,0,1-.43,5.8c-1.65,4.09-5.49,6.05-9.41,7.49-.75.28-.43,1.49.33,1.21,4.09-1.5,8-3.51,10-7.64a10.77,10.77,0,0,0,.91-6.23,7.59,7.59,0,0,0-2.26-4.95,6.07,6.07,0,0,0-4.22-1.45A6.49,6.49,0,0,0,91,15.65a63,63,0,0,0-4.78,5.79c-1.22,1.7-2.61,3.81-2.87,5.92a5.92,5.92,0,0,0,7.76,6.23C91.86,33.33,91.53,32.12,90.77,32.38Z"/>
          <path d="M101.92,96.44q-2.64,5.25-5.75,10.24l1.93-3.21A71.82,71.82,0,0,1,73.81,127.7c-2.53-7.85-.79-17.76,4.65-24s15.21-10,23-7.3"/>
          <path d="M101.38,96.13q-2.66,5.24-5.75,10.23l1.08.64,1.93-3.21a.63.63,0,0,0-1.08-.63,71.27,71.27,0,0,1-24.06,24l.92.38A25.7,25.7,0,0,1,76,108.47,23.24,23.24,0,0,1,90.66,96.94a18.65,18.65,0,0,1,10.65.1c.76.26,1.09-1,.33-1.2-6.45-2.12-13.69-.22-19.16,3.54a24.26,24.26,0,0,0-10.15,16.87,26.42,26.42,0,0,0,.88,11.62.63.63,0,0,0,.92.37,72.66,72.66,0,0,0,24.51-24.45l-1.08-.63-1.93,3.2a.63.63,0,0,0,1.08.64q3.09-5,5.75-10.24c.37-.72-.71-1.35-1.08-.63Z"/>
          <path d="M28.16,136.55A44.75,44.75,0,0,1,15.31,132a78.74,78.74,0,0,1-8.94-6.21c3.07-2.87,8.77-3.5,12.61-1.8a17,17,0,0,1,3.32,2A14.46,14.46,0,0,1,26.14,130C27.19,131.73,28.51,134.52,28.16,136.55Z"/>
          <path d="M28.33,136A45.74,45.74,0,0,1,16.66,132a71.59,71.59,0,0,1-10-6.76l.12,1c3.25-2.92,8.74-3.36,12.56-1.36a16.51,16.51,0,0,1,6,5.09c1.22,1.85,2.44,4.31,2.14,6.58-.11.79,1.14.78,1.25,0,.33-2.47-1-5.2-2.31-7.21a17.72,17.72,0,0,0-6.83-5.72c-4.29-2.06-10.15-1.48-13.72,1.74a.63.63,0,0,0,.12,1c3.35,2.47,6.58,5.08,10.33,6.93A46.73,46.73,0,0,0,28,137.15C28.78,137.31,29.12,136.1,28.33,136Z"/>
        </g>
      </g>
    </g>
  </g>
</svg>