<?xml version="1.0" encoding="UTF-8" standalone="yes"?>
<svg xmlns="http://www.w3.org/2000/svg" viewBox="0 0 113.5 138.19">
  <defs/>
  <g data-name="Layer_2">
    <g data-name="baby-cat-tail-4-patterns">
      <g data-name="tail-4-pattern-6-mask">
        <path d="M20.26,90.36c1.5,6.52,4.95,13.09,10.36,17.19s13.15,4.52,19.57,2.3a24,24,0,0,0,10-6.52l-.88-.89-.48.59c-.49.61.34,1.49.89.88,6.73-7.62,11-16.89,13.26-26.74s2.88-19.71,3.46-29.63c.33-5.62.65-11.23,1.26-16.83l-1.07.45c.74.75,1.32,1.66,2,2.46a36.23,36.23,0,0,0,2.77,2.91,38.14,38.14,0,0,0,6.17,4.71c.59.37,1.31-.52.75-1l-4.56-3.73a13.39,13.39,0,0,1-2.42-2c0-.06-.19-.1-.21-.17.08.27.33-1,.35-1.11a16.2,16.2,0,0,1,1-3.27c1.79-4.39,4.9-8.38,8-11.92A66.27,66.27,0,0,1,113.2,1.15l-.92-.71c-1.66,8.37-4,16.57-5.51,25-1.54,8.65-2.86,17.47-1.3,26.21l1-.61,0,0a.62.62,0,0,0-1.06.44,87,87,0,0,1-.55,20.77c-.08.56.58,1.11,1,.61a74.69,74.69,0,0,1,7.31-6.19l-1-.61a128.6,128.6,0,0,1-16.47,40.38l1.08.64,1.93-3.21-1.08-.63c-2.92,6.23-7.91,10.93-13,15.38-6.09,5.32-12.78,10.35-20.48,13.07l.48,1.14L67,131.68l-.63-1.08a39.29,39.29,0,0,1-6.18,2.57,48.52,48.52,0,0,1-6.9,2.08,71.23,71.23,0,0,1-14.91,1.63c-9.07,0-18.25-2.2-25.85-7.3-2.08-1.39-4-3-6-4.49-1.8-1.32-3.7-2.42-5.61-3.57l.12,1c4.65-4.6,9.2-9.74,12.36-15.5,2.33-4.25,4.38-8.66,6.41-13.06.53-1.14,1.06-2.29,1.57-3.44.33-.72-.75-1.36-1.08-.63q-2,4.44-4.1,8.81A74.49,74.49,0,0,1,9,111.51a89,89,0,0,1-8.8,10.11.63.63,0,0,0,.13,1c1.72,1,3.44,2,5.07,3.18,1.93,1.38,3.74,2.9,5.67,4.28a42.22,42.22,0,0,0,12,5.84c9.37,2.9,19.42,2.71,29,.88a44.33,44.33,0,0,0,7.91-2.17,47.34,47.34,0,0,0,7.1-2.93c.71-.42.09-1.4-.63-1.08L64,131.67c-.65.29-.19,1.38.48,1.14,7.78-2.75,14.53-7.74,20.71-13.11,5.29-4.59,10.5-9.46,13.53-15.91.33-.72-.66-1.34-1.08-.63l-1.93,3.2a.63.63,0,0,0,1.08.64,129.76,129.76,0,0,0,16.6-40.69.64.64,0,0,0-1.05-.61,77.32,77.32,0,0,0-7.3,6.2l1,.6a87.65,87.65,0,0,0,.59-21.1l-1.07.44,0,0c.45.51,1.14,0,1-.61-1.57-8.84-.09-17.78,1.48-26.5,1.45-8.08,3.74-16,5.34-24a.63.63,0,0,0-.92-.7A68,68,0,0,0,89.93,16.74,50.06,50.06,0,0,0,81.7,28.53a21.49,21.49,0,0,0-1.18,3.16c-.21.77-.79,2.48-.5,3.28.21.59,1.14,1.07,1.59,1.44l5.79,4.73.76-1a36.71,36.71,0,0,1-6.22-4.8c-1.64-1.58-2.9-3.48-4.48-5.09a.63.63,0,0,0-1.06.44C74.3,50,75.78,70.32,68,88.48A54.33,54.33,0,0,1,58.78,103l.89.88.47-.58c.49-.62-.33-1.49-.88-.89a23.21,23.21,0,0,1-18,7.49,17.39,17.39,0,0,1-9.16-2.85,23.48,23.48,0,0,1-6.49-7,32.94,32.94,0,0,1-4.14-10C21.28,89.25,20.08,89.58,20.26,90.36Z"/>
        <g data-name="color">
          <path d="M95.5,12A67.06,67.06,0,0,1,112.88.61c-1,5-2.37,10.38-3.59,15.62A50.26,50.26,0,0,1,95.5,12.05"/>
          <path d="M95.94,12.45A67.17,67.17,0,0,1,113.2,1.15l-.92-.71c-1,5.25-2.38,10.42-3.6,15.63l.77-.44a49.39,49.39,0,0,1-13.63-4.12c-.72-.37-1.35.71-.63,1.07a50.19,50.19,0,0,0,13.93,4.26.64.64,0,0,0,.77-.44C111.1,11.2,112.45,6,113.49.77a.63.63,0,0,0-.92-.7A68.33,68.33,0,0,0,95.06,11.56c-.6.54.29,1.43.88.89Z"/>
          <path d="M84.16,25.38a20.37,20.37,0,0,0-3.54,9.42l7.22,5.9A36.5,36.5,0,0,1,77.33,31L77,30.71c-.57,5.2-.89,10.56-1.2,16a107.94,107.94,0,0,0,22.31,2.49,23.53,23.53,0,0,0,7.44-1.35,66.16,66.16,0,0,1,.72-15.69A33.15,33.15,0,0,1,90.35,29C88.43,28.09,86.08,26.29,84.16,25.38Z"/>
          <path d="M83.62,25.06A23.19,23.19,0,0,0,80.23,33c-.13.71-.47,1.74,0,2.33a6.62,6.62,0,0,0,1,.82l6.16,5,.76-1a36.71,36.71,0,0,1-6.22-4.8c-1.64-1.58-2.9-3.48-4.48-5.09a.63.63,0,0,0-1.06.44c-.58,5.31-.9,10.64-1.21,16a.62.62,0,0,0,.46.6,109.77,109.77,0,0,0,15.42,2.24c5,.37,9.87.55,14.67-1.09a.65.65,0,0,0,.46-.61,67.23,67.23,0,0,1,.69-15.52c0-.37-.15-.83-.6-.79A30.9,30.9,0,0,1,94.64,30a25.43,25.43,0,0,1-5.31-2.27c-1.63-1-3.16-2.07-4.85-2.9-.72-.36-1.35.72-.63,1.08C85.66,26.81,87.28,28,89,29a27.82,27.82,0,0,0,5.26,2.19,31.92,31.92,0,0,0,12,1.55l-.6-.79A68.41,68.41,0,0,0,105,47.82l.45-.6c-4.68,1.61-9.46,1.41-14.33,1.05A108,108,0,0,1,76,46.08l.46.6c.31-5.33.63-10.66,1.21-16l-1.07.45c.74.75,1.32,1.66,2,2.46a36.23,36.23,0,0,0,2.77,2.91,38.14,38.14,0,0,0,6.17,4.71c.59.37,1.31-.52.75-1l-5.54-4.53-1.28-1c-.09-.08-.25-.16-.31-.26s-.07,0-.08-.06c.16.33.29-.67.33-.87a21.75,21.75,0,0,1,3.3-7.81C85.13,25,84.05,24.38,83.62,25.06Z"/>
          <path d="M105.57,88.72a122.81,122.81,0,0,0,7.19-22.58l-6.82,5.68-.48.52c.33-2.16.58-4.34.74-6.52a64.71,64.71,0,0,1-32.08,1.09v.17a90.28,90.28,0,0,1-3.84,17.11A69.68,69.68,0,0,0,105.46,89"/>
          <path d="M106.11,89a127.43,127.43,0,0,0,7.26-22.73.64.64,0,0,0-1.05-.61,77.32,77.32,0,0,0-7.3,6.2l1,.6q.5-3.31.75-6.68a.63.63,0,0,0-.79-.6,62.94,62.94,0,0,1-31.75,1.09.64.64,0,0,0-.79.6,25,25,0,0,1-.58,4c-.25,1.48-.53,3-.85,4.43A81.12,81.12,0,0,1,69.68,84a.64.64,0,0,0,.43.77,70.1,70.1,0,0,0,35.35,4.82c.79-.1.8-1.35,0-1.25a69.26,69.26,0,0,1-35-4.78l.44.77a79.92,79.92,0,0,0,2.48-9.13c.31-1.47.59-3,.83-4.44a24.33,24.33,0,0,0,.55-3.88l-.79.61a64.28,64.28,0,0,0,32.41-1.09l-.79-.61c-.16,2.13-.4,4.24-.71,6.35-.08.56.58,1.11,1,.61a74.69,74.69,0,0,1,7.31-6.19l-1-.61A125.29,125.29,0,0,1,105,88.41c-.31.73.77,1.37,1.08.63Z"/>
          <path d="M62,133.2a25,25,0,0,0,4.71-2.06l-2.42,1.07c6.8-2.36,13.25-6.86,19.08-11.79-6.4-3.88-11.25-9.76-16.26-15.31A16.46,16.46,0,0,1,63.52,98a52.33,52.33,0,0,1-4.3,5.52l.48-.58a22.87,22.87,0,0,1-8.12,5.76C53,117.4,58.52,125,62,133.2c-.16-.25.16,0,0-.29"/>
          <path d="M62.17,133.8A27.94,27.94,0,0,0,67,131.68c.71-.42.09-1.4-.63-1.08L64,131.67c-.65.29-.19,1.38.48,1.14,7.22-2.55,13.53-7,19.35-11.94a.64.64,0,0,0-.12-1A54.19,54.19,0,0,1,72.38,110c-3.38-3.67-7.12-7.2-8.26-12.25A.63.63,0,0,0,63,97.63a56.16,56.16,0,0,1-4.2,5.4l.89.88.47-.58c.49-.62-.33-1.49-.88-.89a23.27,23.27,0,0,1-8,5.67.64.64,0,0,0-.28.71c1.54,9,6.94,16.49,10.48,24.69.28.66,1.33.19,1.14-.48l0-.13-.44.77.07,0a.64.64,0,0,0,.44-.77l0-.12a.62.62,0,0,0-1.2.33l0,.13.44-.77-.07,0a.63.63,0,0,0-.44.76l0,.13,1.14-.48c-3.49-8.11-8.84-15.55-10.36-24.39l-.29.7a24.2,24.2,0,0,0,8.25-5.86l-.88-.89-.48.59c-.49.61.35,1.49.89.88a57.28,57.28,0,0,0,4.39-5.65l-1.14-.15c1.16,5.16,4.84,8.73,8.29,12.49A56.51,56.51,0,0,0,83.06,121l-.13-1c-5.65,4.75-11.8,9.15-18.8,11.63l.48,1.14L67,131.68l-.63-1.08a26.12,26.12,0,0,1-4.57,2c-.75.27-.43,1.48.34,1.21Z"/>
          <path d="M20.44,134.34A47.91,47.91,0,0,0,30.72,137a57,57,0,0,0,7.73.54c0-.18-.34-.12-.49,0s.65.11.49,0c-2.62-1.7-1.68-5.68-1.54-9.51.2-5.69,3-12,4.61-17.44a21.58,21.58,0,0,1-4.86-.69,17.81,17.81,0,0,1-8.43-5.32,48.06,48.06,0,0,0-9,22.35,18.44,18.44,0,0,0,1.23,7.44c.09.23,0-.39-.3-.81"/>
          <path d="M20.27,134.94a52.15,52.15,0,0,0,18.18,3.19.63.63,0,0,0,.54-.94c-.37-.51-.81-.45-1.35-.23a.64.64,0,0,0-.28.71v.05a.62.62,0,0,0,.43.44,2.21,2.21,0,0,0,.81,0,.65.65,0,0,0,.46-.61v0a.62.62,0,0,0-.31-.54c-1.76-1.25-1.57-3.72-1.45-5.62a53.14,53.14,0,0,1,.64-6.91c.92-4.7,2.81-9.14,4.17-13.71a.63.63,0,0,0-.61-.79,18,18,0,0,1-12.85-5.84.64.64,0,0,0-1,.13A50,50,0,0,0,19.93,120a28.41,28.41,0,0,0-1.39,8A19.07,19.07,0,0,0,19,131.8a7.46,7.46,0,0,0,1,3,.63.63,0,0,0,1.07-.44,2.24,2.24,0,0,0-.42-1.16c-.43-.68-1.52-.05-1.08.63a1,1,0,0,1,.25.53l1.07-.44a5.34,5.34,0,0,1-.42-1.37q-.22-.82-.39-1.68a14.65,14.65,0,0,1-.3-3.68,33.94,33.94,0,0,1,1.63-7.85,49.16,49.16,0,0,1,7.33-14.5l-1,.13a19.3,19.3,0,0,0,13.73,6.2l-.6-.79c-1.53,5.16-3.77,10.17-4.46,15.54A51.85,51.85,0,0,0,36,133.2c0,1.92.5,3.69,2.13,4.85l-.31-.54v0l.46-.6h-.15l.44.44v0l-.29.7h.11l-.54-.31.07.1.54-.94a51.28,51.28,0,0,1-17.85-3.14c-.75-.29-1.08.92-.33,1.2Z"/>
        </g>
      </g>
    </g>
  </g>
</svg>