<?xml version="1.0" encoding="UTF-8" standalone="yes"?>
<svg xmlns="http://www.w3.org/2000/svg" viewBox="0 0 71.82 87.13">
  <defs/>
  <g data-name="Layer_2">
    <g data-name="baby-cat-tail-2-patterns">
      <g data-name="tail-2-pattern-2-mask">
        <path d="M10.73,49.84c0,6.69,3.5,13.21,9.8,15.89,7.42,3.15,15-.23,21.65-3.83,13.29-7.24,16.52-22.41,19-36.11C62.78,17.18,64.49,8.36,69.36.92L68.22.77a189.49,189.49,0,0,1,2.29,30.09,142.56,142.56,0,0,1-.65,14.61,29.94,29.94,0,0,1-1.57,7.23,46.27,46.27,0,0,1-3.21,6.51,66.16,66.16,0,0,1-7.41,11.43A44.82,44.82,0,0,1,47.1,79.26c-7.45,4.61-16.55,8-25.41,6.2C13.36,83.8,4.92,78,1.16,70.21v.63A81,81,0,0,0,7.19,60c1.65-3.24,3.16-6.57,4.7-9.87.34-.72-.74-1.36-1.08-.63-1.54,3.3-3.05,6.63-4.69,9.87a82.78,82.78,0,0,1-6,10.82.6.6,0,0,0,0,.63c3.43,7.09,10.68,12.53,18,15,8.52,2.82,17.62.82,25.43-3.13A55.2,55.2,0,0,0,55.19,74.9a44,44,0,0,0,8.59-10.85c2.42-4.09,5.1-8.36,6.34-13C71.44,46.19,71.52,41,71.68,36A192,192,0,0,0,69.42.44c-.09-.57-.88-.55-1.14-.15-7.81,11.94-7.49,26.71-11.57,40-1.94,6.27-4.88,12.43-9.82,16.87a36.22,36.22,0,0,1-9.7,5.82c-3.59,1.6-7.28,3.14-11.29,2.84a14.79,14.79,0,0,1-10.29-5.19A17.33,17.33,0,0,1,12,49.84.63.63,0,0,0,10.73,49.84Z"/>
        <g data-name="color">
          <path d="M60.07,68.61a88.38,88.38,0,0,0,5.76-9.46A44.63,44.63,0,0,0,69,52.66a40,40,0,0,0,1.8-10.87,189.18,189.18,0,0,0-2-41.18c-5.9,8.9-7.19,20-9.22,30.43s-5.48,21.57-14,28l-.55.4c.36,2.37,2,4.11,3.53,6C51.31,68.7,56.48,71,60.07,68.61Z"/>
          <path d="M60.61,68.93a97.05,97.05,0,0,0,7-11.65A32.58,32.58,0,0,0,71.16,45a169,169,0,0,0,.1-28.72Q70.68,8.34,69.42.44c-.09-.57-.88-.55-1.14-.15-9.48,14.48-7,33-14.87,48.18a29,29,0,0,1-8.71,10.4.68.68,0,0,0-.29.71,11.19,11.19,0,0,0,2.68,5,17.82,17.82,0,0,0,3.83,3.73c2.79,1.86,6.47,2.73,9.46.84.68-.43.06-1.51-.63-1.08-2.73,1.72-6,.7-8.5-1A17.48,17.48,0,0,1,48,63.7a9.9,9.9,0,0,1-2.35-4.45l-.29.7C59.6,49.72,59.48,30.38,63.46,15A46.88,46.88,0,0,1,69.36.92L68.22.77a190.32,190.32,0,0,1,2.29,27.9q0,6.8-.38,13.58c-.3,4.6-1,9-3,13.19a90.42,90.42,0,0,1-7.57,12.85C59.06,69,60.14,69.57,60.61,68.93Z"/>
        </g>
      </g>
    </g>
  </g>
</svg>