<?xml version="1.0" encoding="UTF-8" standalone="yes"?>
<svg xmlns="http://www.w3.org/2000/svg" viewBox="0 0 55.66 58.42">
  <defs/>
  <g data-name="Layer_2">
    <g data-name="baby-cat-tail-3-patterns">
      <g data-name="tail-3-pattern-1-mask">
        <path d="M13.94,15.49a5,5,0,0,0,3,5.41c2.86,1,6-1.45,8.11-3a38.77,38.77,0,0,0,6.81-6.3A24.09,24.09,0,0,0,34.38,7.9a21.75,21.75,0,0,0,1-2A5.17,5.17,0,0,1,36,4.38l-1-.13A16.3,16.3,0,0,1,37.3,15c-.08.58.56,1.1,1,.61C42.22,11.7,46.67,6.65,44.71.72l-1.14.48c5,7.27,10.27,15,10.79,24.13a19.91,19.91,0,0,1-3,12.13,23.41,23.41,0,0,1-9,7.76.63.63,0,0,0,.15,1.14l1.76.46-.14-1.15a45.89,45.89,0,0,1-13.08,4.87A23.59,23.59,0,0,1,17,48.6a.63.63,0,0,0-.85.85c.15.33-.18,1.4-.18,1.87a10.64,10.64,0,0,0,2.68,7.17l.61-1a27.24,27.24,0,0,1-11-6.82,33.16,33.16,0,0,1-4.34-5.05,17.11,17.11,0,0,1-2.66-5.14l-.16.61a66.64,66.64,0,0,0,5.7-8c1.29-2.26,2.44-4.61,3.58-7C12,22.77,13.56,19.39,15.08,16c.33-.72-.75-1.36-1.08-.63-2.24,5-4.56,10.06-7.12,14.94C6.21,31.54,5.54,32.81,4.76,34s-1.48,2.16-2.27,3.21c-.5.67-1,1.32-1.53,2C.67,39.55.12,40,0,40.44s.35,1.32.57,1.84a23.18,23.18,0,0,0,1.62,3,33,33,0,0,0,4.18,5.25c3.44,3.55,7.72,6.72,12.53,8.09a.63.63,0,0,0,.61-1,9.42,9.42,0,0,1-2.22-4.83,8.94,8.94,0,0,1,0-2.53,2.11,2.11,0,0,0-.07-1.43l-.86.85a24.91,24.91,0,0,0,14.22,2.21c5-.73,9.73-2.82,14.21-5.13a.63.63,0,0,0-.15-1.14l-1.77-.46L43,46.3c5.7-2.94,10.46-7.81,12-14.17,1.72-7-.29-14.31-3.52-20.58a103.86,103.86,0,0,0-6.86-11c-.38-.55-1.38-.23-1.14.48,1.8,5.47-2.5,10.09-6,13.66l1,.61a17.7,17.7,0,0,0-2.4-11.7.64.64,0,0,0-1-.13A8.57,8.57,0,0,0,34,5.88a21.31,21.31,0,0,1-1.84,3.21,30.35,30.35,0,0,1-5.25,5.67,27.13,27.13,0,0,1-6.42,4.53c-1.3.58-2.83.9-4-.09a3.69,3.69,0,0,1-1.35-3.38C15.3,15,14.1,14.7,13.94,15.49Z" transform="translate(0 -0.29)"/>
        <g data-name="color-3">
          <path d="M37.26,28.44a4.72,4.72,0,0,0,5.13,5,4.72,4.72,0,0,0,3.46-6.25A3.41,3.41,0,0,0,45,26,4.44,4.44,0,0,0,42.12,25a5.37,5.37,0,0,0-3.2.76c-.93.63-2,2-1.69,3.06" transform="translate(0 -0.29)"/>
          <path d="M36.63,28.44a5.33,5.33,0,0,0,2.91,5A4.74,4.74,0,0,0,45,32.75a5.48,5.48,0,0,0,1.65-5A4.06,4.06,0,0,0,44.81,25a6.28,6.28,0,0,0-3.39-.63,5.4,5.4,0,0,0-3.5,1.39A3.57,3.57,0,0,0,36.63,29c.18.78,1.38.45,1.2-.34s.47-1.52,1-2a3.89,3.89,0,0,1,2.34-1,6,6,0,0,1,2.7.28,2.7,2.7,0,0,1,1.59,1.87,4.13,4.13,0,0,1-1.06,3.8,3.45,3.45,0,0,1-3.91.9,4.13,4.13,0,0,1-2.58-4.09c.08-.8-1.17-.79-1.25,0Z" transform="translate(0 -0.29)"/>
          <path d="M18,20.5c2.07.06,3.95-1.12,5.64-2.33a42.08,42.08,0,0,0,7.5-6.66c.41.1.89,1.74.9,2.16a18.14,18.14,0,0,1-.44,5.51,6.18,6.18,0,0,1-3.4,4.15,6.91,6.91,0,0,1-4,.1A17.47,17.47,0,0,1,18,20.5Z" transform="translate(0 -0.29)"/>
          <path d="M18,21.13c2.8,0,5.14-1.78,7.27-3.39A40.76,40.76,0,0,0,31.54,12l-.76.1c.31.13.53,1.16.58,1.51a14.79,14.79,0,0,1,0,2.9,7.78,7.78,0,0,1-2.12,5.44c-1.53,1.42-3.66,1.31-5.55.78a15.83,15.83,0,0,1-5.3-2.62c-.63-.49-1.52.39-.88.89,3.26,2.52,9.28,5.19,12.76,1.7a9.52,9.52,0,0,0,2.35-6.59,10.59,10.59,0,0,0-.16-3.23c-.16-.6-.43-1.58-1.06-1.86a.63.63,0,0,0-.75.09,38.36,38.36,0,0,1-5.87,5.45c-2,1.51-4.22,3.38-6.83,3.37A.63.63,0,0,0,18,21.13Z" transform="translate(0 -0.29)"/>
          <path d="M40.45,48.19c-7.75,3.48-15.38,5-23.78,1l.12.27a10,10,0,0,0,2.28,8.65c-5.57-1.53-12-6.67-15.76-12.19.74-3.3,3.92-5.73,6.61-7.77a26.53,26.53,0,0,1,9.14-4.2,19.47,19.47,0,0,1,7.3-.82C33.06,33.86,39.56,41.5,40.45,48.19Z" transform="translate(0 -0.29)"/>
          <path d="M40.13,47.65A34.77,34.77,0,0,1,28.8,50.86,23.64,23.64,0,0,1,17,48.62a.63.63,0,0,0-.85.86c.15.32-.18,1.4-.18,1.87a10.68,10.68,0,0,0,2.68,7.17l.61-1a27.46,27.46,0,0,1-11.1-6.9c-.8-.77-1.56-1.58-2.29-2.42s-1.93-1.85-1.74-2.8c.38-2,2.46-3.73,3.89-4.94a29,29,0,0,1,12.35-6.18A15.09,15.09,0,0,1,27.81,34,14.2,14.2,0,0,1,33,36.83a19,19,0,0,1,6.83,11.53c.11.79,1.32.46,1.2-.33a19.82,19.82,0,0,0-6.46-11.48,14.65,14.65,0,0,0-12.53-3.93A29.8,29.8,0,0,0,8,38.81a15.8,15.8,0,0,0-4.69,5.24c-.34.71-.83,1.57-.42,2.31a17.86,17.86,0,0,0,2.35,3c3.62,4.1,8.34,7.8,13.67,9.32a.63.63,0,0,0,.61-1,9.42,9.42,0,0,1-2.22-4.83,8.94,8.94,0,0,1,0-2.53,2.11,2.11,0,0,0-.07-1.43l-.86.85A24.81,24.81,0,0,0,28.8,52.11a36.73,36.73,0,0,0,12-3.38C41.5,48.41,40.86,47.33,40.13,47.65Z" transform="translate(0 -0.29)"/>
        </g>
      </g>
    </g>
  </g>
</svg>