<?xml version="1.0" encoding="UTF-8" standalone="yes"?>
<svg xmlns="http://www.w3.org/2000/svg" viewBox="0 0 55.66 58.44">
  <defs/>
  <g data-name="Layer_2">
    <g data-name="baby-cat-tail-3-patterns">
      <g data-name="tail-3-pattern-2-mask">
        <path d="M13.94,15.49a5,5,0,0,0,3,5.41c2.86,1,6-1.45,8.11-3a38.77,38.77,0,0,0,6.81-6.3A24.09,24.09,0,0,0,34.38,7.9a21.75,21.75,0,0,0,1-2A5.17,5.17,0,0,1,36,4.38l-1-.13A16.3,16.3,0,0,1,37.3,15c-.08.58.56,1.1,1,.61C42.22,11.7,46.67,6.65,44.71.72l-1.14.48c5,7.27,10.27,15,10.79,24.13a19.91,19.91,0,0,1-3,12.13,23.41,23.41,0,0,1-9,7.76.63.63,0,0,0,.15,1.14l1.76.46-.14-1.15a45.89,45.89,0,0,1-13.08,4.87A23.59,23.59,0,0,1,17,48.6a.63.63,0,0,0-.85.85c.15.33-.18,1.4-.18,1.87a10.64,10.64,0,0,0,2.68,7.17l.61-1a27.24,27.24,0,0,1-11-6.82,33.16,33.16,0,0,1-4.34-5.05,17.11,17.11,0,0,1-2.66-5.14l-.16.61a66.64,66.64,0,0,0,5.7-8c1.29-2.26,2.44-4.61,3.58-7C12,22.77,13.56,19.39,15.08,16c.33-.72-.75-1.36-1.08-.63-2.24,5-4.56,10.06-7.12,14.94C6.21,31.54,5.54,32.81,4.76,34s-1.48,2.16-2.27,3.21c-.5.67-1,1.32-1.53,2C.67,39.55.12,40,0,40.44s.35,1.32.57,1.84a23.18,23.18,0,0,0,1.62,3,33,33,0,0,0,4.18,5.25c3.44,3.55,7.72,6.72,12.53,8.09a.63.63,0,0,0,.61-1,9.42,9.42,0,0,1-2.22-4.83,8.94,8.94,0,0,1,0-2.53,2.11,2.11,0,0,0-.07-1.43l-.86.85a24.91,24.91,0,0,0,14.22,2.21c5-.73,9.73-2.82,14.21-5.13a.63.63,0,0,0-.15-1.14l-1.77-.46L43,46.3c5.7-2.94,10.46-7.81,12-14.17,1.72-7-.29-14.31-3.52-20.58a103.86,103.86,0,0,0-6.86-11c-.38-.55-1.38-.23-1.14.48,1.8,5.47-2.5,10.09-6,13.66l1,.61a17.7,17.7,0,0,0-2.4-11.7.64.64,0,0,0-1-.13A8.57,8.57,0,0,0,34,5.88a21.31,21.31,0,0,1-1.84,3.21,30.35,30.35,0,0,1-5.25,5.67,27.13,27.13,0,0,1-6.42,4.53c-1.3.58-2.83.9-4-.09a3.69,3.69,0,0,1-1.35-3.38C15.3,15,14.1,14.7,13.94,15.49Z" transform="translate(0 -0.29)"/>
        <g data-name="color">
          <path d="M6.8,50.13c3.63,3.76,8.17,6.84,12.28,8a9.94,9.94,0,0,1-2.29-8.65l-.12-.26c9.85,4.69,18.64,1.83,27.79-2.92L42.7,45.8A22.69,22.69,0,0,0,53.31,35.26c2.55-5.67,2-12.33-.07-18.17S47.61,6.05,44.1.93a9.83,9.83,0,0,1-1,7.93,29,29,0,0,1-5.21,6.33A16.6,16.6,0,0,0,35.56,4l-.23.25c-1.92,5.88-6.71,10.35-11.73,14C21.92,19.39,20,20.58,18,20.52a4,4,0,0,1-3.67-2.74c-.35,2.82,2.11,6.47,4.93,6.81,1.06.13,2.31,0,3,.84a25.85,25.85,0,0,1-7.81,3.2c-.42.1-.89.22-1.07.61a1.4,1.4,0,0,0,.24,1.23,32.34,32.34,0,0,1,3.21,9A68.9,68.9,0,0,0,10,36.65C8.23,40.93,6.56,45.37,7,50H7" transform="translate(0 -0.29)"/>
          <path d="M6.35,50.57c3.48,3.56,7.72,6.74,12.56,8.13a.63.63,0,0,0,.61-1.05,9.5,9.5,0,0,1-2.22-4.83,9.32,9.32,0,0,1,0-2.53,2.12,2.12,0,0,0-.07-1.43l-.86.86a24.94,24.94,0,0,0,14.23,2.2c5-.72,9.72-2.81,14.2-5.12a.63.63,0,0,0-.15-1.14l-1.77-.46L43,46.34c5.7-2.94,10.47-7.81,12-14.17,1.71-7-.29-14.31-3.53-20.58a104.89,104.89,0,0,0-6.86-11c-.37-.55-1.37-.23-1.14.48,1.81,5.48-2.5,10.1-6,13.66l1,.61A17.62,17.62,0,0,0,36.1,3.67a.63.63,0,0,0-1-.13,7.31,7.31,0,0,0-1,2.2,20.89,20.89,0,0,1-1.59,2.9,28.75,28.75,0,0,1-4.83,5.5,39.27,39.27,0,0,1-5.76,4.44c-2.16,1.33-6,2.3-7-1a.63.63,0,0,0-1.23.16,7.39,7.39,0,0,0,2.22,5.69A5.86,5.86,0,0,0,18.31,25c1.09.35,2.6,0,3.45.85l.13-1a26.5,26.5,0,0,1-5.51,2.55c-1.09.35-3.33.41-3.69,1.78A2.25,2.25,0,0,0,13,30.79c.47,1,1,1.94,1.39,3a33,33,0,0,1,1.76,5.92L17.1,39c-2.27-1.08-4.59-2.06-7-2.92a.65.65,0,0,0-.77.44C7.62,40.79,6,45.24,6.34,50l.79-.6-.09,0a.63.63,0,0,0-.33,1.21l.18.05a.63.63,0,0,0,.33-1.21l-.09,0a.62.62,0,0,0-.33,1.2l.09,0,.33-1.21-.18,0-.33,1.21.09,0a.63.63,0,0,0,.79-.6c-.34-4.62,1.27-8.95,3-13.16l-.77.44q3.4,1.23,6.67,2.79a.63.63,0,0,0,.92-.7A33.88,33.88,0,0,0,16,34.49c-.25-.7-.53-1.39-.83-2.06a13.47,13.47,0,0,1-1.09-2.27c-.2-1.08,1-1,1.75-1.26A25.11,25.11,0,0,0,18.39,28,28.45,28.45,0,0,0,22.52,26a.63.63,0,0,0,.13-1c-1.35-1.37-3.44-.65-5-1.66a6.25,6.25,0,0,1-2.74-5.55L13.69,18A4.74,4.74,0,0,0,19,21.08c2.79-.39,5.18-2.43,7.31-4.12a35.5,35.5,0,0,0,6.19-6.12A22.77,22.77,0,0,0,34.56,7.6c.3-.57.58-1.14.82-1.73A5,5,0,0,1,36,4.42L35,4.3A16.23,16.23,0,0,1,37.29,15a.64.64,0,0,0,1.05.61c3.87-3.9,8.32-8.94,6.37-14.88l-1.15.48c5,7.28,10.27,15.05,10.8,24.13a20,20,0,0,1-3,12.13,23.34,23.34,0,0,1-9,7.76.63.63,0,0,0,.15,1.14l1.77.46-.15-1.14a45.92,45.92,0,0,1-13.07,4.86A23.57,23.57,0,0,1,17,48.64a.63.63,0,0,0-.86.85c.15.33-.17,1.4-.18,1.88a10.64,10.64,0,0,0,2.69,7.17l.6-1c-4.64-1.33-8.67-4.4-12-7.8-.57-.58-1.45.31-.89.88Z" transform="translate(0 -0.29)"/>
        </g>
      </g>
    </g>
  </g>
</svg>