<?xml version="1.0" encoding="UTF-8" standalone="yes"?>
<svg xmlns="http://www.w3.org/2000/svg" viewBox="0 0 71.76 87.13">
  <defs/>
  <g data-name="Layer_2">
    <g data-name="baby-cat-tail-2-patterns">
      <g data-name="tail-2-pattern-5-mask">
        <path d="M10.73,49.84c0,6.69,3.5,13.21,9.8,15.89,7.42,3.15,15-.23,21.65-3.83,13.29-7.24,16.52-22.41,19-36.11C62.78,17.18,64.49,8.36,69.36.92L68.22.77a189.49,189.49,0,0,1,2.29,30.09,142.56,142.56,0,0,1-.65,14.61,29.94,29.94,0,0,1-1.57,7.23,46.27,46.27,0,0,1-3.21,6.51,66.16,66.16,0,0,1-7.41,11.43A44.82,44.82,0,0,1,47.1,79.26c-7.45,4.61-16.55,8-25.41,6.2C13.36,83.8,4.92,78,1.16,70.21v.63A81,81,0,0,0,7.19,60c1.65-3.24,3.16-6.57,4.7-9.87.34-.72-.74-1.36-1.08-.63-1.54,3.3-3.05,6.63-4.69,9.87a82.13,82.13,0,0,1-6,10.82.6.6,0,0,0,0,.63c3.43,7.09,10.68,12.53,18,15,8.52,2.82,17.62.82,25.43-3.13A55.2,55.2,0,0,0,55.19,74.9a44,44,0,0,0,8.59-10.85c2.42-4.09,5.1-8.36,6.34-13C71.44,46.19,71.52,41,71.68,36A192,192,0,0,0,69.42.44c-.09-.57-.88-.55-1.14-.15-7.81,11.94-7.49,26.71-11.57,40-1.94,6.27-4.88,12.43-9.82,16.87a36.22,36.22,0,0,1-9.7,5.82c-3.59,1.6-7.28,3.14-11.29,2.84a14.79,14.79,0,0,1-10.29-5.19A17.33,17.33,0,0,1,12,49.84.63.63,0,0,0,10.73,49.84Z"/>
        <g data-name="color">
          <path d="M33.73,69a7.2,7.2,0,0,0-.45,2.36,3.42,3.42,0,0,0,.77,2.6,2.53,2.53,0,0,0,2.64.21,5.8,5.8,0,0,0,2.07-1.84,4.24,4.24,0,0,0,1.07-2.39c0-1.35-1.25-2.82-2.59-2.63-1.88.26-3.47,1.2-3.51,1.69"/>
          <path d="M33.13,68.78c-.12.63-.39,1.2-.45,1.85a6.71,6.71,0,0,0,.2,2.56c.61,1.85,2.75,2.22,4.33,1.37a6.56,6.56,0,0,0,2-1.83,5.16,5.16,0,0,0,1.24-2.61,3.31,3.31,0,0,0-2.84-3.5,5.09,5.09,0,0,0-1.59.26,8.6,8.6,0,0,0-1.36.51c-.53.26-1.42.72-1.52,1.39a.65.65,0,0,0,.44.77.63.63,0,0,0,.77-.44c0-.13,0,0,0,0s0-.08,0-.08,0,0,0,0a.74.74,0,0,1,.13-.12,3.78,3.78,0,0,1,.61-.38A7.42,7.42,0,0,1,37,67.92a1.53,1.53,0,0,1,1.49.45,2.16,2.16,0,0,1,.67,1.43,3.31,3.31,0,0,1-.8,1.94A6.5,6.5,0,0,1,37,73.25c-.91.64-2.51.85-2.89-.49a5.61,5.61,0,0,1-.13-2.16c.07-.51.31-1,.41-1.49a.65.65,0,0,0-.44-.77.64.64,0,0,0-.77.44Z"/>
          <path d="M57.68,54.67c.87,1.2,3.23,1.53,4.69,1.27a6,6,0,0,0,2.79-1.1,2.61,2.61,0,0,0,1-2.69c-.49-1.46-2.37-1.82-3.91-1.81a7.33,7.33,0,0,0-3.15.54,3,3,0,0,0-1.84,2.45c0,1.08,1.44,2.63,2.5,2.5"/>
          <path d="M57.14,55c1.12,1.47,3.29,1.83,5,1.61,2.06-.26,4.64-1.36,4.66-3.8,0-2.17-2.26-3-4-3.06C60.68,49.61,58,50,56.94,52A2.68,2.68,0,0,0,57.17,55a3.12,3.12,0,0,0,2.54,1.49c.8-.06.81-1.31,0-1.25a1.82,1.82,0,0,1-1.41-.82A1.51,1.51,0,0,1,58,52.76c.7-1.64,2.81-1.81,4.34-1.8,1.08,0,2.92.18,3.23,1.48a2,2,0,0,1-.82,2,5.4,5.4,0,0,1-2.37.92,6,6,0,0,1-2.2,0,3.16,3.16,0,0,1-1.93-.94.65.65,0,0,0-.86-.22.62.62,0,0,0-.22.85Z"/>
          <path d="M48.39,79.15l1-.64a44,44,0,0,0,8-6.61c3.46-3.76,6-8.28,8.45-12.75l.27-.49c-4.18,0-10.06,1.44-13.21,4.18C48.66,66.48,47.34,73.71,48.39,79.15Z"/>
          <path d="M48.71,79.69a44.31,44.31,0,0,0,10.48-9A77.59,77.59,0,0,0,66.57,59,.63.63,0,0,0,66,58c-5.22.08-11.63,1.55-15,5.83s-4.17,10.27-3.21,15.44c.15.79,1.35.46,1.2-.33-.89-4.79-.11-10.58,3.06-14.44s9.19-5.18,14-5.25l-.54-.94A77.51,77.51,0,0,1,58.31,69.8a43.55,43.55,0,0,1-10.23,8.81C47.4,79,48,80.13,48.71,79.69Z"/>
          <path d="M71.06,27.81A187.65,187.65,0,0,0,68.75.61C64,7.84,62.21,16.49,60.63,25.1a4.37,4.37,0,0,0,2.91,2.71c1,.4,2.32,1.85,5.36.85A7.78,7.78,0,0,0,71.06,27.81Z"/>
          <path d="M71.68,27.81A193,193,0,0,0,69.36.44c-.09-.57-.88-.55-1.15-.15C63.92,6.86,62,14.52,60.55,22.13c-.31,1.63-.92,3.08.18,4.49a8.39,8.39,0,0,0,3,2,6.65,6.65,0,0,0,2.92,1,8.8,8.8,0,0,0,4.69-1.27c.69-.43.06-1.51-.63-1.08a7.07,7.07,0,0,1-4.61,1,10.21,10.21,0,0,1-2.21-1c-1.57-.75-2.81-1.39-2.45-3.33.3-1.58.6-3.15.93-4.72C63.77,12.82,65.67,6.47,69.29.92L68.15.77a191.3,191.3,0,0,1,2.28,27A.63.63,0,0,0,71.68,27.81Z"/>
          <path d="M33,65.31a19.82,19.82,0,0,1-3.78,1A16,16,0,0,1,16.6,62.6a13.85,13.85,0,0,1-1.92-2.11A27.28,27.28,0,0,0,14,66.76a6.1,6.1,0,0,0,1.69,4.73,9.14,9.14,0,0,0,4,1.77c2.6.69,5.45,1.35,7.88.21C30.24,72.17,32.51,68.32,33,65.31Z"/>
          <path d="M32.83,64.71a16.37,16.37,0,0,1-9.71.61,14.37,14.37,0,0,1-7.9-5.15.64.64,0,0,0-1.14.15,23.1,23.1,0,0,0-.75,6.58,6.31,6.31,0,0,0,3.07,5.87,14.09,14.09,0,0,0,3.36,1.17,21,21,0,0,0,4,.75,7.79,7.79,0,0,0,6.3-2.37,13.42,13.42,0,0,0,3.53-6.84c.13-.79-1.07-1.12-1.21-.33a12.14,12.14,0,0,1-3.49,6.57c-2.31,2.19-5.31,1.89-8.18,1.18a15.05,15.05,0,0,1-3.82-1.27,4.83,4.83,0,0,1-2.28-3.72,19.19,19.19,0,0,1,.08-3.47,15.75,15.75,0,0,1,.59-3.79l-1.15.15a15.7,15.7,0,0,0,8.35,5.65,17.61,17.61,0,0,0,10.67-.53C33.91,65.66,33.59,64.45,32.83,64.71Z"/>
        </g>
      </g>
    </g>
  </g>
</svg>