<?xml version="1.0" encoding="UTF-8" standalone="yes"?>
<svg xmlns="http://www.w3.org/2000/svg" viewBox="0 0 146 172.7">
  <defs/>
  <g data-name="Layer_2">
    <g data-name="baby-cat-tail-1-patterns">
      <g data-name="tail-1-pattern-6-mask">
        <path d="M21.05,113a10.59,10.59,0,0,0,7.33,10.15c4.33,1.35,8.69-.34,11.68-3.56,3.16-3.41,4.95-7.91,6.41-12.26A73,73,0,0,0,50,90.69a73.23,73.23,0,0,0-.73-18.76l-.91.7a21.14,21.14,0,0,1,7.44,7.27,46,46,0,0,1,3.51,8.56.63.63,0,0,0,1.21-.33A65.12,65.12,0,0,1,59.58,80,51.21,51.21,0,0,1,61,69.43c.67-3.33,1.15-6.64,1.5-10A51.15,51.15,0,0,1,64.32,49.2c2-6.37,5.5-12.52,9.15-18.09A73.25,73.25,0,0,1,102.36,5.57L101.42,5c-.37,4.44-.69,9,.78,13.28a.63.63,0,0,0,1,.28C115.14,8.5,130.71,4.73,145.53,1.22l-.79-.6c-.06.61-1.14,1.48-1.61,2-.75.91-1.5,1.83-2.22,2.76q-2.17,2.78-4.19,5.67a112,112,0,0,0-7.45,12.34A95.66,95.66,0,0,0,120,49.72a82.11,82.11,0,0,0-1.42,15.8.63.63,0,0,0,1.07.44,28.23,28.23,0,0,1,2.38-1.82,35.31,35.31,0,0,0,2.8-2.53,36.63,36.63,0,0,0,4.45-5.48l-1.14-.48c-1.38,9.59-2.41,19.24-4.08,28.79a123.75,123.75,0,0,1-7.8,26.86c-2.07,4.91-4.36,9.72-6.68,14.51a.63.63,0,0,0,1.08.63l.93-1.52c.42-.69-.64-1.3-1.08-.63a74.53,74.53,0,0,1-17.26,18.26,75.62,75.62,0,0,1-10.38,6.56c-1.88,1-3.8,1.89-5.77,2.71-1,.4-2,.79-3,1.15-.64.24-1,.3-1.3.89a.64.64,0,0,0,.22.86A31.38,31.38,0,0,0,83,157.59l-.62-.62,0,.35.3-.54a76,76,0,0,1-56,4.68c-.5-.16-.82.32-.76.77a26.6,26.6,0,0,1,.14,5.78,8.55,8.55,0,0,1-.92,3.75h1.08a79.83,79.83,0,0,0-12.42-14.19c-4.29-4-8.92-7.91-12.73-12.43V146c5-4.8,9.67-9.85,12.94-16,2.29-4.31,4.4-8.72,6.5-13.12.58-1.2,1.15-2.41,1.72-3.61.34-.72-.74-1.36-1.08-.63q-2.13,4.51-4.32,9c-2.25,4.6-4.41,9.32-7.46,13.45a79.35,79.35,0,0,1-9.18,10,.63.63,0,0,0,0,.88c3.72,4.42,8.23,8.2,12.42,12.15,4.61,4.35,9.07,8.89,12.53,14.23a.64.64,0,0,0,1.08,0,9.3,9.3,0,0,0,1-3.93,27.34,27.34,0,0,0-.14-6.58l-.77.77a77.78,77.78,0,0,0,47.32-.76q3-1,6-2.31c1.06-.46,2.1-.94,3.13-1.45.69-.34.85-.44.92-1.17,0-.37-.32-.59-.63-.63a29.28,29.28,0,0,1-9.29-2.7l.22.85c.23-.44,1.46-.65,2-.87.91-.36,1.81-.73,2.71-1.12,1.94-.85,3.84-1.77,5.7-2.78a76.42,76.42,0,0,0,27.21-24.8l-1.08-.63-.93,1.52,1.08.63c4-8.34,8-16.76,10.83-25.6,2.93-9.18,4.34-18.78,5.63-28.3.75-5.52,1.43-11,2.23-16.56a.63.63,0,0,0-1.15-.48A34.87,34.87,0,0,1,123.69,61a32.91,32.91,0,0,1-2.5,2.23,26.8,26.8,0,0,0-2.38,1.83l1.06.44c-.16-19.07,6.79-37.49,17.45-53.11,1.54-2.25,3.16-4.46,4.86-6.6.82-1,1.65-2.06,2.5-3.07.6-.71,1.22-1.19,1.31-2.12,0-.42-.43-.69-.79-.6-15.06,3.56-30.76,7.44-42.84,17.68l1,.28C102,13.79,102.31,9.36,102.67,5a.63.63,0,0,0-.94-.54A74.82,74.82,0,0,0,73.82,28.38,86.18,86.18,0,0,0,64,46.49c-2.61,6.74-2.46,14-3.82,21a71.42,71.42,0,0,0-1.79,11.62,58,58,0,0,0,.94,9.38l1.21-.33c-1.12-3.12-2.06-6.37-3.84-9.19A22.56,22.56,0,0,0,49,71.55a.64.64,0,0,0-.92.71,71.86,71.86,0,0,1-1.34,29.91A51.84,51.84,0,0,1,41.84,115c-2,3.54-5.14,7-9.46,7.35A9.32,9.32,0,0,1,22.3,113,.63.63,0,0,0,21.05,113Z"/>
        <g data-name="color">
          <path d="M60.52,136.68a2.64,2.64,0,0,0,2.59-1.29,3.87,3.87,0,0,0-.31-2.21,25.69,25.69,0,0,0-2.48-5.53A9.34,9.34,0,0,0,55.54,124a9.82,9.82,0,0,0,5,12.66c-.16-.15,1.28.15,1.13,0"/>
          <path d="M60.35,137.28a2.71,2.71,0,0,0,3.2-3.83c-.28-.9-.62-1.79-1-2.66a14.94,14.94,0,0,0-2.66-4.67,10.41,10.41,0,0,0-4.22-2.7.64.64,0,0,0-.77.43,10.57,10.57,0,0,0,5.27,13.37.63.63,0,0,0,.86-.85v0l-.1.76c-.21.19-.46.15-.08.18l.47.05a.87.87,0,0,0,.76-.19.62.62,0,0,0,.1-.75v0a.63.63,0,0,0-1.08.63v0l.1-.76c.21-.19.45-.15.07-.18l-.47-.05a.91.91,0,0,0-.76.19A.63.63,0,0,0,60,137v0l.85-.86a9.35,9.35,0,0,1-4.69-12l-.77.44a9.17,9.17,0,0,1,3.39,2.1A11.72,11.72,0,0,1,61,130.24c.3.67.56,1.36.82,2a13.5,13.5,0,0,1,.7,2.15,1.08,1.08,0,0,1-.62,1.33,1.69,1.69,0,0,1-1.22.31c-.76-.26-1.09.95-.33,1.2Z"/>
          <path d="M58.79,122.41a39.92,39.92,0,0,1,5.68,10.39c.14.4.37.87.79.91s.78-.52.93-1l.59-1.78a11.76,11.76,0,0,0,.78-3.68,5.76,5.76,0,0,0-8.77-4.85"/>
          <path d="M58.35,122.85a36.73,36.73,0,0,1,4,6.48c.54,1.1,1,2.23,1.46,3.37.3.83.83,1.94,1.93,1.57s1.26-1.88,1.55-2.77a14.8,14.8,0,0,0,.92-3.82,6.39,6.39,0,0,0-9.69-5.81.63.63,0,0,0,.63,1.08,5.13,5.13,0,0,1,7.82,4.31,9.78,9.78,0,0,1-.66,3.21c-.16.5-.32,1-.49,1.49,0,.13-.29,1.12-.46,1.13s-.44-1-.48-1.07c-.19-.48-.38-.94-.58-1.41-.4-1-.85-1.89-1.33-2.81A37.23,37.23,0,0,0,59.24,122c-.5-.64-1.38.25-.89.88Z"/>
          <path d="M82.35,125.22A17.47,17.47,0,0,0,84,138.51c.06.1.12.2.22.23s.39-.22.45-.46l2.13-8.6a6.59,6.59,0,0,0,.09-4.27c-.61-1.32-3.56-1.31-4.49-.19"/>
          <path d="M81.75,125.05a18.25,18.25,0,0,0-.45,7.71,17.79,17.79,0,0,0,1,3.86c.22.54.46,1.08.73,1.6s.49,1.09,1.09,1.15c1.2.1,1.31-2,1.51-2.75l1.13-4.56a33.64,33.64,0,0,0,.93-4.21,4.16,4.16,0,0,0-.66-3.19,3.92,3.92,0,0,0-5.17.11c-.54.6.34,1.49.88.89.69-.76,2.63-1,3.36-.16.6.66.42,2,.28,2.76-.2,1.12-.52,2.23-.8,3.34L84.79,135l-.42,1.69-.19.78a1.52,1.52,0,0,0-.13.53c-.08.15,0,.21.21.17s.29.08.18-.06-.26-.47-.33-.61-.24-.48-.35-.72c-.21-.47-.39-1-.56-1.45a18.29,18.29,0,0,1-.71-3,16.9,16.9,0,0,1,.46-6.93.62.62,0,0,0-1.2-.33Z"/>
          <path d="M89,123.73l-.45,12.51a21.63,21.63,0,0,0,3.63-3.59c1.37-1.67,2.62-3.68,2.4-5.83-.27-2.61-3-3.6-5.58-3.09"/>
          <path d="M88.32,123.73l-.44,12.51a.63.63,0,0,0,.94.54,22.77,22.77,0,0,0,4.24-4.31,8.79,8.79,0,0,0,2.12-5.13,4.09,4.09,0,0,0-2-3.63,6.33,6.33,0,0,0-4.4-.58c-.79.15-.45,1.35.33,1.2a5,5,0,0,1,3.44.46A3,3,0,0,1,93.88,128a8.91,8.91,0,0,1-2.12,4.15,21.59,21.59,0,0,1-3.57,3.58l.94.54.44-12.51c0-.8-1.22-.8-1.25,0Z"/>
          <path d="M76.39,92.83A10.67,10.67,0,0,0,74.45,106c2-3,4.48-6.67,5.31-10.52a4.47,4.47,0,0,0-.12-2.78c-.39-.86-2.33-.14-3.25.09"/>
          <path d="M76,92.39a11.33,11.33,0,0,0-2,14,.63.63,0,0,0,1.08,0c2-3.06,4.15-6.21,5.16-9.79.34-1.23.9-3.54-.28-4.52-1-.8-2.6-.09-3.65.18a.63.63,0,0,0,.34,1.21c.49-.13,1-.29,1.49-.4a2.28,2.28,0,0,1,.78-.08c.27.05.27.07.36.35.42,1.41-.26,3.15-.76,4.46a40.92,40.92,0,0,1-4.52,8H75a10.08,10.08,0,0,1,1.84-12.45c.6-.54-.28-1.43-.88-.89Z"/>
          <path d="M82,94.61c-.16,4.62-3.46,9.2-3.52,13.82a5.56,5.56,0,0,0,3-1.27A11,11,0,0,0,86,101c.57-2.54-.46-5.54-2.81-6.67-.44-.21-1.18-.2-1.22.29"/>
          <path d="M81.35,94.61c-.22,4.83-3.4,9-3.51,13.82a.64.64,0,0,0,.62.63c2.19-.13,4.16-1.79,5.6-3.34a9.61,9.61,0,0,0,2.67-5.29,7,7,0,0,0-1.37-5.13,4.78,4.78,0,0,0-2.13-1.64,1.37,1.37,0,0,0-1.86.79c-.19.78,1,1.11,1.21.33,0-.17,1.37.81,1.47.91a5,5,0,0,1,1.08,1.69,6.11,6.11,0,0,1,.1,4.07,9.28,9.28,0,0,1-2.44,3.78c-1.13,1.13-2.66,2.48-4.33,2.58l.63.62c.11-4.83,3.29-9,3.51-13.82,0-.8-1.21-.8-1.25,0Z"/>
          <path d="M102.82,116.69c.9.43,2-.62,2.5-1.49a3.31,3.31,0,0,0,0-2.88,9.89,9.89,0,0,0-1.74-2.39l-1.5-1.68a4.94,4.94,0,0,0-1.39-1.19c-.55-.27-2.55,1.48-3,1.88-.37,1,.26,2.07.89,2.93a35.25,35.25,0,0,0,4.31,4.82c.06-.29.67.27.72,0"/>
          <path d="M102.66,117.29a2.32,2.32,0,0,0,2.43-.76,3.69,3.69,0,0,0,1.16-2.6c0-2.34-2-4.09-3.41-5.7a12.78,12.78,0,0,0-1.07-1.14,2.2,2.2,0,0,0-1.22-.68,3,3,0,0,0-1.67.73,17.34,17.34,0,0,0-1.58,1.25c-.72.66-.38,1.92,0,2.68a15.21,15.21,0,0,0,2.32,3.16,34.62,34.62,0,0,0,2.78,2.9.63.63,0,0,0,1-.12c-.56.09-.71.17-.46.23l.15.06a1.46,1.46,0,0,0,.3.07.71.71,0,0,0,.73-.39c.32-.73-.76-1.37-1.08-.63.56-.09.71-.17.46-.23l-.15-.06A1.53,1.53,0,0,0,103,116a.73.73,0,0,0-.74.39l1-.13a35,35,0,0,1-3.77-4.12,5.59,5.59,0,0,1-1.33-2.29,1.94,1.94,0,0,1,0-.59c0,.12-.09.1,0,0s.38-.31.56-.46a9.73,9.73,0,0,1,1.35-1,1.65,1.65,0,0,1,.41-.18c-.2,0,0,.07.13.14a4.32,4.32,0,0,1,.51.45c.66.68,1.28,1.42,1.91,2.13a9.6,9.6,0,0,1,1.58,2.12,2.68,2.68,0,0,1,0,2.55c-.32.52-1,1.33-1.7,1a.62.62,0,0,0-.77.44.64.64,0,0,0,.44.76Z"/>
          <path d="M103.27,105.9c1.26,1.9,2.55,3.78,3.85,5.66.25.36.55.75,1,.79.62.05,1-.63,1.23-1.22a11.08,11.08,0,0,0,.56-4.08,4.25,4.25,0,0,0-1.55-3.43,4.79,4.79,0,0,0-2.67-.57,3.31,3.31,0,0,0-2,.47c-.56.44-.68,2.38-.1,2.8"/>
          <path d="M102.73,106.22l2.06,3.06c.66,1,1.28,2,2,2.87a1.58,1.58,0,0,0,2.41.4,5,5,0,0,0,1.14-2.76c.34-1.88.42-4.25-.78-5.86a3.66,3.66,0,0,0-2.48-1.41,6.85,6.85,0,0,0-3,.08,2.11,2.11,0,0,0-1.51,2,2.49,2.49,0,0,0,.52,2.21c.62.5,1.51-.38.88-.89-.24-.2-.22-.81-.17-1.16.06-.52.18-.78.68-.92a6,6,0,0,1,2.27-.07,2.55,2.55,0,0,1,1.8,1c.89,1.21.84,3,.63,4.45a6,6,0,0,1-.66,2.28c-.13.22-.26.39-.5.26s-.5-.61-.68-.86q-1.8-2.6-3.54-5.21c-.45-.67-1.53,0-1.08.63Z"/>
          <path d="M103,77c-.2-2.46.74-5.39.16-7.78-.28-1.15-1.91-1.83-2.92-2.44-.89,2-1.73,4.06-1.45,6.19S100.83,77.2,103,77Z"/>
          <path d="M103.59,77c-.15-2.28.53-4.54.32-6.82a3.43,3.43,0,0,0-1-2.45,14.35,14.35,0,0,0-2.35-1.49.63.63,0,0,0-.85.23c-1,2.31-2.16,5-1.31,7.58.66,2,2.42,3.71,4.61,3.57.8,0,.8-1.3,0-1.25a3.63,3.63,0,0,1-3.48-2.93c-.58-2.14.39-4.42,1.26-6.34l-.86.22a13.27,13.27,0,0,1,2,1.25,2.72,2.72,0,0,1,.76,2.27c0,2.06-.49,4.1-.35,6.16C102.4,77.82,103.65,77.82,103.59,77Z"/>
          <path d="M104.09,66.26c.59,3.24.82,6.73,2.18,9.73,1.27-1.57,3-3.76,3.25-5.77s-.38-4.41-2.15-5.38c-1.15-.63-3.05.7-3.28,1.42"/>
          <path d="M103.48,66.43c.61,3.33.86,6.74,2.25,9.87a.63.63,0,0,0,1,.13,18.65,18.65,0,0,0,3-4.59,7.18,7.18,0,0,0,.05-4.86c-.46-1.3-1.53-2.9-3.07-2.93a3.67,3.67,0,0,0-3.24,2c-.28.75.93,1.08,1.21.33A2.34,2.34,0,0,1,107,65.35c1.1.39,1.64,1.81,1.84,2.84a5.79,5.79,0,0,1-.48,3.73,20,20,0,0,1-2.52,3.62l1,.13c-1.34-3-1.54-6.37-2.12-9.57-.14-.79-1.35-.46-1.21.33Z"/>
          <path d="M69.13,68.6c-1-3.92,1-7.83,3.9-10.37a.81.81,0,0,1,1.34.6,28.45,28.45,0,0,1-.48,7.32,5.17,5.17,0,0,1-1,2.21c-.52.62-1.63,1.81-2.41,1.6-1-.27-1.61-.44-1.61-3"/>
          <path d="M69.74,68.43A8.58,8.58,0,0,1,70.29,63a11.85,11.85,0,0,1,1.47-2.47,10.17,10.17,0,0,1,.86-1c.17-.19.67-.86.94-.84s.22,2.37.22,2.74a23.93,23.93,0,0,1-.26,3.38,7.63,7.63,0,0,1-.86,2.89,4.24,4.24,0,0,1-1.73,1.63,1.14,1.14,0,0,1-1-.27c-.45-.48-.38-1.48-.39-2.08a.63.63,0,0,0-1.25,0,4.94,4.94,0,0,0,.53,2.68,2.32,2.32,0,0,0,1.46.91,2.81,2.81,0,0,0,2.53-1.11,6.09,6.09,0,0,0,1.65-2.93A21.66,21.66,0,0,0,75,62.18c0-.71,0-1.41,0-2.12a4,4,0,0,0-.22-1.94,1.51,1.51,0,0,0-1.08-.7,1.71,1.71,0,0,0-1.4.61A13.78,13.78,0,0,0,70,60.86a10.4,10.4,0,0,0-1.46,7.9c.18.79,1.39.45,1.21-.33Z"/>
          <path d="M76.65,57.86c0,4-1.7,8.13-1.7,12.1,0,.16.84.88.93,1,.25.33,1.63-.69,1.93-1a23,23,0,0,0,3.07-3.69,8,8,0,0,0,1.34-2.93A5.07,5.07,0,0,0,81,59.1c-1-1.15-2.86-1.36-4.39-1.24"/>
          <path d="M76,57.86c0,2.91-.88,5.72-1.36,8.58-.11.63-.2,1.27-.26,1.91a4.35,4.35,0,0,0,0,1.9,2.91,2.91,0,0,0,1.52,1.39c.75.11,1.6-.6,2.14-1a16.26,16.26,0,0,0,2.43-2.68c1.57-2,3-4.43,2.22-7.08a4.94,4.94,0,0,0-2.21-3,7,7,0,0,0-3.84-.65c-.8.06-.8,1.31,0,1.25a6.62,6.62,0,0,1,2.86.32,3.42,3.42,0,0,1,1.89,2.08c.83,2.25-.41,4.28-1.72,6a20,20,0,0,1-2.23,2.54,6.11,6.11,0,0,1-.63.51l-.84.44.35.11,0,0s-.13-.12-.13-.13a3.71,3.71,0,0,0-.29-.27c-.08-.08-.33-.26-.37-.38,0,.12.08-.1.08-.09,0-.19,0-.38,0-.57a26.62,26.62,0,0,1,.49-3.44,43.24,43.24,0,0,0,1.19-7.74.63.63,0,0,0-1.25,0Z"/>
          <path d="M104.29,39.07c-1.65-.61-5.3-.48-6.62.67a5,5,0,0,0-1.6,4.75,13.33,13.33,0,0,0,7.21-1.88c1-.62,2.1-1.78,1.6-2.88s-1.84-1.1-2.95-1"/>
          <path d="M104.45,38.47a8.48,8.48,0,0,0-3-.38,8.86,8.86,0,0,0-3.1.56c-2.3.92-3.33,3.69-2.87,6a.63.63,0,0,0,.6.46,14.16,14.16,0,0,0,4.57-.65,10.32,10.32,0,0,0,3.86-2c1-.88,1.59-2.32.66-3.46-.76-.93-2.13-1-3.23-.92-.8,0-.81,1.3,0,1.25s1.82-.15,2.3.49c.62.85-.64,1.86-1.27,2.24a12.72,12.72,0,0,1-6.89,1.8l.6.46a4.06,4.06,0,0,1,2.38-4.62,8.28,8.28,0,0,1,5.07,0c.76.27,1.09-.94.33-1.21Z"/>
          <path d="M95.69,46.64c2-.16,3.72.22,5.53-.52a21.16,21.16,0,0,1,4.36-1.6.62.62,0,0,1,.55.1.59.59,0,0,1,.1.39,6.52,6.52,0,0,1-6.48,6.36A4.79,4.79,0,0,1,97.91,51a4,4,0,0,1-2.22-4.32"/>
          <path d="M95.69,47.26c1.91-.13,3.87.18,5.7-.53.9-.36,1.76-.8,2.66-1.13a8.54,8.54,0,0,1,1.33-.41,1.82,1.82,0,0,0,.35-.06c-.1.07,0-.24-.13-.05a2.84,2.84,0,0,0,0,.66c-.4,3-3.55,5.55-6.6,4.91A3.4,3.4,0,0,1,96.3,46.8c.14-.78-1.07-1.12-1.21-.33a4.72,4.72,0,0,0,2.18,4.86,6,6,0,0,0,5.8-.16,7.38,7.38,0,0,0,3.52-4.27c.21-.72.57-2.1,0-2.72a1.4,1.4,0,0,0-1.34-.23,9.79,9.79,0,0,0-1.77.54,18.72,18.72,0,0,1-3.67,1.39c-1.35.22-2.74,0-4.1.13-.79.06-.8,1.31,0,1.25Z"/>
          <path d="M15.28,150a12.49,12.49,0,0,1,6.48-9.21,21.86,21.86,0,0,1-.6,5.77,7.28,7.28,0,0,1-3.41,4.53,2.4,2.4,0,0,1-1.54.3,1.14,1.14,0,0,1-.93-1.13"/>
          <path d="M15.88,150.18a12,12,0,0,1,6.19-8.84l-.94-.54c0,2.31,0,4.77-1.07,6.9A6.55,6.55,0,0,1,18.31,150a3.86,3.86,0,0,1-1.31.74c-.4.12-1.11.12-1.1-.46a.63.63,0,0,0-1.25,0c0,1.47,1.56,2,2.77,1.64a6.33,6.33,0,0,0,3.06-2.46c1.77-2.51,1.86-5.69,1.9-8.65a.63.63,0,0,0-.94-.54,13.11,13.11,0,0,0-6.76,9.59c-.12.78,1.09,1.12,1.2.33Z"/>
          <path d="M24.13,142.38c0,3.4-2.32,6.3-3.73,9.39a.89.89,0,0,0-.09.8c.22.38.8.24,1.19,0,2.51-1.23,5.19-3.11,5.38-5.9a4.48,4.48,0,0,0-2.75-4.33"/>
          <path d="M23.5,142.38a12.93,12.93,0,0,1-1.93,5.79c-.5.94-1,1.87-1.49,2.82-.38.77-.84,2,.31,2.38.81.26,1.69-.33,2.35-.7a14.82,14.82,0,0,0,2.32-1.58,6.32,6.32,0,0,0,2.45-4.53,5.15,5.15,0,0,0-3.22-4.79A.63.63,0,1,0,24,143a3.87,3.87,0,0,1,2.3,3.44A4.94,4.94,0,0,1,24.4,150a11.29,11.29,0,0,1-1.83,1.31c-.3.19-.61.36-.92.52a4,4,0,0,1-.46.23l-.21.08c-.12,0-.17,0-.15.07s.21-.36.25-.44l.27-.54q.28-.57.6-1.14c.41-.76.83-1.52,1.22-2.29a12.72,12.72,0,0,0,1.58-5.43.63.63,0,0,0-1.25,0Z"/>
          <path d="M35.57,122.12a9.56,9.56,0,0,1-1.87.63,10,10,0,0,1-5-.16c.15,2.51,1.45,5.43,2.17,7.84s5.11,3.51,7.22,4.88c.68-1.94-.28-2.95-.59-5.39-.37-2.88-1.42-4.94-1.93-7.8a24.74,24.74,0,0,0,1.07,4"/>
          <path d="M35.25,121.58a9.46,9.46,0,0,1-6.38.41.62.62,0,0,0-.79.6,20.32,20.32,0,0,0,1.25,5.21c.3.86.6,1.73.88,2.6a4.22,4.22,0,0,0,.81,1.52c1.72,2,4.59,2.56,6.76,3.92a.62.62,0,0,0,.91-.37,4.89,4.89,0,0,0,.1-2.76c-.26-1.11-.57-2.18-.74-3.32-.38-2.54-1.41-4.92-1.88-7.44-.13-.68-1.3-.53-1.23.17a13.36,13.36,0,0,0,.57,2.58,10.76,10.76,0,0,1,.52,1.64c.12.79,1.32.45,1.21-.33a9.78,9.78,0,0,0-.47-1.48,11.76,11.76,0,0,1-.58-2.41l-1.22.17c.44,2.36,1.37,4.59,1.8,7,.19,1.09.37,2.15.67,3.23a4.32,4.32,0,0,1,.05,2.66l.92-.37c-2-1.27-4.62-1.79-6.31-3.52a3.22,3.22,0,0,1-.75-1.38c-.24-.77-.51-1.53-.78-2.29a20.16,20.16,0,0,1-1.24-5l-.79.6a10.73,10.73,0,0,0,7.34-.53c.74-.32.1-1.4-.63-1.08Z"/>
          <path d="M38.09,120.55a18.64,18.64,0,0,0,4.34-5.37c1.47,1.26,1.43,4.6,1.06,6.49-.59,3-1.27,7.75-2.62,10.49C39.29,129.14,37.76,124,38.09,120.55Z"/>
          <path d="M38.53,121A19.83,19.83,0,0,0,43,115.5l-1,.12a4.92,4.92,0,0,1,1.09,3.58,19.88,19.88,0,0,1-.48,3.85c-.54,2.94-1,6.07-2.27,8.79h1.08c-1.72-3.33-3-7.51-2.69-11.29.07-.8-1.18-.79-1.25,0-.35,4,1,8.4,2.86,11.92a.63.63,0,0,0,1.08,0c1.45-3,1.91-6.49,2.52-9.78.46-2.46,1-6-1-8a.65.65,0,0,0-1,.12,18.6,18.6,0,0,1-4.24,5.25C37,120.63,37.92,121.51,38.53,121Z"/>
          <path d="M48.17,98.53A71.59,71.59,0,0,0,49.3,91c1.68.61,5.3.22,5.79,1.94.12.42-1.68,2.64-2,2.94s-.61.8-.85.85C51.54,96.82,48.89,98.49,48.17,98.53Z"/>
          <path d="M48.77,98.7A74.83,74.83,0,0,0,49.92,91l-.79.6a18.9,18.9,0,0,0,3.35.56,5.21,5.21,0,0,1,1.49.41.94.94,0,0,1,.4.31l.12.19c-.05-.07,0,.13,0,0a.29.29,0,0,1,0-.16s0,.05,0,.07-.06.15,0,0l-.06.13-.14.25c-.15.23-.3.46-.46.68-.28.39-.57.76-.88,1.12s-.53.63-.81.92l-.11.11s.11,0,0,0l-.22.07c-.24.09-.47.2-.7.31-.58.28-1.14.59-1.72.88-.27.14-.54.28-.82.4l-.27.11c-.07,0-.36.07-.15,0a.63.63,0,1,0,0,1.25,4.38,4.38,0,0,0,1.48-.53c.59-.29,1.17-.61,1.75-.9l.43-.22.22-.1a4,4,0,0,0,.61-.22,5.23,5.23,0,0,0,1.05-1.1,15.07,15.07,0,0,0,1.06-1.33,5.77,5.77,0,0,0,.87-1.42c.45-1.2-1.07-2-2-2.25-1.36-.37-2.84-.26-4.19-.73-.41-.15-.75.23-.79.6a73.94,73.94,0,0,1-1.1,7.41C47.41,99.15,48.61,99.49,48.77,98.7Z"/>
          <path d="M49.43,89.35q.26-3.48.18-7c2.68,1,4.79,4.31,5.44,7.11a.74.74,0,0,1-.07.67c-.19.22-.53.15-.81.07C52.57,89.78,51,89.81,49.43,89.35Z"/>
          <path d="M50.06,89.35c.17-2.32.22-4.64.17-7l-.79.61a8.83,8.83,0,0,1,4.31,4.65,9.62,9.62,0,0,1,.56,1.5c0,.1.13.69.16.71s.2-.18.08-.17l-.11,0-.55-.15c-1.42-.34-2.89-.38-4.29-.77a.62.62,0,0,0-.33,1.2c1.3.37,2.66.43,4,.71a3.16,3.16,0,0,0,1.79.19,1.19,1.19,0,0,0,.6-1.51,11.82,11.82,0,0,0-3-5.54,8.1,8.1,0,0,0-2.9-2,.63.63,0,0,0-.79.6c.05,2.32,0,4.64-.17,7C48.75,90.15,50,90.15,50.06,89.35Z"/>
          <path d="M80.6,21q2.24-2.38,4.67-4.58c1,3.66,2.85,6.47,2.57,10.27a.58.58,0,0,1-.15.43c-.16.14-.41.07-.61,0C84.14,25.85,80.47,24.19,80.6,21Z"/>
          <path d="M81.05,21.44c1.48-1.59,3-3.12,4.66-4.58l-1-.28c.51,1.79,1.26,3.49,1.84,5.26a15.29,15.29,0,0,1,.65,2.67A10,10,0,0,1,87.24,26a3.7,3.7,0,0,0,0,.74q.3-.14.06-.18l-.2-.08c-2.28-1-5.92-2.43-5.84-5.43A.63.63,0,0,0,80,21c-.08,2.91,2.54,4.66,4.88,5.79.89.43,3.26,1.92,3.57.14a11.25,11.25,0,0,0-.62-5.1c-.59-1.88-1.4-3.68-1.94-5.58A.64.64,0,0,0,84.82,16c-1.61,1.47-3.17,3-4.66,4.59C79.61,21.15,80.5,22,81.05,21.44Z"/>
          <path d="M92,11.06c1.14.1.82,1.81,1.39,2.8s.05,2.32,0,3.47a9.14,9.14,0,0,1-2.26,5.6.7.7,0,0,1-.36.25c-.33.07-.55-.31-.66-.63-.94-2.57-2.24-5.08-3-7.72C88.66,13.51,90.28,12.25,92,11.06Z"/>
          <path d="M91.79,11.66c.54.08.53.88.62,1.31a11,11,0,0,1,.58,2c0,.86-.22,1.73-.28,2.58a8.64,8.64,0,0,1-.64,2.65,8.43,8.43,0,0,1-.59,1.16,5.39,5.39,0,0,1-.33.5,5.2,5.2,0,0,0-.51.65l-.11.11c.2,0,.24-.08.13-.21a2.08,2.08,0,0,0-.24-.62c-.18-.49-.38-1-.58-1.45a51.93,51.93,0,0,1-2.15-5.64l-.16.6c1.53-1.29,3.11-2.51,4.74-3.68.65-.46,0-1.54-.63-1.07q-2.56,1.83-5,3.87a.62.62,0,0,0-.16.61,52,52,0,0,0,2.16,5.64c.37.89,1.2,4.32,2.78,2.84A9,9,0,0,0,93.75,19c.19-.88.21-1.78.35-2.66A4.5,4.5,0,0,0,94,13.79a17.93,17.93,0,0,1-.59-2,1.67,1.67,0,0,0-1.29-1.32C91.34,10.34,91,11.54,91.79,11.66Z"/>
          <path d="M114.62,10.47c2.15-1.07,4.36-2,6.62-2.9-.47,2.66-.8,5.9-2.18,8.22a6.19,6.19,0,0,1-4.31-5"/>
          <path d="M114.94,11c2.11-1,4.27-2,6.46-2.83l-.77-.77c-.47,2.71-.69,5.65-2.11,8.08l.71-.29a5.63,5.63,0,0,1-3.88-4.56.62.62,0,0,0-.77-.43.64.64,0,0,0-.44.77,6.86,6.86,0,0,0,4.76,5.43.63.63,0,0,0,.7-.29c1.48-2.53,1.74-5.55,2.24-8.38.07-.41-.28-1-.77-.76-2.29.89-4.56,1.86-6.76,3-.72.35-.09,1.43.63,1.07Z"/>
          <path d="M122.77,7c1.89-.7,3.81-1.34,5.75-1.94-.47,3.42-2.81,8.59-5,8.78-.93.09-.45.14-.6,0a.57.57,0,0,1-.08-.54C123.15,11.2,122.22,9,122.77,7Z"/>
          <path d="M122.94,7.59q2.85-1.05,5.74-1.93l-.76-.77a17,17,0,0,1-2,5.87,7.13,7.13,0,0,1-1.61,2.05,1.78,1.78,0,0,1-.76.39,4.23,4.23,0,0,0-1,.18.63.63,0,0,0,.32,1.16.66.66,0,0,0,.55-1c-.11-.17-.13-.17,0,0a.75.75,0,0,1,0-.21l.06-.48a7.36,7.36,0,0,0,0-1.15c-.08-1.5-.48-3-.1-4.53a.63.63,0,0,0-1.21-.33,11.2,11.2,0,0,0,0,4,10.43,10.43,0,0,1,.07,2,3.7,3.7,0,0,0-.07.81,1.06,1.06,0,0,0,.12.42l.16.21c-.18-.62,0-.95.45-1l.31,1.17c-.26.12-.08,0,0,0l.28,0a2.3,2.3,0,0,0,.58-.12,3.29,3.29,0,0,0,1-.59,8,8,0,0,0,1.82-2.26,17.54,17.54,0,0,0,2.21-6.27c.06-.44-.27-.93-.77-.77-1.93.6-3.85,1.24-5.74,1.93C121.86,6.66,122.18,7.87,122.94,7.59Z"/>
          <path d="M126.73,30.22q-1.64,3.75-2.94,7.61c-2-1.21-5.44-2.89-6.48-5A2,2,0,0,1,117.1,31c.34-.65,1.19-.77,1.92-.79C121.17,30.19,124.69,29.53,126.73,30.22Z"/>
          <path d="M126.19,29.91c-1.1,2.54-2.11,5.12-3,7.75l.92-.37c-2-1.17-4.36-2.22-5.81-4.07a3.06,3.06,0,0,1-.71-1.56c0-.64.66-.77,1.17-.8,1.21-.07,2.42-.16,3.63-.25a11,11,0,0,1,4.17.21c.77.25,1.1-.95.33-1.2a11.37,11.37,0,0,0-4.27-.27c-.76,0-1.51.12-2.26.18s-1.36,0-2,.12a2.32,2.32,0,0,0-1.74,1A2.49,2.49,0,0,0,116.7,33a8,8,0,0,0,2.75,2.94c1.28.92,2.67,1.65,4,2.44a.63.63,0,0,0,.92-.37c.85-2.52,1.81-5,2.87-7.45C127.58,29.81,126.5,29.17,126.19,29.91Z"/>
          <path d="M115.38,33c1,3.1,4.71,6.09,7.43,7.88q-.7,2.36-1.28,4.75a13,13,0,0,1-6.22-5.54,8.64,8.64,0,0,1-.06-6.75"/>
          <path d="M114.77,33.2c1.26,3.59,4.67,6.23,7.73,8.25l-.29-.7q-.7,2.36-1.28,4.74l.77-.44a11.8,11.8,0,0,1-5.18-4.11,7.81,7.81,0,0,1-.67-7.41c.3-.74-.9-1.07-1.2-.33a9,9,0,0,0,.79,8.37,13.39,13.39,0,0,0,5.93,4.69.62.62,0,0,0,.76-.44q.59-2.39,1.28-4.74a.65.65,0,0,0-.28-.71A28.05,28.05,0,0,1,119,37.09a11.39,11.39,0,0,1-3-4.22c-.27-.76-1.47-.43-1.21.33Z"/>
          <path d="M125.35,80.59c-.38,2.44-.8,4.88-1.26,7.3-1.62,0-3.17-1.17-4.55-2-.5-.31-1.3-1.19-1-1.71a12.26,12.26,0,0,1,1.72-1.58A34.16,34.16,0,0,1,125,80.69"/>
          <path d="M124.75,80.42c-.38,2.44-.8,4.88-1.27,7.3l.61-.45a6.15,6.15,0,0,1-2.82-1.06c-.44-.26-.87-.54-1.31-.82a2.19,2.19,0,0,1-.73-.69s-.15-.3-.15-.3v0l0,.11s0,0,0,0-.06.06,0,0a.46.46,0,0,0,.07-.07c.21-.23.44-.45.67-.66s.46-.41.7-.6c0,0-.09,0,0,0l.12-.06c.26-.14.54-.26.81-.38a33.8,33.8,0,0,1,3.74-1.42c.76-.24.43-1.45-.34-1.21-1.3.42-2.58.91-3.84,1.46a6.53,6.53,0,0,0-1.36.71c-.27.22-.53.45-.79.69-.58.54-1.23,1.09-.9,2A4.89,4.89,0,0,0,120.21,87a8.12,8.12,0,0,0,3.88,1.49.63.63,0,0,0,.6-.46c.47-2.43.88-4.86,1.27-7.3a.64.64,0,0,0-.44-.77.63.63,0,0,0-.77.43Z"/>
          <path d="M123.81,89.29c-.23,1.14-.46,2.27-.72,3.4s-.46,2-.71,3c-1.85-.7-4.3-5.27-4.45-7.24a35.15,35.15,0,0,1,5.88.55"/>
          <path d="M123.21,89.12c-.43,2.14-.89,4.26-1.44,6.37l.77-.44c.12,0-.06,0-.08,0l-.19-.1-.25-.19a6.8,6.8,0,0,1-.71-.71A12.43,12.43,0,0,1,120,92.15a14.27,14.27,0,0,1-1-2,8.68,8.68,0,0,1-.33-1c0-.14-.07-.27-.1-.41s0-.12,0-.19,0-.08,0,0,0-.07,0-.11l-.62.63a21.66,21.66,0,0,1,2.9.14c.94.1,1.88.21,2.82.39a.65.65,0,0,0,.77-.44.64.64,0,0,0-.44-.77c-1-.19-2-.31-3-.42a20,20,0,0,0-3-.15.63.63,0,0,0-.63.62,11,11,0,0,0,1.7,4.45c.76,1.3,1.76,2.82,3.21,3.39a.62.62,0,0,0,.77-.43c.55-2.11,1-4.23,1.44-6.36.15-.79-1-1.13-1.21-.34Z"/>
          <path d="M45.5,155.81c.55,3.15,1.08,6.81,2.68,9.58q3.32,0,6.63-.24c.25-2.35-1.54-4.87-3.09-6.65a8.75,8.75,0,0,0-6.22-3"/>
          <path d="M44.9,156c.57,3.31,1.05,6.76,2.74,9.72a.63.63,0,0,0,.54.31q3.32,0,6.63-.24a.64.64,0,0,0,.62-.62c.24-2.67-1.57-5.13-3.22-7a9.44,9.44,0,0,0-6.71-3.21c-.8,0-.8,1.21,0,1.25A8.2,8.2,0,0,1,51.33,159c1.44,1.66,3.06,3.82,2.85,6.15l.63-.63q-3.31.25-6.63.24l.54.31c-1.63-2.86-2.06-6.23-2.61-9.43-.14-.79-1.34-.45-1.21.34Z"/>
          <path d="M39.17,164.8q3.51.44,7,.55V165c-.83-2.67-2.44-5.32-3.41-8-.2-.56-.58-1.22-1.17-1.15a1.2,1.2,0,0,0-.67.44c-2,2.18-2,5.53-1.78,8.5"/>
          <path d="M39.17,165.42c2.34.29,4.68.48,7,.55a.63.63,0,0,0,.63-.62,5.07,5.07,0,0,0-.48-1.81c-.31-.78-.65-1.54-1-2.3-.71-1.52-1.4-3-2.05-4.59A2,2,0,0,0,42,155.3a1.85,1.85,0,0,0-1.78.9A7.84,7.84,0,0,0,38.65,160a21.26,21.26,0,0,0-.1,4.85c.05.8,1.3.81,1.25,0a20.13,20.13,0,0,1,.06-4.59,7.76,7.76,0,0,1,.62-2.11,6.07,6.07,0,0,1,.56-.95c.12-.15.47-.7.7-.67s.34.44.41.58c.17.4.31.82.48,1.22.36.85.75,1.69,1.15,2.53s.81,1.69,1.17,2.56a5.31,5.31,0,0,1,.63,1.95l.62-.63c-2.35-.07-4.69-.26-7-.55a.63.63,0,0,0,0,1.25Z"/>
        </g>
      </g>
    </g>
  </g>
</svg>