<?xml version="1.0" encoding="UTF-8" standalone="yes"?>
<svg xmlns="http://www.w3.org/2000/svg" viewBox="0 0 146 172.7">
  <defs/>
  <g data-name="Layer_2">
    <g data-name="baby-cat-tail-1-patterns">
      <g data-name="tail-1-pattern-3-mask">
        <path d="M21.05,113a10.59,10.59,0,0,0,7.33,10.15c4.33,1.35,8.69-.34,11.68-3.56,3.16-3.41,4.95-7.91,6.41-12.26A73,73,0,0,0,50,90.69a73.23,73.23,0,0,0-.73-18.76l-.91.7a21.14,21.14,0,0,1,7.44,7.27,46,46,0,0,1,3.51,8.56.63.63,0,0,0,1.21-.33A65.12,65.12,0,0,1,59.58,80,51.21,51.21,0,0,1,61,69.43c.67-3.33,1.15-6.64,1.5-10A51.15,51.15,0,0,1,64.32,49.2c2-6.37,5.5-12.52,9.15-18.09A73.25,73.25,0,0,1,102.36,5.57L101.42,5c-.37,4.44-.69,9,.78,13.28a.63.63,0,0,0,1,.28C115.14,8.5,130.71,4.73,145.53,1.22l-.79-.6c-.06.61-1.14,1.48-1.61,2-.75.91-1.5,1.83-2.22,2.76q-2.17,2.78-4.19,5.67a112,112,0,0,0-7.45,12.34A95.66,95.66,0,0,0,120,49.72a82.11,82.11,0,0,0-1.42,15.8.63.63,0,0,0,1.07.44,28.23,28.23,0,0,1,2.38-1.82,35.31,35.31,0,0,0,2.8-2.53,36.63,36.63,0,0,0,4.45-5.48l-1.14-.48c-1.38,9.59-2.41,19.24-4.08,28.79a123.75,123.75,0,0,1-7.8,26.86c-2.07,4.91-4.36,9.72-6.68,14.51a.63.63,0,0,0,1.08.63l.93-1.52c.42-.69-.64-1.3-1.08-.63a74.53,74.53,0,0,1-17.26,18.26,75.62,75.62,0,0,1-10.38,6.56c-1.88,1-3.8,1.89-5.77,2.71-1,.4-2,.79-3,1.15-.64.24-1,.3-1.3.89a.64.64,0,0,0,.22.86A31.38,31.38,0,0,0,83,157.59l-.62-.62,0,.35.3-.54a76,76,0,0,1-56,4.68c-.5-.16-.82.32-.76.77a26.6,26.6,0,0,1,.14,5.78,8.55,8.55,0,0,1-.92,3.75h1.08a79.83,79.83,0,0,0-12.42-14.19c-4.29-4-8.92-7.91-12.73-12.43V146c5-4.8,9.67-9.85,12.94-16,2.29-4.31,4.4-8.72,6.5-13.12.58-1.2,1.15-2.41,1.72-3.61.34-.72-.74-1.36-1.08-.63q-2.13,4.51-4.32,9c-2.25,4.6-4.41,9.32-7.46,13.45a79.35,79.35,0,0,1-9.18,10,.63.63,0,0,0,0,.88c3.72,4.42,8.23,8.2,12.42,12.15,4.61,4.35,9.07,8.89,12.53,14.23a.64.64,0,0,0,1.08,0,9.3,9.3,0,0,0,1-3.93,27.34,27.34,0,0,0-.14-6.58l-.77.77a77.78,77.78,0,0,0,47.32-.76q3-1,6-2.31c1.06-.46,2.1-.94,3.13-1.45.69-.34.85-.44.92-1.17,0-.37-.32-.59-.63-.63a29.28,29.28,0,0,1-9.29-2.7l.22.85c.23-.44,1.46-.65,2-.87.91-.36,1.81-.73,2.71-1.12,1.94-.85,3.84-1.77,5.7-2.78a76.42,76.42,0,0,0,27.21-24.8l-1.08-.63-.93,1.52,1.08.63c4-8.34,8-16.76,10.83-25.6,2.93-9.18,4.34-18.78,5.63-28.3.75-5.52,1.43-11,2.23-16.56a.63.63,0,0,0-1.15-.48A34.87,34.87,0,0,1,123.69,61a32.91,32.91,0,0,1-2.5,2.23,26.8,26.8,0,0,0-2.38,1.83l1.06.44c-.16-19.07,6.79-37.49,17.45-53.11,1.54-2.25,3.16-4.46,4.86-6.6.82-1,1.65-2.06,2.5-3.07.6-.71,1.22-1.19,1.31-2.12,0-.42-.43-.69-.79-.6-15.06,3.56-30.76,7.44-42.84,17.68l1,.28C102,13.79,102.31,9.36,102.67,5a.63.63,0,0,0-.94-.54A74.82,74.82,0,0,0,73.82,28.38,86.18,86.18,0,0,0,64,46.49c-2.61,6.74-2.46,14-3.82,21a71.42,71.42,0,0,0-1.79,11.62,58,58,0,0,0,.94,9.38l1.21-.33c-1.12-3.12-2.06-6.37-3.84-9.19A22.56,22.56,0,0,0,49,71.55a.64.64,0,0,0-.92.71,71.86,71.86,0,0,1-1.34,29.91A51.84,51.84,0,0,1,41.84,115c-2,3.54-5.14,7-9.46,7.35A9.32,9.32,0,0,1,22.3,113,.63.63,0,0,0,21.05,113Z"/>
        <g data-name="color">
          <path d="M47.7,100.77c0,3.59,3,4.73,5.32,7.49A80.88,80.88,0,0,1,63.73,124.9a110.91,110.91,0,0,1,13.06-12.49,101.08,101.08,0,0,1,4,19.93q8.69-4.55,17.15-9.51a44.3,44.3,0,0,1-2.06,15c.84.1,3.8-4.68,4.56-5a29.85,29.85,0,0,1-1.55,6,74.55,74.55,0,0,0,12.24-14.17l-.93,1.53a223.33,223.33,0,0,0,9.58-21.94,37.54,37.54,0,0,0-3.38,2.91,100.64,100.64,0,0,0-2-20.48c-5.68,9.36-14.81,16-23.71,22.37.7-14.06-3-27.92-6.62-41.51.73,5-2.75,9.37-5.39,13.62a46.83,46.83,0,0,0-5.41,12.39c-7.65-10.72-8.42-24.81-7.78-38-1.83,1.13-2.8,1.84-3.57,3.85-.18,1.74-.35,3.48-.62,5.21-.93,6.08-3,12.15-2.12,18.25l.74,5.46-1.74-4.88a21.54,21.54,0,0,0-9.5-11.32A72.24,72.24,0,0,1,47.7,100.77Z"/>
          <path d="M47.07,100.77a6.75,6.75,0,0,0,2.21,4.72,53.59,53.59,0,0,1,4.85,5.14,81.52,81.52,0,0,1,9.06,14.59.62.62,0,0,0,1,.12,115.05,115.05,0,0,1,13.06-12.49l-1-.28a103.34,103.34,0,0,1,3.94,19.77.63.63,0,0,0,.94.54q8.69-4.56,17.14-9.51l-.94-.54a44.56,44.56,0,0,1-2,14.82.63.63,0,0,0,.6.8c1,0,1.85-1.38,2.42-2.11.71-.9,1.46-2.43,2.46-3L99.8,133a9.86,9.86,0,0,1-.65,2.82,12,12,0,0,1-.84,2.71.63.63,0,0,0,1,.76,77.18,77.18,0,0,0,12.33-14.3l-1.08-.63-.93,1.52,1.08.63a227.73,227.73,0,0,0,9.64-22.09.63.63,0,0,0-.92-.7,33.39,33.39,0,0,0-3.51,3l1.07.44a102.94,102.94,0,0,0-2-20.64.63.63,0,0,0-1.14-.15c-5.73,9.33-14.73,15.86-23.48,22.14l.94.54c.65-14.21-3-28.08-6.65-41.67-.17-.66-1.31-.56-1.22.16C84,72.27,81,76.31,78.55,80.11a49.21,49.21,0,0,0-5.92,13.24l1.15-.15c-7.69-10.9-8.3-24.79-7.69-37.66a.63.63,0,0,0-.94-.54c-1.83,1.14-3.68,2.57-3.93,4.87-.4,3.67-1,7.26-1.75,10.88a43.11,43.11,0,0,0-1.12,10,77.28,77.28,0,0,0,.94,7.73l1.2-.33C59.38,85,58.43,81.77,56.65,79A22.47,22.47,0,0,0,49,71.57a.64.64,0,0,0-.92.71,72.28,72.28,0,0,1-.95,28.33c-.18.78,1,1.11,1.21.33a73.91,73.91,0,0,0,1-29l-.92.7a21.14,21.14,0,0,1,7.45,7.26,47,47,0,0,1,3.51,8.56.62.62,0,0,0,1.2-.33c-.32-2.37-.77-4.77-.88-7.17a39.32,39.32,0,0,1,1-9.42c.57-2.94,1.2-5.86,1.56-8.84.19-1.51.13-3.18,1-4.48a8.08,8.08,0,0,1,2.6-2.15l-.94-.54c-.62,13.07.06,27.22,7.86,38.29a.63.63,0,0,0,1.14-.15,51.18,51.18,0,0,1,6.45-14c2.36-3.66,4.94-7.64,4.38-12.2l-1.23.17C87.05,81.16,90.68,94.91,90,109a.63.63,0,0,0,.94.54c8.93-6.41,18.08-13.07,23.93-22.59l-1.15-.15a100.39,100.39,0,0,1,2,20.31.63.63,0,0,0,1.07.44,30.88,30.88,0,0,1,3.25-2.81l-.91-.71a227.63,227.63,0,0,1-9.52,21.79.63.63,0,0,0,1.08.63l.93-1.52c.42-.7-.63-1.3-1.08-.63a75.27,75.27,0,0,1-12.14,14l1,.76a14.22,14.22,0,0,0,1-3.26,8.22,8.22,0,0,0,.59-3.23.63.63,0,0,0-.92-.38,8.15,8.15,0,0,0-2,2.27c-.38.49-1.72,2.66-2.27,2.69l.61.79a46.07,46.07,0,0,0,2.07-15.16.63.63,0,0,0-.94-.54q-8.46,5-17.14,9.51l.94.54a104.3,104.3,0,0,0-4-20.1.63.63,0,0,0-1-.28,116.08,116.08,0,0,0-13.07,12.5l1,.13a81,81,0,0,0-8.32-13.65,35.13,35.13,0,0,0-4.47-5.12c-1.57-1.43-3.07-2.77-3.15-5A.63.63,0,0,0,47.07,100.77Z"/>
        </g>
      </g>
    </g>
  </g>
</svg>