<?xml version="1.0" encoding="UTF-8" standalone="yes"?>
<svg xmlns="http://www.w3.org/2000/svg" viewBox="0 0 113.5 138.12">
  <defs/>
  <g data-name="Layer_2">
    <g data-name="baby-cat-tail-4-patterns">
      <g data-name="tail-4-pattern-5-mask">
        <path d="M20.26,90.36c1.5,6.52,4.95,13.09,10.36,17.19s13.15,4.52,19.57,2.3a24,24,0,0,0,10-6.52l-.88-.89-.48.59c-.49.61.34,1.49.89.88,6.73-7.62,11-16.89,13.26-26.74s2.88-19.71,3.46-29.63c.33-5.62.65-11.23,1.26-16.83l-1.07.45c.74.75,1.32,1.66,2,2.46a36.23,36.23,0,0,0,2.77,2.91,38.14,38.14,0,0,0,6.17,4.71c.59.37,1.31-.52.75-1l-4.56-3.73a13.39,13.39,0,0,1-2.42-2c0-.06-.19-.1-.21-.17.08.27.33-1,.35-1.11a16.2,16.2,0,0,1,1-3.27c1.79-4.39,4.9-8.38,8-11.92A66.27,66.27,0,0,1,113.2,1.15l-.92-.71c-1.66,8.37-4,16.57-5.51,25-1.54,8.65-2.86,17.47-1.3,26.21l1-.61,0,0a.62.62,0,0,0-1.06.44,87,87,0,0,1-.55,20.77c-.08.56.58,1.11,1,.61a74.69,74.69,0,0,1,7.31-6.19l-1-.61a128.6,128.6,0,0,1-16.47,40.38l1.08.64,1.93-3.21-1.08-.63c-2.92,6.23-7.91,10.93-13,15.38-6.09,5.32-12.78,10.35-20.48,13.07l.48,1.14L67,131.68l-.63-1.08a39.29,39.29,0,0,1-6.18,2.57,48.52,48.52,0,0,1-6.9,2.08,71.23,71.23,0,0,1-14.91,1.63c-9.07,0-18.25-2.2-25.85-7.3-2.08-1.39-4-3-6-4.49-1.8-1.32-3.7-2.42-5.61-3.57l.12,1c4.65-4.6,9.2-9.74,12.36-15.5,2.33-4.25,4.38-8.66,6.41-13.06.53-1.14,1.06-2.29,1.57-3.44.33-.72-.75-1.36-1.08-.63q-2,4.44-4.1,8.81A74.49,74.49,0,0,1,9,111.51a89,89,0,0,1-8.8,10.11.63.63,0,0,0,.13,1c1.72,1,3.44,2,5.07,3.18,1.93,1.38,3.74,2.9,5.67,4.28a42.22,42.22,0,0,0,12,5.84c9.37,2.9,19.42,2.71,29,.88a44.33,44.33,0,0,0,7.91-2.17,47.34,47.34,0,0,0,7.1-2.93c.71-.42.09-1.4-.63-1.08L64,131.67c-.65.29-.19,1.38.48,1.14,7.78-2.75,14.53-7.74,20.71-13.11,5.29-4.59,10.5-9.46,13.53-15.91.33-.72-.66-1.34-1.08-.63l-1.93,3.2a.63.63,0,0,0,1.08.64,129.76,129.76,0,0,0,16.6-40.69.64.64,0,0,0-1.05-.61,77.32,77.32,0,0,0-7.3,6.2l1,.6a87.65,87.65,0,0,0,.59-21.1l-1.07.44,0,0c.45.51,1.14,0,1-.61-1.57-8.84-.09-17.78,1.48-26.5,1.45-8.08,3.74-16,5.34-24a.63.63,0,0,0-.92-.7A68,68,0,0,0,89.93,16.74,50.06,50.06,0,0,0,81.7,28.53a21.49,21.49,0,0,0-1.18,3.16c-.21.77-.79,2.48-.5,3.28.21.59,1.14,1.07,1.59,1.44l5.79,4.73.76-1a36.71,36.71,0,0,1-6.22-4.8c-1.64-1.58-2.9-3.48-4.48-5.09a.63.63,0,0,0-1.06.44C74.3,50,75.78,70.32,68,88.48A54.33,54.33,0,0,1,58.78,103l.89.88.47-.58c.49-.62-.33-1.49-.88-.89a23.21,23.21,0,0,1-18,7.49,17.39,17.39,0,0,1-9.16-2.85,23.48,23.48,0,0,1-6.49-7,32.94,32.94,0,0,1-4.14-10C21.28,89.25,20.08,89.58,20.26,90.36Z"/>
        <g data-name="color">
          <path d="M31.08,107.12a16.08,16.08,0,0,0,5.58,2.75,21.7,21.7,0,0,0,4.73.69c-1.53,4.69-4.08,8.92-4.6,13.83a139.77,139.77,0,0,1-5.71-17"/>
          <path d="M30.76,107.66a18.86,18.86,0,0,0,10.63,3.52l-.6-.79c-1.55,4.68-4,9-4.62,14l1.16-.32a141.81,141.81,0,0,1-5.65-16.81.62.62,0,0,0-1.2.33,144.54,144.54,0,0,0,5.77,17.11c.28.64,1.11.22,1.17-.31.55-4.83,3.07-9.11,4.58-13.67a.64.64,0,0,0-.61-.79,17.56,17.56,0,0,1-10-3.35c-.65-.47-1.28.61-.64,1.08Z"/>
          <path d="M54.06,107.42a22.62,22.62,0,0,0,5.64-4.53l-.48.58A51.48,51.48,0,0,0,63,98.66c.56,4.8.63,10.86,1.18,15.66a1.54,1.54,0,0,1-.89-.38l-9.18-6.37"/>
          <path d="M54.37,108a23.89,23.89,0,0,0,5.77-4.63l-.88-.89-.48.59c-.49.61.34,1.49.89.88A57.81,57.81,0,0,0,63.57,99l-1.16-.32c.59,5.21.59,10.46,1.18,15.66l.62-.62c-.45-.06-1-.57-1.34-.83l-1.14-.79L59.3,110.4,54.46,107c-.66-.46-1.29.63-.63,1.08l5.35,3.72,2.55,1.77A6,6,0,0,0,64.21,115a.63.63,0,0,0,.63-.63c-.59-5.2-.59-10.45-1.18-15.66a.64.64,0,0,0-1.17-.32A52.7,52.7,0,0,1,58.78,103l.89.88.47-.58c.49-.62-.34-1.49-.88-.89a22.55,22.55,0,0,1-5.52,4.44.63.63,0,0,0,.63,1.08Z"/>
          <path d="M67.22,91.58A65.68,65.68,0,0,0,72,78.43c.46.16,1.09,1.54,1.38,1.93L85,96.23C79.25,94.51,73,93.3,67.22,91.58Z"/>
          <path d="M67.76,91.89a67.55,67.55,0,0,0,4.82-13.3l-.91.38c.44.24.7,1,1,1.39.39.66.89,1.26,1.34,1.88l3.54,4.82,7,9.49.7-.92c-5.87-1.75-11.9-2.91-17.77-4.66a.63.63,0,0,0-.33,1.21c5.87,1.74,11.9,2.91,17.77,4.65.49.15,1-.46.71-.91L78.16,85.86l-3.64-5c-.41-.56-.78-1.12-1.13-1.71a3.22,3.22,0,0,0-1.09-1.3.63.63,0,0,0-.92.37,66.63,66.63,0,0,1-4.7,13C66.33,92,67.41,92.61,67.76,91.89Z"/>
          <path d="M74,67.67c.62-4.5,1-9.07,1.32-13.63a148.7,148.7,0,0,0,16.8,15.25s0,0,0,0c-1.79-.75-2.15.19-4.18-.13s-3.71-.23-5.79-.44A55,55,0,0,1,74,67.67Z"/>
          <path d="M74.64,67.84c.63-4.58,1-9.19,1.35-13.8l-1.07.44A158.68,158.68,0,0,0,91.84,69.83l-.13-1,0,0,.61-.17c-1.22-.46-2.15-.12-3.38-.08a20.12,20.12,0,0,1-2.45-.24c-.89-.07-1.77-.1-2.66-.14a49.23,49.23,0,0,1-9.61-1.18.63.63,0,0,0-.33,1.21,50.9,50.9,0,0,0,9.3,1.18c1.7.11,3.39.23,5.09.4,1.3.12,2.43-.43,3.71.06a.59.59,0,0,0,.6-.16l0,0a.64.64,0,0,0-.13-1A157.25,157.25,0,0,1,75.81,53.6a.63.63,0,0,0-1.07.44c-.31,4.5-.69,9-1.31,13.47C73.33,68.29,74.53,68.63,74.64,67.84Z"/>
          <path d="M80.68,34.17a22,22,0,0,1,3.86-9.38,19.92,19.92,0,0,0,5.53,4.15c4.62,1.78,6.54,3.5,10.89,5.87-15.68-1.2-16.67,3.51-17.2,3a37.14,37.14,0,0,1-3.2-3"/>
          <path d="M81.3,34.17a21.85,21.85,0,0,1,3.78-9.06l-1,.13a26.8,26.8,0,0,0,3.33,2.87,25.31,25.31,0,0,0,4.43,2.26c3.06,1.41,5.84,3.36,8.79,5l.31-1.17c-4.28-.31-8.84-.46-13,.76a10.78,10.78,0,0,0-4.18,2.23c-.21.18-.15.06.14.06s.41.24,0-.09l-1-.83c-.68-.61-1.33-1.24-2-1.89s-1.45.31-.88.89a19.15,19.15,0,0,0,3.21,3,.84.84,0,0,0,.82.14,4.18,4.18,0,0,0,1-.76c1.78-1.38,4.4-1.93,6.67-2.19a50.16,50.16,0,0,1,9.17,0,.63.63,0,0,0,.32-1.16c-2.86-1.57-5.54-3.45-8.49-4.85a29.53,29.53,0,0,1-4.24-2,24,24,0,0,1-3.57-3,.63.63,0,0,0-1,.13,23.08,23.08,0,0,0-4,9.69c-.1.79,1.15.79,1.25,0Z"/>
          <path d="M106.7,29.48c.31-1.87.64-3.73,1-5.59.25-1.39.54-2.8.85-4.23-3.15-1.61-7.09-2.51-10.47-3.55a17.25,17.25,0,0,0,3.33,4.48c1.89,2.1,3.73,6.56,5.32,8.89.38-.19-1.91-3.34-2.11-3.71"/>
          <path d="M107.3,29.65c.54-3.29,1.12-6.57,1.82-9.83a.62.62,0,0,0-.29-.7c-3.35-1.69-7-2.52-10.61-3.61a.64.64,0,0,0-.71.92c1.14,2.54,3.43,4.27,4.86,6.63,1.34,2.2,2.35,4.6,3.79,6.74a.64.64,0,0,0,1,.12c.66-.55-.25-1.76-.56-2.26-.46-.74-1-1.44-1.45-2.21a.63.63,0,0,0-1.08.63c.32.57.72,1.09,1.08,1.63.23.36.46.72.67,1.08a5.42,5.42,0,0,0,.26.48c.21.31-.28.16.2-.23l1,.13c-1.44-2.14-2.46-4.54-3.79-6.74a17.74,17.74,0,0,0-2.16-2.86,15,15,0,0,1-2.7-3.77l-.7.92c3.46,1.06,7.06,1.84,10.31,3.48l-.29-.71c-.69,3.26-1.27,6.54-1.81,9.82-.13.79,1.07,1.13,1.2.34Z"/>
          <path d="M106.24,54a85,85,0,0,1-.31,14.71c-1.65-2.42-5.17-5-7.61-6.61a53.08,53.08,0,0,1-6.73-5.31A11,11,0,0,0,87.66,54C93.69,54.1,100.23,53.54,106.24,54Z"/>
          <path d="M105.62,54a87.05,87.05,0,0,1-.32,14.71l1.17-.31c-2.14-3-5.38-5.16-8.4-7.23A49.23,49.23,0,0,1,92.67,57c-1.51-1.35-2.89-2.84-4.84-3.52l-.17,1.23c6.19,0,12.4-.5,18.58,0,.81.06.8-1.19,0-1.25-6.18-.5-12.39,0-18.58,0a.62.62,0,0,0-.17,1.22c1.93.67,3.31,2.36,4.8,3.66a53.82,53.82,0,0,0,4.86,3.8c2.92,2,6.16,4,8.24,7a.63.63,0,0,0,1.16-.32A87.05,87.05,0,0,0,106.87,54C106.82,53.24,105.57,53.24,105.62,54Z"/>
          <path d="M99.15,101.75a131.94,131.94,0,0,0,7.44-15.49C99,85,91.55,83.11,85.38,78.43l13.84,23.18"/>
          <path d="M99.69,102.07a137.08,137.08,0,0,0,7.51-15.65.64.64,0,0,0-.44-.77c-7.47-1.24-14.91-3.16-21.07-7.76-.52-.39-1.15.35-.85.85l13.84,23.19a.63.63,0,0,0,1.08-.63L85.92,78.11l-.86.86c6.24,4.66,13.8,6.63,21.37,7.89l-.44-.77a134.41,134.41,0,0,1-7.38,15.35.63.63,0,0,0,1.08.63Z"/>
          <path d="M87.92,116.41A100.13,100.13,0,0,1,73.53,127.7c-.35-5.42-.1-11.84-1.21-17.16a59.13,59.13,0,0,0-1.61-6,88,88,0,0,0,15.46,11.69A10.16,10.16,0,0,0,87.92,116.41Z"/>
          <path d="M87.48,116a100.75,100.75,0,0,1-14.27,11.19l.94.54c-.23-3.89-.19-7.8-.48-11.69a50,50,0,0,0-2.36-11.65l-1,.61a90.41,90.41,0,0,0,9.53,7.84q2.53,1.8,5.17,3.41a5.3,5.3,0,0,0,3,.82c.81,0,.78-1.18,0-1.25h0c-.8-.07-.79,1.18,0,1.25h0v-1.25a7.59,7.59,0,0,1-1.17-.09,7,7,0,0,1-2-1.1q-2.37-1.48-4.63-3.11a89.44,89.44,0,0,1-8.95-7.4.63.63,0,0,0-1,.61,49.33,49.33,0,0,1,2.34,11.72c.25,3.75.22,7.52.45,11.28a.64.64,0,0,0,.94.54,101,101,0,0,0,14.52-11.39C89,116.31,88.07,115.42,87.48,116Z"/>
          <path d="M61.75,133.28c-.72.26-1.45.51-2.19.81A38.56,38.56,0,0,1,52.8,136a75.43,75.43,0,0,1-8.74,1.28c.48-5,1.55-10.57,2-15.56,0-.26.1-.58.36-.61a.63.63,0,0,1,.43.19l12.2,10.47A21.46,21.46,0,0,0,61.75,133.28Z"/>
          <path d="M61.58,132.68a67.62,67.62,0,0,1-8.45,2.61,77.19,77.19,0,0,1-9.07,1.35l.63.63c.26-2.71.66-5.41,1.05-8.1.18-1.23.36-2.47.53-3.71.08-.63.16-1.26.23-1.89,0-.21.07-1.85.25-1.93l-.48.06c.42.09.9.67,1.22,1l1.06.91,2.25,1.93,4.38,3.75c2,1.69,3.83,3.53,6.25,4.58.73.32,1.37-.76.63-1.08-2.42-1.05-4.28-2.91-6.26-4.61-2.82-2.42-5.57-5-8.49-7.28a1.12,1.12,0,0,0-1.35-.22c-.46.31-.48.89-.54,1.39-.18,1.74-.4,3.47-.65,5.2-.47,3.35-1,6.68-1.33,10.05a.62.62,0,0,0,.62.62,79,79,0,0,0,9.07-1.33,65.8,65.8,0,0,0,8.78-2.67C62.67,133.62,62.34,132.41,61.58,132.68Z"/>
          <path d="M30.72,137a44.1,44.1,0,0,1-19.12-7.29c4-4.13,9-7.68,13-11.81.62-.63.25.5.4-.37C25.8,124,28.94,130.66,30.72,137Z"/>
          <path d="M30.88,136.37a44.25,44.25,0,0,1-19-7.23l.12,1c2.1-2.13,4.37-4.07,6.65-6,1.12-.95,2.24-1.91,3.34-2.9.52-.47,1-.94,1.54-1.42l.76-.73c.16-.16.33-.32.49-.49.47-.31.32-.6-.44-.88l1.23.17a.28.28,0,0,1,0-.18l-1.23-.17c.85,6.82,3.84,13.08,5.71,19.63a.63.63,0,0,0,1.21-.33c-1.84-6.43-4.83-12.61-5.67-19.3-.08-.62-1.11-.93-1.23-.16a1.7,1.7,0,0,0-.06.51.63.63,0,0,0,1.23.16c.35-.91-.8-1.09-1.33-.65-.74.6-1.38,1.36-2.08,2s-1.48,1.34-2.23,2c-3,2.59-6,5.06-8.79,7.87a.64.64,0,0,0,.12,1,45,45,0,0,0,19.27,7.35C31.34,137.69,31.68,136.48,30.88,136.37Z"/>
        </g>
      </g>
    </g>
    <g data-name="baby-cat-tail-3-patterns">
      <g data-name="tail-3-pattern-1-mask">
        <path d="M20.27,90a4.94,4.94,0,0,0,3,5.41c2.85,1,6-1.45,8.1-3a38.77,38.77,0,0,0,6.81-6.3,24.09,24.09,0,0,0,2.53-3.66,21.75,21.75,0,0,0,1-2,5.17,5.17,0,0,1,.65-1.52l-1-.13A16.33,16.33,0,0,1,43.63,89.5a.63.63,0,0,0,1,.6C48.55,86.21,53,81.16,51,75.23l-1.14.48c5,7.27,10.27,15.05,10.79,24.13a19.89,19.89,0,0,1-3,12.13,23.41,23.41,0,0,1-9,7.76.63.63,0,0,0,.15,1.14l1.77.46-.15-1.14a46.17,46.17,0,0,1-13.08,4.86,23.59,23.59,0,0,1-14.09-1.94.63.63,0,0,0-.85.85c.15.33-.18,1.4-.18,1.87A10.64,10.64,0,0,0,25,133l.61-1a27.24,27.24,0,0,1-11-6.82,33.16,33.16,0,0,1-4.34-5A17,17,0,0,1,7.56,115l-.16.61a66.64,66.64,0,0,0,5.7-8c1.29-2.26,2.44-4.61,3.58-6.95q2.45-5,4.73-10.17c.33-.72-.75-1.36-1.08-.63-2.24,5-4.56,10.06-7.12,14.94-.67,1.26-1.34,2.53-2.12,3.73s-1.48,2.16-2.27,3.21c-.5.67-1,1.32-1.53,2-.29.36-.84.79-.94,1.25s.35,1.32.57,1.84a23.18,23.18,0,0,0,1.62,3,33,33,0,0,0,4.18,5.25c3.44,3.55,7.72,6.72,12.53,8.09a.63.63,0,0,0,.61-1,9.42,9.42,0,0,1-2.22-4.83,8.94,8.94,0,0,1,0-2.53,2.11,2.11,0,0,0-.07-1.43l-.86.86a25,25,0,0,0,14.22,2.2c5-.73,9.73-2.82,14.21-5.13a.63.63,0,0,0-.15-1.14l-1.77-.46.15,1.15c5.7-2.94,10.46-7.81,12-14.17,1.71-7-.3-14.31-3.53-20.58a103.86,103.86,0,0,0-6.86-11c-.38-.55-1.38-.23-1.14.48,1.8,5.47-2.5,10.09-6.05,13.66l1.05.61a17.7,17.7,0,0,0-2.4-11.7.63.63,0,0,0-1-.12,8.51,8.51,0,0,0-1.11,2.38A21.31,21.31,0,0,1,38.5,83.6a30.64,30.64,0,0,1-5.24,5.67,27.39,27.39,0,0,1-6.43,4.53c-1.3.58-2.82.9-4-.09a3.68,3.68,0,0,1-1.35-3.37C21.63,89.55,20.43,89.21,20.27,90Z"/>
      </g>
    </g>
  </g>
</svg>