<?xml version="1.0" encoding="UTF-8" standalone="yes"?>
<svg xmlns="http://www.w3.org/2000/svg" viewBox="0 0 113.5 138.13">
  <defs/>
  <g data-name="Layer_2">
    <g data-name="baby-cat-tail-4-patterns">
      <g data-name="tail-4-pattern-3-mask">
        <path d="M20.26,90.36c1.5,6.52,4.95,13.09,10.36,17.19s13.15,4.52,19.57,2.3a24,24,0,0,0,10-6.52l-.88-.89-.48.59c-.49.61.34,1.49.89.88,6.73-7.62,11-16.89,13.26-26.74s2.88-19.71,3.46-29.63c.33-5.62.65-11.23,1.26-16.83l-1.07.45c.74.75,1.32,1.66,2,2.46a36.23,36.23,0,0,0,2.77,2.91,38.14,38.14,0,0,0,6.17,4.71c.59.37,1.31-.52.75-1l-4.56-3.73a13.39,13.39,0,0,1-2.42-2c0-.06-.19-.1-.21-.17.08.27.33-1,.35-1.11a16.2,16.2,0,0,1,1-3.27c1.79-4.39,4.9-8.38,8-11.92A66.27,66.27,0,0,1,113.2,1.15l-.92-.71c-1.66,8.37-4,16.57-5.51,25-1.54,8.65-2.86,17.47-1.3,26.21l1-.61,0,0a.62.62,0,0,0-1.06.44,87,87,0,0,1-.55,20.77c-.08.56.58,1.11,1,.61a74.69,74.69,0,0,1,7.31-6.19l-1-.61a128.6,128.6,0,0,1-16.47,40.38l1.08.64,1.93-3.21-1.08-.63c-2.92,6.23-7.91,10.93-13,15.38-6.09,5.32-12.78,10.35-20.48,13.07l.48,1.14L67,131.68l-.63-1.08a39.29,39.29,0,0,1-6.18,2.57,48.52,48.52,0,0,1-6.9,2.08,71.23,71.23,0,0,1-14.91,1.63c-9.07,0-18.25-2.2-25.85-7.3-2.08-1.39-4-3-6-4.49-1.8-1.32-3.7-2.42-5.61-3.57l.12,1c4.65-4.6,9.2-9.74,12.36-15.5,2.33-4.25,4.38-8.66,6.41-13.06.53-1.14,1.06-2.29,1.57-3.44.33-.72-.75-1.36-1.08-.63q-2,4.44-4.1,8.81A74.49,74.49,0,0,1,9,111.51a89,89,0,0,1-8.8,10.11.63.63,0,0,0,.13,1c1.72,1,3.44,2,5.07,3.18,1.93,1.38,3.74,2.9,5.67,4.28a42.22,42.22,0,0,0,12,5.84c9.37,2.9,19.42,2.71,29,.88a44.33,44.33,0,0,0,7.91-2.17,47.34,47.34,0,0,0,7.1-2.93c.71-.42.09-1.4-.63-1.08L64,131.67c-.65.29-.19,1.38.48,1.14,7.78-2.75,14.53-7.74,20.71-13.11,5.29-4.59,10.5-9.46,13.53-15.91.33-.72-.66-1.34-1.08-.63l-1.93,3.2a.63.63,0,0,0,1.08.64,129.76,129.76,0,0,0,16.6-40.69.64.64,0,0,0-1.05-.61,77.32,77.32,0,0,0-7.3,6.2l1,.6a87.65,87.65,0,0,0,.59-21.1l-1.07.44,0,0c.45.51,1.14,0,1-.61-1.57-8.84-.09-17.78,1.48-26.5,1.45-8.08,3.74-16,5.34-24a.63.63,0,0,0-.92-.7A68,68,0,0,0,89.93,16.74,50.06,50.06,0,0,0,81.7,28.53a21.49,21.49,0,0,0-1.18,3.16c-.21.77-.79,2.48-.5,3.28.21.59,1.14,1.07,1.59,1.44l5.79,4.73.76-1a36.71,36.71,0,0,1-6.22-4.8c-1.64-1.58-2.9-3.48-4.48-5.09a.63.63,0,0,0-1.06.44C74.3,50,75.78,70.32,68,88.48A54.33,54.33,0,0,1,58.78,103l.89.88.47-.58c.49-.62-.33-1.49-.88-.89a23.21,23.21,0,0,1-18,7.49,17.39,17.39,0,0,1-9.16-2.85,23.48,23.48,0,0,1-6.49-7,32.94,32.94,0,0,1-4.14-10C21.28,89.25,20.08,89.58,20.26,90.36Z"/>
        <g data-name="color">
          <path d="M58.78,111.94c-1.81,2.06-2.13,5-2.14,7.74,0,2.3.3,4.9,2.15,6.26.33.25.87.42,1.13.09a1,1,0,0,0,.12-.65,20.37,20.37,0,0,1,1.54-8.86,11.61,11.61,0,0,0,1-2.88,2.92,2.92,0,0,0-.92-2.77,1.71,1.71,0,0,0-2.57.59"/>
          <path d="M58.34,111.5c-1.78,2.09-2.24,4.81-2.31,7.48-.06,2.35,0,5.1,1.76,6.91.63.67,2,1.49,2.67.46a3.23,3.23,0,0,0,.18-1.8,20.43,20.43,0,0,1,.12-2.47,20.09,20.09,0,0,1,1.17-4.76,12.91,12.91,0,0,0,1.33-4.12,3.17,3.17,0,0,0-1.74-3.11,2.29,2.29,0,0,0-3,1c-.31.73.77,1.37,1.08.63a1.14,1.14,0,0,1,2-.06,3.35,3.35,0,0,1,0,3.11c-.38,1-.87,2-1.21,3.08a19.06,19.06,0,0,0-.78,3.34,20.4,20.4,0,0,0-.24,3.31,3.33,3.33,0,0,1,0,.94c-.1.23,0,.1,0,.09s-.25-.12-.3-.15a3.16,3.16,0,0,1-.95-1c-1-1.58-1-3.62-.93-5.41.06-2.31.4-4.78,1.94-6.6.52-.61-.36-1.5-.88-.88Z"/>
          <path d="M63.89,110.9q-1,6.3-1.63,12.64c.51.42,1.26,0,1.74-.48a15.69,15.69,0,0,0,4-6.46,6.68,6.68,0,0,0,0-4.84c-.71-1.5-2.63-2.49-4.09-1.71"/>
          <path d="M63.29,110.73q-1,6.39-1.66,12.81a.62.62,0,0,0,.31.54c1.7,1.07,3.49-1.54,4.33-2.68a15.64,15.64,0,0,0,2.57-5.4c.45-1.82.45-3.94-.83-5.43a3.69,3.69,0,0,0-4.37-1.06c-.72.35-.09,1.43.63,1.08a2.54,2.54,0,0,1,3.07,1.17,5.48,5.48,0,0,1,.17,4.35A14.64,14.64,0,0,1,65.69,120a14.88,14.88,0,0,1-1.37,1.79c-.32.35-1.2,1.52-1.75,1.17l.31.54q.65-6.26,1.61-12.48c.12-.78-1.08-1.12-1.2-.33Z"/>
          <path d="M84.26,92.45c-2.13,2.49-4.12,7.25-3.66,10.5.1.76.61,1.72,1.35,1.5a1.44,1.44,0,0,0,.73-.73l3.24-5.44a6.5,6.5,0,0,0,1.28-3.89C87,93,85.47,91.76,84.26,92.45"/>
          <path d="M83.82,92a17.59,17.59,0,0,0-3,5.41,10.82,10.82,0,0,0-.74,6c.21.82.81,1.74,1.77,1.69,1.16,0,1.74-1.63,2.24-2.47L86.22,99a10.32,10.32,0,0,0,1.55-3.41,3.41,3.41,0,0,0-.91-3.13,2.51,2.51,0,0,0-2.92-.54c-.72.36-.08,1.44.63,1.08a1.39,1.39,0,0,1,1.66.64A2.6,2.6,0,0,1,86.36,96,15.8,15.8,0,0,1,85,98.67l-1.62,2.72-.78,1.31c-.12.2-.51,1.13-.8,1.15-.53,0-.59-1.34-.6-1.66a12.37,12.37,0,0,1,.9-4.61,16,16,0,0,1,2.64-4.69c.51-.61-.37-1.5-.88-.88Z"/>
          <path d="M89.07,94.3c-.23,3.6-3.29,7.09-3,10.69.8.35,1.7-.22,2.32-.84a10.59,10.59,0,0,0,3-6.22,4.34,4.34,0,0,0-.3-2.45,2,2,0,0,0-2-1.18"/>
          <path d="M88.44,94.3c-.27,3.76-3.25,6.83-3,10.69a.66.66,0,0,0,.46.6c1.4.51,2.67-.64,3.51-1.63a11.39,11.39,0,0,0,2.11-3.69A8.07,8.07,0,0,0,91.93,96a2.81,2.81,0,0,0-2.86-2.3c-.79.08-.8,1.34,0,1.25,1.15-.13,1.69,1,1.73,2a8.55,8.55,0,0,1-.58,3.16,10.19,10.19,0,0,1-1.5,2.72c-.55.69-1.51,1.93-2.52,1.57l.46.6a12,12,0,0,1,1.39-5.35,16.8,16.8,0,0,0,1.64-5.34c.06-.8-1.19-.8-1.25,0Z"/>
          <path d="M12.37,116.29a18.73,18.73,0,0,0-1.06,7.08c0,1,.56,2.3,1.53,2.11a1.73,1.73,0,0,0,1-.75,21.75,21.75,0,0,0,4.13-9c.21-1,.25-2.25-.6-2.82a2.41,2.41,0,0,0-2.2,0c-1.67.68-3.29,2.58-3.09,4.37"/>
          <path d="M11.77,116.12a20,20,0,0,0-1,4.23,11,11,0,0,0,0,3.88c.21.85.77,1.84,1.75,1.89,1.19,0,1.9-1.19,2.49-2a22.41,22.41,0,0,0,3.3-7.32,6,6,0,0,0,.19-3.13,2.23,2.23,0,0,0-2.47-1.56c-2.42.27-4.84,2.76-4.66,5.26.06.8,1.31.8,1.25,0a4.17,4.17,0,0,1,2.91-3.87c.83-.28,1.69-.2,1.84.81a6.5,6.5,0,0,1-.38,2.58,21.29,21.29,0,0,1-2.35,5.51A9.3,9.3,0,0,1,13,124.69c-.69.58-1-.67-1.06-1.17a16.88,16.88,0,0,1,1-7.07c.27-.76-.94-1.08-1.2-.33Z"/>
          <path d="M21.17,113.7c-1,2.94-3.15,6.94-4.18,9.88-.13.37-.2.89.16,1a.69.69,0,0,0,.47,0,9.31,9.31,0,0,0,6.85-7.45,3.33,3.33,0,0,0-.18-2c-.54-1.08-1.87-1.44-3.05-1.68"/>
          <path d="M20.57,113.54c-.74,2.09-1.73,4.1-2.64,6.12-.44,1-.88,2-1.28,3-.28.75-.79,2,.18,2.48.8.42,2.1-.27,2.83-.62A10.05,10.05,0,0,0,25,117.65a3.76,3.76,0,0,0-.62-3.39,5.49,5.49,0,0,0-3-1.36c-.78-.16-1.12,1-.33,1.21a5.27,5.27,0,0,1,2.18.8,2.29,2.29,0,0,1,.55,2.4,8.5,8.5,0,0,1-2.21,4.27,9,9,0,0,1-1.93,1.54,8.86,8.86,0,0,1-1.07.53l-.53.19a2.78,2.78,0,0,0-.59.23c.06,0,0,0,0-.06a1.34,1.34,0,0,1,.07-.27c.06-.19.14-.39.21-.58.16-.41.32-.82.49-1.23.35-.83.73-1.65,1.1-2.47.84-1.84,1.71-3.68,2.39-5.59.27-.76-.94-1.09-1.21-.33Z"/>
          <path d="M85.27,61.86a20.38,20.38,0,0,0-1.83,6.38,9.71,9.71,0,0,0,1.5,6.36.58.58,0,0,0,.19.19c.28.13.51-.26.59-.56a38.39,38.39,0,0,1,1.86-5.51c.61-1.45,1.32-3,1.11-4.52s-1.84-3-3.29-2.42"/>
          <path d="M84.73,61.54c-1.77,4.07-3.08,9.06-.51,13.11.22.34.45.7.88.77a1,1,0,0,0,1-.57,6.39,6.39,0,0,0,.47-1.5c.18-.63.37-1.24.58-1.86.4-1.18.88-2.33,1.36-3.48a8.45,8.45,0,0,0,.8-3.35c0-2-1.93-4.28-4.12-3.48-.75.28-.42,1.49.33,1.21a1.87,1.87,0,0,1,2.23,1.08,4.15,4.15,0,0,1-.1,3.31c-.37,1.06-.86,2.08-1.26,3.13s-.8,2.28-1.13,3.45c0,.07-.26.86-.24.86l.3-.11-.23-.37a7.89,7.89,0,0,1-.69-1.61,10.08,10.08,0,0,1-.42-3,18.23,18.23,0,0,1,1.79-6.93c.32-.73-.76-1.36-1.08-.63Z"/>
          <path d="M90.38,63c-.89,3-1.67,6-2.31,9-.13.62-.21,1.39.3,1.77s1.49-.09,2.06-.62A12.7,12.7,0,0,0,93.79,69a5.06,5.06,0,0,0,0-4.24,3.6,3.6,0,0,0-3.6-2"/>
          <path d="M89.78,62.78c-.69,2.3-1.31,4.61-1.85,7-.31,1.29-1.48,4.7.91,4.8a3.43,3.43,0,0,0,2.3-1.22,20.87,20.87,0,0,0,2.1-2.21,6.61,6.61,0,0,0,1.45-5.68,4.29,4.29,0,0,0-4.52-3.27.65.65,0,0,0-.63.62.63.63,0,0,0,.63.63,3,3,0,0,1,3.24,2.09A5.08,5.08,0,0,1,92.52,70,12.93,12.93,0,0,1,91,71.74a5.77,5.77,0,0,1-1.79,1.48c-.82.29-.56-.86-.46-1.3.19-.9.39-1.79.61-2.68.49-2.06,1-4.1,1.65-6.13.24-.77-1-1.1-1.2-.33Z"/>
          <path d="M96.05,20.74a14,14,0,0,0-3.43,9.14c0,1.21.5,2.75,1.71,2.77l3-6.75a7.09,7.09,0,0,0,.82-2.77c0-1-1.24-2-2.15-2.39"/>
          <path d="M95.61,20.3a14.78,14.78,0,0,0-3.44,7.37c-.28,1.85-.5,5.43,2.16,5.61a.62.62,0,0,0,.54-.31c1.15-2.55,2.39-5.08,3.45-7.67a3.86,3.86,0,0,0,.24-3.18,4.59,4.59,0,0,0-2.34-2c-.75-.31-1.07.9-.34,1.2s1.56.93,1.69,1.68c.16.95-.54,2.15-.92,3l-2.86,6.34.54-.31c-.78-.05-1-1.16-1.07-1.78a10.87,10.87,0,0,1,.3-3.21,13.53,13.53,0,0,1,2.93-5.86c.53-.6-.35-1.49-.88-.88Z"/>
          <path d="M100.32,22,96.49,32.28c.58.44,1.4,0,2-.39a16.63,16.63,0,0,0,3.32-2.76,5.49,5.49,0,0,0,1.43-4,3.36,3.36,0,0,0-2.63-3"/>
          <path d="M99.71,21.86,95.88,32.11a.63.63,0,0,0,.29.71c1.35.86,2.92-.56,4-1.33a10,10,0,0,0,3.1-3.37,5.12,5.12,0,0,0,.37-4.1,3.84,3.84,0,0,0-2.82-2.49c-.79-.14-1.13,1.06-.34,1.2a2.65,2.65,0,0,1,2,1.76,3.92,3.92,0,0,1-.38,3.15,8.58,8.58,0,0,1-2.35,2.6c-.48.37-1,.72-1.48,1.06s-1,.74-1.44.44l.29.71,3.83-10.26c.28-.75-.93-1.08-1.21-.33Z"/>
          <path d="M30.67,106.8a16.19,16.19,0,0,0,6,3.07,19.82,19.82,0,0,0,2.39.48c-1,3.39-2.14,6.84-3.1,10.23a.94.94,0,0,1-.42.67.91.91,0,0,1-.75-.1,7.65,7.65,0,0,1-4.25-6.23c-.09-1.18-.61-2.34-.42-3.52C30.27,110.42,30.5,107.79,30.67,106.8Z"/>
          <path d="M30.23,107.25a17.92,17.92,0,0,0,8.66,3.7l-.44-.76c-.74,2.62-1.59,5.2-2.39,7.81-.19.62-.38,1.25-.56,1.88a3,3,0,0,1-.23.77c-.14.07-.62-.27-.74-.35a6.88,6.88,0,0,1-2.22-2.11,7.25,7.25,0,0,1-1.11-2.8c-.08-.55-.12-1.1-.23-1.64a8.9,8.9,0,0,1-.28-1.84c0-.8.19-1.63.28-2.42s.17-1.68.3-2.52-1.08-1.12-1.21-.33c-.23,1.47-.32,3-.52,4.42a8.53,8.53,0,0,0,.23,3,20.11,20.11,0,0,0,.58,3,8.47,8.47,0,0,0,3.37,4.21c.67.43,1.63,1,2.35.35a1.93,1.93,0,0,0,.52-1c.19-.62.37-1.25.56-1.88.82-2.74,1.72-5.46,2.5-8.21a.62.62,0,0,0-.43-.77,16.8,16.8,0,0,1-8.11-3.39C30.48,105.87,29.59,106.75,30.23,107.25Z"/>
          <path d="M40.46,110.51a23.64,23.64,0,0,0,7.81-.73c-.53,3.23-2.89,6.38-5.08,8.81-.79.87-2,1.71-3,1.11a39.08,39.08,0,0,1,.31-8.85"/>
          <path d="M40.46,111.13a24.4,24.4,0,0,0,8-.75l-.77-.76a14.38,14.38,0,0,1-2.73,5.84,30.74,30.74,0,0,1-2,2.5c-.54.61-1.54,1.67-2.44,1.2l.31.54a38.76,38.76,0,0,1,.28-8.68c.14-.79-1.06-1.13-1.21-.34a30,30,0,0,0-.43,5.26c0,.9,0,1.8.06,2.7a5.58,5.58,0,0,0,.07,1.23c.11.38.56.54.91.61,1.49.3,2.71-.92,3.6-1.94a28.69,28.69,0,0,0,2.83-3.74,13.91,13.91,0,0,0,2-4.85.64.64,0,0,0-.77-.77,23.47,23.47,0,0,1-7.65.7c-.81-.06-.8,1.19,0,1.25Z"/>
          <path d="M66.18,93.58a58.65,58.65,0,0,0,3.09-6.64l.12.12,4.13,3.2a6.54,6.54,0,0,1,1.19,2c.25.55-.23.94-.73,1.27a1.84,1.84,0,0,1-1.14.17c-1.88-.14-4.69.42-6.47-.2"/>
          <path d="M66.72,93.9a61.39,61.39,0,0,0,3.15-6.79l-1,.27a23.65,23.65,0,0,0,2.29,1.81l1.31,1a3.73,3.73,0,0,1,1,.88,9,9,0,0,1,.68,1.31c.08.17.07.18-.1.34a1.11,1.11,0,0,1-.62.33c-.5.06-1,0-1.54,0s-1.1,0-1.65.08a10.19,10.19,0,0,1-3.65-.23c-.76-.26-1.09,1-.33,1.2a10.07,10.07,0,0,0,3.71.29c.66,0,1.32-.08,2-.09a10.17,10.17,0,0,0,1.83,0,2.46,2.46,0,0,0,1.49-1.09,1.68,1.68,0,0,0-.16-1.66,6.22,6.22,0,0,0-.9-1.51,8.82,8.82,0,0,0-1.35-1.09L71.09,87.6a14.79,14.79,0,0,1-1.38-1.1.63.63,0,0,0-1,.27,59.05,59.05,0,0,1-3,6.5c-.38.7.69,1.34,1.08.63Z"/>
          <path d="M70.17,84.5c.49-1.41.93-2.83,1.33-4.27,2.12.06,4.74,2.37,6.38,3.7.6.48,1.26,1.12,1.15,1.88-.18,1.12-1.73,1.27-2.84,1a19.82,19.82,0,0,1-5.81-2.23"/>
          <path d="M70.78,84.66c.48-1.4.92-2.83,1.32-4.26l-.6.46A6,6,0,0,1,74.38,82a30.34,30.34,0,0,1,2.72,2.06c.44.36,2,1.45,1,2s-2.12.07-3-.17a19.28,19.28,0,0,1-4.42-1.86.63.63,0,0,0-.63,1.08,20.64,20.64,0,0,0,4.72,2c1.24.34,2.7.71,3.91.06a1.77,1.77,0,0,0,1-1.4,2.36,2.36,0,0,0-.83-1.88,16.16,16.16,0,0,0-1.49-1.25c-.55-.45-1.12-.89-1.7-1.31a8,8,0,0,0-4.13-1.76.63.63,0,0,0-.6.46c-.4,1.43-.84,2.85-1.33,4.26-.26.76,1,1.09,1.21.33Z"/>
          <path d="M75.52,51.57c.11-1.72.21-3.45.31-5.16,1.09.22,2.48,1.12,3.57,1.35a1.72,1.72,0,0,1,1.19.6c.42.66-.21,1.5-.87,1.93A11.09,11.09,0,0,1,75.52,51.57Z"/>
          <path d="M76.15,51.57c.11-1.72.21-3.44.31-5.16l-.79.6a12.12,12.12,0,0,1,2.16.85A9.68,9.68,0,0,0,79,48.3a3.15,3.15,0,0,1,1,.3.35.35,0,0,1,.13.18c0-.1,0,.15,0,.07l0,.1s0,.14,0,.08a1.74,1.74,0,0,1-.65.72,6.77,6.77,0,0,1-1.75.74,11.78,11.78,0,0,1-1.2.33l-.55.1c.11,0-.09,0-.13,0l-.26,0a.63.63,0,0,0,0,1.25,11.56,11.56,0,0,0,4.55-1.4,2.27,2.27,0,0,0,1.19-2.48c-.39-1-1.51-1-2.39-1.38A22.85,22.85,0,0,0,76,45.8a.64.64,0,0,0-.79.61c-.1,1.72-.2,3.44-.31,5.16a.63.63,0,0,0,.62.63A.64.64,0,0,0,76.15,51.57Z"/>
          <path d="M76,44.12c.1-1.75.21-3.49.33-5.21A13.18,13.18,0,0,1,80.91,45a.67.67,0,0,1,0,.57c-.16.27-.55.24-.85.18C79,45.56,77,44.33,76,44.12Z"/>
          <path d="M76.59,44.12c.11-1.74.21-3.48.34-5.21l-.94.53a12.26,12.26,0,0,1,4.24,5.49,1.46,1.46,0,0,0,.1.35s0,0,0,0,.12-.15.12-.09A4.33,4.33,0,0,1,80,45.1a8.76,8.76,0,0,1-1.19-.49,13.43,13.43,0,0,0-2.63-1.1c-.78-.16-1.12,1-.33,1.21a10.7,10.7,0,0,1,2.24.93,5.53,5.53,0,0,0,2.45.79,1.11,1.11,0,0,0,1.1-1.08,4.15,4.15,0,0,0-.47-1.56A12.65,12.65,0,0,0,79.33,41a15.5,15.5,0,0,0-2.71-2.6c-.41-.31-.91.12-.94.54-.13,1.73-.23,3.47-.34,5.21C75.29,44.92,76.54,44.92,76.59,44.12Z"/>
          <path d="M99.3,8.81c1.58-1.23,3.21-2.38,4.88-3.47a27.65,27.65,0,0,1,.54,5.53C103,10.65,100.5,10.1,99.3,8.81Z"/>
          <path d="M99.75,9.25c1.53-1.19,3.12-2.31,4.75-3.37l-.92-.37A12.18,12.18,0,0,1,104,8.12c.07.92.11,1.83.13,2.75l.63-.63c-.34,0-.84-.12-1.25-.21A12.53,12.53,0,0,1,102,9.65a5.23,5.23,0,0,1-2.26-1.28c-.56-.59-1.44.3-.89.88a6.51,6.51,0,0,0,2.74,1.58,15.75,15.75,0,0,0,3.12.66.62.62,0,0,0,.62-.62c0-.95-.06-1.89-.13-2.83a15.3,15.3,0,0,0-.42-2.86.63.63,0,0,0-.92-.37q-2.58,1.67-5,3.56a.63.63,0,0,0,0,.88A.64.64,0,0,0,99.75,9.25Z"/>
          <path d="M106.46,3.94c1-.62,2.11-1.21,3.18-1.76,0,1.63-1.63,4.74-2,6.31C106.27,7.8,106.62,5.42,106.46,3.94Z"/>
          <path d="M106.77,4.48c1-.62,2.11-1.21,3.19-1.77L109,2.18a2.51,2.51,0,0,1-.07.55c-.06.27-.13.53-.21.79-.17.58-.38,1.15-.6,1.71A31.16,31.16,0,0,0,107,8.33L107.9,8a1.09,1.09,0,0,1-.47-.53,3.73,3.73,0,0,1-.23-1.07c-.08-.8,0-1.61-.12-2.41a.63.63,0,1,0-1.25,0c.17,1.63-.28,4.13,1.44,5.09a.63.63,0,0,0,.92-.37,32.85,32.85,0,0,1,1.19-3.18,10.92,10.92,0,0,0,.89-3.3.63.63,0,0,0-.94-.54c-1.08.56-2.14,1.14-3.19,1.76A.63.63,0,0,0,106.77,4.48Z"/>
          <path d="M105.57,47.83c.11,1.21.28,2.41.5,3.61l0,0c.15,1.51.25,3,.32,4.54,0,.5,0,1,.05,1.5a23.53,23.53,0,0,1-7.19.59c-.59,0-1.31-.22-1.42-.79a1.31,1.31,0,0,1,.18-.81A24.45,24.45,0,0,1,105.57,47.83Z"/>
          <path d="M105,47.83c.12,1.27.29,2.53.52,3.78l1-.61,0,0a.62.62,0,0,0-1.06.44c.19,2,.31,4,.36,6l.46-.6a23.46,23.46,0,0,1-5.85.62c-.36,0-1.85.13-2-.39-.06-.24.35-.82.47-1s.35-.61.54-.91a22.24,22.24,0,0,1,6.48-6.76c.67-.43,0-1.51-.63-1.08a23.7,23.7,0,0,0-6.16,6.07c-.41.57-.79,1.15-1.14,1.75a4.53,4.53,0,0,0-.8,1.88c-.1,1.76,2.23,1.71,3.41,1.73a26.2,26.2,0,0,0,6-.67.63.63,0,0,0,.46-.61c0-2-.17-4-.36-6l-1.07.44,0,0c.45.51,1.14,0,1-.61-.21-1.14-.36-2.29-.47-3.45C106.12,47,104.87,47,105,47.83Z"/>
          <path d="M106.3,64.2c.09-1.58.13-3.17.12-4.75h-.31a94.64,94.64,0,0,0-9.94,1.22,4.67,4.67,0,0,0-.51.23c-1.1.37-.54.85.09,1,2.78.8,12.25,1.43,10.21,2.83"/>
          <path d="M106.92,64.2c.09-1.58.13-3.17.13-4.75a.64.64,0,0,0-.63-.63,46.89,46.89,0,0,0-5.66.53c-1.06.13-2.11.27-3.16.43a6.8,6.8,0,0,0-2.69.78,1,1,0,0,0-.44,1.13,1.66,1.66,0,0,0,1.18.87,16.37,16.37,0,0,0,2,.4c1.8.3,3.62.53,5.42.87a14.63,14.63,0,0,1,2.26.56,3,3,0,0,1,.28.13c.12.06.13.07.12.09s-.08-.29-.07-.31.08-.07.07-.13,0,0-.06.06c-.65.46,0,1.54.63,1.08a1,1,0,0,0,.47-1.38,2.21,2.21,0,0,0-1.24-.79,27,27,0,0,0-4.62-.93,44.83,44.83,0,0,1-4.77-.82,1.66,1.66,0,0,0-.41-.14l0,0c-.14-.08-.16.05-.07.4a2,2,0,0,0,.4-.18,4.23,4.23,0,0,1,1.17-.32c1-.17,1.92-.31,2.89-.43a50.65,50.65,0,0,1,6.38-.62l-.62-.62c0,1.58,0,3.17-.13,4.75,0,.81,1.21.8,1.25,0Z"/>
          <path d="M109.9,77c-.65,2.07-1.35,4.13-2.11,6.16a18.18,18.18,0,0,1-3.53-1.37,1.92,1.92,0,0,1-.88-1.8c.19-1,1.39-1.52,2.42-1.73C106.62,78.09,109.07,77.07,109.9,77Z"/>
          <path d="M109.3,76.84c-.65,2.07-1.36,4.12-2.11,6.16l.77-.44a22,22,0,0,1-2.12-.71c-.65-.25-1.46-.51-1.77-1.23-.37-.87.57-1.38,1.26-1.59.35-.11.71-.17,1.06-.28s.74-.24,1.11-.37.93-.33,1.4-.48l.62-.19.26-.06.11,0c.13,0-.12,0,0,0a.65.65,0,0,0,.63-.63.63.63,0,0,0-.63-.62,10.83,10.83,0,0,0-2.58.74c-.43.15-.86.3-1.29.43s-.84.2-1.25.34c-1.11.41-2.18,1.26-2,2.58a2.94,2.94,0,0,0,2,2.28,20.57,20.57,0,0,0,2.85,1,.65.65,0,0,0,.77-.44q1.14-3.06,2.11-6.16C110.75,76.4,109.54,76.07,109.3,76.84Z"/>
          <path d="M107.28,84.5c-.66,1.72-1.36,3.44-2.1,5.13H105c-2.91-.7-4.17-5-3.1-7.85h0a11.11,11.11,0,0,0,5,2.55"/>
          <path d="M106.68,84.33q-1,2.52-2,5l.54-.31H105c.14,0-.08,0-.11-.05a2.28,2.28,0,0,1-.45-.2,3.21,3.21,0,0,1-.78-.59,4.86,4.86,0,0,1-1.11-1.8A6.4,6.4,0,0,1,102.5,82l-.6.46h0l-.44-.19a11.38,11.38,0,0,0,5.27,2.71.62.62,0,0,0,.33-1.2,14.29,14.29,0,0,1-2.76-1,8.26,8.26,0,0,1-1.27-.77c-.33-.24-.7-.78-1.13-.78a.65.65,0,0,0-.61.45,7.62,7.62,0,0,0,.19,5.36A6,6,0,0,0,103,89.21a3.56,3.56,0,0,0,2.21,1.05.63.63,0,0,0,.54-.31q1.14-2.62,2.17-5.29a.63.63,0,1,0-1.21-.33Z"/>
          <path d="M83.57,113.63c1.22.9,2.39,2.52,3.51,3.55,1.33-1.21,2.62-2.42,3.88-3.6.33-.32.69-.69,1.06-1.12-4.94-.89-9,1-8.14,1.17"/>
          <path d="M83.25,114.17a48,48,0,0,1,3.39,3.45.64.64,0,0,0,.88,0c1.68-1.52,3.43-3,5-4.71a.64.64,0,0,0-.28-1,15.69,15.69,0,0,0-7,.27,5,5,0,0,0-1.66.69c-.54.39-.61,1.19.13,1.42A.63.63,0,0,0,84,113l.18.13a.6.6,0,0,1,.1.63s-.09.15,0,0,0,0-.05,0a3,3,0,0,1,.47-.25l.25-.09.39-.13a8.64,8.64,0,0,1,1-.26,14.59,14.59,0,0,1,5.51-.07l-.28-1a66.79,66.79,0,0,1-4.94,4.72h.88a46.43,46.43,0,0,0-3.64-3.65.63.63,0,0,0-.63,1.08Z"/>
          <path d="M86.06,118.09c-1.72,1.53-3.5,3-5.33,4.5,0-1.22-.27-3.92-.27-5.14a1.69,1.69,0,0,1,.22-1c.43-.61,1.38-.4,2-.06C83.68,116.87,85.31,117.32,86.06,118.09Z"/>
          <path d="M85.62,117.65c-1.74,1.54-3.51,3-5.34,4.5l1.07.44c0-1.46-.18-2.92-.24-4.39,0-.31,0-.63,0-1a.79.79,0,0,1,.08-.43.29.29,0,0,1,.21-.14,1.64,1.64,0,0,1,.92.18c.36.16.71.33,1.08.48a6.8,6.8,0,0,1,2.24,1.19.62.62,0,0,0,.88-.88A7.27,7.27,0,0,0,84,116.27a7.25,7.25,0,0,0-2.47-.85,1.7,1.7,0,0,0-1.29.51,2.17,2.17,0,0,0-.44,1.55c0,.78.06,1.57.12,2.36s.14,1.83.14,2.75a.63.63,0,0,0,1.07.44c1.82-1.44,3.59-3,5.33-4.5C87.11,118,86.22,117.12,85.62,117.65Z"/>
          <path d="M39.47,137.5a68.71,68.71,0,0,0,7.16-.5c-1.82-2.42-5.53-4.83-8.27-6.12-.79-.37-1.92-.59-2.37.15v.33c.18,2.17,1.87,4.32,3.06,6.14"/>
          <path d="M39.47,138.13a71.56,71.56,0,0,0,7.16-.5c.41,0,.86-.52.54-.94a22.06,22.06,0,0,0-7-5.58c-1.06-.58-2.4-1.44-3.68-1.14a1.37,1.37,0,0,0-1.14,1.14,5.23,5.23,0,0,0,.37,1.91,24,24,0,0,0,2.78,4.8c.44.67,1.52,0,1.08-.64a22.13,22.13,0,0,1-2.66-4.49,6,6,0,0,1-.3-1.16,2.42,2.42,0,0,0,0-.38c0-.15,0-.11,0,.13a.41.41,0,0,1,.13-.08,2,2,0,0,0,.33,0,2.1,2.1,0,0,1,.5.09,4.88,4.88,0,0,1,.89.36,30.06,30.06,0,0,1,4.15,2.5,15.94,15.94,0,0,1,3.5,3.21l.54-.94a71.56,71.56,0,0,1-7.16.5.63.63,0,0,0,0,1.25Z"/>
          <path d="M36.48,137.47a55.48,55.48,0,0,1-5.76-.5c-.81-.12-1.62-.25-2.43-.41v-.22A26.92,26.92,0,0,1,30,130c.36-.62,1.06-1.27,1.68-.92a1.44,1.44,0,0,1,.5.59c.9,1.58,3.14,5.78,4,7.36"/>
          <path d="M36.48,136.85a52.63,52.63,0,0,1-8-.89l.46.6a6.68,6.68,0,0,1,.15-1.12c.11-.58.24-1.16.37-1.74a16.85,16.85,0,0,1,1-3.17c.14-.28.69-1.19,1-.86a5.45,5.45,0,0,1,.73,1.26c.59,1.06,1.16,2.12,1.73,3.18s1.17,2.16,1.78,3.22a.63.63,0,0,0,1.08-.63c-1.27-2.21-2.44-4.48-3.68-6.71a3.36,3.36,0,0,0-1.13-1.49,1.78,1.78,0,0,0-2.14.69,8.88,8.88,0,0,0-1.36,3.42q-.29,1.09-.51,2.22a9.14,9.14,0,0,0-.25,1.73.63.63,0,0,0,.46.61,56.89,56.89,0,0,0,8.35.93.63.63,0,0,0,0-1.25Z"/>
        </g>
      </g>
    </g>
  </g>
</svg>