<?xml version="1.0" encoding="UTF-8" standalone="yes"?>
<svg xmlns="http://www.w3.org/2000/svg" viewBox="0 0 146 172.7">
  <defs/>
  <g data-name="Layer_2">
    <g data-name="baby-cat-tail-1-patterns">
      <g data-name="tail-1-pattern-4-mask">
        <path d="M21.05,113a10.59,10.59,0,0,0,7.33,10.15c4.33,1.35,8.69-.34,11.68-3.56,3.16-3.41,4.95-7.91,6.41-12.26A73,73,0,0,0,50,90.69a73.23,73.23,0,0,0-.73-18.76l-.91.7a21.14,21.14,0,0,1,7.44,7.27,46,46,0,0,1,3.51,8.56.63.63,0,0,0,1.21-.33A65.12,65.12,0,0,1,59.58,80,51.21,51.21,0,0,1,61,69.43c.67-3.33,1.15-6.64,1.5-10A51.15,51.15,0,0,1,64.32,49.2c2-6.37,5.5-12.52,9.15-18.09A73.25,73.25,0,0,1,102.36,5.57L101.42,5c-.37,4.44-.69,9,.78,13.28a.63.63,0,0,0,1,.28C115.14,8.5,130.71,4.73,145.53,1.22l-.79-.6c-.06.61-1.14,1.48-1.61,2-.75.91-1.5,1.83-2.22,2.76q-2.17,2.78-4.19,5.67a112,112,0,0,0-7.45,12.34A95.66,95.66,0,0,0,120,49.72a82.11,82.11,0,0,0-1.42,15.8.63.63,0,0,0,1.07.44,28.23,28.23,0,0,1,2.38-1.82,35.31,35.31,0,0,0,2.8-2.53,36.63,36.63,0,0,0,4.45-5.48l-1.14-.48c-1.38,9.59-2.41,19.24-4.08,28.79a123.75,123.75,0,0,1-7.8,26.86c-2.07,4.91-4.36,9.72-6.68,14.51a.63.63,0,0,0,1.08.63l.93-1.52c.42-.69-.64-1.3-1.08-.63a74.53,74.53,0,0,1-17.26,18.26,75.62,75.62,0,0,1-10.38,6.56c-1.88,1-3.8,1.89-5.77,2.71-1,.4-2,.79-3,1.15-.64.24-1,.3-1.3.89a.64.64,0,0,0,.22.86A31.38,31.38,0,0,0,83,157.59l-.62-.62,0,.35.3-.54a76,76,0,0,1-56,4.68c-.5-.16-.82.32-.76.77a26.6,26.6,0,0,1,.14,5.78,8.55,8.55,0,0,1-.92,3.75h1.08a79.83,79.83,0,0,0-12.42-14.19c-4.29-4-8.92-7.91-12.73-12.43V146c5-4.8,9.67-9.85,12.94-16,2.29-4.31,4.4-8.72,6.5-13.12.58-1.2,1.15-2.41,1.72-3.61.34-.72-.74-1.36-1.08-.63q-2.13,4.51-4.32,9c-2.25,4.6-4.41,9.32-7.46,13.45a79.35,79.35,0,0,1-9.18,10,.63.63,0,0,0,0,.88c3.72,4.42,8.23,8.2,12.42,12.15,4.61,4.35,9.07,8.89,12.53,14.23a.64.64,0,0,0,1.08,0,9.3,9.3,0,0,0,1-3.93,27.34,27.34,0,0,0-.14-6.58l-.77.77a77.78,77.78,0,0,0,47.32-.76q3-1,6-2.31c1.06-.46,2.1-.94,3.13-1.45.69-.34.85-.44.92-1.17,0-.37-.32-.59-.63-.63a29.28,29.28,0,0,1-9.29-2.7l.22.85c.23-.44,1.46-.65,2-.87.91-.36,1.81-.73,2.71-1.12,1.94-.85,3.84-1.77,5.7-2.78a76.42,76.42,0,0,0,27.21-24.8l-1.08-.63-.93,1.52,1.08.63c4-8.34,8-16.76,10.83-25.6,2.93-9.18,4.34-18.78,5.63-28.3.75-5.52,1.43-11,2.23-16.56a.63.63,0,0,0-1.15-.48A34.87,34.87,0,0,1,123.69,61a32.91,32.91,0,0,1-2.5,2.23,26.8,26.8,0,0,0-2.38,1.83l1.06.44c-.16-19.07,6.79-37.49,17.45-53.11,1.54-2.25,3.16-4.46,4.86-6.6.82-1,1.65-2.06,2.5-3.07.6-.71,1.22-1.19,1.31-2.12,0-.42-.43-.69-.79-.6-15.06,3.56-30.76,7.44-42.84,17.68l1,.28C102,13.79,102.31,9.36,102.67,5a.63.63,0,0,0-.94-.54A74.82,74.82,0,0,0,73.82,28.38,86.18,86.18,0,0,0,64,46.49c-2.61,6.74-2.46,14-3.82,21a71.42,71.42,0,0,0-1.79,11.62,58,58,0,0,0,.94,9.38l1.21-.33c-1.12-3.12-2.06-6.37-3.84-9.19A22.56,22.56,0,0,0,49,71.55a.64.64,0,0,0-.92.71,71.86,71.86,0,0,1-1.34,29.91A51.84,51.84,0,0,1,41.84,115c-2,3.54-5.14,7-9.46,7.35A9.32,9.32,0,0,1,22.3,113,.63.63,0,0,0,21.05,113Z"/>
        <g data-name="color">
          <path d="M40.44,118.13a29.11,29.11,0,0,0,4-7.13A71.81,71.81,0,0,0,49,93.67a48.93,48.93,0,0,1,9.3,19.39c1.64,8.42.6,17.1-.44,25.62C53.81,130.59,47.25,124.07,40.44,118.13Z"/>
          <path d="M40.88,118.57a37.86,37.86,0,0,0,5.56-11.29,72.94,72.94,0,0,0,3.12-13.45l-1,.28a45.45,45.45,0,0,1,9.22,19.58c1.51,8.27.46,16.74-.54,25l1.16-.31c-4.11-8.19-10.66-14.72-17.48-20.68-.6-.53-1.49.35-.88.88,6.74,5.9,13.22,12.33,17.28,20.43.31.61,1.1.23,1.17-.32,1-8.53,2.09-17.27.41-25.79A46.93,46.93,0,0,0,49.4,93.22a.63.63,0,0,0-1,.28,73.26,73.26,0,0,1-2.84,12.57c-1.31,4.07-2.88,8.21-5.52,11.62C39.51,118.31,40.39,119.2,40.88,118.57Z"/>
          <path d="M58.92,79c.16-4.79,1.57-9.57,2.3-14.36.5-3.29.69-6.63,1.18-9.91,4.89,1.93,8.06,7,11.57,10.88q4.29,4.77,8.53,9.6C87.84,81.27,93.36,88,94.21,96l-4.82-4a60.67,60.67,0,0,0-7.81-5.85c-4-2.37-8.46-3.8-12.89-5.2C65.77,80,61.84,79.89,58.92,79Z"/>
          <path d="M59.54,79c.18-4.17,1.21-8.2,2-12.28.71-3.91.93-7.89,1.51-11.83l-.77.44c3.74,1.55,6.36,4.82,8.87,7.86,2.94,3.57,6.09,7,9.15,10.42C86,80.05,92.54,87,93.59,96l1.07-.45C89.25,91,84.05,86.17,77.49,83.37a68.52,68.52,0,0,0-9.35-3.26c-3-.79-6.1-.85-9-1.75a.63.63,0,0,0-.34,1.21c2.83.85,5.82,1,8.68,1.65a63.5,63.5,0,0,1,9.17,3.12c6.58,2.74,11.77,7.59,17.17,12.11.37.3,1.14.15,1.07-.44C94,89,90,83.16,85.65,77.89c-4.88-5.85-10.08-11.42-15-17.23-2.28-2.69-4.77-5.2-8.08-6.57a.64.64,0,0,0-.77.44c-.59,4.1-.83,8.24-1.6,12.31A86,86,0,0,0,58.29,79C58.26,79.77,59.51,79.77,59.54,79Z"/>
          <path d="M65.84,43.57c.49-1,1-2.1,1.53-3.13a95.69,95.69,0,0,1,7.08-11.9q1.26-1.78,2.62-3.48C89.26,30.61,102,38.57,113.34,45.69L83.58,44C77.91,43.7,71.51,43.89,65.84,43.57Z"/>
          <path d="M66.38,43.89A90.85,90.85,0,0,1,77.51,25.5l-.76.1c12.67,5.79,24.5,13.24,36.28,20.63l.31-1.16L88.79,43.69c-7.65-.43-15.31-.33-23-.74-.81-.05-.8,1.2,0,1.25,7.64.41,15.3.31,23,.74l24.55,1.38a.63.63,0,0,0,.32-1.17c-11.77-7.39-23.61-14.84-36.27-20.63a.65.65,0,0,0-.76.1A92.34,92.34,0,0,0,65.3,43.26C65,44,66,44.62,66.38,43.89Z"/>
          <path d="M33.85,164a76.93,76.93,0,0,0,19.28,1.31c.07.27-.08-.26,0,0C48.83,155,42.2,145.35,36.89,135.59c2.27,9.49.37,19.55-3.1,28.67"/>
          <path d="M33.68,164.55a79.3,79.3,0,0,0,19.45,1.34l-.61-.46,0,.07a.62.62,0,0,0,1.2-.33l0-.15a.63.63,0,0,0-1.21.33l0,.08,1.15-.48c-4.41-10.42-10.84-19.78-16.24-29.68a.63.63,0,0,0-1.14.48c2.21,9.53.29,19.34-3.11,28.34-.28.76.93,1.08,1.21.34,3.48-9.22,5.36-19.27,3.11-29l-1.15.48c5.4,9.9,11.83,19.26,16.24,29.68.28.66,1.33.18,1.14-.49l0-.07-1.21.33,0,.15,1.2-.33,0-.08a.62.62,0,0,0-.6-.45A78.57,78.57,0,0,1,34,163.35c-.78-.16-1.12,1.05-.33,1.2Z"/>
          <path d="M126.69,71.12c-1,7.25-2,14.48-3.63,21.57a93.37,93.37,0,0,1-2.81,9.91c.43-1.46.46-1.65-1.5-4.06C110,87.78,101.81,75.25,91.51,66c11.7-.13,23.24,2.52,34.64,5.15"/>
          <path d="M126.06,71.12c-1.42,10.57-3,21.18-6.41,31.31l1.2.34a3.09,3.09,0,0,0-.12-2.61,35.11,35.11,0,0,0-3.41-4.39c-2.79-3.55-5.5-7.16-8.24-10.74-5.27-6.87-10.7-13.67-17.13-19.5l-.44,1.07c11.7-.09,23.14,2.51,34.48,5.12.78.19,1.11-1,.33-1.2-11.44-2.64-23-5.26-34.81-5.17a.63.63,0,0,0-.44,1.06C97.2,72,102.43,78.42,107.46,85c2.43,3.16,4.82,6.34,7.26,9.49,1.23,1.58,2.48,3.15,3.73,4.71.93,1.15,1.62,1.82,1.2,3.27a.62.62,0,0,0,1.2.34c3.47-10.25,5-21,6.46-31.65.11-.79-1.14-.78-1.25,0Z"/>
          <path d="M99.82,137.87a75.56,75.56,0,0,1-23.53,15c.79-15.79-1.69-32.79-7.93-47.31C80.25,114.54,91.48,125.51,99.82,137.87Z"/>
          <path d="M99.38,137.43a75.66,75.66,0,0,1-23.25,14.81l.79.61c.77-16.17-1.65-32.7-8-47.63l-.86.86c11.93,9,22.82,19.69,31.24,32.11.45.66,1.53,0,1.08-.63C91.81,124.94,80.78,114.18,68.67,105c-.56-.43-1.06.36-.85.85,6.28,14.73,8.61,31.06,7.85,47a.63.63,0,0,0,.79.6,77.53,77.53,0,0,0,23.8-15.13C100.85,137.77,100,136.88,99.38,137.43Z"/>
          <path d="M122.24,42.8a97.5,97.5,0,0,1,6.09-16.15c-4.52-3.28-9.84-5.39-15-7.56a20.26,20.26,0,0,0,1.84,6.13c2.24,5.33,4.82,12.25,7.06,17.58.14-.32.64-2.35.78-2.67"/>
          <path d="M122.84,43a99.08,99.08,0,0,1,6-16,.65.65,0,0,0-.23-.86c-4.62-3.31-9.92-5.43-15.13-7.62a.62.62,0,0,0-.79.6,21.39,21.39,0,0,0,1.86,6.29c.79,1.89,1.55,3.78,2.3,5.68,1.57,4,3.11,8,4.76,11.9a.63.63,0,0,0,1.2,0c.33-.86.46-1.79.78-2.66s-.92-1.08-1.2-.33-.46,1.79-.78,2.66h1.2c-1.6-3.81-3.08-7.67-4.6-11.51-.73-1.86-1.47-3.71-2.24-5.55a22.61,22.61,0,0,1-2-6.48l-.79.6c5.11,2.15,10.29,4.25,14.83,7.5l-.22-.85a100,100,0,0,0-6.15,16.29.62.62,0,0,0,1.2.33Z"/>
          <path d="M31,123c-2.62,4.47-6.2,8.49-8.82,13a92.2,92.2,0,0,0,.18-19,9.88,9.88,0,0,0,2.88,3.88A10,10,0,0,0,31,123Z"/>
          <path d="M30.49,122.67c-2.67,4.51-6.15,8.46-8.82,13l1.16.32a88.84,88.84,0,0,0,.19-19l-1.17.32A10.58,10.58,0,0,0,31,123.61c.81,0,.8-1.2,0-1.25a9.36,9.36,0,0,1-8.1-5.73.63.63,0,0,0-1.16.31,88.84,88.84,0,0,1-.19,19c-.07.64.87.81,1.17.31,2.67-4.5,6.15-8.45,8.82-13A.63.63,0,0,0,30.49,122.67Z"/>
          <path d="M121.36,7.51c3-1.15,6-2.15,9.13-3.06a74.73,74.73,0,0,1,0,9C127.74,11.6,124.11,9.34,121.36,7.51Z"/>
          <path d="M121.53,8.11c3-1.15,6-2.15,9.13-3.06l-.79-.6a69,69,0,0,1,0,9l.95-.54c-3-2-6.11-3.91-9.13-5.92-.68-.45-1.3.64-.63,1.08,3,2,6.1,3.91,9.12,5.92a.63.63,0,0,0,.94-.54,69,69,0,0,0,0-9,.63.63,0,0,0-.79-.6c-3.08.9-6.14,1.9-9.13,3.06C120.45,7.19,120.77,8.4,121.53,8.11Z"/>
        </g>
      </g>
    </g>
  </g>
</svg>