<?xml version="1.0" encoding="UTF-8" standalone="yes"?>
<svg xmlns="http://www.w3.org/2000/svg" viewBox="0 0 71.76 87.13">
  <defs/>
  <g data-name="Layer_2">
    <g data-name="baby-cat-tail-2-patterns">
      <g data-name="tail-2-pattern-4-mask">
        <path d="M10.73,49.84c0,6.69,3.5,13.21,9.8,15.89,7.42,3.15,15-.23,21.65-3.83,13.29-7.24,16.52-22.41,19-36.11C62.78,17.18,64.49,8.36,69.36.92L68.22.77a189.49,189.49,0,0,1,2.29,30.09,142.56,142.56,0,0,1-.65,14.61,29.94,29.94,0,0,1-1.57,7.23,46.27,46.27,0,0,1-3.21,6.51,66.16,66.16,0,0,1-7.41,11.43A44.82,44.82,0,0,1,47.1,79.26c-7.45,4.61-16.55,8-25.41,6.2C13.36,83.8,4.92,78,1.16,70.21v.63A81,81,0,0,0,7.19,60c1.65-3.24,3.16-6.57,4.7-9.87.34-.72-.74-1.36-1.08-.63-1.54,3.3-3.05,6.63-4.69,9.87a82.78,82.78,0,0,1-6,10.82.6.6,0,0,0,0,.63c3.43,7.09,10.68,12.53,18,15,8.52,2.82,17.62.82,25.43-3.13A55.2,55.2,0,0,0,55.19,74.9a44,44,0,0,0,8.59-10.85c2.42-4.09,5.1-8.36,6.34-13C71.44,46.19,71.52,41,71.68,36A192,192,0,0,0,69.42.44c-.09-.57-.88-.55-1.14-.15-7.81,11.94-7.49,26.71-11.57,40-1.94,6.27-4.88,12.43-9.82,16.87a36.22,36.22,0,0,1-9.7,5.82c-3.59,1.6-7.28,3.14-11.29,2.84a14.79,14.79,0,0,1-10.29-5.19A17.33,17.33,0,0,1,12,49.84.63.63,0,0,0,10.73,49.84Z"/>
        <g data-name="color">
          <path d="M16.1,84.38A33,33,0,0,1,7.32,78.9c2.78-2.25,6.19-4.66,8.39-7.47-.7,3.82.09,8.82.39,12.7"/>
          <path d="M16.42,83.84a32.88,32.88,0,0,1-8.66-5.38v.88c2.91-2.34,6.06-4.52,8.4-7.47l-1.05-.61c-.75,4.26,0,8.61.37,12.87.06.79,1.31.8,1.25,0-.33-4.13-1.15-8.41-.41-12.54.09-.53-.62-1.15-1.05-.6-2.34,3-5.48,5.13-8.39,7.47a.62.62,0,0,0,0,.88,34.08,34.08,0,0,0,8.91,5.58c.73.31,1.37-.76.63-1.08Z"/>
          <path d="M34.25,85.56a48.1,48.1,0,0,0,14-6.31c-2.69-3.5-6.54-6.62-9.86-9.53C38.84,74.83,36.82,81.12,34.25,85.56Z"/>
          <path d="M34.42,86.16a48.86,48.86,0,0,0,14.19-6.37.64.64,0,0,0,.13-1c-2.82-3.63-6.42-6.53-9.86-9.53-.37-.33-1.11-.14-1.07.44.38,5.35-1.46,10.92-4.1,15.52a.63.63,0,0,0,1.08.63c2.74-4.78,4.67-10.58,4.27-16.15L38,70.16c3.43,3,7,5.9,9.85,9.53l.13-1A47.41,47.41,0,0,1,34.08,85,.63.63,0,0,0,34.42,86.16Z"/>
          <path d="M59.85,68.91a84.38,84.38,0,0,0,6-9.76c.31-.56.62-1.12.92-1.68-2.84-.06-7.11.4-10,.25A33.18,33.18,0,0,0,59.85,68.91Z"/>
          <path d="M60.39,69.23a95.42,95.42,0,0,0,6.9-11.44.63.63,0,0,0-.54-.94c-3.32-.06-6.63.41-10,.24a.63.63,0,0,0-.62.63,32.91,32.91,0,0,0,3.13,11.51c.37.71,1.45.08,1.08-.63a31.39,31.39,0,0,1-3-10.88l-.63.62c3.32.17,6.63-.3,10-.24l-.54-.94a95.42,95.42,0,0,1-6.9,11.44C58.83,69.24,59.91,69.87,60.39,69.23Z"/>
          <path d="M71.06,35.72c-.06,2-.15,4.05-.28,6.07-.07,1.1-.15,2.22-.26,3.33-2.53-2.43-4.42-6.06-7-8.38l7.33-1"/>
          <path d="M70.43,35.72c-.09,3.13-.22,6.28-.53,9.4L71,44.67c-2.63-2.55-4.3-5.93-7-8.37l-.28,1,7.33-1a.62.62,0,0,0,.44-.77.63.63,0,0,0-.77-.43l-7.33,1a.62.62,0,0,0-.28,1c2.75,2.45,4.42,5.83,7,8.38a.64.64,0,0,0,1.07-.44c.31-3.12.44-6.27.53-9.4,0-.8-1.22-.8-1.25,0Z"/>
          <path d="M61.58,20.49c-.59,2.89-1.09,5.8-1.63,8.69,2.26-.52,4.53-1.63,6.8-2.15a1,1,0,0,0,.42-.17c.41-.35,0-1-.36-1.38l-5.09-5"/>
          <path d="M61,20.32c-.58,2.89-1.08,5.8-1.62,8.69a.63.63,0,0,0,.76.77,43.69,43.69,0,0,0,4.33-1.4c.71-.25,1.43-.49,2.16-.67s1.19-.31,1.34-1a1.9,1.9,0,0,0-.61-1.59c-.53-.58-1.13-1.11-1.69-1.66l-3.47-3.38c-.58-.57-1.46.32-.89.88l3,2.9,1.42,1.4c.24.23,1.06.82,1,1.18,0-.05.06-.09,0,0a2,2,0,0,1-.42.1l-.93.26c-.62.19-1.24.41-1.85.63a34.08,34.08,0,0,1-3.71,1.19l.77.77c.54-2.9,1.05-5.81,1.63-8.7.16-.78-1-1.12-1.21-.33Z"/>
          <path d="M57.6,39.44a51.25,51.25,0,0,1-3.4,8.85c3.32.07,7.27-.71,10.59-.77.2-.43-.2-.89-.57-1.2C61.88,44.34,60,41.42,57.6,39.44Z"/>
          <path d="M57,39.28A52.4,52.4,0,0,1,53.66,48a.63.63,0,0,0,.54.94c3.55,0,7-.7,10.59-.77a.65.65,0,0,0,.6-.46c.31-1-.54-1.63-1.18-2.21a28.25,28.25,0,0,1-2.08-2.16A44,44,0,0,0,58,39c-.6-.52-1.49.36-.88.88a36.83,36.83,0,0,1,3.61,3.78c.56.65,1.14,1.3,1.74,1.92.29.29.58.57.88.84s.9.61.79.94l.61-.46c-3.54.07-7,.82-10.59.77l.54.94a53.93,53.93,0,0,0,3.46-9A.62.62,0,0,0,57,39.28Z"/>
          <path d="M50.07,54.7A26.66,26.66,0,0,1,45.57,59q-.87.65-1.8,1.23c2.53,1.3,5.79,2.45,8.32,3.75C51.37,61.27,50.92,57.39,50.07,54.7Z"/>
          <path d="M49.63,54.26a26.25,26.25,0,0,1-6.17,5.44.63.63,0,0,0,0,1.08c2.71,1.38,5.6,2.37,8.32,3.75a.63.63,0,0,0,.91-.71c-.79-3.06-1.07-6.25-2-9.28-.24-.77-1.45-.44-1.21.33.94,3,1.22,6.22,2,9.28l.92-.7c-2.71-1.38-5.61-2.37-8.32-3.75v1.08a27.43,27.43,0,0,0,6.42-5.64C51,54.53,50.15,53.64,49.63,54.26Z"/>
          <path d="M33.58,65.12a20.83,20.83,0,0,1-4.31,1.17A15.58,15.58,0,0,1,23.19,66c.76,3.56,2.31,7.59,3.07,11.15,1.55-2.56,3.27-5,4.63-7.67C31.55,68.17,33.21,66.2,33.58,65.12Z"/>
          <path d="M33.42,64.52a16.94,16.94,0,0,1-10.07.85.63.63,0,0,0-.77.77c.83,3.77,2.26,7.37,3.08,11.14a.63.63,0,0,0,1.14.15c1.43-2.36,3-4.63,4.32-7.07a27.15,27.15,0,0,1,1.62-2.62,12.35,12.35,0,0,0,1.45-2.45c.28-.75-.93-1.08-1.21-.33a11.07,11.07,0,0,1-1.42,2.29,30.37,30.37,0,0,0-1.63,2.68c-1.28,2.36-2.81,4.57-4.21,6.87l1.14.15c-.82-3.77-2.25-7.38-3.07-11.15l-.77.77a18.16,18.16,0,0,0,10.73-.84C34.5,65.45,34.17,64.24,33.42,64.52Z"/>
          <path d="M70.92,21.09q-.15-3.11-.4-6.21c-1.24.34-2.34,1.36-3.58,1.7C68.1,17.8,69.76,19.87,70.92,21.09Z"/>
          <path d="M71.55,21.09c-.1-2.07-.24-4.14-.4-6.21a.64.64,0,0,0-.79-.6c-1.29.37-2.31,1.33-3.59,1.69a.64.64,0,0,0-.28,1c1.39,1.45,2.61,3.05,4,4.51.56.59,1.44-.3.88-.88-1.38-1.46-2.6-3.06-4-4.52l-.28,1.05c1.29-.37,2.31-1.33,3.59-1.69l-.79-.61c.16,2.07.3,4.14.4,6.21C70.34,21.89,71.59,21.89,71.55,21.09Z"/>
        </g>
      </g>
    </g>
  </g>
</svg>