<?xml version="1.0" encoding="UTF-8" standalone="yes"?>
<svg xmlns="http://www.w3.org/2000/svg" viewBox="0 0 71.76 87.13">
  <defs/>
  <g data-name="Layer_2">
    <g data-name="baby-cat-tail-2-patterns">
      <g data-name="tail-2-pattern-1-mask">
        <path d="M10.73,49.84c0,6.69,3.5,13.21,9.8,15.89,7.42,3.15,15-.23,21.65-3.83,13.29-7.24,16.52-22.41,19-36.11C62.78,17.18,64.49,8.36,69.36.92L68.22.77a189.49,189.49,0,0,1,2.29,30.09,142.56,142.56,0,0,1-.65,14.61,29.94,29.94,0,0,1-1.57,7.23,46.27,46.27,0,0,1-3.21,6.51,66.16,66.16,0,0,1-7.41,11.43A44.82,44.82,0,0,1,47.1,79.26c-7.45,4.61-16.55,8-25.41,6.2C13.36,83.8,4.92,78,1.16,70.21v.63A81,81,0,0,0,7.19,60c1.65-3.24,3.16-6.57,4.7-9.87.34-.72-.74-1.36-1.08-.63-1.54,3.3-3.05,6.63-4.69,9.87a82.78,82.78,0,0,1-6,10.82.6.6,0,0,0,0,.63c3.43,7.09,10.68,12.53,18,15,8.52,2.82,17.62.82,25.43-3.13A55.2,55.2,0,0,0,55.19,74.9a44,44,0,0,0,8.59-10.85c2.42-4.09,5.1-8.36,6.34-13C71.44,46.19,71.52,41,71.68,36A192,192,0,0,0,69.42.44c-.09-.57-.88-.55-1.14-.15-7.81,11.94-7.49,26.71-11.57,40-1.94,6.27-4.88,12.43-9.82,16.87a36.22,36.22,0,0,1-9.7,5.82c-3.59,1.6-7.28,3.14-11.29,2.84a14.79,14.79,0,0,1-10.29-5.19A17.33,17.33,0,0,1,12,49.84.63.63,0,0,0,10.73,49.84Z"/>
        <g data-name="color">
          <path d="M71.05,24.3a29.27,29.27,0,0,1-10-1c-.49,2.58-.94,5.17-1.43,7.73-.27,1.36-.56,2.73-.87,4.09,3.63,1.47,8.47,1.14,12.33.46C71.17,31.83,71.17,28.06,71.05,24.3Z"/>
          <path d="M68.36,54.2a54.89,54.89,0,0,1-2.53,4.95A67.86,67.86,0,0,1,58,71.22a14.68,14.68,0,0,1-8.16-4c-2.35-2-5.18-4-6-7,.58-.37,1.15-.76,1.7-1.17a28.14,28.14,0,0,0,7.12-8c2.59,1.21,4.91,2.74,7.19,3.18a23.33,23.33,0,0,0,5.78.42C66.31,54.6,68.36,54.2,68.36,54.2Z"/>
          <path d="M67.82,53.88a90.88,90.88,0,0,1-4.67,8.77,53.12,53.12,0,0,1-5.6,8.13l.61-.16A16.26,16.26,0,0,1,51,67.37c-2.46-2-5.6-4.17-6.52-7.35l-.28.7a29.38,29.38,0,0,0,9-9.39l-.85.23c3,1.45,5.73,3.11,9.13,3.53a21.78,21.78,0,0,0,7-.29c.79-.15.46-1.36-.33-1.2a21,21,0,0,1-6.33.29c-3.29-.37-5.93-2-8.86-3.41a.64.64,0,0,0-.86.22,27.82,27.82,0,0,1-8.6,8.94.64.64,0,0,0-.28.71c1,3.45,4.17,5.74,6.84,7.91a17.63,17.63,0,0,0,7.72,3.56.61.61,0,0,0,.6-.16,53.28,53.28,0,0,0,5.58-8,91.09,91.09,0,0,0,4.89-9.14C69.23,53.79,68.15,53.15,67.82,53.88Z"/>
          <path d="M33.93,65a22.25,22.25,0,0,1-4.66,1.3,15.89,15.89,0,0,1-9-1.34C17.88,70.57,17.94,79.07,19,85.08c0,.19-.17-.08,0,0s.11.51,0,.36a24.77,24.77,0,0,0,5.38,1,34.82,34.82,0,0,0,17-3.42,5.71,5.71,0,0,1-3-2.3,7.83,7.83,0,0,1-.77-1.53c-2.07-4.13-4.2-9.28-3.73-13.87"/>
          <path d="M33.76,64.39c-4.36,1.65-8.8,2-13.13,0-.28-.12-.72-.11-.86.23a29.29,29.29,0,0,0-2,10,48.07,48.07,0,0,0,.07,5.5c.07.9.15,1.8.27,2.69L18.22,84a4.4,4.4,0,0,1,.19,1l1.14-.15-.05-.06-.54.94H19l-.54-.31v-.11l.77-.43-.07,0L18.87,86c7.69,2.25,15.64.76,22.82-2.46.54-.24.3-1-.15-1.14a5.56,5.56,0,0,1-3.13-3.09c-.64-1.44-1.37-2.83-2-4.29a21.32,21.32,0,0,1-1.88-9.72c.07-.8-1.19-.8-1.25,0-.33,3.78.83,7.49,2.29,10.92,1.26,2.94,2.38,6.18,5.61,7.38l-.15-1.14C34.19,85.59,26.55,87,19.2,84.84a.62.62,0,0,0-.33,1.2l.07,0a.62.62,0,0,0,.76-.43A.85.85,0,0,0,19,84.46c-.43,0-.83.54-.54.94l0,.06a.63.63,0,0,0,1.14-.15c.19-.53-.15-1.4-.23-2-.11-.82-.2-1.65-.27-2.48a46.85,46.85,0,0,1-.16-5.3,28.55,28.55,0,0,1,1.9-10.31l-.85.22a17.89,17.89,0,0,0,14.1.11c.74-.29.42-1.49-.34-1.21Z"/>
        </g>
      </g>
    </g>
  </g>
</svg>