<?xml version="1.0" encoding="UTF-8" standalone="yes"?>
<svg xmlns="http://www.w3.org/2000/svg" viewBox="0 0 146 172.7">
  <defs/>
  <g data-name="Layer_2">
    <g data-name="baby-cat-tail-1-patterns">
      <g data-name="tail-1-pattern-2-mask">
        <path d="M21.05,113a10.6,10.6,0,0,0,7.33,10.15c4.33,1.34,8.69-.34,11.68-3.57,3.16-3.4,4.95-7.91,6.41-12.25A73,73,0,0,0,50,90.69a73.23,73.23,0,0,0-.73-18.76l-.91.71a21.12,21.12,0,0,1,7.44,7.26,46.25,46.25,0,0,1,3.51,8.56.63.63,0,0,0,1.21-.33A65.12,65.12,0,0,1,59.58,80,51.21,51.21,0,0,1,61,69.43c.67-3.32,1.15-6.64,1.5-10A51.4,51.4,0,0,1,64.32,49.2c2-6.37,5.5-12.51,9.15-18.08A73.16,73.16,0,0,1,102.36,5.57L101.42,5c-.37,4.45-.69,9,.78,13.29a.63.63,0,0,0,1,.27C115.14,8.5,130.71,4.74,145.53,1.23l-.79-.61c-.06.62-1.14,1.48-1.61,2-.75.91-1.5,1.83-2.22,2.76-1.45,1.85-2.85,3.75-4.19,5.68a112,112,0,0,0-7.45,12.34A95.55,95.55,0,0,0,120,49.73a82.11,82.11,0,0,0-1.42,15.8.63.63,0,0,0,1.07.44c.69-.69,1.62-1.21,2.38-1.83a35.18,35.18,0,0,0,2.8-2.52,37.14,37.14,0,0,0,4.45-5.48l-1.14-.48c-1.38,9.59-2.41,19.23-4.08,28.78a123.59,123.59,0,0,1-7.8,26.86c-2.07,4.91-4.36,9.72-6.68,14.52a.63.63,0,0,0,1.08.63l.93-1.52c.42-.7-.64-1.3-1.08-.64a74.81,74.81,0,0,1-27.64,24.82c-1.88,1-3.8,1.9-5.77,2.71-1,.41-2,.79-3,1.16-.64.23-1,.29-1.3.89a.63.63,0,0,0,.22.85A31.39,31.39,0,0,0,83,157.6l-.62-.63,0,.35.3-.54a76.59,76.59,0,0,1-43.37,7.39,75.21,75.21,0,0,1-12.65-2.71c-.5-.15-.82.33-.76.77a26.69,26.69,0,0,1,.14,5.79,8.55,8.55,0,0,1-.92,3.75h1.08a79.13,79.13,0,0,0-12.42-14.19c-4.29-4.06-8.92-7.91-12.73-12.44V146c5-4.79,9.67-9.84,12.94-16,2.29-4.31,4.4-8.72,6.5-13.12.58-1.21,1.15-2.41,1.72-3.62.34-.72-.74-1.35-1.08-.63q-2.13,4.53-4.32,9c-2.25,4.59-4.41,9.32-7.46,13.45a79.26,79.26,0,0,1-9.18,10,.63.63,0,0,0,0,.88c3.72,4.42,8.23,8.2,12.42,12.16A78.86,78.86,0,0,1,25.13,172.4a.63.63,0,0,0,1.08,0,9.25,9.25,0,0,0,1-3.92,27.34,27.34,0,0,0-.14-6.58l-.77.77a77.86,77.86,0,0,0,47.32-.77q3-1,6-2.3c1.06-.46,2.1-.94,3.13-1.45.69-.34.85-.45.92-1.18,0-.36-.32-.59-.63-.62a29.3,29.3,0,0,1-9.29-2.71l.22.86c.23-.44,1.46-.65,2-.88.91-.35,1.81-.73,2.71-1.12,1.94-.84,3.84-1.77,5.7-2.77a76.42,76.42,0,0,0,27.21-24.8l-1.08-.64-.93,1.53,1.08.63c4-8.35,8-16.76,10.83-25.61,2.93-9.17,4.34-18.77,5.63-28.29.75-5.52,1.43-11,2.23-16.56a.63.63,0,0,0-1.15-.48A34.87,34.87,0,0,1,123.69,61c-.8.78-1.63,1.53-2.5,2.23a26.8,26.8,0,0,0-2.38,1.83l1.06.44c-.16-19.07,6.79-37.5,17.45-53.11q2.31-3.39,4.86-6.61c.82-1,1.65-2,2.5-3.06.6-.71,1.22-1.19,1.31-2.13,0-.42-.43-.68-.79-.6-15.06,3.57-30.76,7.44-42.84,17.69l1,.27C102,13.8,102.31,9.37,102.67,5a.63.63,0,0,0-.94-.54,74.85,74.85,0,0,0-27.91,23.9A85.93,85.93,0,0,0,64,46.5c-2.61,6.74-2.46,14-3.82,21a71.71,71.71,0,0,0-1.79,11.63,57.89,57.89,0,0,0,.94,9.37l1.21-.33c-1.12-3.12-2.06-6.37-3.84-9.19A22.54,22.54,0,0,0,49,71.56a.63.63,0,0,0-.92.71,71.82,71.82,0,0,1-1.34,29.9A51.54,51.54,0,0,1,41.84,115c-2,3.54-5.14,7-9.46,7.35A9.32,9.32,0,0,1,22.3,113,.63.63,0,0,0,21.05,113Z"/>
        <g data-name="color">
          <path d="M44.45,111a72.12,72.12,0,0,0,4.19-38.88,21.52,21.52,0,0,1,9.5,11.33l1.75,4.87-.74-5.46c-.83-6.09,1.18-12.17,2.12-18.25.69-4.51.79-9.13,1.89-13.57a50,50,0,0,1,4.26-10.6,94.41,94.41,0,0,1,7.07-11.9A73.86,73.86,0,0,1,102.05,5c-.37,4.38-.73,9,.75,13.11C114.6,8.05,130.28,4.19,145.37.62l-.05.42c-11.88,13.68-21,30.27-24.5,47.92a23.48,23.48,0,0,1-1.62-5.37,10.9,10.9,0,0,0-1.94,2.28c-4,5.75-6.88,12.17-9.76,18.55L97.66,86.23a231,231,0,0,0-3.85-27.08c-2,6.58-5.83,12.45-9.59,18.21L77.41,87.8c-3.13,4.81-6.27,9.61-9.71,14.21a163.53,163.53,0,0,1-12,14.17,52,52,0,0,0-1.56-14.32A59.33,59.33,0,0,1,44.45,111Z"/>
          <path d="M45.05,111.14a73.33,73.33,0,0,0,4.19-39.21l-.92.7a21.09,21.09,0,0,1,7.45,7.27,46,46,0,0,1,3.51,8.56.63.63,0,0,0,1.21-.33A65.12,65.12,0,0,1,59.58,80,51.88,51.88,0,0,1,61,69.43c.67-3.33,1.16-6.64,1.51-10A51.15,51.15,0,0,1,64.32,49.2c2-6.37,5.5-12.52,9.15-18.09A73.25,73.25,0,0,1,102.36,5.57L101.42,5c-.37,4.44-.7,9,.78,13.28a.63.63,0,0,0,1,.28C115.14,8.5,130.71,4.73,145.53,1.22l-.79-.6c-.05.45-.62.86-1,1.27-.65.75-1.28,1.52-1.9,2.3q-1.59,2-3.09,4-3.3,4.46-6.17,9.23a104.87,104.87,0,0,0-9.12,19.35,92.48,92.48,0,0,0-3.29,12l1.15-.15a20.74,20.74,0,0,1-1.56-5.23.62.62,0,0,0-1-.27,19.22,19.22,0,0,0-3.3,4.3c-1,1.6-2,3.25-2.88,4.92-1.83,3.42-3.46,7-5.06,10.48L97.12,85.92l1.16.31A235.59,235.59,0,0,0,94.41,59c-.13-.64-1-.56-1.21,0-2.61,8.36-7.91,15.6-12.65,22.86-5,7.67-9.87,15.47-15.55,22.66-3.07,3.89-6.34,7.61-9.73,11.23l1.07.44a54.7,54.7,0,0,0-1.58-14.48.63.63,0,0,0-1-.28,56.79,56.79,0,0,1-9.58,9c-.64.47,0,1.55.63,1.08a57.57,57.57,0,0,0,9.83-9.21l-1-.27a53.09,53.09,0,0,1,1.54,14.15.63.63,0,0,0,1.06.44A171.29,171.29,0,0,0,72.94,95.7C78.14,88,83.3,80.26,88.16,72.37a58.66,58.66,0,0,0,6.25-13.05H93.2A232.39,232.39,0,0,1,97,86.23c0,.55.89.94,1.17.32q5.1-11.33,10.21-22.65c1.57-3.47,3.15-6.93,4.93-10.3.85-1.61,1.75-3.2,2.71-4.75A21,21,0,0,1,119.64,44l-1-.28a21.7,21.7,0,0,0,1.68,5.53.63.63,0,0,0,1.14-.15c2.89-14.36,9.35-27.8,17.94-39.61,1.27-1.74,2.58-3.45,3.94-5.11.67-.83,1.36-1.64,2-2.45A2,2,0,0,0,146,.62c0-.42-.43-.69-.79-.6-15.06,3.56-30.76,7.44-42.84,17.68l1,.28C102,13.79,102.31,9.36,102.67,5a.63.63,0,0,0-.94-.54A74.74,74.74,0,0,0,73.82,28.38,85.73,85.73,0,0,0,64,46.49c-2.61,6.74-2.46,14-3.83,21a72.51,72.51,0,0,0-1.78,11.62,58,58,0,0,0,.94,9.38l1.21-.33c-1.12-3.12-2.06-6.37-3.84-9.19A22.56,22.56,0,0,0,49,71.55a.64.64,0,0,0-.92.71,72.07,72.07,0,0,1-4.2,38.54C43.54,111.55,44.75,111.87,45.05,111.14Z"/>
        </g>
      </g>
    </g>
  </g>
</svg>