<?xml version="1.0" encoding="UTF-8" standalone="yes"?>
<svg xmlns="http://www.w3.org/2000/svg" viewBox="0 0 55.66 58.39">
  <defs/>
  <g data-name="Layer_2">
    <g data-name="baby-cat-tail-3-patterns">
      <g data-name="tail-3-pattern-4-mask">
        <path d="M13.94,15.49a5,5,0,0,0,3,5.41c2.86,1,6-1.45,8.11-3a38.77,38.77,0,0,0,6.81-6.3A24.09,24.09,0,0,0,34.38,7.9a21.75,21.75,0,0,0,1-2A5.17,5.17,0,0,1,36,4.38l-1-.13A16.3,16.3,0,0,1,37.3,15c-.08.58.56,1.1,1,.61C42.22,11.7,46.67,6.65,44.71.72l-1.14.48c5,7.27,10.27,15,10.79,24.13a19.91,19.91,0,0,1-3,12.13,23.41,23.41,0,0,1-9,7.76.63.63,0,0,0,.15,1.14l1.76.46-.14-1.15a45.89,45.89,0,0,1-13.08,4.87A23.59,23.59,0,0,1,17,48.6a.63.63,0,0,0-.85.85c.15.33-.18,1.4-.18,1.87a10.64,10.64,0,0,0,2.68,7.17l.61-1a27.24,27.24,0,0,1-11-6.82,33.16,33.16,0,0,1-4.34-5.05,17.11,17.11,0,0,1-2.66-5.14l-.16.61a66.64,66.64,0,0,0,5.7-8c1.29-2.26,2.44-4.61,3.58-7C12,22.77,13.56,19.39,15.08,16c.33-.72-.75-1.36-1.08-.63-2.24,5-4.56,10.06-7.12,14.94C6.21,31.54,5.54,32.81,4.76,34s-1.48,2.16-2.27,3.21c-.5.67-1,1.32-1.53,2C.67,39.55.12,40,0,40.44s.35,1.32.57,1.84a23.18,23.18,0,0,0,1.62,3,33,33,0,0,0,4.18,5.25c3.44,3.55,7.72,6.72,12.53,8.09a.63.63,0,0,0,.61-1,9.42,9.42,0,0,1-2.22-4.83,8.94,8.94,0,0,1,0-2.53,2.11,2.11,0,0,0-.07-1.43l-.86.85a24.91,24.91,0,0,0,14.22,2.21c5-.73,9.73-2.82,14.21-5.13a.63.63,0,0,0-.15-1.14l-1.77-.46L43,46.3c5.7-2.94,10.46-7.81,12-14.17,1.72-7-.29-14.31-3.52-20.58a103.86,103.86,0,0,0-6.86-11c-.38-.55-1.38-.23-1.14.48,1.8,5.47-2.5,10.09-6,13.66l1,.61a17.7,17.7,0,0,0-2.4-11.7.64.64,0,0,0-1-.13A8.57,8.57,0,0,0,34,5.88a21.31,21.31,0,0,1-1.84,3.21,30.35,30.35,0,0,1-5.25,5.67,27.13,27.13,0,0,1-6.42,4.53c-1.3.58-2.83.9-4-.09a3.69,3.69,0,0,1-1.35-3.38C15.3,15,14.1,14.7,13.94,15.49Z" transform="translate(0 -0.29)"/>
        <g data-name="color">
          <path d="M23.61,18.15c5-3.6,9.81-8.08,11.73-14L35.57,4A16.59,16.59,0,0,1,37.9,15.16a29.3,29.3,0,0,0,5.22-6.34,9.82,9.82,0,0,0,1-7.93c3.51,5.13,7,10.32,9.14,16.17s2.62,12.5.07,18.16A22.65,22.65,0,0,1,42.7,45.77l1.77.45A48.76,48.76,0,0,1,32.24,51a20.74,20.74,0,0,0,3.44-6.53,20.18,20.18,0,0,1-9.43-.38,34.63,34.63,0,0,0,8.09-12,16,16,0,0,0,1.39-7.82,47.19,47.19,0,0,1-14.2,5.55c3.65-4,7.7-7.91,9.07-13.14C28.63,17.19,25.35,17.07,23.61,18.15Z" transform="translate(0 -0.29)"/>
          <path d="M23.93,18.69A42.74,42.74,0,0,0,31.47,12a24.81,24.81,0,0,0,2.82-3.94,20.48,20.48,0,0,0,1-2.1A5.83,5.83,0,0,1,36,4.39l-1-.13A16.24,16.24,0,0,1,37.3,15c-.08.58.56,1.1,1.05.61,3.87-3.89,8.32-8.94,6.37-14.87l-1.15.48c5,7.27,10.27,15,10.8,24.13a20,20,0,0,1-3,12.13,23.42,23.42,0,0,1-9,7.76.63.63,0,0,0,.15,1.14l1.77.46-.15-1.15a49.75,49.75,0,0,1-12.08,4.68l.61,1a20.38,20.38,0,0,0,3.59-6.8c.18-.49-.34-.85-.77-.77a20.14,20.14,0,0,1-9.1-.39l.28,1.05a35.84,35.84,0,0,0,6.8-9.1c1.78-3.41,3.26-7.25,2.87-11.16a.63.63,0,0,0-.94-.54,47.5,47.5,0,0,1-14.06,5.48l.61,1c3.7-4,7.74-8,9.23-13.41a.63.63,0,0,0-.76-.77c-2.36.6-5,.35-7.14,1.57-.71.39-.08,1.47.63,1.08,2-1.15,4.61-.88,6.84-1.45L30,16.47c-1.44,5.2-5.37,9-8.92,12.87a.63.63,0,0,0,.61,1,48.9,48.9,0,0,0,14.36-5.61l-.94-.54c.38,3.83-1.11,7.58-2.89,10.9A34.5,34.5,0,0,1,25.8,43.6a.64.64,0,0,0,.28,1,21.94,21.94,0,0,0,9.77.39l-.77-.77a18.82,18.82,0,0,1-3.28,6.25.63.63,0,0,0,.61,1,50.87,50.87,0,0,0,12.38-4.81.63.63,0,0,0-.15-1.14l-1.77-.46L43,46.31c5.7-2.94,10.46-7.81,12-14.17,1.71-7-.29-14.31-3.53-20.58a103.86,103.86,0,0,0-6.86-11c-.37-.55-1.37-.23-1.14.48,1.81,5.47-2.5,10.09-6,13.66l1,.61a17.64,17.64,0,0,0-2.4-11.7.63.63,0,0,0-1-.13c-.79.85-1,2.24-1.55,3.26A22.45,22.45,0,0,1,30.72,11a41.32,41.32,0,0,1-7.42,6.62C22.65,18.08,23.27,19.16,23.93,18.69Z" transform="translate(0 -0.29)"/>
        </g>
      </g>
    </g>
  </g>
</svg>