<svg xmlns="http://www.w3.org/2000/svg" viewBox="0 0 251.74 328.49"><defs><style>.cls-1{fill:#fff;}</style></defs><g id="Layer_2" data-name="Layer 2"><g id="Слой_86" data-name="Слой 86"><g id="Layer_88" data-name="Layer 88"><path class="cls-1" d="M185.71,107.59c2.94,5.43,8.32,8.66,13.72,11.67a57.83,57.83,0,0,0,17.5,5.92c6.25,1.17,12.79,1.69,18.91-.05l-.22.31a87.09,87.09,0,0,1-9.11,5.79c-4.84,2.81-10.74,6-16.33,5.69,7.25,3.58,16.25,6.58,19.37,15.35l-.08.07c-3.35,0-6.71,0-10.06.16A64.56,64.56,0,0,1,236,165.62c4.09,4.78,8.93,9.49,15.1,10.72l0,0c-6.71,2.2-13.71,4.2-21.24,4.53,2.47,3.64,3.82,8.63,5.5,12.69a78.72,78.72,0,0,0,5.47,10.25c1.19,2,2.56,4.11,4.75,4.84a34.37,34.37,0,0,1-10.75-.57v.38a206.07,206.07,0,0,1,1.21,47.67,45.91,45.91,0,0,0-.54,7.4v.19a38.44,38.44,0,0,1-.57,6.87l-4.39,9.65-5,9.16a87.26,87.26,0,0,1-38.71,31.47l-.26.11c-9.78,5-21,6-31.94,7-20.92.83-39.23-5.49-54.18-18.06a106.76,106.76,0,0,1-11.61-12c-.8-1.17-2.18-3-3-4.18l-6.19-9.92C75.65,279.72,69,273.85,64,270.89c-3.87-2.3-8-4.22-12-6.14l-11.68-5.49A32.66,32.66,0,0,0,36,257.5c-4.07-1.25-8.44-.86-12.68-.46l-10.77,1-.2.09a8.14,8.14,0,0,1-6-3,17.81,17.81,0,0,1-3.21-6.05A46.45,46.45,0,0,1,.8,229.91h0c3.31-2.75,8.36-3.4,12.61-4,11.88-1.78,23.4-4.84,35.14-2.28l-.1,0L36.66,210.38c-1.11-1.23-2.21-2.47-3.37-3.65a104.34,104.34,0,0,0-7.94-7l-12.08-10c-1.82-1.52-4-3.53-6-4.87a7.57,7.57,0,0,1-2.42-6.62,20.87,20.87,0,0,1,2.3-6.94,43.52,43.52,0,0,1,6.43-10.55c2.76-3.09,6.47-5.5,10.59-5.91h.41c12.25,5.75,18.4,20.82,29.9,28l.3.16c-.69-4.07-1.17-8.27.15-12.14l0-.22-7.18-.35-.13-.39c-.94-3.13-2-7.14-2.62-10.35q-6.73-13-13.46-26c-1.9-3.67-3.25-6.93-5.56-10.35-1.4-3.09-3-6.63-4.09-9.85A48.22,48.22,0,0,1,19.3,101l.13.7a88.25,88.25,0,0,1-.91-24.07,81.46,81.46,0,0,1,8-28.89l.27-.47A82.37,82.37,0,0,1,53.69,17.91s11.54-7.4,15.85-9.46C73.54,6.53,86.62,2,86.62,2c18.24,1.58,37-4.19,54.7.62l.49.12c11.92,3.32,22.32,11,30.88,19.93,1.79,1.87,3.08,4.14,5,6.07l-.87-.95c6.56,6.74,8.47,16.79,10.5,25.82l0-.71a154.75,154.75,0,0,1,.56,32.7c-.85,9.58-2.6,19.13-2.28,28.75"/><path class="cls-1" d="M185.17,107.9a25.71,25.71,0,0,0,8.64,8.74,58.48,58.48,0,0,0,12.58,6.41c9.16,3.26,20.06,5.28,29.61,2.68l-.7-.92a9.37,9.37,0,0,1-2.44,1.82c-1,.67-2,1.31-3,1.93-2,1.21-4,2.39-6,3.51-4.18,2.29-8.73,4.38-13.6,4.22a.63.63,0,0,0-.31,1.17c4.61,2.26,9.54,4.14,13.56,7.42a17.91,17.91,0,0,1,4.85,6c.17.34.31,1.15.53,1s-.82-.14-.91-.14h-2.83c-1.89,0-3.78.08-5.66.15a.63.63,0,0,0-.32,1.17,59.62,59.62,0,0,1,16.17,12.68c4.32,4.9,9,9.78,15.68,11.22a.65.65,0,0,0,.61-.16l0,0c.39-.44,0-1.25-.61-1.05-6.86,2.25-13.82,4.15-21.07,4.51a.64.64,0,0,0-.54.94c3.17,4.82,4.33,10.63,6.9,15.75,1.37,2.74,2.93,5.41,4.56,8a9.77,9.77,0,0,0,4.63,4.33l.17-1.23a33.27,33.27,0,0,1-10.58-.54.64.64,0,0,0-.8.6,48.35,48.35,0,0,0,.65,5.49c.25,2.22.47,4.45.66,6.67q.55,6.48.71,13a184.14,184.14,0,0,1-1.06,25c-.51,4.53.39,9.55-1.54,13.77-1.24,2.73-2.38,5.53-3.75,8.2-1.52,3-3.08,6-4.76,8.83a55,55,0,0,1-5.65,7.44,88.36,88.36,0,0,1-7.23,7.51,87,87,0,0,1-17.2,12.36,83.48,83.48,0,0,1-20.45,8.3c-14.45,3.42-30,4-44.43.16a76.31,76.31,0,0,1-36.46-22.35,79.41,79.41,0,0,1-9-11.78c-1.85-3-3.43-6.21-6-8.63-4.9-4.67-10.13-9.2-16.06-12.52-7.29-4.09-15.06-7.44-22.64-11A24.27,24.27,0,0,0,29.45,256c-4.15,0-8.31.6-12.44,1a49.25,49.25,0,0,1-5.12.49c-2.1,0-4.09-1.57-5.34-3.12-2.44-3-3.52-7.26-4.31-11a44.48,44.48,0,0,1-.87-6.17c-.08-1-.11-2-.12-3.05s-.25-2.76.12-3.65c.56-1.32,3.13-2.07,4.33-2.46a36.09,36.09,0,0,1,5.45-1.22c8.11-1.3,16.27-3.06,24.49-3.51a48.17,48.17,0,0,1,12.74.87.63.63,0,0,0,.34-1.21c-.26-.07-.9-1.06-1.09-1.28l-1.27-1.41-2.52-2.83-5.48-6.12a103.49,103.49,0,0,0-10.53-10.41c-3.88-3.26-7.8-6.48-11.7-9.72-1.79-1.49-3.57-3-5.36-4.51s-4.09-2.7-4.89-5.05c-1.52-4.47,1.34-9.3,3.33-13.16,2.19-4.24,4.91-8.41,9.05-11,1.59-1,4-2.28,5.93-2.12,1.55.12,3.47,1.77,4.7,2.67a51.85,51.85,0,0,1,8.38,8.11c2.76,3.17,5.35,6.49,8.2,9.58,2.59,2.81,5.57,5.92,9,7.67a.63.63,0,0,0,.91-.71,39,39,0,0,1-.65-6.56,28.72,28.72,0,0,1,.84-5.46.63.63,0,0,0-.6-.79l-7.18-.36.6.46c-.82-2.52-1.48-5.1-2.09-7.68a16.84,16.84,0,0,0-1-3.79c-.69-1.35-1.4-2.69-2.1-4l-9.42-18.18c-1.45-2.8-2.84-5.63-4.27-8.44s-3-5.23-4.25-8c-2.65-6-4.81-12.24-5.33-18.84l-1.23.17.12.7c.14.79,1.35.45,1.21-.34-3-17.53-1.09-37,7.28-52.94A82.09,82.09,0,0,1,55.88,17.26c4.39-2.78,8.8-5.66,13.44-8s9.53-3.86,14.31-5.57l2.44-.87a7.17,7.17,0,0,1,3-.06,116.06,116.06,0,0,0,13.32-.19c9.24-.58,18.5-1.75,27.77-1.15a56,56,0,0,1,26.49,8.66,78.76,78.76,0,0,1,11,8.47c1.72,1.58,3.45,3.2,5,4.94s2.92,3.89,4.61,5.66c.56.58,1.43-.29.88-.88l-.87-1-.88.88c6.55,6.88,8.34,16.6,10.33,25.55a.63.63,0,0,0,1.23-.17l0-.71h-1.25a156.75,156.75,0,0,1,.72,30.78c-.78,10.23-2.73,20.37-2.43,30.67a.63.63,0,0,0,1.25,0c-.3-10.3,1.65-20.44,2.43-30.67a156,156,0,0,0-.72-30.78c-.09-.78-1.27-.83-1.25,0l0,.71,1.23-.17c-2-9.17-3.94-19-10.66-26.09-.56-.59-1.43.29-.88.88l.87.95.88-.88c-1.56-1.64-2.78-3.53-4.25-5.25a60.36,60.36,0,0,0-4.57-4.62,83.51,83.51,0,0,0-9.8-7.91,57.77,57.77,0,0,0-22.11-9.43C128-.68,118.45.09,109,.82c-4.65.36-9.3.72-14,.78-2.42,0-4.84,0-7.25-.18a4.37,4.37,0,0,0-2.08.18C80.88,3.32,76,5,71.26,7S62,12,57.54,14.74A86,86,0,0,0,28.82,43.32c-10.44,17.38-13.43,38.73-10,58.57l1.21-.34-.12-.69a.63.63,0,0,0-1.23.16,56.26,56.26,0,0,0,4.66,17.53c.62,1.45,1.21,2.94,1.92,4.36s1.63,2.69,2.38,4.07c1.46,2.71,2.75,5.51,4.16,8.24q4.73,9.09,9.43,18.18L43.62,158a18.62,18.62,0,0,1,1.49,4.64c.61,2.58,1.27,5.17,2.1,7.68a.62.62,0,0,0,.6.46l7.18.36-.6-.79a29.69,29.69,0,0,0-.89,5.79,40,40,0,0,0,.7,6.9l.92-.71c-3.5-1.78-6.48-5-9.08-7.82-2.83-3.11-5.42-6.42-8.19-9.58a50.92,50.92,0,0,0-8.7-8.22c-1.24-.89-3-2.36-4.55-2.58-1.72-.26-3.89.7-5.39,1.43-4.18,2-7.26,5.65-9.59,9.57a72.28,72.28,0,0,0-3.47,6.79,18.83,18.83,0,0,0-1.92,6.46,8.8,8.8,0,0,0,1.3,5.37c1.2,1.82,3.38,3,5,4.38,4.11,3.5,8.28,6.92,12.44,10.37a122.64,122.64,0,0,1,13.44,12.54l6.32,7.06,3.16,3.53c.66.74,1.52,2.27,2.48,2.55l.34-1.21c-8.29-1.74-16.66-.84-24.93.53-4.16.68-8.31,1.39-12.48,2-3.31.52-6.79,1.15-9.66,3A4.42,4.42,0,0,0,.26,229.6,6.2,6.2,0,0,0,0,232a47.14,47.14,0,0,0,2.9,18.25c1.15,3,2.86,6,5.83,7.57,3.12,1.61,6.83.54,10.15.23,4.27-.41,8.65-1.09,13-.73,4.61.38,8.65,2.7,12.76,4.64,7.46,3.5,15.39,6.65,22.13,11.46a97.66,97.66,0,0,1,8.78,7.2,22.76,22.76,0,0,1,4.36,4.52c1.83,2.94,3.61,5.93,5.51,8.84a79.54,79.54,0,0,0,32.84,27.76c13.53,6.09,28.16,7.69,42.82,6.16,7.74-.8,15.55-2,22.77-5a106.88,106.88,0,0,0,19-9.95c10-6.79,19.29-15.76,25.06-26.47,1.37-2.54,2.8-5,4-7.67l2.64-5.81a14,14,0,0,0,1.35-4.59c.39-2.88.17-5.76.42-8.65.36-4.22.85-8.41,1.05-12.65a203.74,203.74,0,0,0-.51-26.61q-.29-3.35-.66-6.67a54.12,54.12,0,0,1-.68-5.81l-.79.61a34.55,34.55,0,0,0,10.92.58.63.63,0,0,0,.17-1.23c-2.46-.94-3.73-3.46-5-5.59a83.94,83.94,0,0,1-4.23-7.8c-2.13-4.66-3.26-9.78-6.11-14.1l-.54.94c7.36-.36,14.44-2.27,21.41-4.55l-.61-1.05c.23-.25-1.62-.71-1.93-.82a19.58,19.58,0,0,1-2.42-1.11,25.84,25.84,0,0,1-4.36-3,91.39,91.39,0,0,1-6.82-7.1A62.6,62.6,0,0,0,219.72,152l-.31,1.16c2.09-.08,4.19-.14,6.29-.16h2.83c.55,0,1,.14,1.46-.24a.63.63,0,0,0,.16-.61c-3.24-8.73-11.94-11.94-19.65-15.73l-.32,1.16c5,.16,9.68-1.92,14-4.26,2.3-1.25,4.57-2.58,6.8-3.95,1.75-1.07,4.21-2.2,5.42-3.89.32-.46-.22-1-.71-.91-9.18,2.5-19.57.55-28.4-2.49a57.73,57.73,0,0,1-12-5.92c-3.64-2.3-6.93-5.05-9.05-8.85a.63.63,0,0,0-1.08.63Z"/></g></g></g></svg>