<svg xmlns="http://www.w3.org/2000/svg" viewBox="0 0 250.62 327.36"><defs><style>.cls-1{fill:#fff;}</style></defs><g id="Layer_2" data-name="Layer 2"><g id="основа"><g id="Обводка"><path class="cls-1" d="M185.06,113.69c-.32-9.62,1.42-19.17,2.27-28.76a154.77,154.77,0,0,0-.56-32.7l0,.72c-2-9-3.93-19.08-10.5-25.82l.88.95c-1.91-1.93-3.2-4.2-5-6.07-8.56-8.93-19-16.61-30.88-19.93L140.8,2c-17.66-4.82-36.46,1-54.7-.63a112.85,112.85,0,0,0-32.92,16c-4.87,3.46-10,7.17-15.36,13.51-6.61,7.84-14.23,22.29-16.67,30.36A83.08,83.08,0,0,0,18,77c-1.18,12.73,1.06,24,.91,24.07a3.42,3.42,0,0,1-.12-.7,76,76,0,0,0,2.64,12.24,61.74,61.74,0,0,0,4.09,9.85c1.77,3.51,3.48,6.18,5.56,10.35,7.25,14.52,12.43,22.54,13.46,26,.57,1.87.66,3,1.19,5.21,1.4,5.81,1.08,3.39,1.44,5.15,0,.13,0,.34.12.39,1.06.29,4.63-.21,7.07.35l.07.21c-1.26,3.74-.86,7.76-.22,11.69l-.23.3c-11.5-7.14-17.64-22.22-29.9-28h-.4c-4.12.4-7.84,2.82-10.59,5.9a43.58,43.58,0,0,0-6.43,10.56,20.87,20.87,0,0,0-2.3,6.94,7.57,7.57,0,0,0,2.41,6.62c2,1.34,4.16,3.35,6,4.87l12.08,10c2.72,2.26,5.45,4.53,7.93,7.05,1.16,1.18,2.27,2.41,3.37,3.65L47.6,222.57l.33.36c-11.74-2.56-23.26.5-35.14,2.28-4.26.64-9.31,1.29-12.62,4h0a46.62,46.62,0,0,0,2.39,19.22,17.81,17.81,0,0,0,3.21,6.05,8.12,8.12,0,0,0,6,3l.2-.08,10.78-1c4.24-.4,8.6-.79,12.67.46a32.79,32.79,0,0,1,4.25,1.76l11.67,5.49c4.08,1.92,8.17,3.84,12,6.14,5,3,11.66,8.83,15.78,12.9l0-.19,6.33,10.14c.79,1.16,2.17,3,3,4.18a106.76,106.76,0,0,0,11.61,12c15,12.57,33.26,18.89,54.18,18.06,10.93-1,22.16-2,31.94-7l.26-.11c9-3.83,26.19-12.74,38.71-31.47a83.18,83.18,0,0,0,9.34-18.8,66.67,66.67,0,0,0,.61-9v2a46.11,46.11,0,0,1,.5-7.42,206.63,206.63,0,0,0-1.22-47.67v-.38a34.42,34.42,0,0,0,10.76.56c-2.2-.72-3.56-2.85-4.75-4.83a79.44,79.44,0,0,1-5.48-10.25c-1.68-4.07-3-9.06-5.49-12.69,7.52-.33,14.52-2.33,21.23-4.54l0,0c-6.17-1.23-11-5.93-15.1-10.71a64.61,64.61,0,0,0-16.6-13.12q5-.21,10.06-.16l.08-.07c-3.12-8.77-12.12-11.77-19.36-15.36,5.58.29,11.49-2.87,16.33-5.68a88.1,88.1,0,0,0,9.1-5.8l.22-.3c-6.12,1.74-12.66,1.22-18.91,0a58.14,58.14,0,0,1-17.49-5.92c-5.41-3-10.78-6.24-13.73-11.68"/></g></g></g></svg>