<svg xmlns="http://www.w3.org/2000/svg" viewBox="0 0 255.54 332.3"><defs><style>.cls-1{fill:#fff;}</style></defs><g id="Layer_2" data-name="Layer 2"><g id="основа"><g id="Обводка"><path class="cls-1" d="M187.57,116.17c-.32-9.62,1.42-19.17,2.27-28.75a154.75,154.75,0,0,0-.56-32.7l0,.71c-2-9-3.93-19.08-10.5-25.82l.88.95c-1.91-1.93-3.2-4.2-5-6.07-8.56-8.93-19-16.61-30.88-19.93l-.5-.12c-17.66-4.81-36.46,1-54.7-.62a112.34,112.34,0,0,0-32.92,16c-4.87,3.45-10,7.16-15.36,13.51C33.72,41.12,26.1,55.56,23.66,63.64a82.94,82.94,0,0,0-3.15,15.88c-1.18,12.72,1.06,24,.91,24.06a3.33,3.33,0,0,1-.12-.69,76.23,76.23,0,0,0,2.64,12.23A61,61,0,0,0,28,125c1.77,3.51,3.48,6.18,5.56,10.35,7.25,14.53,12.43,22.54,13.46,26,.56,1.86.66,3,1.19,5.21,1.4,5.81,1.08,3.38,1.44,5.14,0,.13,0,.35.12.39,1.06.29,4.63-.21,7.07.35l.07.22c-1.26,3.73-.86,7.76-.22,11.68l-.23.31c-11.5-7.15-17.64-22.22-29.9-28h-.4a16.86,16.86,0,0,0-10.59,5.91,43.52,43.52,0,0,0-6.43,10.55A21,21,0,0,0,6.87,180a7.55,7.55,0,0,0,2.41,6.62c2,1.34,4.16,3.35,6,4.87l12.08,10c2.72,2.26,5.45,4.53,7.93,7.05,1.16,1.18,2.27,2.42,3.37,3.65l11.46,12.81.33.37c-11.74-2.57-23.26.49-35.14,2.28-4.26.63-9.31,1.28-12.62,4h0A46.6,46.6,0,0,0,5.07,251,18,18,0,0,0,8.27,257a8.15,8.15,0,0,0,6,3l.2-.08,10.78-1c4.24-.41,8.6-.8,12.67.45a32.79,32.79,0,0,1,4.25,1.76l11.67,5.49c4.08,1.92,8.17,3.85,12,6.15,5,2.95,11.66,8.82,15.78,12.9l0-.2L88,295.57c.79,1.16,2.17,3,3,4.17a107.71,107.71,0,0,0,11.61,12c15,12.56,33.26,18.89,54.18,18,10.93-1,22.16-2,31.94-7l.26-.1c9-3.83,26.19-12.75,38.71-31.48a83,83,0,0,0,9.34-18.8,66.56,66.56,0,0,0,.61-9v2a46.24,46.24,0,0,1,.5-7.43,206.53,206.53,0,0,0-1.22-47.66v-.38a34.73,34.73,0,0,0,10.76.56c-2.2-.73-3.56-2.86-4.75-4.84a78.14,78.14,0,0,1-5.48-10.25c-1.68-4.06-3-9-5.49-12.69,7.52-.33,14.52-2.33,21.23-4.53l0,0c-6.17-1.23-11-5.93-15.1-10.71a64.44,64.44,0,0,0-16.6-13.13q5-.21,10.06-.15l.08-.07c-3.12-8.78-12.12-11.78-19.36-15.36,5.58.29,11.49-2.88,16.33-5.68a89.82,89.82,0,0,0,9.1-5.8l.22-.31c-6.12,1.74-12.66,1.22-18.91.05a57.59,57.59,0,0,1-17.49-5.92c-5.41-3-10.78-6.24-13.73-11.67"/><path class="cls-1" d="M190.07,116.17c-.3-10.3,1.65-20.44,2.43-30.67a156,156,0,0,0-.72-30.78,2.57,2.57,0,0,0-2.5-2.5,2.53,2.53,0,0,0-2.5,2.5l0,.71,4.91-.66c-2.13-9.53-4.17-19.61-11.14-26.93-2.23-2.33-5.71,1.18-3.53,3.54l.87.95,3.54-3.54c-1.5-1.56-2.7-3.37-4.08-5a52.44,52.44,0,0,0-4.55-4.64A86.68,86.68,0,0,0,162.88,11a59.88,59.88,0,0,0-21.82-9.7C132-.56,122.65-.08,113.45.62c-4.65.35-9.3.75-14,.91-2.22.08-4.44.1-6.66,0-1.2,0-2.41-.17-3.62-.19a10.62,10.62,0,0,0-3.62.77A118.08,118.08,0,0,0,47,23.18,71.23,71.23,0,0,0,31.8,41a108.34,108.34,0,0,0-9.75,19.58A77.07,77.07,0,0,0,17.73,83.9a99.35,99.35,0,0,0,.47,13.69q.24,2.34.57,4.68c.05.41.11.83.17,1.24-.11-.83,0-.13,0,.06l.34-1.26h0l4.57.6c-.06-.18-.08-.69,0,0l-4.91.66c.6,2,.67,4.34,1.12,6.42a62.57,62.57,0,0,0,3.48,11.14,95.64,95.64,0,0,0,4.8,9.61c2,3.55,3.79,7.2,5.66,10.81,2.74,5.29,5.66,10.47,8.46,15.72.44.82.87,1.64,1.28,2.47.17.34.32.68.49,1,.06.12.11.25.17.37-.26-.6,0,.13.09.25.9,2.66,1.27,5.48,2,8.2a14.22,14.22,0,0,0,.79,2.36c.22.48-.18-.42-.12-.29s.21.87.09.24c.76,4.17,6,2.32,9,2.92l-1.75-1.75.07.22v-1.33c-1.35,4.27-.92,8.67-.22,13l.25-1.93-.23.3,3.42-.89c-6.88-4.35-11.58-11.3-16.88-17.31a51,51,0,0,0-9.14-8.42c-1.46-1-3.51-2.58-5.34-2.58a14.88,14.88,0,0,0-6.59,1.92c-4.31,2.24-7.53,6.13-9.94,10.26s-5.19,9.07-5.51,13.95a10.56,10.56,0,0,0,1.56,6.32c1.3,2,3.52,3.24,5.3,4.76,4.11,3.5,8.28,6.92,12.44,10.37a119,119,0,0,1,13,12.07q6,6.69,12,13.41L51.1,223c-11.5-2.42-22.9.09-34.28,1.93-4.67.76-9.64,1.13-13.82,3.55-1,.58-2.38,1.38-2.73,2.58A17.33,17.33,0,0,0,0,235.39a50.93,50.93,0,0,0,.7,8.55c.83,5,2.28,10.66,5.63,14.63a10.83,10.83,0,0,0,6,3.7c2.3.45,4.85-.14,7.15-.36,5.52-.53,11.68-1.81,17.13-.34a45.6,45.6,0,0,1,7.45,3.18l8.17,3.85c5.35,2.51,10.8,5,15.62,8.45a103.47,103.47,0,0,1,12,10.33c1.87,1.85,4.64-.06,4.18-2.43l0-.2-4.57,1.93L85,295.63a79.55,79.55,0,0,0,12.19,14.65,78.06,78.06,0,0,0,39.64,20.55,84.62,84.62,0,0,0,23.88,1.07c8.42-.8,17-1.87,24.9-5A102.45,102.45,0,0,0,215,309.3a84.56,84.56,0,0,0,16.93-20.24A87.15,87.15,0,0,0,238,276.72a22.34,22.34,0,0,0,1.65-6,68.58,68.58,0,0,0,.41-7.31h-5v2h5c-.15-4.39.67-8.82.95-13.2.31-4.75.43-9.52.39-14.29s-.25-9.5-.62-14.24q-.27-3.5-.65-7a64.82,64.82,0,0,1-.79-6.76l-3.16,2.41a36.21,36.21,0,0,0,11.42.65,2.51,2.51,0,0,0,.66-4.91c-1.86-.72-2.94-3.16-3.88-4.74a79.39,79.39,0,0,1-4.24-7.8c-2.13-4.66-3.25-9.76-6.1-14.09l-2.16,3.76c7.53-.37,14.77-2.29,21.9-4.62l-2.43-4.18,0,0,2.43-.64C247,174.33,243,169,238.49,164.3a64.32,64.32,0,0,0-15.82-12.1l-1.27,4.66c2.1-.08,4.19-.14,6.29-.16,1.79,0,4.19.49,5.62-.8a2.44,2.44,0,0,0,.64-2.43c-3.45-9.31-12.25-12.79-20.51-16.85l-1.26,4.66c5.31.17,10.34-2,14.92-4.52,2.3-1.25,4.57-2.58,6.8-3.95,2-1.26,4.68-2.58,6.09-4.56s-.85-4.21-2.82-3.67c-8.86,2.41-18.89.44-27.41-2.49a55.52,55.52,0,0,1-11.52-5.73,23.54,23.54,0,0,1-8.38-8.18c-1.57-2.8-5.89-.28-4.32,2.53a28,28,0,0,0,9.32,9.41,60.68,60.68,0,0,0,13,6.6c9.47,3.38,20.74,5.37,30.61,2.68l-2.83-3.67c-.2.28-.14.21.2-.23l-.48.35c-.52.28-1,.7-1.48,1-1,.66-2,1.3-3,1.92-2,1.21-4,2.39-6,3.51-3.9,2.13-8.12,4.11-12.65,4-2.41-.08-3.51,3.55-1.26,4.66,6.75,3.31,15.35,6.15,18.21,13.86l.64-2.43-.07.07,1.76-.73c-3.35,0-6.7,0-10.06.15-2.37.09-3.53,3.42-1.26,4.66a58.06,58.06,0,0,1,15.78,12.38c4.54,5.14,9.57,10.21,16.51,11.71a2.52,2.52,0,0,0,2.44-.65l0,0c1.55-1.75.09-5-2.43-4.17-6.7,2.19-13.5,4.09-20.57,4.44-1.79.09-3.26,2.09-2.16,3.76,3.17,4.81,4.33,10.63,6.9,15.75,1.37,2.73,2.93,5.4,4.56,8a11.8,11.8,0,0,0,5.75,5.19l.67-4.91a31.94,31.94,0,0,1-10.09-.48,2.55,2.55,0,0,0-3.17,2.42,61.07,61.07,0,0,0,.75,6.44q.4,3.65.69,7.3.55,7.11.62,14.24c0,4.77-.08,9.54-.39,14.29-.28,4.38-1.1,8.81-.95,13.2.11,3.2,5,3.23,5,0v-2c0-3.21-5-3.22-5,0,0,1.9-.08,3.8-.25,5.69a18.38,18.38,0,0,1-1.27,5.37,78.23,78.23,0,0,1-4.87,10.26A79.74,79.74,0,0,1,214.54,303a84.91,84.91,0,0,1-14.75,11.33q-3.24,2-6.63,3.68-1.38.7-2.79,1.35l-1.29.58c-.25.12-1.5.65-1,.43a77,77,0,0,1-10.6,3.92,89.1,89.1,0,0,1-11.57,2.1,95.2,95.2,0,0,1-23.25.37A73.85,73.85,0,0,1,104.3,310,72.09,72.09,0,0,1,89.67,293.6l-5.89-9.44a2.51,2.51,0,0,0-4.57,1.92l0,.2,4.17-2.43a103.86,103.86,0,0,0-14.19-12c-6-4.07-12.86-6.87-19.39-9.95-3.36-1.58-6.69-3.35-10.18-4.65a26.6,26.6,0,0,0-11.07-1.21c-3.77.25-7.52.68-11.27,1a21,21,0,0,1-3.85.29,6.39,6.39,0,0,1-3.7-2.49c-2.24-2.89-3.19-7-3.9-10.51a45.25,45.25,0,0,1-.69-12.67l-.73,1.76c2.5-2,6-2.53,9.08-3,3.92-.64,7.83-1.26,11.75-1.92,8.08-1.36,16.37-2.44,24.49-.73a2.52,2.52,0,0,0,2.43-4.18c-4.2-4.7-8.39-9.42-12.61-14.1s-9.2-8.72-14.1-12.78-9.68-8-14.52-12c-4.26-3.5.46-10.93,2.38-14.48,2.57-4.78,7.09-11.18,13.24-11.18l-1.26-.34c6.2,3,10.7,8.24,15,13.43,4.46,5.34,8.92,10.77,14.87,14.53a2.56,2.56,0,0,0,3.42-.89c.82-1.09.47-2.18.3-3.41a31.77,31.77,0,0,1-.33-3.78,16.4,16.4,0,0,1,.27-3.7c.23-1.1.76-2.11.39-3.25A2.48,2.48,0,0,0,57.54,170a20.77,20.77,0,0,0-4.24-.37l-1.8,0h-.75c-.11,0-.75-.1-.28,0L52,170.78l-.11-.16.34,1.26a6.4,6.4,0,0,0-.28-1.62c-.09-.25-.21-.5-.32-.74-.18-.41.12.7.08.17a16.32,16.32,0,0,0-.62-2.25c-.42-1.65-.75-3.31-1.11-5-.74-3.35-2.44-6.33-4.07-9.32-2.75-5-5.52-10.07-8.15-15.18-3.08-6-6.59-11.86-9.34-18a58,58,0,0,1-3.55-11.28c-.45-2.09-.52-4.39-1.12-6.43-.76-2.6-5.14-2.24-4.91.67a5.83,5.83,0,0,0,.21,1.36c.66,1.94,3.48,2.58,4.57.59a3.63,3.63,0,0,0,.2-2.51c-.16-1.13-.18-1.29-.33-2.5-.4-3.34-.66-6.7-.75-10.06a79.77,79.77,0,0,1,2.12-20.83,79.54,79.54,0,0,1,7.77-19.31A79.85,79.85,0,0,1,45,31.87,87.9,87.9,0,0,1,61,19.18,108.3,108.3,0,0,1,79.77,9.53q3-1.17,6-2.19a17.9,17.9,0,0,1,2.91-.93,20.12,20.12,0,0,1,3.55.13,129.71,129.71,0,0,0,13.94-.37c8.82-.61,17.68-1.63,26.54-1a53.93,53.93,0,0,1,24.95,8.36,76.24,76.24,0,0,1,10.83,8.36c1.65,1.52,3.31,3.08,4.81,4.76s2.92,3.89,4.61,5.66c2.24,2.33,5.71-1.18,3.54-3.54l-.88-.95L177,31.38c6.3,6.61,7.93,16.13,9.85,24.72.62,2.75,5,2.14,4.91-.67l0-.71h-5a156.75,156.75,0,0,1,.72,30.78c-.78,10.23-2.73,20.37-2.43,30.67.09,3.21,5.09,3.22,5,0Z"/></g></g></g></svg>