<svg xmlns="http://www.w3.org/2000/svg" viewBox="0 0 251.91 328.56"><defs><style>.cls-1{fill:#fff;}.cls-2{fill:#1d1d1b;}</style></defs><g id="Layer_2" data-name="Layer 2"><g id="основа"><g id="Обводка"><path class="cls-1" d="M185.74,114.31c-.32-9.62,1.42-19.17,2.28-28.75a155.42,155.42,0,0,0-.56-32.7v.71c-2-9-3.93-19.08-10.49-25.82l.87.95c-1.91-1.93-3.2-4.2-5-6.07C164.3,13.7,153.89,6,142,2.7l-.5-.12C123.82-2.23,105,3.54,86.78,2a112.57,112.57,0,0,0-32.92,16c-4.86,3.45-10,7.16-15.36,13.5C31.89,39.26,24.27,53.7,21.83,61.77a83.23,83.23,0,0,0-3.15,15.88c-1.18,12.73,1.06,24,.91,24.07a4.1,4.1,0,0,1-.12-.7,77.3,77.3,0,0,0,2.64,12.24,61.36,61.36,0,0,0,4.09,9.85c1.77,3.51,3.48,6.18,5.56,10.35C39,148,44.19,156,45.22,159.44c.57,1.86.66,3,1.19,5.2,1.4,5.81,1.08,3.39,1.44,5.15,0,.13,0,.34.12.39,1.07.29,4.63-.21,7.07.35l.08.22c-1.27,3.73-.87,7.75-.23,11.68l-.23.3c-11.49-7.14-17.64-22.21-29.9-28h-.4c-4.12.4-7.84,2.82-10.59,5.9a43.58,43.58,0,0,0-6.43,10.56A20.87,20.87,0,0,0,5,178.17a7.59,7.59,0,0,0,2.41,6.62c2,1.34,4.16,3.35,6,4.87l12.08,10c2.72,2.26,5.45,4.53,7.94,7,1.16,1.18,2.26,2.42,3.36,3.65l11.46,12.81.33.37c-11.74-2.57-23.26.49-35.14,2.27-4.26.64-9.31,1.29-12.61,4h0a46.45,46.45,0,0,0,2.38,19.22,17.71,17.71,0,0,0,3.21,6,8.12,8.12,0,0,0,6,3l.2-.08,10.78-1c4.24-.4,8.6-.79,12.67.46a32.79,32.79,0,0,1,4.25,1.76L52,264.71c4.08,1.92,8.16,3.85,12,6.14,5,3,11.66,8.83,15.78,12.91l0-.2,6.33,10.14c.79,1.17,2.17,3,3,4.18a106.76,106.76,0,0,0,11.61,12c15,12.57,33.26,18.9,54.18,18.06,10.93-1,22.16-2,31.94-7l.26-.1c9-3.84,26.19-12.75,38.71-31.48a82.15,82.15,0,0,0,9.34-18.8,66.56,66.56,0,0,0,.61-9v2a46.11,46.11,0,0,1,.5-7.42A206.63,206.63,0,0,0,235,208.42V208a34,34,0,0,0,10.75.56c-2.2-.72-3.56-2.85-4.75-4.83a78.79,78.79,0,0,1-5.48-10.25c-1.68-4.07-3-9.05-5.49-12.69,7.52-.33,14.52-2.33,21.24-4.53l0,0c-6.17-1.22-11-5.93-15.1-10.71a64.61,64.61,0,0,0-16.6-13.12c3.36-.14,6.71-.19,10.07-.16l.07-.07c-3.12-8.77-12.12-11.77-19.36-15.35,5.59.28,11.49-2.88,16.33-5.69a87,87,0,0,0,9.1-5.79l.22-.31c-6.11,1.74-12.65,1.22-18.91.05a57.87,57.87,0,0,1-17.49-5.92c-5.41-3-10.78-6.24-13.73-11.68"/><path class="cls-2" d="M186.36,114.31c-.29-10.3,1.66-20.44,2.44-30.67a156.74,156.74,0,0,0-.72-30.78c-.09-.78-1.27-.83-1.25,0l0,.71,1.23-.17c-2.05-9.17-3.94-19-10.66-26.09-.56-.59-1.43.29-.89.88l.88.95.88-.88c-1.5-1.57-2.69-3.37-4.07-5a54,54,0,0,0-4.56-4.64,84,84,0,0,0-9.55-7.8,58.63,58.63,0,0,0-21.38-9.5C129.81-.58,120.64,0,111.62.63c-4.65.36-9.3.76-14,.92-2.22.07-4.44.09-6.66,0-1.21,0-2.41-.13-3.61-.19a8.85,8.85,0,0,0-3.13.71A115.4,115.4,0,0,0,46.51,22.64,69.67,69.67,0,0,0,31.59,40.09,105.48,105.48,0,0,0,22,59.22,75.51,75.51,0,0,0,17.78,82a97.94,97.94,0,0,0,.47,13.7c.14,1.4.31,2.79.5,4.18.05.41.08.84.17,1.24s-.09.67.13.25l1.15.15a1.91,1.91,0,0,1-.1-.53l-1.23.17a16.28,16.28,0,0,1,.29,2c.29,1.86.64,3.7,1.07,5.53a61.29,61.29,0,0,0,4.07,11.93c1.67,3.6,3.68,7,5.56,10.51,2.12,4,4.08,8,6.2,12,2.59,4.86,5.5,9.61,7.82,14.61a35.72,35.72,0,0,1,1.93,7.07c.33,1.41,1,3.38,1.29,4.53.23.79.16,1.3,1.09,1.51,1.58.34,3.38,0,5,.06.22,0,1.57.39,1.3-.11a10.44,10.44,0,0,1-.48,1.76,19.06,19.06,0,0,0-.34,3.37,27.9,27.9,0,0,0,.19,3.54c.07.63.63,2.48.27,2.95l.86-.23c-7-4.45-11.85-11.44-17.27-17.59A48.24,48.24,0,0,0,29,156.47c-1.21-.83-2.9-2.21-4.39-2.32-1.85-.14-4,.82-5.64,1.66-4,2.1-7,5.71-9.27,9.58s-5,8.49-5.25,13a8.82,8.82,0,0,0,1.3,5.37c1.2,1.82,3.37,3,5,4.38,4.11,3.5,8.28,6.92,12.43,10.37a119.11,119.11,0,0,1,13,12.07l12,13.41.6-1.05c-11.14-2.34-22.26.16-33.28,1.94-4.49.72-9.36,1-13.37,3.35-.56.32-1.59.83-1.87,1.47-.42.95-.19,2.8-.19,3.82a48.28,48.28,0,0,0,.63,8.05c.77,4.65,2,10.11,5.14,13.8a9.2,9.2,0,0,0,5.22,3.22c2.12.39,4.53-.23,6.66-.43,5.71-.54,12-1.79,17.62-.27a48.61,48.61,0,0,1,7.9,3.37l8.17,3.84c5.35,2.52,10.8,5,15.62,8.46A106.05,106.05,0,0,1,79.39,284.2a.63.63,0,0,0,1-.61l0-.2-1.14.48,5.58,8.95a77.43,77.43,0,0,0,11.9,14.27,76.32,76.32,0,0,0,38.81,20.07,83.32,83.32,0,0,0,23.38,1c8.26-.79,16.65-1.86,24.4-5a99.75,99.75,0,0,0,28.53-17.07,82.61,82.61,0,0,0,22.52-31.76,20.46,20.46,0,0,0,1.59-5.51,68.58,68.58,0,0,0,.41-7.31h-1.25v2h1.25c-.16-4.39.67-8.81,1-13.19q.45-7.14.39-14.29c0-4.76-.26-9.51-.62-14.24q-.27-3.49-.66-7a64.17,64.17,0,0,1-.78-6.76l-.79.61a34.53,34.53,0,0,0,10.92.58A.63.63,0,0,0,246,208c-2.45-.94-3.73-3.46-5-5.59a84,84,0,0,1-4.24-7.8c-2.12-4.67-3.25-9.78-6.1-14.1l-.54.94c7.36-.36,14.43-2.27,21.4-4.55l-.61-1.05c.23-.26-1.62-.71-1.92-.82a19.71,19.71,0,0,1-2.43-1.11,25.76,25.76,0,0,1-4.35-3,91.39,91.39,0,0,1-6.82-7.1A62.6,62.6,0,0,0,219.89,152l-.32,1.16c2.1-.08,4.2-.14,6.29-.16h2.83c.56,0,1,.14,1.47-.24a.63.63,0,0,0,.16-.61c-3.24-8.73-11.95-12-19.66-15.73l-.31,1.16c5,.16,9.68-1.92,14-4.26,2.31-1.25,4.58-2.58,6.81-3.95,1.74-1.07,4.21-2.2,5.41-3.89.33-.46-.21-1-.7-.91-9.18,2.5-19.57.55-28.4-2.49a58,58,0,0,1-12-5.92c-3.64-2.3-6.93-5.05-9.06-8.85-.39-.7-1.47-.07-1.08.63a25.83,25.83,0,0,0,8.65,8.74,58.48,58.48,0,0,0,12.58,6.41c9.16,3.26,20.06,5.28,29.61,2.68l-.71-.92a9.32,9.32,0,0,1-2.43,1.82c-1,.67-2,1.31-3.05,1.93-2,1.21-4,2.39-6,3.5-4.17,2.3-8.72,4.39-13.59,4.23a.63.63,0,0,0-.32,1.17c4.61,2.26,9.55,4.14,13.57,7.42a17.87,17.87,0,0,1,4.85,6c.17.35.31,1.16.53,1s-.83-.14-.92-.14h-2.83c-1.88,0-3.77.08-5.66.15a.63.63,0,0,0-.31,1.17,59.73,59.73,0,0,1,16.16,12.67c4.33,4.91,9.05,9.79,15.68,11.23a.64.64,0,0,0,.61-.16l0,0c.39-.44,0-1.25-.61-1.05-6.86,2.25-13.83,4.15-21.07,4.51a.63.63,0,0,0-.54.94c3.17,4.82,4.33,10.63,6.9,15.75,1.37,2.74,2.93,5.41,4.56,8a9.72,9.72,0,0,0,4.63,4.33l.17-1.23a33.35,33.35,0,0,1-10.59-.54.64.64,0,0,0-.79.6,61.25,61.25,0,0,0,.75,6.45q.41,3.64.69,7.3c.36,4.73.58,9.48.62,14.24s-.09,9.53-.39,14.29c-.28,4.38-1.11,8.8-1,13.19a.63.63,0,0,0,1.25,0v-2a.63.63,0,0,0-1.25,0c0,3.95-.15,7.85-1.59,11.56A81.44,81.44,0,0,1,214,302.42a93.13,93.13,0,0,1-27.25,17.85,67.77,67.77,0,0,1-10.6,3.93,91.51,91.51,0,0,1-12.06,2.16,95.29,95.29,0,0,1-23.26.37,76,76,0,0,1-39.72-17.32,73.57,73.57,0,0,1-14.92-16.72l-5.89-9.45a.63.63,0,0,0-1.14.48l0,.2,1-.61C73.87,277,67,271.44,59,267.38c-4.88-2.47-9.87-4.72-14.82-7.05-4.49-2.12-8.67-4.21-13.73-4.33-5.39-.13-10.85.74-16.2,1.25a9.9,9.9,0,0,1-3.07.1,7.69,7.69,0,0,1-3.39-1.77,14.81,14.81,0,0,1-3.83-6.41,46,46,0,0,1-2.62-15.95c0-1.22-.21-2.7.82-3.52a11.58,11.58,0,0,1,3.39-1.6,38.12,38.12,0,0,1,6.42-1.41c12-1.85,24.36-5.09,36.5-2.53a.63.63,0,0,0,.61-1c-6.51-7.27-12.71-15.06-20.15-21.41-3.84-3.27-7.75-6.46-11.64-9.68q-2.73-2.27-5.45-4.57c-1.66-1.41-4.19-2.78-5.27-4.7-2.41-4.29.39-9.35,2.32-13.24,2.14-4.29,4.71-8.59,8.7-11.41A15,15,0,0,1,23,155.62a3,3,0,0,1,2.65.3,28,28,0,0,1,2.67,1.63,47,47,0,0,1,8.51,7.93c5.5,6.24,10.37,13.28,17.52,17.79a.63.63,0,0,0,.85-.22c.49-.65.23-1.16.11-2a33.88,33.88,0,0,1-.39-4.27,18.48,18.48,0,0,1,.34-4.2c.14-.7.62-1.54.39-2.25a.65.65,0,0,0-.44-.44,21.35,21.35,0,0,0-4.45-.29c-.61,0-1.23,0-1.84,0s-.37.23-.54-.34c-.2-.72-.48-1.38-.68-2.11-.75-2.75-1.06-5.68-2-8.37a30.27,30.27,0,0,0-1.84-4c-2.5-4.79-5.19-9.48-7.71-14.26-1.85-3.52-3.56-7.1-5.46-10.59-1.67-3.09-3.42-6.11-4.94-9.28a61.45,61.45,0,0,1-4.3-12.37q-.59-2.57-1-5.18a18.19,18.19,0,0,0-.35-2.33c-.19-.65-1.28-.56-1.22.16a3.67,3.67,0,0,0,.14.87.63.63,0,0,0,1.14.14,1.67,1.67,0,0,0,0-1.06c-.13-1-.27-2-.39-3-.41-3.34-.67-6.7-.75-10.06a81.84,81.84,0,0,1,2.18-21.33,81.73,81.73,0,0,1,8-19.76A82.48,82.48,0,0,1,41.8,28.68a90.53,90.53,0,0,1,16.44-13,110.39,110.39,0,0,1,19.2-9.84q3-1.17,6-2.19a23.42,23.42,0,0,1,2.91-.93,17.64,17.64,0,0,1,4,.06,127.17,127.17,0,0,0,13.94-.37c8.83-.61,17.69-1.63,26.54-1a56,56,0,0,1,25.9,8.62A77.66,77.66,0,0,1,168,18.73a67.36,67.36,0,0,1,4.81,4.75c1.63,1.82,2.93,3.89,4.62,5.66.56.58,1.43-.29.88-.88l-.87-1-.89.88c6.56,6.88,8.34,16.6,10.34,25.55a.63.63,0,0,0,1.23-.17l0-.71h-1.25a156.75,156.75,0,0,1,.72,30.78c-.78,10.23-2.73,20.37-2.44,30.67,0,.8,1.28.8,1.25,0Z"/></g></g></g></svg>