<svg xmlns="http://www.w3.org/2000/svg" viewBox="0 0 157.73 58.05"><defs><style>.cls-1{fill:#fff;}</style></defs><g id="Layer_2" data-name="Layer 2"><g id="baby-cat-ears-2-patterns"><g id="ears-2-pattern-3-mask"><path class="cls-1" d="M157.09.63a240.73,240.73,0,0,1-32.65,7.79l-1.15-.11c-.71,1-.33,2.48.13,3.66A38.73,38.73,0,0,0,135,27.81a75.54,75.54,0,0,0,6.3,4.48l4.44,2.94c2.43,1.61,4.87,3.23,7.41,4.66-.91-4.77-.72-11.45,2.37-15.2C151.19,18,152.74,7.33,157.09.63Z"/><path class="cls-1" d="M156.92,0c-5.8,1.81-11.67,3.42-17.59,4.79q-4.32,1-8.68,1.85c-2.37.46-4.94,1.25-7.36,1a.61.61,0,0,0-.54.31c-.83,1.49-.38,3,.22,4.53a39.94,39.94,0,0,0,2.41,5,39.66,39.66,0,0,0,6.81,8.71,66.16,66.16,0,0,0,9.55,7.17c3.64,2.41,7.25,4.9,11,7.06a.63.63,0,0,0,.92-.71c-.86-4.68-.9-10.67,2.21-14.59a.67.67,0,0,0,.1-.76c-4.32-7-2.61-16.79,1.61-23.42.44-.68-.64-1.31-1.07-.63-4.47,7-6.17,17.32-1.62,24.69l.1-.76c-3.43,4.32-3.49,10.62-2.54,15.81l.92-.71c-3.37-1.92-6.59-4.12-9.83-6.26a82.26,82.26,0,0,1-9.29-6.66,38.12,38.12,0,0,1-6.75-7.81,40.64,40.64,0,0,1-2.43-4.31c-.73-1.54-2.22-4-1.28-5.69l-.54.31c2.25.23,4.54-.45,6.75-.87,3.07-.58,6.12-1.23,9.16-1.92q9.12-2.1,18.05-4.9C158,1,157.69-.21,156.92,0Z"/><path class="cls-1" d="M34,16.3c-11.07,3.11-22.29,5.75-33,9.85l-.38.62A51.74,51.74,0,0,0,15.28,45.83a84,84,0,0,0,10.18,6.82c2.79,1.66,5.63,3.27,8.52,4.79-.15-3.4-.69-8.82,1.14-11.69-2.79-4-3.89-8.89-4-13.72S33.09,21.05,34,16.3Z"/><path class="cls-1" d="M33.81,15.7C28,17.31,22.24,18.81,16.48,20.45,13.64,21.25,10.81,22.1,8,23Q6,23.67,3.93,24.39c-1,.36-2.77.64-3.52,1.44A1.36,1.36,0,0,0,0,27.08a16.52,16.52,0,0,0,1.84,3.69,50.78,50.78,0,0,0,4,6.22A53.09,53.09,0,0,0,16.76,47.76,133.65,133.65,0,0,0,33.66,58a.63.63,0,0,0,.94-.54c-.17-3.61-.89-8.11,1.06-11.37a.64.64,0,0,0,0-.63,24,24,0,0,1-3.87-14.36c.18-5,1.86-9.76,2.79-14.61.15-.79-1-1.13-1.21-.34-1,5.08-2.75,10.12-2.84,15.33a25.21,25.21,0,0,0,4,14.61v-.63c-2.08,3.48-1.41,8.14-1.23,12l.94-.54c-7.09-3.76-14.43-7.75-20.46-13.11A51.78,51.78,0,0,1,1.11,26.45v.63a1.33,1.33,0,0,1,.46-.5,10,10,0,0,1,2-.74c1.42-.52,2.86-1,4.3-1.48,2.88-.94,5.78-1.81,8.69-2.64,5.84-1.67,11.72-3.18,17.56-4.82A.62.62,0,0,0,33.81,15.7Z"/></g></g></g></svg>