<svg xmlns="http://www.w3.org/2000/svg" viewBox="0 0 138.43 42.52"><defs><style>.cls-1{fill:#fff;}</style></defs><g id="Layer_2" data-name="Layer 2"><g id="baby-cat-ears-2-patterns"><g id="ears-2-pattern-2-mask"><path class="cls-1" d="M137.8.62c-4.43,1-8.9,1.87-13.38,2.62l-1.16-.12c-.71,1.06-.33,2.48.14,3.67a38.7,38.7,0,0,0,11.52,15.83A100.08,100.08,0,0,1,137.8.62Z"/><path class="cls-1" d="M137.64,0c-2.71.6-5.42,1.17-8.14,1.68-2,.39-4.16,1-6.24.79a.61.61,0,0,0-.53.31c-1,1.72-.2,3.57.5,5.23a38.94,38.94,0,0,0,3,5.65,39.71,39.71,0,0,0,8.29,9.39.63.63,0,0,0,1.06-.45A89.33,89.33,0,0,1,138.41.79.63.63,0,0,0,137.2.45a90.71,90.71,0,0,0-2.91,22.17l1.07-.44a38.36,38.36,0,0,1-7.5-8.23,38.76,38.76,0,0,1-2.7-4.67c-.75-1.56-2.33-4.13-1.36-5.84l-.54.3A21.78,21.78,0,0,0,129.41,3c2.86-.54,5.72-1.13,8.56-1.77C138.75,1.05,138.42-.16,137.64,0Z"/><path class="cls-1" d="M16.81,41.86c-.53-.4-1-.8-1.56-1.21A51.75,51.75,0,0,1,.55,21.58L.92,21c6.08-2.32,12.3-4.17,18.57-5.9a116.48,116.48,0,0,0-2.85,26.45c.57.91.2-1.46,0-1.87"/><path class="cls-1" d="M17.13,41.32a51.77,51.77,0,0,1-16-20v.63c.31-.51.32-.49.89-.67.75-.24,1.49-.55,2.23-.81q2.58-.92,5.18-1.74c3.4-1.08,6.83-2.07,10.27-3l-.77-.77a112.63,112.63,0,0,0-2.7,19.26c-.09,1.56-.15,3.13-.17,4.7,0,.82-.41,2.73.36,3.3,1.53,1.15,1.09-2.1.86-2.68-.29-.74-1.5-.41-1.2.34.12.3.46,1.3.3,1.58l.54-.31c.39.16.51,0,.38-.38v-.81c0-.56,0-1.11,0-1.67,0-1,0-2,.1-3q.16-3.4.53-6.81a107.47,107.47,0,0,1,2.18-13.2.62.62,0,0,0-.77-.76c-4.58,1.27-9.14,2.59-13.64,4.13-1,.35-2.1.72-3.14,1.1a5.15,5.15,0,0,0-2.19,1c-.95,1.1.28,2.54.82,3.6A53,53,0,0,0,16.49,42.4c.65.48,1.27-.61.64-1.08Z"/></g></g></g></svg>