<svg xmlns="http://www.w3.org/2000/svg" viewBox="0 0 131.95 26.62"><defs><style>.cls-1{fill:#fff;}</style></defs><g id="Layer_2" data-name="Layer 2"><g id="baby-cat-ears-2-patterns"><g id="ears-2-pattern-1-mask"><path class="cls-1" d="M129.52,5,127,2.85a4.52,4.52,0,0,0,2.73,3.2,6.8,6.8,0,0,0-4.18-4.5,7.78,7.78,0,0,0,4.63,4.39,6.18,6.18,0,0,0-4.07-5,.94.94,0,0,0-.7,0c-.43.24-.23.91,0,1.32A12.83,12.83,0,0,0,131,6.87,9.5,9.5,0,0,0,125.31.7a10.37,10.37,0,0,0,4.9,5.77c.59-.58.22-1.57-.25-2.24A10,10,0,0,0,125.21.64a14.14,14.14,0,0,0,5.15,6.07A5.05,5.05,0,0,0,128.1,2.8a.86.86,0,0,0-.46-.17.62.62,0,0,0-.53.7,1.64,1.64,0,0,0,.44.88,10.34,10.34,0,0,0,3,2.49,37.44,37.44,0,0,0-6.43,1.56,11.17,11.17,0,0,0,7.18-1.33,7.86,7.86,0,0,0-7.53,1.38,9.35,9.35,0,0,0,5.53-.88A11.31,11.31,0,0,0,122.13,9a10,10,0,0,0,7.45-1.37,9.91,9.91,0,0,0-7.17.76,11.5,11.5,0,0,0,7.54-1,7.45,7.45,0,0,0-7.46,1.23,9,9,0,0,0,7-1.28A6.85,6.85,0,0,0,124.45,9" transform="translate(-0.01)"/><path class="cls-1" d="M130,4.59l-2.52-2.18a.63.63,0,0,0-1,.61,5.22,5.22,0,0,0,3.16,3.63c.46.18.89-.35.77-.77A7.49,7.49,0,0,0,125.72,1a.63.63,0,0,0-.77.77A8.54,8.54,0,0,0,130,6.54c.51.17.83-.34.77-.77A6.81,6.81,0,0,0,126.64.51a1.59,1.59,0,0,0-1.76.07,1.4,1.4,0,0,0-.2,1.54,6.26,6.26,0,0,0,1.07,1.59,14.08,14.08,0,0,0,1.31,1.37,13.61,13.61,0,0,0,3.61,2.33.63.63,0,0,0,.92-.7A10.25,10.25,0,0,0,125.47.1a.63.63,0,0,0-.77.77A11.16,11.16,0,0,0,129.9,7a.65.65,0,0,0,.76-.1c1.2-1.35-.12-3.11-1.1-4.15A10.67,10.67,0,0,0,125.38,0c-.57-.21-.91.47-.71.92A14.9,14.9,0,0,0,130,7.25a.63.63,0,0,0,.94-.54,5.72,5.72,0,0,0-1.13-3.11c-.55-.72-1.71-2-2.73-1.46a1.32,1.32,0,0,0-.62,1.36A3.06,3.06,0,0,0,127.41,5a10.83,10.83,0,0,0,2.88,2.25l.15-1.15A39.51,39.51,0,0,0,124,7.65c-.52.18-.66,1.11,0,1.21a12,12,0,0,0,7.66-1.39.63.63,0,0,0-.15-1.14,8.52,8.52,0,0,0-8.13,1.54.62.62,0,0,0,.27,1,10.25,10.25,0,0,0,6-.94c.61-.31.23-1.11-.32-1.17a12,12,0,0,0-7.53,1.69A.63.63,0,0,0,122,9.63a10.7,10.7,0,0,0,7.92-1.43.63.63,0,0,0-.15-1.14,10.69,10.69,0,0,0-7.65.82A.63.63,0,0,0,122.24,9a12.34,12.34,0,0,0,8-1c.53-.26.31-1-.15-1.14a8.08,8.08,0,0,0-8.06,1.39.64.64,0,0,0,.28,1.05A9.75,9.75,0,0,0,129.84,8a.63.63,0,0,0-.31-1.16A7.58,7.58,0,0,0,124,8.55c-.62.51.27,1.39.89.88A6.34,6.34,0,0,1,129.53,8l-.32-1.16a8.51,8.51,0,0,1-6.55,1.22l.28,1.05a6.83,6.83,0,0,1,6.84-1.08l-.15-1.14a10.94,10.94,0,0,1-7,.88L122.72,9a9.36,9.36,0,0,1,6.69-.7l-.15-1.14a9.47,9.47,0,0,1-7,1.31l.15,1.14a10.86,10.86,0,0,1,6.9-1.52L129,6.89a8.84,8.84,0,0,1-5.06.82l.28,1a7.26,7.26,0,0,1,6.92-1.21L131,6.39a10.5,10.5,0,0,1-6.7,1.26V8.86a38.51,38.51,0,0,1,6.44-1.56c.54-.08.59-.9.15-1.14a9.84,9.84,0,0,1-2-1.4,10.07,10.07,0,0,1-.85-.88,1.5,1.5,0,0,1-.33-.46c0-.09,0-.2-.06-.18a9.15,9.15,0,0,1,.71.6,4.85,4.85,0,0,1,.67.84,4.46,4.46,0,0,1,.65,2l.94-.54A13.69,13.69,0,0,1,125.75.33l-.7.91a9.46,9.46,0,0,1,3.21,2,8.31,8.31,0,0,1,1.23,1.42c.22.34.61,1,.28,1.38l.76-.1A9.81,9.81,0,0,1,125.91.54l-.77.77A8.87,8.87,0,0,1,130.38,7l.92-.71a12.12,12.12,0,0,1-3.19-2A13,13,0,0,1,126.78,3a8.2,8.2,0,0,1-.58-.74c-.16-.22-.25-.48-.4-.69s.12-.05-.12,0a1.07,1.07,0,0,1,.39.1,4.56,4.56,0,0,1,.8.39,5.62,5.62,0,0,1,2.71,4.09l.77-.77a7.13,7.13,0,0,1-4.2-3.94l-.77.76a6.22,6.22,0,0,1,3.75,4.06l.77-.77a3.92,3.92,0,0,1-2.3-2.75l-1,.61,2.52,2.18c.61.52,1.49-.36.88-.89Z" transform="translate(-0.01)"/><path class="cls-1" d="M7,21.15a3.67,3.67,0,0,0,1,1.53A6.42,6.42,0,0,0,5.11,19,6.13,6.13,0,0,0,7.38,22.9a8.27,8.27,0,0,0-3.29-4.27,7.24,7.24,0,0,0,4.28,5.46A11.54,11.54,0,0,0,5,18.1c-.31-.29-.85-.55-1.1-.21a.74.74,0,0,0,0,.62,8.83,8.83,0,0,0,3.74,5.4,9.92,9.92,0,0,0-3.81-6.29A9.58,9.58,0,0,0,7.67,23.7a5.46,5.46,0,0,0-5,1.79A25.3,25.3,0,0,0,8.47,23.8a8.56,8.56,0,0,0-7.08,1.43,11.18,11.18,0,0,0,6.78-1.65A7.36,7.36,0,0,0,.63,25.74,12.37,12.37,0,0,0,8.44,23.5a10.8,10.8,0,0,0-3.72.17A4,4,0,0,0,2,26a8.64,8.64,0,0,0,5.59-2.37A16.55,16.55,0,0,0,.67,25.86a20.47,20.47,0,0,0,6.51-2.42" transform="translate(-0.01)"/><path class="cls-1" d="M6.35,21.32a4.56,4.56,0,0,0,1.2,1.8.63.63,0,0,0,1-.61,7.19,7.19,0,0,0-3.17-4.07.64.64,0,0,0-.92.71,6.78,6.78,0,0,0,2.43,4.19c.44.35,1.27,0,1.05-.61A9.06,9.06,0,0,0,4.4,18.09c-.5-.33-1,.22-.91.71a7.85,7.85,0,0,0,4.56,5.83A.64.64,0,0,0,9,23.92a12,12,0,0,0-3.44-6.21,1.78,1.78,0,0,0-1.44-.59,1.13,1.13,0,0,0-.83,1.43,8.64,8.64,0,0,0,1.29,3.12,9.62,9.62,0,0,0,2.76,2.78c.5.33,1-.21.92-.71a10.6,10.6,0,0,0-4.1-6.66c-.48-.36-1,.23-.91.7a10.29,10.29,0,0,0,4.13,6.46l.49-1.14a6.13,6.13,0,0,0-5.58,1.95.63.63,0,0,0,.61,1A26,26,0,0,0,8.64,24.4c.52-.21.67-1,0-1.2a9.26,9.26,0,0,0-7.57,1.49.63.63,0,0,0,.32,1.16,11.87,11.87,0,0,0,7.09-1.73A.63.63,0,0,0,8.33,23,8,8,0,0,0,.18,25.29a.64.64,0,0,0,.45,1.07A13.09,13.09,0,0,0,8.76,24a.63.63,0,0,0-.32-1.16A9.75,9.75,0,0,0,4,23.27a4.48,4.48,0,0,0-2.61,2.56.62.62,0,0,0,.6.79,9.43,9.43,0,0,0,6-2.55A.63.63,0,0,0,7.56,23a17.69,17.69,0,0,0-7.2,2.32.63.63,0,0,0,.48,1.14A21.27,21.27,0,0,0,7.5,24a.63.63,0,0,0-.63-1.08A20.16,20.16,0,0,1,.51,25.25L1,26.4a16.13,16.13,0,0,1,6.57-2.15l-.44-1.07A8.07,8.07,0,0,1,2,25.37l.6.79c.86-2.28,3.9-2.19,5.87-2L8.13,23a12,12,0,0,1-7.5,2.15l.44,1.07a6.78,6.78,0,0,1,6.93-2L7.85,23A10.64,10.64,0,0,1,1.39,24.6l.31,1.17A8.08,8.08,0,0,1,8.31,24.4V23.2a26.43,26.43,0,0,1-5.78,1.69l.61,1A4.87,4.87,0,0,1,7.5,24.31.63.63,0,0,0,8,23.16a9,9,0,0,1-3.57-5.71l-.92.71A9.37,9.37,0,0,1,7,24.08l.92-.71a8.22,8.22,0,0,1-3.07-3.79,8.69,8.69,0,0,1-.29-.86,1.54,1.54,0,0,0-.09-.37c0-.16-.07-.15-.22,0l.06,0c0,.05.21.13.27.17a4,4,0,0,1,.29.29q.32.32.6.66a11.08,11.08,0,0,1,1,1.43,10.87,10.87,0,0,1,1.27,3.33l.92-.7a6.75,6.75,0,0,1-4-5.08l-.92.7a7.66,7.66,0,0,1,3,3.89l1.05-.6a5.78,5.78,0,0,1-2.11-3.64l-.92.7a5.89,5.89,0,0,1,2.6,3.32l1-.61A3.31,3.31,0,0,1,7.55,21c-.29-.74-1.49-.42-1.2.33Z" transform="translate(-0.01)"/></g></g></g></svg>